<svg xmlns="http://www.w3.org/2000/svg" xmlns:osb="http://www.openswatchbook.org/uri/2009/osb" xmlns:svg="http://www.w3.org/2000/svg" xmlns:xlink="http://www.w3.org/1999/xlink" id="svg11300" width="400" height="300" display="inline" enable-background="new" version="1.0"><title id="title3004">Suru Icon Theme Template</title><defs id="defs3"><clipPath id="clipPath9430" clipPathUnits="userSpaceOnUse"><path id="path9432" fill="#fff" fill-opacity="1" fill-rule="nonzero" stroke="none" stroke-width="1" d="m 166.0625,-196 h 179.875 C 491.2348,-196 512,-175.28677 512,-30.125 v 148.25 C 512,263.28618 491.2348,284 345.9375,284 H 166.0625 C 20.7652,284 0,263.28618 0,118.125 V -30.125 C 0,-175.28677 20.7652,-196 166.0625,-196 Z" color="#000" display="inline" enable-background="new" overflow="visible" visibility="visible" style="marker:none"/></clipPath><clipPath id="clipPath1082" clipPathUnits="userSpaceOnUse"><path id="path1084" fill="#8c59d9" fill-opacity="1" stroke="none" stroke-dasharray="none" stroke-dashoffset="0" stroke-linecap="round" stroke-linejoin="round" stroke-miterlimit="4" stroke-opacity="1" stroke-width="2" d="M 361.9375,-212 C 507.2348,-212 528,-191.28677 528,-46.125 V 70.125 C 528,215.28618 507.2348,236 361.9375,236 H 214.0625 C 68.7652,236 48,215.28618 48,70.125 V -46.125 C 48,-191.28677 68.7652,-212 214.0625,-212 Z" display="inline" enable-background="new" opacity="1"/></clipPath><filter id="filter4346" width="1.026" height="1.022" x="-.013" y="-.011" color-interpolation-filters="sRGB"><feGaussianBlur id="feGaussianBlur4348" stdDeviation="2.12"/></filter><linearGradient id="linearGradient4358" x1="88" x2="488" y1="88" y2="488" gradientUnits="userSpaceOnUse" xlink:href="#linearGradient4360"/><linearGradient id="linearGradient4360"><stop id="stop4362" offset="0" stop-color="#000" stop-opacity=".588"/><stop id="stop4364" offset=".88" stop-color="#000" stop-opacity="0"/><stop id="stop4366" offset="1" stop-color="#000" stop-opacity="1"/></linearGradient><filter id="filter4380" width="1.106" height="1.088" x="-.053" y="-.044" color-interpolation-filters="sRGB"><feGaussianBlur id="feGaussianBlur4382" stdDeviation="8.48"/></filter><clipPath id="clipPath994" clipPathUnits="userSpaceOnUse"><path id="path996" fill="#cdcdcd" fill-opacity="1" fill-rule="nonzero" stroke="none" stroke-dasharray="none" stroke-miterlimit="4" stroke-opacity="1" stroke-width="2" d="m 335.73108,62 c -8.82418,0 -9.77365,0.90635 -9.7304,9.74838 V 84 96.25162 c -0.0433,8.84203 0.90622,9.74838 9.7304,9.74838 h 16.53919 c 8.82418,0 9.7304,-0.90625 9.7304,-9.74838 V 84 71.74838 C 362.00067,62.90625 361.09445,62 352.27027,62 Z" color="#000" display="inline" enable-background="accumulate" overflow="visible" visibility="visible" style="marker:none"/></clipPath><linearGradient id="linearGradient927"><stop id="stop923" offset="0" stop-color="#fff" stop-opacity="1"/><stop id="stop933" offset=".125" stop-color="#fff" stop-opacity=".098"/><stop id="stop931" offset=".925" stop-color="#fff" stop-opacity=".098"/><stop id="stop925" offset="1" stop-color="#fff" stop-opacity=".498"/></linearGradient><linearGradient id="linearGradient981" x1="333" x2="333" y1="192" y2="208" gradientTransform="rotate(90,331.99966,200)" gradientUnits="userSpaceOnUse" xlink:href="#linearGradient927"/><clipPath id="clipPath971" clipPathUnits="userSpaceOnUse"><path id="path973" fill="#46a926" fill-opacity="1" fill-rule="nonzero" stroke="none" stroke-dasharray="none" stroke-miterlimit="4" stroke-opacity="1" stroke-width="2" d="m 327.8652,189 c -4.41209,0 -4.88682,0.45318 -4.8652,4.87419 V 200 206.12581 C 322.9783,210.54682 323.45311,211 327.8652,211 h 8.2696 C 340.54689,211 341,210.54688 341,206.12581 V 200 193.87419 C 341,189.45313 340.54688,189 336.13479,189 Z" color="#000" display="inline" enable-background="accumulate" opacity="1" overflow="visible" visibility="visible" style="marker:none"/></clipPath><linearGradient id="linearGradient993" x1="329" x2="329" y1="239" y2="250" gradientTransform="rotate(90,328,244)" gradientUnits="userSpaceOnUse" xlink:href="#linearGradient927"/><clipPath id="clipPath983" clipPathUnits="userSpaceOnUse"><path id="path985" fill="#46a926" fill-opacity="1" fill-rule="nonzero" stroke="none" stroke-dasharray="none" stroke-miterlimit="4" stroke-opacity="1" stroke-width="2" d="m 325.09646,237 c -2.80769,0 -3.10979,0.28839 -3.09603,3.10176 V 244 v 3.89824 c -0.0138,2.81337 0.28834,3.10176 3.09603,3.10176 h 5.8075 C 333.71166,251 334,250.71165 334,247.89824 V 244 240.10176 C 334,237.28836 333.71165,237 330.90396,237 Z" color="#000" display="inline" enable-background="accumulate" opacity="1" overflow="visible" visibility="visible" style="marker:none"/></clipPath><linearGradient id="linearGradient969" x1="336" x2="336" y1="136" y2="160" gradientTransform="rotate(90,335.99998,147.99998)" gradientUnits="userSpaceOnUse" xlink:href="#linearGradient927"/><clipPath id="clipPath959" clipPathUnits="userSpaceOnUse"><path id="path961" fill="#46a926" fill-opacity="1" fill-rule="nonzero" stroke="none" stroke-dasharray="none" stroke-miterlimit="4" stroke-opacity="1" stroke-width="2" d="m 330.1929,133.99999 c -5.61538,0 -6.21958,0.57678 -6.19206,6.20352 v 7.79648 7.79648 c -0.0276,5.62673 0.57668,6.20351 6.19206,6.20351 h 11.615 c 5.6154,0 6.19208,-0.5767 6.19208,-6.20351 v -7.79648 -7.79648 c 0,-5.6268 -0.5767,-6.20352 -6.19208,-6.20352 z" color="#000" display="inline" enable-background="accumulate" opacity="1" overflow="visible" visibility="visible" style="marker:none"/></clipPath><linearGradient id="linearGradient4338-3-3"><stop id="stop4340-0-1" offset="0" stop-color="#281d2c" stop-opacity="1"/><stop id="stop4342-7-0" offset="1" stop-color="#331d3b" stop-opacity="1"/></linearGradient><clipPath id="clipPath1101" clipPathUnits="userSpaceOnUse"><path id="path1103" fill="url(#linearGradient1105)" fill-opacity="1" fill-rule="nonzero" stroke="none" stroke-width="1" d="m 39.9973,106.92432 c 0,-35.29673 3.625418,-39.09461 38.99353,-38.92162 h 73.00647 73.00647 c 35.36812,-0.17299 38.99353,3.62489 38.99353,38.92162 v 98.15676 c 0,35.29672 -3.625,38.92162 -38.99353,38.92162 H 151.9973 78.99083 c -35.368533,0 -38.99353,-3.6249 -38.99353,-38.92162 z" color="#000" display="inline" enable-background="accumulate" overflow="visible" visibility="visible" style="marker:none"/></clipPath><linearGradient id="linearGradient1105" x1="529.655" x2="-35.31" y1="401.584" y2="119.093" gradientTransform="matrix(-0.453125,0,0,0.45311204,263.9973,30.0403)" gradientUnits="userSpaceOnUse" xlink:href="#linearGradient4338-3-3"/><clipPath id="clipPath934" clipPathUnits="userSpaceOnUse"><path id="path936" fill="#cdcdcd" fill-opacity="1" fill-rule="nonzero" stroke="none" stroke-dasharray="none" stroke-miterlimit="4" stroke-opacity="1" stroke-width="2" d="m 335.73108,61.999999 c -8.82418,0 -9.77365,0.90635 -9.7304,9.74838 v 12.25162 l 0,12.25162 C 325.95738,105.09365 326.9069,106 335.73108,106 h 18.53919 c 8.82418,0 9.7304,-0.90625 9.7304,-9.748381 v -12.25162 -12.25162 c 0,-8.84213 -0.90622,-9.74838 -9.7304,-9.74838 z" color="#000" display="inline" enable-background="accumulate" overflow="visible" visibility="visible" style="marker:none"/></clipPath><linearGradient id="linearGradient927-3-6"><stop id="stop923-3" offset="0" stop-color="#fff" stop-opacity="1"/><stop id="stop933-6" offset=".125" stop-color="#fff" stop-opacity=".098"/><stop id="stop931-7" offset=".925" stop-color="#fff" stop-opacity=".098"/><stop id="stop925-5" offset="1" stop-color="#000" stop-opacity=".498"/></linearGradient><linearGradient id="linearGradient945" x1="348" x2="348" y1="65" y2="105" gradientUnits="userSpaceOnUse" xlink:href="#linearGradient927-3-6"/><linearGradient id="linearGradient3045"><stop id="stop3047" offset="0" stop-color="#847784" stop-opacity=".996"/><stop id="stop3049" offset="1" stop-color="#695f69" stop-opacity="1"/></linearGradient><linearGradient id="linearGradient4213"><stop id="stop4215" offset="0" stop-color="#b1d7f3" stop-opacity="1"/><stop id="stop4217" offset="1" stop-color="#8fafda" stop-opacity="1"/></linearGradient><linearGradient id="linearGradient5460" osb:paint="gradient"><stop id="stop5462" offset="0" stop-color="#e6e6e6" stop-opacity="1"/><stop id="stop5464" offset="1" stop-color="#fff" stop-opacity="1"/></linearGradient><linearGradient id="linearGradient5476" osb:paint="solid"><stop id="stop5478" offset="0" stop-color="#772953" stop-opacity="1"/></linearGradient><filter id="filter4154" color-interpolation-filters="sRGB"><feComposite id="feComposite4156" in2="SourceGraphic" k1="0" k2="1" k3="0" k4="0" operator="arithmetic" result="composite1"/><feColorMatrix id="feColorMatrix4158" in="composite1" result="colormatrix1" type="saturate" values="0"/><feFlood id="feFlood4160" flood-color="#483B48" result="flood1"/><feBlend id="feBlend4162" in="flood1" in2="colormatrix1" mode="multiply" result="blend1"/><feBlend id="feBlend4164" in2="blend1" mode="screen" result="blend2"/><feColorMatrix id="feColorMatrix4166" in="blend2" result="colormatrix2" type="saturate" values="1"/><feComposite id="feComposite4168" in="colormatrix2" in2="SourceGraphic" operator="in" result="composite2"/></filter><clipPath id="clipPath3062" clipPathUnits="userSpaceOnUse"><rect id="rect3064" width="475.665" height="445.935" x="34.168" y="-194.968" fill="url(#linearGradient3066)" fill-opacity="1" fill-rule="nonzero" stroke="none" stroke-width="40" color="#000" display="inline" enable-background="new" overflow="visible" visibility="visible" style="marker:none"/></clipPath><linearGradient id="linearGradient3066" x1="256" x2="256" y1="50" y2="288" gradientTransform="matrix(1.8580645,0,0,1.8736786,4.4387126,-288.65166)" gradientUnits="userSpaceOnUse" xlink:href="#linearGradient3045"/></defs><metadata id="metadata4"/><g id="layer1" display="inline"><g id="layer7" display="none"><text enable-background="new" style="line-height:0%;-inkscape-font-specification:'DejaVu Sans'" id="context" x="19.007" y="-8.255" fill="#000" fill-opacity="1" stroke="none" display="inline" font-family="DejaVu Sans" font-stretch="normal" font-style="normal" font-variant="normal" font-weight="normal" xml:space="preserve"><tspan id="tspan3933" x="19.007" y="-8.255" font-family="DejaVu Sans" font-size="18" font-stretch="normal" font-style="normal" font-variant="normal" font-weight="normal" style="line-height:1.25;-inkscape-font-specification:'DejaVu Sans'">status</tspan></text><text id="icon-name" x="146.488" y="-8.255" fill="#000" fill-opacity="1" stroke="none" display="inline" enable-background="new" font-family="DejaVu Sans" font-stretch="normal" font-style="normal" font-variant="normal" font-weight="bold" text-anchor="start" writing-mode="lr-tb" xml:space="preserve" style="line-height:0%;-inkscape-font-specification:'DejaVu Sans Bold';text-align:start"><tspan id="tspan3937" x="146.488" y="-8.255" font-family="DejaVu Sans" font-size="18" font-stretch="normal" font-style="normal" font-variant="normal" font-weight="bold" style="line-height:1.25;-inkscape-font-specification:'DejaVu Sans Bold'">image-missing</tspan></text><rect id="rect16x16" width="16" height="16" x="320" y="236" fill="#cdcdcd" fill-opacity="1" fill-rule="nonzero" stroke="none" stroke-width="2" display="inline" enable-background="accumulate" overflow="visible" visibility="visible" style="marker:none"/><rect id="rect24x24" width="24" height="24" x="320" y="188" fill="#cdcdcd" fill-opacity="1" fill-rule="nonzero" stroke="none" stroke-width="2" display="inline" enable-background="accumulate" overflow="visible" visibility="visible" style="marker:none"/><rect id="rect32x32" width="32" height="32" x="320" y="132" fill="#cdcdcd" fill-opacity="1" fill-rule="nonzero" stroke="none" stroke-width="2" display="inline" enable-background="accumulate" overflow="visible" visibility="visible" style="marker:none"/><rect id="rect48x48" width="48" height="48" x="320" y="60" fill="#cdcdcd" fill-opacity="1" fill-rule="nonzero" stroke="none" stroke-width="2" display="inline" enable-background="accumulate" overflow="visible" visibility="visible" style="marker:none"/><rect id="rect3951" width="256" height="256" x="24" y="28" fill="#cdcdcd" fill-opacity="1" fill-rule="nonzero" stroke="none" stroke-width="2" display="inline" enable-background="accumulate" overflow="visible" visibility="visible" style="marker:none"/></g><g id="layer4" display="inline"><path id="path1036" fill="#000" fill-opacity="1" fill-rule="nonzero" stroke="none" stroke-dasharray="none" stroke-dashoffset="0" stroke-linecap="butt" stroke-linejoin="miter" stroke-miterlimit="4" stroke-opacity="1" stroke-width="1" d="m 324.10156,238 c -0.71915,0 -1.30483,0.0125 -1.83594,0.10156 -0.53547,0.0898 -1.06731,0.277 -1.47656,0.68555 -0.40957,0.4089 -0.59739,0.93918 -0.6875,1.47461 -0.0893,0.5307 -0.10156,1.11632 -0.10156,1.83398 v 5.8086 c 0,0.7177 0.0124,1.30264 0.10156,1.83398 0.09,0.53651 0.27895,1.06902 0.6875,1.47852 0.40843,0.40938 0.93899,0.59618 1.47656,0.68554 0.53194,0.0884 1.11889,0.10116 1.8379,0.0977 H 328 h 3.89648 c 0.71856,0.003 1.30564,-0.009 1.8379,-0.0977 0.53758,-0.0893 1.06814,-0.27615 1.47656,-0.68554 0.40854,-0.40951 0.59548,-0.94204 0.68554,-1.47852 C 335.98565,249.20693 336,248.622 336,247.9043 v -5.8086 c 0,-0.71766 -0.0142,-1.30328 -0.10352,-1.83398 -0.0901,-0.53541 -0.27596,-1.0657 -0.68554,-1.47461 -0.40926,-0.40854 -0.94112,-0.59573 -1.47656,-0.68555 C 333.20327,238.0125 332.61759,238 331.89844,238 H 328 Z" baseline-shift="baseline" clip-rule="nonzero" color="#000" color-interpolation="sRGB" color-interpolation-filters="linearRGB" color-rendering="auto" direction="ltr" display="inline" dominant-baseline="auto" enable-background="accumulate" font-family="sans-serif" font-size="medium" font-stretch="normal" font-style="normal" font-variant="normal" font-weight="normal" image-rendering="auto" letter-spacing="normal" opacity=".1" overflow="visible" shape-rendering="auto" text-anchor="start" text-decoration="none" text-rendering="auto" vector-effect="none" visibility="visible" word-spacing="normal" writing-mode="lr-tb" style="line-height:normal;font-variant-ligatures:normal;font-variant-position:normal;font-variant-caps:normal;font-variant-numeric:normal;font-variant-alternates:normal;font-feature-settings:normal;text-indent:0;text-align:start;text-decoration-line:none;text-decoration-style:solid;text-decoration-color:#000;text-transform:none;text-orientation:mixed;white-space:normal;shape-padding:0;isolation:auto;mix-blend-mode:normal;solid-color:#000;solid-opacity:1;marker:none"/><path id="path1020" fill="#000" fill-opacity="1" fill-rule="nonzero" stroke="none" stroke-dasharray="none" stroke-dashoffset="0" stroke-linecap="butt" stroke-linejoin="miter" stroke-miterlimit="4" stroke-opacity="1" stroke-width="2" d="m 320.99928,95.268807 c 0,2.22316 0.0512,3.97368 0.29297,5.414063 0.24178,1.44039 0.69529,2.61905 1.55664,3.48243 0.86134,0.86337 2.03947,1.31906 3.48046,1.55859 1.441,0.23953 3.19535,0.28629 5.42383,0.27539 h 12.2461 12.25195 c 2.22506,0.0108 3.97852,-0.0361 5.41797,-0.27539 1.441,-0.23953 2.61913,-0.69522 3.48047,-1.55859 0.86134,-0.86338 1.31486,-2.04204 1.55664,-3.48243 0.24179,-1.440393 0.29297,-3.190903 0.29297,-5.414063 v -16.53906 c 0,-2.22316 -0.0511,-3.97276 -0.29297,-5.41016 -0.24189,-1.4374 -0.69694,-2.61246 -1.55859,-3.47265 -0.86165,-0.8602 -2.03894,-1.3132 -3.47852,-1.55469 -1.43957,-0.24149 -3.19036,-0.29297 -5.41797,-0.29297 h -12.25195 -12.25196 c -2.22761,0 -3.97839,0.0515 -5.41797,0.29297 -1.43957,0.24149 -2.61686,0.69449 -3.47851,1.55469 -0.86165,0.86019 -1.31671,2.03525 -1.55859,3.47265 -0.24189,1.4374 -0.29297,3.187 -0.29297,5.41016 z" baseline-shift="baseline" clip-rule="nonzero" color="#000" color-interpolation="sRGB" color-interpolation-filters="linearRGB" color-rendering="auto" direction="ltr" display="inline" dominant-baseline="auto" enable-background="accumulate" font-family="sans-serif" font-size="medium" font-stretch="normal" font-style="normal" font-variant="normal" font-weight="normal" image-rendering="auto" letter-spacing="normal" opacity=".1" overflow="visible" shape-rendering="auto" text-anchor="start" text-decoration="none" text-rendering="auto" vector-effect="none" visibility="visible" word-spacing="normal" writing-mode="lr-tb" style="line-height:normal;font-variant-ligatures:normal;font-variant-position:normal;font-variant-caps:normal;font-variant-numeric:normal;font-variant-alternates:normal;font-feature-settings:normal;text-indent:0;text-align:start;text-decoration-line:none;text-decoration-style:solid;text-decoration-color:#000;text-transform:none;text-orientation:mixed;white-space:normal;shape-padding:0;isolation:auto;mix-blend-mode:normal;solid-color:#000;solid-opacity:1;marker:none"/><path id="rect4158-9" fill="#000" fill-opacity="1" fill-rule="nonzero" stroke="none" stroke-width="2" d="M 189.84323,74 C 119.24979,74 111.65402,81.250835 112,151.98706 V 298 444.01294 C 111.65402,514.74917 119.24979,522 189.84323,522 H 418.15677 C 488.75021,522 494.0629,514.72348 496,444.01294 V 298 151.98706 C 496,81.249993 488.75021,74 418.15677,74 Z" color="#000" display="inline" enable-background="accumulate" filter="url(#filter4346)" opacity=".1" overflow="visible" transform="matrix(0,-0.5,0.5,0,2.9973021,316.9973)" visibility="visible" style="marker:none"/><path id="path4350" fill="url(#linearGradient4358)" fill-opacity="1" fill-rule="nonzero" stroke="none" stroke-width="2" d="M 189.84323,74 C 119.24979,74 111.65402,81.250835 112,151.98706 V 298 444.01294 C 111.65402,514.74917 119.24979,522 189.84323,522 H 418.15677 C 488.75021,522 496,514.75001 496,444.01294 V 298 151.98706 C 496,81.249993 488.75021,74 418.15677,74 Z" color="#000" display="inline" enable-background="accumulate" filter="url(#filter4380)" opacity=".3" overflow="visible" transform="matrix(0,0.5,0.5,0,2.9973021,13.00269)" visibility="visible" style="marker:none"/><path id="path999" fill="#000" fill-opacity="1" fill-rule="nonzero" stroke="none" stroke-dasharray="none" stroke-dashoffset="0" stroke-linecap="butt" stroke-linejoin="miter" stroke-miterlimit="4" stroke-opacity="1" stroke-width="2" d="m 320.99951,155.80615 c 0,1.42096 0.0308,2.54883 0.19141,3.50586 0.16064,0.95703 0.4726,1.79146 1.09179,2.41211 0.61919,0.62065 1.45612,0.93647 2.41407,1.0957 0.95795,0.15924 2.08705,0.18666 3.51171,0.17969 h 7.79102 7.79688 c 1.42131,0.007 2.5495,-0.0207 3.50585,-0.17969 0.95796,-0.15923 1.79488,-0.47505 2.41407,-1.0957 0.61919,-0.62065 0.93115,-1.45508 1.09179,-2.41211 0.16065,-0.95703 0.19141,-2.0849 0.19141,-3.50586 v -11.61523 c 0,-1.42097 -0.0307,-2.54669 -0.19141,-3.50196 -0.16075,-0.95527 -0.47425,-1.78779 -1.09375,-2.40625 -0.6195,-0.61845 -1.45363,-0.93134 -2.41015,-1.09179 -0.95653,-0.16046 -2.08403,-0.19141 -3.50781,-0.19141 h -7.79688 -7.79688 c -1.42378,0 -2.55128,0.031 -3.50781,0.19141 -0.95653,0.16045 -1.79065,0.47334 -2.41015,1.09179 -0.61951,0.61846 -0.933,1.45098 -1.09375,2.40625 -0.16076,0.95527 -0.19141,2.08099 -0.19141,3.50196 z" baseline-shift="baseline" clip-rule="nonzero" color="#000" color-interpolation="sRGB" color-interpolation-filters="linearRGB" color-rendering="auto" direction="ltr" display="inline" dominant-baseline="auto" enable-background="accumulate" font-family="sans-serif" font-size="medium" font-stretch="normal" font-style="normal" font-variant="normal" font-weight="normal" image-rendering="auto" letter-spacing="normal" opacity=".1" overflow="visible" shape-rendering="auto" text-anchor="start" text-decoration="none" text-rendering="auto" vector-effect="none" visibility="visible" word-spacing="normal" writing-mode="lr-tb" style="line-height:normal;font-variant-ligatures:normal;font-variant-position:normal;font-variant-caps:normal;font-variant-numeric:normal;font-variant-alternates:normal;font-feature-settings:normal;text-indent:0;text-align:start;text-decoration-line:none;text-decoration-style:solid;text-decoration-color:#000;text-transform:none;text-orientation:mixed;white-space:normal;shape-padding:0;isolation:auto;mix-blend-mode:normal;solid-color:#000;solid-opacity:1;marker:none"/><path id="path1065" fill="#000" fill-opacity="1" fill-rule="nonzero" stroke="none" stroke-dasharray="none" stroke-dashoffset="0" stroke-linecap="butt" stroke-linejoin="miter" stroke-miterlimit="4" stroke-opacity="1" stroke-width="1" d="m 325.875,192 c -1.1215,0 -2.02115,0.0225 -2.79492,0.15234 -0.77661,0.13029 -1.47821,0.38927 -2.00781,0.91797 -0.52965,0.52877 -0.78935,1.22994 -0.91993,2.00586 C 320.0223,195.84899 320,196.746 320,197.86523 v 8.26954 c 0,1.11925 0.0224,2.01501 0.15234,2.78906 0.13049,0.77729 0.39053,1.48303 0.91993,2.01367 0.52954,0.5308 1.23351,0.78862 2.01171,0.91797 0.77469,0.12878 1.67184,0.14998 2.79297,0.14453 H 332 h 6.12305 c 1.12086,0.005 2.01803,-0.0157 2.79297,-0.14453 0.77821,-0.12935 1.48217,-0.38716 2.01171,-0.91797 0.52939,-0.53064 0.78749,-1.23638 0.91797,-2.01367 0.12993,-0.77406 0.1543,-1.66981 0.1543,-2.78906 v -8.26954 c 0,-1.11922 -0.0242,-2.01621 -0.1543,-2.78906 -0.13058,-0.77592 -0.38832,-1.47709 -0.91797,-2.00586 -0.5296,-0.5287 -1.23315,-0.78768 -2.00976,-0.91797 C 340.14424,192.02256 339.24651,192 338.125,192 H 332 Z" baseline-shift="baseline" clip-rule="nonzero" color="#000" color-interpolation="sRGB" color-interpolation-filters="linearRGB" color-rendering="auto" direction="ltr" display="inline" dominant-baseline="auto" enable-background="accumulate" font-family="sans-serif" font-size="medium" font-stretch="normal" font-style="normal" font-variant="normal" font-weight="normal" image-rendering="auto" letter-spacing="normal" opacity=".1" overflow="visible" shape-rendering="auto" text-anchor="start" text-decoration="none" text-rendering="auto" vector-effect="none" visibility="visible" word-spacing="normal" writing-mode="lr-tb" style="line-height:normal;font-variant-ligatures:normal;font-variant-position:normal;font-variant-caps:normal;font-variant-numeric:normal;font-variant-alternates:normal;font-feature-settings:normal;text-indent:0;text-align:start;text-decoration-line:none;text-decoration-style:solid;text-decoration-color:#000;text-transform:none;text-orientation:mixed;white-space:normal;shape-padding:0;isolation:auto;mix-blend-mode:normal;solid-color:#000;solid-opacity:1;marker:none"/></g><g id="layer2" display="inline"><path id="path949" fill="#ed3146" fill-opacity="1" fill-rule="nonzero" stroke="none" stroke-width="1" d="m 331.74805,65 c -2.22703,0 -3.98102,0.04964 -5.41993,0.291016 -1.44026,0.241603 -2.61438,0.693961 -3.47656,1.554687 -0.86248,0.861023 -1.3166,2.036651 -1.55859,3.474609 C 321.05126,71.756661 321,73.507649 321,75.730469 v 18.539062 c 0,2.222843 0.0514,3.974746 0.29297,5.414063 0.24191,1.441106 0.69492,2.616716 1.55664,3.480466 0.86187,0.86391 2.03884,1.31896 3.48047,1.5586 1.43916,0.23922 3.19276,0.2882 5.41992,0.27734 H 344 356.24805 c 2.22714,0.0108 3.98268,-0.0381 5.42187,-0.27734 1.44163,-0.23964 2.61664,-0.69468 3.47852,-1.5586 0.86171,-0.86375 1.31473,-2.03935 1.55664,-3.480466 C 366.94669,98.244252 367,96.492367 367,94.269531 V 75.730469 c 0,-2.222818 -0.0532,-3.973803 -0.29492,-5.410157 -0.24198,-1.43796 -0.69415,-2.613586 -1.55664,-3.474609 -0.86218,-0.860726 -2.03824,-1.313084 -3.47852,-1.554687 C 360.23999,65.051137 358.7096,65 356.25195,65 H 344 Z" color="#000" display="inline" enable-background="accumulate" overflow="visible" visibility="visible" style="marker:none"/><path id="rect4158" fill="#ed3146" fill-opacity="1" fill-rule="nonzero" stroke="none" stroke-width="1" d="m 263.9973,106.92432 c 0,-35.29673 -3.62542,-39.09461 -38.99353,-38.92162 H 151.9973 78.99083 C 43.62271,67.82971 39.9973,71.62759 39.9973,106.92432 v 114.15676 c 0,35.29672 3.625,38.92162 38.99353,38.92162 h 73.00647 73.00647 c 35.36853,0 38.99353,-3.6249 38.99353,-38.92162 z" color="#000" display="inline" enable-background="accumulate" overflow="visible" visibility="visible" style="marker:none"/><path id="path918" fill="#ed3146" fill-opacity="1" fill-rule="nonzero" stroke="none" stroke-width="1" d="m 335.49978,241.09593 c 0,-0.71048 -0.0154,-1.27344 -0.0957,-1.75195 -0.0803,-0.47851 -0.23728,-0.89671 -0.54688,-1.20703 -0.30959,-0.31032 -0.7261,-0.46726 -1.20508,-0.54688 -0.47897,-0.0796 -1.04352,-0.0933 -1.75586,-0.0898 h -3.89648 -3.89844 c -0.71121,-0.003 -1.27546,0.0103 -1.7539,0.0898 -0.47898,0.0796 -0.89549,0.23655 -1.20508,0.54688 -0.3096,0.31033 -0.46655,0.72851 -0.54688,1.20703 -0.0803,0.47852 -0.0957,1.04147 -0.0957,1.75195 v 5.8086 c 0,0.71048 0.0153,1.27236 0.0957,1.75 0.0804,0.47763 0.23713,0.89584 0.54688,1.20508 0.30975,0.30921 0.72681,0.46469 1.20508,0.54492 0.47826,0.0802 1.04201,0.0957 1.7539,0.0957 h 3.89844 3.89844 c 0.71189,0 1.27564,-0.0155 1.7539,-0.0957 0.47827,-0.0802 0.89533,-0.2357 1.20508,-0.54492 0.30975,-0.30924 0.4665,-0.72745 0.54688,-1.20508 0.0804,-0.47764 0.0957,-1.03952 0.0957,-1.75 z" color="#000" display="inline" enable-background="accumulate" overflow="visible" visibility="visible" style="marker:none"/><path id="path914" fill="#ed3146" fill-opacity="1" fill-rule="nonzero" stroke="none" stroke-width="1" d="m 343.49963,196.8656 c 0,-1.11158 -0.0256,-1.98683 -0.14648,-2.70703 -0.1209,-0.72019 -0.34863,-1.3105 -0.7793,-1.74218 -0.43067,-0.43169 -1.01974,-0.65954 -1.74024,-0.7793 -0.72049,-0.11977 -1.59669,-0.14217 -2.71093,-0.13672 h -6.12305 -6.125 c -1.1131,-0.005 -1.989,0.017 -2.70898,0.13672 -0.72051,0.11976 -1.30957,0.3476 -1.74024,0.7793 -0.43067,0.43169 -0.6584,1.02199 -0.7793,1.74218 -0.12089,0.7202 -0.14648,1.59545 -0.14648,2.70703 v 8.26954 c 0,1.11158 0.0255,1.98637 0.14648,2.70507 0.12095,0.7187 0.34848,1.30623 0.7793,1.73633 0.43083,0.4301 1.01849,0.6566 1.73828,0.77735 0.71979,0.12074 1.59713,0.14648 2.71094,0.14648 h 6.125 6.125 c 1.11381,0 1.99115,-0.0257 2.71094,-0.14648 0.71979,-0.12075 1.30745,-0.34725 1.73828,-0.77735 0.43082,-0.4301 0.65835,-1.01763 0.7793,-1.73633 0.12094,-0.7187 0.14648,-1.59349 0.14648,-2.70507 z" color="#000" display="inline" enable-background="accumulate" overflow="visible" visibility="visible" style="marker:none"/><path id="path922" fill="#ed3146" fill-opacity="1" fill-rule="nonzero" stroke="none" stroke-width="1" d="m 350.49955,143.19382 c 0,-1.41241 -0.0342,-2.52238 -0.18555,-3.42383 -0.15132,-0.90145 -0.43164,-1.61987 -0.95312,-2.14258 -0.52148,-0.5227 -1.23898,-0.80325 -2.14063,-0.95312 -0.90164,-0.14988 -2.0101,-0.18075 -3.42578,-0.17383 h -7.79492 -7.79688 c -1.41452,-0.007 -2.52269,0.024 -3.42382,0.17383 -0.90165,0.14987 -1.61915,0.43041 -2.14063,0.95312 -0.52148,0.52272 -0.8018,1.24112 -0.95312,2.14258 -0.15132,0.90146 -0.18555,2.01142 -0.18555,3.42383 v 11.61523 c 0,1.41241 0.0342,2.51847 0.18555,3.41797 0.15137,0.8995 0.43149,1.61597 0.95312,2.13672 0.52163,0.52075 1.23774,0.80004 2.13867,0.95117 0.90094,0.15113 2.01055,0.18555 3.42578,0.18555 h 7.79688 7.79688 c 1.41524,0 2.52484,-0.0344 3.42578,-0.18555 0.90093,-0.15113 1.61703,-0.43042 2.13867,-0.95117 0.52163,-0.52075 0.80175,-1.23722 0.95312,-2.13672 0.15137,-0.8995 0.18555,-2.00556 0.18555,-3.41797 z" color="#000" display="inline" enable-background="accumulate" overflow="visible" visibility="visible" style="marker:none"/><path id="path1056" fill="#000" fill-opacity="1" fill-rule="nonzero" stroke="none" stroke-width="1" d="m 39.998047,219.08203 v 2 c 0,35.29672 3.623654,38.91992 38.992187,38.91992 h 73.007816 73.00586 c 35.36853,0 38.99414,-3.6232 38.99414,-38.91992 v -2 c 0,35.29672 -3.62561,38.91992 -38.99414,38.91992 H 151.99805 78.990234 c -35.368533,0 -38.992187,-3.6232 -38.992187,-38.91992 z" color="#000" display="inline" enable-background="accumulate" opacity=".2" overflow="visible" visibility="visible" style="marker:none"/><path id="path923" fill="#fff" fill-opacity="1" fill-rule="nonzero" stroke="none" stroke-width="1" d="m 78.990234,68.001953 c -35.36812,-0.17299 -38.992187,3.625145 -38.992187,38.921877 v 2 c 0,-35.296732 3.624067,-39.094867 38.992187,-38.921877 h 73.007816 73.00586 c 35.36811,-0.17299 38.99414,3.625145 38.99414,38.921877 v -2 c 0,-35.296732 -3.62603,-39.094867 -38.99414,-38.921877 h -73.00586 z" color="#000" display="inline" enable-background="accumulate" opacity=".2" overflow="visible" visibility="visible" style="marker:none"/></g><g id="layer6" display="inline"><path id="path2933" fill="#fff" fill-opacity="1" fill-rule="nonzero" stroke="none" stroke-dasharray="none" stroke-dashoffset="0" stroke-linecap="square" stroke-linejoin="miter" stroke-miterlimit="4" stroke-opacity="1" stroke-width="8.041" d="m 151.9973,100.5445 c -35.48121,0 -64.330579,28.84938 -64.330579,64.33058 0,35.48121 28.849369,64.33058 64.330579,64.33058 35.48121,0 64.33058,-28.84937 64.33058,-64.33058 0,-35.4812 -28.84937,-64.33058 -64.33058,-64.33058 z m 0,8.04133 c 31.13535,0 56.28925,25.1539 56.28925,56.28925 0,14.11831 -5.20168,26.97462 -13.75821,36.84559 l -79.37663,-79.37663 c 9.87098,-8.55652 22.72728,-13.75821 36.84559,-13.75821 z m -42.53104,19.44367 79.37663,79.37663 c -9.87097,8.55652 -22.72728,13.75821 -36.84559,13.75821 -31.13535,0 -56.289251,-25.1539 -56.289251,-56.28926 0,-14.1183 5.201681,-26.97461 13.758211,-36.84558 z" baseline-shift="baseline" clip-rule="nonzero" color="#000" color-interpolation="sRGB" color-interpolation-filters="linearRGB" color-rendering="auto" direction="ltr" display="inline" dominant-baseline="auto" enable-background="accumulate" font-family="sans-serif" font-size="medium" font-stretch="normal" font-style="normal" font-variant="normal" font-weight="normal" image-rendering="auto" letter-spacing="normal" opacity=".6" overflow="visible" shape-rendering="auto" text-anchor="start" text-decoration="none" text-rendering="auto" vector-effect="none" visibility="visible" word-spacing="normal" writing-mode="lr-tb" style="line-height:normal;font-variant-ligatures:normal;font-variant-position:normal;font-variant-caps:normal;font-variant-numeric:normal;font-variant-alternates:normal;font-feature-settings:normal;text-indent:0;text-align:start;text-decoration-line:none;text-decoration-style:solid;text-decoration-color:#000;text-transform:none;text-orientation:mixed;white-space:normal;shape-padding:0;isolation:auto;mix-blend-mode:normal;solid-color:#000;solid-opacity:1"/><path id="path2933-7" fill="#fff" fill-opacity="1" fill-rule="nonzero" stroke="none" stroke-dasharray="none" stroke-dashoffset="0" stroke-linecap="square" stroke-linejoin="miter" stroke-miterlimit="4" stroke-opacity="1" stroke-width="1.505" d="m 343.99932,72.962118 c -6.63944,0 -12.03789,5.398452 -12.03789,12.037886 0,6.639436 5.39845,12.037886 12.03789,12.037886 6.63944,0 12.03789,-5.39845 12.03789,-12.037886 0,-6.639434 -5.39845,-12.037886 -12.03789,-12.037886 z m 0,1.504737 c 5.82621,0 10.53315,4.706934 10.53315,10.533149 0,2.641895 -0.97337,5.047637 -2.57452,6.894747 L 337.10457,77.041366 c 1.84711,-1.601143 4.25285,-2.574511 6.89475,-2.574511 z m -7.95863,3.638405 14.85338,14.853384 c -1.84711,1.601142 -4.25285,2.57451 -6.89475,2.57451 -5.82621,0 -10.53315,-4.706933 -10.53315,-10.53315 0,-2.641893 0.97337,-5.047635 2.57452,-6.894744 z" baseline-shift="baseline" clip-rule="nonzero" color="#000" color-interpolation="sRGB" color-interpolation-filters="linearRGB" color-rendering="auto" direction="ltr" display="inline" dominant-baseline="auto" enable-background="accumulate" font-family="sans-serif" font-size="medium" font-stretch="normal" font-style="normal" font-variant="normal" font-weight="normal" image-rendering="auto" letter-spacing="normal" opacity=".6" overflow="visible" shape-rendering="auto" text-anchor="start" text-decoration="none" text-rendering="auto" vector-effect="none" visibility="visible" word-spacing="normal" writing-mode="lr-tb" style="line-height:normal;font-variant-ligatures:normal;font-variant-position:normal;font-variant-caps:normal;font-variant-numeric:normal;font-variant-alternates:normal;font-feature-settings:normal;text-indent:0;text-align:start;text-decoration-line:none;text-decoration-style:solid;text-decoration-color:#000;text-transform:none;text-orientation:mixed;white-space:normal;shape-padding:0;isolation:auto;mix-blend-mode:normal;solid-color:#000;solid-opacity:1"/><path id="path2933-7-5" fill="#fff" fill-opacity="1" fill-rule="nonzero" stroke="none" stroke-dasharray="none" stroke-dashoffset="0" stroke-linecap="square" stroke-linejoin="miter" stroke-miterlimit="4" stroke-opacity="1" stroke-width="1.003" d="m 335.99957,140.97472 c -4.42654,0 -8.02571,3.59918 -8.02571,8.02571 0,4.42654 3.59917,8.02571 8.02571,8.02571 4.42654,0 8.02571,-3.59917 8.02571,-8.02571 0,-4.42653 -3.59917,-8.02571 -8.02571,-8.02571 z m 0,1.00322 c 3.88436,0 7.02249,3.13813 7.02249,7.02249 0,1.76136 -0.64895,3.36528 -1.71644,4.59676 l -9.90281,-9.90282 c 1.23148,-1.06748 2.83539,-1.71643 4.59676,-1.71643 z m -5.30605,2.42574 9.90281,9.90281 c -1.23148,1.06748 -2.83539,1.71643 -4.59676,1.71643 -3.88436,0 -7.02249,-3.13813 -7.02249,-7.02249 0,-1.76136 0.64895,-3.36528 1.71644,-4.59675 z" baseline-shift="baseline" clip-rule="nonzero" color="#000" color-interpolation="sRGB" color-interpolation-filters="linearRGB" color-rendering="auto" direction="ltr" display="inline" dominant-baseline="auto" enable-background="accumulate" font-family="sans-serif" font-size="medium" font-stretch="normal" font-style="normal" font-variant="normal" font-weight="normal" image-rendering="auto" letter-spacing="normal" opacity=".6" overflow="visible" shape-rendering="auto" text-anchor="start" text-decoration="none" text-rendering="auto" vector-effect="none" visibility="visible" word-spacing="normal" writing-mode="lr-tb" style="line-height:normal;font-variant-ligatures:normal;font-variant-position:normal;font-variant-caps:normal;font-variant-numeric:normal;font-variant-alternates:normal;font-feature-settings:normal;text-indent:0;text-align:start;text-decoration-line:none;text-decoration-style:solid;text-decoration-color:#000;text-transform:none;text-orientation:mixed;white-space:normal;shape-padding:0;isolation:auto;mix-blend-mode:normal;solid-color:#000;solid-opacity:1"/><path id="path2933-7-5-4" fill="#fff" fill-opacity="1" fill-rule="nonzero" stroke="none" stroke-dasharray="none" stroke-dashoffset="0" stroke-linecap="square" stroke-linejoin="miter" stroke-miterlimit="4" stroke-opacity="1" stroke-width=".752" d="m 331.99966,194.98106 c -3.3199,0 -6.01928,2.69938 -6.01928,6.01928 0,3.3199 2.69938,6.01928 6.01928,6.01928 3.3199,0 6.01928,-2.69938 6.01928,-6.01928 0,-3.3199 -2.69938,-6.01928 -6.01928,-6.01928 z m 0,0.75242 c 2.91327,0 5.26686,2.35359 5.26686,5.26686 0,1.32102 -0.48671,2.52396 -1.28732,3.44757 l -7.42711,-7.42711 c 0.92361,-0.80061 2.12654,-1.28732 3.44757,-1.28732 z m -3.97954,1.8193 7.42711,7.4271 c -0.92361,0.80061 -2.12654,1.28732 -3.44757,1.28732 -2.91327,0 -5.26686,-2.35359 -5.26686,-5.26686 0,-1.32102 0.48671,-2.52396 1.28732,-3.44756 z" baseline-shift="baseline" clip-rule="nonzero" color="#000" color-interpolation="sRGB" color-interpolation-filters="linearRGB" color-rendering="auto" direction="ltr" display="inline" dominant-baseline="auto" enable-background="accumulate" font-family="sans-serif" font-size="medium" font-stretch="normal" font-style="normal" font-variant="normal" font-weight="normal" image-rendering="auto" letter-spacing="normal" opacity=".6" overflow="visible" shape-rendering="auto" text-anchor="start" text-decoration="none" text-rendering="auto" vector-effect="none" visibility="visible" word-spacing="normal" writing-mode="lr-tb" style="line-height:normal;font-variant-ligatures:normal;font-variant-position:normal;font-variant-caps:normal;font-variant-numeric:normal;font-variant-alternates:normal;font-feature-settings:normal;text-indent:0;text-align:start;text-decoration-line:none;text-decoration-style:solid;text-decoration-color:#000;text-transform:none;text-orientation:mixed;white-space:normal;shape-padding:0;isolation:auto;mix-blend-mode:normal;solid-color:#000;solid-opacity:1"/><path id="path2933-7-5-4-7" fill="#fff" fill-opacity="1" fill-rule="nonzero" stroke="none" stroke-dasharray="none" stroke-dashoffset="0" stroke-linecap="square" stroke-linejoin="miter" stroke-miterlimit="4" stroke-opacity="1" stroke-width=".502" d="m 327.99978,239.98759 c -2.21314,0 -4.01263,1.79949 -4.01263,4.01263 0,2.21314 1.79949,4.01263 4.01263,4.01263 2.21314,0 4.01263,-1.79949 4.01263,-4.01263 0,-2.21314 -1.79949,-4.01263 -4.01263,-4.01263 z m 0,0.50158 c 1.94207,0 3.51105,1.56898 3.51105,3.51105 0,0.88063 -0.32446,1.68255 -0.85817,2.29825 l -4.95113,-4.95113 c 0.6157,-0.53371 1.41761,-0.85817 2.29825,-0.85817 z m -2.65288,1.2128 4.95113,4.95113 c -0.6157,0.53371 -1.41761,0.85817 -2.29825,0.85817 -1.94207,0 -3.51105,-1.56898 -3.51105,-3.51105 0,-0.88063 0.32446,-1.68255 0.85817,-2.29825 z" baseline-shift="baseline" clip-rule="nonzero" color="#000" color-interpolation="sRGB" color-interpolation-filters="linearRGB" color-rendering="auto" direction="ltr" display="inline" dominant-baseline="auto" enable-background="accumulate" font-family="sans-serif" font-size="medium" font-stretch="normal" font-style="normal" font-variant="normal" font-weight="normal" image-rendering="auto" letter-spacing="normal" opacity=".6" overflow="visible" shape-rendering="auto" text-anchor="start" text-decoration="none" text-rendering="auto" vector-effect="none" visibility="visible" word-spacing="normal" writing-mode="lr-tb" style="line-height:normal;font-variant-ligatures:normal;font-variant-position:normal;font-variant-caps:normal;font-variant-numeric:normal;font-variant-alternates:normal;font-feature-settings:normal;text-indent:0;text-align:start;text-decoration-line:none;text-decoration-style:solid;text-decoration-color:#000;text-transform:none;text-orientation:mixed;white-space:normal;shape-padding:0;isolation:auto;mix-blend-mode:normal;solid-color:#000;solid-opacity:1"/></g><g id="layer3" display="inline"><path id="path4231" fill="#fff" fill-opacity="1" fill-rule="nonzero" stroke="none" stroke-width="1" d="m 39.9973,164.0027 h 224 v 57.07812 c 0,35.29672 -3.63655,38.00361 -38.99317,38.92188 H 151.9973 78.990465 c -35.368534,0 -38.993165,-3.62516 -38.993165,-38.92188 z" color="#000" display="inline" enable-background="accumulate" opacity=".1" overflow="visible" visibility="visible" style="marker:none"/><path id="path4255" fill="#fff" fill-opacity="1" fill-rule="nonzero" stroke="none" stroke-width="1" d="m 151.9973,68.0027 h 73.00683 c 35.36812,-0.17299 38.99317,3.625155 38.99317,38.92188 v 114.15624 c 0,35.29672 -3.63655,38.00361 -38.99317,38.92188 H 151.9973 Z" color="#000" display="inline" enable-background="accumulate" opacity=".1" overflow="visible" visibility="visible" style="marker:none"/><path id="path4254" fill="#fff" fill-opacity="1" fill-rule="nonzero" stroke="none" stroke-dasharray="none" stroke-dashoffset="0" stroke-linecap="butt" stroke-linejoin="miter" stroke-miterlimit="4" stroke-opacity="1" stroke-width="8" d="m 203.9973,258.59694 60,-60 v 22.48388 c -0.0523,33.99581 -3.80268,37.51612 -38.1741,37.51612 z" color="#000" display="inline" enable-background="accumulate" opacity=".1" overflow="visible" visibility="visible" style="marker:none"/><path id="path1006" fill="#fff" fill-opacity="1" fill-rule="nonzero" stroke="none" stroke-width="1" d="m 343.99932,66.00068 h 12.25195 c 8.84203,-0.0433 9.74805,0.90629 9.74805,9.73047 v 18.53906 c 0,8.82418 -0.90592,9.73047 -9.74805,9.73047 h -12.25195 z" color="#000" display="inline" enable-background="accumulate" opacity=".1" overflow="visible" visibility="visible" style="marker:none"/><path id="path1013" fill="#fff" fill-opacity="1" fill-rule="nonzero" stroke="none" stroke-width="1" d="m 321.99932,85.00068 h 44 v 9.26953 c 0,8.82418 -0.90592,9.73047 -9.74805,9.73047 h -12.25195 -12.25195 c -8.84213,0 -9.74805,-0.90629 -9.74805,-9.73047 z" color="#000" display="inline" enable-background="accumulate" opacity=".1" overflow="visible" visibility="visible" style="marker:none"/><path id="path1007" fill="#fff" fill-opacity="1" fill-rule="nonzero" stroke="none" stroke-width="1" d="m 331.99966,192.00034 h 6.125 c 4.42101,-0.0217 4.875,0.45314 4.875,4.86523 v 8.26954 c 0,4.41209 -0.45393,4.86523 -4.875,4.86523 h -6.125 z" color="#000" display="inline" enable-background="accumulate" opacity=".1" overflow="visible" visibility="visible" style="marker:none"/><path id="path1014" fill="#fff" fill-opacity="1" fill-rule="nonzero" stroke="none" stroke-width="1" d="m 320.99966,201.00034 h 22 v 4.13477 c 0,4.41209 -0.45393,4.86523 -4.875,4.86523 h -6.125 -6.125 c -4.42106,0 -4.875,-0.45314 -4.875,-4.86523 z" color="#000" display="inline" enable-background="accumulate" opacity=".1" overflow="visible" visibility="visible" style="marker:none"/><path id="path1011" fill="#fff" fill-opacity="1" fill-rule="nonzero" stroke="none" stroke-width="1" d="m 335.99957,137.00043 h 7.79688 c 5.62673,-0.0276 6.20312,0.57798 6.20312,6.19336 v 11.61523 c 0,5.6154 -0.57631,6.19141 -6.20312,6.19141 h -7.79688 z" color="#000" display="inline" enable-background="accumulate" opacity=".1" overflow="visible" visibility="visible" style="marker:none"/><path id="path1018" fill="#fff" fill-opacity="1" fill-rule="nonzero" stroke="none" stroke-width="1" d="m 321.99957,149.00043 h 28 v 5.80859 c 0,5.6154 -0.57631,6.19141 -6.20312,6.19141 h -7.79688 -7.79688 c -5.6268,0 -6.20312,-0.57603 -6.20312,-6.19141 z" color="#000" display="inline" enable-background="accumulate" opacity=".1" overflow="visible" visibility="visible" style="marker:none"/><g id="g1034" opacity=".1" transform="matrix(0,1,1,0,83.99978,-83.99978)"><path id="path1009" fill="#fff" fill-opacity="1" fill-rule="nonzero" stroke="none" stroke-width="1" d="m 328,237 v 14 h 2.9043 C 333.712,251 334,250.71185 334,247.89844 V 244 240.10156 C 334,237.28816 333.71199,237 330.9043,237 Z" color="#000" display="inline" enable-background="accumulate" opacity=".04" overflow="visible" visibility="visible" style="marker:none"/><path id="path1016" fill="#fff" fill-opacity="1" fill-rule="nonzero" stroke="none" stroke-width="1" d="m 322,244 v 3.89844 C 321.9862,250.71181 322.28801,251 325.0957,251 h 5.8086 C 333.712,251 334,250.71185 334,247.89844 V 244 Z" color="#000" display="inline" enable-background="accumulate" opacity=".04" overflow="visible" visibility="visible" style="marker:none"/></g></g><g id="layer9" display="inline"><path id="path901" fill="none" fill-opacity="1" fill-rule="nonzero" stroke="url(#linearGradient945)" stroke-opacity="1" stroke-width="1" d="m 321.49931,94.268843 c 0,2.21461 0.0547,3.94722 0.28711,5.33203 0.23246,1.384807 0.65434,2.445507 1.41797,3.210937 0.76363,0.76543 1.82234,1.1878 3.20703,1.41797 1.38469,0.23017 3.1184,0.28039 5.33789,0.26953 h 12.25 12.25196 c 2.21833,0.0108 3.95175,-0.0394 5.33593,-0.26953 1.38469,-0.23017 2.4434,-0.65253 3.20703,-1.41797 0.76363,-0.76544 1.18551,-1.82612 1.41797,-3.210937 0.23246,-1.38481 0.28711,-3.11742 0.28711,-5.33203 v -18.53906 c 0,-2.2146 -0.0546,-3.94454 -0.28711,-5.32617 -0.2325,-1.38163 -0.65418,-2.44064 -1.41797,-3.20313 -0.76378,-0.76249 -1.82305,-1.18385 -3.20703,-1.41601 -1.38398,-0.23217 -2.88549,-0.28516 -5.33593,-0.28516 h -12.25196 -12.25195 c -2.21907,0 -3.95196,0.053 -5.33594,0.28516 -1.38398,0.23216 -2.44325,0.65352 -3.20703,1.41601 -0.76378,0.76249 -1.18546,1.8215 -1.41797,3.20313 -0.2325,1.38163 -0.28711,3.11157 -0.28711,5.32617 z" color="#000" display="inline" enable-background="accumulate" opacity=".3" overflow="visible" visibility="visible" style="marker:none"/><path id="path1089" fill="none" fill-opacity="1" fill-rule="nonzero" stroke="#000" stroke-opacity="1" stroke-width="1" d="m 321.49954,154.80618 c 0,1.41241 0.0342,2.52238 0.18555,3.42383 0.15132,0.90145 0.43164,1.61987 0.95312,2.14258 0.52148,0.5227 1.23898,0.80325 2.14063,0.95312 0.90164,0.14988 2.0101,0.18075 3.42578,0.17383 h 7.79492 7.79688 c 1.41452,0.007 2.52269,-0.024 3.42382,-0.17383 0.90165,-0.14987 1.61915,-0.43041 2.14063,-0.95312 0.52148,-0.52272 0.8018,-1.24112 0.95312,-2.14258 0.15132,-0.90146 0.18555,-2.01142 0.18555,-3.42383 v -11.61523 c 0,-1.41241 -0.0342,-2.51847 -0.18555,-3.41797 -0.15137,-0.8995 -0.43149,-1.61597 -0.95312,-2.13672 -0.52163,-0.52075 -1.23774,-0.80004 -2.13867,-0.95117 -0.90094,-0.15113 -2.01055,-0.18555 -3.42578,-0.18555 h -7.79688 -7.79688 c -1.41524,0 -2.52484,0.0344 -3.42578,0.18555 -0.90093,0.15113 -1.61703,0.43042 -2.13867,0.95117 -0.52163,0.52075 -0.80175,1.23722 -0.95312,2.13672 -0.15137,0.8995 -0.18555,2.00556 -0.18555,3.41797 z" color="#000" display="inline" enable-background="accumulate" opacity=".3" overflow="visible" visibility="visible" style="marker:none"/><path id="path1085" fill="none" fill-opacity="1" fill-rule="nonzero" stroke="#000" stroke-opacity="1" stroke-width="1" d="m 320.49963,205.1344 c 0,1.11158 0.0256,1.98683 0.14648,2.70703 0.1209,0.72019 0.34863,1.3105 0.7793,1.74218 0.43067,0.43169 1.01974,0.65954 1.74024,0.7793 0.72049,0.11977 1.59669,0.14217 2.71093,0.13672 h 6.12305 6.125 c 1.1131,0.005 1.989,-0.017 2.70898,-0.13672 0.72051,-0.11976 1.30957,-0.3476 1.74024,-0.7793 0.43067,-0.43169 0.6584,-1.02199 0.7793,-1.74218 0.12089,-0.7202 0.14648,-1.59545 0.14648,-2.70703 v -8.26954 c 0,-1.11158 -0.0255,-1.98637 -0.14648,-2.70507 -0.12095,-0.7187 -0.34848,-1.30623 -0.7793,-1.73633 -0.43083,-0.4301 -1.01849,-0.6566 -1.73828,-0.77735 -0.71979,-0.12074 -1.59713,-0.14648 -2.71094,-0.14648 h -6.125 -6.125 c -1.11381,0 -1.99115,0.0257 -2.71094,0.14648 -0.71979,0.12075 -1.30745,0.34725 -1.73828,0.77735 -0.43082,0.4301 -0.65835,1.01763 -0.7793,1.73633 -0.12094,0.7187 -0.14648,1.59349 -0.14648,2.70507 z" color="#000" display="inline" enable-background="accumulate" opacity=".3" overflow="visible" visibility="visible" style="marker:none"/><path id="path1087" fill="none" fill-opacity="1" fill-rule="nonzero" stroke="#000" stroke-opacity="1" stroke-width="1" d="m 320.49977,246.90407 c 0,0.71048 0.0154,1.27344 0.0957,1.75195 0.0803,0.47851 0.23728,0.89671 0.54688,1.20703 0.30959,0.31032 0.7261,0.46726 1.20508,0.54688 0.47897,0.0796 1.04352,0.0933 1.75586,0.0898 h 3.89648 3.89844 c 0.71121,0.003 1.27546,-0.0103 1.7539,-0.0898 0.47898,-0.0796 0.89549,-0.23655 1.20508,-0.54688 0.3096,-0.31033 0.46655,-0.72851 0.54688,-1.20703 0.0803,-0.47852 0.0957,-1.04147 0.0957,-1.75195 v -5.8086 c 0,-0.71048 -0.0153,-1.27236 -0.0957,-1.75 -0.0804,-0.47763 -0.23713,-0.89584 -0.54688,-1.20508 -0.30975,-0.30921 -0.72681,-0.46469 -1.20508,-0.54492 -0.47826,-0.0802 -1.04201,-0.0957 -1.7539,-0.0957 h -3.89844 -3.89844 c -0.71189,0 -1.27564,0.0155 -1.7539,0.0957 -0.47827,0.0802 -0.89533,0.2357 -1.20508,0.54492 -0.30975,0.30924 -0.4665,0.72745 -0.54688,1.20508 -0.0804,0.47764 -0.0957,1.03952 -0.0957,1.75 z" color="#000" display="inline" enable-background="accumulate" opacity=".3" overflow="visible" visibility="visible" style="marker:none"/></g><g id="layer5" display="inline"><path id="path935" fill="none" fill-opacity="1" fill-rule="nonzero" stroke="url(#linearGradient981)" stroke-dasharray="none" stroke-miterlimit="4" stroke-opacity="1" stroke-width="2" d="m 327.8652,189 c -4.41209,0 -4.88682,0.45318 -4.8652,4.87419 V 200 206.12581 C 322.9783,210.54682 323.45311,211 327.8652,211 h 8.2696 C 340.54689,211 341,210.54688 341,206.12581 V 200 193.87419 C 341,189.45313 340.54688,189 336.13479,189 Z" clip-path="url(#clipPath971)" color="#000" display="inline" enable-background="accumulate" opacity=".4" overflow="visible" transform="rotate(-90,332.49966,200.5)" visibility="visible" style="marker:none"/><path id="path937" fill="none" fill-opacity="1" fill-rule="nonzero" stroke="url(#linearGradient993)" stroke-dasharray="none" stroke-miterlimit="4" stroke-opacity="1" stroke-width="2" d="m 325.09646,237 c -2.80769,0 -3.10979,0.28839 -3.09603,3.10176 V 244 v 3.89824 c -0.0138,2.81337 0.28834,3.10176 3.09603,3.10176 h 5.8075 C 333.71166,251 334,250.71165 334,247.89824 V 244 240.10176 C 334,237.28836 333.71165,237 330.90396,237 Z" clip-path="url(#clipPath983)" color="#000" display="inline" enable-background="accumulate" opacity=".4" overflow="visible" transform="rotate(-90,328,244)" visibility="visible" style="marker:none"/><path id="path939" fill="none" fill-opacity="1" fill-rule="nonzero" stroke="url(#linearGradient969)" stroke-dasharray="none" stroke-miterlimit="4" stroke-opacity="1" stroke-width="2" d="m 330.1929,133.99999 c -5.61538,0 -6.21958,0.57678 -6.19206,6.20352 v 7.79648 7.79648 c -0.0276,5.62673 0.57668,6.20351 6.19206,6.20351 h 11.615 c 5.6154,0 6.19208,-0.5767 6.19208,-6.20351 v -7.79648 -7.79648 c 0,-5.6268 -0.5767,-6.20352 -6.19208,-6.20352 z" clip-path="url(#clipPath959)" color="#000" display="inline" enable-background="accumulate" opacity=".4" overflow="visible" transform="rotate(-90,336.49998,148.49998)" visibility="visible" style="marker:none"/></g></g></svg>