<svg xmlns="http://www.w3.org/2000/svg" xmlns:osb="http://www.openswatchbook.org/uri/2009/osb" xmlns:svg="http://www.w3.org/2000/svg" id="svg7384" width="16" height="16" version="1.1"><metadata id="metadata20854"/><defs id="defs7386"><linearGradient id="linearGradient5606" osb:paint="solid"><stop id="stop5608" offset="0" stop-color="#000" stop-opacity="1"/></linearGradient><linearGradient id="linearGradient4526" osb:paint="solid"><stop id="stop4528" offset="0" stop-color="#fff" stop-opacity="1"/></linearGradient><linearGradient id="linearGradient3600-4" osb:paint="gradient"><stop id="stop3602-7" offset="0" stop-color="#f4f4f4" stop-opacity="1"/><stop id="stop3604-6" offset="1" stop-color="#dbdbdb" stop-opacity="1"/></linearGradient></defs><g id="layer1" display="inline" transform="translate(-132.00001,-140)"><path id="path4746" fill="gray" fill-opacity="1" fill-rule="nonzero" stroke="none" stroke-dasharray="none" stroke-dashoffset="0" stroke-linecap="round" stroke-linejoin="miter" stroke-miterlimit="4" stroke-opacity="1" stroke-width="1" d="m 146.49023,140.99609 c -0.12976,0.004 -0.25303,0.0575 -0.34375,0.15039 l -0.48632,0.48633 c -0.21492,-0.10289 -0.45127,-0.1531 -0.68946,-0.14648 -0.38956,0.0113 -0.75941,0.17386 -1.03125,0.45312 l -1.64648,1.64649 -0.93945,-0.93946 c -0.0942,-0.0974 -0.2239,-0.15234 -0.35938,-0.15234 -0.44941,8e-5 -0.6706,0.54683 -0.34766,0.85938 l 0.93946,0.93945 -6.14649,6.14648 c -0.35526,0.34249 -0.50915,0.82822 -0.43945,1.29883 v 0.55469 l -1.85352,1.85351 0.70704,0.70704 L 135.70703,153 h 0.54492 c 0.47378,0.0725 0.96431,-0.081 1.3086,-0.43945 l 6.14648,-6.14649 0.93945,0.93946 c 0.47127,0.49023 1.19727,-0.23577 0.70704,-0.70704 l -0.93946,-0.93945 1.64649,-1.64648 c 0.45873,-0.44877 0.5812,-1.13965 0.30468,-1.71875 l 0.48829,-0.48828 c 0.32529,-0.31801 0.0914,-0.86991 -0.36329,-0.85743 z m -4.09375,3.90039 0.70704,0.70704 L 139.70703,149 h -1.41406 z" baseline-shift="baseline" clip-rule="nonzero" color="#000" color-interpolation="sRGB" color-interpolation-filters="linearRGB" color-rendering="auto" direction="ltr" display="inline" dominant-baseline="auto" enable-background="accumulate" font-family="sans-serif" font-size="medium" font-stretch="normal" font-style="normal" font-variant="normal" font-weight="normal" image-rendering="auto" letter-spacing="normal" opacity="1" overflow="visible" shape-rendering="auto" text-anchor="start" text-decoration="none" text-rendering="auto" vector-effect="none" visibility="visible" word-spacing="normal" writing-mode="lr-tb" style="line-height:normal;font-variant-ligatures:normal;font-variant-position:normal;font-variant-caps:normal;font-variant-numeric:normal;font-variant-alternates:normal;font-feature-settings:normal;text-indent:0;text-align:start;text-decoration-line:none;text-decoration-style:solid;text-decoration-color:#000;text-transform:none;text-orientation:mixed;white-space:normal;shape-padding:0;isolation:auto;mix-blend-mode:normal;solid-color:#000;solid-opacity:1"/></g></svg>