<svg xmlns="http://www.w3.org/2000/svg" xmlns:osb="http://www.openswatchbook.org/uri/2009/osb" xmlns:svg="http://www.w3.org/2000/svg" id="svg7384" width="16" height="16" version="1.1"><metadata id="metadata20854"/><defs id="defs7386"><linearGradient id="linearGradient5606" osb:paint="solid"><stop id="stop5608" offset="0" stop-color="#000" stop-opacity="1"/></linearGradient><linearGradient id="linearGradient4526" osb:paint="solid"><stop id="stop4528" offset="0" stop-color="#fff" stop-opacity="1"/></linearGradient><linearGradient id="linearGradient3600-4" osb:paint="gradient"><stop id="stop3602-7" offset="0" stop-color="#f4f4f4" stop-opacity="1"/><stop id="stop3604-6" offset="1" stop-color="#dbdbdb" stop-opacity="1"/></linearGradient></defs><g id="layer1" display="inline" transform="translate(-52,-140)"><path id="path7724" fill="gray" fill-opacity="1" fill-rule="nonzero" stroke="none" stroke-dasharray="none" stroke-dashoffset="0" stroke-linecap="butt" stroke-linejoin="miter" stroke-miterlimit="4" stroke-opacity="1" stroke-width="1" d="m 56,140 v 1 h 1 v -1 z m 2,0 v 1 h 1 v -1 z m -3,0.0254 c -0.736131,0.0186 -1.387638,0.0697 -1.908203,0.34766 l 0.777344,0.77734 C 54.137824,141.0857 54.536506,141.0532 55,141.03126 Z m -2.626953,1.04297 c -0.05745,0.0986 -0.106937,0.2039 -0.148438,0.31445 C 52.059945,141.82148 52,142.34239 52,143 h 1 c 0,-0.53531 0.05488,-0.90618 0.136719,-1.16797 z M 52,144 v 1 h 1 v -1 z m 0,2 v 1 h 1 v -1 z" baseline-shift="baseline" clip-rule="nonzero" color="#000" color-interpolation="sRGB" color-interpolation-filters="linearRGB" color-rendering="auto" direction="ltr" display="inline" dominant-baseline="auto" enable-background="accumulate" font-family="sans-serif" font-size="medium" font-stretch="normal" font-style="normal" font-variant="normal" font-weight="normal" image-rendering="auto" letter-spacing="normal" opacity="1" overflow="visible" shape-rendering="auto" text-anchor="start" text-decoration="none" text-rendering="auto" vector-effect="none" visibility="visible" word-spacing="normal" writing-mode="lr-tb" style="line-height:normal;font-variant-ligatures:normal;font-variant-position:normal;font-variant-caps:normal;font-variant-numeric:normal;font-variant-alternates:normal;font-feature-settings:normal;text-indent:0;text-align:start;text-decoration-line:none;text-decoration-style:solid;text-decoration-color:#000;text-transform:none;text-orientation:mixed;white-space:normal;shape-padding:0;isolation:auto;mix-blend-mode:normal;solid-color:#000;solid-opacity:1;marker:none"/><path id="path7724-6" fill="gray" fill-opacity="1" fill-rule="nonzero" stroke="none" stroke-dasharray="none" stroke-dashoffset="0" stroke-linecap="butt" stroke-linejoin="miter" stroke-miterlimit="4" stroke-opacity="1" stroke-width="1" d="m 63,140 v 1 h -1 v -1 z m -2,0 v 1 h -1 v -1 z m 3,0.0254 c 0.736131,0.0186 1.387638,0.0697 1.908203,0.34766 l -0.777344,0.77734 C 64.862176,141.0857 64.463494,141.0532 64,141.03126 Z m 2.626953,1.04297 c 0.05745,0.0986 0.106937,0.2039 0.148438,0.31445 C 66.940055,141.82148 67,142.34239 67,143 h -1 c 0,-0.53531 -0.05488,-0.90618 -0.136719,-1.16797 z M 67,144 v 1 h -1 v -1 z m 0,2 v 1 h -1 v -1 z" baseline-shift="baseline" clip-rule="nonzero" color="#000" color-interpolation="sRGB" color-interpolation-filters="linearRGB" color-rendering="auto" direction="ltr" display="inline" dominant-baseline="auto" enable-background="accumulate" font-family="sans-serif" font-size="medium" font-stretch="normal" font-style="normal" font-variant="normal" font-weight="normal" image-rendering="auto" letter-spacing="normal" opacity="1" overflow="visible" shape-rendering="auto" text-anchor="start" text-decoration="none" text-rendering="auto" vector-effect="none" visibility="visible" word-spacing="normal" writing-mode="lr-tb" style="line-height:normal;font-variant-ligatures:normal;font-variant-position:normal;font-variant-caps:normal;font-variant-numeric:normal;font-variant-alternates:normal;font-feature-settings:normal;text-indent:0;text-align:start;text-decoration-line:none;text-decoration-style:solid;text-decoration-color:#000;text-transform:none;text-orientation:mixed;white-space:normal;shape-padding:0;isolation:auto;mix-blend-mode:normal;solid-color:#000;solid-opacity:1;marker:none"/><path id="path7724-5" fill="gray" fill-opacity="1" fill-rule="nonzero" stroke="none" stroke-dasharray="none" stroke-dashoffset="0" stroke-linecap="butt" stroke-linejoin="miter" stroke-miterlimit="4" stroke-opacity="1" stroke-width="1" d="m 56,155 v -1 h 1 v 1 z m 2,0 v -1 h 1 v 1 z m -3,-0.0254 c -0.736131,-0.0186 -1.387638,-0.0697 -1.908203,-0.34766 l 0.777344,-0.77734 c 0.268683,0.0647 0.667365,0.0972 1.130859,0.11914 z m -2.626953,-1.04297 c -0.05745,-0.0986 -0.106937,-0.2039 -0.148438,-0.31445 C 52.059945,153.17852 52,152.65761 52,152 h 1 c 0,0.53531 0.05488,0.90618 0.136719,1.16797 z M 52,151 v -1 h 1 v 1 z m 0,-2 v -1 h 1 v 1 z" baseline-shift="baseline" clip-rule="nonzero" color="#000" color-interpolation="sRGB" color-interpolation-filters="linearRGB" color-rendering="auto" direction="ltr" display="inline" dominant-baseline="auto" enable-background="accumulate" font-family="sans-serif" font-size="medium" font-stretch="normal" font-style="normal" font-variant="normal" font-weight="normal" image-rendering="auto" letter-spacing="normal" opacity="1" overflow="visible" shape-rendering="auto" text-anchor="start" text-decoration="none" text-rendering="auto" vector-effect="none" visibility="visible" word-spacing="normal" writing-mode="lr-tb" style="line-height:normal;font-variant-ligatures:normal;font-variant-position:normal;font-variant-caps:normal;font-variant-numeric:normal;font-variant-alternates:normal;font-feature-settings:normal;text-indent:0;text-align:start;text-decoration-line:none;text-decoration-style:solid;text-decoration-color:#000;text-transform:none;text-orientation:mixed;white-space:normal;shape-padding:0;isolation:auto;mix-blend-mode:normal;solid-color:#000;solid-opacity:1;marker:none"/><path id="path7724-6-9" fill="gray" fill-opacity="1" fill-rule="nonzero" stroke="none" stroke-dasharray="none" stroke-dashoffset="0" stroke-linecap="butt" stroke-linejoin="miter" stroke-miterlimit="4" stroke-opacity="1" stroke-width="1" d="m 63,155 v -1 h -1 v 1 z m -2,0 v -1 h -1 v 1 z m 3,-0.0254 c 0.736131,-0.0186 1.387638,-0.0697 1.908203,-0.34766 L 65.130859,153.8496 C 64.862176,153.9143 64.463494,153.9468 64,153.96874 Z m 2.626953,-1.04297 c 0.05745,-0.0986 0.106937,-0.2039 0.148438,-0.31445 C 66.940055,153.17852 67,152.65761 67,152 h -1 c 0,0.53531 -0.05488,0.90618 -0.136719,1.16797 z M 67,151 v -1 h -1 v 1 z m 0,-2 v -1 h -1 v 1 z" baseline-shift="baseline" clip-rule="nonzero" color="#000" color-interpolation="sRGB" color-interpolation-filters="linearRGB" color-rendering="auto" direction="ltr" display="inline" dominant-baseline="auto" enable-background="accumulate" font-family="sans-serif" font-size="medium" font-stretch="normal" font-style="normal" font-variant="normal" font-weight="normal" image-rendering="auto" letter-spacing="normal" opacity="1" overflow="visible" shape-rendering="auto" text-anchor="start" text-decoration="none" text-rendering="auto" vector-effect="none" visibility="visible" word-spacing="normal" writing-mode="lr-tb" style="line-height:normal;font-variant-ligatures:normal;font-variant-position:normal;font-variant-caps:normal;font-variant-numeric:normal;font-variant-alternates:normal;font-feature-settings:normal;text-indent:0;text-align:start;text-decoration-line:none;text-decoration-style:solid;text-decoration-color:#000;text-transform:none;text-orientation:mixed;white-space:normal;shape-padding:0;isolation:auto;mix-blend-mode:normal;solid-color:#000;solid-opacity:1;marker:none"/><rect id="rect7774" width="11" height="5" x="54" y="142" fill="gray" fill-opacity="1" stroke="none" stroke-dasharray="none" stroke-linecap="butt" stroke-linejoin="round" stroke-miterlimit="4" stroke-opacity="1" stroke-width="0" opacity="1" rx=".5" ry=".5"/><rect id="rect7776" width="5" height="5" x="54" y="148" fill="gray" fill-opacity="1" stroke="none" stroke-dasharray="none" stroke-linecap="butt" stroke-linejoin="round" stroke-miterlimit="4" stroke-opacity="1" stroke-width="0" opacity="1" rx=".5" ry=".5"/><rect id="rect7778" width="5" height="5" x="60" y="148" fill="gray" fill-opacity="1" stroke="none" stroke-dasharray="none" stroke-linecap="butt" stroke-linejoin="round" stroke-miterlimit="4" stroke-opacity="1" stroke-width="0" opacity="1" rx=".5" ry=".5"/></g></svg>