<svg xmlns="http://www.w3.org/2000/svg" xmlns:osb="http://www.openswatchbook.org/uri/2009/osb" xmlns:svg="http://www.w3.org/2000/svg" id="svg7384" width="16" height="16" version="1.1"><metadata id="metadata20854"/><defs id="defs7386"><linearGradient id="linearGradient5606" osb:paint="solid"><stop id="stop5608" offset="0" stop-color="#000" stop-opacity="1"/></linearGradient><linearGradient id="linearGradient4526" osb:paint="solid"><stop id="stop4528" offset="0" stop-color="#fff" stop-opacity="1"/></linearGradient><linearGradient id="linearGradient3600-4" osb:paint="gradient"><stop id="stop3602-7" offset="0" stop-color="#f4f4f4" stop-opacity="1"/><stop id="stop3604-6" offset="1" stop-color="#dbdbdb" stop-opacity="1"/></linearGradient></defs><g id="layer1" display="inline" transform="translate(-51.999847,-280)"><path id="path4773" fill="gray" fill-opacity="1" fill-rule="nonzero" stroke="none" stroke-width="10" d="M 59.80469,283 C 59.26826,283 59,283.00015 59,283.625 v 0.75 c 0,0.62485 0.26826,0.625 0.80469,0.625 h 0.39062 C 60.73174,285 61,284.99985 61,284.375 v -0.75 C 61,283.02247 60.73174,283 60.19531,283 Z" color="#000" display="inline" enable-background="accumulate" opacity="1" overflow="visible" visibility="visible" style="marker:none"/><path id="path4767" fill="gray" fill-opacity="1" fill-rule="nonzero" stroke="none" stroke-width="10" d="M 59.80469,287 C 59.26826,287 59,287.00015 59,287.625 v 0.75 c 0,0.62485 0.26826,0.625 0.80469,0.625 h 0.39062 C 60.73174,289 61,288.99985 61,288.375 v -0.75 C 61,287.02247 60.73174,287 60.19531,287 Z" color="#000" display="inline" enable-background="accumulate" opacity="1" overflow="visible" visibility="visible" style="marker:none"/><path id="path4761" fill="gray" fill-opacity="1" fill-rule="nonzero" stroke="none" stroke-width="10" d="M 59.80469,291 C 59.26826,291 59,291.00015 59,291.625 v 0.75 c 0,0.62485 0.26826,0.625 0.80469,0.625 h 0.39062 C 60.73174,293 61,292.99985 61,292.375 v -0.75 C 61,291.02247 60.73174,291 60.19531,291 Z" color="#000" display="inline" enable-background="accumulate" opacity="1" overflow="visible" visibility="visible" style="marker:none"/></g></svg>