<svg xmlns="http://www.w3.org/2000/svg" xmlns:osb="http://www.openswatchbook.org/uri/2009/osb" xmlns:svg="http://www.w3.org/2000/svg" id="svg7384" width="16" height="16" version="1.1"><metadata id="metadata20854"/><defs id="defs7386"><linearGradient id="linearGradient5606" osb:paint="solid"><stop id="stop5608" offset="0" stop-color="#000" stop-opacity="1"/></linearGradient><linearGradient id="linearGradient4526" osb:paint="solid"><stop id="stop4528" offset="0" stop-color="#fff" stop-opacity="1"/></linearGradient><linearGradient id="linearGradient3600-4" osb:paint="gradient"><stop id="stop3602-7" offset="0" stop-color="#f4f4f4" stop-opacity="1"/><stop id="stop3604-6" offset="1" stop-color="#dbdbdb" stop-opacity="1"/></linearGradient></defs><g id="layer9" display="inline" label="status" transform="translate(-973.0002,46.999983)"><path id="path2909-7-0-5" fill="gray" fill-opacity="1" fill-rule="nonzero" stroke="none" stroke-dasharray="none" stroke-dashoffset="0" stroke-linecap="butt" stroke-linejoin="miter" stroke-miterlimit="4" stroke-opacity="1" stroke-width="2.25" d="m 981.00021,-34 -1e-5,-6 h 4.99999 v 6 z" color="#000" display="inline" enable-background="accumulate" opacity="1" overflow="visible" visibility="visible" style="marker:none"/><path display="inline" style="line-height:normal;font-variant-ligatures:none;font-variant-position:normal;font-variant-caps:normal;font-variant-numeric:normal;font-variant-alternates:normal;font-feature-settings:normal;text-indent:0;text-align:start;text-decoration-line:none;text-decoration-style:solid;text-decoration-color:#000;text-transform:none;white-space:normal;shape-padding:0;isolation:auto;mix-blend-mode:normal;solid-color:#000;solid-opacity:1;marker:none" id="path2913-2-10-4" fill="gray" fill-opacity="1" fill-rule="nonzero" stroke="none" stroke-dasharray="none" stroke-dashoffset="0" stroke-linecap="butt" stroke-linejoin="miter" stroke-miterlimit="4" stroke-opacity="1" stroke-width="4" d="m 979.00021,-34.6621 c 0.01,0.8388 -0.0151,1.4513 0.26171,1.9531 0.13844,0.2509 0.37358,0.4508 0.66602,0.5606 0.29244,0.1097 0.63972,0.1487 1.07812,0.1484 h 4.99414 c 0.43841,-3e-4 0.78568,-0.039 1.07812,-0.1484 0.29244,-0.1098 0.52562,-0.3097 0.66406,-0.5606 0.27688,-0.5018 0.24812,-1.1143 0.25782,-1.9531 v 0 -8.7031 0 c -0.01,-0.8388 0.019,-1.4533 -0.25782,-1.9551 -0.13844,-0.2509 -0.37162,-0.4488 -0.66406,-0.5586 -0.29244,-0.1097 -0.63971,-0.1172 -1.07812,-0.1172 h -1 v -1 h -2.99999 v 1 h -0.99415 c -0.4384,0 -0.78568,0.01 -1.07812,0.1172 -0.29244,0.1098 -0.52758,0.3077 -0.66602,0.5586 -0.27688,0.5018 -0.25201,1.1163 -0.26171,1.9551 v 0 z m 1,-0.014 v -8.6914 c 0.0102,-0.8528 0.0391,-1.2977 0.13671,-1.4746 0.0158,-0.029 0.0571,-0.073 0.14258,-0.1055 0.0613,-0.023 0.2988,-0.053 0.72656,-0.053 h 4.99414 c 0.42737,-3e-4 0.66416,0.029 0.72656,0.053 0.0855,0.032 0.12479,0.077 0.14062,0.1055 0.0951,0.1724 0.12232,0.6176 0.13282,1.4746 v 8.6934 0.012 c -0.0102,0.8543 -0.0377,1.2983 -0.13282,1.4707 -0.0158,0.029 -0.0552,0.073 -0.14062,0.1054 -0.12283,0.046 -0.34837,0.086 -0.72656,0.086 h -4.99414 c -0.37814,3e-4 -0.60386,-0.04 -0.72656,-0.086 -0.0855,-0.032 -0.12676,-0.077 -0.14258,-0.1054 -0.0981,-0.1779 -0.13671,-2.3488 -0.13671,-1.4844 z" baseline-shift="baseline" clip-rule="nonzero" color="#000" color-interpolation="sRGB" color-interpolation-filters="linearRGB" color-rendering="auto" direction="ltr" enable-background="accumulate" font-family="sans-serif" font-size="medium" font-stretch="normal" font-style="normal" font-variant="normal" font-weight="normal" image-rendering="auto" letter-spacing="normal" opacity="1" overflow="visible" shape-rendering="auto" text-anchor="start" text-decoration="none" text-rendering="auto" visibility="visible" word-spacing="normal" writing-mode="lr-tb"/><path id="path2966-0-6-7" fill="gray" fill-opacity="1" stroke="none" stroke-width="1" d="m 975.0002,-33 2.49956,-5.9995 -1.49956,-5e-4 -4.4e-4,-4.9995 L 973.5002,-38 h 1.5 z" display="inline" enable-background="new" opacity="1"/></g></svg>