<svg xmlns="http://www.w3.org/2000/svg" xmlns:osb="http://www.openswatchbook.org/uri/2009/osb" xmlns:svg="http://www.w3.org/2000/svg" id="svg7384" width="16" height="16" version="1.1"><metadata id="metadata20854"/><defs id="defs7386"><linearGradient id="linearGradient5606" osb:paint="solid"><stop id="stop5608" offset="0" stop-color="#000" stop-opacity="1"/></linearGradient><linearGradient id="linearGradient4526" osb:paint="solid"><stop id="stop4528" offset="0" stop-color="#fff" stop-opacity="1"/></linearGradient><linearGradient id="linearGradient3600-4" osb:paint="gradient"><stop id="stop3602-7" offset="0" stop-color="#f4f4f4" stop-opacity="1"/><stop id="stop3604-6" offset="1" stop-color="#dbdbdb" stop-opacity="1"/></linearGradient></defs><g id="layer9" display="inline" label="status" transform="translate(-973.00022,67.00005)"><path id="path1335-2-7-2" fill="gray" fill-opacity="1" fill-rule="nonzero" stroke="none" stroke-dasharray="none" stroke-dashoffset="0" stroke-linecap="butt" stroke-linejoin="miter" stroke-miterlimit="4" stroke-opacity="1" stroke-width="2.25" d="m 978.00023,-53.99998 -10e-6,-6.00001 h 6 v 6.00001 z" color="#000" display="inline" enable-background="accumulate" opacity="1" overflow="visible" visibility="visible" style="marker:none"/><path display="inline" style="line-height:normal;font-variant-ligatures:none;font-variant-position:normal;font-variant-caps:normal;font-variant-numeric:normal;font-variant-alternates:normal;font-feature-settings:normal;text-indent:0;text-align:start;text-decoration-line:none;text-decoration-style:solid;text-decoration-color:#000;text-transform:none;white-space:normal;shape-padding:0;isolation:auto;mix-blend-mode:normal;solid-color:#000;solid-opacity:1;marker:none" id="path1339-1-4-6" fill="gray" fill-opacity="1" fill-rule="nonzero" stroke="none" stroke-dasharray="none" stroke-dashoffset="0" stroke-linecap="butt" stroke-linejoin="miter" stroke-miterlimit="4" stroke-opacity="1" stroke-width="4" d="m 976.00023,-54.66207 c 0.01,0.8388 -0.0151,1.45129 0.26171,1.95312 0.13844,0.25092 0.37358,0.45077 0.66602,0.56055 0.29244,0.10978 0.63972,0.14843 1.07812,0.14843 h 5.99415 c 0.43841,0 0.78568,-0.0386 1.07812,-0.14843 0.29244,-0.10978 0.52562,-0.30963 0.66406,-0.56055 0.27688,-0.50183 0.24812,-1.11432 0.25782,-1.95312 v -0.002 -8.70312 -0.002 c -0.01,-0.8388 0.019,-1.45324 -0.25782,-1.95507 -0.13844,-0.25092 -0.37162,-0.44882 -0.66406,-0.5586 -0.29244,-0.10967 -0.63971,-0.11719 -1.07812,-0.11719 h -1 v -1 h -4 v 1 h -0.99415 c -0.4384,0 -0.78568,0.007 -1.07812,0.11719 -0.29244,0.10978 -0.52758,0.30768 -0.66602,0.5586 -0.27688,0.50183 -0.25201,1.11627 -0.26171,1.95507 v 0.002 8.70312 z m 1,-0.0137 v -8.6914 c 0.0102,-0.85282 0.0391,-1.29765 0.13671,-1.47461 0.0158,-0.0287 0.0571,-0.0734 0.14258,-0.10547 0.0613,-0.0231 0.2988,-0.0527 0.72656,-0.0527 h 5.99415 c 0.42737,0 0.66416,0.0293 0.72656,0.0527 0.0855,0.0321 0.12479,0.0768 0.14062,0.10547 0.0951,0.1724 0.12232,0.6176 0.13282,1.47461 v 8.69336 0.0117 c -0.0102,0.85438 -0.0377,1.2983 -0.13282,1.4707 -0.0158,0.0287 -0.0552,0.0734 -0.14062,0.10547 -0.12283,0.0462 -0.34837,0.0859 -0.72656,0.0859 h -5.99415 c -0.37814,0 -0.60386,-0.0399 -0.72656,-0.0859 -0.0855,-0.0321 -0.12676,-0.0768 -0.14258,-0.10547 -0.0981,-0.1779 -0.12641,-0.62006 -0.13671,-1.48438 z" baseline-shift="baseline" clip-rule="nonzero" color="#000" color-interpolation="sRGB" color-interpolation-filters="linearRGB" color-rendering="auto" direction="ltr" enable-background="accumulate" font-family="sans-serif" font-size="medium" font-stretch="normal" font-style="normal" font-variant="normal" font-weight="normal" image-rendering="auto" letter-spacing="normal" opacity="1" overflow="visible" shape-rendering="auto" text-anchor="start" text-decoration="none" text-rendering="auto" visibility="visible" word-spacing="normal" writing-mode="lr-tb"/></g></svg>