<svg xmlns="http://www.w3.org/2000/svg" xmlns:osb="http://www.openswatchbook.org/uri/2009/osb" xmlns:svg="http://www.w3.org/2000/svg" id="svg7384" width="16" height="16" version="1.1"><metadata id="metadata20854"/><defs id="defs7386"><linearGradient id="linearGradient5606" osb:paint="solid"><stop id="stop5608" offset="0" stop-color="#000" stop-opacity="1"/></linearGradient><linearGradient id="linearGradient4526" osb:paint="solid"><stop id="stop4528" offset="0" stop-color="#fff" stop-opacity="1"/></linearGradient><linearGradient id="linearGradient3600-4" osb:paint="gradient"><stop id="stop3602-7" offset="0" stop-color="#f4f4f4" stop-opacity="1"/><stop id="stop3604-6" offset="1" stop-color="#dbdbdb" stop-opacity="1"/></linearGradient></defs><g id="layer9" display="inline" label="status" transform="translate(-993.0002,87.000044)"><path id="path2923-9-2" fill="gray" fill-opacity="1" fill-rule="nonzero" stroke="none" stroke-dasharray="none" stroke-dashoffset="0" stroke-linecap="butt" stroke-linejoin="miter" stroke-miterlimit="4" stroke-opacity="1" stroke-width="2.25" d="m 1001.0002,-74 0,-1 h 5 v 1 z" color="#000" display="inline" enable-background="accumulate" opacity="1" overflow="visible" visibility="visible" style="marker:none"/><path display="inline" style="line-height:normal;font-variant-ligatures:none;font-variant-position:normal;font-variant-caps:normal;font-variant-numeric:normal;font-variant-alternates:normal;font-feature-settings:normal;text-indent:0;text-align:start;text-decoration-line:none;text-decoration-style:solid;text-decoration-color:#000;text-transform:none;white-space:normal;shape-padding:0;isolation:auto;mix-blend-mode:normal;solid-color:#000;solid-opacity:1;marker:none" id="path2927-6-8" fill="gray" fill-opacity="1" fill-rule="nonzero" stroke="none" stroke-dasharray="none" stroke-dashoffset="0" stroke-linecap="butt" stroke-linejoin="miter" stroke-miterlimit="4" stroke-opacity="1" stroke-width="4" d="m 999.00021,-74.6621 c 0.01,0.8388 -0.0151,1.4513 0.26171,1.9531 0.13844,0.2509 0.37358,0.4508 0.66602,0.5606 0.29246,0.1097 0.63976,0.1487 1.07816,0.1484 h 4.9941 c 0.4384,-3e-4 0.7857,-0.039 1.0781,-0.1484 0.2925,-0.1098 0.5256,-0.3097 0.6641,-0.5606 0.2769,-0.5018 0.2481,-1.1143 0.2578,-1.9531 v 0 -8.7031 0 c -0.01,-0.8388 0.019,-1.4533 -0.2578,-1.9551 -0.1385,-0.2509 -0.3716,-0.4488 -0.6641,-0.5586 -0.2924,-0.1097 -0.6397,-0.1184 -1.0781,-0.1172 h -1 v -1 h -3 v 1 h -0.9941 c -0.4384,0 -0.7857,0.01 -1.07816,0.1172 -0.29244,0.1098 -0.52758,0.3077 -0.66602,0.5586 -0.27688,0.5018 -0.25201,1.1163 -0.26171,1.9551 v 0 z m 0.99999,-0.014 v -8.6914 c 0.01,-0.8528 0.039,-1.2977 0.1367,-1.4746 0.016,-0.029 0.057,-0.073 0.1426,-0.1055 0.061,-0.023 0.2988,-0.053 0.7266,-0.053 h 4.9941 c 0.4274,-3e-4 0.6642,0.029 0.7266,0.053 0.086,0.032 0.1247,0.077 0.1406,0.1055 0.095,0.1724 0.1223,0.6176 0.1328,1.4746 v 8.6934 0.012 c -0.01,0.8543 -0.038,1.2983 -0.1328,1.4707 -0.016,0.029 -0.055,0.073 -0.1406,0.1054 -0.1229,0.046 -0.3484,0.086 -0.7266,0.086 h -4.9941 c -0.3782,3e-4 -0.6039,-0.04 -0.7266,-0.086 -0.086,-0.032 -0.1268,-0.077 -0.1426,-0.1054 -0.098,-0.1779 -0.1264,-0.6201 -0.1367,-1.4844 z" baseline-shift="baseline" clip-rule="nonzero" color="#000" color-interpolation="sRGB" color-interpolation-filters="linearRGB" color-rendering="auto" direction="ltr" enable-background="accumulate" font-family="sans-serif" font-size="medium" font-stretch="normal" font-style="normal" font-variant="normal" font-weight="normal" image-rendering="auto" letter-spacing="normal" opacity="1" overflow="visible" shape-rendering="auto" text-anchor="start" text-decoration="none" text-rendering="auto" visibility="visible" word-spacing="normal" writing-mode="lr-tb"/><path id="path2968-0-9" fill="gray" fill-opacity="1" stroke="none" stroke-width="1" d="m 995.0002,-73 2.49956,-5.9995 -1.49956,-5e-4 -4.4e-4,-4.9995 L 993.5002,-78 h 1.5 z" display="inline" enable-background="new" opacity="1"/></g></svg>