<svg xmlns="http://www.w3.org/2000/svg" xmlns:osb="http://www.openswatchbook.org/uri/2009/osb" xmlns:svg="http://www.w3.org/2000/svg" id="svg7384" width="16" height="16" version="1.1"><metadata id="metadata20854"/><defs id="defs7386"><linearGradient id="linearGradient5606" osb:paint="solid"><stop id="stop5608" offset="0" stop-color="#000" stop-opacity="1"/></linearGradient><linearGradient id="linearGradient4526" osb:paint="solid"><stop id="stop4528" offset="0" stop-color="#fff" stop-opacity="1"/></linearGradient><linearGradient id="linearGradient3600-4" osb:paint="gradient"><stop id="stop3602-7" offset="0" stop-color="#f4f4f4" stop-opacity="1"/><stop id="stop3604-6" offset="1" stop-color="#dbdbdb" stop-opacity="1"/></linearGradient></defs><g id="layer9" display="inline" label="status" transform="translate(-1013.0002,67.00005)"><path id="path1335-2-7-2-5-4" fill="gray" fill-opacity="1" fill-rule="nonzero" stroke="none" stroke-dasharray="none" stroke-dashoffset="0" stroke-linecap="butt" stroke-linejoin="miter" stroke-miterlimit="4" stroke-opacity="1" stroke-width="2.25" d="m 1018.0002,-53.99998 0,-8.00001 h 6 v 8.00001 z" color="#000" display="inline" enable-background="accumulate" opacity="1" overflow="visible" visibility="visible" style="marker:none"/><path display="inline" style="line-height:normal;font-variant-ligatures:none;font-variant-position:normal;font-variant-caps:normal;font-variant-numeric:normal;font-variant-alternates:normal;font-feature-settings:normal;text-indent:0;text-align:start;text-decoration-line:none;text-decoration-style:solid;text-decoration-color:#000;text-transform:none;white-space:normal;shape-padding:0;isolation:auto;mix-blend-mode:normal;solid-color:#000;solid-opacity:1;marker:none" id="path1339-1-4-6-9-4" fill="gray" fill-opacity="1" fill-rule="nonzero" stroke="none" stroke-dasharray="none" stroke-dashoffset="0" stroke-linecap="butt" stroke-linejoin="miter" stroke-miterlimit="4" stroke-opacity="1" stroke-width="4" d="m 1016.0002,-54.66207 c 0.01,0.8388 -0.015,1.45129 0.2617,1.95312 0.1385,0.25092 0.3736,0.45077 0.6661,0.56055 0.2924,0.10978 0.6397,0.14843 1.0781,0.14843 h 5.9941 c 0.4384,0 0.7857,-0.0386 1.0782,-0.14843 0.2924,-0.10978 0.5256,-0.30963 0.664,-0.56055 0.2769,-0.50183 0.2481,-1.11432 0.2578,-1.95312 v -0.002 -8.70312 -0.002 c -0.01,-0.8388 0.019,-1.45324 -0.2578,-1.95507 -0.1384,-0.25092 -0.3716,-0.44882 -0.664,-0.5586 -0.2925,-0.10967 -0.6398,-0.11719 -1.0782,-0.11719 h -1 v -1 h -4 v 1 h -0.9941 c -0.4384,0 -0.7857,0.007 -1.0781,0.11719 -0.2925,0.10978 -0.5276,0.30768 -0.6661,0.5586 -0.2768,0.50183 -0.252,1.11627 -0.2617,1.95507 v 0.002 8.70312 z m 1,-0.0137 v -8.6914 c 0.01,-0.85282 0.039,-1.29765 0.1367,-1.47461 0.016,-0.0287 0.057,-0.0734 0.1426,-0.10547 0.061,-0.0231 0.2988,-0.0527 0.7266,-0.0527 h 5.9941 c 0.4274,0 0.6642,0.0293 0.7266,0.0527 0.086,0.0321 0.1248,0.0768 0.1406,0.10547 0.095,0.1724 0.1223,0.6176 0.1328,1.47461 v 8.69336 0.0117 c -0.01,0.85438 -0.038,1.2983 -0.1328,1.4707 -0.016,0.0287 -0.055,0.0734 -0.1406,0.10547 -0.1228,0.0462 -0.3484,0.0859 -0.7266,0.0859 h -5.9941 c -0.3782,0 -0.6039,-0.0399 -0.7266,-0.0859 -0.086,-0.0321 -0.1267,-0.0768 -0.1426,-0.10547 -0.098,-0.1779 -0.1264,-0.62006 -0.1367,-1.48438 z" baseline-shift="baseline" clip-rule="nonzero" color="#000" color-interpolation="sRGB" color-interpolation-filters="linearRGB" color-rendering="auto" direction="ltr" enable-background="accumulate" font-family="sans-serif" font-size="medium" font-stretch="normal" font-style="normal" font-variant="normal" font-weight="normal" image-rendering="auto" letter-spacing="normal" opacity="1" overflow="visible" shape-rendering="auto" text-anchor="start" text-decoration="none" text-rendering="auto" visibility="visible" word-spacing="normal" writing-mode="lr-tb"/></g></svg>