<svg xmlns="http://www.w3.org/2000/svg" xmlns:osb="http://www.openswatchbook.org/uri/2009/osb" xmlns:svg="http://www.w3.org/2000/svg" id="svg7384" width="16" height="16" version="1.1"><metadata id="metadata20854"/><defs id="defs7386"><linearGradient id="linearGradient5606" osb:paint="solid"><stop id="stop5608" offset="0" stop-color="#000" stop-opacity="1"/></linearGradient><linearGradient id="linearGradient4526" osb:paint="solid"><stop id="stop4528" offset="0" stop-color="#fff" stop-opacity="1"/></linearGradient><linearGradient id="linearGradient3600-4" osb:paint="gradient"><stop id="stop3602-7" offset="0" stop-color="#f4f4f4" stop-opacity="1"/><stop id="stop3604-6" offset="1" stop-color="#dbdbdb" stop-opacity="1"/></linearGradient></defs><g id="layer9" display="inline" label="status" transform="translate(-1313.0002,327)"><path id="path999-8-3" fill="gray" fill-opacity="1" stroke="none" stroke-width=".087" d="m 1315.0002,-326 c -1.108,0 -2,0.892 -2,2 v 8 c 0,1.108 0.892,2 2,2 h 1.5215 l 2.4785,3 2,-3 h 6 c 1.108,0 2,-0.892 2,-2 v -8 c 0,-1.108 -0.892,-2 -2,-2 z m 0,1 h 12 c 0.554,0 1,0.446 1,1 v 8 c 0,0.554 -0.446,1 -1,1 h -6.4336 l -1.5664,2.40039 -1.9668,-2.40039 h -2.0332 c -0.554,0 -1,-0.446 -1,-1 v -8 c 0,-0.554 0.446,-1 1,-1 z m 6,2.5 v 1.5 h -4 v 2 h 4.002 v 1.5 c 0.7604,-0.34766 1.534,-0.73627 2.3222,-1.16602 0.7807,-0.43079 1.5328,-0.87569 2.2578,-1.33398 -0.725,-0.44911 -1.4771,-0.88952 -2.2578,-1.32031 -0.7887,-0.42999 -1.5633,-0.82275 -2.3242,-1.17969 z m -6.6992,8.5 c 0.1519,0.0168 0.3208,0.0211 0.5234,0 z" display="inline" enable-background="new" font-family="Ubuntu" font-size="15" font-stretch="normal" font-style="normal" font-variant="normal" font-weight="normal" letter-spacing="0" text-anchor="middle" word-spacing="0" writing-mode="lr-tb" style="line-height:125%;-inkscape-font-specification:Ubuntu;text-align:center"/></g></svg>