<svg xmlns="http://www.w3.org/2000/svg" xmlns:svg="http://www.w3.org/2000/svg" xmlns:xlink="http://www.w3.org/1999/xlink" id="svg11300" width="400" height="300" display="inline" enable-background="new" version="1.0"><title id="title3004">Suru Icon Theme Template</title><defs id="defs3"><clipPath id="clipPath9430" clipPathUnits="userSpaceOnUse"><path id="path9432" fill="#fff" fill-opacity="1" fill-rule="nonzero" stroke="none" stroke-width="1" d="m 166.0625,-196 h 179.875 C 491.2348,-196 512,-175.28677 512,-30.125 v 148.25 C 512,263.28618 491.2348,284 345.9375,284 H 166.0625 C 20.7652,284 0,263.28618 0,118.125 V -30.125 C 0,-175.28677 20.7652,-196 166.0625,-196 Z" color="#000" display="inline" enable-background="new" overflow="visible" visibility="visible" style="marker:none"/></clipPath><clipPath id="clipPath1082" clipPathUnits="userSpaceOnUse"><path id="path1084" fill="#8c59d9" fill-opacity="1" stroke="none" stroke-dasharray="none" stroke-dashoffset="0" stroke-linecap="round" stroke-linejoin="round" stroke-miterlimit="4" stroke-opacity="1" stroke-width="2" d="M 361.9375,-212 C 507.2348,-212 528,-191.28677 528,-46.125 V 70.125 C 528,215.28618 507.2348,236 361.9375,236 H 214.0625 C 68.7652,236 48,215.28618 48,70.125 V -46.125 C 48,-191.28677 68.7652,-212 214.0625,-212 Z" display="inline" enable-background="new" opacity="1"/></clipPath><filter id="filter4346" width="1.026" height="1.022" x="-.013" y="-.011" color-interpolation-filters="sRGB"><feGaussianBlur id="feGaussianBlur4348" stdDeviation="2.12"/></filter><linearGradient id="linearGradient4358" x1="88" x2="488" y1="88" y2="488" gradientTransform="rotate(-90,287.9946,298)" gradientUnits="userSpaceOnUse" xlink:href="#linearGradient4360"/><linearGradient id="linearGradient4360"><stop id="stop4362" offset="0" stop-color="#000" stop-opacity=".588"/><stop id="stop4364" offset=".88" stop-color="#000" stop-opacity="0"/><stop id="stop4366" offset="1" stop-color="#000" stop-opacity="1"/></linearGradient><filter id="filter4380" width="1.106" height="1.088" x="-.053" y="-.044" color-interpolation-filters="sRGB"><feGaussianBlur id="feGaussianBlur4382" stdDeviation="8.48"/></filter><linearGradient id="linearGradient927"><stop id="stop923" offset="0" stop-color="#fff" stop-opacity="1"/><stop id="stop933" offset=".125" stop-color="#fff" stop-opacity=".098"/><stop id="stop931" offset=".925" stop-color="#fff" stop-opacity=".098"/><stop id="stop925" offset="1" stop-color="#fff" stop-opacity=".498"/></linearGradient><clipPath id="clipPath994" clipPathUnits="userSpaceOnUse"><path id="path996" fill="#cdcdcd" fill-opacity="1" fill-rule="nonzero" stroke="none" stroke-dasharray="none" stroke-miterlimit="4" stroke-opacity="1" stroke-width="2" d="m 335.73108,62 c -8.82418,0 -9.77365,0.90635 -9.7304,9.74838 V 84 96.25162 c -0.0433,8.84203 0.90622,9.74838 9.7304,9.74838 h 16.53919 c 8.82418,0 9.7304,-0.90625 9.7304,-9.74838 V 84 71.74838 C 362.00067,62.90625 361.09445,62 352.27027,62 Z" color="#000" display="inline" enable-background="accumulate" overflow="visible" visibility="visible" style="marker:none"/></clipPath><linearGradient id="linearGradient1004" x1="344" x2="344" y1="66.001" y2="102.001" gradientTransform="rotate(-90,344,84)" gradientUnits="userSpaceOnUse" xlink:href="#linearGradient927"/><clipPath id="clipPath959" clipPathUnits="userSpaceOnUse"><path id="path961" fill="#46a926" fill-opacity="1" fill-rule="nonzero" stroke="none" stroke-dasharray="none" stroke-miterlimit="4" stroke-opacity="1" stroke-width="2" d="m 330.1929,133.99999 c -5.61538,0 -6.21958,0.57678 -6.19206,6.20352 v 7.79648 7.79648 c -0.0276,5.62673 0.57668,6.20351 6.19206,6.20351 h 11.615 c 5.6154,0 6.19208,-0.5767 6.19208,-6.20351 v -7.79648 -7.79648 c 0,-5.6268 -0.5767,-6.20352 -6.19208,-6.20352 z" color="#000" display="inline" enable-background="accumulate" opacity="1" overflow="visible" visibility="visible" style="marker:none"/></clipPath><clipPath id="clipPath971" clipPathUnits="userSpaceOnUse"><path id="path973" fill="#46a926" fill-opacity="1" fill-rule="nonzero" stroke="none" stroke-dasharray="none" stroke-miterlimit="4" stroke-opacity="1" stroke-width="2" d="m 327.8652,189 c -4.41209,0 -4.88682,0.45318 -4.8652,4.87419 V 200 206.12581 C 322.9783,210.54682 323.45311,211 327.8652,211 h 8.2696 C 340.54689,211 341,210.54688 341,206.12581 V 200 193.87419 C 341,189.45313 340.54688,189 336.13479,189 Z" color="#000" display="inline" enable-background="accumulate" opacity="1" overflow="visible" visibility="visible" style="marker:none"/></clipPath><linearGradient id="linearGradient981" x1="332" x2="332" y1="191" y2="209" gradientTransform="rotate(-90,331.99966,200)" gradientUnits="userSpaceOnUse" xlink:href="#linearGradient927"/><clipPath id="clipPath983" clipPathUnits="userSpaceOnUse"><path id="path985" fill="#46a926" fill-opacity="1" fill-rule="nonzero" stroke="none" stroke-dasharray="none" stroke-miterlimit="4" stroke-opacity="1" stroke-width="2" d="m 325.09646,237 c -2.80769,0 -3.10979,0.28839 -3.09603,3.10176 V 244 v 3.89824 c -0.0138,2.81337 0.28834,3.10176 3.09603,3.10176 h 5.8075 C 333.71166,251 334,250.71165 334,247.89824 V 244 240.10176 C 334,237.28836 333.71165,237 330.90396,237 Z" color="#000" display="inline" enable-background="accumulate" opacity="1" overflow="visible" visibility="visible" style="marker:none"/></clipPath><linearGradient id="linearGradient993" x1="328" x2="328" y1="238" y2="250" gradientTransform="rotate(-90,328,244)" gradientUnits="userSpaceOnUse" xlink:href="#linearGradient927"/><linearGradient id="linearGradient4336-3"><stop id="stop4338-8" offset="0" stop-color="#5884f4" stop-opacity="1"/><stop id="stop4344-3" offset=".278" stop-color="#5884f4" stop-opacity="1"/><stop id="stop4346-3" offset=".278" stop-color="#2f5fdd" stop-opacity="1"/><stop id="stop4350-1" offset=".707" stop-color="#2f5fdd" stop-opacity="1"/><stop id="stop4348-6" offset=".709" stop-color="#234db8" stop-opacity="1"/><stop id="stop4340-0" offset="1" stop-color="#234db8" stop-opacity="1"/></linearGradient><linearGradient id="linearGradient1004-8" x1="344" x2="344" y1="65.144" y2="102.857" gradientTransform="matrix(0,-1.04758,0.95458104,0,263.81519,444.36752)" gradientUnits="userSpaceOnUse" xlink:href="#linearGradient927"/><clipPath id="clipPath994-1" clipPathUnits="userSpaceOnUse"><path id="path996-8" fill="#cdcdcd" fill-opacity="1" fill-rule="nonzero" stroke="none" stroke-dasharray="none" stroke-miterlimit="4" stroke-opacity="1" stroke-width="2" d="m 335.73108,62 c -8.82418,0 -9.77365,0.90635 -9.7304,9.74838 V 84 96.25162 c -0.0433,8.84203 0.90622,9.74838 9.7304,9.74838 h 16.53919 c 8.82418,0 9.7304,-0.90625 9.7304,-9.74838 V 84 71.74838 C 362.00067,62.90625 361.09445,62 352.27027,62 Z" color="#000" display="inline" enable-background="accumulate" overflow="visible" visibility="visible" style="marker:none"/></clipPath><clipPath id="clipPath1144" clipPathUnits="userSpaceOnUse"><path id="path1146" fill="#a3dbf0" fill-opacity="1" stroke="none" stroke-dasharray="none" stroke-dashoffset="0" stroke-linecap="round" stroke-linejoin="round" stroke-miterlimit="4" stroke-opacity="1" stroke-width="2" d="m 563.72139,-143.78206 c 77.49205,0 88.56678,11.04708 88.56678,88.466604 V 6.684672 c 0,77.419349 -11.07473,88.466603 -88.56678,88.466603 h -78.86661 c -77.49171,0 -88.56661,-11.047254 -88.56661,-88.466603 v -62.000128 c 0,-77.419524 11.0749,-88.466604 88.56678,-88.466604 z" display="inline" enable-background="new" opacity="1"/></clipPath><clipPath id="clipPath1151" clipPathUnits="userSpaceOnUse"><path id="path1153" fill="#a3dbf0" fill-opacity="1" stroke="none" stroke-dasharray="none" stroke-dashoffset="0" stroke-linecap="round" stroke-linejoin="round" stroke-miterlimit="4" stroke-opacity="1" stroke-width="2" d="m 335.71582,189.50031 c 6.81081,10e-6 7.78418,0.97093 7.78418,7.77539 v 5.44891 c 0,6.80444 -0.97337,7.77539 -7.78418,7.77539 h -7.43164 c -6.81081,0 -7.78418,-0.97095 -7.78418,-7.77539 v -5.44892 c 0,-6.80446 0.97337,-7.7754 7.78418,-7.77539 z" display="inline" enable-background="new" opacity="1"/></clipPath><clipPath id="clipPath1158" clipPathUnits="userSpaceOnUse"><path id="path1160" fill="#a3dbf0" fill-opacity="1" stroke="none" stroke-dasharray="none" stroke-dashoffset="0" stroke-linecap="round" stroke-linejoin="round" stroke-miterlimit="4" stroke-opacity="1" stroke-width="2" d="m 341.12109,133.5 c 9.08109,0 10.37891,1.29458 10.37891,10.36719 v 8.26562 c 0,9.07258 -1.29782,10.36719 -10.37891,10.36719 H 330.87891 C 321.79783,162.5 320.5,161.20539 320.5,152.13281 v -8.26562 c 0,-9.07261 1.29783,-10.36719 10.37891,-10.36719 z" display="inline" enable-background="new" opacity="1"/></clipPath><clipPath id="clipPath1165" clipPathUnits="userSpaceOnUse"><path id="path1167" fill="#a3dbf0" fill-opacity="1" stroke="none" stroke-dasharray="none" stroke-dashoffset="0" stroke-linecap="round" stroke-linejoin="round" stroke-miterlimit="4" stroke-opacity="1" stroke-width="2" d="M 351.93164,62.5 C 365.55326,62.5 367.5,64.44187 367.5,78.05078 V 89.94922 C 367.5,103.55808 365.55326,105.5 351.93164,105.5 H 336.06836 C 322.44674,105.5 320.5,103.55808 320.5,89.94922 V 78.05078 C 320.5,64.44187 322.44674,62.5 336.06836,62.5 Z" display="inline" enable-background="new" opacity="1"/></clipPath><clipPath id="clipPath1082-3" clipPathUnits="userSpaceOnUse"><path id="path1084-6" fill="#8c59d9" fill-opacity="1" stroke="none" stroke-dasharray="none" stroke-dashoffset="0" stroke-linecap="round" stroke-linejoin="round" stroke-miterlimit="4" stroke-opacity="1" stroke-width="2" d="M 361.9375,-212 C 507.2348,-212 528,-191.28677 528,-46.125 V 70.125 C 528,215.28618 507.2348,236 361.9375,236 H 214.0625 C 68.7652,236 48,215.28618 48,70.125 V -46.125 C 48,-191.28677 68.7652,-212 214.0625,-212 Z" display="inline" enable-background="new" opacity="1"/></clipPath><clipPath id="clipPath1064" clipPathUnits="userSpaceOnUse"><path id="path1066" fill="#a3dbf0" fill-opacity="1" stroke="none" stroke-dasharray="none" stroke-dashoffset="0" stroke-linecap="round" stroke-linejoin="round" stroke-miterlimit="4" stroke-opacity="1" stroke-width="2" d="M 115.03125,44 C 42.3826,44 32,54.356615 32,126.9375 v 58.125 c 0,10.16582 0.217657,19.07051 0.767578,26.9375 3.376331,48.30069 19.790377,56 82.263672,56 h 73.9375 c 62.4733,0 78.88734,-7.69931 82.26367,-56 C 271.78234,204.13301 272,195.22832 272,185.0625 v -58.125 C 272,54.356615 261.6174,44 188.96875,44 Z" opacity="1"/></clipPath><clipPath id="clipPath1064-8" clipPathUnits="userSpaceOnUse"><path id="path1066-4" fill="#a3dbf0" fill-opacity="1" stroke="none" stroke-dasharray="none" stroke-dashoffset="0" stroke-linecap="round" stroke-linejoin="round" stroke-miterlimit="4" stroke-opacity="1" stroke-width="2" d="M 115.03125,44 C 42.3826,44 32,54.356615 32,126.9375 v 58.125 c 0,10.16582 0.217657,19.07051 0.767578,26.9375 3.376331,48.30069 19.790377,56 82.263672,56 h 73.9375 c 62.4733,0 78.88734,-7.69931 82.26367,-56 C 271.78234,204.13301 272,195.22832 272,185.0625 v -58.125 C 272,54.356615 261.6174,44 188.96875,44 Z" opacity="1"/></clipPath><clipPath id="clipPath1144-3" clipPathUnits="userSpaceOnUse"><path id="path1146-8" fill="#a3dbf0" fill-opacity="1" stroke="none" stroke-dasharray="none" stroke-dashoffset="0" stroke-linecap="round" stroke-linejoin="round" stroke-miterlimit="4" stroke-opacity="1" stroke-width="2" d="m 563.72139,-143.78206 c 77.49205,0 88.56678,11.04708 88.56678,88.466604 V 6.684672 c 0,77.419349 -11.07473,88.466603 -88.56678,88.466603 h -78.86661 c -77.49171,0 -88.56661,-11.047254 -88.56661,-88.466603 v -62.000128 c 0,-77.419524 11.0749,-88.466604 88.56678,-88.466604 z" display="inline" enable-background="new" opacity="1"/></clipPath><clipPath id="clipPath1151-3" clipPathUnits="userSpaceOnUse"><path id="path1153-6" fill="#a3dbf0" fill-opacity="1" stroke="none" stroke-dasharray="none" stroke-dashoffset="0" stroke-linecap="round" stroke-linejoin="round" stroke-miterlimit="4" stroke-opacity="1" stroke-width="2" d="m 335.71582,189.50031 c 6.81081,10e-6 7.78418,0.97093 7.78418,7.77539 v 5.44891 c 0,6.80444 -0.97337,7.77539 -7.78418,7.77539 h -7.43164 c -6.81081,0 -7.78418,-0.97095 -7.78418,-7.77539 v -5.44892 c 0,-6.80446 0.97337,-7.7754 7.78418,-7.77539 z" display="inline" enable-background="new" opacity="1"/></clipPath><clipPath id="clipPath1158-2" clipPathUnits="userSpaceOnUse"><path id="path1160-3" fill="#a3dbf0" fill-opacity="1" stroke="none" stroke-dasharray="none" stroke-dashoffset="0" stroke-linecap="round" stroke-linejoin="round" stroke-miterlimit="4" stroke-opacity="1" stroke-width="2" d="m 341.12109,133.5 c 9.08109,0 10.37891,1.29458 10.37891,10.36719 v 8.26562 c 0,9.07258 -1.29782,10.36719 -10.37891,10.36719 H 330.87891 C 321.79783,162.5 320.5,161.20539 320.5,152.13281 v -8.26562 c 0,-9.07261 1.29783,-10.36719 10.37891,-10.36719 z" display="inline" enable-background="new" opacity="1"/></clipPath><clipPath id="clipPath1165-5" clipPathUnits="userSpaceOnUse"><path id="path1167-1" fill="#a3dbf0" fill-opacity="1" stroke="none" stroke-dasharray="none" stroke-dashoffset="0" stroke-linecap="round" stroke-linejoin="round" stroke-miterlimit="4" stroke-opacity="1" stroke-width="2" d="M 351.93164,62.5 C 365.55326,62.5 367.5,64.44187 367.5,78.05078 V 89.94922 C 367.5,103.55808 365.55326,105.5 351.93164,105.5 H 336.06836 C 322.44674,105.5 320.5,103.55808 320.5,89.94922 V 78.05078 C 320.5,64.44187 322.44674,62.5 336.06836,62.5 Z" display="inline" enable-background="new" opacity="1"/></clipPath><clipPath id="clipPath983-7" clipPathUnits="userSpaceOnUse"><path id="path985-3" fill="#4d4d4d" fill-opacity="1" stroke="none" stroke-dasharray="none" stroke-dashoffset="0" stroke-linecap="round" stroke-linejoin="round" stroke-miterlimit="4" stroke-opacity="1" stroke-width="2" d="M 115.03125,44 C 42.3826,44 32,54.356615 32,126.9375 v 58.125 C 32,257.64309 42.3826,268 115.03125,268 H 152 V 44 Z" opacity="1"/></clipPath><filter id="filter973" width="1.275" height="1.147" x="-.138" y="-.074" color-interpolation-filters="sRGB"><feGaussianBlur id="feGaussianBlur975" stdDeviation="6.88"/></filter><filter id="filter967" width="1.034" height="1.018" x="-.017" y="-.009" color-interpolation-filters="sRGB"><feGaussianBlur id="feGaussianBlur969" stdDeviation=".86"/></filter><clipPath id="clipPath3031" clipPathUnits="userSpaceOnUse"><path id="path3029" fill="#4d4d4d" fill-opacity="1" stroke="none" stroke-dasharray="none" stroke-dashoffset="0" stroke-linecap="round" stroke-linejoin="round" stroke-miterlimit="4" stroke-opacity="1" stroke-width="2" d="M 115.03125,44 C 42.3826,44 32,54.356615 32,126.9375 v 58.125 C 32,257.64309 42.3826,268 115.03125,268 H 152 V 44 Z" opacity="1"/></clipPath><clipPath id="clipPath3043" clipPathUnits="userSpaceOnUse"><path id="path3041" fill="#4d4d4d" fill-opacity="1" stroke="none" stroke-dasharray="none" stroke-dashoffset="0" stroke-linecap="round" stroke-linejoin="round" stroke-miterlimit="4" stroke-opacity="1" stroke-width="2" d="M 115.03125,44 C 42.3826,44 32,54.356615 32,126.9375 v 58.125 C 32,257.64309 42.3826,268 115.03125,268 H 152 V 44 Z" opacity="1"/></clipPath></defs><metadata id="metadata4"/><g id="layer1" display="inline"><g id="layer7" display="none"><text enable-background="new" style="line-height:0%;-inkscape-font-specification:'DejaVu Sans'" id="context" x="19.007" y="-8.255" fill="#000" fill-opacity="1" stroke="none" display="inline" font-family="DejaVu Sans" font-stretch="normal" font-style="normal" font-variant="normal" font-weight="normal" xml:space="preserve"><tspan id="tspan3933" x="19.007" y="-8.255" font-family="DejaVu Sans" font-size="18" font-stretch="normal" font-style="normal" font-variant="normal" font-weight="normal" style="line-height:1.25;-inkscape-font-specification:'DejaVu Sans'">categories</tspan></text><text id="icon-name" x="146.488" y="-8.255" fill="#000" fill-opacity="1" stroke="none" display="inline" enable-background="new" font-family="DejaVu Sans" font-stretch="normal" font-style="normal" font-variant="normal" font-weight="bold" text-anchor="start" writing-mode="lr-tb" xml:space="preserve" style="line-height:0%;-inkscape-font-specification:'DejaVu Sans Bold';text-align:start"><tspan id="tspan3937" x="146.488" y="-8.255" font-family="DejaVu Sans" font-size="18" font-stretch="normal" font-style="normal" font-variant="normal" font-weight="bold" style="line-height:1.25;-inkscape-font-specification:'DejaVu Sans Bold'">preferences-desktop-locale</tspan></text><rect id="rect16x16" width="16" height="16" x="320" y="236" fill="#cdcdcd" fill-opacity="1" fill-rule="nonzero" stroke="none" stroke-width="2" display="inline" enable-background="accumulate" overflow="visible" visibility="visible" style="marker:none"/><rect id="rect24x24" width="24" height="24" x="320" y="188" fill="#cdcdcd" fill-opacity="1" fill-rule="nonzero" stroke="none" stroke-width="2" display="inline" enable-background="accumulate" overflow="visible" visibility="visible" style="marker:none"/><rect id="rect32x32" width="32" height="32" x="320" y="132" fill="#cdcdcd" fill-opacity="1" fill-rule="nonzero" stroke="none" stroke-width="2" display="inline" enable-background="accumulate" overflow="visible" visibility="visible" style="marker:none"/><rect id="rect48x48" width="48" height="48" x="320" y="60" fill="#cdcdcd" fill-opacity="1" fill-rule="nonzero" stroke="none" stroke-width="2" display="inline" enable-background="accumulate" overflow="visible" visibility="visible" style="marker:none"/><rect id="rect3951" width="256" height="256" x="24" y="28" fill="#cdcdcd" fill-opacity="1" fill-rule="nonzero" stroke="none" stroke-width="2" display="inline" enable-background="accumulate" overflow="visible" visibility="visible" style="marker:none"/></g><g id="layer8" display="inline"><path id="path4609" fill="#f6f5f4" fill-opacity="1" stroke="none" stroke-dasharray="none" stroke-dashoffset="0" stroke-linecap="round" stroke-linejoin="round" stroke-miterlimit="4" stroke-opacity="1" stroke-width="2" d="M 325.5957 190.5 C 323.62817 190.49029 322.41749 190.58068 321.66992 191.04102 C 321.55198 191.18153 321.4461 191.33417 321.34961 191.5 C 321.15663 191.83166 321.00344 192.21673 320.88477 192.66211 C 320.82543 192.8848 320.7741 193.12272 320.73047 193.37695 C 320.68726 193.6287 320.65273 193.89694 320.62305 194.18164 C 320.62071 194.20404 320.61945 194.22934 320.61719 194.25195 C 320.59086 194.51557 320.5693 194.79087 320.55273 195.08398 C 320.51643 195.73995 320.5 196.46042 320.5 197.27539 L 320.5 202.72461 C 320.5 203.54829 320.51556 204.27811 320.55273 204.93945 C 320.57011 205.2414 320.59324 205.53024 320.62109 205.80078 C 320.65016 206.08303 320.68433 206.34768 320.72656 206.59766 C 320.7274 206.60262 320.72767 206.60833 320.72852 206.61328 C 320.77106 206.8628 320.82134 207.09526 320.87891 207.31445 C 320.87987 207.31813 320.87989 207.3225 320.88086 207.32617 C 320.93948 207.54786 321.00802 207.75468 321.08398 207.94727 C 321.15849 208.13616 321.24101 208.31177 321.33398 208.47461 C 321.33727 208.48036 321.34044 208.48647 321.34375 208.49219 C 321.4383 208.65569 321.54295 208.80634 321.6582 208.94531 C 322.40485 209.4099 323.61875 209.5 325.5957 209.5 L 332 209.5 L 332 190.5 L 325.5957 190.5 z" display="inline" enable-background="new" opacity="1"/><path id="path4614" fill="#f6f5f4" fill-opacity="1" stroke="none" stroke-dasharray="none" stroke-dashoffset="0" stroke-linecap="round" stroke-linejoin="round" stroke-miterlimit="4" stroke-opacity="1" stroke-width="2" d="M 323.82422 237.5 C 322.06208 237.49128 321.23778 237.61692 320.8457 238.31641 C 320.57731 239.08523 320.5 240.16199 320.5 241.68359 L 320.5 245.31641 C 320.5 249.8527 321.1489 250.5 325.68945 250.5 L 328 250.5 L 328 237.5 L 323.82422 237.5 z" display="inline" enable-background="new" opacity="1"/><path id="path995" fill="#000" fill-opacity="1" fill-rule="nonzero" stroke="none" stroke-dasharray="none" stroke-dashoffset="0" stroke-linecap="butt" stroke-linejoin="miter" stroke-miterlimit="4" stroke-opacity="1" stroke-width="2" d="m 343.99961,196.86562 c 0,-1.12014 -0.0241,-2.01524 -0.1543,-2.79101 -0.13022,-0.77577 -0.38763,-1.48014 -0.91601,-2.00977 -0.52838,-0.52962 -1.23687,-0.79079 -2.01367,-0.91992 -0.77681,-0.12912 -1.67169,-0.15002 -2.79493,-0.14453 h -6.12109 -6.125 c -1.12104,-0.005 -2.01529,0.0156 -2.79102,0.14453 -0.77681,0.12912 -1.48529,0.39029 -2.01367,0.91992 -0.52838,0.52964 -0.78579,1.234 -0.91601,2.00977 -0.13022,0.77577 -0.1543,1.67087 -0.1543,2.79101 v 8.26954 c 0,1.12013 0.024,2.01264 0.1543,2.78711 0.13033,0.77446 0.38927,1.48001 0.91797,2.00781 0.52869,0.5278 1.23438,0.78594 2.00976,0.91601 0.77539,0.13007 1.67062,0.1543 2.79297,0.1543 h 6.125 6.125 c 1.12235,0 2.01758,-0.0242 2.79297,-0.1543 0.77538,-0.13007 1.48107,-0.38821 2.00976,-0.91601 0.5287,-0.5278 0.78764,-1.23334 0.91797,-2.00781 0.13033,-0.77448 0.1543,-1.66697 0.1543,-2.78711 z" baseline-shift="baseline" clip-rule="nonzero" color="#000" color-interpolation="sRGB" color-interpolation-filters="linearRGB" color-rendering="auto" direction="ltr" display="inline" dominant-baseline="auto" enable-background="accumulate" font-family="sans-serif" font-size="medium" font-stretch="normal" font-style="normal" font-variant="normal" font-weight="normal" image-rendering="auto" letter-spacing="normal" opacity=".1" overflow="visible" shape-rendering="auto" text-anchor="start" text-decoration="none" text-rendering="auto" vector-effect="none" visibility="visible" word-spacing="normal" writing-mode="lr-tb" style="line-height:normal;font-variant-ligatures:normal;font-variant-position:normal;font-variant-caps:normal;font-variant-numeric:normal;font-variant-alternates:normal;font-feature-settings:normal;text-indent:0;text-align:start;text-decoration-line:none;text-decoration-style:solid;text-decoration-color:#000;text-transform:none;text-orientation:mixed;white-space:normal;shape-padding:0;isolation:auto;mix-blend-mode:normal;solid-color:#000;solid-opacity:1;marker:none"/><path id="path997" fill="#000" fill-opacity="1" fill-rule="nonzero" stroke="none" stroke-dasharray="none" stroke-dashoffset="0" stroke-linecap="butt" stroke-linejoin="miter" stroke-miterlimit="4" stroke-opacity="1" stroke-width="2" d="m 335.49972,241.59598 c 0,-0.71904 -0.0139,-1.30185 -0.10352,-1.83593 -0.0897,-0.53409 -0.27628,-1.0683 -0.68359,-1.47657 -0.4073,-0.40826 -0.94323,-0.59657 -1.47851,-0.68554 -0.53529,-0.089 -1.12048,-0.10119 -1.8418,-0.0977 h -2.89258 -3.89844 c -0.71816,-0.003 -1.30235,0.009 -1.83594,0.0977 -0.53528,0.089 -1.07121,0.27727 -1.47851,0.68554 -0.40731,0.40827 -0.59394,0.94248 -0.68359,1.47657 -0.0897,0.53408 -0.10352,1.11689 -0.10352,1.83593 v 5.8086 c 0,0.71904 0.0137,1.30058 0.10352,1.83398 0.0898,0.53341 0.27792,1.06768 0.68554,1.47461 0.40762,0.40693 0.94271,0.59404 1.47656,0.68359 0.53386,0.0896 1.11551,0.10352 1.83594,0.10352 h 3.89844 2.89844 c 0.72043,0 1.30208,-0.014 1.83594,-0.10352 0.53385,-0.0895 1.06894,-0.27666 1.47656,-0.68359 0.40762,-0.40693 0.59578,-0.9412 0.68554,-1.47461 0.0898,-0.5334 0.10352,-1.11494 0.10352,-1.83398 z" baseline-shift="baseline" clip-rule="nonzero" color="#000" color-interpolation="sRGB" color-interpolation-filters="linearRGB" color-rendering="auto" direction="ltr" display="inline" dominant-baseline="auto" enable-background="accumulate" font-family="sans-serif" font-size="medium" font-stretch="normal" font-style="normal" font-variant="normal" font-weight="normal" image-rendering="auto" letter-spacing="normal" opacity=".1" overflow="visible" shape-rendering="auto" text-anchor="start" text-decoration="none" text-rendering="auto" vector-effect="none" visibility="visible" word-spacing="normal" writing-mode="lr-tb" style="line-height:normal;font-variant-ligatures:normal;font-variant-position:normal;font-variant-caps:normal;font-variant-numeric:normal;font-variant-alternates:normal;font-feature-settings:normal;text-indent:0;text-align:start;text-decoration-line:none;text-decoration-style:solid;text-decoration-color:#000;text-transform:none;text-orientation:mixed;white-space:normal;shape-padding:0;isolation:auto;mix-blend-mode:normal;solid-color:#000;solid-opacity:1;marker:none"/><path id="path999" fill="#000" fill-opacity="1" fill-rule="nonzero" stroke="none" stroke-dasharray="none" stroke-dashoffset="0" stroke-linecap="butt" stroke-linejoin="miter" stroke-miterlimit="4" stroke-opacity="1" stroke-width="2" d="m 350.99951,143.19385 c 0,-1.42096 -0.0308,-2.54883 -0.19141,-3.50586 -0.16064,-0.95703 -0.4726,-1.79146 -1.09179,-2.41211 -0.61919,-0.62065 -1.45612,-0.93647 -2.41407,-1.0957 -0.95795,-0.15924 -2.08705,-0.18666 -3.51171,-0.17969 h -7.79102 -7.79688 c -1.42131,-0.007 -2.5495,0.0207 -3.50585,0.17969 -0.95796,0.15923 -1.79488,0.47505 -2.41407,1.0957 -0.61919,0.62065 -0.93115,1.45508 -1.09179,2.41211 -0.16065,0.95703 -0.19141,2.0849 -0.19141,3.50586 v 11.61523 c 0,1.42097 0.0307,2.54669 0.19141,3.50196 0.16075,0.95527 0.47425,1.78779 1.09375,2.40625 0.6195,0.61845 1.45363,0.93134 2.41015,1.09179 0.95653,0.16046 2.08403,0.19141 3.50781,0.19141 h 7.79688 7.79688 c 1.42378,0 2.55128,-0.031 3.50781,-0.19141 0.95653,-0.16045 1.79065,-0.47334 2.41015,-1.09179 0.61951,-0.61846 0.933,-1.45098 1.09375,-2.40625 0.16076,-0.95527 0.19141,-2.08099 0.19141,-3.50196 z" baseline-shift="baseline" clip-rule="nonzero" color="#000" color-interpolation="sRGB" color-interpolation-filters="linearRGB" color-rendering="auto" direction="ltr" display="inline" dominant-baseline="auto" enable-background="accumulate" font-family="sans-serif" font-size="medium" font-stretch="normal" font-style="normal" font-variant="normal" font-weight="normal" image-rendering="auto" letter-spacing="normal" opacity=".1" overflow="visible" shape-rendering="auto" text-anchor="start" text-decoration="none" text-rendering="auto" vector-effect="none" visibility="visible" word-spacing="normal" writing-mode="lr-tb" style="line-height:normal;font-variant-ligatures:normal;font-variant-position:normal;font-variant-caps:normal;font-variant-numeric:normal;font-variant-alternates:normal;font-feature-settings:normal;text-indent:0;text-align:start;text-decoration-line:none;text-decoration-style:solid;text-decoration-color:#000;text-transform:none;text-orientation:mixed;white-space:normal;shape-padding:0;isolation:auto;mix-blend-mode:normal;solid-color:#000;solid-opacity:1;marker:none"/><path id="path1020" fill="#000" fill-opacity="1" fill-rule="nonzero" stroke="none" stroke-dasharray="none" stroke-dashoffset="0" stroke-linecap="butt" stroke-linejoin="miter" stroke-miterlimit="4" stroke-opacity="1" stroke-width="2" d="m 367.49969,76.231427 c 0,-2.22316 -0.0512,-3.97368 -0.29297,-5.41406 -0.24178,-1.44039 -0.69529,-2.61905 -1.55664,-3.48243 -0.86134,-0.86337 -2.03947,-1.31906 -3.48046,-1.55859 -1.441,-0.23953 -3.19535,-0.28629 -5.42383,-0.27539 H 343.99974 331.2476 c -2.22507,-0.0108 -3.97852,0.0361 -5.41797,0.27539 -1.441,0.23953 -2.61913,0.69522 -3.48047,1.55859 -0.86134,0.86338 -1.31486,2.04204 -1.55664,3.48243 -0.24179,1.44039 -0.29297,3.1909 -0.29297,5.41406 v 17.53883 c 0,2.22317 0.0511,3.97276 0.29297,5.41017 0.24189,1.437403 0.69694,2.612463 1.55859,3.472653 0.86165,0.8602 2.03894,1.31319 3.47852,1.55468 1.43957,0.24149 3.19035,0.29297 5.41797,0.29297 h 12.75214 12.75191 c 2.22761,0 3.97839,-0.0515 5.41797,-0.29297 1.43957,-0.24149 2.61686,-0.69449 3.47851,-1.55469 0.86165,-0.86019 1.31671,-2.03525 1.55859,-3.472653 0.24189,-1.4374 0.29297,-3.187 0.29297,-5.41016 z" baseline-shift="baseline" clip-rule="nonzero" color="#000" color-interpolation="sRGB" color-interpolation-filters="linearRGB" color-rendering="auto" direction="ltr" display="inline" dominant-baseline="auto" enable-background="accumulate" font-family="sans-serif" font-size="medium" font-stretch="normal" font-style="normal" font-variant="normal" font-weight="normal" image-rendering="auto" letter-spacing="normal" opacity=".1" overflow="visible" shape-rendering="auto" text-anchor="start" text-decoration="none" text-rendering="auto" vector-effect="none" visibility="visible" word-spacing="normal" writing-mode="lr-tb" style="line-height:normal;font-variant-ligatures:normal;font-variant-position:normal;font-variant-caps:normal;font-variant-numeric:normal;font-variant-alternates:normal;font-feature-settings:normal;text-indent:0;text-align:start;text-decoration-line:none;text-decoration-style:solid;text-decoration-color:#000;text-transform:none;text-orientation:mixed;white-space:normal;shape-padding:0;isolation:auto;mix-blend-mode:normal;solid-color:#000;solid-opacity:1;marker:none"/><path id="rect4158-9" fill="#000" fill-opacity="1" fill-rule="nonzero" stroke="none" stroke-width="2" d="M 189.84323,74 C 119.24979,74 111.65402,81.250835 112,151.98706 V 298 444.01294 C 111.65402,514.74917 119.24979,522 189.84323,522 H 386.15677 C 456.75021,522 462.16345,514.72616 464,444.01294 V 298 151.98706 C 464,81.249993 456.75021,74 386.15677,74 Z" color="#000" display="inline" enable-background="accumulate" filter="url(#filter4346)" opacity=".1" overflow="visible" transform="matrix(0,0.5,-0.5,0,300.9973,13.002698)" visibility="visible" style="marker:none"/><path id="path4350" fill="url(#linearGradient4358)" fill-opacity="1" fill-rule="nonzero" stroke="none" stroke-width="2" d="M 189.84323,74 C 119.24979,74 111.65402,81.250835 112,151.98706 V 298 444.01294 C 111.65402,514.74917 119.24979,522 189.84323,522 H 386.15677 C 456.75021,522 464,514.75001 464,444.01294 V 298 151.98706 C 464,81.249993 456.75021,74 386.15677,74 Z" color="#000" display="inline" enable-background="accumulate" filter="url(#filter4380)" opacity=".3" overflow="visible" transform="matrix(0,0.5,-0.5,0,300.9973,13.002698)" visibility="visible" style="marker:none"/><path id="rect4158-7" fill="#000" fill-opacity="1" fill-rule="nonzero" stroke="none" stroke-width="1.02" d="m 266.0025,105.8091 c 0,-36.098811 -3.69016,-39.983003 -39.68984,-39.806081 H 152.0025 77.69234 C 41.69265,65.826097 38.0025,69.710289 38.0025,105.8091 v 100.38732 c 0,36.09881 3.68973,39.80608 39.68984,39.80608 h 74.31016 74.31016 c 36.00011,0 39.68984,-3.70727 39.68984,-39.80608 z" color="#000" display="inline" enable-background="accumulate" opacity=".1" overflow="visible" visibility="visible" style="marker:none"/><path id="path964" fill="#f6f5f4" fill-opacity="1" fill-rule="nonzero" stroke="none" stroke-width="1" d="m 366.50065,75.231076 c 0,-8.23154 -0.90635,-9.77365 -9.74838,-9.7304 H 344.0007 331.24889 c -8.84203,-0.0433 -9.74838,1.49886 -9.74838,9.7304 v 17.53897 c 0,8.229494 0.90625,9.730394 9.74838,9.730394 h 12.75181 12.75157 c 8.84213,0 9.74838,-1.5009 9.74838,-9.730404 z" color="#000" display="inline" enable-background="accumulate" overflow="visible" visibility="visible" style="marker:none"/><path id="path888" fill="#3584e4" fill-opacity="1" stroke="none" stroke-dasharray="none" stroke-dashoffset="0" stroke-linecap="round" stroke-linejoin="round" stroke-miterlimit="4" stroke-opacity="1" stroke-width="2" d="m 344,65.5 v 37 h 12.75195 c 8.84213,0 9.74805,-1.50096 9.74805,-9.730469 V 75.230469 c 0,-8.23154 -0.90602,-9.773719 -9.74805,-9.730469 z" display="inline" enable-background="new" opacity="1"/><path id="path4664" fill="#fff" fill-opacity="1" stroke="none" stroke-dasharray="none" stroke-dashoffset="0" stroke-linecap="round" stroke-linejoin="round" stroke-miterlimit="4" stroke-opacity="1" stroke-width="2" d="m 344,84 v 18.5 h 12.75195 c 8.84213,0 9.74805,-1.50096 9.74805,-9.730469 V 84 Z" display="inline" enable-background="new" opacity=".1"/><g id="g4679" stroke-width="5.682" clip-path="url(#clipPath983-7)" display="inline" transform="matrix(-0.18749999,0,0,0.16517857,372.5082,58.232143)"><path id="path4675" fill="#000" fill-opacity="1" stroke="none" stroke-dasharray="none" stroke-dashoffset="0" stroke-linecap="round" stroke-linejoin="round" stroke-miterlimit="4" stroke-opacity="1" stroke-width="11.365" d="m 152,44 v 224 h 36.96875 C 261.6174,268 272,257.64309 272,185.0625 v -58.125 C 272,54.356615 261.6174,44 188.96875,44 Z" filter="url(#filter973)" opacity=".4"/><path id="path4677" fill="#000" fill-opacity="1" stroke="none" stroke-dasharray="none" stroke-dashoffset="0" stroke-linecap="round" stroke-linejoin="round" stroke-miterlimit="4" stroke-opacity="1" stroke-width="11.365" d="m 152,44 v 224 h 36.96875 C 261.6174,268 272,257.64309 272,185.0625 v -58.125 C 272,54.356615 261.6174,44 188.96875,44 Z" filter="url(#filter967)" opacity=".1"/></g><path id="rect4158" fill="#f6f5f4" fill-opacity="1" fill-rule="nonzero" stroke="none" stroke-width="1" d="m 263.9973,205.07568 c 0,35.29673 -3.62542,39.09461 -38.99353,38.92162 H 151.9973 78.99083 C 43.62271,244.17029 39.9973,240.37241 39.9973,205.07568 v -98.15676 c 0,-35.296716 3.625,-38.921616 38.99353,-38.921616 h 73.00647 73.00647 c 35.36853,0 38.99353,3.6249 38.99353,38.921616 z" color="#000" display="inline" enable-background="accumulate" overflow="visible" visibility="visible" style="marker:none"/><path id="path914" fill="#f6f5f4" fill-opacity="1" fill-rule="nonzero" stroke="none" stroke-width="1" d="m 343.49998,195.636 c 0,-4.65703 -0.47377,-5.15811 -5.09574,-5.13529 h -6.40426 -6.40425 c -4.62197,-0.0229 -5.09574,0.47826 -5.09574,5.13529 v 8.7287 c 0,4.65703 0.47371,5.13529 5.09574,5.13529 h 6.40425 6.40426 c 4.62202,0 5.09574,-0.47827 5.09574,-5.1353 z" color="#000" display="inline" enable-background="accumulate" overflow="visible" visibility="visible" style="marker:none"/><path id="path918" fill="#f6f5f4" fill-opacity="1" fill-rule="nonzero" stroke="none" stroke-width="1" d="m 335.50001,240.8545 c 0,-3.04166 -0.30899,-3.36894 -3.32331,-3.35403 h -4.17669 -4.17669 c -3.01432,-0.0149 -3.32331,0.31237 -3.32331,3.35403 v 6.29146 c 0,3.04167 0.30895,3.35404 3.32331,3.35404 h 4.17669 4.17669 c 3.01435,0 3.32331,-0.31238 3.32331,-3.35404 z" color="#000" display="inline" enable-background="accumulate" overflow="visible" visibility="visible" style="marker:none"/><path id="path964-7" fill="#f6f5f4" fill-opacity="1" fill-rule="nonzero" stroke="none" stroke-width="1" d="m 350.50001,142.07508 c 0,-5.56175 -0.58409,-6.6037 -6.28227,-6.57447 h -8.21765 -8.21781 c -5.69818,-0.0293 -6.28227,1.01272 -6.28227,6.57447 v 11.85044 c 0,5.56037 0.58403,6.57447 6.28227,6.57447 h 8.21781 8.21765 c 5.69824,0 6.28227,-1.0141 6.28227,-6.57447 z" color="#000" display="inline" enable-background="accumulate" overflow="visible" visibility="visible" style="marker:none"/><path id="rect877" fill="#3584e4" fill-opacity="1" stroke="none" stroke-dasharray="none" stroke-dashoffset="0" stroke-linecap="round" stroke-linejoin="round" stroke-miterlimit="4" stroke-opacity="1" stroke-width="2" d="M 152,67.999996 V 243.9946 h 73.00391 c 35.36811,0.17299 38.99414,-3.62504 38.99414,-38.92069 v -98.15519 c 0,-35.295633 -3.62561,-38.918724 -38.99414,-38.918724 z" display="inline" enable-background="new" opacity="1"/><path id="path949" fill="#fff" fill-opacity="1" stroke="none" stroke-dasharray="none" stroke-dashoffset="0" stroke-linecap="round" stroke-linejoin="round" stroke-miterlimit="4" stroke-opacity="1" stroke-width="2" d="m 152,156 v 87.99805 h 73.00391 c 35.36811,0.17299 38.99414,-3.62515 38.99414,-38.92188 V 156 Z" display="inline" enable-background="new" opacity=".1"/><g id="g979" stroke-width="1.128" clip-path="url(#clipPath983-7)" display="inline" transform="matrix(-0.99999997,0,0,0.78573661,303.99999,33.425589)"><path id="path971" fill="#000" fill-opacity="1" stroke="none" stroke-dasharray="none" stroke-dashoffset="0" stroke-linecap="round" stroke-linejoin="round" stroke-miterlimit="4" stroke-opacity="1" stroke-width="2.256" d="m 152,44 v 224 h 36.96875 C 261.6174,268 272,257.64309 272,185.0625 v -58.125 C 272,54.356615 261.6174,44 188.96875,44 Z" filter="url(#filter973)" opacity=".4"/></g><path id="path942" fill="#3584e4" fill-opacity="1" stroke="none" stroke-dasharray="none" stroke-dashoffset="0" stroke-linecap="round" stroke-linejoin="round" stroke-miterlimit="4" stroke-opacity="1" stroke-width="2" d="m 336,135.5 v 25 h 8.2168 c 5.69824,0 6.2832,-1.01385 6.2832,-6.57422 v -11.85156 c 0,-5.56175 -0.58502,-6.60345 -6.2832,-6.57422 z" display="inline" enable-background="new" opacity="1"/><path id="path4689" fill="#fff" fill-opacity="1" stroke="none" stroke-dasharray="none" stroke-dashoffset="0" stroke-linecap="round" stroke-linejoin="round" stroke-miterlimit="4" stroke-opacity="1" stroke-width="2" d="m 336,148 v 12.5 h 8.2168 c 5.69824,0 6.2832,-1.01385 6.2832,-6.57422 V 148 Z" display="inline" enable-background="new" opacity=".1"/><g id="g4698" stroke-width="8.466" clip-path="url(#clipPath983-7)" display="inline" transform="matrix(-0.125,0,0,0.11160714,355.0402,130.58929)"><path id="path4694" fill="#000" fill-opacity="1" stroke="none" stroke-dasharray="none" stroke-dashoffset="0" stroke-linecap="round" stroke-linejoin="round" stroke-miterlimit="4" stroke-opacity="1" stroke-width="16.933" d="m 152,44 v 224 h 36.96875 C 261.6174,268 272,257.64309 272,185.0625 v -58.125 C 272,54.356615 261.6174,44 188.96875,44 Z" filter="url(#filter973)" opacity=".4"/><path id="path4696" fill="#000" fill-opacity="1" stroke="none" stroke-dasharray="none" stroke-dashoffset="0" stroke-linecap="round" stroke-linejoin="round" stroke-miterlimit="4" stroke-opacity="1" stroke-width="16.933" d="m 152,44 v 224 h 36.96875 C 261.6174,268 272,257.64309 272,185.0625 v -58.125 C 272,54.356615 261.6174,44 188.96875,44 Z" filter="url(#filter967)" opacity=".1"/></g><path id="path948" fill="#3584e4" fill-opacity="1" stroke="none" stroke-dasharray="none" stroke-dashoffset="0" stroke-linecap="round" stroke-linejoin="round" stroke-miterlimit="4" stroke-opacity="1" stroke-width="2" d="m 332,190.5 v 19 h 6.4043 c 1.97695,0 3.19085,-0.0901 3.9375,-0.55469 0.93381,-1.12596 1.1582,-3.02457 1.1582,-6.2207 v -5.44922 c 0,-3.20925 -0.22635,-5.11023 -1.16992,-6.23437 -0.74757,-0.46034 -1.95825,-0.55073 -3.92578,-0.54102 z" display="inline" enable-background="new" opacity="1"/><path id="path4712" fill="#fff" fill-opacity="1" stroke="none" stroke-dasharray="none" stroke-dashoffset="0" stroke-linecap="round" stroke-linejoin="round" stroke-miterlimit="4" stroke-opacity="1" stroke-width="2" d="m 332,200 v 9.5 h 6.4043 c 1.97695,0 3.19085,-0.0901 3.9375,-0.55469 0.93381,-1.12596 1.1582,-3.02457 1.1582,-6.2207 V 200 Z" display="inline" enable-background="new" opacity=".1"/><path id="path4729" fill="none" fill-rule="evenodd" stroke="#000" stroke-linecap="butt" stroke-linejoin="miter" stroke-opacity="1" stroke-width="1" d="m 332.5,190.5 v 19" display="inline" enable-background="new" opacity=".1"/><path id="path946" fill="#3584e4" fill-opacity="1" stroke="none" stroke-dasharray="none" stroke-dashoffset="0" stroke-linecap="round" stroke-linejoin="round" stroke-miterlimit="4" stroke-opacity="1" stroke-width="2" d="m 328,237.5 v 13 h 4.17578 c 3.01435,0 3.32422,-0.31186 3.32422,-3.35352 v -6.29101 c 0,-3.04166 -0.3099,-3.37038 -3.32422,-3.35547 z" display="inline" enable-background="new" opacity="1"/><path id="path4707" fill="#fff" fill-opacity="1" stroke="none" stroke-dasharray="none" stroke-dashoffset="0" stroke-linecap="round" stroke-linejoin="round" stroke-miterlimit="4" stroke-opacity="1" stroke-width="2" d="m 328,244 v 6.5 h 2.31055 c 4.54053,0 5.18945,-0.6473 5.18945,-5.18359 V 244 Z" display="inline" enable-background="new" opacity=".1"/></g><g id="layer6" display="inline"><path id="rect36292" fill="#fff" fill-opacity="1" stroke="none" stroke-dasharray="none" stroke-dashoffset="0" stroke-linecap="round" stroke-linejoin="miter" stroke-miterlimit="4" stroke-opacity="1" stroke-width="4" d="m 208.20992,116.01738 v 12.00001 h -32 v 8 h 13.23633 c 4.76089,12.2894 10.60824,22.71138 17.49707,31.21679 -8.01487,8.3014 -17.2917,13.88083 -27.84766,16.94142 l 2.22852,7.68359 c 11.73051,-3.40113 22.0451,-9.67254 30.88574,-18.70118 8.84064,9.02864 19.15524,15.30005 30.88574,18.70118 l 2.22852,-7.68359 c -10.55596,-3.06059 -19.83278,-8.64002 -27.84766,-16.94142 6.88884,-8.50541 12.73619,-18.9274 17.49707,-31.21679 h 13.23633 v -8 h -32 v -12.00001 z m -10.15527,20.00001 h 28.31055 c -4.06129,9.88778 -8.77908,18.23939 -14.15528,25.1416 -5.3762,-6.90221 -10.09398,-15.25382 -14.15527,-25.1416 z" display="inline" enable-background="new" opacity="1" style="marker:none"/><path id="path36316" fill="#77767b" fill-opacity="1" stroke="none" stroke-linecap="butt" stroke-linejoin="miter" stroke-opacity="1" stroke-width=".116" d="m 118.54977,192.34061 c -1.22655,-3.24676 -2.38095,-6.42136 -3.4632,-9.52381 -1.08225,-3.1746 -2.20058,-6.12517 -3.35497,-9.37192 H 77.74892 l -6.81819,18.89573 H 60 c 2.886,-7.93651 5.59163,-15.25974 8.11688,-21.9697 2.52525,-6.78211 4.97836,-13.20346 7.35931,-19.26407 2.4531,-6.0606 4.87013,-11.83261 7.25108,-17.31601 2.38096,-5.55556 4.87013,-11.03896 7.46753,-16.45023 h 9.63204 c 2.59739,5.41127 5.08657,10.89467 7.46752,16.45023 2.38095,5.4834 4.76191,11.25541 7.14286,17.31601 2.4531,6.06061 4.94228,12.48196 7.46753,19.26407 2.52525,6.70996 5.23088,14.03319 8.11688,21.9697 z m -9.84847,-27.5 c -2.30882,-6.27706 -4.61762,-12.65152 -6.92642,-18.49567 -2.23664,-5.91631 -4.58152,-11.58009 -7.03462,-16.99134 -2.52525,5.41125 -4.94228,11.07503 -7.25108,16.99134 -2.23666,5.84415 -4.47331,12.21861 -6.70996,18.49567 z" display="inline" enable-background="new" font-family="Ubuntu" font-size="medium" font-stretch="normal" font-style="normal" font-variant="normal" font-weight="normal" letter-spacing="0" text-anchor="middle" word-spacing="0" style="line-height:125%;-inkscape-font-specification:Ubuntu;text-align:center"/><path id="path968" fill="#fff" fill-opacity="1" stroke="none" stroke-dasharray="none" stroke-dashoffset="0" stroke-linecap="round" stroke-linejoin="miter" stroke-miterlimit="4" stroke-opacity="1" stroke-width="4" d="m 354.90703,76.785257 v 2.215136 H 349 v 1.476759 h 2.44335 c 0.87885,2.26856 1.95824,4.192402 3.22988,5.762457 -1.47951,1.532394 -3.19196,2.562328 -5.14053,3.127297 l 0.41136,1.418351 c 2.1654,-0.627831 4.06941,-1.7855 5.70136,-3.45214 1.63194,1.66664 3.53596,2.824309 5.70134,3.45214 l 0.41137,-1.418351 c -1.94857,-0.564969 -3.66103,-1.594903 -5.14053,-3.127297 1.27164,-1.570055 2.35103,-3.493899 3.22988,-5.762457 h 2.44335 v -1.476759 h -5.90703 v -2.215136 z m -1.8746,3.691895 h 5.22597 c -0.74969,1.825232 -1.62056,3.366896 -2.61298,4.641008 -0.99243,-1.274112 -1.8633,-2.815776 -2.61299,-4.641008 z" display="inline" enable-background="new" opacity="1" style="marker:none"/><path id="path972" fill="#77767b" fill-opacity="1" stroke="none" stroke-linecap="butt" stroke-linejoin="miter" stroke-opacity="1" stroke-width=".116" d="m 337.43074,89.995386 c -0.19625,-0.519482 -0.38095,-1.027417 -0.55411,-1.523809 -0.17316,-0.507937 -0.35209,-0.980028 -0.53679,-1.499508 h -5.43724 l -1.0909,3.023317 h -1.74892 c 0.46176,-1.269841 0.89466,-2.441559 1.2987,-3.515152 0.40404,-1.085138 0.79654,-2.112554 1.17749,-3.082252 0.3925,-0.969695 0.77922,-1.893217 1.16017,-2.770561 0.38096,-0.88889 0.77922,-1.766234 1.1948,-2.632035 h 1.54113 c 0.41558,0.865801 0.81385,1.743145 1.19481,2.632035 0.38095,0.877344 0.7619,1.800866 1.14286,2.770561 0.39249,0.969698 0.79076,1.997114 1.1948,3.082252 0.40404,1.073593 0.83694,2.245311 1.2987,3.515152 z m -1.57575,-4.4 c -0.36942,-1.00433 -0.73882,-2.024243 -1.10823,-2.959307 -0.35786,-0.94661 -0.73305,-1.852815 -1.12554,-2.718615 -0.40404,0.8658 -0.79076,1.772005 -1.16018,2.718615 -0.35786,0.935064 -0.71573,1.954977 -1.07359,2.959307 z" display="inline" enable-background="new" font-family="Ubuntu" font-size="medium" font-stretch="normal" font-style="normal" font-variant="normal" font-weight="normal" letter-spacing="0" text-anchor="middle" word-spacing="0" style="line-height:125%;-inkscape-font-specification:Ubuntu;text-align:center"/><path id="path1003" fill="#77767b" fill-opacity="1" stroke="none" stroke-linecap="butt" stroke-linejoin="miter" stroke-opacity="1" stroke-width="1" d="m 332.07468,153.0004 q -0.22077,-0.58441 -0.41558,-1.14286 -0.1948,-0.57142 -0.4026,-1.15584 h -4.07792 l -0.81818,2.2987 h -1.3117 q 0.51948,-1.42858 0.97402,-2.63637 0.45456,-1.22078 0.88313,-2.31169 0.44155,-1.0909 0.87013,-2.07792 0.42857,-1 0.8961,-1.97402 h 1.15584 q 0.46754,0.97402 0.89612,1.97402 0.42856,0.98702 0.85713,2.07792 0.44157,1.09091 0.8961,2.31169 0.45455,1.20779 0.97403,2.63637 z m -1.18182,-3.33766 q -0.41559,-1.12988 -0.83117,-2.18182 -0.4026,-1.06495 -0.84415,-2.03897 -0.45455,0.97402 -0.87014,2.03897 -0.40259,1.05194 -0.8052,2.18182 z" display="inline" enable-background="new" font-family="Ubuntu" font-size="medium" font-stretch="normal" font-style="normal" font-variant="normal" font-weight="normal" letter-spacing="0" text-anchor="middle" word-spacing="0" style="line-height:1000%;-inkscape-font-specification:Ubuntu;text-align:center"/><path id="path1015" fill="#77767b" fill-opacity="1" stroke="none" stroke-linecap="butt" stroke-linejoin="miter" stroke-opacity="1" stroke-width="6.93" d="m 326.20964,245.79924 q -0.0808,-0.23665 -0.16739,-0.46753 -0.0866,-0.23088 -0.16739,-0.4733 h -1.68542 q -0.0808,0.24242 -0.16739,0.47907 -0.0808,0.23088 -0.16162,0.46176 h -0.75613 q 0.22511,-0.64069 0.42713,-1.18326 0.20202,-0.54257 0.39249,-1.02741 0.19625,-0.48485 0.38673,-0.92353 0.19047,-0.43867 0.3925,-0.8658 h 0.68686 q 0.20202,0.42713 0.3925,0.8658 0.19048,0.43868 0.38095,0.92353 0.19625,0.48484 0.39827,1.02741 0.20779,0.54257 0.4329,1.18326 z m -1.17749,-3.22655 q -0.13276,0.30592 -0.30592,0.74459 -0.16739,0.43867 -0.35209,0.95238 h 1.31602 q -0.18471,-0.51371 -0.35787,-0.95815 -0.17316,-0.44445 -0.30014,-0.73882 z" display="inline" enable-background="new" font-family="Ubuntu" font-size="medium" font-stretch="normal" font-style="normal" font-variant="normal" font-weight="500" letter-spacing="0" word-spacing="0" style="line-height:1000%;-inkscape-font-specification:'Ubuntu Medium'"/><path id="path1019" fill="#77767b" fill-opacity="1" stroke="none" stroke-linecap="butt" stroke-linejoin="miter" stroke-opacity="1" stroke-width="6.93" d="m 327.99026,203.0004 q -0.1212,-0.35497 -0.25109,-0.7013 -0.1299,-0.34632 -0.25108,-0.70995 h -2.52813 q -0.12119,0.36364 -0.25108,0.71861 -0.1212,0.34632 -0.24243,0.69264 h -1.13419 q 0.33766,-0.96104 0.64069,-1.77489 0.30303,-0.81386 0.58873,-1.54111 0.29438,-0.72728 0.58009,-1.3853 0.28571,-0.658 0.58875,-1.2987 h 1.03029 q 0.30303,0.6407 0.58875,1.2987 0.28572,0.65802 0.57143,1.3853 0.29438,0.72725 0.5974,1.54111 0.31169,0.81386 0.64936,1.77489 z m -1.76623,-4.83983 q -0.19915,0.45888 -0.45889,1.11689 -0.25108,0.658 -0.52813,1.42857 h 1.97404 q -0.27707,-0.77057 -0.53682,-1.43722 -0.25972,-0.66668 -0.4502,-1.10824 z" display="inline" enable-background="new" font-family="Ubuntu" font-size="medium" font-stretch="normal" font-style="normal" font-variant="normal" font-weight="500" letter-spacing="0" word-spacing="0" style="line-height:1000%;-inkscape-font-specification:'Ubuntu Medium'"/><path id="path1021" fill="#fff" fill-opacity="1" stroke="none" stroke-dasharray="none" stroke-dashoffset="0" stroke-linecap="round" stroke-linejoin="miter" stroke-miterlimit="4" stroke-opacity="1" stroke-width="4" d="m 342.98578,143.20631 v 1.58224 h -4.21931 v 1.05483 h 1.74525 c 0.62775,1.6204 1.39874,2.99457 2.30706,4.11604 -1.05679,1.09456 -2.27997,1.83023 -3.67181,2.23378 l 0.29383,1.01311 c 1.54672,-0.44845 2.90672,-1.27536 4.0724,-2.46582 1.16567,1.19046 2.52568,2.01737 4.07239,2.46582 l 0.29383,-1.01311 c -1.39183,-0.40355 -2.61502,-1.13922 -3.67181,-2.23378 0.90832,-1.12147 1.67931,-2.49565 2.30706,-4.11604 h 1.74525 v -1.05483 h -4.21931 v -1.58224 z m -1.339,2.63707 h 3.73284 c -0.5355,1.30373 -1.15755,2.40492 -1.86642,3.315 -0.70888,-0.91008 -1.33093,-2.01127 -1.86642,-3.315 z" display="inline" enable-background="new" opacity="1" style="marker:none"/><path id="path1023" fill="#fff" fill-opacity="1" stroke="#fff" stroke-dasharray="none" stroke-dashoffset="0" stroke-linecap="round" stroke-linejoin="miter" stroke-miterlimit="4" stroke-opacity="1" stroke-width=".25" d="m 337.2576,195.96454 v 1.22151 H 334 v 0.81435 h 1.34745 c 0.48467,1.25097 1.07993,2.31184 1.78122,3.17764 -0.81592,0.84501 -1.7603,1.41296 -2.8349,1.7245 l 0.22686,0.78214 c 1.19418,-0.34621 2.24419,-0.9846 3.14417,-1.90365 0.89998,0.91905 1.95001,1.55744 3.14418,1.90365 l 0.22685,-0.78214 c -1.07458,-0.31154 -2.01898,-0.87949 -2.83489,-1.7245 0.70129,-0.8658 1.29654,-1.92668 1.78121,-3.17764 h 1.34746 v -0.81435 H 338.072 v -1.22151 z m -1.0338,2.03586 h 2.88201 c -0.41344,1.00649 -0.89371,1.85663 -1.44101,2.55923 -0.5473,-0.7026 -1.02756,-1.55274 -1.441,-2.55923 z" display="inline" enable-background="new" opacity="1" style="marker:none"/><path id="path1026" fill="#fff" fill-opacity="1" stroke="#fff" stroke-dasharray="none" stroke-dashoffset="0" stroke-linecap="round" stroke-linejoin="miter" stroke-miterlimit="4" stroke-opacity="1" stroke-width=".25" d="m 331.17167,240.98873 v 0.79072 h -2.11111 v 0.52715 h 0.87323 c 0.31409,0.80978 0.69985,1.49651 1.15432,2.05698 -0.52876,0.54699 -1.14077,0.91464 -1.83717,1.11631 l 0.14702,0.5063 c 0.7739,-0.22411 1.45436,-0.63736 2.0376,-1.23229 0.58323,0.59493 1.26371,1.00818 2.03761,1.23229 l 0.14701,-0.5063 c -0.69639,-0.20167 -1.30842,-0.56932 -1.83718,-1.11631 0.45448,-0.56047 0.84023,-1.2472 1.15433,-2.05698 h 0.87323 v -0.52715 h -2.11111 v -0.79072 z m -0.66996,1.31787 h 1.8677 c -0.26793,0.65153 -0.57917,1.20185 -0.93385,1.65666 -0.35469,-0.45481 -0.66592,-1.00513 -0.93385,-1.65666 z" display="inline" enable-background="new" opacity="1" style="marker:none"/></g><g id="layer2" display="inline"><path id="rect4158-78" fill="#fff" fill-opacity="1" fill-rule="nonzero" stroke="none" stroke-width="1" d="m 78.990234,67.998047 c -35.36853,0 -38.992187,3.623202 -38.992187,38.919923 v 98.1582 c 0,0.0882 0.0019,0.16224 0.002,0.25 V 108.91602 C 40,73.6193 43.625611,69.994141 78.994141,69.994141 H 152 225.00586 c 35.28016,0 38.97394,3.621035 38.99219,38.671879 v -1.74805 c 0,-35.296721 -3.62561,-38.919923 -38.99414,-38.919923 h -73.00586 z" color="#000" display="inline" enable-background="accumulate" opacity=".3" overflow="visible" visibility="visible" style="marker:none"/><path id="rect4158-6" fill="#000" fill-opacity="1" fill-rule="nonzero" stroke="none" stroke-width="1" d="m 39.998047,203.07617 v 2 c 0,35.29673 3.624067,39.09487 38.992187,38.92188 h 73.007816 73.00586 c 35.36811,0.17299 38.99414,-3.62515 38.99414,-38.92188 v -2 c 0,35.29673 -3.62603,39.09487 -38.99414,38.92188 H 151.99805 78.990234 c -35.36812,0.17299 -38.992187,-3.62515 -38.992187,-38.92188 z" color="#000" display="inline" enable-background="accumulate" opacity=".2" overflow="visible" visibility="visible" style="marker:none"/><path id="path937" fill="none" fill-opacity="1" fill-rule="nonzero" stroke="url(#linearGradient993)" stroke-dasharray="none" stroke-miterlimit="4" stroke-opacity="1" stroke-width="2" d="m 325.09646,237 c -2.80769,0 -3.10979,0.28839 -3.09603,3.10176 V 244 v 3.89824 c -0.0138,2.81337 0.28834,3.10176 3.09603,3.10176 h 5.8075 C 333.71166,251 334,250.71165 334,247.89824 V 244 240.10176 C 334,237.28836 333.71165,237 330.90396,237 Z" clip-path="url(#clipPath983)" color="#000" display="inline" enable-background="accumulate" opacity=".7" overflow="visible" transform="rotate(90,328,244)" visibility="visible" style="marker:none"/><path id="path958-6-0" fill="none" fill-opacity="1" fill-rule="nonzero" stroke="#000" stroke-dasharray="none" stroke-miterlimit="4" stroke-opacity="1" stroke-width=".977" d="m 335.51173,240.91355 c 0,-2.89732 -0.30259,-3.44011 -3.25454,-3.42488 h -4.25716 -4.25724 c -2.95195,-0.0152 -3.25453,0.52756 -3.25453,3.42488 v 6.17331 c 0,2.8966 0.30255,3.42488 3.25453,3.42488 h 4.25724 4.25716 c 2.95199,0 3.25454,-0.52828 3.25454,-3.42488 z" color="#000" display="inline" enable-background="accumulate" opacity=".4" overflow="visible" visibility="visible" style="marker:none"/><path id="path958-6" fill="none" fill-opacity="1" fill-rule="nonzero" stroke="#000" stroke-dasharray="none" stroke-miterlimit="4" stroke-opacity="1" stroke-width=".977" d="m 343.51172,195.49156 c 0,-4.23214 -0.46371,-5.02499 -4.98757,-5.00275 h -6.5241 -6.52423 c -4.52386,-0.0222 -4.98757,0.77061 -4.98757,5.00275 v 9.01743 c 0,4.23108 0.46366,5.00275 4.98757,5.00275 h 6.52423 6.5241 c 4.52391,0 4.98757,-0.77167 4.98757,-5.00275 z" color="#000" display="inline" enable-background="accumulate" opacity=".4" overflow="visible" visibility="visible" style="marker:none"/><path id="path935" fill="none" fill-opacity="1" fill-rule="nonzero" stroke="url(#linearGradient981)" stroke-dasharray="none" stroke-miterlimit="4" stroke-opacity="1" stroke-width="2" d="m 327.8652,189 c -4.41209,0 -4.88682,0.45318 -4.8652,4.87419 V 200 206.12581 C 322.9783,210.54682 323.45311,211 327.8652,211 h 8.2696 C 340.54689,211 341,210.54688 341,206.12581 V 200 193.87419 C 341,189.45313 340.54688,189 336.13479,189 Z" clip-path="url(#clipPath971)" color="#000" display="inline" enable-background="accumulate" opacity=".7" overflow="visible" transform="rotate(90,331.99966,200)" visibility="visible" style="marker:none"/><path id="path958-1" fill="none" fill-opacity="1" fill-rule="nonzero" stroke="#000" stroke-dasharray="none" stroke-miterlimit="4" stroke-opacity="1" stroke-width="1" d="m 350.50001,142.07508 c 0,-5.56175 -0.58409,-6.6037 -6.28227,-6.57447 h -8.21765 -8.21781 c -5.69818,-0.0293 -6.28227,1.01272 -6.28227,6.57447 v 11.85044 c 0,5.56037 0.58403,6.57447 6.28227,6.57447 h 8.21781 8.21765 c 5.69824,0 6.28227,-1.0141 6.28227,-6.57447 z" color="#000" display="inline" enable-background="accumulate" opacity=".4" overflow="visible" visibility="visible" style="marker:none"/><path id="path990-8" fill="none" fill-opacity="1" fill-rule="nonzero" stroke="url(#linearGradient1004-8)" stroke-dasharray="none" stroke-miterlimit="4" stroke-opacity="1" stroke-width="3.071" d="m 335.73108,62 c -8.82418,0 -9.77365,0.90635 -9.7304,9.74838 V 84 96.25162 c -0.0433,8.84203 0.90622,9.74838 9.7304,9.74838 h 16.53919 c 8.82418,0 9.7304,-0.90625 9.7304,-9.74838 V 84 71.74838 C 362.00067,62.90625 361.09445,62 352.27027,62 Z" clip-path="url(#clipPath994-1)" color="#000" display="inline" enable-background="accumulate" opacity=".7" overflow="visible" transform="matrix(0,0.66664182,-0.63636364,0,389.45455,-81.324786)" visibility="visible" style="marker:none"/><path id="path958" fill="none" fill-opacity="1" fill-rule="nonzero" stroke="#000" stroke-dasharray="none" stroke-miterlimit="4" stroke-opacity="1" stroke-width="1" d="m 366.50065,75.231076 c 0,-8.23154 -0.90635,-9.77365 -9.74838,-9.7304 H 344.0007 331.24889 c -8.84203,-0.0433 -9.74838,1.49886 -9.74838,9.7304 v 17.53897 c 0,8.229494 0.90625,9.730394 9.74838,9.730394 h 12.75181 12.75157 c 8.84213,0 9.74838,-1.5009 9.74838,-9.730404 z" color="#000" display="inline" enable-background="accumulate" opacity=".4" overflow="visible" visibility="visible" style="marker:none"/><path id="path990" fill="none" fill-opacity="1" fill-rule="nonzero" stroke="url(#linearGradient1004)" stroke-dasharray="none" stroke-miterlimit="4" stroke-opacity="1" stroke-width="2" d="m 335.73108,62 c -8.82418,0 -9.77365,0.90635 -9.7304,9.74838 V 84 96.25162 c -0.0433,8.84203 0.90622,9.74838 9.7304,9.74838 h 16.53919 c 8.82418,0 9.7304,-0.90625 9.7304,-9.74838 V 84 71.74838 C 362.00067,62.90625 361.09445,62 352.27027,62 Z" clip-path="url(#clipPath994)" color="#000" display="inline" enable-background="accumulate" opacity=".7" overflow="visible" transform="rotate(90,344,84)" visibility="visible" style="marker:none"/></g></g></svg>