<svg xmlns="http://www.w3.org/2000/svg" xmlns:svg="http://www.w3.org/2000/svg" xmlns:xlink="http://www.w3.org/1999/xlink" id="svg11300" width="400" height="300" display="inline" enable-background="new" version="1.0"><title id="title3004">Suru Icon Theme Template</title><defs id="defs3"><clipPath id="clipPath9430" clipPathUnits="userSpaceOnUse"><path id="path9432" fill="#fff" fill-opacity="1" fill-rule="nonzero" stroke="none" stroke-width="1" d="m 166.0625,-196 h 179.875 C 491.2348,-196 512,-175.28677 512,-30.125 v 148.25 C 512,263.28618 491.2348,284 345.9375,284 H 166.0625 C 20.7652,284 0,263.28618 0,118.125 V -30.125 C 0,-175.28677 20.7652,-196 166.0625,-196 Z" color="#000" display="inline" enable-background="new" overflow="visible" visibility="visible" style="marker:none"/></clipPath><clipPath id="clipPath1082" clipPathUnits="userSpaceOnUse"><path id="path1084" fill="#8c59d9" fill-opacity="1" stroke="none" stroke-dasharray="none" stroke-dashoffset="0" stroke-linecap="round" stroke-linejoin="round" stroke-miterlimit="4" stroke-opacity="1" stroke-width="2" d="M 361.9375,-212 C 507.2348,-212 528,-191.28677 528,-46.125 V 70.125 C 528,215.28618 507.2348,236 361.9375,236 H 214.0625 C 68.7652,236 48,215.28618 48,70.125 V -46.125 C 48,-191.28677 68.7652,-212 214.0625,-212 Z" display="inline" enable-background="new" opacity="1"/></clipPath><filter id="filter4346" width="1.026" height="1.022" x="-.013" y="-.011" color-interpolation-filters="sRGB"><feGaussianBlur id="feGaussianBlur4348" stdDeviation="2.12"/></filter><linearGradient id="linearGradient4358" x1="88" x2="488" y1="88" y2="488" gradientUnits="userSpaceOnUse" xlink:href="#linearGradient4360"/><linearGradient id="linearGradient4360"><stop id="stop4362" offset="0" stop-color="#000" stop-opacity=".588"/><stop id="stop4366" offset="1" stop-color="#000" stop-opacity=".206"/></linearGradient><filter id="filter4380" width="1.106" height="1.088" x="-.053" y="-.044" color-interpolation-filters="sRGB"><feGaussianBlur id="feGaussianBlur4382" stdDeviation="8.48"/></filter><linearGradient id="linearGradient927"><stop id="stop923" offset="0" stop-color="#fff" stop-opacity="1"/><stop id="stop933" offset=".125" stop-color="#fff" stop-opacity=".098"/><stop id="stop931" offset=".925" stop-color="#fff" stop-opacity=".098"/><stop id="stop925" offset="1" stop-color="#fff" stop-opacity=".498"/></linearGradient><clipPath id="clipPath994" clipPathUnits="userSpaceOnUse"><path id="path996" fill="#cdcdcd" fill-opacity="1" fill-rule="nonzero" stroke="none" stroke-dasharray="none" stroke-miterlimit="4" stroke-opacity="1" stroke-width="2" d="m 335.73108,62 c -8.82418,0 -9.77365,0.90635 -9.7304,9.74838 V 84 96.25162 c -0.0433,8.84203 0.90622,9.74838 9.7304,9.74838 h 16.53919 c 8.82418,0 9.7304,-0.90625 9.7304,-9.74838 V 84 71.74838 C 362.00067,62.90625 361.09445,62 352.27027,62 Z" color="#000" display="inline" enable-background="accumulate" overflow="visible" visibility="visible" style="marker:none"/></clipPath><linearGradient id="linearGradient1004" x1="344" x2="344" y1="62" y2="106" gradientUnits="userSpaceOnUse" xlink:href="#linearGradient927"/><clipPath id="clipPath959" clipPathUnits="userSpaceOnUse"><path id="path961" fill="#46a926" fill-opacity="1" fill-rule="nonzero" stroke="none" stroke-dasharray="none" stroke-miterlimit="4" stroke-opacity="1" stroke-width="2" d="m 330.1929,133.99999 c -5.61538,0 -6.21958,0.57678 -6.19206,6.20352 v 7.79648 7.79648 c -0.0276,5.62673 0.57668,6.20351 6.19206,6.20351 h 11.615 c 5.6154,0 6.19208,-0.5767 6.19208,-6.20351 v -7.79648 -7.79648 c 0,-5.6268 -0.5767,-6.20352 -6.19208,-6.20352 z" color="#000" display="inline" enable-background="accumulate" opacity="1" overflow="visible" visibility="visible" style="marker:none"/></clipPath><clipPath id="clipPath971" clipPathUnits="userSpaceOnUse"><path id="path973" fill="#46a926" fill-opacity="1" fill-rule="nonzero" stroke="none" stroke-dasharray="none" stroke-miterlimit="4" stroke-opacity="1" stroke-width="2" d="m 327.8652,189 c -4.41209,0 -4.88682,0.45318 -4.8652,4.87419 V 200 206.12581 C 322.9783,210.54682 323.45311,211 327.8652,211 h 8.2696 C 340.54689,211 341,210.54688 341,206.12581 V 200 193.87419 C 341,189.45313 340.54688,189 336.13479,189 Z" color="#000" display="inline" enable-background="accumulate" opacity="1" overflow="visible" visibility="visible" style="marker:none"/></clipPath><linearGradient id="linearGradient981" x1="332" x2="332" y1="189" y2="211" gradientUnits="userSpaceOnUse" xlink:href="#linearGradient927"/><clipPath id="clipPath983" clipPathUnits="userSpaceOnUse"><path id="path985" fill="#46a926" fill-opacity="1" fill-rule="nonzero" stroke="none" stroke-dasharray="none" stroke-miterlimit="4" stroke-opacity="1" stroke-width="2" d="m 325.09646,237 c -2.80769,0 -3.10979,0.28839 -3.09603,3.10176 V 244 v 3.89824 c -0.0138,2.81337 0.28834,3.10176 3.09603,3.10176 h 5.8075 C 333.71166,251 334,250.71165 334,247.89824 V 244 240.10176 C 334,237.28836 333.71165,237 330.90396,237 Z" color="#000" display="inline" enable-background="accumulate" opacity="1" overflow="visible" visibility="visible" style="marker:none"/></clipPath><linearGradient id="linearGradient993" x1="328" x2="328" y1="237" y2="251" gradientUnits="userSpaceOnUse" xlink:href="#linearGradient927"/><linearGradient id="linearGradient4336-3"><stop id="stop4338-8" offset="0" stop-color="#5884f4" stop-opacity="1"/><stop id="stop4344-3" offset=".278" stop-color="#5884f4" stop-opacity="1"/><stop id="stop4346-3" offset=".278" stop-color="#2f5fdd" stop-opacity="1"/><stop id="stop4350-1" offset=".707" stop-color="#2f5fdd" stop-opacity="1"/><stop id="stop4348-6" offset=".709" stop-color="#234db8" stop-opacity="1"/><stop id="stop4340-0" offset="1" stop-color="#234db8" stop-opacity="1"/></linearGradient><linearGradient id="linearGradient1004-8" x1="344" x2="344" y1="62" y2="106" gradientUnits="userSpaceOnUse" xlink:href="#linearGradient927"/><clipPath id="clipPath994-1" clipPathUnits="userSpaceOnUse"><path id="path996-8" fill="#cdcdcd" fill-opacity="1" fill-rule="nonzero" stroke="none" stroke-dasharray="none" stroke-miterlimit="4" stroke-opacity="1" stroke-width="2" d="m 335.73108,62 c -8.82418,0 -9.77365,0.90635 -9.7304,9.74838 V 84 96.25162 c -0.0433,8.84203 0.90622,9.74838 9.7304,9.74838 h 16.53919 c 8.82418,0 9.7304,-0.90625 9.7304,-9.74838 V 84 71.74838 C 362.00067,62.90625 361.09445,62 352.27027,62 Z" color="#000" display="inline" enable-background="accumulate" overflow="visible" visibility="visible" style="marker:none"/></clipPath><linearGradient id="linearGradient3797-5"><stop id="stop3801" offset="0" stop-color="#f7f7f7" stop-opacity="1"/><stop id="stop3799" offset="1" stop-color="#e6e6e6" stop-opacity="1"/></linearGradient><linearGradient id="linearGradient1686" x1="321.5" x2="366.5" y1="84" y2="84" gradientTransform="rotate(90,344.00003,84.000121)" gradientUnits="userSpaceOnUse" xlink:href="#linearGradient916"/><linearGradient id="linearGradient1688" x1="321.5" x2="350.5" y1="148" y2="148" gradientTransform="rotate(90,336.00002,148)" gradientUnits="userSpaceOnUse" xlink:href="#linearGradient916"/><linearGradient id="linearGradient1690" x1="321.498" x2="342.5" y1="200" y2="200" gradientTransform="rotate(90,331.99929,199.99999)" gradientUnits="userSpaceOnUse" xlink:href="#linearGradient916"/><linearGradient id="linearGradient1692" x1="320.5" x2="335.5" y1="244" y2="244" gradientTransform="rotate(90,328.00032,244.00001)" gradientUnits="userSpaceOnUse" xlink:href="#linearGradient916"/><linearGradient id="linearGradient1694" x1="39.997" x2="263.997" y1="156" y2="156" gradientTransform="rotate(90,151.9973,155.9997)" gradientUnits="userSpaceOnUse" xlink:href="#linearGradient916"/><linearGradient id="linearGradient916"><stop id="stop912" offset="0" stop-color="#2f5fdd" stop-opacity="1"/><stop id="stop914" offset="1" stop-color="#5884f4" stop-opacity="1"/></linearGradient></defs><metadata id="metadata4"/><g id="layer1" display="inline"><g id="layer7" display="none"><text enable-background="new" style="line-height:0%;-inkscape-font-specification:'DejaVu Sans'" id="context" x="19.007" y="-8.255" fill="#000" fill-opacity="1" stroke="none" display="inline" font-family="DejaVu Sans" font-stretch="normal" font-style="normal" font-variant="normal" font-weight="normal" xml:space="preserve"><tspan id="tspan3933" x="19.007" y="-8.255" font-family="DejaVu Sans" font-size="18" font-stretch="normal" font-style="normal" font-variant="normal" font-weight="normal" style="line-height:1.25;-inkscape-font-specification:'DejaVu Sans'">categories</tspan></text><text id="icon-name" x="146.488" y="-8.255" fill="#000" fill-opacity="1" stroke="none" display="inline" enable-background="new" font-family="DejaVu Sans" font-stretch="normal" font-style="normal" font-variant="normal" font-weight="bold" text-anchor="start" writing-mode="lr-tb" xml:space="preserve" style="line-height:0%;-inkscape-font-specification:'DejaVu Sans Bold';text-align:start"><tspan id="tspan3937" x="146.488" y="-8.255" font-family="DejaVu Sans" font-size="18" font-stretch="normal" font-style="normal" font-variant="normal" font-weight="bold" style="line-height:1.25;-inkscape-font-specification:'DejaVu Sans Bold'">preferences-desktop-accessibility</tspan></text><rect id="rect16x16" width="16" height="16" x="320" y="236" fill="#cdcdcd" fill-opacity="1" fill-rule="nonzero" stroke="none" stroke-width="2" display="inline" enable-background="accumulate" overflow="visible" visibility="visible" style="marker:none"/><rect id="rect24x24" width="24" height="24" x="320" y="188" fill="#cdcdcd" fill-opacity="1" fill-rule="nonzero" stroke="none" stroke-width="2" display="inline" enable-background="accumulate" overflow="visible" visibility="visible" style="marker:none"/><rect id="rect32x32" width="32" height="32" x="320" y="132" fill="#cdcdcd" fill-opacity="1" fill-rule="nonzero" stroke="none" stroke-width="2" display="inline" enable-background="accumulate" overflow="visible" visibility="visible" style="marker:none"/><rect id="rect48x48" width="48" height="48" x="320" y="60" fill="#cdcdcd" fill-opacity="1" fill-rule="nonzero" stroke="none" stroke-width="2" display="inline" enable-background="accumulate" overflow="visible" visibility="visible" style="marker:none"/><rect id="rect3951" width="256" height="256" x="24" y="28" fill="#cdcdcd" fill-opacity="1" fill-rule="nonzero" stroke="none" stroke-width="2" display="inline" enable-background="accumulate" overflow="visible" visibility="visible" style="marker:none"/></g><g id="layer8" display="inline"><path id="path995" fill="#000" fill-opacity="1" fill-rule="nonzero" stroke="none" stroke-dasharray="none" stroke-dashoffset="0" stroke-linecap="butt" stroke-linejoin="miter" stroke-miterlimit="4" stroke-opacity="1" stroke-width="2" d="m 327.24566,189 c -1.28811,0 -2.31744,0.0231 -3.20954,0.14787 -0.8921,0.12479 -1.70209,0.37148 -2.31114,0.87784 -0.60904,0.50637 -0.90937,1.18534 -1.05787,1.92977 -0.14848,0.74444 -0.17251,1.60204 -0.1662,2.67847 v 5.86605 5.86979 c -0.006,1.07433 0.0179,1.93132 0.1662,2.67473 0.14848,0.74444 0.44882,1.4234 1.05787,1.92977 0.60906,0.50636 1.41904,0.75304 2.31114,0.87784 0.8921,0.12479 1.92143,0.14787 3.20954,0.14787 h 9.5096 c 1.2881,0 2.31444,-0.023 3.20505,-0.14787 0.89059,-0.1249 1.70195,-0.37305 2.30889,-0.87972 0.60695,-0.50666 0.9038,-1.18295 1.05337,-1.92602 0.14958,-0.74308 0.17744,-1.60101 0.17744,-2.6766 V 200.5 194.63021 c 0,-1.07559 -0.0278,-1.93352 -0.17744,-2.6766 -0.14957,-0.74307 -0.44642,-1.41936 -1.05337,-1.92602 -0.60694,-0.50667 -1.41828,-0.75482 -2.30889,-0.87972 C 339.06969,189.02297 338.04337,189 336.75526,189 Z" baseline-shift="baseline" clip-rule="nonzero" color="#000" color-interpolation="sRGB" color-interpolation-filters="linearRGB" color-rendering="auto" direction="ltr" display="inline" dominant-baseline="auto" enable-background="accumulate" font-family="sans-serif" font-size="medium" font-stretch="normal" font-style="normal" font-variant="normal" font-weight="normal" image-rendering="auto" letter-spacing="normal" opacity=".1" overflow="visible" shape-rendering="auto" text-anchor="start" text-decoration="none" text-rendering="auto" vector-effect="none" visibility="visible" word-spacing="normal" writing-mode="lr-tb" style="line-height:normal;font-variant-ligatures:normal;font-variant-position:normal;font-variant-caps:normal;font-variant-numeric:normal;font-variant-alternates:normal;font-feature-settings:normal;text-indent:0;text-align:start;text-decoration-line:none;text-decoration-style:solid;text-decoration-color:#000;text-transform:none;text-orientation:mixed;white-space:normal;shape-padding:0;isolation:auto;mix-blend-mode:normal;solid-color:#000;solid-opacity:1;marker:none"/><path id="path997" fill="#000" fill-opacity="1" fill-rule="nonzero" stroke="none" stroke-dasharray="none" stroke-dashoffset="0" stroke-linecap="butt" stroke-linejoin="miter" stroke-miterlimit="4" stroke-opacity="1" stroke-width="2" d="m 324.68125,237 c -0.82173,0 -1.48777,0.0139 -2.09812,0.10352 -0.61037,0.0897 -1.22087,0.27628 -1.68744,0.68359 -0.46657,0.4073 -0.68177,0.94323 -0.78345,1.47851 -0.10171,0.53529 -0.11564,1.12048 -0.11165,1.8418 V 244 v 3.89844 c -0.003,0.71816 0.0103,1.30235 0.11165,1.83594 0.10171,0.53528 0.31687,1.07121 0.78345,1.47851 0.46657,0.40731 1.07707,0.59394 1.68744,0.68359 0.61035,0.0897 1.27639,0.10352 2.09812,0.10352 h 6.63813 c 0.82173,0 1.48632,-0.0137 2.0959,-0.10352 0.60958,-0.0898 1.22015,-0.27792 1.6852,-0.68554 0.46504,-0.40762 0.67887,-0.94271 0.78121,-1.47656 C 335.98409,249.20052 336,248.61887 336,247.89844 V 244 241.10156 c 0,-0.72043 -0.016,-1.30208 -0.11831,-1.83594 -0.10228,-0.53385 -0.31617,-1.06894 -0.78121,-1.47656 -0.46505,-0.40762 -1.07562,-0.59578 -1.6852,-0.68554 C 332.8057,237.01375 332.14111,237 331.31938,237 Z" baseline-shift="baseline" clip-rule="nonzero" color="#000" color-interpolation="sRGB" color-interpolation-filters="linearRGB" color-rendering="auto" direction="ltr" display="inline" dominant-baseline="auto" enable-background="accumulate" font-family="sans-serif" font-size="medium" font-stretch="normal" font-style="normal" font-variant="normal" font-weight="normal" image-rendering="auto" letter-spacing="normal" opacity=".1" overflow="visible" shape-rendering="auto" text-anchor="start" text-decoration="none" text-rendering="auto" vector-effect="none" visibility="visible" word-spacing="normal" writing-mode="lr-tb" style="line-height:normal;font-variant-ligatures:normal;font-variant-position:normal;font-variant-caps:normal;font-variant-numeric:normal;font-variant-alternates:normal;font-feature-settings:normal;text-indent:0;text-align:start;text-decoration-line:none;text-decoration-style:solid;text-decoration-color:#000;text-transform:none;text-orientation:mixed;white-space:normal;shape-padding:0;isolation:auto;mix-blend-mode:normal;solid-color:#000;solid-opacity:1;marker:none"/><path id="path999" fill="#000" fill-opacity="1" fill-rule="nonzero" stroke="none" stroke-dasharray="none" stroke-dashoffset="0" stroke-linecap="butt" stroke-linejoin="miter" stroke-miterlimit="4" stroke-opacity="1" stroke-width="2" d="m 329.07753,134 c -1.69415,0 -3.03886,0.0308 -4.1799,0.19141 -1.14103,0.16064 -2.13588,0.4726 -2.87586,1.09179 -0.73998,0.61919 -1.11652,1.45612 -1.30636,2.41407 -0.18986,0.95795 -0.22255,2.08705 -0.21424,3.51171 V 149 v 7.79688 c -0.009,1.42131 0.0247,2.5495 0.21424,3.50585 0.18984,0.95796 0.56638,1.79488 1.30636,2.41407 0.73998,0.61919 1.73483,0.93115 2.87586,1.09179 1.14104,0.16065 2.48575,0.19141 4.1799,0.19141 h 13.8484 c 1.69415,0 3.03631,-0.0307 4.17524,-0.19141 1.13893,-0.16075 2.13151,-0.47425 2.86888,-1.09375 0.73736,-0.6195 1.1104,-1.45363 1.30169,-2.41015 0.19132,-0.95653 0.22822,-2.08403 0.22822,-3.50781 V 149 141.20312 c 0,-1.42378 -0.037,-2.55128 -0.22822,-3.50781 -0.19129,-0.95653 -0.56433,-1.79065 -1.30169,-2.41015 -0.73737,-0.61951 -1.72995,-0.933 -2.86888,-1.09375 C 345.96224,134.03065 344.62008,134 342.92593,134 Z" baseline-shift="baseline" clip-rule="nonzero" color="#000" color-interpolation="sRGB" color-interpolation-filters="linearRGB" color-rendering="auto" direction="ltr" display="inline" dominant-baseline="auto" enable-background="accumulate" font-family="sans-serif" font-size="medium" font-stretch="normal" font-style="normal" font-variant="normal" font-weight="normal" image-rendering="auto" letter-spacing="normal" opacity=".1" overflow="visible" shape-rendering="auto" text-anchor="start" text-decoration="none" text-rendering="auto" vector-effect="none" visibility="visible" word-spacing="normal" writing-mode="lr-tb" style="line-height:normal;font-variant-ligatures:normal;font-variant-position:normal;font-variant-caps:normal;font-variant-numeric:normal;font-variant-alternates:normal;font-feature-settings:normal;text-indent:0;text-align:start;text-decoration-line:none;text-decoration-style:solid;text-decoration-color:#000;text-transform:none;text-orientation:mixed;white-space:normal;shape-padding:0;isolation:auto;mix-blend-mode:normal;solid-color:#000;solid-opacity:1;marker:none"/><path id="path1020" fill="#000" fill-opacity="1" fill-rule="nonzero" stroke="none" stroke-dasharray="none" stroke-dashoffset="0" stroke-linecap="butt" stroke-linejoin="miter" stroke-miterlimit="4" stroke-opacity="1" stroke-width="2" d="m 333.43292,61.500047 c -2.6791,0 -4.78864,0.05118 -6.52443,0.292969 -1.7358,0.241784 -3.15619,0.695299 -4.19664,1.55664 -1.04044,0.861342 -1.58959,2.039471 -1.87824,3.480469 -0.28866,1.440999 -0.34501,3.195341 -0.33188,5.423828 V 85 97.752143 c -0.013,2.225063 0.0435,3.978517 0.33188,5.417967 0.28865,1.441 0.8378,2.61913 1.87824,3.48047 1.04045,0.86134 2.46084,1.31486 4.19664,1.55664 1.73581,0.24179 3.84533,0.29297 6.52443,0.29297 h 21.13588 c 2.67913,0 4.78754,-0.0511 6.51976,-0.29297 1.73219,-0.24189 3.14824,-0.69694 4.18485,-1.55859 1.03662,-0.86165 1.58252,-2.03894 1.87353,-3.47852 0.29102,-1.43957 0.35305,-3.190353 0.35305,-5.417967 V 85 72.248094 c 0,-2.227614 -0.0621,-3.978392 -0.35305,-5.417969 -0.29101,-1.439576 -0.83692,-2.616863 -1.87354,-3.478516 -1.03661,-0.861652 -2.45266,-1.316704 -4.18486,-1.558593 -1.7322,-0.24189 -3.84063,-0.292969 -6.51974,-0.292969 z" baseline-shift="baseline" clip-rule="nonzero" color="#000" color-interpolation="sRGB" color-interpolation-filters="linearRGB" color-rendering="auto" direction="ltr" display="inline" dominant-baseline="auto" enable-background="accumulate" font-family="sans-serif" font-size="medium" font-stretch="normal" font-style="normal" font-variant="normal" font-weight="normal" image-rendering="auto" letter-spacing="normal" opacity=".1" overflow="visible" shape-rendering="auto" text-anchor="start" text-decoration="none" text-rendering="auto" vector-effect="none" visibility="visible" word-spacing="normal" writing-mode="lr-tb" style="line-height:normal;font-variant-ligatures:normal;font-variant-position:normal;font-variant-caps:normal;font-variant-numeric:normal;font-variant-alternates:normal;font-feature-settings:normal;text-indent:0;text-align:start;text-decoration-line:none;text-decoration-style:solid;text-decoration-color:#000;text-transform:none;text-orientation:mixed;white-space:normal;shape-padding:0;isolation:auto;mix-blend-mode:normal;solid-color:#000;solid-opacity:1;marker:none"/><path id="rect4158-9" fill="#000" fill-opacity="1" fill-rule="nonzero" stroke="none" stroke-width="2" d="M 141.84323,74 C 71.24979,74 63.65402,81.250835 64,151.98706 V 298 444.01294 C 63.65402,514.74917 71.24979,522 141.84323,522 H 434.15677 C 504.75021,522 513.9371,514.72348 512,444.01294 V 298 151.98706 C 512,81.249993 504.75021,74 434.15677,74 Z" color="#000" display="inline" enable-background="accumulate" filter="url(#filter4346)" opacity=".1" overflow="visible" transform="matrix(0.5,0,0,0.5,8,7.9996982)" visibility="visible" style="marker:none"/><path id="path4350" fill="url(#linearGradient4358)" fill-opacity="1" fill-rule="nonzero" stroke="none" stroke-width="2" d="M 141.84323,74 C 71.24979,74 63.65402,81.250835 64,151.98706 V 298 444.01294 C 63.65402,514.74917 71.24979,522 141.84323,522 H 434.15677 C 504.75021,522 513.9371,514.72348 512,444.01294 V 298 151.98706 C 512,81.249993 504.75021,74 434.15677,74 Z" color="#000" display="inline" enable-background="accumulate" filter="url(#filter4380)" opacity=".3" overflow="visible" transform="matrix(0.5,0,0,0.5,8,8)" visibility="visible" style="marker:none"/><path id="rect4158-7" fill="#000" fill-opacity="1" fill-rule="nonzero" stroke="none" stroke-width="1.02" d="m 77.8116,41.999698 c -36.098811,0 -39.983003,3.69016 -39.806081,39.68984 v 74.310162 74.31016 c -0.176922,35.99969 3.70727,39.68984 39.806081,39.68984 h 148.38732 c 36.09881,0 40.77464,-3.70276 39.80608,-39.68984 V 155.9997 81.689538 c 0,-36.00011 -3.70727,-39.68984 -39.80608,-39.68984 z" color="#000" display="inline" enable-background="accumulate" opacity=".1" overflow="visible" visibility="visible" style="marker:none"/><path id="path964" fill="url(#linearGradient1686)" fill-opacity="1" fill-rule="nonzero" stroke="none" stroke-width="1" d="m 333.33517,61.500049 c -10.01116,0 -11.88667,0.90635 -11.83407,9.74838 v 12.75157 12.75181 c -0.0527,8.842031 1.82291,9.748381 11.83407,9.748381 h 21.3308 c 10.00866,0 11.83405,-0.90625 11.83405,-9.748381 v -12.75181 -12.75157 c 0,-8.84213 -1.82539,-9.74838 -11.83406,-9.74838 z" color="#000" display="inline" enable-background="accumulate" overflow="visible" visibility="visible" style="marker:none"/><path id="rect4158" fill="url(#linearGradient1694)" fill-opacity="1" fill-rule="nonzero" stroke="none" stroke-width="1" d="m 225.07297,43.999694 c 35.29673,0 39.09461,3.62542 38.92162,38.99353 v 73.006466 73.00648 c 0.17299,35.36812 -3.62489,38.99353 -38.92162,38.99353 H 78.916218 c -35.29671,0 -38.92161,-3.625 -38.92161,-38.99353 V 155.99969 82.993224 c 0,-35.36853 3.6249,-38.99353 38.92161,-38.99353 z" color="#000" display="inline" enable-background="accumulate" overflow="visible" visibility="visible" style="marker:none"/><path id="path914" fill="url(#linearGradient1690)" fill-opacity="1" fill-rule="nonzero" stroke="none" stroke-width="1" d="m 327.17649,189.49897 c -5.14666,0 -5.70043,0.43262 -5.67521,4.65309 v 5.84793 5.84794 c -0.0253,4.22046 0.52855,4.65308 5.67521,4.65308 h 9.6464 c 5.14665,0 5.67521,-0.43256 5.67521,-4.65308 v -5.84794 -5.84793 c 0,-4.22051 -0.52857,-4.65309 -5.67522,-4.65309 z" color="#000" display="inline" enable-background="accumulate" overflow="visible" visibility="visible" style="marker:none"/><path id="path918" fill="url(#linearGradient1692)" fill-opacity="1" fill-rule="nonzero" stroke="none" stroke-width="1" d="m 324.4056,236.50001 c -3.47604,0 -3.85006,0.30899 -3.83302,3.32331 v 4.17669 4.17668 c -0.017,3.01433 0.35698,3.32332 3.83302,3.32332 h 7.18996 c 3.47605,0 3.83303,-0.30895 3.83303,-3.32332 v -4.17668 -4.17669 c 0,-3.01436 -0.35699,-3.32331 -3.83303,-3.32331 z" color="#000" display="inline" enable-background="accumulate" overflow="visible" visibility="visible" style="marker:none"/><path id="path964-7" fill="url(#linearGradient1688)" fill-opacity="1" fill-rule="nonzero" stroke="none" stroke-width="1" d="m 329.12711,133.5 c -6.45163,0 -7.6603,0.58409 -7.62639,6.28227 v 8.21765 8.21781 c -0.034,5.69818 1.17476,6.28227 7.62639,6.28227 h 13.74651 c 6.45003,0 7.62639,-0.58403 7.62639,-6.28227 v -8.21781 -8.21765 c 0,-5.69824 -1.17636,-6.28227 -7.62639,-6.28227 z" color="#000" display="inline" enable-background="accumulate" overflow="visible" visibility="visible" style="marker:none"/><path id="rect4158-5" fill="#fff" fill-opacity="1" fill-rule="nonzero" stroke="none" stroke-width="1" d="m 39.994141,156 v 8 65.00586 C 39.994141,264.37439 43.619306,268 78.916016,268 H 225.07227 c 35.29673,0 39.09486,-3.62602 38.92187,-38.99414 V 164 156 Z" color="#000" display="inline" enable-background="accumulate" opacity=".05" overflow="visible" visibility="visible" style="marker:none"/></g><g id="layer6" display="inline"><path id="path4525" fill="#faf8f6" fill-opacity="1" stroke="none" stroke-width="1" d="m 152,72.0019 c -46.34565,0 -84,37.65498 -84,83.99806 0,46.34307 37.65435,83.99804 84,83.99804 46.34564,0 84,-37.65497 84,-83.99804 0,-46.34308 -37.65436,-83.99806 -84,-83.99806 z m 0,7.996094 c 42.01956,0 76,33.979836 76,76.001966 0,42.02213 -33.98044,76.00194 -76,76.00194 -42.01957,0 -76,-33.97981 -76,-76.00194 0,-42.02213 33.98043,-76.001966 76,-76.001966 z m -0.002,20.003906 a 16,16 0 0 0 -16.00001,16 16,16 0 0 0 16.00001,16.00001 16,16 0 0 0 16,-16.00001 16,16 0 0 0 -16,-16 z m -47.99996,40.00001 v 8 l 9.91797,0.0156 c 4.16942,-4e-5 7.71221,0.6015 10.62892,1.87891 2.86507,1.19041 5.21497,2.94566 6.9414,5.24219 1.76905,2.20337 2.99745,4.85456 3.6875,7.89061 0.69475,3.05702 0.79505,6.28531 1.00781,9.69922 l 0.004,0.0469 -0.0743,39.22656 h 7.88672 v -28 c 0,-4.41827 3.58172,-8 8,-8 4.41828,0 8,3.58173 8,8 v 28 h 8 l 0.0742,-39.17968 c 0.007,-3.53983 0.33676,-6.8059 1.01562,-9.79297 0.69118,-3.04108 1.92156,-5.69683 3.69532,-7.90235 1.72652,-2.29138 4.07562,-4.04619 6.9375,-5.23437 2.91528,-1.27518 7.04264,-1.875 10.62109,-1.875 h 9.65627 v -8.01562 z" display="inline" enable-background="new" font-family="Ubuntu" font-size="15" font-stretch="normal" font-style="normal" font-variant="normal" font-weight="normal" letter-spacing="0" text-anchor="middle" word-spacing="0" writing-mode="lr-tb" style="line-height:125%;-inkscape-font-specification:Ubuntu;text-align:center"/><path id="path894" fill="#faf8f6" fill-opacity="1" stroke="none" stroke-width=".25" d="m 343.99805,70.0019 c -2.20914,0 -4,1.790861 -4,4 0,2.209139 1.79086,4 4,4 2.20914,0 4,-1.790861 4,-4 0,-2.209139 -1.79086,-4 -4,-4 z m -12,10 v 2 l 2.4795,0.004 c 1.04235,-1e-5 1.92805,0.15038 2.65722,0.46973 0.71627,0.2976 1.30375,0.73641 1.73535,1.31055 0.44227,0.55084 0.74937,1.21364 0.92188,1.97265 0.17369,0.76426 0.19876,1.57133 0.25195,2.42481 l 9.8e-4,0.0117 -0.0185,9.80664 h 1.97168 v -7 c 0,-1.10457 0.89543,-2 2,-2 1.10457,0 2,0.89543 2,2 v 7 h 2 l 0.0186,-9.79493 c 0.002,-0.88495 0.0842,-1.70147 0.2539,-2.44824 0.1728,-0.76027 0.48039,-1.42421 0.92383,-1.97558 0.43163,-0.57285 1.01891,-1.01155 1.73438,-1.3086 0.72882,-0.31879 1.76066,-0.46875 2.65527,-0.46875 h 2.41407 v -2.0039 z" display="inline" enable-background="new" font-family="Ubuntu" font-size="15" font-stretch="normal" font-style="normal" font-variant="normal" font-weight="normal" letter-spacing="0" text-anchor="middle" word-spacing="0" writing-mode="lr-tb" style="line-height:125%;-inkscape-font-specification:Ubuntu;text-align:center"/><path id="path896" fill="#faf8f6" fill-opacity="1" stroke="none" stroke-width=".125" d="m 331.99802,193.00201 c -1.10456,0 -1.99999,0.89543 -1.99999,1.99998 0,1.10457 0.89543,2 1.99999,2 1.10457,0 1.99999,-0.89543 1.99999,-2 0,-1.10455 -0.89542,-1.99998 -1.99999,-1.99998 z m -5.99997,4.99997 v 1 l 1.23974,0.002 c 0.52118,-1e-5 0.96402,0.0752 1.32861,0.23486 0.35813,0.14879 0.65187,0.3682 0.86767,0.65527 0.22113,0.27541 0.37468,0.60682 0.46094,0.98632 0.0868,0.38212 0.0994,0.78566 0.12597,1.2124 l 4.9e-4,0.006 -0.009,4.9033 h 0.98584 v -3.49998 c 0,-0.55229 0.44771,-1 0.99999,-1 0.55228,0 1,0.44771 1,1 v 3.49998 h 0.99999 l 0.009,-4.89744 c 10e-4,-0.44248 0.0421,-0.85073 0.12695,-1.22412 0.0864,-0.38013 0.2402,-0.7121 0.46192,-0.98778 0.21581,-0.28643 0.50945,-0.50577 0.86718,-0.6543 0.36441,-0.15939 0.88033,-0.23437 1.32763,-0.23437 h 1.20708 v -1.00195 z" display="inline" enable-background="new" font-family="Ubuntu" font-size="15" font-stretch="normal" font-style="normal" font-variant="normal" font-weight="normal" letter-spacing="0" text-anchor="middle" word-spacing="0" writing-mode="lr-tb" style="line-height:125%;-inkscape-font-specification:Ubuntu;text-align:center"/><path id="path935-3" fill="#faf8f6" fill-opacity="1" stroke="none" stroke-width=".125" d="m 335.99802,140.00201 c -1.10456,0 -1.99999,0.89543 -1.99999,1.99998 0,1.10457 0.89543,2 1.99999,2 1.10457,0 1.99999,-0.89543 1.99999,-2 0,-1.10455 -0.89542,-1.99998 -1.99999,-1.99998 z m -6.998,4.99793 v 1 l 2.23777,0.004 c 0.52118,-1e-5 0.96402,0.0752 1.32861,0.23486 0.35813,0.14879 0.65187,0.3682 0.86767,0.65527 0.22113,0.27541 0.37468,0.60682 0.46094,0.98632 0.0868,0.38212 0.0994,0.78566 0.12597,1.2124 l 4.9e-4,0.006 -0.009,6.9033 h 0.98584 v -4.00215 c 0,-0.55229 0.44771,-1 0.99999,-1 0.55228,0 1,0.44771 1,1 v 4.00215 h 0.99999 l 0.009,-6.89744 c 10e-4,-0.44248 0.0421,-0.85073 0.12695,-1.22412 0.0864,-0.38013 0.2402,-0.7121 0.46192,-0.98778 0.21581,-0.28643 0.50945,-0.50577 0.86718,-0.6543 0.36441,-0.15939 0.88033,-0.23437 1.32763,-0.23437 l 2.20905,-0.002 v -1.00195 z" display="inline" enable-background="new" font-family="Ubuntu" font-size="15" font-stretch="normal" font-style="normal" font-variant="normal" font-weight="normal" letter-spacing="0" text-anchor="middle" word-spacing="0" writing-mode="lr-tb" style="line-height:125%;-inkscape-font-specification:Ubuntu;text-align:center"/><path id="path896-6" fill="#faf8f6" fill-opacity="1" stroke="none" stroke-width=".125" d="m 327.99997,238.12194 c -1.10456,0 -1.99999,0.89543 -1.99999,1.99998 0,1.10457 0.89543,2 1.99999,2 1.10457,0 1.99999,-0.89543 1.99999,-2 0,-1.10455 -0.89542,-1.99998 -1.99999,-1.99998 z M 322,243.12191 v 1 l 1.23974,0.002 c 0.52118,-1e-5 0.96402,0.0752 1.32861,0.23486 0.35813,0.14879 0.65187,0.3682 0.86767,0.65527 0.22113,0.27541 0.37468,0.60682 0.46094,0.98632 0.0868,0.38212 0.0994,0.78566 0.12597,1.2124 l 4.9e-4,0.006 -0.009,2.9033 h 0.98584 v -1.49998 c 0,-0.55229 0.44771,-1 0.99999,-1 0.55228,0 1,0.44771 1,1 v 1.49998 h 0.99999 l 0.009,-2.89744 c 0.001,-0.44248 0.0421,-0.85073 0.12695,-1.22412 0.0864,-0.38013 0.2402,-0.7121 0.46192,-0.98778 0.21581,-0.28643 0.50945,-0.50577 0.86718,-0.6543 0.36441,-0.15939 0.88033,-0.23437 1.32763,-0.23437 H 334 v -1.00195 z" display="inline" enable-background="new" font-family="Ubuntu" font-size="15" font-stretch="normal" font-style="normal" font-variant="normal" font-weight="normal" letter-spacing="0" text-anchor="middle" word-spacing="0" writing-mode="lr-tb" style="line-height:125%;-inkscape-font-specification:Ubuntu;text-align:center"/></g><g id="layer4" display="inline"><path id="path931" fill="#fff" fill-opacity="1" fill-rule="nonzero" stroke="none" stroke-width="1" d="m 78.92188,43.999698 c -35.296728,0 -39.09487,3.62603 -38.92188,38.99414 v 2 c -0.17299,-35.36811 3.625152,-38.99414 38.92188,-38.99414 h 146.15624 c 35.29673,0 38.92188,3.62561 38.92188,38.99414 v -2 c 0,-35.36853 -3.62515,-38.99414 -38.92188,-38.99414 z" color="#000" display="inline" enable-background="accumulate" opacity=".3" overflow="visible" visibility="visible" style="marker:none"/><path id="path931-8" fill="#000" fill-opacity="1" fill-rule="nonzero" stroke="none" stroke-width="1" d="m 78.92728,267.9997 c -35.296731,0 -39.094875,-3.62603 -38.921885,-38.99414 v -2 c -0.17299,35.36811 3.625154,38.99414 38.921885,38.99414 h 146.15624 c 35.29673,0 38.92188,-3.62561 38.92188,-38.99414 v 2 c 0,35.36853 -3.62515,38.99414 -38.92188,38.99414 z" color="#000" display="inline" enable-background="accumulate" opacity=".2" overflow="visible" visibility="visible" style="marker:none"/><path id="path958" fill="none" fill-opacity="1" fill-rule="nonzero" stroke="#000" stroke-dasharray="none" stroke-miterlimit="4" stroke-opacity="1" stroke-width="1" d="m 333.33517,61.500047 c -10.01116,0 -11.88667,0.90635 -11.83407,9.74838 V 84 96.75181 c -0.0527,8.84203 1.82291,9.74838 11.83407,9.74838 h 21.3308 c 10.00866,0 11.83405,-0.90625 11.83405,-9.74838 V 84 71.248427 c 0,-8.84213 -1.82539,-9.74838 -11.83406,-9.74838 z" color="#000" display="inline" enable-background="accumulate" opacity=".4" overflow="visible" visibility="visible" style="marker:none"/><path id="path990" fill="none" fill-opacity="1" fill-rule="nonzero" stroke="url(#linearGradient1004)" stroke-dasharray="none" stroke-miterlimit="4" stroke-opacity="1" stroke-width="1.814" d="m 335.73108,62 c -8.82418,0 -9.77365,0.90635 -9.7304,9.74838 V 84 96.25162 c -0.0433,8.84203 0.90622,9.74838 9.7304,9.74838 h 16.53919 c 8.82418,0 9.7304,-0.90625 9.7304,-9.74838 V 84 71.74838 C 362.00067,62.90625 361.09445,62 352.27027,62 Z" clip-path="url(#clipPath994)" color="#000" display="inline" enable-background="accumulate" opacity=".7" overflow="visible" transform="matrix(1.2161948,0,0,1,-74.371693,0)" visibility="visible" style="marker:none"/><path id="path958-1" fill="none" fill-opacity="1" fill-rule="nonzero" stroke="#000" stroke-dasharray="none" stroke-miterlimit="4" stroke-opacity="1" stroke-width="1" d="m 329.12711,133.5 c -6.45163,0 -7.6603,0.58409 -7.62639,6.28227 v 8.21765 8.21781 c -0.034,5.69818 1.17476,6.28227 7.62639,6.28227 h 13.74651 c 6.45003,0 7.62639,-0.58403 7.62639,-6.28227 v -8.21781 -8.21765 c 0,-5.69824 -1.17636,-6.28227 -7.62639,-6.28227 z" color="#000" display="inline" enable-background="accumulate" opacity=".4" overflow="visible" visibility="visible" style="marker:none"/><path id="path990-8" fill="none" fill-opacity="1" fill-rule="nonzero" stroke="url(#linearGradient1004-8)" stroke-dasharray="none" stroke-miterlimit="4" stroke-opacity="1" stroke-width="2.851" d="m 335.73108,62 c -8.82418,0 -9.77365,0.90635 -9.7304,9.74838 V 84 96.25162 c -0.0433,8.84203 0.90622,9.74838 9.7304,9.74838 h 16.53919 c 8.82418,0 9.7304,-0.90625 9.7304,-9.74838 V 84 71.74838 C 362.00067,62.90625 361.09445,62 352.27027,62 Z" clip-path="url(#clipPath994-1)" color="#000" display="inline" enable-background="accumulate" opacity=".7" overflow="visible" transform="matrix(0.7733047,0,0,0.63636364,69.98319,94.545454)" visibility="visible" style="marker:none"/><path id="path935" fill="none" fill-opacity="1" fill-rule="nonzero" stroke="url(#linearGradient981)" stroke-dasharray="none" stroke-miterlimit="4" stroke-opacity="1" stroke-width="1.991" d="m 327.8652,189 c -4.41209,0 -4.88682,0.45318 -4.8652,4.87419 V 200 206.12581 C 322.9783,210.54682 323.45311,211 327.8652,211 h 8.2696 C 340.54689,211 341,210.54688 341,206.12581 V 200 193.87419 C 341,189.45313 340.54688,189 336.13479,189 Z" clip-path="url(#clipPath971)" color="#000" display="inline" enable-background="accumulate" opacity=".7" overflow="visible" transform="matrix(1.1051369,0,0,0.91313222,-34.905388,17.373548)" visibility="visible" style="marker:none"/><path id="path958-6" fill="none" fill-opacity="1" fill-rule="nonzero" stroke="#000" stroke-dasharray="none" stroke-miterlimit="4" stroke-opacity="1" stroke-width=".977" d="m 336.98249,210.51174 c 4.67709,0 5.5533,-0.42343 5.52872,-4.55431 v -5.95736 -5.95749 c 0.0245,-4.13088 -0.85163,-4.55431 -5.52872,-4.55431 H 327.017 c -4.67593,0 -5.52873,0.42338 -5.52873,4.55431 v 5.95749 5.95736 c 0,4.13093 0.8528,4.55431 5.52873,4.55431 z" color="#000" display="inline" enable-background="accumulate" opacity=".4" overflow="visible" visibility="visible" style="marker:none"/><path id="path937" fill="none" fill-opacity="1" fill-rule="nonzero" stroke="url(#linearGradient993)" stroke-dasharray="none" stroke-miterlimit="4" stroke-opacity="1" stroke-width="1.871" d="m 325.09646,237 c -2.80769,0 -3.10979,0.28839 -3.09603,3.10176 V 244 v 3.89824 c -0.0138,2.81337 0.28834,3.10176 3.09603,3.10176 h 5.8075 C 333.71166,251 334,250.71165 334,247.89824 V 244 240.10176 C 334,237.28836 333.71165,237 330.90396,237 Z" clip-path="url(#clipPath983)" color="#000" display="inline" enable-background="accumulate" opacity=".7" overflow="visible" transform="matrix(1.1428116,0,0,1,-46.841891,-4.4414902e-6)" visibility="visible" style="marker:none"/><path id="path958-6-0" fill="none" fill-opacity="1" fill-rule="nonzero" stroke="#000" stroke-dasharray="none" stroke-miterlimit="4" stroke-opacity="1" stroke-width=".977" d="m 331.52755,251.51174 c 3.31109,0 3.93139,-0.30259 3.91399,-3.25454 v -4.25716 -4.25724 c 0.0174,-2.95195 -0.6029,-3.25453 -3.91399,-3.25453 h -7.05493 c -3.31027,0 -3.914,0.30255 -3.914,3.25453 v 4.25724 4.25716 c 0,2.95199 0.60373,3.25454 3.914,3.25454 z" color="#000" display="inline" enable-background="accumulate" opacity=".4" overflow="visible" visibility="visible" style="marker:none"/></g></g></svg>