<svg xmlns="http://www.w3.org/2000/svg" xmlns:svg="http://www.w3.org/2000/svg" xmlns:xlink="http://www.w3.org/1999/xlink" id="svg11300" width="400" height="300" display="inline" enable-background="new" version="1.0"><title id="title3004">Suru Icon Theme Template</title><defs id="defs3"><linearGradient id="linearGradient15024"><stop id="stop15020" offset="0" stop-color="#000" stop-opacity="1"/><stop id="stop15022" offset="1" stop-color="#000" stop-opacity="0"/></linearGradient><linearGradient id="linearGradient1674"><stop id="stop1670" offset="0" stop-color="#fb7c38" stop-opacity="1"/><stop id="stop1672" offset="1" stop-color="#9b33ae" stop-opacity="1"/></linearGradient><clipPath id="clipPath9430" clipPathUnits="userSpaceOnUse"><path id="path9432" fill="#fff" fill-opacity="1" fill-rule="nonzero" stroke="none" stroke-width="1" d="m 166.0625,-196 h 179.875 C 491.2348,-196 512,-175.28677 512,-30.125 v 148.25 C 512,263.28618 491.2348,284 345.9375,284 H 166.0625 C 20.7652,284 0,263.28618 0,118.125 V -30.125 C 0,-175.28677 20.7652,-196 166.0625,-196 Z" color="#000" display="inline" enable-background="new" overflow="visible" visibility="visible" style="marker:none"/></clipPath><clipPath id="clipPath1082" clipPathUnits="userSpaceOnUse"><path id="path1084" fill="#8c59d9" fill-opacity="1" stroke="none" stroke-dasharray="none" stroke-dashoffset="0" stroke-linecap="round" stroke-linejoin="round" stroke-miterlimit="4" stroke-opacity="1" stroke-width="2" d="M 361.9375,-212 C 507.2348,-212 528,-191.28677 528,-46.125 V 70.125 C 528,215.28618 507.2348,236 361.9375,236 H 214.0625 C 68.7652,236 48,215.28618 48,70.125 V -46.125 C 48,-191.28677 68.7652,-212 214.0625,-212 Z" display="inline" enable-background="new" opacity="1"/></clipPath><filter id="filter4346" width="1.026" height="1.022" x="-.013" y="-.011" color-interpolation-filters="sRGB"><feGaussianBlur id="feGaussianBlur4348" stdDeviation="2.12"/></filter><linearGradient id="linearGradient4226" x1="529.655" x2="-35.31" y1="401.584" y2="119.093" gradientTransform="matrix(0.453125,0,0,0.45311204,39.9973,46.0403)" gradientUnits="userSpaceOnUse" xlink:href="#linearGradient1674"/><clipPath id="clipPath994" clipPathUnits="userSpaceOnUse"><path id="path996" fill="#cdcdcd" fill-opacity="1" fill-rule="nonzero" stroke="none" stroke-dasharray="none" stroke-miterlimit="4" stroke-opacity="1" stroke-width="2" d="m 335.73108,62 c -8.82418,0 -9.77365,0.90635 -9.7304,9.74838 V 84 96.25162 c -0.0433,8.84203 0.90622,9.74838 9.7304,9.74838 h 16.53919 c 8.82418,0 9.7304,-0.90625 9.7304,-9.74838 V 84 71.74838 C 362.00067,62.90625 361.09445,62 352.27027,62 Z" color="#000" display="inline" enable-background="accumulate" overflow="visible" visibility="visible" style="marker:none"/></clipPath><linearGradient id="linearGradient927"><stop id="stop923" offset="0" stop-color="#fff" stop-opacity="1"/><stop id="stop933" offset=".125" stop-color="#fff" stop-opacity=".098"/><stop id="stop931" offset=".925" stop-color="#fff" stop-opacity=".098"/><stop id="stop925" offset="1" stop-color="#fff" stop-opacity=".498"/></linearGradient><clipPath id="clipPath971" clipPathUnits="userSpaceOnUse"><path id="path973" fill="#46a926" fill-opacity="1" fill-rule="nonzero" stroke="none" stroke-dasharray="none" stroke-miterlimit="4" stroke-opacity="1" stroke-width="2" d="m 327.8652,189 c -4.41209,0 -4.88682,0.45318 -4.8652,4.87419 V 200 206.12581 C 322.9783,210.54682 323.45311,211 327.8652,211 h 8.2696 C 340.54689,211 341,210.54688 341,206.12581 V 200 193.87419 C 341,189.45313 340.54688,189 336.13479,189 Z" color="#000" display="inline" enable-background="accumulate" opacity="1" overflow="visible" visibility="visible" style="marker:none"/></clipPath><clipPath id="clipPath983" clipPathUnits="userSpaceOnUse"><path id="path985" fill="#46a926" fill-opacity="1" fill-rule="nonzero" stroke="none" stroke-dasharray="none" stroke-miterlimit="4" stroke-opacity="1" stroke-width="2" d="m 325.09646,237 c -2.80769,0 -3.10979,0.28839 -3.09603,3.10176 V 244 v 3.89824 c -0.0138,2.81337 0.28834,3.10176 3.09603,3.10176 h 5.8075 C 333.71166,251 334,250.71165 334,247.89824 V 244 240.10176 C 334,237.28836 333.71165,237 330.90396,237 Z" color="#000" display="inline" enable-background="accumulate" opacity="1" overflow="visible" visibility="visible" style="marker:none"/></clipPath><clipPath id="clipPath959" clipPathUnits="userSpaceOnUse"><path id="path961" fill="#46a926" fill-opacity="1" fill-rule="nonzero" stroke="none" stroke-dasharray="none" stroke-miterlimit="4" stroke-opacity="1" stroke-width="2" d="m 330.1929,133.99999 c -5.61538,0 -6.21958,0.57678 -6.19206,6.20352 v 7.79648 7.79648 c -0.0276,5.62673 0.57668,6.20351 6.19206,6.20351 h 11.615 c 5.6154,0 6.19208,-0.5767 6.19208,-6.20351 v -7.79648 -7.79648 c 0,-5.6268 -0.5767,-6.20352 -6.19208,-6.20352 z" color="#000" display="inline" enable-background="accumulate" opacity="1" overflow="visible" visibility="visible" style="marker:none"/></clipPath><linearGradient id="linearGradient4338-3-3"><stop id="stop4340-0-1" offset="0" stop-color="#281d2c" stop-opacity="1"/><stop id="stop4342-7-0" offset="1" stop-color="#331d3b" stop-opacity="1"/></linearGradient><clipPath id="clipPath1101" clipPathUnits="userSpaceOnUse"><path id="path1103" fill="url(#linearGradient1105)" fill-opacity="1" fill-rule="nonzero" stroke="none" stroke-width="1" d="m 39.9973,106.92432 c 0,-35.29673 3.625418,-39.09461 38.99353,-38.92162 h 73.00647 73.00647 c 35.36812,-0.17299 38.99353,3.62489 38.99353,38.92162 v 98.15676 c 0,35.29672 -3.625,38.92162 -38.99353,38.92162 H 151.9973 78.99083 c -35.368533,0 -38.99353,-3.6249 -38.99353,-38.92162 z" color="#000" display="inline" enable-background="accumulate" overflow="visible" visibility="visible" style="marker:none"/></clipPath><linearGradient id="linearGradient1105" x1="529.655" x2="-35.31" y1="401.584" y2="119.093" gradientTransform="matrix(-0.453125,0,0,0.45311204,263.9973,30.0403)" gradientUnits="userSpaceOnUse" xlink:href="#linearGradient4338-3-3"/><linearGradient id="linearGradient4338-3"><stop id="stop4342-7" offset="0" stop-color="#a7a7f1" stop-opacity="1"/><stop id="stop4340-0" offset="1" stop-color="#8c59d9" stop-opacity="1"/></linearGradient><clipPath id="clipPath934" clipPathUnits="userSpaceOnUse"><path id="path936" fill="#cdcdcd" fill-opacity="1" fill-rule="nonzero" stroke="none" stroke-dasharray="none" stroke-miterlimit="4" stroke-opacity="1" stroke-width="2" d="m 335.73108,61.999999 c -8.82418,0 -9.77365,0.90635 -9.7304,9.74838 v 12.25162 l 0,12.25162 C 325.95738,105.09365 326.9069,106 335.73108,106 h 18.53919 c 8.82418,0 9.7304,-0.90625 9.7304,-9.748381 v -12.25162 -12.25162 c 0,-8.84213 -0.90622,-9.74838 -9.7304,-9.74838 z" color="#000" display="inline" enable-background="accumulate" overflow="visible" visibility="visible" style="marker:none"/></clipPath><clipPath id="clipPath942" clipPathUnits="userSpaceOnUse"><path id="path944" fill="url(#linearGradient946)" fill-opacity="1" fill-rule="nonzero" stroke="none" stroke-width="1" d="m 39.998047,108 v 113.08203 c 0,35.29672 3.623657,38.91992 38.992187,38.91992 h 73.007816 73.00586 c 35.36853,0 38.99414,-3.6232 38.99414,-38.91992 V 108 Z" color="#000" display="inline" enable-background="accumulate" overflow="visible" visibility="visible" style="marker:none"/></clipPath><linearGradient id="linearGradient946" x1="529.655" x2="-35.31" y1="401.584" y2="119.093" gradientTransform="matrix(0.453125,0,0,0.45311204,39.9973,46.0403)" gradientUnits="userSpaceOnUse" xlink:href="#linearGradient4338-3"/><filter id="filter965" width="1.045" height="1.052" x="-.022" y="-.026" color-interpolation-filters="sRGB"><feGaussianBlur id="feGaussianBlur967" stdDeviation="4.16"/></filter><radialGradient id="radialGradient15026" cx="200" cy="131.998" r="31.997" fx="200" fy="131.998" gradientTransform="matrix(1,0,0,1.0000752,0,-0.00752081)" gradientUnits="userSpaceOnUse" xlink:href="#linearGradient15024"/><filter id="filter15084" width="1.288" height="1.288" x="-.144" y="-.144" color-interpolation-filters="sRGB"><feGaussianBlur id="feGaussianBlur15086" stdDeviation="3.84"/></filter><linearGradient id="linearGradient1004" x1="344" x2="344" y1="66.001" y2="102.001" gradientTransform="rotate(-90,344,84)" gradientUnits="userSpaceOnUse" xlink:href="#linearGradient927"/><clipPath id="clipPath994-3" clipPathUnits="userSpaceOnUse"><path id="path996-7" fill="#cdcdcd" fill-opacity="1" fill-rule="nonzero" stroke="none" stroke-dasharray="none" stroke-miterlimit="4" stroke-opacity="1" stroke-width="2" d="m 335.73108,62 c -8.82418,0 -9.77365,0.90635 -9.7304,9.74838 V 84 96.25162 c -0.0433,8.84203 0.90622,9.74838 9.7304,9.74838 h 16.53919 c 8.82418,0 9.7304,-0.90625 9.7304,-9.74838 V 84 71.74838 C 362.00067,62.90625 361.09445,62 352.27027,62 Z" color="#000" display="inline" enable-background="accumulate" overflow="visible" visibility="visible" style="marker:none"/></clipPath><linearGradient id="linearGradient1004-8" x1="344" x2="344" y1="65.144" y2="102.857" gradientTransform="matrix(0,-1.04758,0.95458104,0,263.81519,444.36752)" gradientUnits="userSpaceOnUse" xlink:href="#linearGradient927"/><clipPath id="clipPath994-1" clipPathUnits="userSpaceOnUse"><path id="path996-8" fill="#cdcdcd" fill-opacity="1" fill-rule="nonzero" stroke="none" stroke-dasharray="none" stroke-miterlimit="4" stroke-opacity="1" stroke-width="2" d="m 335.73108,62 c -8.82418,0 -9.77365,0.90635 -9.7304,9.74838 V 84 96.25162 c -0.0433,8.84203 0.90622,9.74838 9.7304,9.74838 h 16.53919 c 8.82418,0 9.7304,-0.90625 9.7304,-9.74838 V 84 71.74838 C 362.00067,62.90625 361.09445,62 352.27027,62 Z" color="#000" display="inline" enable-background="accumulate" overflow="visible" visibility="visible" style="marker:none"/></clipPath><linearGradient id="linearGradient981-5" x1="332" x2="332" y1="191" y2="209" gradientTransform="rotate(-90,331.99966,200)" gradientUnits="userSpaceOnUse" xlink:href="#linearGradient927"/><clipPath id="clipPath971-9" clipPathUnits="userSpaceOnUse"><path id="path973-2" fill="#46a926" fill-opacity="1" fill-rule="nonzero" stroke="none" stroke-dasharray="none" stroke-miterlimit="4" stroke-opacity="1" stroke-width="2" d="m 327.8652,189 c -4.41209,0 -4.88682,0.45318 -4.8652,4.87419 V 200 206.12581 C 322.9783,210.54682 323.45311,211 327.8652,211 h 8.2696 C 340.54689,211 341,210.54688 341,206.12581 V 200 193.87419 C 341,189.45313 340.54688,189 336.13479,189 Z" color="#000" display="inline" enable-background="accumulate" opacity="1" overflow="visible" visibility="visible" style="marker:none"/></clipPath><linearGradient id="linearGradient993-2" x1="328" x2="328" y1="238" y2="250" gradientTransform="rotate(-90,328,244)" gradientUnits="userSpaceOnUse" xlink:href="#linearGradient927"/><clipPath id="clipPath983-8" clipPathUnits="userSpaceOnUse"><path id="path985-9" fill="#46a926" fill-opacity="1" fill-rule="nonzero" stroke="none" stroke-dasharray="none" stroke-miterlimit="4" stroke-opacity="1" stroke-width="2" d="m 325.09646,237 c -2.80769,0 -3.10979,0.28839 -3.09603,3.10176 V 244 v 3.89824 c -0.0138,2.81337 0.28834,3.10176 3.09603,3.10176 h 5.8075 C 333.71166,251 334,250.71165 334,247.89824 V 244 240.10176 C 334,237.28836 333.71165,237 330.90396,237 Z" color="#000" display="inline" enable-background="accumulate" opacity="1" overflow="visible" visibility="visible" style="marker:none"/></clipPath><clipPath id="clipPath983-7" clipPathUnits="userSpaceOnUse"><path id="path985-3" fill="#4d4d4d" fill-opacity="1" stroke="none" stroke-dasharray="none" stroke-dashoffset="0" stroke-linecap="round" stroke-linejoin="round" stroke-miterlimit="4" stroke-opacity="1" stroke-width="2" d="M 115.03125,44 C 42.3826,44 32,54.356615 32,126.9375 v 58.125 C 32,257.64309 42.3826,268 115.03125,268 H 152 V 44 Z" opacity="1"/></clipPath><clipPath id="clipPath16292" clipPathUnits="userSpaceOnUse"><path id="path16290" fill="#4d4d4d" fill-opacity="1" stroke="none" stroke-dasharray="none" stroke-dashoffset="0" stroke-linecap="round" stroke-linejoin="round" stroke-miterlimit="4" stroke-opacity="1" stroke-width="2" d="M 115.03125,44 C 42.3826,44 32,54.356615 32,126.9375 v 58.125 C 32,257.64309 42.3826,268 115.03125,268 H 152 V 44 Z" opacity="1"/></clipPath><linearGradient id="linearGradient16503" x1="320.795" x2="367.209" y1="99.18" y2="70.817" gradientTransform="matrix(-1,0,0,1,688.00194,0)" gradientUnits="userSpaceOnUse" xlink:href="#linearGradient1674"/><linearGradient id="linearGradient16511" x1="321.5" x2="350" y1="142.075" y2="153.513" gradientTransform="rotate(-180,336.0004,147.99973)" gradientUnits="userSpaceOnUse" xlink:href="#linearGradient1674"/><linearGradient id="linearGradient16527" x1="321.001" x2="343.448" y1="204.135" y2="195.084" gradientTransform="matrix(-1,0,0,1,664.00075,0)" gradientUnits="userSpaceOnUse" xlink:href="#linearGradient1674"/><linearGradient id="linearGradient16535" x1="320.489" x2="335.5" y1="247.087" y2="240.854" gradientTransform="matrix(-1,0,0,1,656.0008,0)" gradientUnits="userSpaceOnUse" xlink:href="#linearGradient1674"/></defs><metadata id="metadata4"/><g id="layer1" display="inline"><g id="layer7" display="none"><text enable-background="new" style="line-height:0%;-inkscape-font-specification:'DejaVu Sans'" id="context" x="19.007" y="-8.255" fill="#000" fill-opacity="1" stroke="none" display="inline" font-family="DejaVu Sans" font-stretch="normal" font-style="normal" font-variant="normal" font-weight="normal" xml:space="preserve"><tspan id="tspan3933" x="19.007" y="-8.255" font-family="DejaVu Sans" font-size="18" font-stretch="normal" font-style="normal" font-variant="normal" font-weight="normal" style="line-height:1.25;-inkscape-font-specification:'DejaVu Sans'">categories</tspan></text><text id="icon-name" x="146.488" y="-8.255" fill="#000" fill-opacity="1" stroke="none" display="inline" enable-background="new" font-family="DejaVu Sans" font-stretch="normal" font-style="normal" font-variant="normal" font-weight="bold" text-anchor="start" writing-mode="lr-tb" xml:space="preserve" style="line-height:0%;-inkscape-font-specification:'DejaVu Sans Bold';text-align:start"><tspan id="tspan924" x="146.488" y="-8.255" font-family="DejaVu Sans" font-size="18" font-stretch="normal" font-style="normal" font-variant="normal" font-weight="bold" style="line-height:1.25;-inkscape-font-specification:'DejaVu Sans Bold'">preferences-desktop-wallpaper</tspan></text><rect id="rect16x16" width="16" height="16" x="320" y="236" fill="#cdcdcd" fill-opacity="1" fill-rule="nonzero" stroke="none" stroke-width="2" display="inline" enable-background="accumulate" overflow="visible" visibility="visible" style="marker:none"/><rect id="rect24x24" width="24" height="24" x="320" y="188" fill="#cdcdcd" fill-opacity="1" fill-rule="nonzero" stroke="none" stroke-width="2" display="inline" enable-background="accumulate" overflow="visible" visibility="visible" style="marker:none"/><rect id="rect32x32" width="32" height="32" x="320" y="132" fill="#cdcdcd" fill-opacity="1" fill-rule="nonzero" stroke="none" stroke-width="2" display="inline" enable-background="accumulate" overflow="visible" visibility="visible" style="marker:none"/><rect id="rect48x48" width="48" height="48" x="320" y="60" fill="#cdcdcd" fill-opacity="1" fill-rule="nonzero" stroke="none" stroke-width="2" display="inline" enable-background="accumulate" overflow="visible" visibility="visible" style="marker:none"/><rect id="rect3951" width="256" height="256" x="24" y="28" fill="#cdcdcd" fill-opacity="1" fill-rule="nonzero" stroke="none" stroke-width="2" display="inline" enable-background="accumulate" overflow="visible" visibility="visible" style="marker:none"/></g><g id="layer4" display="inline"><path id="rect4158-9" fill="#000" fill-opacity="1" fill-rule="nonzero" stroke="none" stroke-width="2" d="M 189.84323,74 C 119.24979,74 111.65402,81.250835 112,151.98706 V 298 444.01294 C 111.65402,514.74917 119.24979,522 189.84323,522 H 418.15677 C 488.75021,522 494.0629,514.72348 496,444.01294 V 298 151.98706 C 496,81.249993 488.75021,74 418.15677,74 Z" color="#000" display="inline" enable-background="accumulate" filter="url(#filter4346)" opacity=".1" overflow="visible" transform="matrix(0,-0.5,0.5,0,2.9973021,316.9973)" visibility="visible" style="marker:none"/><path id="path4350" fill="#000" fill-opacity="1" fill-rule="nonzero" stroke="none" stroke-width="2" d="M 189.84323,74 C 119.24979,74 111.65402,81.250835 112,151.98706 V 298 444.01294 C 111.65402,514.74917 119.24979,522 189.84323,522 H 418.15677 C 488.75021,522 496,514.75001 496,444.01294 V 298 151.98706 C 496,81.249993 488.75021,74 418.15677,74 Z" color="#000" display="inline" enable-background="accumulate" filter="url(#filter965)" opacity=".2" overflow="visible" transform="matrix(0,0.5,0.5,0,2.9973021,13.00269)" visibility="visible" style="marker:none"/></g><g id="layer2" display="inline"><path id="rect4158" fill="url(#linearGradient4226)" fill-opacity="1" fill-rule="nonzero" stroke="none" stroke-width="1" d="M 78.990234 68.003906 C 43.622114 67.830928 39.998047 72.168606 39.998047 107.46289 L 39.998047 108 L 39.998047 109 L 39.998047 221.08203 C 39.998047 256.37875 43.621704 260.00195 78.990234 260.00195 L 151.99805 260.00195 L 225.00391 260.00195 C 260.37244 260.00195 263.99805 256.37875 263.99805 221.08203 L 263.99805 109 L 263.99805 108 L 263.99805 107.46289 C 263.99805 72.168606 260.37202 67.830928 225.00391 68.003906 L 151.99805 68.003906 L 78.990234 68.003906 z" color="#000" display="inline" enable-background="accumulate" overflow="visible" visibility="visible" style="marker:none"/><path id="path1056" fill="#000" fill-opacity="1" fill-rule="nonzero" stroke="none" stroke-width="1" d="m 39.998047,219.08203 v 2 c 0,35.29672 3.623654,38.91992 38.992187,38.91992 h 73.007816 73.00586 c 35.36853,0 38.99414,-3.6232 38.99414,-38.91992 v -2 c 0,35.29672 -3.62561,38.91992 -38.99414,38.91992 H 151.99805 78.990234 c -35.368533,0 -38.992187,-3.6232 -38.992187,-38.91992 z" color="#000" display="inline" enable-background="accumulate" opacity=".2" overflow="visible" visibility="visible" style="marker:none"/><path id="rect1767" fill="#000" fill-opacity="1" stroke="none" stroke-dasharray="none" stroke-dashoffset="0" stroke-linecap="butt" stroke-linejoin="miter" stroke-miterlimit="4" stroke-opacity="1" stroke-width="1" d="M 74.814453,68.003906 C 43.235773,67.830928 40,72.16861 40,107.46289 V 108 v 1 112.08203 c 0,35.29672 3.235408,38.91992 34.814453,38.91992 H 90 V 68.003906 Z" opacity=".3" vector-effect="none"/><path id="rect4158-0" fill="#5d5d5d" fill-opacity="1" fill-rule="nonzero" stroke="none" stroke-width="1" d="m 200.00391,68.003906 63.99414,63.994144 V 109 v -1 -0.53711 c 0,-35.294286 -3.62603,-39.631962 -38.99414,-39.458984 z" color="#000" display="inline" enable-background="accumulate" overflow="visible" visibility="visible" style="marker:none"/><path id="rect4158-0-3-6" fill="url(#radialGradient15026)" fill-opacity="1" fill-rule="nonzero" stroke="none" stroke-width="1" d="M 263.99805,131.99325 200.00391,67.9991 v 22.99805 1 0.53711 c 0,35.29429 3.62603,39.63197 38.99414,39.45899 z" color="#000" display="inline" enable-background="accumulate" filter="url(#filter15084)" overflow="visible" visibility="visible" style="marker:none"/><path id="rect4158-0-3" fill="#faf8f6" fill-opacity="1" fill-rule="nonzero" stroke="none" stroke-width="1" d="M 263.99805,131.99325 200.00391,67.9991 v 22.99805 1 0.53711 c 0,35.29429 3.62603,39.63197 38.99414,39.45899 z" color="#000" display="inline" enable-background="accumulate" overflow="visible" visibility="visible" style="marker:none"/><path id="path4609" fill="#f6f5f4" fill-opacity="1" stroke="none" stroke-dasharray="none" stroke-dashoffset="0" stroke-linecap="round" stroke-linejoin="round" stroke-miterlimit="4" stroke-opacity="1" stroke-width="2" d="m 325.59609,190.49972 c -1.96753,-0.01 -3.17821,0.0807 -3.92578,0.54102 -0.11794,0.14051 -0.22382,0.29315 -0.32031,0.45898 -0.19298,0.33166 -0.34617,0.71673 -0.46484,1.16211 -0.0593,0.22269 -0.11067,0.46061 -0.1543,0.71484 -0.0432,0.25175 -0.0777,0.51999 -0.10742,0.80469 -0.002,0.0224 -0.004,0.0477 -0.006,0.0703 -0.0263,0.26362 -0.0479,0.53892 -0.0645,0.83203 -0.0363,0.65597 -0.0527,1.37644 -0.0527,2.19141 v 5.44922 c 0,0.82368 0.0156,1.5535 0.0527,2.21484 0.0174,0.30195 0.0405,0.59079 0.0684,0.86133 0.0291,0.28225 0.0632,0.5469 0.10547,0.79688 8.4e-4,0.005 10e-4,0.0107 0.002,0.0156 0.0425,0.24952 0.0928,0.48198 0.15039,0.70117 9.6e-4,0.004 9.8e-4,0.008 0.002,0.0117 0.0586,0.22169 0.12716,0.42851 0.20312,0.6211 0.0745,0.18889 0.15703,0.3645 0.25,0.52734 0.003,0.006 0.006,0.0119 0.01,0.0176 0.0946,0.1635 0.1992,0.31415 0.31445,0.45312 0.74665,0.46459 1.96055,0.55469 3.9375,0.55469 h 6.40412 v -19 z" display="inline" enable-background="new" opacity="1"/><path id="path4614" fill="#f6f5f4" fill-opacity="1" stroke="none" stroke-dasharray="none" stroke-dashoffset="0" stroke-linecap="round" stroke-linejoin="round" stroke-miterlimit="4" stroke-opacity="1" stroke-width="2" d="m 323.82461,237.49972 c -1.76214,-0.009 -2.58644,0.11692 -2.97852,0.81641 -0.26839,0.76882 -0.3457,1.84558 -0.3457,3.36718 v 3.63282 c 0,4.53629 0.6489,5.18359 5.18945,5.18359 h 2.31055 v -13 z" display="inline" enable-background="new" opacity="1"/><path id="path995" fill="#000" fill-opacity="1" fill-rule="nonzero" stroke="none" stroke-dasharray="none" stroke-dashoffset="0" stroke-linecap="butt" stroke-linejoin="miter" stroke-miterlimit="4" stroke-opacity="1" stroke-width="2" d="m 344,196.86534 c 0,-1.12014 -0.0241,-2.01524 -0.1543,-2.79101 -0.13022,-0.77577 -0.38763,-1.48014 -0.91601,-2.00977 -0.52838,-0.52962 -1.23687,-0.79079 -2.01367,-0.91992 -0.77681,-0.12912 -1.67169,-0.15002 -2.79493,-0.14453 H 332 325.875 c -1.12104,-0.005 -2.01529,0.0156 -2.79102,0.14453 -0.77681,0.12912 -1.48529,0.39029 -2.01367,0.91992 -0.52838,0.52964 -0.78579,1.234 -0.91601,2.00977 C 320.02408,194.8501 320,195.7452 320,196.86534 v 8.26954 c 0,1.12013 0.024,2.01264 0.1543,2.78711 0.13033,0.77446 0.38927,1.48001 0.91797,2.00781 0.52869,0.5278 1.23438,0.78594 2.00976,0.91601 0.77539,0.13007 1.67062,0.1543 2.79297,0.1543 h 6.125 6.125 c 1.12235,0 2.01758,-0.0242 2.79297,-0.1543 0.77538,-0.13007 1.48107,-0.38821 2.00976,-0.91601 0.5287,-0.5278 0.78764,-1.23334 0.91797,-2.00781 0.13033,-0.77448 0.1543,-1.66697 0.1543,-2.78711 z" baseline-shift="baseline" clip-rule="nonzero" color="#000" color-interpolation="sRGB" color-interpolation-filters="linearRGB" color-rendering="auto" direction="ltr" display="inline" dominant-baseline="auto" enable-background="accumulate" font-family="sans-serif" font-size="medium" font-stretch="normal" font-style="normal" font-variant="normal" font-weight="normal" image-rendering="auto" letter-spacing="normal" opacity=".1" overflow="visible" shape-rendering="auto" text-anchor="start" text-decoration="none" text-rendering="auto" vector-effect="none" visibility="visible" word-spacing="normal" writing-mode="lr-tb" style="line-height:normal;font-variant-ligatures:normal;font-variant-position:normal;font-variant-caps:normal;font-variant-numeric:normal;font-variant-alternates:normal;font-feature-settings:normal;text-indent:0;text-align:start;text-decoration-line:none;text-decoration-style:solid;text-decoration-color:#000;text-transform:none;text-orientation:mixed;white-space:normal;shape-padding:0;isolation:auto;mix-blend-mode:normal;solid-color:#000;solid-opacity:1;marker:none"/><path id="path997" fill="#000" fill-opacity="1" fill-rule="nonzero" stroke="none" stroke-dasharray="none" stroke-dashoffset="0" stroke-linecap="butt" stroke-linejoin="miter" stroke-miterlimit="4" stroke-opacity="1" stroke-width="2" d="m 335.50011,241.5957 c 0,-0.71904 -0.0139,-1.30185 -0.10352,-1.83593 -0.0897,-0.53409 -0.27628,-1.0683 -0.68359,-1.47657 -0.4073,-0.40826 -0.94323,-0.59657 -1.47851,-0.68554 -0.53529,-0.089 -1.12048,-0.10119 -1.8418,-0.0977 h -2.89258 -3.89844 c -0.71816,-0.003 -1.30235,0.009 -1.83594,0.0977 -0.53528,0.089 -1.07121,0.27727 -1.47851,0.68554 -0.40731,0.40827 -0.59394,0.94248 -0.68359,1.47657 -0.0897,0.53408 -0.10352,1.11689 -0.10352,1.83593 v 5.8086 c 0,0.71904 0.0137,1.30058 0.10352,1.83398 0.0898,0.53341 0.27792,1.06768 0.68554,1.47461 0.40762,0.40693 0.94271,0.59404 1.47656,0.68359 0.53386,0.0896 1.11551,0.10352 1.83594,0.10352 h 3.89844 2.89844 c 0.72043,0 1.30208,-0.014 1.83594,-0.10352 0.53385,-0.0895 1.06894,-0.27666 1.47656,-0.68359 0.40762,-0.40693 0.59578,-0.9412 0.68554,-1.47461 0.0898,-0.5334 0.10352,-1.11494 0.10352,-1.83398 z" baseline-shift="baseline" clip-rule="nonzero" color="#000" color-interpolation="sRGB" color-interpolation-filters="linearRGB" color-rendering="auto" direction="ltr" display="inline" dominant-baseline="auto" enable-background="accumulate" font-family="sans-serif" font-size="medium" font-stretch="normal" font-style="normal" font-variant="normal" font-weight="normal" image-rendering="auto" letter-spacing="normal" opacity=".1" overflow="visible" shape-rendering="auto" text-anchor="start" text-decoration="none" text-rendering="auto" vector-effect="none" visibility="visible" word-spacing="normal" writing-mode="lr-tb" style="line-height:normal;font-variant-ligatures:normal;font-variant-position:normal;font-variant-caps:normal;font-variant-numeric:normal;font-variant-alternates:normal;font-feature-settings:normal;text-indent:0;text-align:start;text-decoration-line:none;text-decoration-style:solid;text-decoration-color:#000;text-transform:none;text-orientation:mixed;white-space:normal;shape-padding:0;isolation:auto;mix-blend-mode:normal;solid-color:#000;solid-opacity:1;marker:none"/><path id="path999-7" fill="#000" fill-opacity="1" fill-rule="nonzero" stroke="none" stroke-dasharray="none" stroke-dashoffset="0" stroke-linecap="butt" stroke-linejoin="miter" stroke-miterlimit="4" stroke-opacity="1" stroke-width="2" d="m 350.9999,143.19358 c 0,-1.42096 -0.0308,-2.54883 -0.19141,-3.50586 -0.16064,-0.95703 -0.4726,-1.79146 -1.09179,-2.41211 -0.61919,-0.62065 -1.45612,-0.93647 -2.41407,-1.0957 -0.95795,-0.15924 -2.08705,-0.18666 -3.51171,-0.17969 h -7.79102 -7.79688 c -1.42131,-0.007 -2.5495,0.0207 -3.50585,0.17969 -0.95796,0.15923 -1.79488,0.47505 -2.41407,1.0957 -0.61919,0.62065 -0.93115,1.45508 -1.09179,2.41211 -0.16065,0.95703 -0.19141,2.0849 -0.19141,3.50586 v 11.61523 c 0,1.42097 0.0307,2.54669 0.19141,3.50196 0.16075,0.95527 0.47425,1.78779 1.09375,2.40625 0.6195,0.61845 1.45363,0.93134 2.41015,1.09179 0.95653,0.16046 2.08403,0.19141 3.50781,0.19141 h 7.79688 7.79688 c 1.42378,0 2.55128,-0.031 3.50781,-0.19141 0.95653,-0.16045 1.79065,-0.47334 2.41015,-1.09179 0.61951,-0.61846 0.933,-1.45098 1.09375,-2.40625 0.16076,-0.95527 0.19141,-2.08099 0.19141,-3.50196 z" baseline-shift="baseline" clip-rule="nonzero" color="#000" color-interpolation="sRGB" color-interpolation-filters="linearRGB" color-rendering="auto" direction="ltr" display="inline" dominant-baseline="auto" enable-background="accumulate" font-family="sans-serif" font-size="medium" font-stretch="normal" font-style="normal" font-variant="normal" font-weight="normal" image-rendering="auto" letter-spacing="normal" opacity=".1" overflow="visible" shape-rendering="auto" text-anchor="start" text-decoration="none" text-rendering="auto" vector-effect="none" visibility="visible" word-spacing="normal" writing-mode="lr-tb" style="line-height:normal;font-variant-ligatures:normal;font-variant-position:normal;font-variant-caps:normal;font-variant-numeric:normal;font-variant-alternates:normal;font-feature-settings:normal;text-indent:0;text-align:start;text-decoration-line:none;text-decoration-style:solid;text-decoration-color:#000;text-transform:none;text-orientation:mixed;white-space:normal;shape-padding:0;isolation:auto;mix-blend-mode:normal;solid-color:#000;solid-opacity:1;marker:none"/><path id="path1020-3" fill="#000" fill-opacity="1" fill-rule="nonzero" stroke="none" stroke-dasharray="none" stroke-dashoffset="0" stroke-linecap="butt" stroke-linejoin="miter" stroke-miterlimit="4" stroke-opacity="1" stroke-width="2" d="m 367.50008,76.231153 c 0,-2.22316 -0.0512,-3.97368 -0.29297,-5.41406 -0.24178,-1.44039 -0.69529,-2.61905 -1.55664,-3.48243 -0.86134,-0.86337 -2.03947,-1.31906 -3.48046,-1.55859 -1.441,-0.23953 -3.19535,-0.28629 -5.42383,-0.27539 h -12.74605 -12.75214 c -2.22507,-0.0108 -3.97852,0.0361 -5.41797,0.27539 -1.441,0.23953 -2.61913,0.69522 -3.48047,1.55859 -0.86134,0.86338 -1.31486,2.04204 -1.55664,3.48243 -0.24179,1.44039 -0.29297,3.1909 -0.29297,5.41406 v 17.53883 c 0,2.22317 0.0511,3.97276 0.29297,5.41017 0.24189,1.437407 0.69694,2.612467 1.55859,3.472657 0.86165,0.8602 2.03894,1.31319 3.47852,1.55468 1.43957,0.24149 3.19035,0.29297 5.41797,0.29297 h 12.75214 12.75191 c 2.22761,0 3.97839,-0.0515 5.41797,-0.29297 1.43957,-0.24149 2.61686,-0.69449 3.47851,-1.55469 0.86165,-0.86019 1.31671,-2.03525 1.55859,-3.472657 0.24189,-1.4374 0.29297,-3.187 0.29297,-5.41016 z" baseline-shift="baseline" clip-rule="nonzero" color="#000" color-interpolation="sRGB" color-interpolation-filters="linearRGB" color-rendering="auto" direction="ltr" display="inline" dominant-baseline="auto" enable-background="accumulate" font-family="sans-serif" font-size="medium" font-stretch="normal" font-style="normal" font-variant="normal" font-weight="normal" image-rendering="auto" letter-spacing="normal" opacity=".1" overflow="visible" shape-rendering="auto" text-anchor="start" text-decoration="none" text-rendering="auto" vector-effect="none" visibility="visible" word-spacing="normal" writing-mode="lr-tb" style="line-height:normal;font-variant-ligatures:normal;font-variant-position:normal;font-variant-caps:normal;font-variant-numeric:normal;font-variant-alternates:normal;font-feature-settings:normal;text-indent:0;text-align:start;text-decoration-line:none;text-decoration-style:solid;text-decoration-color:#000;text-transform:none;text-orientation:mixed;white-space:normal;shape-padding:0;isolation:auto;mix-blend-mode:normal;solid-color:#000;solid-opacity:1;marker:none"/><path id="path964" fill="url(#linearGradient16503)" fill-opacity="1" fill-rule="nonzero" stroke="none" stroke-width="1" d="m 321.5009,75.230802 c 0,-8.23154 0.90635,-9.77365 9.74838,-9.7304 h 12.75157 12.75181 c 8.84203,-0.0433 9.74838,1.49886 9.74838,9.7304 v 17.53897 c 0,8.229498 -0.90625,9.730398 -9.74838,9.730398 h -12.75181 -12.75157 c -8.84213,0 -9.74838,-1.5009 -9.74838,-9.730408 z" color="#000" display="inline" enable-background="accumulate" overflow="visible" visibility="visible" style="marker:none"/><path id="path914-6" fill="url(#linearGradient16527)" fill-opacity="1" fill-rule="nonzero" stroke="none" stroke-width="1" d="m 320.50038,195.63572 c 0,-4.65703 0.47377,-5.15811 5.09574,-5.13529 h 6.40426 6.40425 c 4.62197,-0.0229 5.09574,0.47826 5.09574,5.13529 v 8.7287 c 0,4.65703 -0.47371,5.13529 -5.09574,5.13529 h -6.40425 -6.40426 c -4.62202,0 -5.09574,-0.47827 -5.09574,-5.1353 z" color="#000" display="inline" enable-background="accumulate" overflow="visible" visibility="visible" style="marker:none"/><path id="path918-1" fill="url(#linearGradient16535)" fill-opacity="1" fill-rule="nonzero" stroke="none" stroke-width="1" d="m 320.5004,240.85422 c 0,-3.04166 0.30899,-3.36894 3.32331,-3.35403 h 4.17669 4.17669 c 3.01432,-0.0149 3.32331,0.31237 3.32331,3.35403 v 6.29146 c 0,3.04167 -0.30895,3.35404 -3.32331,3.35404 h -4.17669 -4.17669 c -3.01435,0 -3.32331,-0.31238 -3.32331,-3.35404 z" color="#000" display="inline" enable-background="accumulate" overflow="visible" visibility="visible" style="marker:none"/><path id="path964-7" fill="url(#linearGradient16511)" fill-opacity="1" fill-rule="nonzero" stroke="none" stroke-width="1" d="m 321.5004,153.92466 c 0,5.56175 0.58409,6.6037 6.28227,6.57447 h 8.21765 8.21781 c 5.69818,0.0293 6.28227,-1.01272 6.28227,-6.57447 v -11.85044 c 0,-5.56037 -0.58403,-6.57447 -6.28227,-6.57447 h -8.21781 -8.21765 c -5.69824,0 -6.28227,1.0141 -6.28227,6.57447 z" color="#000" display="inline" enable-background="accumulate" overflow="visible" visibility="visible" style="marker:none"/><path id="rect1767-6" fill="#000" fill-opacity="1" stroke="none" stroke-dasharray="none" stroke-dashoffset="0" stroke-linecap="butt" stroke-linejoin="miter" stroke-miterlimit="4" stroke-opacity="1" stroke-width="1" d="m 330.67329,65.002585 c -1.97334,0.0018 -3.54481,0.052 -4.82954,0.289063 -1.30933,0.241603 -2.37671,0.693961 -3.16051,1.554687 -0.78408,0.861023 -1.19691,2.036652 -1.4169,3.474609 -0.0783,0.511876 -0.12862,1.080782 -0.16869,1.679688 C 321.02531,73.082296 321,74.300429 321,75.731101 v 16.538701 c 0,2.222843 0.0467,3.974743 0.26634,5.414063 0.21991,1.441098 0.63174,2.616715 1.41512,3.480465 0.78352,0.86391 1.85349,1.31896 3.16407,1.5586 1.30832,0.23922 2.90251,0.2882 4.9272,0.27734 H 331 V 65.002585 Z" display="inline" enable-background="new" opacity=".3" vector-effect="none"/><path id="rect1767-6-7" fill="#000" fill-opacity="1" stroke="none" stroke-dasharray="none" stroke-dashoffset="0" stroke-linecap="butt" stroke-linejoin="miter" stroke-miterlimit="4" stroke-opacity="1" stroke-width="1" d="m 327.36841,135.5 c -1.19716,0.001 -2.1505,0.0325 -2.92991,0.18067 -0.79432,0.151 -1.44186,0.43373 -1.91737,0.97169 -0.47566,0.53815 -0.72611,1.27292 -0.85958,2.17166 -0.0475,0.31993 -0.078,0.6755 -0.10232,1.04982 -0.0438,0.67605 -0.0593,1.43739 -0.0593,2.33158 v 11.58707 c 0,1.3893 0.0283,2.48425 0.16156,3.38384 0.13344,0.9007 0.38327,1.63547 0.85851,2.17532 0.47535,0.53995 1.12445,0.82436 1.91953,0.97414 0.79371,0.14951 1.76084,0.18013 2.98915,0.17334 l 0.57125,6.2e-4 V 135.5 Z" display="inline" enable-background="new" opacity=".3" vector-effect="none"/><path id="rect1767-6-7-6" fill="#000" fill-opacity="1" stroke="none" stroke-dasharray="none" stroke-dashoffset="0" stroke-linecap="butt" stroke-linejoin="miter" stroke-miterlimit="4" stroke-opacity="1" stroke-width="1" d="m 325.46561,190.5 c -1.01298,8.5e-4 -1.81967,0.0247 -2.47917,0.13731 -0.67211,0.11476 -1.22004,0.32963 -1.62239,0.73848 -0.40249,0.409 -0.61442,0.96743 -0.72734,1.65047 -0.0401,0.24314 -0.066,0.51337 -0.0866,0.79786 -0.0371,0.5138 -0.0501,1.09242 -0.0501,1.772 v 8.80617 c 0,1.05587 0.024,1.88803 0.13672,2.57172 0.11289,0.68453 0.3243,1.24296 0.72643,1.65324 0.40221,0.41037 0.95147,0.62652 1.62423,0.74035 0.6716,0.11363 1.48995,0.1369 2.52929,0.13174 l 0.48333,4.7e-4 V 190.5 Z" display="inline" enable-background="new" opacity=".3" vector-effect="none"/><path id="rect1767-6-7-6-6" fill="#000" fill-opacity="1" stroke="none" stroke-dasharray="none" stroke-dashoffset="0" stroke-linecap="butt" stroke-linejoin="miter" stroke-miterlimit="4" stroke-opacity="1" stroke-width="1" d="m 323.65995,237.5 c -0.64462,5.9e-4 -1.15797,0.0169 -1.57766,0.094 -0.42771,0.0785 -0.77639,0.22554 -1.03244,0.50528 -0.25613,0.27983 -0.39099,0.66192 -0.46286,1.12926 -0.0256,0.16636 -0.042,0.35126 -0.0551,0.54591 -0.0236,0.35154 -0.0319,0.74744 -0.0319,1.21242 v 6.02528 c 0,0.72243 0.0152,1.29181 0.087,1.75959 0.0718,0.46836 0.20638,0.85045 0.46229,1.13117 0.25595,0.28077 0.60548,0.42867 1.0336,0.50655 0.42739,0.0777 0.94816,0.0937 1.60956,0.0901 l 0.30758,3.2e-4 V 237.5 Z" display="inline" enable-background="new" opacity=".3" vector-effect="none"/><path id="rect4158-0-0" fill="#5d5d5d" fill-opacity="1" fill-rule="nonzero" stroke="none" stroke-width=".25" d="m 350.5,65.499402 16,16 v -5.269531 c 0,-1.430636 -0.0273,-2.648824 -0.10742,-3.730469 -0.0444,-0.598936 -0.10136,-1.167789 -0.1875,-1.679688 -0.24198,-1.43796 -0.69415,-2.613586 -1.55664,-3.474609 -0.86218,-0.860726 -2.03824,-1.313084 -3.47852,-1.554687 -1.42993,-0.239879 -2.96032,-0.291016 -5.41797,-0.291016 z" color="#000" display="inline" enable-background="accumulate" overflow="visible" visibility="visible" style="marker:none"/><path id="rect4158-0-0-8" fill="#000" fill-opacity="1" fill-rule="nonzero" stroke="none" stroke-width=".25" d="m 349.49989,66.000148 0.5,0.5 1.1e-4,5.747899 v 0.25 0.134765 c 0,8.824381 0.40719,9.410436 9.25,9.367188 h 6.24978 l 0.5,0.5 V 82 77.230469 c 0,-1.430636 -0.0273,-2.648824 -0.10742,-3.730469 -0.0444,-0.598936 -0.10136,-1.167789 -0.1875,-1.679688 -0.24198,-1.43796 -0.69426,-3.113438 -1.55675,-3.97446 -0.86218,-0.860726 -2.53802,-1.313084 -3.9783,-1.554687 -1.42993,-0.23988 -2.96032,-0.291017 -5.41797,-0.291017 h -4.75 -0.002 z" color="#000" display="inline" enable-background="accumulate" opacity=".3" overflow="visible" visibility="visible" style="marker:none"/><path id="rect4158-0-3-62" fill="#faf8f6" fill-opacity="1" fill-rule="nonzero" stroke="none" stroke-width=".25" d="M 366.5,81.000004 351,65.498804 v 5.75004 0.250023 0.13428 c 0,8.82438 0.4066,9.410096 9.24941,9.366848 z" color="#000" display="inline" enable-background="accumulate" overflow="visible" visibility="visible" style="marker:none"/><path id="rect4158-0-3-62-3-3" fill="#000" fill-opacity="1" fill-rule="nonzero" stroke="none" stroke-width=".188" d="M 337.875 136 L 337.875 140.8125 L 337.875 141 L 337.875 141.09961 C 337.875 147.7179 338.18039 148.15744 344.8125 148.125 L 350 148.125 L 350 137.57227 C 349.69523 136.82342 349.21983 136.31311 348.44727 136 L 337.875 136 z" color="#000" display="inline" enable-background="accumulate" opacity=".3" overflow="visible" visibility="visible" style="marker:none"/><path id="rect4158-0-0-5" fill="#5d5d5d" fill-opacity="1" fill-rule="nonzero" stroke="none" stroke-width=".188" d="M 338.5 135.5 L 350.5 147.5 L 350.5 142.07422 C 350.5 137.59379 350.11676 136.06735 346.98828 135.64258 C 346.79028 135.70373 346.61984 135.73853 346.50195 135.71875 C 345.4295 135.53885 344.28269 135.5 342.43945 135.5 L 338.5 135.5 z" color="#000" display="inline" enable-background="accumulate" overflow="visible" visibility="visible" style="marker:none"/><path id="rect4158-0-3-62-3" fill="#faf8f6" fill-opacity="1" fill-rule="nonzero" stroke="none" stroke-width=".188" d="m 350.5,147.12546 -11.625,-11.6259 v 4.31253 0.18751 0.10071 c 0,6.61829 0.30495,7.05758 6.93706,7.02514 z" color="#000" display="inline" enable-background="accumulate" overflow="visible" visibility="visible" style="marker:none"/><path id="rect4158-0-0-5-0" fill="#5d5d5d" fill-opacity="1" fill-rule="nonzero" stroke="none" stroke-width=".188" d="m 338.5,135.5 12,12 v -5.42578 c 0,-4.48043 -0.38324,-6.00687 -3.51172,-6.43164 -0.198,0.0611 -0.36844,0.0959 -0.48633,0.0762 -1.07245,-0.1799 -2.21926,-0.21875 -4.0625,-0.21875 z" color="#000" display="inline" enable-background="accumulate" overflow="visible" visibility="visible" style="marker:none"/><path id="rect4158-0-0-5-0-5" fill="#5d5d5d" fill-opacity="1" fill-rule="nonzero" stroke="none" stroke-width=".188" d="m 334.5,190.5 9,9 v -3.126 c 0,-4.48043 0.11648,-5.30665 -3.012,-5.73142 -1.5505,-0.0801 -1.04855,-0.14255 -1.04855,-0.14255 z" color="#000" display="inline" enable-background="accumulate" overflow="visible" visibility="visible" style="marker:none"/><path id="rect16756" fill="#000" fill-opacity="1" stroke="none" stroke-dasharray="none" stroke-dashoffset="0" stroke-linecap="butt" stroke-linejoin="round" stroke-miterlimit="4" stroke-opacity="1" stroke-width="8.001" d="M 335.3418 190.5 C 334.53265 191.03622 334 191.95249 334 193 L 334 197 C 334 198.662 335.338 200 337 200 L 341 200 C 342.04751 200 342.96378 199.46735 343.5 198.6582 L 343.5 195.63477 C 343.5 190.97774 343.02627 190.4771 338.4043 190.5 L 335.3418 190.5 z" opacity=".3" vector-effect="none" style="marker:none"/><path id="rect4158-0-0-5-0-5-5" fill="#faf8f6" fill-opacity="1" fill-rule="nonzero" stroke="none" stroke-width=".188" d="m 343.00056,199 -8,-8 v 2.126 c 0,4.48043 -0.11648,5.30665 3.012,5.73142 1.5505,0.0801 1.04855,0.14255 1.04855,0.14255 z" color="#000" display="inline" enable-background="accumulate" overflow="visible" visibility="visible" style="marker:none"/><path id="path918-1-4" fill="#000" fill-opacity="1" fill-rule="nonzero" stroke="none" stroke-width="1" d="m 327,237.5 v 5.5 c 0,1.662 1.338,3 3,3 h 5.5 v -5.14648 c 0,-3.04166 -0.30795,-3.36842 -3.32227,-3.35352 H 328 Z" color="#000" display="inline" enable-background="accumulate" opacity=".3" overflow="visible" visibility="visible" style="marker:none"/><path id="rect4158-0-0-5-0-5-6-4" fill="#faf8f6" fill-opacity="1" fill-rule="nonzero" stroke="none" stroke-width=".188" d="M 335.49972,244.963 328,237.5 v 1.126 c 0,5.36431 0.52032,6.1794 2.76495,6.339 1.5505,0.0801 1.79532,-0.002 1.79532,-0.002 z" color="#000" display="inline" enable-background="accumulate" overflow="visible" visibility="visible" style="marker:none"/><path id="rect4158-0-0-5-0-5-6" fill="#5d5d5d" fill-opacity="1" fill-rule="nonzero" stroke="none" stroke-width=".188" d="m 328,237.5 7.49972,7.5 v -1.626 c 0,-5.36431 -0.0206,-5.7164 -2.26523,-5.876 -1.5505,-0.0801 -1.79532,0.002 -1.79532,0.002 z" color="#000" display="inline" enable-background="accumulate" overflow="visible" visibility="visible" style="marker:none"/></g><g id="layer6" display="inline"><path id="path923" fill="#fff" fill-opacity="1" fill-rule="nonzero" stroke="none" stroke-width="1" d="M 78.990234 68.001953 C 43.622114 67.828963 39.998047 71.627098 39.998047 106.92383 L 39.998047 108.92383 C 39.998047 73.627098 43.622114 69.828963 78.990234 70.001953 L 151.99805 70.001953 L 225.00391 70.001953 C 260.37202 69.828963 263.99805 73.627098 263.99805 108.92383 L 263.99805 106.92383 C 263.99805 71.627098 260.37202 67.828963 225.00391 68.001953 L 151.99805 68.001953 L 78.990234 68.001953 z" color="#000" display="inline" enable-background="accumulate" opacity=".2" overflow="visible" visibility="visible" style="marker:none"/></g><g id="layer9" display="inline"><path id="path990" fill="none" fill-opacity="1" fill-rule="nonzero" stroke="url(#linearGradient1004)" stroke-dasharray="none" stroke-miterlimit="4" stroke-opacity="1" stroke-width="2" d="m 335.73108,62 c -8.82418,0 -9.77365,0.90635 -9.7304,9.74838 V 84 96.25162 c -0.0433,8.84203 0.90622,9.74838 9.7304,9.74838 h 16.53919 c 8.82418,0 9.7304,-0.90625 9.7304,-9.74838 V 84 71.74838 C 362.00067,62.90625 361.09445,62 352.27027,62 Z" clip-path="url(#clipPath994-3)" color="#000" display="inline" enable-background="accumulate" opacity=".5" overflow="visible" transform="rotate(90,344.00033,84.00006)" visibility="visible" style="marker:none"/><path id="path958-3" fill="none" fill-opacity="1" fill-rule="nonzero" stroke="#000" stroke-dasharray="none" stroke-miterlimit="4" stroke-opacity="1" stroke-width="1" d="m 366.50104,75.230802 c 0,-8.23154 -0.90635,-9.77365 -9.74838,-9.7304 h -12.75157 -12.75181 c -8.84203,-0.0433 -9.74838,1.49886 -9.74838,9.7304 v 17.53897 c 0,8.229498 0.90625,9.730398 9.74838,9.730398 h 12.75181 12.75157 c 8.84213,0 9.74838,-1.5009 9.74838,-9.730408 z" color="#000" display="inline" enable-background="accumulate" opacity=".4" overflow="visible" visibility="visible" style="marker:none"/><path id="path958-1" fill="none" fill-opacity="1" fill-rule="nonzero" stroke="#000" stroke-dasharray="none" stroke-miterlimit="4" stroke-opacity="1" stroke-width="1" d="m 350.5004,142.07481 c 0,-5.56175 -0.58409,-6.6037 -6.28227,-6.57447 h -8.21765 -8.21781 c -5.69818,-0.0293 -6.28227,1.01272 -6.28227,6.57447 v 11.85044 c 0,5.56037 0.58403,6.57447 6.28227,6.57447 h 8.21781 8.21765 c 5.69824,0 6.28227,-1.0141 6.28227,-6.57447 z" color="#000" display="inline" enable-background="accumulate" opacity=".4" overflow="visible" visibility="visible" style="marker:none"/><path id="path958-6" fill="none" fill-opacity="1" fill-rule="nonzero" stroke="#000" stroke-dasharray="none" stroke-miterlimit="4" stroke-opacity="1" stroke-width=".977" d="m 343.51211,195.49128 c 0,-4.23214 -0.46371,-5.02499 -4.98757,-5.00275 h -6.5241 -6.52423 c -4.52386,-0.0222 -4.98757,0.77061 -4.98757,5.00275 v 9.01743 c 0,4.23108 0.46366,5.00275 4.98757,5.00275 h 6.52423 6.5241 c 4.52391,0 4.98757,-0.77167 4.98757,-5.00275 z" color="#000" display="inline" enable-background="accumulate" opacity=".4" overflow="visible" visibility="visible" style="marker:none"/><path id="path958-6-0" fill="none" fill-opacity="1" fill-rule="nonzero" stroke="#000" stroke-dasharray="none" stroke-miterlimit="4" stroke-opacity="1" stroke-width=".977" d="m 335.51212,240.91327 c 0,-2.89732 -0.30259,-3.44011 -3.25454,-3.42488 h -4.25716 -4.25724 c -2.95195,-0.0152 -3.25453,0.52756 -3.25453,3.42488 v 6.17331 c 0,2.8966 0.30255,3.42488 3.25453,3.42488 h 4.25724 4.25716 c 2.95199,0 3.25454,-0.52828 3.25454,-3.42488 z" color="#000" display="inline" enable-background="accumulate" opacity=".4" overflow="visible" visibility="visible" style="marker:none"/></g><g id="layer5" display="inline"><path id="path990-8" fill="none" fill-opacity="1" fill-rule="nonzero" stroke="url(#linearGradient1004-8)" stroke-dasharray="none" stroke-miterlimit="4" stroke-opacity="1" stroke-width="3.071" d="m 335.73108,62 c -8.82418,0 -9.77365,0.90635 -9.7304,9.74838 V 84 96.25162 c -0.0433,8.84203 0.90622,9.74838 9.7304,9.74838 h 16.53919 c 8.82418,0 9.7304,-0.90625 9.7304,-9.74838 V 84 71.74838 C 362.00067,62.90625 361.09445,62 352.27027,62 Z" clip-path="url(#clipPath994-1)" color="#000" display="inline" enable-background="accumulate" opacity=".5" overflow="visible" transform="matrix(0,0.66664182,-0.63636364,0,389.45494,-81.32507)" visibility="visible" style="marker:none"/><path id="path935-9" fill="none" fill-opacity="1" fill-rule="nonzero" stroke="url(#linearGradient981-5)" stroke-dasharray="none" stroke-miterlimit="4" stroke-opacity="1" stroke-width="2" d="m 327.8652,189 c -4.41209,0 -4.88682,0.45318 -4.8652,4.87419 V 200 206.12581 C 322.9783,210.54682 323.45311,211 327.8652,211 h 8.2696 C 340.54689,211 341,210.54688 341,206.12581 V 200 193.87419 C 341,189.45313 340.54688,189 336.13479,189 Z" clip-path="url(#clipPath971-9)" color="#000" display="inline" enable-background="accumulate" opacity=".5" overflow="visible" transform="rotate(90,331.99999,200.00007)" visibility="visible" style="marker:none"/><path id="path937-2" fill="none" fill-opacity="1" fill-rule="nonzero" stroke="url(#linearGradient993-2)" stroke-dasharray="none" stroke-miterlimit="4" stroke-opacity="1" stroke-width="2" d="m 325.09646,237 c -2.80769,0 -3.10979,0.28839 -3.09603,3.10176 V 244 v 3.89824 c -0.0138,2.81337 0.28834,3.10176 3.09603,3.10176 h 5.8075 C 333.71166,251 334,250.71165 334,247.89824 V 244 240.10176 C 334,237.28836 333.71165,237 330.90396,237 Z" clip-path="url(#clipPath983-8)" color="#000" display="inline" enable-background="accumulate" opacity=".5" overflow="visible" transform="rotate(90,328.00033,244.00007)" visibility="visible" style="marker:none"/></g></g></svg>