<svg xmlns="http://www.w3.org/2000/svg" xmlns:svg="http://www.w3.org/2000/svg" xmlns:xlink="http://www.w3.org/1999/xlink" id="svg11300" width="400" height="300" display="inline" enable-background="new" version="1.0"><title id="title3004">Suru Icon Theme Template</title><defs id="defs3"><clipPath id="clipPath9430" clipPathUnits="userSpaceOnUse"><path id="path9432" fill="#fff" fill-opacity="1" fill-rule="nonzero" stroke="none" stroke-width="1" d="m 166.0625,-196 h 179.875 C 491.2348,-196 512,-175.28677 512,-30.125 v 148.25 C 512,263.28618 491.2348,284 345.9375,284 H 166.0625 C 20.7652,284 0,263.28618 0,118.125 V -30.125 C 0,-175.28677 20.7652,-196 166.0625,-196 Z" color="#000" display="inline" enable-background="new" overflow="visible" visibility="visible" style="marker:none"/></clipPath><clipPath id="clipPath1082" clipPathUnits="userSpaceOnUse"><path id="path1084" fill="#8c59d9" fill-opacity="1" stroke="none" stroke-dasharray="none" stroke-dashoffset="0" stroke-linecap="round" stroke-linejoin="round" stroke-miterlimit="4" stroke-opacity="1" stroke-width="2" d="M 361.9375,-212 C 507.2348,-212 528,-191.28677 528,-46.125 V 70.125 C 528,215.28618 507.2348,236 361.9375,236 H 214.0625 C 68.7652,236 48,215.28618 48,70.125 V -46.125 C 48,-191.28677 68.7652,-212 214.0625,-212 Z" display="inline" enable-background="new" opacity="1"/></clipPath><filter id="filter4346" width="1.026" height="1.022" x="-.013" y="-.011" color-interpolation-filters="sRGB"><feGaussianBlur id="feGaussianBlur4348" stdDeviation="2.12"/></filter><linearGradient id="linearGradient4358" x1="88" x2="488" y1="88" y2="488" gradientUnits="userSpaceOnUse" xlink:href="#linearGradient4360"/><linearGradient id="linearGradient4360"><stop id="stop4362" offset="0" stop-color="#000" stop-opacity=".588"/><stop id="stop4364" offset=".88" stop-color="#000" stop-opacity="0"/><stop id="stop4366" offset="1" stop-color="#000" stop-opacity="1"/></linearGradient><filter id="filter4380" width="1.106" height="1.088" x="-.053" y="-.044" color-interpolation-filters="sRGB"><feGaussianBlur id="feGaussianBlur4382" stdDeviation="8.48"/></filter><linearGradient id="linearGradient4226" x1="529.655" x2="-35.31" y1="401.584" y2="119.093" gradientTransform="matrix(0,-0.453125,-0.45311204,0,277.957,268)" gradientUnits="userSpaceOnUse" xlink:href="#linearGradient4338-3-6"/><linearGradient id="linearGradient951" x1="512" x2="0" y1="397.994" y2="125.994" gradientTransform="matrix(0,-0.11328125,-0.11327801,0,379.48855,112)" gradientUnits="userSpaceOnUse" xlink:href="#linearGradient4338-3-6"/><clipPath id="clipPath994" clipPathUnits="userSpaceOnUse"><path id="path996" fill="#cdcdcd" fill-opacity="1" fill-rule="nonzero" stroke="none" stroke-dasharray="none" stroke-miterlimit="4" stroke-opacity="1" stroke-width="2" d="m 335.73108,62 c -8.82418,0 -9.77365,0.90635 -9.7304,9.74838 V 84 96.25162 c -0.0433,8.84203 0.90622,9.74838 9.7304,9.74838 h 16.53919 c 8.82418,0 9.7304,-0.90625 9.7304,-9.74838 V 84 71.74838 C 362.00067,62.90625 361.09445,62 352.27027,62 Z" color="#000" display="inline" enable-background="accumulate" overflow="visible" visibility="visible" style="marker:none"/></clipPath><linearGradient id="linearGradient916" x1="459.034" x2="35.31" y1="419.233" y2="207.365" gradientTransform="matrix(0,-0.05664062,0.05663901,0,314.2547,214)" gradientUnits="userSpaceOnUse" xlink:href="#linearGradient4338-3-6"/><linearGradient id="linearGradient920" x1="459.034" x2="35.31" y1="419.233" y2="207.365" gradientTransform="matrix(0,-0.03604403,-0.03604301,0,339.56432,252.90909)" gradientUnits="userSpaceOnUse" xlink:href="#linearGradient4338-3-6"/><linearGradient id="linearGradient924" x1="459.034" x2="35.31" y1="419.233" y2="207.365" gradientTransform="matrix(0,-0.07208805,-0.07208601,0,359.12864,165.81816)" gradientUnits="userSpaceOnUse" xlink:href="#linearGradient4338-3-6"/><linearGradient id="linearGradient927"><stop id="stop923" offset="0" stop-color="#fff" stop-opacity="1"/><stop id="stop933" offset=".125" stop-color="#fff" stop-opacity=".098"/><stop id="stop931" offset=".925" stop-color="#fff" stop-opacity=".098"/><stop id="stop925" offset="1" stop-color="#fff" stop-opacity=".498"/></linearGradient><clipPath id="clipPath994-5" clipPathUnits="userSpaceOnUse"><path id="path996-3" fill="#cdcdcd" fill-opacity="1" fill-rule="nonzero" stroke="none" stroke-dasharray="none" stroke-miterlimit="4" stroke-opacity="1" stroke-width="2" d="m 335.73108,62 c -8.82418,0 -9.77365,0.90635 -9.7304,9.74838 V 84 96.25162 c -0.0433,8.84203 0.90622,9.74838 9.7304,9.74838 h 16.53919 c 8.82418,0 9.7304,-0.90625 9.7304,-9.74838 V 84 71.74838 C 362.00067,62.90625 361.09445,62 352.27027,62 Z" color="#000" display="inline" enable-background="accumulate" overflow="visible" visibility="visible" style="marker:none"/></clipPath><linearGradient id="linearGradient981" x1="332" x2="332" y1="189" y2="211" gradientUnits="userSpaceOnUse" xlink:href="#linearGradient927"/><clipPath id="clipPath971" clipPathUnits="userSpaceOnUse"><path id="path973" fill="#46a926" fill-opacity="1" fill-rule="nonzero" stroke="none" stroke-dasharray="none" stroke-miterlimit="4" stroke-opacity="1" stroke-width="2" d="m 327.8652,189 c -4.41209,0 -4.88682,0.45318 -4.8652,4.87419 V 200 206.12581 C 322.9783,210.54682 323.45311,211 327.8652,211 h 8.2696 C 340.54689,211 341,210.54688 341,206.12581 V 200 193.87419 C 341,189.45313 340.54688,189 336.13479,189 Z" color="#000" display="inline" enable-background="accumulate" opacity="1" overflow="visible" visibility="visible" style="marker:none"/></clipPath><linearGradient id="linearGradient993" x1="328" x2="328" y1="237" y2="251" gradientUnits="userSpaceOnUse" xlink:href="#linearGradient927"/><clipPath id="clipPath983" clipPathUnits="userSpaceOnUse"><path id="path985" fill="#46a926" fill-opacity="1" fill-rule="nonzero" stroke="none" stroke-dasharray="none" stroke-miterlimit="4" stroke-opacity="1" stroke-width="2" d="m 325.09646,237 c -2.80769,0 -3.10979,0.28839 -3.09603,3.10176 V 244 v 3.89824 c -0.0138,2.81337 0.28834,3.10176 3.09603,3.10176 h 5.8075 C 333.71166,251 334,250.71165 334,247.89824 V 244 240.10176 C 334,237.28836 333.71165,237 330.90396,237 Z" color="#000" display="inline" enable-background="accumulate" opacity="1" overflow="visible" visibility="visible" style="marker:none"/></clipPath><linearGradient id="linearGradient969" x1="336" x2="336" y1="134" y2="162" gradientUnits="userSpaceOnUse" xlink:href="#linearGradient927"/><clipPath id="clipPath959" clipPathUnits="userSpaceOnUse"><path id="path961" fill="#46a926" fill-opacity="1" fill-rule="nonzero" stroke="none" stroke-dasharray="none" stroke-miterlimit="4" stroke-opacity="1" stroke-width="2" d="m 330.1929,133.99999 c -5.61538,0 -6.21958,0.57678 -6.19206,6.20352 v 7.79648 7.79648 c -0.0276,5.62673 0.57668,6.20351 6.19206,6.20351 h 11.615 c 5.6154,0 6.19208,-0.5767 6.19208,-6.20351 v -7.79648 -7.79648 c 0,-5.6268 -0.5767,-6.20352 -6.19208,-6.20352 z" color="#000" display="inline" enable-background="accumulate" opacity="1" overflow="visible" visibility="visible" style="marker:none"/></clipPath><linearGradient id="linearGradient4338-3-6"><stop id="stop4340-0-7" offset="0" stop-color="#b52428" stop-opacity="1"/><stop id="stop4342-7-5" offset="1" stop-color="#d32429" stop-opacity="1"/></linearGradient><linearGradient id="linearGradient925" x1="344" x2="344" y1="61" y2="107" gradientTransform="translate(0.00141966)" gradientUnits="userSpaceOnUse" xlink:href="#linearGradient927-3-6"/><linearGradient id="linearGradient927-3-6"><stop id="stop923-3" offset="0" stop-color="#fff" stop-opacity="1"/><stop id="stop933-6" offset=".125" stop-color="#fff" stop-opacity=".098"/><stop id="stop931-7" offset=".925" stop-color="#fff" stop-opacity=".098"/><stop id="stop925-5" offset="1" stop-color="#000" stop-opacity=".498"/></linearGradient></defs><metadata id="metadata4"/><g id="layer1" display="inline"><g id="layer7" display="none"><text enable-background="new" style="line-height:0%;-inkscape-font-specification:'DejaVu Sans'" id="context" x="19.007" y="-8.255" fill="#000" fill-opacity="1" stroke="none" display="inline" font-family="DejaVu Sans" font-stretch="normal" font-style="normal" font-variant="normal" font-weight="normal" xml:space="preserve"><tspan id="tspan3933" x="19.007" y="-8.255" font-family="DejaVu Sans" font-size="18" font-stretch="normal" font-style="normal" font-variant="normal" font-weight="normal" style="line-height:1.25;-inkscape-font-specification:'DejaVu Sans'">mimetypes</tspan></text><text id="icon-name" x="146.488" y="-8.255" fill="#000" fill-opacity="1" stroke="none" display="inline" enable-background="new" font-family="DejaVu Sans" font-stretch="normal" font-style="normal" font-variant="normal" font-weight="bold" text-anchor="start" writing-mode="lr-tb" xml:space="preserve" style="line-height:0%;-inkscape-font-specification:'DejaVu Sans Bold';text-align:start"><tspan id="tspan3937" x="146.488" y="-8.255" font-family="DejaVu Sans" font-size="18" font-stretch="normal" font-style="normal" font-variant="normal" font-weight="bold" style="line-height:1.25;-inkscape-font-specification:'DejaVu Sans Bold'">application-vnd.ms-access</tspan></text><rect id="rect16x16" width="16" height="16" x="320" y="236" fill="#cdcdcd" fill-opacity="1" fill-rule="nonzero" stroke="none" stroke-width="2" display="inline" enable-background="accumulate" overflow="visible" visibility="visible" style="marker:none"/><rect id="rect24x24" width="24" height="24" x="320" y="188" fill="#cdcdcd" fill-opacity="1" fill-rule="nonzero" stroke="none" stroke-width="2" display="inline" enable-background="accumulate" overflow="visible" visibility="visible" style="marker:none"/><rect id="rect32x32" width="32" height="32" x="320" y="132" fill="#cdcdcd" fill-opacity="1" fill-rule="nonzero" stroke="none" stroke-width="2" display="inline" enable-background="accumulate" overflow="visible" visibility="visible" style="marker:none"/><rect id="rect48x48" width="48" height="48" x="320" y="60" fill="#cdcdcd" fill-opacity="1" fill-rule="nonzero" stroke="none" stroke-width="2" display="inline" enable-background="accumulate" overflow="visible" visibility="visible" style="marker:none"/><rect id="rect3951" width="256" height="256" x="24" y="28" fill="#cdcdcd" fill-opacity="1" fill-rule="nonzero" stroke="none" stroke-width="2" display="inline" enable-background="accumulate" overflow="visible" visibility="visible" style="marker:none"/><path id="path995" fill="#000" fill-opacity="1" fill-rule="nonzero" stroke="none" stroke-dasharray="none" stroke-dashoffset="0" stroke-linecap="butt" stroke-linejoin="miter" stroke-miterlimit="4" stroke-opacity="1" stroke-width="2" d="m 327.86523,189 c -1.12014,0 -2.01524,0.0241 -2.79101,0.1543 -0.77577,0.13022 -1.48014,0.38763 -2.00977,0.91601 -0.52962,0.52838 -0.79079,1.23687 -0.91992,2.01367 -0.12912,0.77681 -0.15002,1.67169 -0.14453,2.79493 V 201 v 5.125 c -0.005,1.12104 0.0156,2.01529 0.14453,2.79102 0.12912,0.77681 0.39029,1.48529 0.91992,2.01367 0.52964,0.52838 1.234,0.78579 2.00977,0.91601 0.77577,0.13022 1.67087,0.1543 2.79101,0.1543 h 8.26954 c 1.12013,0 2.01264,-0.024 2.78711,-0.1543 0.77446,-0.13033 1.48001,-0.38927 2.00781,-0.91797 0.5278,-0.52869 0.78594,-1.23438 0.91601,-2.00976 C 341.97577,208.14258 342,207.24735 342,206.125 V 201 194.875 c 0,-1.12235 -0.0242,-2.01758 -0.1543,-2.79297 -0.13007,-0.77538 -0.38821,-1.48107 -0.91601,-2.00976 -0.5278,-0.5287 -1.23334,-0.78764 -2.00781,-0.91797 C 338.1474,189.02397 337.25491,189 336.13477,189 Z" baseline-shift="baseline" clip-rule="nonzero" color="#000" color-interpolation="sRGB" color-interpolation-filters="linearRGB" color-rendering="auto" direction="ltr" display="inline" dominant-baseline="auto" enable-background="accumulate" font-family="sans-serif" font-size="medium" font-stretch="normal" font-style="normal" font-variant="normal" font-weight="normal" image-rendering="auto" letter-spacing="normal" opacity=".1" overflow="visible" shape-rendering="auto" text-anchor="start" text-decoration="none" text-rendering="auto" vector-effect="none" visibility="visible" word-spacing="normal" writing-mode="lr-tb" style="line-height:normal;font-variant-ligatures:normal;font-variant-position:normal;font-variant-caps:normal;font-variant-numeric:normal;font-variant-alternates:normal;font-feature-settings:normal;text-indent:0;text-align:start;text-decoration-line:none;text-decoration-style:solid;text-decoration-color:#000;text-transform:none;text-orientation:mixed;white-space:normal;shape-padding:0;isolation:auto;mix-blend-mode:normal;solid-color:#000;solid-opacity:1;marker:none"/><path id="path997" fill="#000" fill-opacity="1" fill-rule="nonzero" stroke="none" stroke-dasharray="none" stroke-dashoffset="0" stroke-linecap="butt" stroke-linejoin="miter" stroke-miterlimit="4" stroke-opacity="1" stroke-width="2" d="m 325.0957,237 c -0.71904,0 -1.30185,0.0139 -1.83593,0.10352 -0.53409,0.0897 -1.0683,0.27628 -1.47657,0.68359 -0.40826,0.4073 -0.59657,0.94323 -0.68554,1.47851 -0.089,0.53529 -0.10119,1.12048 -0.0977,1.8418 V 244 v 3.89844 c -0.003,0.71816 0.009,1.30235 0.0977,1.83594 0.089,0.53528 0.27727,1.07121 0.68554,1.47851 0.40827,0.40731 0.94248,0.59394 1.47657,0.68359 0.53408,0.0897 1.11689,0.10352 1.83593,0.10352 h 5.8086 c 0.71904,0 1.30058,-0.0137 1.83398,-0.10352 0.53341,-0.0898 1.06768,-0.27792 1.47461,-0.68554 0.40693,-0.40762 0.59404,-0.94271 0.68359,-1.47656 C 334.98604,249.20052 335,248.61887 335,247.89844 V 244 241.10156 c 0,-0.72043 -0.014,-1.30208 -0.10352,-1.83594 -0.0895,-0.53385 -0.27666,-1.06894 -0.68359,-1.47656 -0.40693,-0.40762 -0.9412,-0.59578 -1.47461,-0.68554 C 332.20488,237.01375 331.62334,237 330.9043,237 Z" baseline-shift="baseline" clip-rule="nonzero" color="#000" color-interpolation="sRGB" color-interpolation-filters="linearRGB" color-rendering="auto" direction="ltr" display="inline" dominant-baseline="auto" enable-background="accumulate" font-family="sans-serif" font-size="medium" font-stretch="normal" font-style="normal" font-variant="normal" font-weight="normal" image-rendering="auto" letter-spacing="normal" opacity=".1" overflow="visible" shape-rendering="auto" text-anchor="start" text-decoration="none" text-rendering="auto" vector-effect="none" visibility="visible" word-spacing="normal" writing-mode="lr-tb" style="line-height:normal;font-variant-ligatures:normal;font-variant-position:normal;font-variant-caps:normal;font-variant-numeric:normal;font-variant-alternates:normal;font-feature-settings:normal;text-indent:0;text-align:start;text-decoration-line:none;text-decoration-style:solid;text-decoration-color:#000;text-transform:none;text-orientation:mixed;white-space:normal;shape-padding:0;isolation:auto;mix-blend-mode:normal;solid-color:#000;solid-opacity:1;marker:none"/><path id="path999" fill="#000" fill-opacity="1" fill-rule="nonzero" stroke="none" stroke-dasharray="none" stroke-dashoffset="0" stroke-linecap="butt" stroke-linejoin="miter" stroke-miterlimit="4" stroke-opacity="1" stroke-width="2" d="m 330.19336,134 c -1.42096,0 -2.54883,0.0308 -3.50586,0.19141 -0.95703,0.16064 -1.79146,0.4726 -2.41211,1.09179 -0.62065,0.61919 -0.93647,1.45612 -1.0957,2.41407 -0.15924,0.95795 -0.18666,2.08705 -0.17969,3.51171 V 149 v 7.79688 c -0.007,1.42131 0.0207,2.5495 0.17969,3.50585 0.15923,0.95796 0.47505,1.79488 1.0957,2.41407 0.62065,0.61919 1.45508,0.93115 2.41211,1.09179 0.95703,0.16065 2.0849,0.19141 3.50586,0.19141 h 11.61523 c 1.42097,0 2.54669,-0.0307 3.50196,-0.19141 0.95527,-0.16075 1.78779,-0.47425 2.40625,-1.09375 0.61845,-0.6195 0.93134,-1.45363 1.09179,-2.41015 C 348.96905,159.34816 349,158.22066 349,156.79688 V 149 141.20312 c 0,-1.42378 -0.031,-2.55128 -0.19141,-3.50781 -0.16045,-0.95653 -0.47334,-1.79065 -1.09179,-2.41015 -0.61846,-0.61951 -1.45098,-0.933 -2.40625,-1.09375 C 344.35528,134.03065 343.22956,134 341.80859,134 Z" baseline-shift="baseline" clip-rule="nonzero" color="#000" color-interpolation="sRGB" color-interpolation-filters="linearRGB" color-rendering="auto" direction="ltr" display="inline" dominant-baseline="auto" enable-background="accumulate" font-family="sans-serif" font-size="medium" font-stretch="normal" font-style="normal" font-variant="normal" font-weight="normal" image-rendering="auto" letter-spacing="normal" opacity=".1" overflow="visible" shape-rendering="auto" text-anchor="start" text-decoration="none" text-rendering="auto" vector-effect="none" visibility="visible" word-spacing="normal" writing-mode="lr-tb" style="line-height:normal;font-variant-ligatures:normal;font-variant-position:normal;font-variant-caps:normal;font-variant-numeric:normal;font-variant-alternates:normal;font-feature-settings:normal;text-indent:0;text-align:start;text-decoration-line:none;text-decoration-style:solid;text-decoration-color:#000;text-transform:none;text-orientation:mixed;white-space:normal;shape-padding:0;isolation:auto;mix-blend-mode:normal;solid-color:#000;solid-opacity:1;marker:none"/></g><g id="layer4" display="inline"><path id="path1020" fill="#000" fill-opacity="1" fill-rule="nonzero" stroke="none" stroke-dasharray="none" stroke-dashoffset="0" stroke-linecap="butt" stroke-linejoin="miter" stroke-miterlimit="4" stroke-opacity="1" stroke-width="2" d="m 335.73047,62 c -2.22316,0 -3.97368,0.05118 -5.41406,0.292969 -1.44039,0.241784 -2.61905,0.695299 -3.48243,1.55664 -0.86337,0.861342 -1.31906,2.039471 -1.55859,3.480469 -0.23953,1.440999 -0.28629,3.195341 -0.27539,5.423828 V 85 97.251953 c -0.0108,2.225063 0.0361,3.978517 0.27539,5.417967 0.23953,1.441 0.69522,2.61913 1.55859,3.48047 0.86338,0.86134 2.04204,1.31486 3.48243,1.55664 1.44039,0.24179 3.1909,0.29297 5.41406,0.29297 h 16.53906 c 2.22316,0 3.97276,-0.0511 5.41016,-0.29297 1.4374,-0.24189 2.61246,-0.69694 3.47265,-1.55859 0.8602,-0.86165 1.3132,-2.03894 1.55469,-3.47852 C 362.94852,101.23035 363,99.479567 363,97.251953 V 85 72.748047 c 0,-2.227614 -0.0515,-3.978392 -0.29297,-5.417969 -0.24149,-1.439576 -0.69449,-2.616863 -1.55469,-3.478516 -0.86019,-0.861652 -2.03525,-1.316704 -3.47265,-1.558593 C 356.24229,62.051079 354.49269,62 352.26953,62 Z" baseline-shift="baseline" clip-rule="nonzero" color="#000" color-interpolation="sRGB" color-interpolation-filters="linearRGB" color-rendering="auto" direction="ltr" display="inline" dominant-baseline="auto" enable-background="accumulate" font-family="sans-serif" font-size="medium" font-stretch="normal" font-style="normal" font-variant="normal" font-weight="normal" image-rendering="auto" letter-spacing="normal" opacity=".1" overflow="visible" shape-rendering="auto" text-anchor="start" text-decoration="none" text-rendering="auto" vector-effect="none" visibility="visible" word-spacing="normal" writing-mode="lr-tb" style="line-height:normal;font-variant-ligatures:normal;font-variant-position:normal;font-variant-caps:normal;font-variant-numeric:normal;font-variant-alternates:normal;font-feature-settings:normal;text-indent:0;text-align:start;text-decoration-line:none;text-decoration-style:solid;text-decoration-color:#000;text-transform:none;text-orientation:mixed;white-space:normal;shape-padding:0;isolation:auto;mix-blend-mode:normal;solid-color:#000;solid-opacity:1;marker:none"/><path id="rect4158-9" fill="#000" fill-opacity="1" fill-rule="nonzero" stroke="none" stroke-width="2" d="M 189.84323,74 C 119.24979,74 111.65402,81.250835 112,151.98706 V 298 444.01294 C 111.65402,514.74917 119.24979,522 189.84323,522 H 386.15677 C 456.75021,522 462.16345,514.72616 464,444.01294 V 298 151.98706 C 464,81.249993 456.75021,74 386.15677,74 Z" color="#000" display="inline" enable-background="accumulate" filter="url(#filter4346)" opacity=".1" overflow="visible" transform="matrix(0.5,0,0,0.5,8,8)" visibility="visible" style="marker:none"/><path id="path4350" fill="url(#linearGradient4358)" fill-opacity="1" fill-rule="nonzero" stroke="none" stroke-width="2" d="M 189.84323,74 C 119.24979,74 111.65402,81.250835 112,151.98706 V 298 444.01294 C 111.65402,514.74917 119.24979,522 189.84323,522 H 386.15677 C 456.75021,522 464,514.75001 464,444.01294 V 298 151.98706 C 464,81.249993 456.75021,74 386.15677,74 Z" color="#000" display="inline" enable-background="accumulate" filter="url(#filter4380)" opacity=".3" overflow="visible" transform="matrix(0.5,0,0,0.5,8,8)" visibility="visible" style="marker:none"/></g><g id="layer2" display="inline"><path id="path949" fill="url(#linearGradient951)" fill-opacity="1" fill-rule="nonzero" stroke="none" stroke-width="1" d="M 335.73047 61 C 333.50763 61 331.75575 61.05331 330.31641 61.294922 C 328.8753 61.536828 327.69773 61.989844 326.83398 62.851562 C 325.97008 63.713437 325.51502 64.888453 325.27539 66.330078 C 325.03608 67.769758 324.9891 69.52364 325 71.751953 L 325 84 L 325 96.251953 C 324.9892 98.477958 325.0362 100.23124 325.27539 101.66992 C 325.51502 103.11155 325.97007 104.28656 326.83398 105.14844 C 327.69774 106.01015 328.87529 106.46317 330.31641 106.70508 C 331.75575 106.94669 333.50763 107 335.73047 107 L 352.26953 107 C 354.49235 107 356.24138 106.9468 357.67773 106.70508 C 359.11569 106.4631 360.29132 106.01093 361.15234 105.14844 C 362.01307 104.28626 362.46543 103.1102 362.70703 101.66992 C 362.94841 100.23102 363 98.478986 363 96.251953 L 363 84 L 363 71.748047 C 363 69.521013 362.9484 67.768972 362.70703 66.330078 C 362.46543 64.889802 362.01307 63.713747 361.15234 62.851562 C 360.29132 61.989081 359.11569 61.536906 357.67773 61.294922 C 356.24138 61.053209 354.49235 61 352.26953 61 L 335.73047 61 z" color="#000" display="inline" enable-background="accumulate" overflow="visible" visibility="visible" style="marker:none"/><path id="rect4158" fill="url(#linearGradient4226)" fill-opacity="1" fill-rule="nonzero" stroke="none" stroke-width="1" d="m 201.07298,44 c 35.29673,0 39.09461,3.625418 38.92162,38.99353 V 156 229.00647 C 240.16759,264.37459 236.36971,268 201.07298,268 H 102.91622 C 67.619504,268 63.994604,264.375 63.994604,229.00647 V 156 82.99353 C 63.994604,47.624997 67.619504,44 102.91622,44 Z" color="#000" display="inline" enable-background="accumulate" overflow="visible" visibility="visible" style="marker:none"/><path id="path918" fill="url(#linearGradient920)" fill-opacity="1" fill-rule="nonzero" stroke="none" stroke-width="1" d="m 330.90385,236.5 c 0.71048,0 1.27344,0.0154 1.75195,0.0957 0.47851,0.0803 0.89671,0.23728 1.20703,0.54688 0.31032,0.30959 0.46726,0.7261 0.54688,1.20508 0.0796,0.47897 0.0933,1.04352 0.0898,1.75586 V 244 v 3.89844 c 0.003,0.71121 -0.0103,1.27546 -0.0898,1.7539 -0.0796,0.47898 -0.23655,0.89549 -0.54688,1.20508 -0.31033,0.3096 -0.72851,0.46655 -1.20703,0.54688 -0.47852,0.0803 -1.04147,0.0957 -1.75195,0.0957 h -5.8086 c -0.71048,0 -1.27236,-0.0153 -1.75,-0.0957 -0.47763,-0.0804 -0.89584,-0.23713 -1.20508,-0.54688 -0.30921,-0.30975 -0.46469,-0.72681 -0.54492,-1.20508 -0.0802,-0.47826 -0.0957,-1.04201 -0.0957,-1.7539 V 244 240.10156 c 0,-0.71189 0.0155,-1.27564 0.0957,-1.7539 0.0802,-0.47827 0.2357,-0.89533 0.54492,-1.20508 0.30924,-0.30975 0.72745,-0.4665 1.20508,-0.54688 0.47764,-0.0804 1.03952,-0.0957 1.75,-0.0957 z" color="#000" display="inline" enable-background="accumulate" overflow="visible" visibility="visible" style="marker:none"/><path id="path914" fill="url(#linearGradient916)" fill-opacity="1" fill-rule="nonzero" stroke="none" stroke-width="1" d="m 327.86523,188.5 c -1.11158,0 -1.98683,0.0256 -2.70703,0.14648 -0.72019,0.1209 -1.3105,0.34863 -1.74218,0.7793 -0.43169,0.43067 -0.65954,1.01974 -0.7793,1.74024 -0.11977,0.72049 -0.14217,1.59669 -0.13672,2.71093 V 200 v 6.125 c -0.005,1.1131 0.017,1.989 0.13672,2.70898 0.11976,0.72051 0.3476,1.30957 0.7793,1.74024 0.43169,0.43067 1.02199,0.6584 1.74218,0.7793 0.7202,0.12089 1.59545,0.14648 2.70703,0.14648 h 8.26954 c 1.11158,0 1.98637,-0.0255 2.70507,-0.14648 0.7187,-0.12095 1.30623,-0.34848 1.73633,-0.7793 0.4301,-0.43083 0.6566,-1.01849 0.77735,-1.73828 0.12074,-0.71979 0.14648,-1.59713 0.14648,-2.71094 V 200 193.875 c 0,-1.11381 -0.0257,-1.99115 -0.14648,-2.71094 -0.12075,-0.71979 -0.34725,-1.30745 -0.77735,-1.73828 -0.4301,-0.43082 -1.01763,-0.65835 -1.73633,-0.7793 -0.7187,-0.12094 -1.59349,-0.14648 -2.70507,-0.14648 z" color="#000" display="inline" enable-background="accumulate" overflow="visible" visibility="visible" style="marker:none"/><path id="path922" fill="url(#linearGradient924)" fill-opacity="1" fill-rule="nonzero" stroke="none" stroke-width="1" d="m 341.80573,133.5 c 1.41241,0 2.52238,0.0342 3.42383,0.18555 0.90145,0.15132 1.61987,0.43164 2.14258,0.95312 0.5227,0.52148 0.80325,1.23898 0.95312,2.14063 0.14988,0.90164 0.18075,2.0101 0.17383,3.42578 V 148 v 7.79688 c 0.007,1.41452 -0.024,2.52269 -0.17383,3.42382 -0.14987,0.90165 -0.43041,1.61915 -0.95312,2.14063 -0.52272,0.52148 -1.24112,0.8018 -2.14258,0.95312 -0.90146,0.15132 -2.01142,0.18555 -3.42383,0.18555 H 330.1905 c -1.41241,0 -2.51847,-0.0342 -3.41797,-0.18555 -0.8995,-0.15137 -1.61597,-0.43149 -2.13672,-0.95312 -0.52075,-0.52163 -0.80004,-1.23774 -0.95117,-2.13867 -0.15113,-0.90094 -0.18555,-2.01055 -0.18555,-3.42578 V 148 140.20312 c 0,-1.41524 0.0344,-2.52484 0.18555,-3.42578 0.15113,-0.90093 0.43042,-1.61703 0.95117,-2.13867 0.52075,-0.52163 1.23722,-0.80175 2.13672,-0.95312 0.8995,-0.15137 2.00556,-0.18555 3.41797,-0.18555 z" color="#000" display="inline" enable-background="accumulate" overflow="visible" visibility="visible" style="marker:none"/></g><g id="layer6" display="inline"><path id="path1309" fill="#fff" stroke-width="1.333" d="M 344.63086 73 L 331.99805 74.873047 L 331.99805 93.132812 L 344.54492 95 L 345.99805 95 C 345.99805 95 345.98905 73 345.99805 73 L 344.63086 73 z M 339.39258 79.583984 C 340.28801 82.577663 341.13674 85.58762 342.02148 88.583984 C 341.40404 88.543864 340.78788 88.497583 340.17578 88.441406 C 340.01273 87.773172 339.83852 87.105012 339.66211 86.439453 C 338.84152 86.436353 338.02104 86.409261 337.20312 86.369141 C 337.04541 87.002623 336.8857 87.634818 336.72266 88.265625 C 336.19876 88.225505 335.67747 88.18709 335.15625 88.152344 C 335.93674 85.337756 336.7483 82.533339 337.52344 79.71875 C 338.14623 79.6733 338.76711 79.632055 339.39258 79.583984 z M 338.38672 81.183594 C 338.20764 82.453232 337.80709 83.676799 337.53711 84.927734 C 338.12516 84.932934 338.71398 84.93535 339.30469 84.9375 C 338.99999 83.686575 338.62729 82.450557 338.38672 81.183594 z" display="inline" enable-background="new"/><path id="path982" fill="#fff" stroke-width="1.333" d="M 332.31641 194.5 L 326 195.4375 L 326 204.56641 L 332.27344 205.5 L 333 205.5 C 333 205.5 332.995 194.5 333 194.5 L 332.31641 194.5 z M 329.88477 197.58203 C 330.38223 199.24519 330.85418 200.91739 331.3457 202.58203 C 331.00268 202.55973 330.65842 202.53501 330.31836 202.50391 C 330.22776 202.13266 330.13121 201.76038 330.0332 201.39062 C 329.57731 201.38962 329.12237 201.37386 328.66797 201.35156 C 328.58037 201.70349 328.49097 202.05385 328.40039 202.4043 C 328.10934 202.382 327.81886 202.3611 327.5293 202.3418 C 327.96291 200.77814 328.41506 199.22187 328.8457 197.6582 C 329.19169 197.633 329.53729 197.60873 329.88477 197.58203 z M 329.32617 198.4707 C 329.22667 199.17605 329.00351 199.85582 328.85352 200.55078 C 329.18021 200.55378 329.5058 200.55464 329.83398 200.55664 C 329.6647 199.86168 329.45982 199.17457 329.32617 198.4707 z" display="inline" enable-background="new"/><path id="path988" fill="#fff" stroke-width="1.333" d="m 328,240.36523 -4,0.5918 v 6.08789 l 4,0.59375 z" display="inline" enable-background="new"/><path id="path991" fill="#fff" stroke-width="1.333" d="m 329,241 v 5.99951 c 0,0 3,4.9e-4 2.99975,-0.59638 v -4.80627 C 332,241 329,241 329,241 Z" display="inline" enable-background="new"/><path id="path998" fill="#fff" stroke-width="1.333" d="M 336.07812 140.66797 L 328 141.91602 L 328 154.08789 L 336.02148 155.33203 L 336.99023 155.33203 C 336.99023 155.33203 336.98423 140.66797 336.99023 140.66797 L 336.07812 140.66797 z M 332.98828 144.75586 C 333.68472 147.08428 334.34703 149.42536 335.03516 151.75586 C 334.55493 151.72466 334.07374 151.68817 333.59766 151.64453 C 333.47084 151.12479 333.33643 150.60555 333.19922 150.08789 C 332.56098 150.08589 331.92132 150.0644 331.28516 150.0332 C 331.16249 150.5259 331.03892 151.01718 330.91211 151.50781 C 330.50464 151.47661 330.09875 151.44702 329.69336 151.41992 C 330.30041 149.2308 330.93227 147.05046 331.53516 144.86133 C 332.01955 144.82603 332.5018 144.79324 332.98828 144.75586 z M 332.20703 146 C 332.06775 146.9875 331.75686 147.93721 331.54688 148.91016 C 332.00425 148.91416 332.46047 148.91792 332.91992 148.91992 C 332.68293 147.94697 332.39414 146.98542 332.20703 146 z" display="inline" enable-background="new"/><path id="path6" fill="#fff" stroke-width="1.333" d="M 154.53125 100 C 135.02565 103.47359 115.5095 108.08221 96.003906 111.49219 C 96.003906 141.16411 95.991206 170.84855 96.003906 200.5332 C 115.40771 203.93045 134.82186 208.46279 154.1875 212 L 160 212 L 160 100 L 154.53125 100 z M 177.5332 115.49805 C 172.99906 115.54255 168.46501 115.9182 164 116.5332 L 164 133.09375 C 176.54667 134.98708 189.62737 134.60148 201.7207 130.52148 C 204.2807 129.40148 207.5194 128.0012 208.05273 124.89453 C 207.33273 121.09453 203.06753 119.66713 199.88086 118.48047 C 192.64753 116.27213 185.0901 115.42383 177.5332 115.49805 z M 208.04102 131.33398 C 203.29435 135.14731 197.17331 136.41458 191.30664 137.28125 C 182.25331 138.46788 173.05333 138.48068 164 137.33398 L 164 154.61328 C 175.30667 156.06661 186.9194 156.00167 198.05273 153.375 C 201.46607 152.40167 205.25396 151.38687 207.64062 148.54688 C 208.49395 142.86687 207.74769 137.06731 208.04102 131.33398 z M 131.22656 135.22656 C 135.69322 150.1599 139.93432 165.17443 144.34766 180.12109 C 141.26766 179.92109 138.18615 179.69406 135.13281 179.41406 C 134.31948 176.08072 133.45422 172.74773 132.57422 169.42773 C 128.48089 169.41443 124.38664 169.28008 120.30664 169.08008 C 119.51997 172.24008 118.71958 175.38653 117.90625 178.5332 C 115.29292 178.3332 112.69375 178.14794 110.09375 177.97461 C 113.98708 163.93461 118.03958 149.9482 121.90625 135.9082 C 125.01292 135.68154 128.10656 135.46656 131.22656 135.22656 z M 126.21289 143.21484 C 125.31956 149.54817 123.31932 155.64086 121.97266 161.88086 C 124.90599 161.90746 127.84044 161.92029 130.78711 161.93359 C 129.26711 155.69359 127.41288 149.53484 126.21289 143.21484 z M 208.04102 152.66797 C 203.32102 156.46797 197.24005 157.73489 191.38672 158.60156 C 182.30672 159.8016 173.08 159.82798 164 158.66797 L 164 175.96094 C 175.33333 177.40094 186.98648 177.33498 198.14648 174.68164 C 201.54648 173.70831 205.33268 172.69514 207.66602 169.8418 C 208.45268 164.16181 207.77435 158.38797 208.04102 152.66797 z M 208.04102 174 C 203.29435 177.8 197.20065 179.08025 191.33398 179.93359 C 182.26732 181.13363 173.06667 181.16001 164 180 C 164 185.74667 164.04057 191.47989 163.94727 197.22656 C 173.46727 198.59989 183.1867 198.57443 192.69336 197.12109 C 197.88003 196.06776 203.86729 195.30784 207.64062 191.20117 C 208.48063 185.52117 207.76102 179.72 208.04102 174 z" enable-background="new"/><path id="path20" fill="#a33639" stroke-width="1.333" d="m 326.26769,242.50196 c 0.29848,0.99789 0.58188,2.0012 0.87678,2.99998 -0.2058,-0.0134 -0.41159,-0.0286 -0.61562,-0.0472 -0.0544,-0.22275 -0.1123,-0.44547 -0.17111,-0.66732 -0.27353,-6e-4 -0.54712,-0.01 -0.81976,-0.0232 -0.0526,0.21116 -0.10592,0.42143 -0.16026,0.6317 -0.17463,-0.0134 -0.34845,-0.0259 -0.52219,-0.0374 0.26017,-0.93819 0.5311,-1.8728 0.78948,-2.811 0.20759,-0.0152 0.41419,-0.0294 0.62268,-0.0454 z m -0.33491,0.53367 c -0.0597,0.42321 -0.19335,0.83047 -0.28334,1.24745 0.19601,10e-4 0.39197,0.002 0.58888,0.004 -0.10157,-0.41698 -0.22535,-0.82865 -0.30554,-1.25097 z" display="inline" enable-background="new"/><path id="path992" fill="#fff" stroke-width="1.333" d="M 349.42578 75.001953 C 348.61408 75.010182 347.80332 75.07558 347 75.169922 L 347 78.894531 C 349.56977 79.220665 352.22264 79.101116 354.6875 78.269531 C 355.24442 78.025881 355.94842 77.720762 356.06445 77.044922 C 355.90781 76.218242 354.98036 75.908541 354.28711 75.650391 C 352.71352 75.169971 351.06976 74.985813 349.42578 75.001953 z M 356.0625 78.445312 C 355.02988 79.274893 353.69814 79.551694 352.42188 79.740234 C 350.62491 79.975766 348.80161 79.98801 347 79.800781 L 347 83.558594 C 349.29542 83.808584 351.63621 83.77165 353.88867 83.240234 C 354.63123 83.028484 355.4554 82.809236 355.97461 82.191406 C 356.16025 80.955736 355.9987 79.692583 356.0625 78.445312 z M 356.0625 83.087891 C 355.03568 83.914571 353.71282 84.190366 352.43945 84.378906 C 350.63673 84.617155 348.80737 84.630601 347 84.441406 L 347 88.201172 C 349.30156 88.448925 351.65191 88.413857 353.91016 87.876953 C 354.64982 87.665203 355.47286 87.444959 355.98047 86.824219 C 356.15161 85.588559 356.0045 84.332261 356.0625 83.087891 z M 356.0625 87.728516 C 355.02988 88.555196 353.704 88.833891 352.42773 89.019531 C 350.62788 89.257759 348.8041 89.271156 347 89.082031 L 347 92.837891 C 348.90094 93.063801 350.83053 93.047037 352.72266 92.757812 C 353.851 92.528662 355.15373 92.364093 355.97461 91.470703 C 356.15735 90.235033 356.0016 88.972886 356.0625 87.728516 z" display="inline" enable-background="new"/><path id="path1012" fill="#fff" stroke-width="1.333" d="m 335.21344,195.50048 c -0.40603,0.004 -0.8116,0.0368 -1.21344,0.084 v 1.86316 c 1.28547,0.16314 2.61251,0.10334 3.84551,-0.31265 0.27858,-0.12188 0.63075,-0.27451 0.68879,-0.61258 -0.0784,-0.41353 -0.5423,-0.56845 -0.88908,-0.69759 -0.78716,-0.24032 -1.60941,-0.33244 -2.43178,-0.32437 z m 3.31988,1.72247 c -0.51654,0.41498 -1.18272,0.55344 -1.82114,0.64775 -0.8989,0.11782 -1.81097,0.12395 -2.71218,0.0303 v 1.87977 c 1.14823,0.12505 2.31916,0.10658 3.44591,-0.15925 0.37145,-0.10592 0.78372,-0.2156 1.04345,-0.52466 0.0929,-0.61811 0.0121,-1.24998 0.044,-1.8739 z m 0,2.32235 c -0.51364,0.41353 -1.17538,0.55149 -1.81235,0.6458 -0.90178,0.11918 -1.81688,0.12591 -2.72097,0.0313 v 1.88075 c 1.1513,0.12393 2.32702,0.10639 3.45666,-0.16219 0.37,-0.10592 0.78171,-0.21609 1.03563,-0.5266 0.0856,-0.61812 0.012,-1.24655 0.041,-1.86902 z m 0,2.32138 c -0.51654,0.41353 -1.17979,0.55294 -1.81822,0.6458 -0.90033,0.11917 -1.81264,0.12587 -2.7151,0.0313 v 1.87879 c 0.9509,0.11301 1.91614,0.10462 2.86264,-0.0401 0.56443,-0.11463 1.21609,-0.19695 1.62672,-0.64385 0.0914,-0.61812 0.0135,-1.24948 0.044,-1.87195 z" display="inline" enable-background="new"/><path id="path1029" fill="#fff" stroke-width="1.333" d="m 339.61793,142.00063 c -0.54139,0.005 -1.08214,0.0491 -1.61793,0.11203 v 2.48422 c 1.71396,0.21752 3.48335,0.13778 5.12735,-0.41686 0.37145,-0.16251 0.841,-0.36602 0.91838,-0.81678 -0.10447,-0.55137 -0.72305,-0.75794 -1.18543,-0.93012 -1.04954,-0.32042 -2.14589,-0.44325 -3.24237,-0.43249 z m 4.4265,2.29663 c -0.68873,0.55331 -1.57696,0.73793 -2.42819,0.86368 -1.19853,0.15709 -2.41462,0.16526 -3.61624,0.0404 v 2.50635 c 1.53098,0.16674 3.09222,0.1421 4.59455,-0.21234 0.49527,-0.14123 1.04496,-0.28746 1.39126,-0.69953 0.12382,-0.82416 0.0161,-1.66665 0.0586,-2.49855 z m 0,3.09647 c -0.68486,0.55137 -1.56717,0.73532 -2.41647,0.86107 -1.20236,0.15891 -2.4225,0.16788 -3.62796,0.0417 v 2.50766 c 1.53507,0.16525 3.10269,0.14186 4.60888,-0.21624 0.49333,-0.14124 1.04228,-0.28813 1.38084,-0.70215 0.11415,-0.82415 0.016,-1.66207 0.0547,-2.49203 z m 0,3.09517 c -0.68873,0.55137 -1.57305,0.73725 -2.42429,0.86107 -1.20045,0.15889 -2.41686,0.16783 -3.62014,0.0417 v 2.50505 c 1.26787,0.15068 2.55485,0.1395 3.81685,-0.0534 0.75257,-0.15283 1.62146,-0.2626 2.16896,-0.85846 0.12189,-0.82416 0.018,-1.66598 0.0586,-2.49594 z" display="inline" enable-background="new"/></g><g id="layer3" display="inline"><path id="path4231" fill="#fff" fill-opacity="1" fill-rule="nonzero" stroke="none" stroke-width="1" d="m 152,44 v 224 h 49.07812 C 236.37484,268 239.08173,264.36345 240,229.00683 V 156 82.993165 C 240,47.624631 236.37484,44 201.07812,44 Z" color="#000" display="inline" enable-background="accumulate" opacity=".08" overflow="visible" visibility="visible" style="marker:none"/><path id="path4255" fill="#fff" fill-opacity="1" fill-rule="nonzero" stroke="none" stroke-width="1" d="m 64,156 v 73.00683 C 63.82701,264.37495 67.625155,268 102.92188,268 h 98.15624 C 236.37484,268 239.08173,264.36345 240,229.00683 V 156 Z" color="#000" display="inline" enable-background="accumulate" opacity=".08" overflow="visible" visibility="visible" style="marker:none"/><path id="path4254" fill="#fff" fill-opacity="1" fill-rule="nonzero" stroke="none" stroke-dasharray="none" stroke-dashoffset="0" stroke-linecap="butt" stroke-linejoin="miter" stroke-miterlimit="4" stroke-opacity="1" stroke-width="8" d="m 180,268 60,-60 v 22.48388 C 239.94765,264.47969 236.19732,268 201.8259,268 Z" color="#000" display="inline" enable-background="accumulate" opacity=".08" overflow="visible" visibility="visible" style="marker:none"/><path id="path1006" fill="#fff" fill-opacity="1" fill-rule="nonzero" stroke="none" stroke-width="1" d="M 326,84 V 96.251953 C 325.9567,105.09398 326.90629,106 335.73047,106 h 16.53906 C 361.09371,106 362,105.09408 362,96.251953 V 84 Z" color="#000" display="inline" enable-background="accumulate" opacity=".08" overflow="visible" visibility="visible" style="marker:none"/><path id="path1013" fill="#fff" fill-opacity="1" fill-rule="nonzero" stroke="none" stroke-width="1" d="m 344,62 v 44 h 8.26953 C 361.09371,106 362,105.09408 362,96.251953 V 84 71.748047 C 362,62.905917 361.09371,62 352.26953,62 Z" color="#000" display="inline" enable-background="accumulate" opacity=".08" overflow="visible" visibility="visible" style="marker:none"/><path id="path1007" fill="#fff" fill-opacity="1" fill-rule="nonzero" stroke="none" stroke-width="1" d="m 323,200 v 6.125 c -0.0217,4.42101 0.45314,4.875 4.86523,4.875 h 8.26954 C 340.54686,211 341,210.54607 341,206.125 V 200 Z" color="#000" display="inline" enable-background="accumulate" opacity=".08" overflow="visible" visibility="visible" style="marker:none"/><path id="path1014" fill="#fff" fill-opacity="1" fill-rule="nonzero" stroke="none" stroke-width="1" d="m 332,189 v 22 h 4.13477 C 340.54686,211 341,210.54607 341,206.125 V 200 193.875 C 341,189.45394 340.54686,189 336.13477,189 Z" color="#000" display="inline" enable-background="accumulate" opacity=".08" overflow="visible" visibility="visible" style="marker:none"/><path id="path1011" fill="#fff" fill-opacity="1" fill-rule="nonzero" stroke="none" stroke-width="1" d="m 324,148 v 7.79688 C 323.9724,161.42361 324.57798,162 330.19336,162 h 11.61523 C 347.42399,162 348,161.42369 348,155.79688 V 148 Z" color="#000" display="inline" enable-background="accumulate" opacity=".08" overflow="visible" visibility="visible" style="marker:none"/><path id="path1018" fill="#fff" fill-opacity="1" fill-rule="nonzero" stroke="none" stroke-width="1" d="m 336,134 v 28 h 5.80859 C 347.42399,162 348,161.42369 348,155.79688 V 148 140.20312 C 348,134.57632 347.42397,134 341.80859,134 Z" color="#000" display="inline" enable-background="accumulate" opacity=".08" overflow="visible" visibility="visible" style="marker:none"/><path id="path1009" fill="#fff" fill-opacity="1" fill-rule="nonzero" stroke="none" stroke-width="1" d="m 328,237 v 14 h 2.9043 C 333.712,251 334,250.71185 334,247.89844 V 244 240.10156 C 334,237.28816 333.71199,237 330.9043,237 Z" color="#000" display="inline" enable-background="accumulate" opacity=".08" overflow="visible" visibility="visible" style="marker:none"/><path id="path1016" fill="#fff" fill-opacity="1" fill-rule="nonzero" stroke="none" stroke-width="1" d="m 322,244 v 3.89844 C 321.9862,250.71181 322.28801,251 325.0957,251 h 5.8086 C 333.712,251 334,250.71185 334,247.89844 V 244 Z" color="#000" display="inline" enable-background="accumulate" opacity=".08" overflow="visible" visibility="visible" style="marker:none"/></g><g id="layer9" display="inline"><path id="path1089" fill="none" fill-opacity="1" fill-rule="nonzero" stroke="#000" stroke-opacity="1" stroke-width="1" d="m 330.19336,133.5 c -1.41241,0 -2.52238,0.0342 -3.42383,0.18555 -0.90145,0.15132 -1.61987,0.43164 -2.14258,0.95312 -0.5227,0.52148 -0.80325,1.23898 -0.95312,2.14063 -0.14988,0.90164 -0.18075,2.0101 -0.17383,3.42578 V 148 v 7.79688 c -0.007,1.41452 0.024,2.52269 0.17383,3.42382 0.14987,0.90165 0.43041,1.61915 0.95312,2.14063 0.52272,0.52148 1.24112,0.8018 2.14258,0.95312 0.90146,0.15132 2.01142,0.18555 3.42383,0.18555 h 11.61523 c 1.41241,0 2.51847,-0.0342 3.41797,-0.18555 0.8995,-0.15137 1.61597,-0.43149 2.13672,-0.95312 0.52075,-0.52163 0.80004,-1.23774 0.95117,-2.13867 0.15113,-0.90094 0.18555,-2.01055 0.18555,-3.42578 V 148 140.20312 c 0,-1.41524 -0.0344,-2.52484 -0.18555,-3.42578 -0.15113,-0.90093 -0.43042,-1.61703 -0.95117,-2.13867 -0.52075,-0.52163 -1.23722,-0.80175 -2.13672,-0.95312 C 344.32706,133.53418 343.221,133.5 341.80859,133.5 Z" color="#000" display="inline" enable-background="accumulate" opacity=".4" overflow="visible" visibility="visible" style="marker:none"/><path id="path1085" fill="none" fill-opacity="1" fill-rule="nonzero" stroke="#000" stroke-opacity="1" stroke-width="1" d="m 327.86523,188.5 c -1.11158,0 -1.98683,0.0256 -2.70703,0.14648 -0.72019,0.1209 -1.3105,0.34863 -1.74218,0.7793 -0.43169,0.43067 -0.65954,1.01974 -0.7793,1.74024 -0.11977,0.72049 -0.14217,1.59669 -0.13672,2.71093 V 200 v 6.125 c -0.005,1.1131 0.017,1.989 0.13672,2.70898 0.11976,0.72051 0.3476,1.30957 0.7793,1.74024 0.43169,0.43067 1.02199,0.6584 1.74218,0.7793 0.7202,0.12089 1.59545,0.14648 2.70703,0.14648 h 8.26954 c 1.11158,0 1.98637,-0.0255 2.70507,-0.14648 0.7187,-0.12095 1.30623,-0.34848 1.73633,-0.7793 0.4301,-0.43083 0.6566,-1.01849 0.77735,-1.73828 0.12074,-0.71979 0.14648,-1.59713 0.14648,-2.71094 V 200 193.875 c 0,-1.11381 -0.0257,-1.99115 -0.14648,-2.71094 -0.12075,-0.71979 -0.34725,-1.30745 -0.77735,-1.73828 -0.4301,-0.43082 -1.01763,-0.65835 -1.73633,-0.7793 -0.7187,-0.12094 -1.59349,-0.14648 -2.70507,-0.14648 z" color="#000" display="inline" enable-background="accumulate" opacity=".4" overflow="visible" visibility="visible" style="marker:none"/><path id="path1087" fill="none" fill-opacity="1" fill-rule="nonzero" stroke="#000" stroke-opacity="1" stroke-width="1" d="m 325.0957,236.5 c -0.71048,0 -1.27344,0.0154 -1.75195,0.0957 -0.47851,0.0803 -0.89671,0.23728 -1.20703,0.54688 -0.31032,0.30959 -0.46726,0.7261 -0.54688,1.20508 -0.0796,0.47897 -0.0933,1.04352 -0.0898,1.75586 V 244 v 3.89844 c -0.003,0.71121 0.0103,1.27546 0.0898,1.7539 0.0796,0.47898 0.23655,0.89549 0.54688,1.20508 0.31033,0.3096 0.72851,0.46655 1.20703,0.54688 0.47852,0.0803 1.04147,0.0957 1.75195,0.0957 h 5.8086 c 0.71048,0 1.27236,-0.0153 1.75,-0.0957 0.47763,-0.0804 0.89584,-0.23713 1.20508,-0.54688 0.30921,-0.30975 0.46469,-0.72681 0.54492,-1.20508 0.0802,-0.47826 0.0957,-1.04201 0.0957,-1.7539 V 244 240.10156 c 0,-0.71189 -0.0155,-1.27564 -0.0957,-1.7539 -0.0802,-0.47827 -0.2357,-0.89533 -0.54492,-1.20508 -0.30924,-0.30975 -0.72745,-0.4665 -1.20508,-0.54688 -0.47764,-0.0804 -1.03952,-0.0957 -1.75,-0.0957 z" color="#000" display="inline" enable-background="accumulate" opacity=".4" overflow="visible" visibility="visible" style="marker:none"/></g><g id="layer5" display="inline"><path id="path945" fill="#000" fill-opacity="1" fill-rule="nonzero" stroke="none" stroke-width="1" d="m 64,227.00586 v 2 C 63.82701,264.37398 67.62515,268 102.92188,268 h 98.15624 c 35.29672,0 38.00361,-3.63752 38.92188,-38.99414 v -2 C 239.08173,262.36248 236.37484,266 201.07812,266 H 102.92188 C 67.62515,266 63.82701,262.37398 64,227.00586 Z" color="#000" display="inline" enable-background="accumulate" opacity=".2" overflow="visible" visibility="visible" style="marker:none"/><path id="path935" fill="none" fill-opacity="1" fill-rule="nonzero" stroke="url(#linearGradient981)" stroke-dasharray="none" stroke-miterlimit="4" stroke-opacity="1" stroke-width="2" d="m 327.8652,189 c -4.41209,0 -4.88682,0.45318 -4.8652,4.87419 V 200 206.12581 C 322.9783,210.54682 323.45311,211 327.8652,211 h 8.2696 C 340.54689,211 341,210.54688 341,206.12581 V 200 193.87419 C 341,189.45313 340.54688,189 336.13479,189 Z" clip-path="url(#clipPath971)" color="#000" display="inline" enable-background="accumulate" opacity=".4" overflow="visible" transform="matrix(-1,0,0,1,663.99932,0)" visibility="visible" style="marker:none"/><path id="path937" fill="none" fill-opacity="1" fill-rule="nonzero" stroke="url(#linearGradient993)" stroke-dasharray="none" stroke-miterlimit="4" stroke-opacity="1" stroke-width="2" d="m 325.09646,237 c -2.80769,0 -3.10979,0.28839 -3.09603,3.10176 V 244 v 3.89824 c -0.0138,2.81337 0.28834,3.10176 3.09603,3.10176 h 5.8075 C 333.71166,251 334,250.71165 334,247.89824 V 244 240.10176 C 334,237.28836 333.71165,237 330.90396,237 Z" clip-path="url(#clipPath983)" color="#000" display="inline" enable-background="accumulate" opacity=".4" overflow="visible" transform="translate(1.5261807e-6)" visibility="visible" style="marker:none"/><path id="path939" fill="none" fill-opacity="1" fill-rule="nonzero" stroke="url(#linearGradient969)" stroke-dasharray="none" stroke-miterlimit="4" stroke-opacity="1" stroke-width="2" d="m 330.1929,133.99999 c -5.61538,0 -6.21958,0.57678 -6.19206,6.20352 v 7.79648 7.79648 c -0.0276,5.62673 0.57668,6.20351 6.19206,6.20351 h 11.615 c 5.6154,0 6.19208,-0.5767 6.19208,-6.20351 v -7.79648 -7.79648 c 0,-5.6268 -0.5767,-6.20352 -6.19208,-6.20352 z" clip-path="url(#clipPath959)" color="#000" display="inline" enable-background="accumulate" opacity=".4" overflow="visible" transform="translate(1.5261807e-6)" visibility="visible" style="marker:none"/><path id="path931" fill="#fff" fill-opacity="1" fill-rule="nonzero" stroke="none" stroke-width="1" d="M 102.92188,44 C 67.625152,44 63.82701,47.626029 64,82.994141 v 2 C 63.82701,49.626029 67.625152,46 102.92188,46 h 98.15624 C 236.37485,46 240,49.625608 240,84.994141 v -2 C 240,47.625608 236.37485,44 201.07812,44 Z" color="#000" display="inline" enable-background="accumulate" opacity=".4" overflow="visible" visibility="visible" style="marker:none"/><path id="path901" fill="none" fill-opacity="1" fill-rule="nonzero" stroke="url(#linearGradient925)" stroke-opacity="1" stroke-width="1" d="m 335.73189,61.5 c -2.21461,0 -3.94722,0.05465 -5.33203,0.287109 -1.38481,0.232456 -2.44551,0.654338 -3.21094,1.417969 -0.76543,0.763631 -1.1878,1.822342 -1.41797,3.207031 -0.23017,1.38469 -0.28039,3.118394 -0.26953,5.337891 V 84 96.251953 c -0.0108,2.218334 0.0394,3.951757 0.26953,5.335937 0.23017,1.38469 0.65253,2.4434 1.41797,3.20703 0.76544,0.76363 1.82612,1.18551 3.21094,1.41797 1.38481,0.23246 3.11742,0.28711 5.33203,0.28711 h 16.53906 c 2.2146,0 3.94454,-0.0546 5.32617,-0.28711 1.38163,-0.2325 2.44064,-0.65418 3.20313,-1.41797 0.76249,-0.76378 1.18385,-1.82305 1.41601,-3.20703 0.23217,-1.38398 0.28516,-3.116864 0.28516,-5.335937 V 84 71.748047 c 0,-2.219073 -0.053,-3.951957 -0.28516,-5.335938 -0.23216,-1.383981 -0.65352,-2.443248 -1.41601,-3.207031 -0.76249,-0.763783 -1.8215,-1.185464 -3.20313,-1.417969 C 356.21549,61.554605 354.48555,61.5 352.27095,61.5 Z" color="#000" display="inline" enable-background="accumulate" opacity=".3" overflow="visible" visibility="visible" style="marker:none"/></g></g></svg>