<svg xmlns="http://www.w3.org/2000/svg" xmlns:svg="http://www.w3.org/2000/svg" xmlns:xlink="http://www.w3.org/1999/xlink" id="svg11300" width="400" height="300" display="inline" enable-background="new" version="1.0"><title id="title3004">Suru Icon Theme Template</title><defs id="defs3"><clipPath id="clipPath9430" clipPathUnits="userSpaceOnUse"><path id="path9432" fill="#fff" fill-opacity="1" fill-rule="nonzero" stroke="none" stroke-width="1" d="m 166.0625,-196 h 179.875 C 491.2348,-196 512,-175.28677 512,-30.125 v 148.25 C 512,263.28618 491.2348,284 345.9375,284 H 166.0625 C 20.7652,284 0,263.28618 0,118.125 V -30.125 C 0,-175.28677 20.7652,-196 166.0625,-196 Z" color="#000" display="inline" enable-background="new" overflow="visible" visibility="visible" style="marker:none"/></clipPath><clipPath id="clipPath1082" clipPathUnits="userSpaceOnUse"><path id="path1084" fill="#8c59d9" fill-opacity="1" stroke="none" stroke-dasharray="none" stroke-dashoffset="0" stroke-linecap="round" stroke-linejoin="round" stroke-miterlimit="4" stroke-opacity="1" stroke-width="2" d="M 361.9375,-212 C 507.2348,-212 528,-191.28677 528,-46.125 V 70.125 C 528,215.28618 507.2348,236 361.9375,236 H 214.0625 C 68.7652,236 48,215.28618 48,70.125 V -46.125 C 48,-191.28677 68.7652,-212 214.0625,-212 Z" display="inline" enable-background="new" opacity="1"/></clipPath><filter id="filter4346" width="1.026" height="1.022" x="-.013" y="-.011" color-interpolation-filters="sRGB"><feGaussianBlur id="feGaussianBlur4348" stdDeviation="2.12"/></filter><linearGradient id="linearGradient4358" x1="88" x2="488" y1="88" y2="488" gradientUnits="userSpaceOnUse" xlink:href="#linearGradient4360"/><linearGradient id="linearGradient4360"><stop id="stop4362" offset="0" stop-color="#000" stop-opacity=".588"/><stop id="stop4364" offset=".88" stop-color="#000" stop-opacity="0"/><stop id="stop4366" offset="1" stop-color="#000" stop-opacity="1"/></linearGradient><filter id="filter4380" width="1.106" height="1.088" x="-.053" y="-.044" color-interpolation-filters="sRGB"><feGaussianBlur id="feGaussianBlur4382" stdDeviation="8.48"/></filter><linearGradient id="linearGradient4226" x1="529.655" x2="-35.31" y1="401.584" y2="119.093" gradientTransform="matrix(0,-0.453125,-0.45311204,0,277.957,268)" gradientUnits="userSpaceOnUse" xlink:href="#linearGradient10292"/><linearGradient id="linearGradient951" x1="512" x2="0" y1="397.994" y2="125.994" gradientTransform="matrix(0,-0.11328125,-0.11327801,0,379.48855,112)" gradientUnits="userSpaceOnUse" xlink:href="#linearGradient10292"/><clipPath id="clipPath994" clipPathUnits="userSpaceOnUse"><path id="path996" fill="#cdcdcd" fill-opacity="1" fill-rule="nonzero" stroke="none" stroke-dasharray="none" stroke-miterlimit="4" stroke-opacity="1" stroke-width="2" d="m 335.73108,62 c -8.82418,0 -9.77365,0.90635 -9.7304,9.74838 V 84 96.25162 c -0.0433,8.84203 0.90622,9.74838 9.7304,9.74838 h 16.53919 c 8.82418,0 9.7304,-0.90625 9.7304,-9.74838 V 84 71.74838 C 362.00067,62.90625 361.09445,62 352.27027,62 Z" color="#000" display="inline" enable-background="accumulate" overflow="visible" visibility="visible" style="marker:none"/></clipPath><linearGradient id="linearGradient916" x1="459.034" x2="35.31" y1="419.233" y2="207.365" gradientTransform="matrix(0,-0.05664062,-0.05663901,0,349.74456,214)" gradientUnits="userSpaceOnUse" xlink:href="#linearGradient10292"/><linearGradient id="linearGradient920" x1="459.034" x2="35.31" y1="419.233" y2="207.365" gradientTransform="matrix(0,-0.03604403,-0.03604301,0,339.56432,252.90909)" gradientUnits="userSpaceOnUse" xlink:href="#linearGradient10292"/><linearGradient id="linearGradient924" x1="459.034" x2="35.31" y1="419.233" y2="207.365" gradientTransform="matrix(0,-0.07208805,-0.07208601,0,359.12864,165.81816)" gradientUnits="userSpaceOnUse" xlink:href="#linearGradient10292"/><linearGradient id="linearGradient927"><stop id="stop923" offset="0" stop-color="#fff" stop-opacity="1"/><stop id="stop933" offset=".125" stop-color="#fff" stop-opacity=".098"/><stop id="stop931" offset=".925" stop-color="#fff" stop-opacity=".098"/><stop id="stop925" offset="1" stop-color="#fff" stop-opacity=".498"/></linearGradient><clipPath id="clipPath994-5" clipPathUnits="userSpaceOnUse"><path id="path996-3" fill="#cdcdcd" fill-opacity="1" fill-rule="nonzero" stroke="none" stroke-dasharray="none" stroke-miterlimit="4" stroke-opacity="1" stroke-width="2" d="m 335.73108,62 c -8.82418,0 -9.77365,0.90635 -9.7304,9.74838 V 84 96.25162 c -0.0433,8.84203 0.90622,9.74838 9.7304,9.74838 h 16.53919 c 8.82418,0 9.7304,-0.90625 9.7304,-9.74838 V 84 71.74838 C 362.00067,62.90625 361.09445,62 352.27027,62 Z" color="#000" display="inline" enable-background="accumulate" overflow="visible" visibility="visible" style="marker:none"/></clipPath><linearGradient id="linearGradient981" x1="332" x2="332" y1="189" y2="211" gradientUnits="userSpaceOnUse" xlink:href="#linearGradient927"/><clipPath id="clipPath971" clipPathUnits="userSpaceOnUse"><path id="path973" fill="#46a926" fill-opacity="1" fill-rule="nonzero" stroke="none" stroke-dasharray="none" stroke-miterlimit="4" stroke-opacity="1" stroke-width="2" d="m 327.8652,189 c -4.41209,0 -4.88682,0.45318 -4.8652,4.87419 V 200 206.12581 C 322.9783,210.54682 323.45311,211 327.8652,211 h 8.2696 C 340.54689,211 341,210.54688 341,206.12581 V 200 193.87419 C 341,189.45313 340.54688,189 336.13479,189 Z" color="#000" display="inline" enable-background="accumulate" opacity="1" overflow="visible" visibility="visible" style="marker:none"/></clipPath><linearGradient id="linearGradient993" x1="328" x2="328" y1="237" y2="251" gradientUnits="userSpaceOnUse" xlink:href="#linearGradient927"/><clipPath id="clipPath983" clipPathUnits="userSpaceOnUse"><path id="path985" fill="#46a926" fill-opacity="1" fill-rule="nonzero" stroke="none" stroke-dasharray="none" stroke-miterlimit="4" stroke-opacity="1" stroke-width="2" d="m 325.09646,237 c -2.80769,0 -3.10979,0.28839 -3.09603,3.10176 V 244 v 3.89824 c -0.0138,2.81337 0.28834,3.10176 3.09603,3.10176 h 5.8075 C 333.71166,251 334,250.71165 334,247.89824 V 244 240.10176 C 334,237.28836 333.71165,237 330.90396,237 Z" color="#000" display="inline" enable-background="accumulate" opacity="1" overflow="visible" visibility="visible" style="marker:none"/></clipPath><linearGradient id="linearGradient969" x1="336" x2="336" y1="134" y2="162" gradientUnits="userSpaceOnUse" xlink:href="#linearGradient927"/><clipPath id="clipPath959" clipPathUnits="userSpaceOnUse"><path id="path961" fill="#46a926" fill-opacity="1" fill-rule="nonzero" stroke="none" stroke-dasharray="none" stroke-miterlimit="4" stroke-opacity="1" stroke-width="2" d="m 330.1929,133.99999 c -5.61538,0 -6.21958,0.57678 -6.19206,6.20352 v 7.79648 7.79648 c -0.0276,5.62673 0.57668,6.20351 6.19206,6.20351 h 11.615 c 5.6154,0 6.19208,-0.5767 6.19208,-6.20351 v -7.79648 -7.79648 c 0,-5.6268 -0.5767,-6.20352 -6.19208,-6.20352 z" color="#000" display="inline" enable-background="accumulate" opacity="1" overflow="visible" visibility="visible" style="marker:none"/></clipPath><linearGradient id="linearGradient7701"><stop id="stop7699" offset="0" stop-color="#950ba8" stop-opacity="1"/><stop id="stop7693" offset="1" stop-color="#c557bc" stop-opacity="1"/></linearGradient><linearGradient id="linearGradient21865" x1="1278" x2="1278" y1="-1062.638" y2="-1118.638" gradientTransform="matrix(2,0,0,2.00002,-1069,630.656)" gradientUnits="userSpaceOnUse" xlink:href="#linearGradient8754"/><linearGradient id="linearGradient8754"><stop id="stop8756" offset="0" stop-color="#dc85e9" stop-opacity="1"/><stop id="stop8758" offset="1" stop-color="#f8dcfb" stop-opacity="1"/></linearGradient><linearGradient id="linearGradient21867" x1="1559.5" x2="1542" y1="184" y2="184" gradientTransform="matrix(-1,0,0,1,2865,-1753.64)" gradientUnits="userSpaceOnUse" xlink:href="#linearGradient8742"/><linearGradient id="linearGradient8742"><stop id="stop8744" offset="0" stop-color="#9200ff" stop-opacity="1"/><stop id="stop8746" offset="1" stop-color="#f0f" stop-opacity="0"/></linearGradient><linearGradient id="linearGradient21869" x1="1559.5" x2="1542" y1="184" y2="184" gradientTransform="translate(-123,-1753.64)" gradientUnits="userSpaceOnUse" xlink:href="#linearGradient8742"/><radialGradient id="radialGradient21871" cx="152.333" cy="-754.638" r="15" fx="152.333" fy="-754.638" gradientTransform="matrix(4.06286e-6,1.01528,-4.27735,0,-1857.01,-1670.52)" gradientUnits="userSpaceOnUse" xlink:href="#linearGradient8717"/><linearGradient id="linearGradient8717"><stop id="stop8719" offset="0" stop-color="purple" stop-opacity="1"/><stop id="stop8723" offset=".727" stop-color="purple" stop-opacity="1"/><stop id="stop8721" offset="1" stop-color="#f0f" stop-opacity="0"/></linearGradient><linearGradient id="linearGradient21873" x1="453.5" x2="404.5" y1="970.5" y2="970.5" gradientTransform="matrix(2,0,0,2,513,-3495.64)" gradientUnits="userSpaceOnUse" xlink:href="#linearGradient8964"/><linearGradient id="linearGradient8964"><stop id="stop8966" offset="0" stop-color="#e196fb" stop-opacity="1"/><stop id="stop8968" offset=".13" stop-color="#f4c7fa" stop-opacity="1"/><stop id="stop8970" offset=".314" stop-color="#e091f3" stop-opacity="1"/><stop id="stop8972" offset=".441" stop-color="#d764e9" stop-opacity="1"/><stop id="stop8974" offset=".684" stop-color="#e7adf0" stop-opacity="1"/><stop id="stop8976" offset=".756" stop-color="#e6a9f8" stop-opacity="1"/><stop id="stop8978" offset=".88" stop-color="#e595f2" stop-opacity="1"/><stop id="stop8980" offset="1" stop-color="#f2cbf8" stop-opacity="1"/></linearGradient><linearGradient id="linearGradient21875" x1="1322" x2="1419" y1="-1568.511" y2="-1568.511" gradientTransform="translate(0.022825,4.5e-5)" gradientUnits="userSpaceOnUse" xlink:href="#linearGradient8663"/><linearGradient id="linearGradient8663"><stop id="stop8665" offset="0" stop-color="#9207a7" stop-opacity="1"/><stop id="stop8667" offset=".273" stop-color="#c658bc" stop-opacity="1"/><stop id="stop8669" offset=".51" stop-color="#a42eb6" stop-opacity="1"/><stop id="stop8671" offset=".834" stop-color="#b415cd" stop-opacity="1"/><stop id="stop8673" offset="1" stop-color="#950ba8" stop-opacity="1"/></linearGradient><radialGradient id="radialGradient21877" cx="518.854" cy="730.484" r="22.89" fx="518.854" fy="730.484" gradientTransform="matrix(0.959821,0,1.35768e-7,0.268231,21.681,534.374)" gradientUnits="userSpaceOnUse" xlink:href="#linearGradient14494"/><linearGradient id="linearGradient14494"><stop id="stop14496" offset="0" stop-color="#dc85e9" stop-opacity="1"/><stop id="stop14498" offset="1" stop-color="#f2cbf8" stop-opacity="1"/></linearGradient><linearGradient id="linearGradient8859"><stop id="stop8861" offset="0" stop-color="#fff" stop-opacity="1"/><stop id="stop8863" offset="1" stop-color="#a00" stop-opacity="0"/></linearGradient><linearGradient id="linearGradient21881" x1="1510.477" x2="1485.877" y1="169" y2="194" gradientTransform="matrix(0.984483,0,0,0.972527,-100.349,-1748.97)" gradientUnits="userSpaceOnUse" xlink:href="#linearGradient8984"/><linearGradient id="linearGradient8984"><stop id="stop8986" offset="0" stop-color="#fff" stop-opacity="1"/><stop id="stop8988" offset="1" stop-color="#fff" stop-opacity="0"/></linearGradient><linearGradient id="linearGradient21883" x1="1354.568" x2="1383.38" y1="-1522.359" y2="-1543.981" gradientTransform="matrix(0.976263,0.126435,-0.367421,0.97673,-556.181,-210.596)" gradientUnits="userSpaceOnUse" xlink:href="#linearGradient8984"/><linearGradient id="linearGradient4338"><stop id="stop4340" offset="0" stop-color="#f2f2f2" stop-opacity="1"/><stop id="stop4342" offset="1" stop-color="#f9f9f9" stop-opacity="1"/></linearGradient><linearGradient id="linearGradient1144" x1="208" x2="96" y1="28" y2="284" gradientUnits="userSpaceOnUse" xlink:href="#linearGradient4338"/><linearGradient id="linearGradient1234" x1="352" x2="332" y1="60" y2="108" gradientUnits="userSpaceOnUse" xlink:href="#linearGradient4338"/><linearGradient id="linearGradient1309" x1="332" x2="324" y1="236" y2="252" gradientUnits="userSpaceOnUse" xlink:href="#linearGradient4338"/><linearGradient id="linearGradient1311" x1="336" x2="324" y1="188" y2="212" gradientUnits="userSpaceOnUse" xlink:href="#linearGradient4338"/><linearGradient id="linearGradient1313" x1="340" x2="328" y1="132" y2="164" gradientUnits="userSpaceOnUse" xlink:href="#linearGradient4338"/><linearGradient id="linearGradient22171" x1="815.125" x2="815.125" y1="-1491.638" y2="-1543.638" gradientTransform="matrix(1.64102,0,0,0.500001,2374.52,-746.817)" gradientUnits="userSpaceOnUse" xlink:href="#linearGradient10478"/><linearGradient id="linearGradient10478"><stop id="stop10480" offset="0" stop-color="#727272" stop-opacity="1"/><stop id="stop10482" offset="1" stop-color="#B3B3B3" stop-opacity="1"/></linearGradient><linearGradient id="linearGradient22173" x1="3793.25" x2="3793.25" y1="-1603.647" y2="-1561.387" gradientUnits="userSpaceOnUse" xlink:href="#linearGradient10331"/><linearGradient id="linearGradient10331"><stop id="stop10333" offset="0" stop-color="#CCC" stop-opacity="1"/><stop id="stop10335" offset="1" stop-color="#B3B3B3" stop-opacity="1"/></linearGradient><linearGradient id="linearGradient22175" x1="3658.22" x2="3658.22" y1="-1076.625" y2="-1117.844" gradientTransform="matrix(1.90625,0,0,1.85714,-3264.03,477.832)" gradientUnits="userSpaceOnUse" xlink:href="#linearGradient9981"/><linearGradient id="linearGradient9981"><stop id="stop9983" offset="0" stop-color="#FFF6DD" stop-opacity="1"/><stop id="stop9985" offset="1" stop-color="#FEF8F4" stop-opacity="1"/></linearGradient><linearGradient id="linearGradient10216"><stop id="stop10218" offset="0" stop-color="#FC5C00" stop-opacity="1"/><stop id="stop10220" offset="1" stop-color="#CCC" stop-opacity="0"/></linearGradient><linearGradient id="linearGradient22179" x1="3682" x2="3682" y1="-1515.003" y2="-1494.843" gradientTransform="matrix(1.01667,0,0,1.1,-62.1745,148.467)" gradientUnits="userSpaceOnUse" xlink:href="#linearGradient10303"/><linearGradient id="linearGradient10303"><stop id="stop10305" offset="0" stop-color="#FFF" stop-opacity="1"/><stop id="stop10307" offset="1" stop-color="#F2F2F2" stop-opacity="1"/></linearGradient><linearGradient id="linearGradient22195" x1="3669.452" x2="3669.452" y1="-1068.818" y2="-1073.573" gradientUnits="userSpaceOnUse" xlink:href="#linearGradient10412"/><linearGradient id="linearGradient10412"><stop id="stop10414" offset="0" stop-color="#000" stop-opacity="1"/><stop id="stop10416" offset="1" stop-color="#4D4D4D" stop-opacity="1"/></linearGradient><linearGradient id="linearGradient22197" x1="3715.894" x2="3715.894" y1="693.037" y2="695.848" gradientTransform="matrix(12.0378,0,0,12.0329,-41007.4,-9931.87)" gradientUnits="userSpaceOnUse" xlink:href="#linearGradient9860"/><linearGradient id="linearGradient9860"><stop id="stop9862" offset="0" stop-color="#666" stop-opacity="1"/><stop id="stop9864" offset="1" stop-color="gray" stop-opacity="1"/></linearGradient><linearGradient id="linearGradient22199" x1="3715.894" x2="3715.894" y1="694.657" y2="696.496" gradientTransform="matrix(12.0378,0,0,12.0329,-41007.4,-9931.87)" gradientUnits="userSpaceOnUse" xlink:href="#linearGradient9860"/><linearGradient id="linearGradient22201" x1="-17" x2="144" y1="-1194.638" y2="-1194.638" gradientTransform="matrix(0.745342,0,0,1,3682.67,-329)" gradientUnits="userSpaceOnUse" xlink:href="#linearGradient10295"/><linearGradient id="linearGradient10295"><stop id="stop10297" offset="0" stop-color="#E9B913" stop-opacity="0"/><stop id="stop10299" offset=".493" stop-color="#FC5C00" stop-opacity="1"/><stop id="stop10301" offset="1" stop-color="#E9B913" stop-opacity="0"/></linearGradient><linearGradient id="linearGradient8074-2"><stop id="stop8076-1" offset="0" stop-color="#000" stop-opacity="0"/><stop id="stop8078-94" offset=".493" stop-color="#000" stop-opacity="1"/><stop id="stop8080-0" offset="1" stop-color="#000" stop-opacity="0"/></linearGradient><linearGradient id="linearGradient7931-2"><stop id="stop7933-1" offset="0" stop-color="#000" stop-opacity="1"/><stop id="stop7968-3" offset=".455" stop-color="#000" stop-opacity=".361"/><stop id="stop7935-7" offset="1" stop-color="#000" stop-opacity="0"/></linearGradient><linearGradient id="linearGradient7303-9"><stop id="stop7305-0" offset="0" stop-color="#000" stop-opacity="1"/><stop id="stop7307-6" offset="1" stop-color="#000" stop-opacity="0"/></linearGradient><linearGradient id="linearGradient1393" x1="3669.452" x2="3669.452" y1="-1068.818" y2="-1073.573" gradientUnits="userSpaceOnUse" xlink:href="#linearGradient10412"/><linearGradient id="linearGradient1395" x1="3669.452" x2="3669.452" y1="-1068.818" y2="-1073.573" gradientUnits="userSpaceOnUse" xlink:href="#linearGradient10412"/><linearGradient id="linearGradient1397" x1="3669.452" x2="3669.452" y1="-1068.818" y2="-1073.573" gradientUnits="userSpaceOnUse" xlink:href="#linearGradient10412"/><linearGradient id="linearGradient1399" x1="3669.452" x2="3669.452" y1="-1068.818" y2="-1073.573" gradientUnits="userSpaceOnUse" xlink:href="#linearGradient10412"/><linearGradient id="linearGradient1401" x1="3669.452" x2="3669.452" y1="-1068.818" y2="-1073.573" gradientUnits="userSpaceOnUse" xlink:href="#linearGradient10412"/><linearGradient id="linearGradient1403" x1="3669.452" x2="3669.452" y1="-1068.818" y2="-1073.573" gradientUnits="userSpaceOnUse" xlink:href="#linearGradient10412"/><linearGradient id="linearGradient1405" x1="3669.452" x2="3669.452" y1="-1068.818" y2="-1073.573" gradientUnits="userSpaceOnUse" xlink:href="#linearGradient10412"/><linearGradient id="linearGradient10292"><stop id="stop10294" offset="0" stop-color="#666" stop-opacity="1"/><stop id="stop10296" offset="1" stop-color="#333" stop-opacity="1"/></linearGradient><linearGradient id="linearGradient10725"><stop id="stop10727" offset="0" stop-color="#FFF6DD" stop-opacity="1"/><stop id="stop10729" offset="1" stop-color="#FFF" stop-opacity="1"/></linearGradient><linearGradient id="linearGradient54806" x1="3618.438" x2="3618.438" y1="-758.638" y2="-772.638" gradientTransform="matrix(1.5,0,0,1.57143,-1803,336.508)" gradientUnits="userSpaceOnUse" xlink:href="#linearGradient15606-5"/><linearGradient id="linearGradient15606-5"><stop id="stop15608-1" offset="0" stop-color="#FFF" stop-opacity=".588"/><stop id="stop15610-5-7" offset="1" stop-color="#FFF" stop-opacity=".863"/></linearGradient><linearGradient id="linearGradient8485" x1="3716.162" x2="3716.162" y1="683.977" y2="705.131" gradientUnits="userSpaceOnUse" xlink:href="#linearGradient10292"/><linearGradient id="linearGradient54797" x1="195.75" x2="195.75" y1="1016.237" y2="1032.238" gradientTransform="translate(3435.5,-1891.5)" gradientUnits="userSpaceOnUse" xlink:href="#linearGradient10292"/><linearGradient id="linearGradient54794" x1="195.75" x2="195.75" y1="1016.237" y2="1032.238" gradientTransform="matrix(-1,0,0,1,3830.5,-1892)" gradientUnits="userSpaceOnUse" xlink:href="#linearGradient10292"/><linearGradient id="linearGradient1807" x1="3716.162" x2="3716.162" y1="683.977" y2="705.131" gradientUnits="userSpaceOnUse" xlink:href="#linearGradient10292"/><linearGradient id="linearGradient54821" x1="3618.438" x2="3618.438" y1="-758.638" y2="-772.638" gradientTransform="translate(-0.00120978,9.9e-6)" gradientUnits="userSpaceOnUse" xlink:href="#linearGradient15606-5"/><linearGradient id="linearGradient8365" x1="3716.162" x2="3716.162" y1="683.977" y2="705.131" gradientUnits="userSpaceOnUse" xlink:href="#linearGradient10292"/><linearGradient id="linearGradient8363" x1="3716.162" x2="3716.162" y1="685.14" y2="706.417" gradientUnits="userSpaceOnUse" xlink:href="#linearGradient10292"/><linearGradient id="linearGradient54812" x1="195.75" x2="195.75" y1="1006.37" y2="1038.364" gradientTransform="translate(3426.5,-1791)" gradientUnits="userSpaceOnUse" xlink:href="#linearGradient10292"/><linearGradient id="linearGradient54809" x1="195.75" x2="195.75" y1="1006.806" y2="1038.862" gradientTransform="matrix(-1,0,0,1,3821.5,-1791.5)" gradientUnits="userSpaceOnUse" xlink:href="#linearGradient10292"/><linearGradient id="linearGradient54827" x1="195.75" x2="195.75" y1="1016.237" y2="1032.238" gradientTransform="matrix(-1,0,0,1,527.0012,-780.3621)" gradientUnits="userSpaceOnUse" xlink:href="#linearGradient10292"/><linearGradient id="linearGradient54830" x1="195.75" x2="195.75" y1="1016.237" y2="1032.238" gradientTransform="translate(132.5012,-780.3621)" gradientUnits="userSpaceOnUse" xlink:href="#linearGradient10292"/><linearGradient id="linearGradient1882" x1="195.75" x2="195.75" y1="1016.237" y2="1032.238" gradientTransform="translate(132.5012,-780.3621)" gradientUnits="userSpaceOnUse" xlink:href="#linearGradient10292"/><linearGradient id="linearGradient1921" x1="3618.438" x2="3618.438" y1="-758.638" y2="-772.638" gradientTransform="translate(-3288,966.63783)" gradientUnits="userSpaceOnUse" xlink:href="#linearGradient15606-5"/><linearGradient id="linearGradient1974" x1="195.75" x2="195.75" y1="1016.237" y2="1032.238" gradientTransform="translate(138.00131,-823.86221)" gradientUnits="userSpaceOnUse" xlink:href="#linearGradient10292"/><linearGradient id="linearGradient1976" x1="195.75" x2="195.75" y1="1016.237" y2="1032.238" gradientTransform="translate(136.5012,-824.3621)" gradientUnits="userSpaceOnUse" xlink:href="#linearGradient10292"/><linearGradient id="linearGradient1978" x1="195.75" x2="195.75" y1="1016.237" y2="1032.238" gradientTransform="matrix(-1,0,0,1,532.50131,-823.86221)" gradientUnits="userSpaceOnUse" xlink:href="#linearGradient10292"/><linearGradient id="linearGradient2040" x1="529.25" x2="535" y1="-1568.638" y2="-1574.638" gradientTransform="matrix(2.5,0,0,6.33333,2347.5,8412.07)" gradientUnits="userSpaceOnUse" xlink:href="#linearGradient10216"/><linearGradient id="linearGradient2042" x1="-17" x2="144" y1="-1194.638" y2="-1194.638" gradientTransform="matrix(0.459627,0,0,1,-1589.82,-2476.36)" gradientUnits="userSpaceOnUse" xlink:href="#linearGradient10295"/><linearGradient id="linearGradient2044" x1="-17" x2="144" y1="-1194.638" y2="-1194.638" gradientTransform="matrix(0.482919,0,0,1,-1591.18,-2474.36)" gradientUnits="userSpaceOnUse" xlink:href="#linearGradient8074-2"/><linearGradient id="linearGradient2046" x1="152" x2="113.882" y1="-1192.638" y2="-1230.756" gradientTransform="matrix(0.243902,0,0,0.243902,3752.93,-1205.75)" gradientUnits="userSpaceOnUse" xlink:href="#linearGradient7931-2"/><linearGradient id="linearGradient2048" x1="364.867" x2="389.102" y1="300.819" y2="276.584" gradientTransform="translate(3301,-1793.64)" gradientUnits="userSpaceOnUse" xlink:href="#linearGradient7303-9"/><linearGradient id="linearGradient2050" x1="-17" x2="144" y1="-1194.638" y2="-1194.638" gradientTransform="matrix(0.136646,0,0,0.999984,-1515.31,-2474.38)" gradientUnits="userSpaceOnUse" xlink:href="#linearGradient8074-2"/><linearGradient id="linearGradient925" x1="344" x2="344" y1="61" y2="107" gradientTransform="translate(0.00141986)" gradientUnits="userSpaceOnUse" xlink:href="#linearGradient927-3-6"/><linearGradient id="linearGradient927-3-6"><stop id="stop923-3" offset="0" stop-color="#fff" stop-opacity="1"/><stop id="stop933-6" offset=".125" stop-color="#fff" stop-opacity=".098"/><stop id="stop931-7" offset=".925" stop-color="#fff" stop-opacity=".098"/><stop id="stop925-5" offset="1" stop-color="#000" stop-opacity=".498"/></linearGradient></defs><metadata id="metadata4"/><g id="layer1" display="inline"><g id="layer7" display="none"><text enable-background="new" style="line-height:0%;-inkscape-font-specification:'DejaVu Sans'" id="context" x="19.007" y="-8.255" fill="#000" fill-opacity="1" stroke="none" display="inline" font-family="DejaVu Sans" font-stretch="normal" font-style="normal" font-variant="normal" font-weight="normal" xml:space="preserve"><tspan id="tspan3933" x="19.007" y="-8.255" font-family="DejaVu Sans" font-size="18" font-stretch="normal" font-style="normal" font-variant="normal" font-weight="normal" style="line-height:1.25;-inkscape-font-specification:'DejaVu Sans'">mimetypes</tspan></text><text id="icon-name" x="146.488" y="-8.255" fill="#000" fill-opacity="1" stroke="none" display="inline" enable-background="new" font-family="DejaVu Sans" font-stretch="normal" font-style="normal" font-variant="normal" font-weight="bold" text-anchor="start" writing-mode="lr-tb" xml:space="preserve" style="line-height:0%;-inkscape-font-specification:'DejaVu Sans Bold';text-align:start"><tspan id="tspan3937" x="146.488" y="-8.255" font-family="DejaVu Sans" font-size="18" font-stretch="normal" font-style="normal" font-variant="normal" font-weight="bold" style="line-height:1.25;-inkscape-font-specification:'DejaVu Sans Bold'">libreoffice-oasis-formula</tspan></text><rect id="rect16x16" width="16" height="16" x="320" y="236" fill="#cdcdcd" fill-opacity="1" fill-rule="nonzero" stroke="none" stroke-width="2" display="inline" enable-background="accumulate" overflow="visible" visibility="visible" style="marker:none"/><rect id="rect24x24" width="24" height="24" x="320" y="188" fill="#cdcdcd" fill-opacity="1" fill-rule="nonzero" stroke="none" stroke-width="2" display="inline" enable-background="accumulate" overflow="visible" visibility="visible" style="marker:none"/><rect id="rect32x32" width="32" height="32" x="320" y="132" fill="#cdcdcd" fill-opacity="1" fill-rule="nonzero" stroke="none" stroke-width="2" display="inline" enable-background="accumulate" overflow="visible" visibility="visible" style="marker:none"/><rect id="rect48x48" width="48" height="48" x="320" y="60" fill="#cdcdcd" fill-opacity="1" fill-rule="nonzero" stroke="none" stroke-width="2" display="inline" enable-background="accumulate" overflow="visible" visibility="visible" style="marker:none"/><rect id="rect3951" width="256" height="256" x="24" y="28" fill="#cdcdcd" fill-opacity="1" fill-rule="nonzero" stroke="none" stroke-width="2" display="inline" enable-background="accumulate" overflow="visible" visibility="visible" style="marker:none"/><path id="path995" fill="#000" fill-opacity="1" fill-rule="nonzero" stroke="none" stroke-dasharray="none" stroke-dashoffset="0" stroke-linecap="butt" stroke-linejoin="miter" stroke-miterlimit="4" stroke-opacity="1" stroke-width="2" d="m 327.86523,189 c -1.12014,0 -2.01524,0.0241 -2.79101,0.1543 -0.77577,0.13022 -1.48014,0.38763 -2.00977,0.91601 -0.52962,0.52838 -0.79079,1.23687 -0.91992,2.01367 -0.12912,0.77681 -0.15002,1.67169 -0.14453,2.79493 V 201 v 5.125 c -0.005,1.12104 0.0156,2.01529 0.14453,2.79102 0.12912,0.77681 0.39029,1.48529 0.91992,2.01367 0.52964,0.52838 1.234,0.78579 2.00977,0.91601 0.77577,0.13022 1.67087,0.1543 2.79101,0.1543 h 8.26954 c 1.12013,0 2.01264,-0.024 2.78711,-0.1543 0.77446,-0.13033 1.48001,-0.38927 2.00781,-0.91797 0.5278,-0.52869 0.78594,-1.23438 0.91601,-2.00976 C 341.97577,208.14258 342,207.24735 342,206.125 V 201 194.875 c 0,-1.12235 -0.0242,-2.01758 -0.1543,-2.79297 -0.13007,-0.77538 -0.38821,-1.48107 -0.91601,-2.00976 -0.5278,-0.5287 -1.23334,-0.78764 -2.00781,-0.91797 C 338.1474,189.02397 337.25491,189 336.13477,189 Z" baseline-shift="baseline" clip-rule="nonzero" color="#000" color-interpolation="sRGB" color-interpolation-filters="linearRGB" color-rendering="auto" direction="ltr" display="inline" dominant-baseline="auto" enable-background="accumulate" font-family="sans-serif" font-size="medium" font-stretch="normal" font-style="normal" font-variant="normal" font-weight="normal" image-rendering="auto" letter-spacing="normal" opacity=".1" overflow="visible" shape-rendering="auto" text-anchor="start" text-decoration="none" text-rendering="auto" vector-effect="none" visibility="visible" word-spacing="normal" writing-mode="lr-tb" style="line-height:normal;font-variant-ligatures:normal;font-variant-position:normal;font-variant-caps:normal;font-variant-numeric:normal;font-variant-alternates:normal;font-feature-settings:normal;text-indent:0;text-align:start;text-decoration-line:none;text-decoration-style:solid;text-decoration-color:#000;text-transform:none;text-orientation:mixed;white-space:normal;shape-padding:0;isolation:auto;mix-blend-mode:normal;solid-color:#000;solid-opacity:1;marker:none"/><path id="path997" fill="#000" fill-opacity="1" fill-rule="nonzero" stroke="none" stroke-dasharray="none" stroke-dashoffset="0" stroke-linecap="butt" stroke-linejoin="miter" stroke-miterlimit="4" stroke-opacity="1" stroke-width="2" d="m 325.0957,237 c -0.71904,0 -1.30185,0.0139 -1.83593,0.10352 -0.53409,0.0897 -1.0683,0.27628 -1.47657,0.68359 -0.40826,0.4073 -0.59657,0.94323 -0.68554,1.47851 -0.089,0.53529 -0.10119,1.12048 -0.0977,1.8418 V 244 v 3.89844 c -0.003,0.71816 0.009,1.30235 0.0977,1.83594 0.089,0.53528 0.27727,1.07121 0.68554,1.47851 0.40827,0.40731 0.94248,0.59394 1.47657,0.68359 0.53408,0.0897 1.11689,0.10352 1.83593,0.10352 h 5.8086 c 0.71904,0 1.30058,-0.0137 1.83398,-0.10352 0.53341,-0.0898 1.06768,-0.27792 1.47461,-0.68554 0.40693,-0.40762 0.59404,-0.94271 0.68359,-1.47656 C 334.98604,249.20052 335,248.61887 335,247.89844 V 244 241.10156 c 0,-0.72043 -0.014,-1.30208 -0.10352,-1.83594 -0.0895,-0.53385 -0.27666,-1.06894 -0.68359,-1.47656 -0.40693,-0.40762 -0.9412,-0.59578 -1.47461,-0.68554 C 332.20488,237.01375 331.62334,237 330.9043,237 Z" baseline-shift="baseline" clip-rule="nonzero" color="#000" color-interpolation="sRGB" color-interpolation-filters="linearRGB" color-rendering="auto" direction="ltr" display="inline" dominant-baseline="auto" enable-background="accumulate" font-family="sans-serif" font-size="medium" font-stretch="normal" font-style="normal" font-variant="normal" font-weight="normal" image-rendering="auto" letter-spacing="normal" opacity=".1" overflow="visible" shape-rendering="auto" text-anchor="start" text-decoration="none" text-rendering="auto" vector-effect="none" visibility="visible" word-spacing="normal" writing-mode="lr-tb" style="line-height:normal;font-variant-ligatures:normal;font-variant-position:normal;font-variant-caps:normal;font-variant-numeric:normal;font-variant-alternates:normal;font-feature-settings:normal;text-indent:0;text-align:start;text-decoration-line:none;text-decoration-style:solid;text-decoration-color:#000;text-transform:none;text-orientation:mixed;white-space:normal;shape-padding:0;isolation:auto;mix-blend-mode:normal;solid-color:#000;solid-opacity:1;marker:none"/><path id="path999" fill="#000" fill-opacity="1" fill-rule="nonzero" stroke="none" stroke-dasharray="none" stroke-dashoffset="0" stroke-linecap="butt" stroke-linejoin="miter" stroke-miterlimit="4" stroke-opacity="1" stroke-width="2" d="m 330.19336,134 c -1.42096,0 -2.54883,0.0308 -3.50586,0.19141 -0.95703,0.16064 -1.79146,0.4726 -2.41211,1.09179 -0.62065,0.61919 -0.93647,1.45612 -1.0957,2.41407 -0.15924,0.95795 -0.18666,2.08705 -0.17969,3.51171 V 149 v 7.79688 c -0.007,1.42131 0.0207,2.5495 0.17969,3.50585 0.15923,0.95796 0.47505,1.79488 1.0957,2.41407 0.62065,0.61919 1.45508,0.93115 2.41211,1.09179 0.95703,0.16065 2.0849,0.19141 3.50586,0.19141 h 11.61523 c 1.42097,0 2.54669,-0.0307 3.50196,-0.19141 0.95527,-0.16075 1.78779,-0.47425 2.40625,-1.09375 0.61845,-0.6195 0.93134,-1.45363 1.09179,-2.41015 C 348.96905,159.34816 349,158.22066 349,156.79688 V 149 141.20312 c 0,-1.42378 -0.031,-2.55128 -0.19141,-3.50781 -0.16045,-0.95653 -0.47334,-1.79065 -1.09179,-2.41015 -0.61846,-0.61951 -1.45098,-0.933 -2.40625,-1.09375 C 344.35528,134.03065 343.22956,134 341.80859,134 Z" baseline-shift="baseline" clip-rule="nonzero" color="#000" color-interpolation="sRGB" color-interpolation-filters="linearRGB" color-rendering="auto" direction="ltr" display="inline" dominant-baseline="auto" enable-background="accumulate" font-family="sans-serif" font-size="medium" font-stretch="normal" font-style="normal" font-variant="normal" font-weight="normal" image-rendering="auto" letter-spacing="normal" opacity=".1" overflow="visible" shape-rendering="auto" text-anchor="start" text-decoration="none" text-rendering="auto" vector-effect="none" visibility="visible" word-spacing="normal" writing-mode="lr-tb" style="line-height:normal;font-variant-ligatures:normal;font-variant-position:normal;font-variant-caps:normal;font-variant-numeric:normal;font-variant-alternates:normal;font-feature-settings:normal;text-indent:0;text-align:start;text-decoration-line:none;text-decoration-style:solid;text-decoration-color:#000;text-transform:none;text-orientation:mixed;white-space:normal;shape-padding:0;isolation:auto;mix-blend-mode:normal;solid-color:#000;solid-opacity:1;marker:none"/></g><g id="layer4" display="none"><path id="path1020" fill="#000" fill-opacity="1" fill-rule="nonzero" stroke="none" stroke-dasharray="none" stroke-dashoffset="0" stroke-linecap="butt" stroke-linejoin="miter" stroke-miterlimit="4" stroke-opacity="1" stroke-width="2" d="m 335.73047,62 c -2.22316,0 -3.97368,0.05118 -5.41406,0.292969 -1.44039,0.241784 -2.61905,0.695299 -3.48243,1.55664 -0.86337,0.861342 -1.31906,2.039471 -1.55859,3.480469 -0.23953,1.440999 -0.28629,3.195341 -0.27539,5.423828 V 85 97.251953 c -0.0108,2.225063 0.0361,3.978517 0.27539,5.417967 0.23953,1.441 0.69522,2.61913 1.55859,3.48047 0.86338,0.86134 2.04204,1.31486 3.48243,1.55664 1.44039,0.24179 3.1909,0.29297 5.41406,0.29297 h 16.53906 c 2.22316,0 3.97276,-0.0511 5.41016,-0.29297 1.4374,-0.24189 2.61246,-0.69694 3.47265,-1.55859 0.8602,-0.86165 1.3132,-2.03894 1.55469,-3.47852 C 362.94852,101.23035 363,99.479567 363,97.251953 V 85 72.748047 c 0,-2.227614 -0.0515,-3.978392 -0.29297,-5.417969 -0.24149,-1.439576 -0.69449,-2.616863 -1.55469,-3.478516 -0.86019,-0.861652 -2.03525,-1.316704 -3.47265,-1.558593 C 356.24229,62.051079 354.49269,62 352.26953,62 Z" baseline-shift="baseline" clip-rule="nonzero" color="#000" color-interpolation="sRGB" color-interpolation-filters="linearRGB" color-rendering="auto" direction="ltr" display="inline" dominant-baseline="auto" enable-background="accumulate" font-family="sans-serif" font-size="medium" font-stretch="normal" font-style="normal" font-variant="normal" font-weight="normal" image-rendering="auto" letter-spacing="normal" opacity=".1" overflow="visible" shape-rendering="auto" text-anchor="start" text-decoration="none" text-rendering="auto" vector-effect="none" visibility="visible" word-spacing="normal" writing-mode="lr-tb" style="line-height:normal;font-variant-ligatures:normal;font-variant-position:normal;font-variant-caps:normal;font-variant-numeric:normal;font-variant-alternates:normal;font-feature-settings:normal;text-indent:0;text-align:start;text-decoration-line:none;text-decoration-style:solid;text-decoration-color:#000;text-transform:none;text-orientation:mixed;white-space:normal;shape-padding:0;isolation:auto;mix-blend-mode:normal;solid-color:#000;solid-opacity:1;marker:none"/><path id="rect4158-9" fill="#000" fill-opacity="1" fill-rule="nonzero" stroke="none" stroke-width="2" d="M 189.84323,74 C 119.24979,74 111.65402,81.250835 112,151.98706 V 298 444.01294 C 111.65402,514.74917 119.24979,522 189.84323,522 H 386.15677 C 456.75021,522 462.16345,514.72616 464,444.01294 V 298 151.98706 C 464,81.249993 456.75021,74 386.15677,74 Z" color="#000" display="inline" enable-background="accumulate" filter="url(#filter4346)" opacity=".1" overflow="visible" transform="matrix(0.5,0,0,0.5,8,8)" visibility="visible" style="marker:none"/><path id="path4350" fill="url(#linearGradient4358)" fill-opacity="1" fill-rule="nonzero" stroke="none" stroke-width="2" d="M 189.84323,74 C 119.24979,74 111.65402,81.250835 112,151.98706 V 298 444.01294 C 111.65402,514.74917 119.24979,522 189.84323,522 H 386.15677 C 456.75021,522 464,514.75001 464,444.01294 V 298 151.98706 C 464,81.249993 456.75021,74 386.15677,74 Z" color="#000" display="inline" enable-background="accumulate" filter="url(#filter4380)" opacity=".3" overflow="visible" transform="matrix(0.5,0,0,0.5,8,8)" visibility="visible" style="marker:none"/></g><g id="layer2" display="inline"><path id="path949" fill="url(#linearGradient951)" fill-opacity="1" fill-rule="nonzero" stroke="none" stroke-width="1" d="M 335.73047 61 C 333.50763 61 331.75575 61.05331 330.31641 61.294922 C 328.8753 61.536828 327.69773 61.989844 326.83398 62.851562 C 325.97008 63.713437 325.51502 64.888453 325.27539 66.330078 C 325.03608 67.769758 324.9891 69.52364 325 71.751953 L 325 84 L 325 96.251953 C 324.9892 98.477958 325.0362 100.23124 325.27539 101.66992 C 325.51502 103.11155 325.97007 104.28656 326.83398 105.14844 C 327.69774 106.01015 328.87529 106.46317 330.31641 106.70508 C 331.75575 106.94669 333.50763 107 335.73047 107 L 352.26953 107 C 354.49235 107 356.24138 106.9468 357.67773 106.70508 C 359.11569 106.4631 360.29132 106.01093 361.15234 105.14844 C 362.01307 104.28626 362.46543 103.1102 362.70703 101.66992 C 362.94841 100.23102 363 98.478986 363 96.251953 L 363 84 L 363 71.748047 C 363 69.521013 362.9484 67.768972 362.70703 66.330078 C 362.46543 64.889802 362.01307 63.713747 361.15234 62.851562 C 360.29132 61.989081 359.11569 61.536906 357.67773 61.294922 C 356.24138 61.053209 354.49235 61 352.26953 61 L 335.73047 61 z" color="#000" display="inline" enable-background="accumulate" overflow="visible" visibility="visible" style="marker:none"/><path id="rect4158" fill="url(#linearGradient4226)" fill-opacity="1" fill-rule="nonzero" stroke="none" stroke-width="1" d="m 201.07298,44 c 35.29673,0 39.09461,3.625418 38.92162,38.99353 V 156 229.00647 C 240.16759,264.37459 236.36971,268 201.07298,268 H 102.91622 C 67.619504,268 63.994604,264.375 63.994604,229.00647 V 156 82.99353 C 63.994604,47.624997 67.619504,44 102.91622,44 Z" color="#000" display="inline" enable-background="accumulate" overflow="visible" visibility="visible" style="marker:none"/><path id="path918" fill="url(#linearGradient920)" fill-opacity="1" fill-rule="nonzero" stroke="none" stroke-width="1" d="m 330.90385,236.5 c 0.71048,0 1.27344,0.0154 1.75195,0.0957 0.47851,0.0803 0.89671,0.23728 1.20703,0.54688 0.31032,0.30959 0.46726,0.7261 0.54688,1.20508 0.0796,0.47897 0.0933,1.04352 0.0898,1.75586 V 244 v 3.89844 c 0.003,0.71121 -0.0103,1.27546 -0.0898,1.7539 -0.0796,0.47898 -0.23655,0.89549 -0.54688,1.20508 -0.31033,0.3096 -0.72851,0.46655 -1.20703,0.54688 -0.47852,0.0803 -1.04147,0.0957 -1.75195,0.0957 h -5.8086 c -0.71048,0 -1.27236,-0.0153 -1.75,-0.0957 -0.47763,-0.0804 -0.89584,-0.23713 -1.20508,-0.54688 -0.30921,-0.30975 -0.46469,-0.72681 -0.54492,-1.20508 -0.0802,-0.47826 -0.0957,-1.04201 -0.0957,-1.7539 V 244 240.10156 c 0,-0.71189 0.0155,-1.27564 0.0957,-1.7539 0.0802,-0.47827 0.2357,-0.89533 0.54492,-1.20508 0.30924,-0.30975 0.72745,-0.4665 1.20508,-0.54688 0.47764,-0.0804 1.03952,-0.0957 1.75,-0.0957 z" color="#000" display="inline" enable-background="accumulate" overflow="visible" visibility="visible" style="marker:none"/><path id="path914" fill="url(#linearGradient916)" fill-opacity="1" fill-rule="nonzero" stroke="none" stroke-width="1" d="m 336.13403,188.5 c 1.11158,0 1.98683,0.0256 2.70703,0.14648 0.72019,0.1209 1.3105,0.34863 1.74218,0.7793 0.43169,0.43067 0.65954,1.01974 0.7793,1.74024 0.11977,0.72049 0.14217,1.59669 0.13672,2.71093 V 200 v 6.125 c 0.005,1.1131 -0.017,1.989 -0.13672,2.70898 -0.11976,0.72051 -0.3476,1.30957 -0.7793,1.74024 -0.43169,0.43067 -1.02199,0.6584 -1.74218,0.7793 -0.7202,0.12089 -1.59545,0.14648 -2.70703,0.14648 h -8.26954 c -1.11158,0 -1.98637,-0.0255 -2.70507,-0.14648 -0.7187,-0.12095 -1.30623,-0.34848 -1.73633,-0.7793 -0.4301,-0.43083 -0.6566,-1.01849 -0.77735,-1.73828 -0.12074,-0.71979 -0.14648,-1.59713 -0.14648,-2.71094 V 200 193.875 c 0,-1.11381 0.0257,-1.99115 0.14648,-2.71094 0.12075,-0.71979 0.34725,-1.30745 0.77735,-1.73828 0.4301,-0.43082 1.01763,-0.65835 1.73633,-0.7793 0.7187,-0.12094 1.59349,-0.14648 2.70507,-0.14648 z" color="#000" display="inline" enable-background="accumulate" overflow="visible" visibility="visible" style="marker:none"/><path id="path922" fill="url(#linearGradient924)" fill-opacity="1" fill-rule="nonzero" stroke="none" stroke-width="1" d="m 341.80573,133.5 c 1.41241,0 2.52238,0.0342 3.42383,0.18555 0.90145,0.15132 1.61987,0.43164 2.14258,0.95312 0.5227,0.52148 0.80325,1.23898 0.95312,2.14063 0.14988,0.90164 0.18075,2.0101 0.17383,3.42578 V 148 v 7.79688 c 0.007,1.41452 -0.024,2.52269 -0.17383,3.42382 -0.14987,0.90165 -0.43041,1.61915 -0.95312,2.14063 -0.52272,0.52148 -1.24112,0.8018 -2.14258,0.95312 -0.90146,0.15132 -2.01142,0.18555 -3.42383,0.18555 H 330.1905 c -1.41241,0 -2.51847,-0.0342 -3.41797,-0.18555 -0.8995,-0.15137 -1.61597,-0.43149 -2.13672,-0.95312 -0.52075,-0.52163 -0.80004,-1.23774 -0.95117,-2.13867 -0.15113,-0.90094 -0.18555,-2.01055 -0.18555,-3.42578 V 148 140.20312 c 0,-1.41524 0.0344,-2.52484 0.18555,-3.42578 0.15113,-0.90093 0.43042,-1.61703 0.95117,-2.13867 0.52075,-0.52163 1.23722,-0.80175 2.13672,-0.95312 0.8995,-0.15137 2.00556,-0.18555 3.41797,-0.18555 z" color="#000" display="inline" enable-background="accumulate" overflow="visible" visibility="visible" style="marker:none"/><path id="path1117" fill="url(#linearGradient1144)" fill-opacity="1" fill-rule="nonzero" stroke="none" stroke-dasharray="none" stroke-dashoffset="0" stroke-linecap="butt" stroke-linejoin="miter" stroke-miterlimit="4" stroke-opacity="1" stroke-width="16" d="M 102.92188,260 C 94.234639,260 87.677765,259.73544 83.25,258.99219 78.822235,258.24894 76.913462,257.20384 75.810547,256.10352 74.707632,255.0032 73.670978,253.12157 72.9375,248.70898 72.204022,244.2964 71.95746,237.74311 72,229.04492 V 229.02539 156 82.97461 82.95508 C 71.957456,74.25689 72.204022,67.7036 72.9375,63.29102 73.670978,58.87843 74.707632,56.9968 75.810547,55.89648 76.913461,54.79617 78.822235,53.75106 83.25,53.00781 87.677765,52.26456 94.234639,52 102.92188,52 H 188 l 44,44 v 60 73.00586 c 0,8.70548 -0.26569,15.26739 -1.00781,19.69141 -0.74213,4.42401 -1.78301,6.32021 -2.87891,7.41796 -1.0959,1.09776 -2.97951,2.13464 -7.39062,2.87696 C 216.31155,259.7345 209.76538,260 201.07812,260 Z" baseline-shift="baseline" clip-rule="nonzero" color="#000" color-interpolation="sRGB" color-interpolation-filters="linearRGB" color-rendering="auto" direction="ltr" display="inline" dominant-baseline="auto" enable-background="accumulate" font-family="sans-serif" font-size="medium" font-stretch="normal" font-style="normal" font-variant="normal" font-weight="normal" image-rendering="auto" letter-spacing="normal" opacity="1" overflow="visible" shape-rendering="auto" text-anchor="start" text-decoration="none" text-rendering="auto" vector-effect="none" visibility="visible" word-spacing="normal" writing-mode="lr-tb" style="line-height:normal;font-variant-ligatures:normal;font-variant-position:normal;font-variant-caps:normal;font-variant-numeric:normal;font-variant-alternates:normal;font-feature-settings:normal;text-indent:0;text-align:start;text-decoration-line:none;text-decoration-style:solid;text-decoration-color:#000;text-transform:none;text-orientation:mixed;white-space:normal;shape-padding:0;isolation:auto;mix-blend-mode:normal;solid-color:#000;solid-opacity:1;marker:none"/><path id="path1224" fill="url(#linearGradient1234)" fill-opacity="1" fill-rule="nonzero" stroke="none" stroke-dasharray="none" stroke-dashoffset="0" stroke-linecap="butt" stroke-linejoin="miter" stroke-miterlimit="4" stroke-opacity="1" stroke-width="5" d="m 335.73047,64 c -2.17348,0 -3.80582,0.0653 -4.91797,0.251953 -1.10333,0.185207 -1.58553,0.449466 -1.85938,0.722656 -0.27304,0.272413 -0.53394,0.747647 -0.71679,1.847657 -0.18443,1.10974 -0.24693,2.740598 -0.23633,4.916015 v 0.0059 V 84 v 12.257812 0.0059 c -0.0106,2.174279 0.0519,3.804968 0.23633,4.914058 0.18285,1.10003 0.44376,1.57526 0.71679,1.84766 0.27387,0.27322 0.75604,0.53745 1.85938,0.72266 1.11215,0.18665 2.74449,0.25195 4.91797,0.25195 h 16.53906 c 2.17351,0 3.8041,-0.0655 4.91211,-0.25195 1.09998,-0.18511 1.57783,-0.44847 1.84766,-0.71875 0.27131,-0.27177 0.53576,-0.75297 0.7207,-1.85547 0.1861,-1.10939 0.25,-2.742603 0.25,-4.921877 V 84 74 L 350,64 Z" baseline-shift="baseline" clip-rule="nonzero" color="#000" color-interpolation="sRGB" color-interpolation-filters="linearRGB" color-rendering="auto" direction="ltr" display="inline" dominant-baseline="auto" enable-background="accumulate" font-family="sans-serif" font-size="medium" font-stretch="normal" font-style="normal" font-variant="normal" font-weight="normal" image-rendering="auto" letter-spacing="normal" opacity="1" overflow="visible" shape-rendering="auto" text-anchor="start" text-decoration="none" text-rendering="auto" vector-effect="none" visibility="visible" word-spacing="normal" writing-mode="lr-tb" style="line-height:normal;font-variant-ligatures:normal;font-variant-position:normal;font-variant-caps:normal;font-variant-numeric:normal;font-variant-alternates:normal;font-feature-settings:normal;text-indent:0;text-align:start;text-decoration-line:none;text-decoration-style:solid;text-decoration-color:#000;text-transform:none;text-orientation:mixed;white-space:normal;shape-padding:0;isolation:auto;mix-blend-mode:normal;solid-color:#000;solid-opacity:1;marker:none"/><path id="path1291" fill="url(#linearGradient1309)" fill-opacity="1" fill-rule="nonzero" stroke="none" stroke-dasharray="none" stroke-dashoffset="0" stroke-linecap="butt" stroke-linejoin="miter" stroke-miterlimit="4" stroke-opacity="1" stroke-width="3" d="m 325.0957,238 c -0.6888,0 -1.1839,0.0205 -1.5039,0.0742 -0.30449,0.0511 -0.38369,0.11806 -0.39649,0.13086 -0.0131,0.0131 -0.0746,0.0855 -0.125,0.38867 -0.0529,0.31839 -0.0733,0.81274 -0.0703,1.50195 v 0.004 3.90039 3.90234 0.002 c -0.003,0.68916 0.0176,1.18495 0.0703,1.50195 0.0504,0.30317 0.1119,0.37557 0.125,0.38867 0.0128,0.0128 0.0918,0.0798 0.39649,0.13086 0.32002,0.0537 0.8151,0.0742 1.5039,0.0742 h 5.8086 c 0.68894,0 1.18348,-0.0206 1.50195,-0.0742 0.30433,-0.0512 0.38043,-0.1186 0.39063,-0.1289 0.0112,-0.0112 0.0774,-0.0858 0.1289,-0.39258 0.0536,-0.31974 0.0742,-0.81575 0.0742,-1.50586 V 244 241 l -3,-3 z" baseline-shift="baseline" clip-rule="nonzero" color="#000" color-interpolation="sRGB" color-interpolation-filters="linearRGB" color-rendering="auto" direction="ltr" display="inline" dominant-baseline="auto" enable-background="accumulate" font-family="sans-serif" font-size="medium" font-stretch="normal" font-style="normal" font-variant="normal" font-weight="normal" image-rendering="auto" letter-spacing="normal" opacity="1" overflow="visible" shape-rendering="auto" text-anchor="start" text-decoration="none" text-rendering="auto" vector-effect="none" visibility="visible" word-spacing="normal" writing-mode="lr-tb" style="line-height:normal;font-variant-ligatures:normal;font-variant-position:normal;font-variant-caps:normal;font-variant-numeric:normal;font-variant-alternates:normal;font-feature-settings:normal;text-indent:0;text-align:start;text-decoration-line:none;text-decoration-style:solid;text-decoration-color:#000;text-transform:none;text-orientation:mixed;white-space:normal;shape-padding:0;isolation:auto;mix-blend-mode:normal;solid-color:#000;solid-opacity:1;marker:none"/><path id="path1293" fill="url(#linearGradient1311)" fill-opacity="1" fill-rule="nonzero" stroke="none" stroke-dasharray="none" stroke-dashoffset="0" stroke-linecap="butt" stroke-linejoin="miter" stroke-miterlimit="4" stroke-opacity="1" stroke-width="3" d="m 327.86523,190 c -1.08855,0 -1.90034,0.0312 -2.45898,0.125 -0.54887,0.0921 -0.79683,0.22878 -0.93164,0.36328 -0.13436,0.13404 -0.26642,0.37645 -0.35742,0.92383 -0.0925,0.55627 -0.12219,1.36674 -0.11719,2.45703 v 0.004 6.12695 6.12891 0.002 c -0.005,1.0898 0.0249,1.9019 0.11719,2.45703 0.091,0.5474 0.22306,0.78979 0.35742,0.92383 0.13484,0.13452 0.38277,0.27118 0.93164,0.36328 0.55862,0.0938 1.37043,0.125 2.45898,0.125 h 8.26954 c 1.08864,0 1.90078,-0.0314 2.45703,-0.125 0.54703,-0.0921 0.78777,-0.227 0.92187,-0.36133 0.13429,-0.13451 0.26913,-0.37646 0.36133,-0.92578 C 339.9686,208.02992 340,207.2157 340,206.125 V 200 194 l -4,-4 z" baseline-shift="baseline" clip-rule="nonzero" color="#000" color-interpolation="sRGB" color-interpolation-filters="linearRGB" color-rendering="auto" direction="ltr" display="inline" dominant-baseline="auto" enable-background="accumulate" font-family="sans-serif" font-size="medium" font-stretch="normal" font-style="normal" font-variant="normal" font-weight="normal" image-rendering="auto" letter-spacing="normal" opacity="1" overflow="visible" shape-rendering="auto" text-anchor="start" text-decoration="none" text-rendering="auto" vector-effect="none" visibility="visible" word-spacing="normal" writing-mode="lr-tb" style="line-height:normal;font-variant-ligatures:normal;font-variant-position:normal;font-variant-caps:normal;font-variant-numeric:normal;font-variant-alternates:normal;font-feature-settings:normal;text-indent:0;text-align:start;text-decoration-line:none;text-decoration-style:solid;text-decoration-color:#000;text-transform:none;text-orientation:mixed;white-space:normal;shape-padding:0;isolation:auto;mix-blend-mode:normal;solid-color:#000;solid-opacity:1;marker:none"/><path id="path1295" fill="url(#linearGradient1313)" fill-opacity="1" fill-rule="nonzero" stroke="none" stroke-dasharray="none" stroke-dashoffset="0" stroke-linecap="butt" stroke-linejoin="miter" stroke-miterlimit="4" stroke-opacity="1" stroke-width="5" d="m 330.19336,136 c -1.37205,0 -2.37815,0.0445 -3.00977,0.15039 -0.61819,0.10377 -0.76201,0.22891 -0.79101,0.25781 -0.0276,0.0276 -0.14965,0.1658 -0.25196,0.78125 -0.10462,0.62946 -0.14762,1.63095 -0.14062,3.00391 v 0.006 7.80078 7.80273 0.006 c -0.007,1.37154 0.036,2.37291 0.14062,3.00196 0.10231,0.61547 0.22436,0.75365 0.25196,0.78125 0.029,0.029 0.17281,0.15404 0.79101,0.25781 0.63175,0.10609 1.63775,0.15039 3.00977,0.15039 h 11.61523 c 1.37206,0 2.37433,-0.0445 3.00391,-0.15039 0.616,-0.10366 0.75435,-0.22701 0.78125,-0.25391 0.0283,-0.0283 0.15211,-0.16861 0.25586,-0.78711 C 345.9556,158.17687 346,157.17156 346,155.79688 V 148 142 l -6,-6 z" baseline-shift="baseline" clip-rule="nonzero" color="#000" color-interpolation="sRGB" color-interpolation-filters="linearRGB" color-rendering="auto" direction="ltr" display="inline" dominant-baseline="auto" enable-background="accumulate" font-family="sans-serif" font-size="medium" font-stretch="normal" font-style="normal" font-variant="normal" font-weight="normal" image-rendering="auto" letter-spacing="normal" opacity="1" overflow="visible" shape-rendering="auto" text-anchor="start" text-decoration="none" text-rendering="auto" vector-effect="none" visibility="visible" word-spacing="normal" writing-mode="lr-tb" style="line-height:normal;font-variant-ligatures:normal;font-variant-position:normal;font-variant-caps:normal;font-variant-numeric:normal;font-variant-alternates:normal;font-feature-settings:normal;text-indent:0;text-align:start;text-decoration-line:none;text-decoration-style:solid;text-decoration-color:#000;text-transform:none;text-orientation:mixed;white-space:normal;shape-padding:0;isolation:auto;mix-blend-mode:normal;solid-color:#000;solid-opacity:1;marker:none"/><path id="path901" fill="none" fill-opacity="1" fill-rule="nonzero" stroke="url(#linearGradient925)" stroke-opacity="1" stroke-width="1" d="m 335.73189,61.5 c -2.21461,0 -3.94722,0.05465 -5.33203,0.287109 -1.38481,0.232456 -2.44551,0.654338 -3.21094,1.417969 -0.76543,0.763631 -1.1878,1.822342 -1.41797,3.207031 -0.23017,1.38469 -0.28039,3.118394 -0.26953,5.337891 V 84 96.251953 c -0.0108,2.218334 0.0394,3.951757 0.26953,5.335937 0.23017,1.38469 0.65253,2.4434 1.41797,3.20703 0.76544,0.76363 1.82612,1.18551 3.21094,1.41797 1.38481,0.23246 3.11742,0.28711 5.33203,0.28711 h 16.53906 c 2.2146,0 3.94454,-0.0546 5.32617,-0.28711 1.38163,-0.2325 2.44064,-0.65418 3.20313,-1.41797 0.76249,-0.76378 1.18385,-1.82305 1.41601,-3.20703 0.23217,-1.38398 0.28516,-3.116864 0.28516,-5.335937 V 84 71.748047 c 0,-2.219073 -0.053,-3.951957 -0.28516,-5.335938 -0.23216,-1.383981 -0.65352,-2.443248 -1.41601,-3.207031 -0.76249,-0.763783 -1.8215,-1.185464 -3.20313,-1.417969 C 356.21549,61.554605 354.48555,61.5 352.27095,61.5 Z" color="#000" display="inline" enable-background="accumulate" opacity=".3" overflow="visible" visibility="visible" style="marker:none"/></g><g id="layer6" display="inline"><g id="g22069" display="inline" transform="translate(-3578.0027,1708.6401)"><rect id="rect10395" width="128" height="28" x="3666" y="-1518.638" fill="#000" fill-opacity="1" fill-rule="nonzero" stroke="none" stroke-width="1" display="inline" opacity=".15" overflow="visible" visibility="visible" style="marker:none"/><rect id="use8350" width="128" height="28" x="3666" y="-1520.638" fill="url(#linearGradient22171)" fill-opacity="1" fill-rule="nonzero" stroke="none" stroke-width="1" display="inline" overflow="visible" visibility="visible" style="marker:none"/><rect id="rect8352" width="128" height="84" x="3666" y="-1602.638" fill="url(#linearGradient22173)" fill-opacity="1" fill-rule="nonzero" stroke="none" stroke-width="1" display="inline" overflow="visible" visibility="visible" style="marker:none"/><rect id="rect9908" width="122" height="78" x="3669" y="-1599.638" fill="url(#linearGradient22175)" fill-opacity="1" fill-rule="nonzero" stroke="none" stroke-width="1" display="inline" overflow="visible" rx="1" ry="1" visibility="visible" style="marker:none"/><rect id="rect10222" width="30" height="76" x="3670" y="-1598.638" fill="url(#linearGradient2040)" fill-opacity="1" fill-rule="nonzero" stroke="none" stroke-width="15.997" display="inline" opacity=".25" overflow="visible" rx="2" ry="2" visibility="visible" style="marker:none"/><rect id="rect8354" width="122" height="22" x="3669" y="-1517.638" fill="url(#linearGradient22179)" fill-opacity="1" fill-rule="nonzero" stroke="none" stroke-width="1" display="inline" overflow="visible" visibility="visible" style="marker:none"/><g id="g9965" fill="#fff" fill-opacity="1" stroke="none" font-size="8.765" font-stretch="normal" font-style="normal" font-variant="normal" font-weight="normal" transform="matrix(2.0003,0,0,2,-3609.1,631.134)"><path id="path9967" fill="#fff" d="m 3655.2528,-1071.3549 v 0.7704 c -0.2254,-0.1313 -0.4523,-0.2297 -0.6805,-0.2953 -0.2283,-0.066 -0.4608,-0.099 -0.6977,-0.099 -0.3566,0 -0.6234,0.059 -0.8003,0.1755 -0.1741,0.1141 -0.2611,0.2896 -0.2611,0.5264 0,0.214 0.066,0.3738 0.1969,0.4794 0.1312,0.1056 0.4579,0.2083 0.9801,0.3082 l 0.3167,0.06 c 0.3909,0.074 0.6862,0.2225 0.886,0.4451 0.2025,0.2225 0.3038,0.5122 0.3038,0.8688 0,0.4737 -0.1683,0.8446 -0.505,1.1128 -0.3367,0.2654 -0.8046,0.398 -1.4038,0.398 -0.2369,0 -0.4851,-0.026 -0.7447,-0.077 -0.2597,-0.049 -0.5407,-0.1227 -0.8432,-0.2225 v -0.8132 c 0.2939,0.1512 0.575,0.2653 0.8432,0.3424 0.2682,0.074 0.5221,0.1112 0.7618,0.1112 0.3481,0 0.6177,-0.07 0.8089,-0.2097 0.1912,-0.1426 0.2868,-0.341 0.2868,-0.5949 0,-0.3652 -0.3496,-0.6177 -1.0486,-0.7576 l -0.034,-0.01 -0.2953,-0.06 c -0.4537,-0.089 -0.7846,-0.2369 -0.9929,-0.4451 -0.2083,-0.2112 -0.3125,-0.4979 -0.3125,-0.8603 0,-0.4594 0.1555,-0.8132 0.4665,-1.0614 0.3111,-0.2511 0.7547,-0.3767 1.3311,-0.3767 0.2568,0 0.5036,0.024 0.7404,0.073 0.2369,0.046 0.4694,0.1155 0.6977,0.2097" font-family="DejaVu Sans Mono"/><path id="path9969" fill="#fff" d="m 3657.8135,-1069.1036 c 0,0.6106 0.096,1.0714 0.2867,1.3824 0.1941,0.311 0.4808,0.4665 0.8603,0.4665 0.3795,0 0.6663,-0.1555 0.8603,-0.4665 0.1969,-0.3139 0.2953,-0.7747 0.2953,-1.3824 0,-0.6078 -0.098,-1.0672 -0.2953,-1.3782 -0.194,-0.3139 -0.4808,-0.4708 -0.8603,-0.4708 -0.3795,0 -0.6662,0.1555 -0.8603,0.4665 -0.1911,0.311 -0.2867,0.7718 -0.2867,1.3825 m 2.3026,1.7804 c -0.1284,0.2368 -0.3024,0.4195 -0.5222,0.5478 -0.2168,0.1256 -0.4693,0.1884 -0.7575,0.1884 -0.5735,0 -1.0272,-0.2212 -1.361,-0.6634 -0.331,-0.4451 -0.4965,-1.0572 -0.4965,-1.8361 0,-0.7932 0.1655,-1.4138 0.4965,-1.8618 0.331,-0.448 0.7846,-0.672 1.361,-0.672 0.2853,0 0.5364,0.063 0.7533,0.1884 0.2197,0.1226 0.3951,0.3024 0.5264,0.5392 v -0.612 h 0.7918 v 6.6168 h -0.7918 v -2.4353" font-family="DejaVu Sans Mono"/><path id="path9971" fill="#fff" d="m 3666.5463,-1070.4394 c -0.1683,-0.1313 -0.3395,-0.2268 -0.5136,-0.2868 -0.174,-0.06 -0.3652,-0.09 -0.5735,-0.09 -0.4908,0 -0.866,0.154 -1.1256,0.4622 -0.2597,0.3082 -0.3895,0.7533 -0.3895,1.3353 v 2.384 h -0.7918 v -4.7936 h 0.7918 v 0.9373 c 0.1312,-0.3395 0.3324,-0.5992 0.6035,-0.7789 0.2739,-0.1826 0.5977,-0.2739 0.9715,-0.2739 0.194,0 0.3752,0.024 0.5436,0.073 0.1683,0.049 0.3295,0.1241 0.4836,0.2269 v 0.8046" font-family="DejaVu Sans Mono"/><path id="path9973" fill="#fff" d="m 3669.8788,-1072.7579 v 1.3611 h 1.789 v 0.612 h -1.789 v 2.6022 c 0,0.3538 0.067,0.6006 0.2011,0.7405 0.1341,0.1398 0.3681,0.2097 0.7019,0.2097 h 0.886 v 0.6291 h -0.963 c -0.5906,0 -1.0072,-0.1184 -1.2498,-0.3552 -0.2425,-0.2368 -0.3638,-0.6449 -0.3638,-1.2241 v -2.6022 h -1.2797 v -0.612 h 1.2797 v -1.3611 h 0.7876" font-family="DejaVu Sans Mono"/><path id="path9975" fill="#fff" d="m 3677.1676,-1066.1651 v 0.6163 h -0.2739 c -0.7105,0 -1.187,-0.1055 -1.4295,-0.3167 -0.2397,-0.2111 -0.3596,-0.632 -0.3595,-1.2626 v -1.0229 c -10e-5,-0.4308 -0.077,-0.729 -0.2312,-0.8945 -0.1512,-0.1655 -0.4265,-0.2482 -0.826,-0.2482 h -0.2654 v -0.6121 h 0.2654 c 0.4023,0 0.6791,-0.081 0.8303,-0.2439 0.1512,-0.1627 0.2268,-0.458 0.2269,-0.886 v -1.0272 c -10e-5,-0.6305 0.1198,-1.05 0.3595,-1.2583 0.2425,-0.2111 0.719,-0.3167 1.4295,-0.3167 h 0.2739 v 0.612 h -0.2996 c -0.3995,1e-4 -0.6606,0.063 -0.7832,0.1884 -0.1199,0.1227 -0.1798,0.3866 -0.1798,0.7918 v 1.0614 c 0,0.448 -0.066,0.7732 -0.1969,0.9758 -0.1284,0.2026 -0.3495,0.3396 -0.6634,0.4109 0.3167,0.077 0.5393,0.2168 0.6677,0.4194 0.1284,0.2026 0.1926,0.5265 0.1926,0.9716 v 1.0614 c 0,0.408 0.06,0.6734 0.1798,0.7961 0.1226,0.1227 0.3837,0.184 0.7832,0.184 h 0.2996" font-family="DejaVu Sans Mono"/><path id="path9977" fill="#fff" d="m 3682.5192,-1071.5218 -1.7163,2.294 1.8832,2.4995 h -0.9116 l -1.4039,-1.9217 -1.3995,1.9217 h -0.9116 l 1.8831,-2.4995 -1.7162,-2.294 h 0.8731 l 1.2711,1.7334 1.2626,-1.7334 h 0.886" font-family="DejaVu Sans Mono"/><path id="path9979" fill="#fff" d="m 3683.8592,-1066.1651 h 0.291 c 0.4024,0 0.6649,-0.063 0.7876,-0.1883 0.1227,-0.1255 0.184,-0.3895 0.184,-0.7918 v -1.0614 c 0,-0.4451 0.064,-0.769 0.1926,-0.9716 0.1284,-0.2026 0.351,-0.3424 0.6677,-0.4194 -0.3139,-0.071 -0.5365,-0.2083 -0.6677,-0.4109 -0.1284,-0.2026 -0.1926,-0.5278 -0.1926,-0.9758 v -1.0614 c 0,-0.4024 -0.061,-0.6663 -0.184,-0.7918 -0.1227,-0.1256 -0.3852,-0.1883 -0.7876,-0.1884 h -0.291 v -0.612 h 0.2654 c 0.7104,0 1.1855,0.1056 1.4252,0.3167 0.2397,0.2083 0.3595,0.6278 0.3595,1.2583 v 1.0272 c 0,0.428 0.076,0.7233 0.2269,0.886 0.154,0.1626 0.4322,0.2439 0.8345,0.2439 h 0.274 v 0.6121 h -0.274 c -0.4023,0 -0.6805,0.083 -0.8345,0.2482 -0.1513,0.1655 -0.2269,0.4637 -0.2269,0.8945 v 1.0229 c 0,0.6306 -0.1198,1.0515 -0.3595,1.2626 -0.2397,0.2112 -0.7148,0.3167 -1.4252,0.3167 h -0.2654 v -0.6163" font-family="DejaVu Sans Mono"/></g><g id="g9949" fill="#000" fill-opacity="1" stroke="none" font-size="8.765" font-stretch="normal" font-style="normal" font-variant="normal" font-weight="normal" opacity=".15" transform="matrix(2.0003,0,0,2,-3609.1,634.134)"><path id="path9951" d="m 3655.2528,-1071.3549 v 0.7704 c -0.2254,-0.1313 -0.4523,-0.2297 -0.6805,-0.2953 -0.2283,-0.066 -0.4608,-0.099 -0.6977,-0.099 -0.3566,0 -0.6234,0.059 -0.8003,0.1755 -0.1741,0.1141 -0.2611,0.2896 -0.2611,0.5264 0,0.214 0.066,0.3738 0.1969,0.4794 0.1312,0.1056 0.4579,0.2083 0.9801,0.3082 l 0.3167,0.06 c 0.3909,0.074 0.6862,0.2225 0.886,0.4451 0.2025,0.2225 0.3038,0.5122 0.3038,0.8688 0,0.4737 -0.1683,0.8446 -0.505,1.1128 -0.3367,0.2654 -0.8046,0.398 -1.4038,0.398 -0.2369,0 -0.4851,-0.026 -0.7447,-0.077 -0.2597,-0.049 -0.5407,-0.1227 -0.8432,-0.2225 v -0.8132 c 0.2939,0.1512 0.575,0.2653 0.8432,0.3424 0.2682,0.074 0.5221,0.1112 0.7618,0.1112 0.3481,0 0.6177,-0.07 0.8089,-0.2097 0.1912,-0.1426 0.2868,-0.341 0.2868,-0.5949 0,-0.3652 -0.3496,-0.6177 -1.0486,-0.7576 l -0.034,-0.01 -0.2953,-0.06 c -0.4537,-0.089 -0.7846,-0.2369 -0.9929,-0.4451 -0.2083,-0.2112 -0.3125,-0.4979 -0.3125,-0.8603 0,-0.4594 0.1555,-0.8132 0.4665,-1.0614 0.3111,-0.2511 0.7547,-0.3767 1.3311,-0.3767 0.2568,0 0.5036,0.024 0.7404,0.073 0.2369,0.046 0.4694,0.1155 0.6977,0.2097" font-family="DejaVu Sans Mono"/><path id="path9953" d="m 3657.8135,-1069.1036 c 0,0.6106 0.096,1.0714 0.2867,1.3824 0.1941,0.311 0.4808,0.4665 0.8603,0.4665 0.3795,0 0.6663,-0.1555 0.8603,-0.4665 0.1969,-0.3139 0.2953,-0.7747 0.2953,-1.3824 0,-0.6078 -0.098,-1.0672 -0.2953,-1.3782 -0.194,-0.3139 -0.4808,-0.4708 -0.8603,-0.4708 -0.3795,0 -0.6662,0.1555 -0.8603,0.4665 -0.1911,0.311 -0.2867,0.7718 -0.2867,1.3825 m 2.3026,1.7804 c -0.1284,0.2368 -0.3024,0.4195 -0.5222,0.5478 -0.2168,0.1256 -0.4693,0.1884 -0.7575,0.1884 -0.5735,0 -1.0272,-0.2212 -1.361,-0.6634 -0.331,-0.4451 -0.4965,-1.0572 -0.4965,-1.8361 0,-0.7932 0.1655,-1.4138 0.4965,-1.8618 0.331,-0.448 0.7846,-0.672 1.361,-0.672 0.2853,0 0.5364,0.063 0.7533,0.1884 0.2197,0.1226 0.3951,0.3024 0.5264,0.5392 v -0.612 h 0.7918 v 6.6168 h -0.7918 v -2.4353" font-family="DejaVu Sans Mono"/><path id="path9955" d="m 3666.5463,-1070.4394 c -0.1683,-0.1313 -0.3395,-0.2268 -0.5136,-0.2868 -0.174,-0.06 -0.3652,-0.09 -0.5735,-0.09 -0.4908,0 -0.866,0.154 -1.1256,0.4622 -0.2597,0.3082 -0.3895,0.7533 -0.3895,1.3353 v 2.384 h -0.7918 v -4.7936 h 0.7918 v 0.9373 c 0.1312,-0.3395 0.3324,-0.5992 0.6035,-0.7789 0.2739,-0.1826 0.5977,-0.2739 0.9715,-0.2739 0.194,0 0.3752,0.024 0.5436,0.073 0.1683,0.049 0.3295,0.1241 0.4836,0.2269 v 0.8046" font-family="DejaVu Sans Mono"/><path id="path9957" d="m 3669.8788,-1072.7579 v 1.3611 h 1.789 v 0.612 h -1.789 v 2.6022 c 0,0.3538 0.067,0.6006 0.2011,0.7405 0.1341,0.1398 0.3681,0.2097 0.7019,0.2097 h 0.886 v 0.6291 h -0.963 c -0.5906,0 -1.0072,-0.1184 -1.2498,-0.3552 -0.2425,-0.2368 -0.3638,-0.6449 -0.3638,-1.2241 v -2.6022 h -1.2797 v -0.612 h 1.2797 v -1.3611 h 0.7876" font-family="DejaVu Sans Mono"/><path id="path9959" d="m 3677.1676,-1066.1651 v 0.6163 h -0.2739 c -0.7105,0 -1.187,-0.1055 -1.4295,-0.3167 -0.2397,-0.2111 -0.3596,-0.632 -0.3595,-1.2626 v -1.0229 c -10e-5,-0.4308 -0.077,-0.729 -0.2312,-0.8945 -0.1512,-0.1655 -0.4265,-0.2482 -0.826,-0.2482 h -0.2654 v -0.6121 h 0.2654 c 0.4023,0 0.6791,-0.081 0.8303,-0.2439 0.1512,-0.1627 0.2268,-0.458 0.2269,-0.886 v -1.0272 c -10e-5,-0.6305 0.1198,-1.05 0.3595,-1.2583 0.2425,-0.2111 0.719,-0.3167 1.4295,-0.3167 h 0.2739 v 0.612 h -0.2996 c -0.3995,1e-4 -0.6606,0.063 -0.7832,0.1884 -0.1199,0.1227 -0.1798,0.3866 -0.1798,0.7918 v 1.0614 c 0,0.448 -0.066,0.7732 -0.1969,0.9758 -0.1284,0.2026 -0.3495,0.3396 -0.6634,0.4109 0.3167,0.077 0.5393,0.2168 0.6677,0.4194 0.1284,0.2026 0.1926,0.5265 0.1926,0.9716 v 1.0614 c 0,0.408 0.06,0.6734 0.1798,0.7961 0.1226,0.1227 0.3837,0.184 0.7832,0.184 h 0.2996" font-family="DejaVu Sans Mono"/><path id="path9961" d="m 3682.5192,-1071.5218 -1.7163,2.294 1.8832,2.4995 h -0.9116 l -1.4039,-1.9217 -1.3995,1.9217 h -0.9116 l 1.8831,-2.4995 -1.7162,-2.294 h 0.8731 l 1.2711,1.7334 1.2626,-1.7334 h 0.886" font-family="DejaVu Sans Mono"/><path id="path9963" d="m 3683.8592,-1066.1651 h 0.291 c 0.4024,0 0.6649,-0.063 0.7876,-0.1883 0.1227,-0.1255 0.184,-0.3895 0.184,-0.7918 v -1.0614 c 0,-0.4451 0.064,-0.769 0.1926,-0.9716 0.1284,-0.2026 0.351,-0.3424 0.6677,-0.4194 -0.3139,-0.071 -0.5365,-0.2083 -0.6677,-0.4109 -0.1284,-0.2026 -0.1926,-0.5278 -0.1926,-0.9758 v -1.0614 c 0,-0.4024 -0.061,-0.6663 -0.184,-0.7918 -0.1227,-0.1256 -0.3852,-0.1883 -0.7876,-0.1884 h -0.291 v -0.612 h 0.2654 c 0.7104,0 1.1855,0.1056 1.4252,0.3167 0.2397,0.2083 0.3595,0.6278 0.3595,1.2583 v 1.0272 c 0,0.428 0.076,0.7233 0.2269,0.886 0.154,0.1626 0.4322,0.2439 0.8345,0.2439 h 0.274 v 0.6121 h -0.274 c -0.4023,0 -0.6805,0.083 -0.8345,0.2482 -0.1513,0.1655 -0.2269,0.4637 -0.2269,0.8945 v 1.0229 c 0,0.6306 -0.1198,1.0515 -0.3595,1.2626 -0.2397,0.2112 -0.7148,0.3167 -1.4252,0.3167 h -0.2654 v -0.6163" font-family="DejaVu Sans Mono"/></g><g id="g8358" fill="url(#linearGradient22195)" fill-opacity="1" stroke="none" font-size="8.765" font-stretch="normal" font-style="normal" font-variant="normal" font-weight="normal" opacity=".9" transform="matrix(2.0003,0,0,2,-3609.1,632.134)"><path id="path8361" fill="url(#linearGradient1393)" fill-opacity="1" d="m 3655.2528,-1071.3549 v 0.7704 c -0.2254,-0.1313 -0.4523,-0.2297 -0.6805,-0.2953 -0.2283,-0.066 -0.4608,-0.099 -0.6977,-0.099 -0.3566,0 -0.6234,0.059 -0.8003,0.1755 -0.1741,0.1141 -0.2611,0.2896 -0.2611,0.5264 0,0.214 0.066,0.3738 0.1969,0.4794 0.1312,0.1056 0.4579,0.2083 0.9801,0.3082 l 0.3167,0.06 c 0.3909,0.074 0.6862,0.2225 0.886,0.4451 0.2025,0.2225 0.3038,0.5122 0.3038,0.8688 0,0.4737 -0.1683,0.8446 -0.505,1.1128 -0.3367,0.2654 -0.8046,0.398 -1.4038,0.398 -0.2369,0 -0.4851,-0.026 -0.7447,-0.077 -0.2597,-0.049 -0.5407,-0.1227 -0.8432,-0.2225 v -0.8132 c 0.2939,0.1512 0.575,0.2653 0.8432,0.3424 0.2682,0.074 0.5221,0.1112 0.7618,0.1112 0.3481,0 0.6177,-0.07 0.8089,-0.2097 0.1912,-0.1426 0.2868,-0.341 0.2868,-0.5949 0,-0.3652 -0.3496,-0.6177 -1.0486,-0.7576 l -0.034,-0.01 -0.2953,-0.06 c -0.4537,-0.089 -0.7846,-0.2369 -0.9929,-0.4451 -0.2083,-0.2112 -0.3125,-0.4979 -0.3125,-0.8603 0,-0.4594 0.1555,-0.8132 0.4665,-1.0614 0.3111,-0.2511 0.7547,-0.3767 1.3311,-0.3767 0.2568,0 0.5036,0.024 0.7404,0.073 0.2369,0.046 0.4694,0.1155 0.6977,0.2097" font-family="DejaVu Sans Mono"/><path id="path8363" fill="url(#linearGradient1395)" fill-opacity="1" d="m 3657.8135,-1069.1036 c 0,0.6106 0.096,1.0714 0.2867,1.3824 0.1941,0.311 0.4808,0.4665 0.8603,0.4665 0.3795,0 0.6663,-0.1555 0.8603,-0.4665 0.1969,-0.3139 0.2953,-0.7747 0.2953,-1.3824 0,-0.6078 -0.098,-1.0672 -0.2953,-1.3782 -0.194,-0.3139 -0.4808,-0.4708 -0.8603,-0.4708 -0.3795,0 -0.6662,0.1555 -0.8603,0.4665 -0.1911,0.311 -0.2867,0.7718 -0.2867,1.3825 m 2.3026,1.7804 c -0.1284,0.2368 -0.3024,0.4195 -0.5222,0.5478 -0.2168,0.1256 -0.4693,0.1884 -0.7575,0.1884 -0.5735,0 -1.0272,-0.2212 -1.361,-0.6634 -0.331,-0.4451 -0.4965,-1.0572 -0.4965,-1.8361 0,-0.7932 0.1655,-1.4138 0.4965,-1.8618 0.331,-0.448 0.7846,-0.672 1.361,-0.672 0.2853,0 0.5364,0.063 0.7533,0.1884 0.2197,0.1226 0.3951,0.3024 0.5264,0.5392 v -0.612 h 0.7918 v 6.6168 h -0.7918 v -2.4353" font-family="DejaVu Sans Mono"/><path id="path8365" fill="url(#linearGradient1397)" fill-opacity="1" d="m 3666.5463,-1070.4394 c -0.1683,-0.1313 -0.3395,-0.2268 -0.5136,-0.2868 -0.174,-0.06 -0.3652,-0.09 -0.5735,-0.09 -0.4908,0 -0.866,0.154 -1.1256,0.4622 -0.2597,0.3082 -0.3895,0.7533 -0.3895,1.3353 v 2.384 h -0.7918 v -4.7936 h 0.7918 v 0.9373 c 0.1312,-0.3395 0.3324,-0.5992 0.6035,-0.7789 0.2739,-0.1826 0.5977,-0.2739 0.9715,-0.2739 0.194,0 0.3752,0.024 0.5436,0.073 0.1683,0.049 0.3295,0.1241 0.4836,0.2269 v 0.8046" font-family="DejaVu Sans Mono"/><path id="path8367" fill="url(#linearGradient1399)" fill-opacity="1" d="m 3669.8788,-1072.7579 v 1.3611 h 1.789 v 0.612 h -1.789 v 2.6022 c 0,0.3538 0.067,0.6006 0.2011,0.7405 0.1341,0.1398 0.3681,0.2097 0.7019,0.2097 h 0.886 v 0.6291 h -0.963 c -0.5906,0 -1.0072,-0.1184 -1.2498,-0.3552 -0.2425,-0.2368 -0.3638,-0.6449 -0.3638,-1.2241 v -2.6022 h -1.2797 v -0.612 h 1.2797 v -1.3611 h 0.7876" font-family="DejaVu Sans Mono"/><path id="path8369" fill="url(#linearGradient1401)" fill-opacity="1" d="m 3677.1676,-1066.1651 v 0.6163 h -0.2739 c -0.7105,0 -1.187,-0.1055 -1.4295,-0.3167 -0.2397,-0.2111 -0.3596,-0.632 -0.3595,-1.2626 v -1.0229 c -10e-5,-0.4308 -0.077,-0.729 -0.2312,-0.8945 -0.1512,-0.1655 -0.4265,-0.2482 -0.826,-0.2482 h -0.2654 v -0.6121 h 0.2654 c 0.4023,0 0.6791,-0.081 0.8303,-0.2439 0.1512,-0.1627 0.2268,-0.458 0.2269,-0.886 v -1.0272 c -10e-5,-0.6305 0.1198,-1.05 0.3595,-1.2583 0.2425,-0.2111 0.719,-0.3167 1.4295,-0.3167 h 0.2739 v 0.612 h -0.2996 c -0.3995,1e-4 -0.6606,0.063 -0.7832,0.1884 -0.1199,0.1227 -0.1798,0.3866 -0.1798,0.7918 v 1.0614 c 0,0.448 -0.066,0.7732 -0.1969,0.9758 -0.1284,0.2026 -0.3495,0.3396 -0.6634,0.4109 0.3167,0.077 0.5393,0.2168 0.6677,0.4194 0.1284,0.2026 0.1926,0.5265 0.1926,0.9716 v 1.0614 c 0,0.408 0.06,0.6734 0.1798,0.7961 0.1226,0.1227 0.3837,0.184 0.7832,0.184 h 0.2996" font-family="DejaVu Sans Mono"/><path id="path8371" fill="url(#linearGradient1403)" fill-opacity="1" d="m 3682.5192,-1071.5218 -1.7163,2.294 1.8832,2.4995 h -0.9116 l -1.4039,-1.9217 -1.3995,1.9217 h -0.9116 l 1.8831,-2.4995 -1.7162,-2.294 h 0.8731 l 1.2711,1.7334 1.2626,-1.7334 h 0.886" font-family="DejaVu Sans Mono"/><path id="path8373" fill="url(#linearGradient1405)" fill-opacity="1" d="m 3683.8592,-1066.1651 h 0.291 c 0.4024,0 0.6649,-0.063 0.7876,-0.1883 0.1227,-0.1255 0.184,-0.3895 0.184,-0.7918 v -1.0614 c 0,-0.4451 0.064,-0.769 0.1926,-0.9716 0.1284,-0.2026 0.351,-0.3424 0.6677,-0.4194 -0.3139,-0.071 -0.5365,-0.2083 -0.6677,-0.4109 -0.1284,-0.2026 -0.1926,-0.5278 -0.1926,-0.9758 v -1.0614 c 0,-0.4024 -0.061,-0.6663 -0.184,-0.7918 -0.1227,-0.1256 -0.3852,-0.1883 -0.7876,-0.1884 h -0.291 v -0.612 h 0.2654 c 0.7104,0 1.1855,0.1056 1.4252,0.3167 0.2397,0.2083 0.3595,0.6278 0.3595,1.2583 v 1.0272 c 0,0.428 0.076,0.7233 0.2269,0.886 0.154,0.1626 0.4322,0.2439 0.8345,0.2439 h 0.274 v 0.6121 h -0.274 c -0.4023,0 -0.6805,0.083 -0.8345,0.2482 -0.1513,0.1655 -0.2269,0.4637 -0.2269,0.8945 v 1.0229 c 0,0.6306 -0.1198,1.0515 -0.3595,1.2626 -0.2397,0.2112 -0.7148,0.3167 -1.4252,0.3167 h -0.2654 v -0.6163" font-family="DejaVu Sans Mono"/></g><use id="use10356" width="5033" height="1085" x="0" y="0" transform="matrix(-1,0,0,1,7460,0)" xlink:href="#rect10222"/><path id="path10495" fill="none" stroke="#fff" stroke-linecap="square" stroke-linejoin="miter" stroke-opacity="1" stroke-width="1" d="m 3672.4957,-1527.1378 h 115.0084 m -115.0084,-45 h 115.0084 m -115.0084,-20 h 115.0084" opacity=".75"/><path id="path9671" fill="none" stroke="#f87019" stroke-dasharray="1 1" stroke-dashoffset="0" stroke-linecap="square" stroke-linejoin="miter" stroke-miterlimit="4" stroke-opacity="1" stroke-width="1" d="m 3781.5,-1597.1369 v 72.9991 m -103,-72.9991 v 72.9991 m 51,-72.9991 v 72.9991 m -57.0043,-4 h 115.0084 m -115.0084,-45 h 115.0084 m -115.0084,-20 h 115.0084" opacity=".25"/><path id="path10337" fill="#fff" fill-opacity="1" stroke="none" d="m 3721.9679,-1592.6378 h 60.0325 v 12.0001 h -6.0033 v -4 h -48.2859 l -24.3647,57.9999 h -5.0992 l -14.8145,-31.5448 -5.8739,3.2928 -2.1997,-7.5648 0.6725,-1.5554 12.0751,-3.6375 12.5939,24.5797 21.2624,-49.57" font-family="Symbol" font-size="8" font-stretch="normal" font-style="normal" font-variant="normal" font-weight="normal"/><path id="path10497" fill="none" stroke="#f87019" stroke-dasharray="1 3" stroke-dashoffset="0" stroke-linecap="square" stroke-linejoin="miter" stroke-miterlimit="4" stroke-opacity="1" stroke-width="1" d="m 3781.5,-1597.1369 v 72.9991 m -103,-72.9991 v 72.9991 m 51,-72.9991 v 72.9991 m -57.0043,-4 h 115.0084 m -115.0084,-45 h 115.0084 m -115.0084,-20 h 115.0084" opacity=".7"/><path id="path8416" fill="url(#linearGradient22197)" fill-opacity="1" stroke="none" d="m 3721.9679,-1593.6378 h 60.0325 v 12.0001 h -6.0033 v -4 h -49.0203 l -24.4584,57.9999 h -3.5523 l -14.9799,-31.9656 -5.8335,3.0573 -2.1523,-7.4951 12.1064,-4.6063 12.5939,24.5797 21.2624,-49.57" font-family="Symbol" font-size="8" font-stretch="normal" font-style="normal" font-variant="normal" font-weight="normal" opacity=".8"/><path id="path10339" fill="#fff" fill-opacity="1" fill-rule="nonzero" stroke="none" d="m 3778.8992,-1572.6378 h -10.4586 l -12.1902,15.9972 h -0.3098 l -11.777,-15.9972 h -11.275 l 16.8719,22.4298 v 0.285 l -16.9604,23.2852 h 10.6244 l 12.3093,-16.7093 h 0.31 l 12.3979,16.7093 h 11.3625 l -17.3636,-23.6652 v -0.2852 l 16.4586,-22.0496" display="inline" font-family="Vegur" font-size="51.653" font-stretch="normal" font-style="normal" font-variant="normal" font-weight="normal" overflow="visible" visibility="visible" style="marker:none"/><path id="path8420" fill="url(#linearGradient22199)" fill-opacity="1" fill-rule="nonzero" stroke="none" d="m 3778.3578,-1573.6378 h -9.9172 l -12.1902,15.9972 h -0.3098 l -11.777,-15.9972 h -10.7437 l 16.8719,22.4298 v 0.285 l -17.4917,23.2852 h 9.9173 l 13.0164,-17.328 h 0.31 l 13.0166,17.328 h 10.7438 l -17.905,-23.6652 v -0.2852 l 16.4586,-22.0496" display="inline" font-family="Vegur" font-size="51.653" font-stretch="normal" font-style="normal" font-variant="normal" font-weight="normal" opacity=".8" overflow="visible" visibility="visible" style="marker:none"/><path id="path9853" fill="#000" fill-opacity="1" stroke="none" d="m 3721.9688,-1593.6378 -21.2813,49.5625 -12.5937,-24.5625 -12.0938,4.5937 0.3125,1.125 11.1875,-4.375 13.1875,25.875 22.0937,-51.2187 H 3781 v 11 h 1 v -12 z m 54.0312,8 v 4 h 1.0938 v -3.125 l -1.0626,-0.875 h -0.031 z" font-family="Symbol" font-size="8" font-stretch="normal" font-style="normal" font-variant="normal" font-weight="normal" opacity=".25"/><path id="path9899" fill="#000" fill-opacity="1" fill-rule="nonzero" stroke="none" d="m 3733.4062,-1573.6378 0.75,1 h 9.4688 l 11.7812,16 h 1.4063 l 12.1875,-16 h 8.5938 l 0.75,-1 h -9.9063 l -12.1875,16 h -0.3125 l -11.7813,-16 z m 28.5,22.0625 -0.4687,1.2812 17.1563,22.6563 h 1.2187 l -17.9063,-23.6563 z m -11.625,0.5 v 0.1562 l -17.4687,23.2813 h 1.3125 l 16.7188,-22.2813 z" display="inline" font-family="Vegur" font-size="51.653" font-stretch="normal" font-style="normal" font-variant="normal" font-weight="normal" opacity=".25" overflow="visible" visibility="visible" style="marker:none"/><rect id="rect10288" width="120" height="1" x="3670" y="-1523.638" fill="url(#linearGradient22201)" fill-opacity="1" fill-rule="nonzero" stroke="none" stroke-width="1" display="inline" opacity=".35" overflow="visible" visibility="visible" style="marker:none"/><rect id="rect10312" width="74" height="1" x="-1597.638" y="-3671" fill="url(#linearGradient2042)" fill-opacity="1" fill-rule="nonzero" stroke="none" stroke-width="1" display="inline" opacity=".35" overflow="visible" transform="rotate(90)" visibility="visible" style="marker:none"/><use id="use10350" width="5033" height="1085" x="0" y="0" transform="translate(119)" xlink:href="#rect10312"/><rect id="rect10352" width="77.75" height="1" x="-1599.388" y="-3669" fill="url(#linearGradient2044)" fill-opacity="1" fill-rule="nonzero" stroke="none" stroke-width="1" display="inline" opacity=".25" overflow="visible" transform="rotate(90)" visibility="visible" style="marker:none"/><use id="use10368" width="5033" height="1085" x="0" y="0" transform="translate(123)" xlink:href="#rect10352"/><use id="use10386" width="5033" height="1085" x="0" y="0" transform="matrix(0,1,-1.56913,0,1280.85,-5189.64)" xlink:href="#rect10352"/><use id="use10408" width="5033" height="1085" x="0" y="0" transform="translate(0,26)" xlink:href="#use10386"/><use id="use10410" width="5033" height="1085" x="0" y="0" opacity=".5" transform="translate(0,-23)" xlink:href="#use10408"/><rect id="rect10420" width="20" height="20" x="3770" y="-1516.638" fill="url(#linearGradient2046)" fill-opacity="1" fill-rule="nonzero" stroke="none" stroke-width="2" display="inline" opacity=".15" overflow="visible" visibility="visible" style="marker:none"/><use id="use10426" width="5033" height="1085" x="0" y="0" transform="matrix(-1,0,0,1,7460,0)" xlink:href="#rect10420"/><use id="use10430" width="5033" height="1085" x="0" y="0" opacity=".5" transform="matrix(0,1,-1.56913,0,1280.85,-5188.64)" xlink:href="#rect10352"/><use id="use10434" width="5033" height="1085" x="0" y="0" opacity=".5" transform="matrix(0,1,-1.56913,0,1280.85,-5268.64)" xlink:href="#rect10352"/><path id="path8482-9" fill="url(#linearGradient2048)" fill-opacity="1" fill-rule="nonzero" stroke="none" stroke-width="2" d="m 3666,-1542.6378 v 49 1 h 1 49 v -1 h -49 v -49 z" display="inline" opacity=".5" overflow="visible" visibility="visible" style="marker:none"/><use id="use10476" width="5033" height="1085" x="0" y="0" transform="matrix(-1,0,0,1,7460,0)" xlink:href="#path8482-9"/><use id="use10486" width="5033" height="1085" x="0" y="0" opacity=".25" transform="rotate(180,3730,-1547.64)" xlink:href="#path8482-9"/><use id="use10488" width="5033" height="1085" x="0" y="0" opacity=".25" transform="matrix(1,0,0,-1,0,-3095.28)" xlink:href="#path8482-9"/><rect id="rect10501" width="22" height="1" x="-1517.638" y="-3669" fill="url(#linearGradient2050)" fill-opacity="1" fill-rule="nonzero" stroke="none" stroke-width="1" display="inline" opacity=".5" overflow="visible" transform="rotate(90)" visibility="visible" style="marker:none"/><use id="use10505" width="5033" height="1085" x="0" y="0" transform="matrix(1.04544,0,0,1.04544,-43.6665,67.9588)" xlink:href="#rect10501"/></g><g id="g8298" display="inline" transform="translate(-3285.9988,954.63779)"><rect id="rect8463" width="24" height="22" x="3617.999" y="-877.638" fill="url(#linearGradient54806)" fill-opacity="1" fill-rule="nonzero" stroke="none" stroke-width="1" display="inline" overflow="visible" visibility="visible" style="marker:none"/><rect id="rect8465" width="24" height="1" x="3617.999" y="-858.638" fill="#f09e6f" fill-opacity="1" fill-rule="nonzero" stroke="none" stroke-width="1" display="inline" overflow="visible" visibility="visible" style="marker:none"/><rect id="rect8467" width="24" height="1" x="3617.999" y="-875.638" fill="#f09e6f" fill-opacity="1" fill-rule="nonzero" stroke="none" stroke-width="1" display="inline" overflow="visible" visibility="visible" style="marker:none"/><rect id="rect8469" width="22" height="1" x="-877.638" y="-3619.999" fill="#f09e6f" fill-opacity="1" fill-rule="nonzero" stroke="none" stroke-width="1" display="inline" overflow="visible" transform="rotate(90)" visibility="visible" style="marker:none"/><rect id="rect8471" width="22" height="1" x="-877.638" y="-3640.999" fill="#f09e6f" fill-opacity="1" fill-rule="nonzero" stroke="none" stroke-width="1" display="inline" overflow="visible" transform="rotate(90)" visibility="visible" style="marker:none"/><g id="g8473" fill="url(#linearGradient8485)" fill-opacity="1" stroke="none" display="inline" font-family="Vegur" font-size="8" font-stretch="normal" font-style="normal" font-variant="normal" font-weight="normal" transform="matrix(1.50411,0,0,1.50411,-1963.9,-1914.17)"><path id="path8475" fill="url(#linearGradient1807)" fill-opacity="1" d="m 3725.0541,691.79021 v 1.99453 h -0.9972 v -0.93078 h -6.1831 l -1.3962,8.24407 h -1.5956 l -1.3297,-4.18852 h -0.7979 v -1.13024 l 1.6622,2e-5 1.1634,3.32421 1.1635,-7.3133" font-family="Symbol"/></g><path id="path8477" fill="none" stroke="url(#linearGradient54797)" stroke-dasharray="none" stroke-linecap="round" stroke-linejoin="round" stroke-miterlimit="4" stroke-opacity="1" stroke-width="2" d="m 3636.9988,-867.63779 -7,7"/><path id="path8479" fill="none" stroke="url(#linearGradient54794)" stroke-dasharray="none" stroke-linecap="round" stroke-linejoin="round" stroke-miterlimit="4" stroke-opacity="1" stroke-width="2" d="m 3629.9988,-867.63779 7,7"/></g><g id="g8353" display="inline" transform="translate(-3285.9988,915.63782)"><rect id="rect8291" width="16" height="14" x="3613.999" y="-772.638" fill="url(#linearGradient54821)" fill-opacity="1" fill-rule="nonzero" stroke="none" stroke-width="1" display="inline" overflow="visible" visibility="visible" style="marker:none"/><rect id="rect8297" width="16" height="1" x="3613.999" y="-759.638" fill="#f09e6f" fill-opacity="1" fill-rule="nonzero" stroke="none" stroke-width="1" display="inline" overflow="visible" visibility="visible" style="marker:none"/><rect id="rect8377" width="16" height="1" x="3613.999" y="-772.638" fill="#f09e6f" fill-opacity="1" fill-rule="nonzero" stroke="none" stroke-width="1" display="inline" overflow="visible" visibility="visible" style="marker:none"/><rect id="rect8379" width="14" height="1" x="-772.638" y="-3614.999" fill="#f09e6f" fill-opacity="1" fill-rule="nonzero" stroke="none" stroke-width="1" display="inline" overflow="visible" transform="rotate(90)" visibility="visible" style="marker:none"/><rect id="rect8381" width="14" height="1" x="-772.638" y="-3629.999" fill="#f09e6f" fill-opacity="1" fill-rule="nonzero" stroke="none" stroke-width="1" display="inline" overflow="visible" transform="rotate(90)" visibility="visible" style="marker:none"/><g id="g8331" fill="url(#linearGradient8365)" fill-opacity="1" stroke="none" display="inline" font-family="Vegur" font-size="8" font-stretch="normal" font-style="normal" font-variant="normal" font-weight="normal" transform="matrix(1.50411,0,0,1.50411,-1968.9,-1815.17)"><path id="path8333" fill="url(#linearGradient8363)" fill-opacity="1" d="m 3721.0651,694.44959 v 1.32969 h -0.6648 v -0.59836 h -3.6568 l -1.3962,5.91711 h -0.9308 l -1.3296,-3.32422 -0.6649,-10e-6 v -0.66485 l 1.3297,2e-5 1.0637,2.65937 1.2633,-5.31876" font-family="Symbol"/></g><path id="path8383" fill="none" stroke="url(#linearGradient54812)" stroke-dasharray="none" stroke-linecap="round" stroke-linejoin="round" stroke-miterlimit="4" stroke-opacity="1" stroke-width="1.3" d="m 3626.9988,-766.13779 -5,5"/><path id="path8387" fill="none" stroke="url(#linearGradient54809)" stroke-dasharray="none" stroke-linecap="round" stroke-linejoin="round" stroke-miterlimit="4" stroke-opacity="1" stroke-width="1.3" d="m 3621.9988,-766.13779 5,5"/></g><path id="path6070" fill="none" stroke="url(#linearGradient54830)" stroke-linecap="square" stroke-linejoin="round" stroke-opacity="1" stroke-width="1" d="M 331,245.0001 328,248" display="inline"/><g id="g1942"><path id="path6045" fill="none" stroke="url(#linearGradient1882)" stroke-linecap="square" stroke-linejoin="round" stroke-opacity="1" stroke-width="1" d="m 331.5,243 v -0.5 h -5 l -1,6.00007 -0.25,-2.99997 h -0.75" display="inline"/><path id="path6072" fill="none" stroke="url(#linearGradient54827)" stroke-linecap="square" stroke-linejoin="round" stroke-opacity="1" stroke-width="1" d="M 328,245.0001 331,248" display="inline"/></g><g id="g1990" transform="translate(-1)"><rect id="rect1901" width="14" height="12" x="326" y="196" fill="url(#linearGradient1921)" fill-opacity="1" fill-rule="nonzero" stroke="none" stroke-width="1" display="inline" overflow="visible" visibility="visible" style="marker:none"/><rect id="rect1903" width="14" height="1" x="326" y="207" fill="#f09e6f" fill-opacity="1" fill-rule="nonzero" stroke="none" stroke-width="1" display="inline" overflow="visible" visibility="visible" style="marker:none"/><rect id="rect1905" width="13" height="1" x="326" y="196" fill="#f09e6f" fill-opacity="1" fill-rule="nonzero" stroke="none" stroke-width="1" display="inline" overflow="visible" visibility="visible" style="marker:none"/><rect id="rect1907" width="12" height="1" x="196" y="-327" fill="#f09e6f" fill-opacity="1" fill-rule="nonzero" stroke="none" stroke-width="1" display="inline" overflow="visible" transform="rotate(90)" visibility="visible" style="marker:none"/><rect id="rect1909" width="12" height="1" x="196" y="-340" fill="#f09e6f" fill-opacity="1" fill-rule="nonzero" stroke="none" stroke-width="1" display="inline" overflow="visible" transform="rotate(90)" visibility="visible" style="marker:none"/><path id="path1966" fill="none" stroke="url(#linearGradient1974)" stroke-linecap="square" stroke-linejoin="round" stroke-opacity="1" stroke-width="1" d="m 336.50011,201.49999 -3,2.9999" display="inline"/><path id="path1968" fill="none" stroke="url(#linearGradient1976)" stroke-linecap="square" stroke-linejoin="round" stroke-opacity="1" stroke-width="1" d="m 337.5,199 v -0.5 h -6 l -1,7.00007 -1.25,-3.99997 h -0.75" display="inline"/><path id="path1970" fill="none" stroke="url(#linearGradient1978)" stroke-linecap="square" stroke-linejoin="round" stroke-opacity="1" stroke-width="1" d="m 333.50011,201.49999 3,2.9999" display="inline"/></g></g><g id="layer3" display="inline"><path id="path4255" fill="#fff" fill-opacity="1" fill-rule="nonzero" stroke="none" stroke-width="1" d="m 64,156 v 73.00683 C 63.82701,264.37495 67.625155,268 102.92188,268 h 98.15624 C 236.37484,268 239.08173,264.36345 240,229.00683 V 156 Z" color="#000" display="inline" enable-background="accumulate" opacity=".1" overflow="visible" visibility="visible" style="marker:none"/><path id="path1006" fill="#fff" fill-opacity="1" fill-rule="nonzero" stroke="none" stroke-width="1" d="M 326,84 V 96.251953 C 325.9567,105.09398 326.90629,106 335.73047,106 h 16.53906 C 361.09371,106 362,105.09408 362,96.251953 V 84 Z" color="#000" display="inline" enable-background="accumulate" opacity=".1" overflow="visible" visibility="visible" style="marker:none"/><path id="path1013" fill="#fff" fill-opacity="1" fill-rule="nonzero" stroke="none" stroke-width="1" d="m 344,62 v 44 h 8.26953 C 361.09371,106 362,105.09408 362,96.251953 V 84 71.748047 C 362,62.905917 361.09371,62 352.26953,62 Z" color="#000" display="inline" enable-background="accumulate" opacity=".1" overflow="visible" visibility="visible" style="marker:none"/><path id="path1007" fill="#fff" fill-opacity="1" fill-rule="nonzero" stroke="none" stroke-width="1" d="m 323,200 v 6.125 c -0.0217,4.42101 0.45314,4.875 4.86523,4.875 h 8.26954 C 340.54686,211 341,210.54607 341,206.125 V 200 Z" color="#000" display="inline" enable-background="accumulate" opacity=".1" overflow="visible" visibility="visible" style="marker:none"/><path id="path1014" fill="#fff" fill-opacity="1" fill-rule="nonzero" stroke="none" stroke-width="1" d="m 332,189 v 22 h 4.13477 C 340.54686,211 341,210.54607 341,206.125 V 200 193.875 C 341,189.45394 340.54686,189 336.13477,189 Z" color="#000" display="inline" enable-background="accumulate" opacity=".1" overflow="visible" visibility="visible" style="marker:none"/><path id="path1011" fill="#fff" fill-opacity="1" fill-rule="nonzero" stroke="none" stroke-width="1" d="m 324,148 v 7.79688 C 323.9724,161.42361 324.57798,162 330.19336,162 h 11.61523 C 347.42399,162 348,161.42369 348,155.79688 V 148 Z" color="#000" display="inline" enable-background="accumulate" opacity=".1" overflow="visible" visibility="visible" style="marker:none"/><path id="path1018" fill="#fff" fill-opacity="1" fill-rule="nonzero" stroke="none" stroke-width="1" d="m 336,134 v 28 h 5.80859 C 347.42399,162 348,161.42369 348,155.79688 V 148 140.20312 C 348,134.57632 347.42397,134 341.80859,134 Z" color="#000" display="inline" enable-background="accumulate" opacity=".1" overflow="visible" visibility="visible" style="marker:none"/><path id="path1009" fill="#fff" fill-opacity="1" fill-rule="nonzero" stroke="none" stroke-width="1" d="m 328,237 v 14 h 2.9043 C 333.712,251 334,250.71185 334,247.89844 V 244 240.10156 C 334,237.28816 333.71199,237 330.9043,237 Z" color="#000" display="inline" enable-background="accumulate" opacity=".1" overflow="visible" visibility="visible" style="marker:none"/><path id="path1016" fill="#fff" fill-opacity="1" fill-rule="nonzero" stroke="none" stroke-width="1" d="m 322,244 v 3.89844 C 321.9862,250.71181 322.28801,251 325.0957,251 h 5.8086 C 333.712,251 334,250.71185 334,247.89844 V 244 Z" color="#000" display="inline" enable-background="accumulate" opacity=".1" overflow="visible" visibility="visible" style="marker:none"/><path id="path4231" fill="#fff" fill-opacity="1" fill-rule="nonzero" stroke="none" stroke-width="1" d="m 151.99486,44 v 224 h 49.07812 c 35.29672,0 38.00361,-3.63655 38.92188,-38.99317 V 156 82.993165 C 239.99486,47.624631 236.3697,44 201.07298,44 Z" color="#000" display="inline" enable-background="accumulate" opacity=".1" overflow="visible" visibility="visible" style="marker:none"/></g><g id="layer9" display="inline"><path id="path1089" fill="none" fill-opacity="1" fill-rule="nonzero" stroke="#000" stroke-opacity="1" stroke-width="1" d="m 330.19336,133.5 c -1.41241,0 -2.52238,0.0342 -3.42383,0.18555 -0.90145,0.15132 -1.61987,0.43164 -2.14258,0.95312 -0.5227,0.52148 -0.80325,1.23898 -0.95312,2.14063 -0.14988,0.90164 -0.18075,2.0101 -0.17383,3.42578 V 148 v 7.79688 c -0.007,1.41452 0.024,2.52269 0.17383,3.42382 0.14987,0.90165 0.43041,1.61915 0.95312,2.14063 0.52272,0.52148 1.24112,0.8018 2.14258,0.95312 0.90146,0.15132 2.01142,0.18555 3.42383,0.18555 h 11.61523 c 1.41241,0 2.51847,-0.0342 3.41797,-0.18555 0.8995,-0.15137 1.61597,-0.43149 2.13672,-0.95312 0.52075,-0.52163 0.80004,-1.23774 0.95117,-2.13867 0.15113,-0.90094 0.18555,-2.01055 0.18555,-3.42578 V 148 140.20312 c 0,-1.41524 -0.0344,-2.52484 -0.18555,-3.42578 -0.15113,-0.90093 -0.43042,-1.61703 -0.95117,-2.13867 -0.52075,-0.52163 -1.23722,-0.80175 -2.13672,-0.95312 C 344.32706,133.53418 343.221,133.5 341.80859,133.5 Z" color="#000" display="inline" enable-background="accumulate" opacity=".3" overflow="visible" visibility="visible" style="marker:none"/><path id="path1085" fill="none" fill-opacity="1" fill-rule="nonzero" stroke="#000" stroke-opacity="1" stroke-width="1" d="m 327.86523,188.5 c -1.11158,0 -1.98683,0.0256 -2.70703,0.14648 -0.72019,0.1209 -1.3105,0.34863 -1.74218,0.7793 -0.43169,0.43067 -0.65954,1.01974 -0.7793,1.74024 -0.11977,0.72049 -0.14217,1.59669 -0.13672,2.71093 V 200 v 6.125 c -0.005,1.1131 0.017,1.989 0.13672,2.70898 0.11976,0.72051 0.3476,1.30957 0.7793,1.74024 0.43169,0.43067 1.02199,0.6584 1.74218,0.7793 0.7202,0.12089 1.59545,0.14648 2.70703,0.14648 h 8.26954 c 1.11158,0 1.98637,-0.0255 2.70507,-0.14648 0.7187,-0.12095 1.30623,-0.34848 1.73633,-0.7793 0.4301,-0.43083 0.6566,-1.01849 0.77735,-1.73828 0.12074,-0.71979 0.14648,-1.59713 0.14648,-2.71094 V 200 193.875 c 0,-1.11381 -0.0257,-1.99115 -0.14648,-2.71094 -0.12075,-0.71979 -0.34725,-1.30745 -0.77735,-1.73828 -0.4301,-0.43082 -1.01763,-0.65835 -1.73633,-0.7793 -0.7187,-0.12094 -1.59349,-0.14648 -2.70507,-0.14648 z" color="#000" display="inline" enable-background="accumulate" opacity=".3" overflow="visible" visibility="visible" style="marker:none"/><path id="path1087" fill="none" fill-opacity="1" fill-rule="nonzero" stroke="#000" stroke-opacity="1" stroke-width="1" d="m 325.0957,236.5 c -0.71048,0 -1.27344,0.0154 -1.75195,0.0957 -0.47851,0.0803 -0.89671,0.23728 -1.20703,0.54688 -0.31032,0.30959 -0.46726,0.7261 -0.54688,1.20508 -0.0796,0.47897 -0.0933,1.04352 -0.0898,1.75586 V 244 v 3.89844 c -0.003,0.71121 0.0103,1.27546 0.0898,1.7539 0.0796,0.47898 0.23655,0.89549 0.54688,1.20508 0.31033,0.3096 0.72851,0.46655 1.20703,0.54688 0.47852,0.0803 1.04147,0.0957 1.75195,0.0957 h 5.8086 c 0.71048,0 1.27236,-0.0153 1.75,-0.0957 0.47763,-0.0804 0.89584,-0.23713 1.20508,-0.54688 0.30921,-0.30975 0.46469,-0.72681 0.54492,-1.20508 0.0802,-0.47826 0.0957,-1.04201 0.0957,-1.7539 V 244 240.10156 c 0,-0.71189 -0.0155,-1.27564 -0.0957,-1.7539 -0.0802,-0.47827 -0.2357,-0.89533 -0.54492,-1.20508 -0.30924,-0.30975 -0.72745,-0.4665 -1.20508,-0.54688 -0.47764,-0.0804 -1.03952,-0.0957 -1.75,-0.0957 z" color="#000" display="inline" enable-background="accumulate" opacity=".3" overflow="visible" visibility="visible" style="marker:none"/></g><g id="layer5" display="inline"><path id="path945" fill="#000" fill-opacity="1" fill-rule="nonzero" stroke="none" stroke-width="1" d="m 64,227.00586 v 2 C 63.82701,264.37398 67.62515,268 102.92188,268 h 98.15624 c 35.29672,0 38.00361,-3.63752 38.92188,-38.99414 v -2 C 239.08173,262.36248 236.37484,266 201.07812,266 H 102.92188 C 67.62515,266 63.82701,262.37398 64,227.00586 Z" color="#000" display="inline" enable-background="accumulate" opacity=".2" overflow="visible" visibility="visible" style="marker:none"/><path id="path935" fill="none" fill-opacity="1" fill-rule="nonzero" stroke="url(#linearGradient981)" stroke-dasharray="none" stroke-miterlimit="4" stroke-opacity="1" stroke-width="2" d="m 327.8652,189 c -4.41209,0 -4.88682,0.45318 -4.8652,4.87419 V 200 206.12581 C 322.9783,210.54682 323.45311,211 327.8652,211 h 8.2696 C 340.54689,211 341,210.54688 341,206.12581 V 200 193.87419 C 341,189.45313 340.54688,189 336.13479,189 Z" clip-path="url(#clipPath971)" color="#000" display="inline" enable-background="accumulate" opacity=".2" overflow="visible" transform="translate(1.5261807e-6)" visibility="visible" style="marker:none"/><path id="path937" fill="none" fill-opacity="1" fill-rule="nonzero" stroke="url(#linearGradient993)" stroke-dasharray="none" stroke-miterlimit="4" stroke-opacity="1" stroke-width="2" d="m 325.09646,237 c -2.80769,0 -3.10979,0.28839 -3.09603,3.10176 V 244 v 3.89824 c -0.0138,2.81337 0.28834,3.10176 3.09603,3.10176 h 5.8075 C 333.71166,251 334,250.71165 334,247.89824 V 244 240.10176 C 334,237.28836 333.71165,237 330.90396,237 Z" clip-path="url(#clipPath983)" color="#000" display="inline" enable-background="accumulate" opacity=".2" overflow="visible" transform="translate(1.5261807e-6)" visibility="visible" style="marker:none"/><path id="path939" fill="none" fill-opacity="1" fill-rule="nonzero" stroke="url(#linearGradient969)" stroke-dasharray="none" stroke-miterlimit="4" stroke-opacity="1" stroke-width="2" d="m 330.1929,133.99999 c -5.61538,0 -6.21958,0.57678 -6.19206,6.20352 v 7.79648 7.79648 c -0.0276,5.62673 0.57668,6.20351 6.19206,6.20351 h 11.615 c 5.6154,0 6.19208,-0.5767 6.19208,-6.20351 v -7.79648 -7.79648 c 0,-5.6268 -0.5767,-6.20352 -6.19208,-6.20352 z" clip-path="url(#clipPath959)" color="#000" display="inline" enable-background="accumulate" opacity=".2" overflow="visible" transform="translate(1.5261807e-6)" visibility="visible" style="marker:none"/><path id="path931" fill="#fff" fill-opacity="1" fill-rule="nonzero" stroke="none" stroke-width="1" d="M 102.92188,44 C 67.625152,44 63.82701,47.626029 64,82.994141 v 2 C 63.82701,49.626029 67.625152,46 102.92188,46 h 98.15624 C 236.37485,46 240,49.625608 240,84.994141 v -2 C 240,47.625608 236.37485,44 201.07812,44 Z" color="#000" display="inline" enable-background="accumulate" opacity=".2" overflow="visible" visibility="visible" style="marker:none"/><path id="path4254" fill="#fff" fill-opacity="1" fill-rule="nonzero" stroke="none" stroke-dasharray="none" stroke-dashoffset="0" stroke-linecap="butt" stroke-linejoin="miter" stroke-miterlimit="4" stroke-opacity="1" stroke-width="8" d="m 180,268 60,-60 v 22.48388 C 239.94765,264.47969 236.19732,268 201.8259,268 Z" color="#000" display="inline" enable-background="accumulate" opacity=".08" overflow="visible" visibility="visible" style="marker:none"/></g></g></svg>