<svg xmlns="http://www.w3.org/2000/svg" xmlns:svg="http://www.w3.org/2000/svg" xmlns:xlink="http://www.w3.org/1999/xlink" id="svg11300" width="400" height="300" display="inline" enable-background="new" version="1.0"><title id="title3004">Suru Icon Theme Template</title><defs id="defs3"><clipPath id="clipPath9430" clipPathUnits="userSpaceOnUse"><path id="path9432" fill="#fff" fill-opacity="1" fill-rule="nonzero" stroke="none" stroke-width="1" d="m 166.0625,-196 h 179.875 C 491.2348,-196 512,-175.28677 512,-30.125 v 148.25 C 512,263.28618 491.2348,284 345.9375,284 H 166.0625 C 20.7652,284 0,263.28618 0,118.125 V -30.125 C 0,-175.28677 20.7652,-196 166.0625,-196 Z" color="#000" display="inline" enable-background="new" overflow="visible" visibility="visible" style="marker:none"/></clipPath><clipPath id="clipPath1082" clipPathUnits="userSpaceOnUse"><path id="path1084" fill="#8c59d9" fill-opacity="1" stroke="none" stroke-dasharray="none" stroke-dashoffset="0" stroke-linecap="round" stroke-linejoin="round" stroke-miterlimit="4" stroke-opacity="1" stroke-width="2" d="M 361.9375,-212 C 507.2348,-212 528,-191.28677 528,-46.125 V 70.125 C 528,215.28618 507.2348,236 361.9375,236 H 214.0625 C 68.7652,236 48,215.28618 48,70.125 V -46.125 C 48,-191.28677 68.7652,-212 214.0625,-212 Z" display="inline" enable-background="new" opacity="1"/></clipPath><filter id="filter4346" width="1.026" height="1.022" x="-.013" y="-.011" color-interpolation-filters="sRGB"><feGaussianBlur id="feGaussianBlur4348" stdDeviation="2.12"/></filter><linearGradient id="linearGradient4358" x1="88" x2="488" y1="88" y2="488" gradientUnits="userSpaceOnUse" xlink:href="#linearGradient4360"/><linearGradient id="linearGradient4360"><stop id="stop4362" offset="0" stop-color="#000" stop-opacity=".588"/><stop id="stop4364" offset=".88" stop-color="#000" stop-opacity="0"/><stop id="stop4366" offset="1" stop-color="#000" stop-opacity="1"/></linearGradient><filter id="filter4380" width="1.106" height="1.088" x="-.053" y="-.044" color-interpolation-filters="sRGB"><feGaussianBlur id="feGaussianBlur4382" stdDeviation="8.48"/></filter><linearGradient id="linearGradient4226" x1="529.655" x2="-35.31" y1="401.584" y2="119.093" gradientTransform="matrix(0,-0.453125,-0.45311204,0,277.957,268)" gradientUnits="userSpaceOnUse" xlink:href="#linearGradient7701"/><linearGradient id="linearGradient951" x1="512" x2="0" y1="397.994" y2="125.994" gradientTransform="matrix(0,-0.11328125,-0.11327801,0,379.48855,112)" gradientUnits="userSpaceOnUse" xlink:href="#linearGradient7701"/><clipPath id="clipPath994" clipPathUnits="userSpaceOnUse"><path id="path996" fill="#cdcdcd" fill-opacity="1" fill-rule="nonzero" stroke="none" stroke-dasharray="none" stroke-miterlimit="4" stroke-opacity="1" stroke-width="2" d="m 335.73108,62 c -8.82418,0 -9.77365,0.90635 -9.7304,9.74838 V 84 96.25162 c -0.0433,8.84203 0.90622,9.74838 9.7304,9.74838 h 16.53919 c 8.82418,0 9.7304,-0.90625 9.7304,-9.74838 V 84 71.74838 C 362.00067,62.90625 361.09445,62 352.27027,62 Z" color="#000" display="inline" enable-background="accumulate" overflow="visible" visibility="visible" style="marker:none"/></clipPath><linearGradient id="linearGradient916" x1="459.034" x2="35.31" y1="419.233" y2="207.365" gradientTransform="matrix(0,-0.05664062,-0.05663901,0,349.74456,214)" gradientUnits="userSpaceOnUse" xlink:href="#linearGradient7701"/><linearGradient id="linearGradient920" x1="459.034" x2="35.31" y1="419.233" y2="207.365" gradientTransform="matrix(0,-0.03604403,-0.03604301,0,339.56432,252.90909)" gradientUnits="userSpaceOnUse" xlink:href="#linearGradient7701"/><linearGradient id="linearGradient924" x1="459.034" x2="35.31" y1="419.233" y2="207.365" gradientTransform="matrix(0,-0.07208805,-0.07208601,0,359.12864,165.81816)" gradientUnits="userSpaceOnUse" xlink:href="#linearGradient7701"/><linearGradient id="linearGradient927"><stop id="stop923" offset="0" stop-color="#fff" stop-opacity="1"/><stop id="stop933" offset=".125" stop-color="#fff" stop-opacity=".098"/><stop id="stop931" offset=".925" stop-color="#fff" stop-opacity=".098"/><stop id="stop925" offset="1" stop-color="#fff" stop-opacity=".498"/></linearGradient><clipPath id="clipPath994-5" clipPathUnits="userSpaceOnUse"><path id="path996-3" fill="#cdcdcd" fill-opacity="1" fill-rule="nonzero" stroke="none" stroke-dasharray="none" stroke-miterlimit="4" stroke-opacity="1" stroke-width="2" d="m 335.73108,62 c -8.82418,0 -9.77365,0.90635 -9.7304,9.74838 V 84 96.25162 c -0.0433,8.84203 0.90622,9.74838 9.7304,9.74838 h 16.53919 c 8.82418,0 9.7304,-0.90625 9.7304,-9.74838 V 84 71.74838 C 362.00067,62.90625 361.09445,62 352.27027,62 Z" color="#000" display="inline" enable-background="accumulate" overflow="visible" visibility="visible" style="marker:none"/></clipPath><linearGradient id="linearGradient981" x1="332" x2="332" y1="189" y2="211" gradientUnits="userSpaceOnUse" xlink:href="#linearGradient927"/><clipPath id="clipPath971" clipPathUnits="userSpaceOnUse"><path id="path973" fill="#46a926" fill-opacity="1" fill-rule="nonzero" stroke="none" stroke-dasharray="none" stroke-miterlimit="4" stroke-opacity="1" stroke-width="2" d="m 327.8652,189 c -4.41209,0 -4.88682,0.45318 -4.8652,4.87419 V 200 206.12581 C 322.9783,210.54682 323.45311,211 327.8652,211 h 8.2696 C 340.54689,211 341,210.54688 341,206.12581 V 200 193.87419 C 341,189.45313 340.54688,189 336.13479,189 Z" color="#000" display="inline" enable-background="accumulate" opacity="1" overflow="visible" visibility="visible" style="marker:none"/></clipPath><linearGradient id="linearGradient993" x1="328" x2="328" y1="237" y2="251" gradientUnits="userSpaceOnUse" xlink:href="#linearGradient927"/><clipPath id="clipPath983" clipPathUnits="userSpaceOnUse"><path id="path985" fill="#46a926" fill-opacity="1" fill-rule="nonzero" stroke="none" stroke-dasharray="none" stroke-miterlimit="4" stroke-opacity="1" stroke-width="2" d="m 325.09646,237 c -2.80769,0 -3.10979,0.28839 -3.09603,3.10176 V 244 v 3.89824 c -0.0138,2.81337 0.28834,3.10176 3.09603,3.10176 h 5.8075 C 333.71166,251 334,250.71165 334,247.89824 V 244 240.10176 C 334,237.28836 333.71165,237 330.90396,237 Z" color="#000" display="inline" enable-background="accumulate" opacity="1" overflow="visible" visibility="visible" style="marker:none"/></clipPath><linearGradient id="linearGradient969" x1="336" x2="336" y1="134" y2="162" gradientUnits="userSpaceOnUse" xlink:href="#linearGradient927"/><clipPath id="clipPath959" clipPathUnits="userSpaceOnUse"><path id="path961" fill="#46a926" fill-opacity="1" fill-rule="nonzero" stroke="none" stroke-dasharray="none" stroke-miterlimit="4" stroke-opacity="1" stroke-width="2" d="m 330.1929,133.99999 c -5.61538,0 -6.21958,0.57678 -6.19206,6.20352 v 7.79648 7.79648 c -0.0276,5.62673 0.57668,6.20351 6.19206,6.20351 h 11.615 c 5.6154,0 6.19208,-0.5767 6.19208,-6.20351 v -7.79648 -7.79648 c 0,-5.6268 -0.5767,-6.20352 -6.19208,-6.20352 z" color="#000" display="inline" enable-background="accumulate" opacity="1" overflow="visible" visibility="visible" style="marker:none"/></clipPath><linearGradient id="linearGradient7701"><stop id="stop7699" offset="0" stop-color="#950ba8" stop-opacity="1"/><stop id="stop7693" offset="1" stop-color="#c557bc" stop-opacity="1"/></linearGradient><linearGradient id="linearGradient21865" x1="1278" x2="1278" y1="-1062.638" y2="-1118.638" gradientTransform="matrix(2,0,0,2.00002,-1069,630.656)" gradientUnits="userSpaceOnUse" xlink:href="#linearGradient8754"/><linearGradient id="linearGradient8754"><stop id="stop8756" offset="0" stop-color="#dc85e9" stop-opacity="1"/><stop id="stop8758" offset="1" stop-color="#f8dcfb" stop-opacity="1"/></linearGradient><linearGradient id="linearGradient21867" x1="1559.5" x2="1542" y1="184" y2="184" gradientTransform="matrix(-1,0,0,1,2865,-1753.64)" gradientUnits="userSpaceOnUse" xlink:href="#linearGradient8742"/><linearGradient id="linearGradient8742"><stop id="stop8744" offset="0" stop-color="#9200ff" stop-opacity="1"/><stop id="stop8746" offset="1" stop-color="#f0f" stop-opacity="0"/></linearGradient><linearGradient id="linearGradient21869" x1="1559.5" x2="1542" y1="184" y2="184" gradientTransform="translate(-123,-1753.64)" gradientUnits="userSpaceOnUse" xlink:href="#linearGradient8742"/><radialGradient id="radialGradient21871" cx="152.333" cy="-754.638" r="15" fx="152.333" fy="-754.638" gradientTransform="matrix(4.06286e-6,1.01528,-4.27735,0,-1857.01,-1670.52)" gradientUnits="userSpaceOnUse" xlink:href="#linearGradient8717"/><linearGradient id="linearGradient8717"><stop id="stop8719" offset="0" stop-color="purple" stop-opacity="1"/><stop id="stop8723" offset=".727" stop-color="purple" stop-opacity="1"/><stop id="stop8721" offset="1" stop-color="#f0f" stop-opacity="0"/></linearGradient><linearGradient id="linearGradient21873" x1="453.5" x2="404.5" y1="970.5" y2="970.5" gradientTransform="matrix(2,0,0,2,513,-3495.64)" gradientUnits="userSpaceOnUse" xlink:href="#linearGradient8964"/><linearGradient id="linearGradient8964"><stop id="stop8966" offset="0" stop-color="#e196fb" stop-opacity="1"/><stop id="stop8968" offset=".13" stop-color="#f4c7fa" stop-opacity="1"/><stop id="stop8970" offset=".314" stop-color="#e091f3" stop-opacity="1"/><stop id="stop8972" offset=".441" stop-color="#d764e9" stop-opacity="1"/><stop id="stop8974" offset=".684" stop-color="#e7adf0" stop-opacity="1"/><stop id="stop8976" offset=".756" stop-color="#e6a9f8" stop-opacity="1"/><stop id="stop8978" offset=".88" stop-color="#e595f2" stop-opacity="1"/><stop id="stop8980" offset="1" stop-color="#f2cbf8" stop-opacity="1"/></linearGradient><linearGradient id="linearGradient21875" x1="1322" x2="1419" y1="-1568.511" y2="-1568.511" gradientTransform="translate(0.022825,4.5e-5)" gradientUnits="userSpaceOnUse" xlink:href="#linearGradient8663"/><linearGradient id="linearGradient8663"><stop id="stop8665" offset="0" stop-color="#9207a7" stop-opacity="1"/><stop id="stop8667" offset=".273" stop-color="#c658bc" stop-opacity="1"/><stop id="stop8669" offset=".51" stop-color="#a42eb6" stop-opacity="1"/><stop id="stop8671" offset=".834" stop-color="#b415cd" stop-opacity="1"/><stop id="stop8673" offset="1" stop-color="#950ba8" stop-opacity="1"/></linearGradient><radialGradient id="radialGradient21877" cx="518.854" cy="730.484" r="22.89" fx="518.854" fy="730.484" gradientTransform="matrix(0.959821,0,1.35768e-7,0.268231,21.681,534.374)" gradientUnits="userSpaceOnUse" xlink:href="#linearGradient14494"/><linearGradient id="linearGradient14494"><stop id="stop14496" offset="0" stop-color="#dc85e9" stop-opacity="1"/><stop id="stop14498" offset="1" stop-color="#f2cbf8" stop-opacity="1"/></linearGradient><linearGradient id="linearGradient8859"><stop id="stop8861" offset="0" stop-color="#fff" stop-opacity="1"/><stop id="stop8863" offset="1" stop-color="#a00" stop-opacity="0"/></linearGradient><linearGradient id="linearGradient21881" x1="1510.477" x2="1485.877" y1="169" y2="194" gradientTransform="matrix(0.984483,0,0,0.972527,-100.349,-1748.97)" gradientUnits="userSpaceOnUse" xlink:href="#linearGradient8984"/><linearGradient id="linearGradient8984"><stop id="stop8986" offset="0" stop-color="#fff" stop-opacity="1"/><stop id="stop8988" offset="1" stop-color="#fff" stop-opacity="0"/></linearGradient><linearGradient id="linearGradient21883" x1="1354.568" x2="1383.38" y1="-1522.359" y2="-1543.981" gradientTransform="matrix(0.976263,0.126435,-0.367421,0.97673,-556.181,-210.596)" gradientUnits="userSpaceOnUse" xlink:href="#linearGradient8984"/><linearGradient id="linearGradient4338"><stop id="stop4340" offset="0" stop-color="#f2f2f2" stop-opacity="1"/><stop id="stop4342" offset="1" stop-color="#f9f9f9" stop-opacity="1"/></linearGradient><linearGradient id="linearGradient1144" x1="208" x2="96" y1="28" y2="284" gradientUnits="userSpaceOnUse" xlink:href="#linearGradient4338"/><linearGradient id="linearGradient1148" x1="1372.884" x2="1372.884" y1="-1544.389" y2="-1558.638" gradientTransform="translate(0,-0.4994)" gradientUnits="userSpaceOnUse" xlink:href="#linearGradient8859"/><linearGradient id="linearGradient1234" x1="352" x2="332" y1="60" y2="108" gradientUnits="userSpaceOnUse" xlink:href="#linearGradient4338"/><linearGradient id="linearGradient14107" x1="525.438" x2="516.656" y1="836.188" y2="828.5" gradientTransform="matrix(0.97892669,0,0,1.0007266,-171.40557,-739.99963)" gradientUnits="userSpaceOnUse" xlink:href="#linearGradient14494"/><linearGradient id="linearGradient14111" x1="525.438" x2="516.656" y1="836.188" y2="828.5" gradientTransform="matrix(0.97892669,0,0,1.0007266,755.5951,-1698.6771)" gradientUnits="userSpaceOnUse" xlink:href="#linearGradient14494"/><linearGradient id="linearGradient14113" x1="525.438" x2="516.656" y1="836.188" y2="828.5" gradientTransform="translate(-125.5,-1702.459)" gradientUnits="userSpaceOnUse" xlink:href="#linearGradient14494"/><linearGradient id="linearGradient14115" x1="520.585" x2="516.152" y1="735.052" y2="720.863" gradientUnits="userSpaceOnUse" xlink:href="#linearGradient14494"/><linearGradient id="linearGradient1309" x1="332" x2="324" y1="236" y2="252" gradientUnits="userSpaceOnUse" xlink:href="#linearGradient4338"/><linearGradient id="linearGradient1311" x1="336" x2="324" y1="188" y2="212" gradientUnits="userSpaceOnUse" xlink:href="#linearGradient4338"/><linearGradient id="linearGradient1313" x1="340" x2="328" y1="132" y2="164" gradientUnits="userSpaceOnUse" xlink:href="#linearGradient4338"/><linearGradient id="linearGradient9348" x1="520.585" x2="516.152" y1="735.052" y2="720.863" gradientTransform="matrix(0.334262,0,0,0.351648,162.28952,-105.30615)" gradientUnits="userSpaceOnUse" xlink:href="#linearGradient14494"/><linearGradient id="linearGradient9339" x1="520.585" x2="516.152" y1="735.052" y2="720.863" gradientTransform="matrix(0.334262,0,0,0.351648,162.28952,-109.5037)" gradientUnits="userSpaceOnUse" xlink:href="#linearGradient14494"/><linearGradient id="linearGradient9342" x1="520.585" x2="516.152" y1="735.052" y2="720.863" gradientTransform="matrix(0.334262,0,0,0.351648,162.28952,-112.76174)" gradientUnits="userSpaceOnUse" xlink:href="#linearGradient14494"/><linearGradient id="linearGradient1389" x1="525.438" x2="516.656" y1="836.188" y2="828.5" gradientTransform="matrix(0.97892669,0,0,1.0007266,-171.40557,-739.99963)" gradientUnits="userSpaceOnUse" xlink:href="#linearGradient14494"/><linearGradient id="linearGradient1391" x1="525.438" x2="516.656" y1="836.188" y2="828.5" gradientTransform="matrix(0.97892669,0,0,1.0007266,755.5951,-1698.6771)" gradientUnits="userSpaceOnUse" xlink:href="#linearGradient14494"/><linearGradient id="linearGradient1393" x1="525.438" x2="516.656" y1="836.188" y2="828.5" gradientTransform="translate(-125.5,-1702.459)" gradientUnits="userSpaceOnUse" xlink:href="#linearGradient14494"/><linearGradient id="linearGradient1395" x1="520.585" x2="516.152" y1="735.052" y2="720.863" gradientUnits="userSpaceOnUse" xlink:href="#linearGradient14494"/><linearGradient id="linearGradient925" x1="344" x2="344" y1="61" y2="107" gradientTransform="translate(0.00141556)" gradientUnits="userSpaceOnUse" xlink:href="#linearGradient927-3-6"/><linearGradient id="linearGradient927-3-6"><stop id="stop923-3" offset="0" stop-color="#fff" stop-opacity="1"/><stop id="stop933-6" offset=".125" stop-color="#fff" stop-opacity=".098"/><stop id="stop931-7" offset=".925" stop-color="#fff" stop-opacity=".098"/><stop id="stop925-5" offset="1" stop-color="#000" stop-opacity=".498"/></linearGradient></defs><metadata id="metadata4"/><g id="layer1" display="inline"><g id="layer7" display="none"><text enable-background="new" style="line-height:0%;-inkscape-font-specification:'DejaVu Sans'" id="context" x="19.007" y="-8.255" fill="#000" fill-opacity="1" stroke="none" display="inline" font-family="DejaVu Sans" font-stretch="normal" font-style="normal" font-variant="normal" font-weight="normal" xml:space="preserve"><tspan id="tspan3933" x="19.007" y="-8.255" font-family="DejaVu Sans" font-size="18" font-stretch="normal" font-style="normal" font-variant="normal" font-weight="normal" style="line-height:1.25;-inkscape-font-specification:'DejaVu Sans'">mimetypes</tspan></text><text id="icon-name" x="146.488" y="-8.255" fill="#000" fill-opacity="1" stroke="none" display="inline" enable-background="new" font-family="DejaVu Sans" font-stretch="normal" font-style="normal" font-variant="normal" font-weight="bold" text-anchor="start" writing-mode="lr-tb" xml:space="preserve" style="line-height:0%;-inkscape-font-specification:'DejaVu Sans Bold';text-align:start"><tspan id="tspan3937" x="146.488" y="-8.255" font-family="DejaVu Sans" font-size="18" font-stretch="normal" font-style="normal" font-variant="normal" font-weight="bold" style="line-height:1.25;-inkscape-font-specification:'DejaVu Sans Bold'">libreoffice-oasis-database</tspan></text><rect id="rect16x16" width="16" height="16" x="320" y="236" fill="#cdcdcd" fill-opacity="1" fill-rule="nonzero" stroke="none" stroke-width="2" display="inline" enable-background="accumulate" overflow="visible" visibility="visible" style="marker:none"/><rect id="rect24x24" width="24" height="24" x="320" y="188" fill="#cdcdcd" fill-opacity="1" fill-rule="nonzero" stroke="none" stroke-width="2" display="inline" enable-background="accumulate" overflow="visible" visibility="visible" style="marker:none"/><rect id="rect32x32" width="32" height="32" x="320" y="132" fill="#cdcdcd" fill-opacity="1" fill-rule="nonzero" stroke="none" stroke-width="2" display="inline" enable-background="accumulate" overflow="visible" visibility="visible" style="marker:none"/><rect id="rect48x48" width="48" height="48" x="320" y="60" fill="#cdcdcd" fill-opacity="1" fill-rule="nonzero" stroke="none" stroke-width="2" display="inline" enable-background="accumulate" overflow="visible" visibility="visible" style="marker:none"/><rect id="rect3951" width="256" height="256" x="24" y="28" fill="#cdcdcd" fill-opacity="1" fill-rule="nonzero" stroke="none" stroke-width="2" display="inline" enable-background="accumulate" overflow="visible" visibility="visible" style="marker:none"/><path id="path995" fill="#000" fill-opacity="1" fill-rule="nonzero" stroke="none" stroke-dasharray="none" stroke-dashoffset="0" stroke-linecap="butt" stroke-linejoin="miter" stroke-miterlimit="4" stroke-opacity="1" stroke-width="2" d="m 327.86523,189 c -1.12014,0 -2.01524,0.0241 -2.79101,0.1543 -0.77577,0.13022 -1.48014,0.38763 -2.00977,0.91601 -0.52962,0.52838 -0.79079,1.23687 -0.91992,2.01367 -0.12912,0.77681 -0.15002,1.67169 -0.14453,2.79493 V 201 v 5.125 c -0.005,1.12104 0.0156,2.01529 0.14453,2.79102 0.12912,0.77681 0.39029,1.48529 0.91992,2.01367 0.52964,0.52838 1.234,0.78579 2.00977,0.91601 0.77577,0.13022 1.67087,0.1543 2.79101,0.1543 h 8.26954 c 1.12013,0 2.01264,-0.024 2.78711,-0.1543 0.77446,-0.13033 1.48001,-0.38927 2.00781,-0.91797 0.5278,-0.52869 0.78594,-1.23438 0.91601,-2.00976 C 341.97577,208.14258 342,207.24735 342,206.125 V 201 194.875 c 0,-1.12235 -0.0242,-2.01758 -0.1543,-2.79297 -0.13007,-0.77538 -0.38821,-1.48107 -0.91601,-2.00976 -0.5278,-0.5287 -1.23334,-0.78764 -2.00781,-0.91797 C 338.1474,189.02397 337.25491,189 336.13477,189 Z" baseline-shift="baseline" clip-rule="nonzero" color="#000" color-interpolation="sRGB" color-interpolation-filters="linearRGB" color-rendering="auto" direction="ltr" display="inline" dominant-baseline="auto" enable-background="accumulate" font-family="sans-serif" font-size="medium" font-stretch="normal" font-style="normal" font-variant="normal" font-weight="normal" image-rendering="auto" letter-spacing="normal" opacity=".1" overflow="visible" shape-rendering="auto" text-anchor="start" text-decoration="none" text-rendering="auto" vector-effect="none" visibility="visible" word-spacing="normal" writing-mode="lr-tb" style="line-height:normal;font-variant-ligatures:normal;font-variant-position:normal;font-variant-caps:normal;font-variant-numeric:normal;font-variant-alternates:normal;font-feature-settings:normal;text-indent:0;text-align:start;text-decoration-line:none;text-decoration-style:solid;text-decoration-color:#000;text-transform:none;text-orientation:mixed;white-space:normal;shape-padding:0;isolation:auto;mix-blend-mode:normal;solid-color:#000;solid-opacity:1;marker:none"/><path id="path997" fill="#000" fill-opacity="1" fill-rule="nonzero" stroke="none" stroke-dasharray="none" stroke-dashoffset="0" stroke-linecap="butt" stroke-linejoin="miter" stroke-miterlimit="4" stroke-opacity="1" stroke-width="2" d="m 325.0957,237 c -0.71904,0 -1.30185,0.0139 -1.83593,0.10352 -0.53409,0.0897 -1.0683,0.27628 -1.47657,0.68359 -0.40826,0.4073 -0.59657,0.94323 -0.68554,1.47851 -0.089,0.53529 -0.10119,1.12048 -0.0977,1.8418 V 244 v 3.89844 c -0.003,0.71816 0.009,1.30235 0.0977,1.83594 0.089,0.53528 0.27727,1.07121 0.68554,1.47851 0.40827,0.40731 0.94248,0.59394 1.47657,0.68359 0.53408,0.0897 1.11689,0.10352 1.83593,0.10352 h 5.8086 c 0.71904,0 1.30058,-0.0137 1.83398,-0.10352 0.53341,-0.0898 1.06768,-0.27792 1.47461,-0.68554 0.40693,-0.40762 0.59404,-0.94271 0.68359,-1.47656 C 334.98604,249.20052 335,248.61887 335,247.89844 V 244 241.10156 c 0,-0.72043 -0.014,-1.30208 -0.10352,-1.83594 -0.0895,-0.53385 -0.27666,-1.06894 -0.68359,-1.47656 -0.40693,-0.40762 -0.9412,-0.59578 -1.47461,-0.68554 C 332.20488,237.01375 331.62334,237 330.9043,237 Z" baseline-shift="baseline" clip-rule="nonzero" color="#000" color-interpolation="sRGB" color-interpolation-filters="linearRGB" color-rendering="auto" direction="ltr" display="inline" dominant-baseline="auto" enable-background="accumulate" font-family="sans-serif" font-size="medium" font-stretch="normal" font-style="normal" font-variant="normal" font-weight="normal" image-rendering="auto" letter-spacing="normal" opacity=".1" overflow="visible" shape-rendering="auto" text-anchor="start" text-decoration="none" text-rendering="auto" vector-effect="none" visibility="visible" word-spacing="normal" writing-mode="lr-tb" style="line-height:normal;font-variant-ligatures:normal;font-variant-position:normal;font-variant-caps:normal;font-variant-numeric:normal;font-variant-alternates:normal;font-feature-settings:normal;text-indent:0;text-align:start;text-decoration-line:none;text-decoration-style:solid;text-decoration-color:#000;text-transform:none;text-orientation:mixed;white-space:normal;shape-padding:0;isolation:auto;mix-blend-mode:normal;solid-color:#000;solid-opacity:1;marker:none"/><path id="path999" fill="#000" fill-opacity="1" fill-rule="nonzero" stroke="none" stroke-dasharray="none" stroke-dashoffset="0" stroke-linecap="butt" stroke-linejoin="miter" stroke-miterlimit="4" stroke-opacity="1" stroke-width="2" d="m 330.19336,134 c -1.42096,0 -2.54883,0.0308 -3.50586,0.19141 -0.95703,0.16064 -1.79146,0.4726 -2.41211,1.09179 -0.62065,0.61919 -0.93647,1.45612 -1.0957,2.41407 -0.15924,0.95795 -0.18666,2.08705 -0.17969,3.51171 V 149 v 7.79688 c -0.007,1.42131 0.0207,2.5495 0.17969,3.50585 0.15923,0.95796 0.47505,1.79488 1.0957,2.41407 0.62065,0.61919 1.45508,0.93115 2.41211,1.09179 0.95703,0.16065 2.0849,0.19141 3.50586,0.19141 h 11.61523 c 1.42097,0 2.54669,-0.0307 3.50196,-0.19141 0.95527,-0.16075 1.78779,-0.47425 2.40625,-1.09375 0.61845,-0.6195 0.93134,-1.45363 1.09179,-2.41015 C 348.96905,159.34816 349,158.22066 349,156.79688 V 149 141.20312 c 0,-1.42378 -0.031,-2.55128 -0.19141,-3.50781 -0.16045,-0.95653 -0.47334,-1.79065 -1.09179,-2.41015 -0.61846,-0.61951 -1.45098,-0.933 -2.40625,-1.09375 C 344.35528,134.03065 343.22956,134 341.80859,134 Z" baseline-shift="baseline" clip-rule="nonzero" color="#000" color-interpolation="sRGB" color-interpolation-filters="linearRGB" color-rendering="auto" direction="ltr" display="inline" dominant-baseline="auto" enable-background="accumulate" font-family="sans-serif" font-size="medium" font-stretch="normal" font-style="normal" font-variant="normal" font-weight="normal" image-rendering="auto" letter-spacing="normal" opacity=".1" overflow="visible" shape-rendering="auto" text-anchor="start" text-decoration="none" text-rendering="auto" vector-effect="none" visibility="visible" word-spacing="normal" writing-mode="lr-tb" style="line-height:normal;font-variant-ligatures:normal;font-variant-position:normal;font-variant-caps:normal;font-variant-numeric:normal;font-variant-alternates:normal;font-feature-settings:normal;text-indent:0;text-align:start;text-decoration-line:none;text-decoration-style:solid;text-decoration-color:#000;text-transform:none;text-orientation:mixed;white-space:normal;shape-padding:0;isolation:auto;mix-blend-mode:normal;solid-color:#000;solid-opacity:1;marker:none"/></g><g id="layer4" display="none"><path id="path1020" fill="#000" fill-opacity="1" fill-rule="nonzero" stroke="none" stroke-dasharray="none" stroke-dashoffset="0" stroke-linecap="butt" stroke-linejoin="miter" stroke-miterlimit="4" stroke-opacity="1" stroke-width="2" d="m 335.73047,62 c -2.22316,0 -3.97368,0.05118 -5.41406,0.292969 -1.44039,0.241784 -2.61905,0.695299 -3.48243,1.55664 -0.86337,0.861342 -1.31906,2.039471 -1.55859,3.480469 -0.23953,1.440999 -0.28629,3.195341 -0.27539,5.423828 V 85 97.251953 c -0.0108,2.225063 0.0361,3.978517 0.27539,5.417967 0.23953,1.441 0.69522,2.61913 1.55859,3.48047 0.86338,0.86134 2.04204,1.31486 3.48243,1.55664 1.44039,0.24179 3.1909,0.29297 5.41406,0.29297 h 16.53906 c 2.22316,0 3.97276,-0.0511 5.41016,-0.29297 1.4374,-0.24189 2.61246,-0.69694 3.47265,-1.55859 0.8602,-0.86165 1.3132,-2.03894 1.55469,-3.47852 C 362.94852,101.23035 363,99.479567 363,97.251953 V 85 72.748047 c 0,-2.227614 -0.0515,-3.978392 -0.29297,-5.417969 -0.24149,-1.439576 -0.69449,-2.616863 -1.55469,-3.478516 -0.86019,-0.861652 -2.03525,-1.316704 -3.47265,-1.558593 C 356.24229,62.051079 354.49269,62 352.26953,62 Z" baseline-shift="baseline" clip-rule="nonzero" color="#000" color-interpolation="sRGB" color-interpolation-filters="linearRGB" color-rendering="auto" direction="ltr" display="inline" dominant-baseline="auto" enable-background="accumulate" font-family="sans-serif" font-size="medium" font-stretch="normal" font-style="normal" font-variant="normal" font-weight="normal" image-rendering="auto" letter-spacing="normal" opacity=".1" overflow="visible" shape-rendering="auto" text-anchor="start" text-decoration="none" text-rendering="auto" vector-effect="none" visibility="visible" word-spacing="normal" writing-mode="lr-tb" style="line-height:normal;font-variant-ligatures:normal;font-variant-position:normal;font-variant-caps:normal;font-variant-numeric:normal;font-variant-alternates:normal;font-feature-settings:normal;text-indent:0;text-align:start;text-decoration-line:none;text-decoration-style:solid;text-decoration-color:#000;text-transform:none;text-orientation:mixed;white-space:normal;shape-padding:0;isolation:auto;mix-blend-mode:normal;solid-color:#000;solid-opacity:1;marker:none"/><path id="rect4158-9" fill="#000" fill-opacity="1" fill-rule="nonzero" stroke="none" stroke-width="2" d="M 189.84323,74 C 119.24979,74 111.65402,81.250835 112,151.98706 V 298 444.01294 C 111.65402,514.74917 119.24979,522 189.84323,522 H 386.15677 C 456.75021,522 462.16345,514.72616 464,444.01294 V 298 151.98706 C 464,81.249993 456.75021,74 386.15677,74 Z" color="#000" display="inline" enable-background="accumulate" filter="url(#filter4346)" opacity=".1" overflow="visible" transform="matrix(0.5,0,0,0.5,8,8)" visibility="visible" style="marker:none"/><path id="path4350" fill="url(#linearGradient4358)" fill-opacity="1" fill-rule="nonzero" stroke="none" stroke-width="2" d="M 189.84323,74 C 119.24979,74 111.65402,81.250835 112,151.98706 V 298 444.01294 C 111.65402,514.74917 119.24979,522 189.84323,522 H 386.15677 C 456.75021,522 464,514.75001 464,444.01294 V 298 151.98706 C 464,81.249993 456.75021,74 386.15677,74 Z" color="#000" display="inline" enable-background="accumulate" filter="url(#filter4380)" opacity=".3" overflow="visible" transform="matrix(0.5,0,0,0.5,8,8)" visibility="visible" style="marker:none"/></g><g id="layer2" display="inline"><path id="path949" fill="url(#linearGradient951)" fill-opacity="1" fill-rule="nonzero" stroke="none" stroke-width="1" d="M 335.73047 61 C 333.50763 61 331.75575 61.05331 330.31641 61.294922 C 328.8753 61.536828 327.69773 61.989844 326.83398 62.851562 C 325.97008 63.713437 325.51502 64.888453 325.27539 66.330078 C 325.03608 67.769758 324.9891 69.52364 325 71.751953 L 325 84 L 325 96.251953 C 324.9892 98.477958 325.0362 100.23124 325.27539 101.66992 C 325.51502 103.11155 325.97007 104.28656 326.83398 105.14844 C 327.69774 106.01015 328.87529 106.46317 330.31641 106.70508 C 331.75575 106.94669 333.50763 107 335.73047 107 L 352.26953 107 C 354.49235 107 356.24138 106.9468 357.67773 106.70508 C 359.11569 106.4631 360.29132 106.01093 361.15234 105.14844 C 362.01307 104.28626 362.46543 103.1102 362.70703 101.66992 C 362.94841 100.23102 363 98.478986 363 96.251953 L 363 84 L 363 71.748047 C 363 69.521013 362.9484 67.768972 362.70703 66.330078 C 362.46543 64.889802 362.01307 63.713747 361.15234 62.851562 C 360.29132 61.989081 359.11569 61.536906 357.67773 61.294922 C 356.24138 61.053209 354.49235 61 352.26953 61 L 335.73047 61 z" color="#000" display="inline" enable-background="accumulate" overflow="visible" visibility="visible" style="marker:none"/><path id="rect4158" fill="url(#linearGradient4226)" fill-opacity="1" fill-rule="nonzero" stroke="none" stroke-width="1" d="m 201.07298,44 c 35.29673,0 39.09461,3.625418 38.92162,38.99353 V 156 229.00647 C 240.16759,264.37459 236.36971,268 201.07298,268 H 102.91622 C 67.619504,268 63.994604,264.375 63.994604,229.00647 V 156 82.99353 C 63.994604,47.624997 67.619504,44 102.91622,44 Z" color="#000" display="inline" enable-background="accumulate" overflow="visible" visibility="visible" style="marker:none"/><path id="path918" fill="url(#linearGradient920)" fill-opacity="1" fill-rule="nonzero" stroke="none" stroke-width="1" d="m 330.90385,236.5 c 0.71048,0 1.27344,0.0154 1.75195,0.0957 0.47851,0.0803 0.89671,0.23728 1.20703,0.54688 0.31032,0.30959 0.46726,0.7261 0.54688,1.20508 0.0796,0.47897 0.0933,1.04352 0.0898,1.75586 V 244 v 3.89844 c 0.003,0.71121 -0.0103,1.27546 -0.0898,1.7539 -0.0796,0.47898 -0.23655,0.89549 -0.54688,1.20508 -0.31033,0.3096 -0.72851,0.46655 -1.20703,0.54688 -0.47852,0.0803 -1.04147,0.0957 -1.75195,0.0957 h -5.8086 c -0.71048,0 -1.27236,-0.0153 -1.75,-0.0957 -0.47763,-0.0804 -0.89584,-0.23713 -1.20508,-0.54688 -0.30921,-0.30975 -0.46469,-0.72681 -0.54492,-1.20508 -0.0802,-0.47826 -0.0957,-1.04201 -0.0957,-1.7539 V 244 240.10156 c 0,-0.71189 0.0155,-1.27564 0.0957,-1.7539 0.0802,-0.47827 0.2357,-0.89533 0.54492,-1.20508 0.30924,-0.30975 0.72745,-0.4665 1.20508,-0.54688 0.47764,-0.0804 1.03952,-0.0957 1.75,-0.0957 z" color="#000" display="inline" enable-background="accumulate" overflow="visible" visibility="visible" style="marker:none"/><path id="path914" fill="url(#linearGradient916)" fill-opacity="1" fill-rule="nonzero" stroke="none" stroke-width="1" d="m 336.13403,188.5 c 1.11158,0 1.98683,0.0256 2.70703,0.14648 0.72019,0.1209 1.3105,0.34863 1.74218,0.7793 0.43169,0.43067 0.65954,1.01974 0.7793,1.74024 0.11977,0.72049 0.14217,1.59669 0.13672,2.71093 V 200 v 6.125 c 0.005,1.1131 -0.017,1.989 -0.13672,2.70898 -0.11976,0.72051 -0.3476,1.30957 -0.7793,1.74024 -0.43169,0.43067 -1.02199,0.6584 -1.74218,0.7793 -0.7202,0.12089 -1.59545,0.14648 -2.70703,0.14648 h -8.26954 c -1.11158,0 -1.98637,-0.0255 -2.70507,-0.14648 -0.7187,-0.12095 -1.30623,-0.34848 -1.73633,-0.7793 -0.4301,-0.43083 -0.6566,-1.01849 -0.77735,-1.73828 -0.12074,-0.71979 -0.14648,-1.59713 -0.14648,-2.71094 V 200 193.875 c 0,-1.11381 0.0257,-1.99115 0.14648,-2.71094 0.12075,-0.71979 0.34725,-1.30745 0.77735,-1.73828 0.4301,-0.43082 1.01763,-0.65835 1.73633,-0.7793 0.7187,-0.12094 1.59349,-0.14648 2.70507,-0.14648 z" color="#000" display="inline" enable-background="accumulate" overflow="visible" visibility="visible" style="marker:none"/><path id="path922" fill="url(#linearGradient924)" fill-opacity="1" fill-rule="nonzero" stroke="none" stroke-width="1" d="m 341.80573,133.5 c 1.41241,0 2.52238,0.0342 3.42383,0.18555 0.90145,0.15132 1.61987,0.43164 2.14258,0.95312 0.5227,0.52148 0.80325,1.23898 0.95312,2.14063 0.14988,0.90164 0.18075,2.0101 0.17383,3.42578 V 148 v 7.79688 c 0.007,1.41452 -0.024,2.52269 -0.17383,3.42382 -0.14987,0.90165 -0.43041,1.61915 -0.95312,2.14063 -0.52272,0.52148 -1.24112,0.8018 -2.14258,0.95312 -0.90146,0.15132 -2.01142,0.18555 -3.42383,0.18555 H 330.1905 c -1.41241,0 -2.51847,-0.0342 -3.41797,-0.18555 -0.8995,-0.15137 -1.61597,-0.43149 -2.13672,-0.95312 -0.52075,-0.52163 -0.80004,-1.23774 -0.95117,-2.13867 -0.15113,-0.90094 -0.18555,-2.01055 -0.18555,-3.42578 V 148 140.20312 c 0,-1.41524 0.0344,-2.52484 0.18555,-3.42578 0.15113,-0.90093 0.43042,-1.61703 0.95117,-2.13867 0.52075,-0.52163 1.23722,-0.80175 2.13672,-0.95312 0.8995,-0.15137 2.00556,-0.18555 3.41797,-0.18555 z" color="#000" display="inline" enable-background="accumulate" overflow="visible" visibility="visible" style="marker:none"/><path id="path1117" fill="url(#linearGradient1144)" fill-opacity="1" fill-rule="nonzero" stroke="none" stroke-dasharray="none" stroke-dashoffset="0" stroke-linecap="butt" stroke-linejoin="miter" stroke-miterlimit="4" stroke-opacity="1" stroke-width="16" d="M 102.92188,260 C 94.234639,260 87.677765,259.73544 83.25,258.99219 78.822235,258.24894 76.913462,257.20384 75.810547,256.10352 74.707632,255.0032 73.670978,253.12157 72.9375,248.70898 72.204022,244.2964 71.95746,237.74311 72,229.04492 V 229.02539 156 82.97461 82.95508 C 71.957456,74.25689 72.204022,67.7036 72.9375,63.29102 73.670978,58.87843 74.707632,56.9968 75.810547,55.89648 76.913461,54.79617 78.822235,53.75106 83.25,53.00781 87.677765,52.26456 94.234639,52 102.92188,52 H 188 l 44,44 v 60 73.00586 c 0,8.70548 -0.26569,15.26739 -1.00781,19.69141 -0.74213,4.42401 -1.78301,6.32021 -2.87891,7.41796 -1.0959,1.09776 -2.97951,2.13464 -7.39062,2.87696 C 216.31155,259.7345 209.76538,260 201.07812,260 Z" baseline-shift="baseline" clip-rule="nonzero" color="#000" color-interpolation="sRGB" color-interpolation-filters="linearRGB" color-rendering="auto" direction="ltr" display="inline" dominant-baseline="auto" enable-background="accumulate" font-family="sans-serif" font-size="medium" font-stretch="normal" font-style="normal" font-variant="normal" font-weight="normal" image-rendering="auto" letter-spacing="normal" opacity="1" overflow="visible" shape-rendering="auto" text-anchor="start" text-decoration="none" text-rendering="auto" vector-effect="none" visibility="visible" word-spacing="normal" writing-mode="lr-tb" style="line-height:normal;font-variant-ligatures:normal;font-variant-position:normal;font-variant-caps:normal;font-variant-numeric:normal;font-variant-alternates:normal;font-feature-settings:normal;text-indent:0;text-align:start;text-decoration-line:none;text-decoration-style:solid;text-decoration-color:#000;text-transform:none;text-orientation:mixed;white-space:normal;shape-padding:0;isolation:auto;mix-blend-mode:normal;solid-color:#000;solid-opacity:1;marker:none"/><path id="path1224" fill="url(#linearGradient1234)" fill-opacity="1" fill-rule="nonzero" stroke="none" stroke-dasharray="none" stroke-dashoffset="0" stroke-linecap="butt" stroke-linejoin="miter" stroke-miterlimit="4" stroke-opacity="1" stroke-width="5" d="M 335.73047 64 C 333.55699 64 331.92465 64.065304 330.8125 64.251953 C 329.70917 64.43716 329.22697 64.701419 328.95312 64.974609 C 328.68008 65.247022 328.41918 65.722256 328.23633 66.822266 C 328.0519 67.932006 327.9894 69.562864 328 71.738281 L 328 71.744141 L 328 84 L 328 96.257812 L 328 96.263672 C 327.98941 98.437951 328.05193 100.06864 328.23633 101.17773 C 328.41918 102.27776 328.68009 102.75299 328.95312 103.02539 C 329.22699 103.29861 329.70916 103.56284 330.8125 103.74805 C 331.92465 103.9347 333.55699 104 335.73047 104 L 352.26953 104 C 354.44304 104 356.07363 103.93451 357.18164 103.74805 C 358.28162 103.56294 358.75947 103.29958 359.0293 103.0293 C 359.30061 102.75753 359.56506 102.27633 359.75 101.17383 C 359.9361 100.06444 360 98.431227 360 96.251953 L 360 84 L 360 74 L 350 64 L 335.73047 64 z" baseline-shift="baseline" clip-rule="nonzero" color="#000" color-interpolation="sRGB" color-interpolation-filters="linearRGB" color-rendering="auto" direction="ltr" display="inline" dominant-baseline="auto" enable-background="accumulate" font-family="sans-serif" font-size="medium" font-stretch="normal" font-style="normal" font-variant="normal" font-weight="normal" image-rendering="auto" letter-spacing="normal" opacity="1" overflow="visible" shape-rendering="auto" text-anchor="start" text-decoration="none" text-rendering="auto" vector-effect="none" visibility="visible" word-spacing="normal" writing-mode="lr-tb" style="line-height:normal;font-variant-ligatures:normal;font-variant-position:normal;font-variant-caps:normal;font-variant-numeric:normal;font-variant-alternates:normal;font-feature-settings:normal;text-indent:0;text-align:start;text-decoration-line:none;text-decoration-style:solid;text-decoration-color:#000;text-transform:none;text-orientation:mixed;white-space:normal;shape-padding:0;isolation:auto;mix-blend-mode:normal;solid-color:#000;solid-opacity:1;marker:none"/><path id="path1291" fill="url(#linearGradient1309)" fill-opacity="1" fill-rule="nonzero" stroke="none" stroke-dasharray="none" stroke-dashoffset="0" stroke-linecap="butt" stroke-linejoin="miter" stroke-miterlimit="4" stroke-opacity="1" stroke-width="3" d="M 325.0957 238 C 324.4069 238 323.9118 238.02052 323.5918 238.07422 C 323.28731 238.12528 323.20811 238.19228 323.19531 238.20508 C 323.18219 238.21817 323.12071 238.29054 323.07031 238.59375 C 323.01741 238.91214 322.997 239.40649 323 240.0957 L 323 240.09961 L 323 244 L 323 247.90234 L 323 247.9043 C 322.9971 248.59346 323.01761 249.08925 323.07031 249.40625 C 323.12071 249.70942 323.18221 249.78182 323.19531 249.79492 C 323.2081 249.80768 323.28716 249.87468 323.5918 249.92578 C 323.91182 249.97948 324.4069 250 325.0957 250 L 330.9043 250 C 331.59324 250 332.08778 249.97938 332.40625 249.92578 C 332.71058 249.87458 332.78668 249.80718 332.79688 249.79688 C 332.80807 249.78564 332.87428 249.71105 332.92578 249.4043 C 332.97938 249.08456 333 248.58855 333 247.89844 L 333 244 L 333 241 L 330 238 L 325.0957 238 z" baseline-shift="baseline" clip-rule="nonzero" color="#000" color-interpolation="sRGB" color-interpolation-filters="linearRGB" color-rendering="auto" direction="ltr" display="inline" dominant-baseline="auto" enable-background="accumulate" font-family="sans-serif" font-size="medium" font-stretch="normal" font-style="normal" font-variant="normal" font-weight="normal" image-rendering="auto" letter-spacing="normal" opacity="1" overflow="visible" shape-rendering="auto" text-anchor="start" text-decoration="none" text-rendering="auto" vector-effect="none" visibility="visible" word-spacing="normal" writing-mode="lr-tb" style="line-height:normal;font-variant-ligatures:normal;font-variant-position:normal;font-variant-caps:normal;font-variant-numeric:normal;font-variant-alternates:normal;font-feature-settings:normal;text-indent:0;text-align:start;text-decoration-line:none;text-decoration-style:solid;text-decoration-color:#000;text-transform:none;text-orientation:mixed;white-space:normal;shape-padding:0;isolation:auto;mix-blend-mode:normal;solid-color:#000;solid-opacity:1;marker:none"/><path id="path1293" fill="url(#linearGradient1311)" fill-opacity="1" fill-rule="nonzero" stroke="none" stroke-dasharray="none" stroke-dashoffset="0" stroke-linecap="butt" stroke-linejoin="miter" stroke-miterlimit="4" stroke-opacity="1" stroke-width="3" d="M 327.86523 190 C 326.77668 190 325.96489 190.0312 325.40625 190.125 C 324.85738 190.21714 324.60942 190.35378 324.47461 190.48828 C 324.34025 190.62232 324.20819 190.86473 324.11719 191.41211 C 324.0247 191.96838 323.995 192.77885 324 193.86914 L 324 193.87305 L 324 200 L 324 206.12891 L 324 206.13086 C 323.9951 207.22066 324.02489 208.03276 324.11719 208.58789 C 324.20817 209.13529 324.34025 209.37768 324.47461 209.51172 C 324.60945 209.64624 324.85738 209.7829 325.40625 209.875 C 325.96487 209.9688 326.77668 210 327.86523 210 L 336.13477 210 C 337.22341 210 338.03555 209.9686 338.5918 209.875 C 339.13883 209.78294 339.37957 209.648 339.51367 209.51367 C 339.64796 209.37916 339.7828 209.13721 339.875 208.58789 C 339.9686 208.02992 340 207.2157 340 206.125 L 340 200 L 340 194 L 336 190 L 327.86523 190 z" baseline-shift="baseline" clip-rule="nonzero" color="#000" color-interpolation="sRGB" color-interpolation-filters="linearRGB" color-rendering="auto" direction="ltr" display="inline" dominant-baseline="auto" enable-background="accumulate" font-family="sans-serif" font-size="medium" font-stretch="normal" font-style="normal" font-variant="normal" font-weight="normal" image-rendering="auto" letter-spacing="normal" opacity="1" overflow="visible" shape-rendering="auto" text-anchor="start" text-decoration="none" text-rendering="auto" vector-effect="none" visibility="visible" word-spacing="normal" writing-mode="lr-tb" style="line-height:normal;font-variant-ligatures:normal;font-variant-position:normal;font-variant-caps:normal;font-variant-numeric:normal;font-variant-alternates:normal;font-feature-settings:normal;text-indent:0;text-align:start;text-decoration-line:none;text-decoration-style:solid;text-decoration-color:#000;text-transform:none;text-orientation:mixed;white-space:normal;shape-padding:0;isolation:auto;mix-blend-mode:normal;solid-color:#000;solid-opacity:1;marker:none"/><path id="path1295" fill="url(#linearGradient1313)" fill-opacity="1" fill-rule="nonzero" stroke="none" stroke-dasharray="none" stroke-dashoffset="0" stroke-linecap="butt" stroke-linejoin="miter" stroke-miterlimit="4" stroke-opacity="1" stroke-width="5" d="M 330.19336 136 C 328.82131 136 327.81521 136.04448 327.18359 136.15039 C 326.5654 136.25416 326.42158 136.3793 326.39258 136.4082 C 326.36493 136.43578 326.24293 136.574 326.14062 137.18945 C 326.036 137.81891 325.993 138.8204 326 140.19336 L 326 140.19922 L 326 148 L 326 155.80273 L 326 155.80859 C 325.99321 157.18013 326.03604 158.1815 326.14062 158.81055 C 326.24293 159.42602 326.36498 159.5642 326.39258 159.5918 C 326.42162 159.62077 326.56539 159.74584 327.18359 159.84961 C 327.81534 159.9557 328.82134 160 330.19336 160 L 341.80859 160 C 343.18065 160 344.18292 159.95554 344.8125 159.84961 C 345.4285 159.74595 345.56685 159.6226 345.59375 159.5957 C 345.622 159.56741 345.74586 159.42709 345.84961 158.80859 C 345.9556 158.17687 346 157.17156 346 155.79688 L 346 148 L 346 142 L 340 136 L 330.19336 136 z" baseline-shift="baseline" clip-rule="nonzero" color="#000" color-interpolation="sRGB" color-interpolation-filters="linearRGB" color-rendering="auto" direction="ltr" display="inline" dominant-baseline="auto" enable-background="accumulate" font-family="sans-serif" font-size="medium" font-stretch="normal" font-style="normal" font-variant="normal" font-weight="normal" image-rendering="auto" letter-spacing="normal" opacity="1" overflow="visible" shape-rendering="auto" text-anchor="start" text-decoration="none" text-rendering="auto" vector-effect="none" visibility="visible" word-spacing="normal" writing-mode="lr-tb" style="line-height:normal;font-variant-ligatures:normal;font-variant-position:normal;font-variant-caps:normal;font-variant-numeric:normal;font-variant-alternates:normal;font-feature-settings:normal;text-indent:0;text-align:start;text-decoration-line:none;text-decoration-style:solid;text-decoration-color:#000;text-transform:none;text-orientation:mixed;white-space:normal;shape-padding:0;isolation:auto;mix-blend-mode:normal;solid-color:#000;solid-opacity:1;marker:none"/><path id="path901" fill="none" fill-opacity="1" fill-rule="nonzero" stroke="url(#linearGradient925)" stroke-opacity="1" stroke-width="1" d="m 335.73189,61.5 c -2.21461,0 -3.94722,0.05465 -5.33203,0.287109 -1.38481,0.232456 -2.44551,0.654338 -3.21094,1.417969 -0.76543,0.763631 -1.1878,1.822342 -1.41797,3.207031 -0.23017,1.38469 -0.28039,3.118394 -0.26953,5.337891 V 84 96.251953 c -0.0108,2.218334 0.0394,3.951757 0.26953,5.335937 0.23017,1.38469 0.65253,2.4434 1.41797,3.20703 0.76544,0.76363 1.82612,1.18551 3.21094,1.41797 1.38481,0.23246 3.11742,0.28711 5.33203,0.28711 h 16.53906 c 2.2146,0 3.94454,-0.0546 5.32617,-0.28711 1.38163,-0.2325 2.44064,-0.65418 3.20313,-1.41797 0.76249,-0.76378 1.18385,-1.82305 1.41601,-3.20703 0.23217,-1.38398 0.28516,-3.116864 0.28516,-5.335937 V 84 71.748047 c 0,-2.219073 -0.053,-3.951957 -0.28516,-5.335938 -0.23216,-1.383981 -0.65352,-2.443248 -1.41601,-3.207031 -0.76249,-0.763783 -1.8215,-1.185464 -3.20313,-1.417969 C 356.21549,61.554605 354.48555,61.5 352.27095,61.5 Z" color="#000" display="inline" enable-background="accumulate" opacity=".3" overflow="visible" visibility="visible" style="marker:none"/></g><g id="layer6" display="inline"><g id="g21816" stroke-width=".571" display="inline" transform="matrix(0.87499795,0,0,0.87499795,-1047.6223,1510.305)"><path id="path11953" fill="url(#linearGradient21865)" fill-opacity="1" fill-rule="nonzero" stroke="none" stroke-width="1.143" d="m 1307.0003,-1602.638 v 6 h 28 v -6 z m 32,0 v 6 h 30 v -6 z m 34,0 v 6 h 30 v -6 z m 34,0 v 6 h 28 v -6 z m -100,10 v 8 h 28 v -8 z m 32,0 v 8 h 30 v -8 z m 34,0 v 8 h 30 v -8 z m 34,0 v 8 h 28 v -8 z m -100,12 v 8 h 28 v -8 z m 32,0 v 8 h 30 v -8 z m 34,0 v 8 h 30 v -8 z m 34,0 v 8 h 28 v -8 z m -100,12 v 8 h 28 v -8 z m 32,0 v 8 h 30 v -8 z m 34,0 v 8 h 30 v -8 z m 34,0 v 8 h 28 v -8 z m -100,12 v 8 h 28 v -8 z m 32,0 v 8 h 30 v -8 z m 34,0 v 8 h 30 v -8 z m 34,0 v 8 h 28 v -8 z m -100,12 v 8 h 28 v -8 z m 32,0 v 8 h 30 v -8 z m 34,0 v 8 h 30 v -8 z m 34,0 v 8 h 28 v -8 z m -100,12 v 8 h 28 v -8 z m 32,0 v 8 h 30 v -8 z m 34,0 v 8 h 30 v -8 z m 34,0 v 8 h 28 v -8 z m -100,12 v 8 h 28 v -8 z m 32,0 v 8 h 30 v -8 z m 34,0 v 8 h 30 v -8 z m 34,0 v 8 h 28 v -8 z m -100,12 v 8 h 28 v -8 z m 32,0 v 8 h 30 v -8 z m 34,0 v 8 h 30 v -8 z m 34,0 v 8 h 28 v -8 z m -100,12 v 6 h 28 v -6 z m 32,0 v 6 h 30 v -6 z m 34,0 v 6 h 30 v -6 z m 34,0 v 6 h 28 v -6 z" color="#000" display="inline" overflow="visible" visibility="visible" style="marker:none"/><path id="path8700" fill="purple" fill-opacity="1" fill-rule="nonzero" stroke="none" stroke-width="1.143" d="m 1307,-1602.6378 v 1 h 28 v -1 z m 32,0 v 1 h 30 v -1 z m 34,0 v 1 h 30 v -1 z m 34,0 v 1 h 28 v -1 z m -100,10 v 1 h 28 v -1 z m 32,0 v 1 h 30 v -1 z m 34,0 v 1 h 30 v -1 z m 34,0 v 1 h 28 v -1 z m -100,12 v 1 h 28 v -1 z m 32,0 v 1 h 30 v -1 z m 34,0 v 1 h 30 v -1 z m 34,0 v 1 h 28 v -1 z m -100,12 v 1 h 28 v -1 z m 32,0 v 1 h 30 v -1 z m 34,0 v 1 h 30 v -1 z m 34,0 v 1 h 28 v -1 z m -100,12 v 1 h 28 v -1 z m 32,0 v 1 h 30 v -1 z m 34,0 v 1 h 30 v -1 z m 34,0 v 1 h 28 v -1 z m -100,12 v 1 h 28 v -1 z m 32,0 v 1 h 30 v -1 z m 34,0 v 1 h 30 v -1 z m 34,0 v 1 h 28 v -1 z m -100,12 v 1 h 28 v -1 z m 32,0 v 1 h 30 v -1 z m 34,0 v 1 h 30 v -1 z m 34,0 v 1 h 28 v -1 z m -100,12 v 1 h 28 v -1 z m 32,0 v 1 h 30 v -1 z m 34,0 v 1 h 30 v -1 z m 34,0 v 1 h 28 v -1 z m -100,12 v 1 h 28 v -1 z m 32,0 v 1 h 30 v -1 z m 34,0 v 1 h 30 v -1 z m 34,0 v 1 h 28 v -1 z m -100,12 v 1 h 28 v -1 z m 32,0 v 1 h 30 v -1 z m 34,0 v 1 h 30 v -1 z m 34,0 v 1 h 28 v -1 z" color="#000" display="inline" opacity=".25" overflow="visible" visibility="visible" style="marker:none"/><path id="path14181" fill="none" stroke="#fff" stroke-dasharray="none" stroke-miterlimit="4" stroke-width="1.143" d="m 1336.8667,-1582.8566 c -4.4225,1.1052 -8.0003,2.6406 -10.5626,4.2813 -2.5623,1.6406 -4.2094,3.5916 -4.2187,5.9375 -0.078,19.6496 -0.062,38.3855 -0.062,54 0,2.2938 1.6506,4.2616 4.2188,5.9062 2.5682,1.6445 6.1886,3.057 10.5937,4.25 8.8102,2.3861 20.8595,3.8438 34.1875,3.8438 13.328,0 25.3773,-1.4577 34.1875,-3.8438 4.4051,-1.193 8.0254,-2.6054 10.5937,-4.25 2.5682,-1.6445 4.1959,-3.6233 4.1959,-5.9171 v -54 c 0,-2.3459 -1.6956,-4.286 -4.2578,-5.9266 -2.5623,-1.6407 -6.1626,-3.0896 -10.5626,-4.2813 -8.7998,-2.3834 -20.8257,-3.7812 -34.1562,-3.7812 -13.4197,0 -24.7005,1.4179 -34.1572,3.7812 z m 34.1562,-1.7812 c 13.1884,-0.024 25.1148,1.4594 33.6875,3.7812 4.2863,1.1609 7.7357,2.5926 10.0313,4.0625 2.2956,1.47 3.4615,2.9179 3.3437,4.1563 -0.2099,2.2051 -2.5786,3.7353 -4.2498,4.6877 -2.7109,1.5447 -5.9518,2.7094 -8.875,3.4682 -9.9807,2.5907 -19.9474,3.5351 -29.5313,3.7808 -13.2609,0.2127 -26.4103,-0.7313 -38.5312,-3.8423 -2.8126,-0.7333 -5.249,-1.6374 -7.6562,-2.8437 -2.1609,-1.0829 -5.0631,-2.882 -5.2805,-5.2495 -0.117,-1.2738 1.048,-2.6864 3.3437,-4.1563 2.2956,-1.47 5.6973,-3.0942 10.0313,-4.0625 11.926,-2.6645 23.6544,-3.7638 33.6865,-3.7824 z m -47,16.125 c 0.633,0.635 1.3925,1.2732 2.2812,1.8125 3.29,1.9964 7.3084,3.4876 10.5626,4.2812 13.1049,3.0399 26.1178,4.0856 38.625,3.7191 10.112,-0.3193 20.3214,-1.0694 29.6874,-3.7191 4.6348,-1.3113 9.5649,-2.8964 12.8438,-6.0937 v 12.875 c 0,0.5819 0,1.2208 -0.125,1.7187 -0.2732,1.1053 -1.3688,2.437 -3.3438,3.5938 -3.2639,1.9117 -6.8389,3.0829 -9.9998,3.9374 -11.2316,2.7397 -22.9156,3.7351 -33.5312,3.75 -11.4559,-0.088 -23.5356,-1.1252 -33.6875,-3.7813 -4.3563,-1.3747 -8.7244,-2.5615 -11.8745,-5.4685 -0.7253,-0.677 -1.1339,-1.4058 -1.3125,-2.0313 -0.1617,-0.5663 -0.124,-1.122 -0.124,-1.7187 v -12.875 z m 0,18.0312 c 0.3881,0.384 0.8349,0.7645 1.3125,1.125 3.8328,2.6485 8.599,4.1875 12.7498,5.2191 11.4816,2.6061 21.6513,3.4771 32.9375,3.4992 11.3534,-0.2328 22.4745,-0.8133 32.9375,-3.4995 3.7047,-0.9664 7.6813,-2.3851 10.6879,-3.9063 1.1439,-0.5788 2.9374,-2.034 3.375,-2.4378 0,0 0,8.5625 0,12.8438 0,0.5819 0,1.2208 -0.125,1.7187 -0.2732,1.1053 -1.4022,2.3818 -3.3438,3.5938 -4.2885,2.5159 -9.373,3.9033 -13.8435,4.8749 -10.3889,2.0162 -19.9086,2.7984 -29.6875,2.8125 -4.946,0 -9.7115,-0.172 -14.1875,-0.5938 -10.0501,-1.2286 -18.9816,-2.1518 -27.5,-6.0625 -1.4518,-0.6725 -2.7953,-1.6037 -3.8745,-2.5935 -0.7312,-0.6706 -1.117,-1.4108 -1.3125,-2.0313 -0.075,-0.2376 -0.1224,-0.5025 -0.124,-0.7187 -0.035,-4.6145 0,-9.2292 0,-13.8438 z m 0,18 c 1.5656,1.541 3.6376,2.7051 5.531,3.5003 8.6756,3.5974 18.9429,5.0615 27.125,5.7497 4.9351,0.4055 9.7705,0.5946 14.3438,0.5933 11.3687,-0.1838 22.4492,-0.8859 32.9375,-3.4995 4.2187,-1.1456 8.1701,-2.4102 11.6567,-4.4691 0.9341,-0.5547 1.6709,-1.1929 2.4062,-1.875 0,0 0,8.5625 0,12.8438 0,0.3333 0,-0.7879 0,1 0,1.2961 -1.0229,2.7528 -3.3125,4.2187 -2.2896,1.4662 -5.7189,2.8405 -10,4 -8.5625,2.3189 -20.5059,3.7813 -33.6875,3.7813 -13.1817,0 -25.1251,-1.4623 -33.6875,-3.7813 -4.2812,-1.1594 -7.7104,-2.5339 -10,-4 -2.2896,-1.466 -3.3125,-2.9226 -3.3125,-4.2187 0,-4.6146 0,-9.2292 0,-13.8438 z" color="#000" direction="ltr" display="inline" font-family="Sans" font-size="medium" font-stretch="normal" font-style="normal" font-variant="normal" font-weight="normal" letter-spacing="normal" opacity=".5" overflow="visible" text-anchor="start" text-decoration="none" visibility="visible" word-spacing="normal" style="line-height:normal;text-indent:0;text-align:start;text-decoration-line:none;text-transform:none;marker:none"/><path id="path8750" fill="url(#linearGradient21867)" fill-opacity="1" fill-rule="nonzero" stroke="none" stroke-width=".571" d="m 1322,-1602.6378 v 6 h -15 v -6 z m 0,10 v 8 h -15 v -8 z m 0,12 v 8 h -15 v -8 z m 0,12 v 8 h -15 v -8 z m 0,12 v 8 h -15 v -8 z m 0,12 v 8 h -15 v -8 z m 0,12 v 8 h -15 v -8 z m 0,12 v 8 h -15 v -8 z m 0,12 v 8 h -15 v -8 z m 0,12 v 6 h -15 v -6 z" color="#000" display="inline" opacity=".35" overflow="visible" visibility="visible" style="marker:none"/><path id="rect8729" fill="url(#linearGradient21869)" fill-opacity="1" fill-rule="nonzero" stroke="none" stroke-width=".571" d="m 1420,-1602.6378 v 6 h 15 v -6 z m 0,10 v 8 h 15 v -8 z m 0,12 v 8 h 15 v -8 z m 0,12 v 8 h 15 v -8 z m 0,12 v 8 h 15 v -8 z m 0,12 v 8 h 15 v -8 z m 0,12 v 8 h 15 v -8 z m 0,12 v 8 h 15 v -8 z m 0,12 v 8 h 15 v -8 z m 0,12 v 6 h 15 v -6 z" color="#000" display="inline" opacity=".35" overflow="visible" visibility="visible" style="marker:none"/><rect id="rect8713" width="128" height="30" x="1307" y="-1530.638" fill="url(#radialGradient21871)" fill-opacity="1" fill-rule="nonzero" stroke="none" stroke-width=".571" color="#000" display="inline" opacity=".5" overflow="visible" visibility="visible" style="marker:none"/><path id="path11957" fill="url(#linearGradient21873)" fill-opacity="1" fill-rule="nonzero" stroke="none" stroke-width="1.143" d="m 1323,-1570.6378 v 52 c 0,7.1797 21.4903,13 48,13 26.5096,0 48,-5.8203 48,-13 v -52 z" color="#000" display="inline" overflow="visible" visibility="visible" style="marker:none"/><path id="path8875-6" fill="url(#linearGradient21875)" fill-opacity="1" fill-rule="nonzero" stroke="none" stroke-width="1.143" d="m 1336.8667,-1582.8566 c -4.4225,1.1052 -8.0003,2.6406 -10.5626,4.2813 -2.5623,1.6406 -4.2094,3.5916 -4.2187,5.9375 -0.078,19.6496 -0.062,38.3855 -0.062,54 0,2.2938 1.6506,4.2616 4.2188,5.9062 2.5682,1.6445 6.1886,3.057 10.5937,4.25 8.8102,2.3861 20.8595,3.8438 34.1875,3.8438 13.328,0 25.3773,-1.4577 34.1875,-3.8438 4.4051,-1.193 8.0254,-2.6054 10.5937,-4.25 2.5682,-1.6445 4.1959,-3.6233 4.1959,-5.9171 v -54 c 0,-2.3459 -1.6956,-4.286 -4.2578,-5.9266 -2.5623,-1.6407 -6.1626,-3.0896 -10.5626,-4.2813 -8.7998,-2.3834 -20.8257,-3.7812 -34.1562,-3.7812 -13.4197,0 -24.7005,1.4179 -34.1572,3.7812 z m 34.1562,-1.7812 c 13.1884,-0.024 25.1148,1.4594 33.6875,3.7812 4.2863,1.1609 7.7357,2.5926 10.0313,4.0625 2.2956,1.47 3.4615,2.9179 3.3437,4.1563 -0.2099,2.2051 -2.5786,3.7353 -4.2498,4.6877 -2.7109,1.5447 -5.9518,2.7094 -8.875,3.4682 -9.9807,2.5907 -19.9474,3.5351 -29.5313,3.7808 -13.2609,0.2127 -26.4103,-0.7313 -38.5312,-3.8423 -2.8126,-0.7333 -5.249,-1.6374 -7.6562,-2.8437 -2.1609,-1.0829 -5.0631,-2.882 -5.2805,-5.2495 -0.117,-1.2738 1.048,-2.6864 3.3437,-4.1563 2.2956,-1.47 5.6973,-3.0942 10.0313,-4.0625 11.926,-2.6645 23.6544,-3.7638 33.6865,-3.7824 z m -47,16.125 c 0.633,0.635 1.3925,1.2732 2.2812,1.8125 3.29,1.9964 7.3084,3.4876 10.5626,4.2812 13.1049,3.0399 26.1178,4.0856 38.625,3.7191 10.112,-0.3193 20.3214,-1.0694 29.6874,-3.7191 4.6348,-1.3113 9.5649,-2.8964 12.8438,-6.0937 v 12.875 c 0,0.5819 0,1.2208 -0.125,1.7187 -0.2732,1.1053 -1.3688,2.437 -3.3438,3.5938 -3.2639,1.9117 -6.8389,3.0829 -9.9998,3.9374 -11.2316,2.7397 -22.9156,3.7351 -33.5312,3.75 -11.4559,-0.088 -23.5356,-1.1252 -33.6875,-3.7813 -4.3563,-1.3747 -8.7244,-2.5615 -11.8745,-5.4685 -0.7253,-0.677 -1.1339,-1.4058 -1.3125,-2.0313 -0.1617,-0.5663 -0.124,-1.122 -0.124,-1.7187 v -12.875 z m 0,18.0312 c 0.3881,0.384 0.8349,0.7645 1.3125,1.125 3.8328,2.6485 8.599,4.1875 12.7498,5.2191 11.4816,2.6061 21.6513,3.4771 32.9375,3.4992 11.3534,-0.2328 22.4745,-0.8133 32.9375,-3.4995 3.7047,-0.9664 7.6813,-2.3851 10.6879,-3.9063 1.1439,-0.5788 2.9374,-2.034 3.375,-2.4378 0,0 0,8.5625 0,12.8438 0,0.5819 0,1.2208 -0.125,1.7187 -0.2732,1.1053 -1.4022,2.3818 -3.3438,3.5938 -4.2885,2.5159 -9.373,3.9033 -13.8435,4.8749 -10.3889,2.0162 -19.9086,2.7984 -29.6875,2.8125 -4.946,0 -9.7115,-0.172 -14.1875,-0.5938 -10.0501,-1.2286 -18.9816,-2.1518 -27.5,-6.0625 -1.4518,-0.6725 -2.7953,-1.6037 -3.8745,-2.5935 -0.7312,-0.6706 -1.117,-1.4108 -1.3125,-2.0313 -0.075,-0.2376 -0.1224,-0.5025 -0.124,-0.7187 -0.035,-4.6145 0,-9.2292 0,-13.8438 z m 0,18 c 1.5656,1.541 3.6376,2.7051 5.531,3.5003 8.6756,3.5974 18.9429,5.0615 27.125,5.7497 4.9351,0.4055 9.7705,0.5946 14.3438,0.5933 11.3687,-0.1838 22.4492,-0.8859 32.9375,-3.4995 4.2187,-1.1456 8.1701,-2.4102 11.6567,-4.4691 0.9341,-0.5547 1.6709,-1.1929 2.4062,-1.875 0,0 0,8.5625 0,12.8438 0,0.3333 0,-0.7879 0,1 0,1.2961 -1.0229,2.7528 -3.3125,4.2187 -2.2896,1.4662 -5.7189,2.8405 -10,4 -8.5625,2.3189 -20.5059,3.7813 -33.6875,3.7813 -13.1817,0 -25.1251,-1.4623 -33.6875,-3.7813 -4.2812,-1.1594 -7.7104,-2.5339 -10,-4 -2.2896,-1.466 -3.3125,-2.9226 -3.3125,-4.2187 0,-4.6146 0,-9.2292 0,-13.8438 z" color="#000" direction="ltr" display="inline" font-family="Sans" font-size="medium" font-stretch="normal" font-style="normal" font-variant="normal" font-weight="normal" letter-spacing="normal" overflow="visible" text-anchor="start" text-decoration="none" visibility="visible" word-spacing="normal" style="line-height:normal;text-indent:0;text-align:start;text-decoration-line:none;text-transform:none;marker:none"/><path id="path11967" fill="url(#radialGradient21877)" fill-opacity="1" fill-rule="nonzero" stroke="none" stroke-width=".517" d="m 542.125,730.3125 a 22.4375,5.6875 0 1 1 -44.875,0 22.4375,5.6875 0 1 1 44.875,0 z" color="#000" display="inline" overflow="visible" transform="matrix(2.09471,0,0,2.10989,282.407,-3113.52)" visibility="visible" style="marker:none"/><path id="path12064" fill="none" stroke="#fff" stroke-dasharray="none" stroke-linejoin="miter" stroke-miterlimit="4" stroke-width=".571" d="m 1324.4843,-1567.3581 v 11.1536 c 0,0 0,0.6884 0,0.9333 0,6.7008 20.8164,12.1328 46.4948,12.1328 25.6783,0 46.4947,-5.432 46.4947,-12.1328 v -0.9333 -11.093 c -4.1571,3.7151 -19.6266,9.1956 -46.3488,9.1956 -26.7222,0 -42.7516,-5.5408 -46.6407,-9.2562 z" color="#000" display="inline" opacity=".5" overflow="visible" visibility="visible" style="marker:none"/><path id="path12066" fill="none" stroke="#fff" stroke-dasharray="none" stroke-dashoffset="0" stroke-linecap="butt" stroke-linejoin="miter" stroke-miterlimit="4" stroke-opacity="1" stroke-width=".279" d="m 542.125,730.3125 a 22.4375,5.6875 0 1 1 -44.875,0 22.4375,5.6875 0 1 1 44.875,0 z" color="#000" display="inline" opacity=".5" overflow="visible" transform="matrix(2.07242,0,0,2.02198,293.987,-3049.31)" visibility="visible" style="marker:none"/><path id="path8855" fill="url(#linearGradient1148)" fill-opacity="1" stroke="none" stroke-width=".571" d="m 1324.4843,-1566.8575 v 9.1536 c 0,0 0,0.6884 0,0.9333 0,6.7008 20.8164,12.1328 46.4948,12.1328 25.6783,0 46.4947,-5.432 46.4947,-12.1328 v -0.9333 -9.093 c -4.1571,3.7151 -19.6266,9.1956 -46.3488,9.1956 -26.7222,0 -42.7516,-5.5408 -46.6407,-9.2562 z" color="#000" display="inline" opacity=".25" overflow="visible" visibility="visible" style="marker:none"/><path id="path8982" fill="url(#linearGradient21881)" fill-opacity="1" stroke="none" stroke-width=".571" d="m 1336.75,-1580.4771 71.375,15.0742 -19.4435,3.8901 -31.5035,-22.125 z" opacity=".25"/><use id="use14183" width="5033" height="1085" x="0" y="0" stroke-width=".571" transform="translate(0,18)" xlink:href="#path12064"/><use id="use14185" width="5033" height="1085" x="0" y="0" stroke-width=".571" transform="translate(0,18)" xlink:href="#path8855"/><use id="use14187" width="5033" height="1085" x="0" y="0" stroke-width=".571" transform="translate(0,36)" xlink:href="#path12064"/><use id="use14189" width="5033" height="1085" x="0" y="0" stroke-width=".571" transform="translate(0,36)" xlink:href="#path8855"/><path id="path8992" fill="url(#linearGradient21883)" fill-opacity="1" stroke="none" stroke-width=".571" d="m 1331.7271,-1563.8805 c 0,0 1.2809,21.6144 9.4257,36.5283 8.1448,14.9139 15.2451,19.1332 15.2451,19.1332 l 16.8342,-1.4495 c 0,0 -17.0503,-11.4476 -25.0669,-27.6647 -8.0166,-16.2172 -10.0081,-24.3946 -10.0081,-24.3946 z" display="inline" opacity=".25"/></g><g id="g1289" stroke-width="1.072" transform="matrix(0.93270191,0,0,0.93235082,23.151135,6.4926313)"><path id="path14085" fill="url(#linearGradient14107)" fill-opacity="1" fill-rule="nonzero" stroke="#8e03a3" stroke-dasharray="none" stroke-dashoffset="0" stroke-linecap="butt" stroke-linejoin="miter" stroke-miterlimit="4" stroke-opacity="1" stroke-width="1.072" d="m 332.74163,90.1053 v 3.50254 c 0,0 0,0.33824 0,0.50036 0,1.93441 5.0402,3.50255 11.2577,3.50255 6.2174,0 11.2576,-1.56814 11.2576,-3.50255 V 93.60784 90.1053 Z" color="#000" display="inline" overflow="visible" visibility="visible" style="marker:none"/><g id="g5748" stroke-dasharray="none" stroke-miterlimit="4" stroke-width="1.072" transform="translate(-927.00067,953.99307)"><path id="path14089" fill="url(#linearGradient14111)" fill-opacity="1" fill-rule="nonzero" stroke="#8e03a3" stroke-dasharray="none" stroke-dashoffset="0" stroke-linecap="butt" stroke-linejoin="miter" stroke-miterlimit="4" stroke-opacity="1" stroke-width="1.072" d="m 1259.7423,-868.57233 v 3.50255 c 0,0 0,0.33824 0,0.50036 0,1.93441 5.0402,3.50254 11.2577,3.50254 6.2174,0 11.2576,-1.56813 11.2576,-3.50254 v -0.50036 -3.50255 z" color="#000" display="inline" overflow="visible" visibility="visible" style="marker:none"/><g id="g14091" stroke-dasharray="none" stroke-miterlimit="4" stroke-width="1.083" transform="matrix(0.97892669,0,0,1.0007266,878.4504,0.37753505)"><path id="path14093" fill="url(#linearGradient14113)" fill-opacity="1" fill-rule="nonzero" stroke="#8e03a3" stroke-dasharray="none" stroke-dashoffset="0" stroke-linecap="butt" stroke-linejoin="miter" stroke-miterlimit="4" stroke-opacity="1" stroke-width="1.083" d="m 389.5,-872.95665 v 3.5 c 0,0 0,0.338 0,0.5 0,1.933 5.14873,3.5 11.5,3.5 6.35127,0 11.5,-1.567 11.5,-3.5 v -0.5 -3.5 z" color="#000" display="inline" overflow="visible" visibility="visible" style="marker:none"/><ellipse id="path14095" cx="519.688" cy="730.313" fill="url(#linearGradient14115)" fill-opacity="1" fill-rule="nonzero" stroke="#8e03a3" stroke-dasharray="none" stroke-miterlimit="4" stroke-width="1.929" color="#000" display="inline" overflow="visible" rx="22.438" ry="5.688" transform="matrix(0.512535,0,0,0.615385,134.642,-1323.1872)" visibility="visible" style="marker:none"/></g></g></g><g id="g1387" stroke-width="1.735" transform="matrix(0.57732782,0,0,0.57515103,137.3996,100.36002)"><path id="path1375" fill="url(#linearGradient1389)" fill-opacity="1" fill-rule="nonzero" stroke="#8e03a3" stroke-dasharray="none" stroke-dashoffset="0" stroke-linecap="butt" stroke-linejoin="miter" stroke-miterlimit="4" stroke-opacity="1" stroke-width="1.735" d="m 332.74163,90.1053 v 3.50254 c 0,0 0,0.33824 0,0.50036 0,1.93441 5.0402,3.50255 11.2577,3.50255 6.2174,0 11.2576,-1.56814 11.2576,-3.50255 V 93.60784 90.1053 Z" color="#000" display="inline" overflow="visible" visibility="visible" style="marker:none"/><g id="g1385" stroke-dasharray="none" stroke-miterlimit="4" stroke-width="1.735" transform="translate(-927.00067,953.99307)"><path id="path1377" fill="url(#linearGradient1391)" fill-opacity="1" fill-rule="nonzero" stroke="#8e03a3" stroke-dasharray="none" stroke-dashoffset="0" stroke-linecap="butt" stroke-linejoin="miter" stroke-miterlimit="4" stroke-opacity="1" stroke-width="1.735" d="m 1259.7423,-868.57233 v 3.50255 c 0,0 0,0.33824 0,0.50036 0,1.93441 5.0402,3.50254 11.2577,3.50254 6.2174,0 11.2576,-1.56813 11.2576,-3.50254 v -0.50036 -3.50255 z" color="#000" display="inline" overflow="visible" visibility="visible" style="marker:none"/><g id="g1383" stroke-dasharray="none" stroke-miterlimit="4" stroke-width="1.753" transform="matrix(0.97892669,0,0,1.0007266,878.4504,0.37753505)"><path id="path1379" fill="url(#linearGradient1393)" fill-opacity="1" fill-rule="nonzero" stroke="#8e03a3" stroke-dasharray="none" stroke-dashoffset="0" stroke-linecap="butt" stroke-linejoin="miter" stroke-miterlimit="4" stroke-opacity="1" stroke-width="1.753" d="m 389.5,-872.95665 v 3.5 c 0,0 0,0.338 0,0.5 0,1.933 5.14873,3.5 11.5,3.5 6.35127,0 11.5,-1.567 11.5,-3.5 v -0.5 -3.5 z" color="#000" display="inline" overflow="visible" visibility="visible" style="marker:none"/><ellipse id="ellipse1381" cx="519.688" cy="730.313" fill="url(#linearGradient1395)" fill-opacity="1" fill-rule="nonzero" stroke="#8e03a3" stroke-dasharray="none" stroke-miterlimit="4" stroke-width="3.122" color="#000" display="inline" overflow="visible" rx="22.438" ry="5.688" transform="matrix(0.512535,0,0,0.615385,134.642,-1323.1872)" visibility="visible" style="marker:none"/></g></g></g><g id="g1357" stroke-width="1.366" display="inline" transform="matrix(0.73319609,0,0,0.73064287,85.645152,93.686514)"><path id="path9344" fill="url(#linearGradient9348)" fill-opacity="1" fill-rule="nonzero" stroke="#8e03a3" stroke-width="1.366" d="m 328.49952,148.50605 v 4 c 0,1.10457 3.3579,2 7.5,2 4.1421,0 7.5,-0.89543 7.5,-2 v -4 z" color="#000" display="inline" overflow="visible" visibility="visible" style="marker:none"/><path id="path9335" fill="url(#linearGradient9339)" fill-opacity="1" fill-rule="nonzero" stroke="#8e03a3" stroke-width="1.366" d="m 328.49952,144.3085 v 4 c 0,1.10457 3.3579,2 7.5,2 4.1421,0 7.5,-0.89543 7.5,-2 v -4 z" color="#000" display="inline" overflow="visible" visibility="visible" style="marker:none"/><ellipse id="path9337" cx="336.001" cy="144.051" fill="url(#linearGradient9342)" fill-opacity="1" fill-rule="nonzero" stroke="#8e03a3" stroke-width="1.366" color="#000" display="inline" overflow="visible" rx="7.5" ry="2" visibility="visible" style="marker:none"/></g><g id="g1373" display="inline" transform="translate(0,0.4248)"><path id="rect6392" fill="#f2cbf8" fill-opacity="1" fill-rule="nonzero" stroke="#8e03a3" stroke-dasharray="none" stroke-dashoffset="0" stroke-linecap="butt" stroke-linejoin="miter" stroke-miterlimit="4" stroke-opacity="1" stroke-width="1" d="m 324.5,243.0752 v 2 c 0,0 0,0.29921 0,0.5 0,0.82843 1.567,1.5 3.5,1.5 1.933,0 3.5,-0.67157 3.5,-1.5 v -0.5 -2 z" color="#000" display="inline" overflow="visible" visibility="visible" style="marker:none"/><ellipse id="path6390" cx="328.001" cy="242.575" fill="#f2cbf8" fill-opacity="1" fill-rule="nonzero" stroke="#8e03a3" stroke-dasharray="none" stroke-miterlimit="4" stroke-width="1" color="#000" display="inline" overflow="visible" rx="3.5" ry="1.5" visibility="visible" style="marker:none"/></g></g><g id="layer3" display="inline"><path id="path4255" fill="#fff" fill-opacity="1" fill-rule="nonzero" stroke="none" stroke-width="1" d="m 64,156 v 73.00683 C 63.82701,264.37495 67.625155,268 102.92188,268 h 98.15624 C 236.37484,268 239.08173,264.36345 240,229.00683 V 156 Z" color="#000" display="inline" enable-background="accumulate" opacity=".1" overflow="visible" visibility="visible" style="marker:none"/><path id="path1006" fill="#fff" fill-opacity="1" fill-rule="nonzero" stroke="none" stroke-width="1" d="M 326,84 V 96.251953 C 325.9567,105.09398 326.90629,106 335.73047,106 h 16.53906 C 361.09371,106 362,105.09408 362,96.251953 V 84 Z" color="#000" display="inline" enable-background="accumulate" opacity=".1" overflow="visible" visibility="visible" style="marker:none"/><path id="path1013" fill="#fff" fill-opacity="1" fill-rule="nonzero" stroke="none" stroke-width="1" d="m 344,62 v 44 h 8.26953 C 361.09371,106 362,105.09408 362,96.251953 V 84 71.748047 C 362,62.905917 361.09371,62 352.26953,62 Z" color="#000" display="inline" enable-background="accumulate" opacity=".1" overflow="visible" visibility="visible" style="marker:none"/><path id="path1007" fill="#fff" fill-opacity="1" fill-rule="nonzero" stroke="none" stroke-width="1" d="m 323,200 v 6.125 c -0.0217,4.42101 0.45314,4.875 4.86523,4.875 h 8.26954 C 340.54686,211 341,210.54607 341,206.125 V 200 Z" color="#000" display="inline" enable-background="accumulate" opacity=".1" overflow="visible" visibility="visible" style="marker:none"/><path id="path1014" fill="#fff" fill-opacity="1" fill-rule="nonzero" stroke="none" stroke-width="1" d="m 332,189 v 22 h 4.13477 C 340.54686,211 341,210.54607 341,206.125 V 200 193.875 C 341,189.45394 340.54686,189 336.13477,189 Z" color="#000" display="inline" enable-background="accumulate" opacity=".1" overflow="visible" visibility="visible" style="marker:none"/><path id="path1011" fill="#fff" fill-opacity="1" fill-rule="nonzero" stroke="none" stroke-width="1" d="m 324,148 v 7.79688 C 323.9724,161.42361 324.57798,162 330.19336,162 h 11.61523 C 347.42399,162 348,161.42369 348,155.79688 V 148 Z" color="#000" display="inline" enable-background="accumulate" opacity=".1" overflow="visible" visibility="visible" style="marker:none"/><path id="path1018" fill="#fff" fill-opacity="1" fill-rule="nonzero" stroke="none" stroke-width="1" d="m 336,134 v 28 h 5.80859 C 347.42399,162 348,161.42369 348,155.79688 V 148 140.20312 C 348,134.57632 347.42397,134 341.80859,134 Z" color="#000" display="inline" enable-background="accumulate" opacity=".1" overflow="visible" visibility="visible" style="marker:none"/><path id="path1009" fill="#fff" fill-opacity="1" fill-rule="nonzero" stroke="none" stroke-width="1" d="m 328,237 v 14 h 2.9043 C 333.712,251 334,250.71185 334,247.89844 V 244 240.10156 C 334,237.28816 333.71199,237 330.9043,237 Z" color="#000" display="inline" enable-background="accumulate" opacity=".1" overflow="visible" visibility="visible" style="marker:none"/><path id="path1016" fill="#fff" fill-opacity="1" fill-rule="nonzero" stroke="none" stroke-width="1" d="m 322,244 v 3.89844 C 321.9862,250.71181 322.28801,251 325.0957,251 h 5.8086 C 333.712,251 334,250.71185 334,247.89844 V 244 Z" color="#000" display="inline" enable-background="accumulate" opacity=".1" overflow="visible" visibility="visible" style="marker:none"/><path id="path4231" fill="#fff" fill-opacity="1" fill-rule="nonzero" stroke="none" stroke-width="1" d="m 151.99486,44 v 224 h 49.07812 c 35.29672,0 38.00361,-3.63655 38.92188,-38.99317 V 156 82.993165 C 239.99486,47.624631 236.3697,44 201.07298,44 Z" color="#000" display="inline" enable-background="accumulate" opacity=".1" overflow="visible" visibility="visible" style="marker:none"/></g><g id="layer9" display="inline"><path id="path1089" fill="none" fill-opacity="1" fill-rule="nonzero" stroke="#000" stroke-opacity="1" stroke-width="1" d="m 330.19336,133.5 c -1.41241,0 -2.52238,0.0342 -3.42383,0.18555 -0.90145,0.15132 -1.61987,0.43164 -2.14258,0.95312 -0.5227,0.52148 -0.80325,1.23898 -0.95312,2.14063 -0.14988,0.90164 -0.18075,2.0101 -0.17383,3.42578 V 148 v 7.79688 c -0.007,1.41452 0.024,2.52269 0.17383,3.42382 0.14987,0.90165 0.43041,1.61915 0.95312,2.14063 0.52272,0.52148 1.24112,0.8018 2.14258,0.95312 0.90146,0.15132 2.01142,0.18555 3.42383,0.18555 h 11.61523 c 1.41241,0 2.51847,-0.0342 3.41797,-0.18555 0.8995,-0.15137 1.61597,-0.43149 2.13672,-0.95312 0.52075,-0.52163 0.80004,-1.23774 0.95117,-2.13867 0.15113,-0.90094 0.18555,-2.01055 0.18555,-3.42578 V 148 140.20312 c 0,-1.41524 -0.0344,-2.52484 -0.18555,-3.42578 -0.15113,-0.90093 -0.43042,-1.61703 -0.95117,-2.13867 -0.52075,-0.52163 -1.23722,-0.80175 -2.13672,-0.95312 C 344.32706,133.53418 343.221,133.5 341.80859,133.5 Z" color="#000" display="inline" enable-background="accumulate" opacity=".3" overflow="visible" visibility="visible" style="marker:none"/><path id="path1085" fill="none" fill-opacity="1" fill-rule="nonzero" stroke="#000" stroke-opacity="1" stroke-width="1" d="m 327.86523,188.5 c -1.11158,0 -1.98683,0.0256 -2.70703,0.14648 -0.72019,0.1209 -1.3105,0.34863 -1.74218,0.7793 -0.43169,0.43067 -0.65954,1.01974 -0.7793,1.74024 -0.11977,0.72049 -0.14217,1.59669 -0.13672,2.71093 V 200 v 6.125 c -0.005,1.1131 0.017,1.989 0.13672,2.70898 0.11976,0.72051 0.3476,1.30957 0.7793,1.74024 0.43169,0.43067 1.02199,0.6584 1.74218,0.7793 0.7202,0.12089 1.59545,0.14648 2.70703,0.14648 h 8.26954 c 1.11158,0 1.98637,-0.0255 2.70507,-0.14648 0.7187,-0.12095 1.30623,-0.34848 1.73633,-0.7793 0.4301,-0.43083 0.6566,-1.01849 0.77735,-1.73828 0.12074,-0.71979 0.14648,-1.59713 0.14648,-2.71094 V 200 193.875 c 0,-1.11381 -0.0257,-1.99115 -0.14648,-2.71094 -0.12075,-0.71979 -0.34725,-1.30745 -0.77735,-1.73828 -0.4301,-0.43082 -1.01763,-0.65835 -1.73633,-0.7793 -0.7187,-0.12094 -1.59349,-0.14648 -2.70507,-0.14648 z" color="#000" display="inline" enable-background="accumulate" opacity=".3" overflow="visible" visibility="visible" style="marker:none"/><path id="path1087" fill="none" fill-opacity="1" fill-rule="nonzero" stroke="#000" stroke-opacity="1" stroke-width="1" d="m 325.0957,236.5 c -0.71048,0 -1.27344,0.0154 -1.75195,0.0957 -0.47851,0.0803 -0.89671,0.23728 -1.20703,0.54688 -0.31032,0.30959 -0.46726,0.7261 -0.54688,1.20508 -0.0796,0.47897 -0.0933,1.04352 -0.0898,1.75586 V 244 v 3.89844 c -0.003,0.71121 0.0103,1.27546 0.0898,1.7539 0.0796,0.47898 0.23655,0.89549 0.54688,1.20508 0.31033,0.3096 0.72851,0.46655 1.20703,0.54688 0.47852,0.0803 1.04147,0.0957 1.75195,0.0957 h 5.8086 c 0.71048,0 1.27236,-0.0153 1.75,-0.0957 0.47763,-0.0804 0.89584,-0.23713 1.20508,-0.54688 0.30921,-0.30975 0.46469,-0.72681 0.54492,-1.20508 0.0802,-0.47826 0.0957,-1.04201 0.0957,-1.7539 V 244 240.10156 c 0,-0.71189 -0.0155,-1.27564 -0.0957,-1.7539 -0.0802,-0.47827 -0.2357,-0.89533 -0.54492,-1.20508 -0.30924,-0.30975 -0.72745,-0.4665 -1.20508,-0.54688 -0.47764,-0.0804 -1.03952,-0.0957 -1.75,-0.0957 z" color="#000" display="inline" enable-background="accumulate" opacity=".3" overflow="visible" visibility="visible" style="marker:none"/></g><g id="layer5" display="inline"><path id="path945" fill="#000" fill-opacity="1" fill-rule="nonzero" stroke="none" stroke-width="1" d="m 64,227.00586 v 2 C 63.82701,264.37398 67.62515,268 102.92188,268 h 98.15624 c 35.29672,0 38.00361,-3.63752 38.92188,-38.99414 v -2 C 239.08173,262.36248 236.37484,266 201.07812,266 H 102.92188 C 67.62515,266 63.82701,262.37398 64,227.00586 Z" color="#000" display="inline" enable-background="accumulate" opacity=".2" overflow="visible" visibility="visible" style="marker:none"/><path id="path935" fill="none" fill-opacity="1" fill-rule="nonzero" stroke="url(#linearGradient981)" stroke-dasharray="none" stroke-miterlimit="4" stroke-opacity="1" stroke-width="2" d="m 327.8652,189 c -4.41209,0 -4.88682,0.45318 -4.8652,4.87419 V 200 206.12581 C 322.9783,210.54682 323.45311,211 327.8652,211 h 8.2696 C 340.54689,211 341,210.54688 341,206.12581 V 200 193.87419 C 341,189.45313 340.54688,189 336.13479,189 Z" clip-path="url(#clipPath971)" color="#000" display="inline" enable-background="accumulate" opacity=".2" overflow="visible" transform="translate(1.5261807e-6)" visibility="visible" style="marker:none"/><path id="path937" fill="none" fill-opacity="1" fill-rule="nonzero" stroke="url(#linearGradient993)" stroke-dasharray="none" stroke-miterlimit="4" stroke-opacity="1" stroke-width="2" d="m 325.09646,237 c -2.80769,0 -3.10979,0.28839 -3.09603,3.10176 V 244 v 3.89824 c -0.0138,2.81337 0.28834,3.10176 3.09603,3.10176 h 5.8075 C 333.71166,251 334,250.71165 334,247.89824 V 244 240.10176 C 334,237.28836 333.71165,237 330.90396,237 Z" clip-path="url(#clipPath983)" color="#000" display="inline" enable-background="accumulate" opacity=".2" overflow="visible" transform="translate(1.5261807e-6)" visibility="visible" style="marker:none"/><path id="path939" fill="none" fill-opacity="1" fill-rule="nonzero" stroke="url(#linearGradient969)" stroke-dasharray="none" stroke-miterlimit="4" stroke-opacity="1" stroke-width="2" d="m 330.1929,133.99999 c -5.61538,0 -6.21958,0.57678 -6.19206,6.20352 v 7.79648 7.79648 c -0.0276,5.62673 0.57668,6.20351 6.19206,6.20351 h 11.615 c 5.6154,0 6.19208,-0.5767 6.19208,-6.20351 v -7.79648 -7.79648 c 0,-5.6268 -0.5767,-6.20352 -6.19208,-6.20352 z" clip-path="url(#clipPath959)" color="#000" display="inline" enable-background="accumulate" opacity=".2" overflow="visible" transform="translate(1.5261807e-6)" visibility="visible" style="marker:none"/><path id="path931" fill="#fff" fill-opacity="1" fill-rule="nonzero" stroke="none" stroke-width="1" d="M 102.92188,44 C 67.625152,44 63.82701,47.626029 64,82.994141 v 2 C 63.82701,49.626029 67.625152,46 102.92188,46 h 98.15624 C 236.37485,46 240,49.625608 240,84.994141 v -2 C 240,47.625608 236.37485,44 201.07812,44 Z" color="#000" display="inline" enable-background="accumulate" opacity=".2" overflow="visible" visibility="visible" style="marker:none"/><path id="path4254" fill="#fff" fill-opacity="1" fill-rule="nonzero" stroke="none" stroke-dasharray="none" stroke-dashoffset="0" stroke-linecap="butt" stroke-linejoin="miter" stroke-miterlimit="4" stroke-opacity="1" stroke-width="8" d="m 180,268 60,-60 v 22.48388 C 239.94765,264.47969 236.19732,268 201.8259,268 Z" color="#000" display="inline" enable-background="accumulate" opacity=".08" overflow="visible" visibility="visible" style="marker:none"/></g></g></svg>