<svg xmlns="http://www.w3.org/2000/svg" xmlns:osb="http://www.openswatchbook.org/uri/2009/osb" xmlns:svg="http://www.w3.org/2000/svg" xmlns:xlink="http://www.w3.org/1999/xlink" id="svg11300" width="400" height="300" display="inline" enable-background="new" version="1.0"><title id="title3004">Suru Icon Theme Template</title><defs id="defs3"><clipPath id="clipPath9430" clipPathUnits="userSpaceOnUse"><path id="path9432" fill="#fff" fill-opacity="1" fill-rule="nonzero" stroke="none" stroke-width="1" d="m 166.0625,-196 h 179.875 C 491.2348,-196 512,-175.28677 512,-30.125 v 148.25 C 512,263.28618 491.2348,284 345.9375,284 H 166.0625 C 20.7652,284 0,263.28618 0,118.125 V -30.125 C 0,-175.28677 20.7652,-196 166.0625,-196 Z" color="#000" display="inline" enable-background="new" overflow="visible" visibility="visible" style="marker:none"/></clipPath><clipPath id="clipPath1082" clipPathUnits="userSpaceOnUse"><path id="path1084" fill="#8c59d9" fill-opacity="1" stroke="none" stroke-dasharray="none" stroke-dashoffset="0" stroke-linecap="round" stroke-linejoin="round" stroke-miterlimit="4" stroke-opacity="1" stroke-width="2" d="M 361.9375,-212 C 507.2348,-212 528,-191.28677 528,-46.125 V 70.125 C 528,215.28618 507.2348,236 361.9375,236 H 214.0625 C 68.7652,236 48,215.28618 48,70.125 V -46.125 C 48,-191.28677 68.7652,-212 214.0625,-212 Z" display="inline" enable-background="new" opacity="1"/></clipPath><clipPath id="clipPath994" clipPathUnits="userSpaceOnUse"><path id="path996" fill="#cdcdcd" fill-opacity="1" fill-rule="nonzero" stroke="none" stroke-dasharray="none" stroke-miterlimit="4" stroke-opacity="1" stroke-width="2" d="m 335.73108,62 c -8.82418,0 -9.77365,0.90635 -9.7304,9.74838 V 84 96.25162 c -0.0433,8.84203 0.90622,9.74838 9.7304,9.74838 h 16.53919 c 8.82418,0 9.7304,-0.90625 9.7304,-9.74838 V 84 71.74838 C 362.00067,62.90625 361.09445,62 352.27027,62 Z" color="#000" display="inline" enable-background="accumulate" overflow="visible" visibility="visible" style="marker:none"/></clipPath><clipPath id="clipPath994-5" clipPathUnits="userSpaceOnUse"><path id="path996-3" fill="#cdcdcd" fill-opacity="1" fill-rule="nonzero" stroke="none" stroke-dasharray="none" stroke-miterlimit="4" stroke-opacity="1" stroke-width="2" d="m 335.73108,62 c -8.82418,0 -9.77365,0.90635 -9.7304,9.74838 V 84 96.25162 c -0.0433,8.84203 0.90622,9.74838 9.7304,9.74838 h 16.53919 c 8.82418,0 9.7304,-0.90625 9.7304,-9.74838 V 84 71.74838 C 362.00067,62.90625 361.09445,62 352.27027,62 Z" color="#000" display="inline" enable-background="accumulate" overflow="visible" visibility="visible" style="marker:none"/></clipPath><clipPath id="clipPath971" clipPathUnits="userSpaceOnUse"><path id="path973" fill="#46a926" fill-opacity="1" fill-rule="nonzero" stroke="none" stroke-dasharray="none" stroke-miterlimit="4" stroke-opacity="1" stroke-width="2" d="m 327.8652,189 c -4.41209,0 -4.88682,0.45318 -4.8652,4.87419 V 200 206.12581 C 322.9783,210.54682 323.45311,211 327.8652,211 h 8.2696 C 340.54689,211 341,210.54688 341,206.12581 V 200 193.87419 C 341,189.45313 340.54688,189 336.13479,189 Z" color="#000" display="inline" enable-background="accumulate" opacity="1" overflow="visible" visibility="visible" style="marker:none"/></clipPath><clipPath id="clipPath983" clipPathUnits="userSpaceOnUse"><path id="path985" fill="#46a926" fill-opacity="1" fill-rule="nonzero" stroke="none" stroke-dasharray="none" stroke-miterlimit="4" stroke-opacity="1" stroke-width="2" d="m 325.09646,237 c -2.80769,0 -3.10979,0.28839 -3.09603,3.10176 V 244 v 3.89824 c -0.0138,2.81337 0.28834,3.10176 3.09603,3.10176 h 5.8075 C 333.71166,251 334,250.71165 334,247.89824 V 244 240.10176 C 334,237.28836 333.71165,237 330.90396,237 Z" color="#000" display="inline" enable-background="accumulate" opacity="1" overflow="visible" visibility="visible" style="marker:none"/></clipPath><clipPath id="clipPath959" clipPathUnits="userSpaceOnUse"><path id="path961" fill="#46a926" fill-opacity="1" fill-rule="nonzero" stroke="none" stroke-dasharray="none" stroke-miterlimit="4" stroke-opacity="1" stroke-width="2" d="m 330.1929,133.99999 c -5.61538,0 -6.21958,0.57678 -6.19206,6.20352 v 7.79648 7.79648 c -0.0276,5.62673 0.57668,6.20351 6.19206,6.20351 h 11.615 c 5.6154,0 6.19208,-0.5767 6.19208,-6.20351 v -7.79648 -7.79648 c 0,-5.6268 -0.5767,-6.20352 -6.19208,-6.20352 z" color="#000" display="inline" enable-background="accumulate" opacity="1" overflow="visible" visibility="visible" style="marker:none"/></clipPath><filter id="filter945" width="1.048" height="1.048" x="-.024" y="-.024" color-interpolation-filters="sRGB"><feGaussianBlur id="feGaussianBlur947" stdDeviation="2.24"/></filter><filter id="filter951" width="1.12" height="1.12" x="-.06" y="-.06" color-interpolation-filters="sRGB"><feGaussianBlur id="feGaussianBlur953" stdDeviation="5.6"/></filter><linearGradient id="linearGradient3045"><stop id="stop3047" offset="0" stop-color="#847784" stop-opacity=".996"/><stop id="stop3049" offset="1" stop-color="#695f69" stop-opacity="1"/></linearGradient><linearGradient id="linearGradient4213"><stop id="stop4215" offset="0" stop-color="#b1d7f3" stop-opacity="1"/><stop id="stop4217" offset="1" stop-color="#8fafda" stop-opacity="1"/></linearGradient><linearGradient id="linearGradient5460" osb:paint="gradient"><stop id="stop5462" offset="0" stop-color="#e6e6e6" stop-opacity="1"/><stop id="stop5464" offset="1" stop-color="#fff" stop-opacity="1"/></linearGradient><linearGradient id="linearGradient5476" osb:paint="solid"><stop id="stop5478" offset="0" stop-color="#772953" stop-opacity="1"/></linearGradient><filter id="filter4154" color-interpolation-filters="sRGB"><feComposite id="feComposite4156" in2="SourceGraphic" k1="0" k2="1" k3="0" k4="0" operator="arithmetic" result="composite1"/><feColorMatrix id="feColorMatrix4158" in="composite1" result="colormatrix1" type="saturate" values="0"/><feFlood id="feFlood4160" flood-color="#483B48" result="flood1"/><feBlend id="feBlend4162" in="flood1" in2="colormatrix1" mode="multiply" result="blend1"/><feBlend id="feBlend4164" in2="blend1" mode="screen" result="blend2"/><feColorMatrix id="feColorMatrix4166" in="blend2" result="colormatrix2" type="saturate" values="1"/><feComposite id="feComposite4168" in="colormatrix2" in2="SourceGraphic" operator="in" result="composite2"/></filter><clipPath id="clipPath3062" clipPathUnits="userSpaceOnUse"><rect id="rect3064" width="475.665" height="445.935" x="34.168" y="-194.968" fill="url(#linearGradient3066)" fill-opacity="1" fill-rule="nonzero" stroke="none" stroke-width="40" color="#000" display="inline" enable-background="new" overflow="visible" visibility="visible" style="marker:none"/></clipPath><linearGradient id="linearGradient3066" x1="256" x2="256" y1="50" y2="288" gradientTransform="matrix(1.8580645,0,0,1.8736786,4.4387126,-288.65166)" gradientUnits="userSpaceOnUse" xlink:href="#linearGradient3045"/></defs><metadata id="metadata4"/><g id="layer1" display="inline"><g id="layer7" display="none"><text enable-background="new" style="line-height:0%;-inkscape-font-specification:'DejaVu Sans'" id="context" x="19.007" y="-8.255" fill="#000" fill-opacity="1" stroke="none" display="inline" font-family="DejaVu Sans" font-stretch="normal" font-style="normal" font-variant="normal" font-weight="normal" xml:space="preserve"><tspan id="tspan3933" x="19.007" y="-8.255" font-family="DejaVu Sans" font-size="18" font-stretch="normal" font-style="normal" font-variant="normal" font-weight="normal" style="line-height:1.25;-inkscape-font-specification:'DejaVu Sans'">emblems</tspan></text><text id="icon-name" x="146.488" y="-8.255" fill="#000" fill-opacity="1" stroke="none" display="inline" enable-background="new" font-family="DejaVu Sans" font-stretch="normal" font-style="normal" font-variant="normal" font-weight="bold" text-anchor="start" writing-mode="lr-tb" xml:space="preserve" style="line-height:0%;-inkscape-font-specification:'DejaVu Sans Bold';text-align:start"><tspan id="tspan924" x="146.488" y="-8.255" font-family="DejaVu Sans" font-size="18" font-stretch="normal" font-style="normal" font-variant="normal" font-weight="bold" style="line-height:1.25;-inkscape-font-specification:'DejaVu Sans Bold'">emblem-danger</tspan></text><rect id="rect16x16" width="16" height="16" x="320" y="236" fill="#cdcdcd" fill-opacity="1" fill-rule="nonzero" stroke="none" stroke-width="2" display="inline" enable-background="accumulate" overflow="visible" visibility="visible" style="marker:none"/><rect id="rect24x24" width="24" height="24" x="320" y="188" fill="#cdcdcd" fill-opacity="1" fill-rule="nonzero" stroke="none" stroke-width="2" display="inline" enable-background="accumulate" overflow="visible" visibility="visible" style="marker:none"/><rect id="rect32x32" width="32" height="32" x="320" y="132" fill="#cdcdcd" fill-opacity="1" fill-rule="nonzero" stroke="none" stroke-width="2" display="inline" enable-background="accumulate" overflow="visible" visibility="visible" style="marker:none"/><rect id="rect48x48" width="48" height="48" x="320" y="60" fill="#cdcdcd" fill-opacity="1" fill-rule="nonzero" stroke="none" stroke-width="2" display="inline" enable-background="accumulate" overflow="visible" visibility="visible" style="marker:none"/><rect id="rect3951" width="256" height="256" x="24" y="28" fill="#cdcdcd" fill-opacity="1" fill-rule="nonzero" stroke="none" stroke-width="2" display="inline" enable-background="accumulate" overflow="visible" visibility="visible" style="marker:none"/><rect id="rect841" width="8" height="8" x="320" y="268" fill="#cdcdcd" fill-opacity="1" fill-rule="nonzero" stroke="none" stroke-width="1" display="inline" enable-background="accumulate" overflow="visible" visibility="visible" style="marker:none"/></g><g id="layer2" display="inline"><rect id="rect892" width="15" height="15" x="-252" y="-336" fill="#000" fill-opacity="1" stroke="none" stroke-opacity=".251" stroke-width="1" display="inline" enable-background="new" opacity=".2" rx="7.5" ry="7.5" transform="matrix(0,-1,-1,0,0,0)"/><rect id="rect894" width="42" height="42" x="-106" y="-365" fill="#000" fill-opacity="1" stroke="none" stroke-dasharray="none" stroke-miterlimit="4" stroke-opacity=".251" stroke-width="1.024" display="inline" enable-background="new" opacity=".2" rx="21" ry="21" transform="matrix(0,-1,-1,0,0,0)"/><rect id="rect896" width="22" height="22" x="-212" y="-343" fill="#000" fill-opacity="1" stroke="none" stroke-opacity=".251" stroke-width="1.048" display="inline" enable-background="new" opacity=".2" rx="11" ry="11" transform="matrix(0,-1,-1,0,0,0)"/><rect id="rect876" width="30" height="30" x="-164" y="-351" fill="#000" fill-opacity="1" stroke="none" stroke-opacity=".251" stroke-width="1.034" display="inline" enable-background="new" opacity=".2" rx="15" ry="15" transform="matrix(0,-1,-1,0,0,0)"/><rect id="rect949" width="224" height="224" x="-270" y="-264" fill="#000" fill-opacity="1" stroke="none" stroke-width=".5" display="inline" enable-background="new" filter="url(#filter951)" opacity=".1" rx="112" ry="112" transform="matrix(0,-1,-1,0,0,0)"/><rect id="rect939" width="224" height="224" x="-270" y="-264" fill="#000" fill-opacity="1" stroke="none" stroke-width=".5" display="inline" enable-background="new" filter="url(#filter945)" opacity=".5" rx="112" ry="112" transform="matrix(0,-1,-1,0,0,0)"/><rect id="rect4414" width="15" height="15" x="-251" y="-336" fill="#da1636" fill-opacity="1" stroke="none" stroke-opacity=".251" stroke-width="1" display="inline" enable-background="new" rx="7.5" ry="7.5" transform="matrix(0,-1,-1,0,0,0)"/><rect id="rect917" width="42" height="42" x="-106" y="-365" fill="#000" fill-opacity="1" stroke="none" stroke-opacity=".251" stroke-width="1.05" display="inline" enable-background="new" opacity=".1" rx="21" ry="21" transform="matrix(0,-1,-1,0,0,0)"/><rect id="rect4408" width="42" height="42" x="-105" y="-365" fill="#da1636" fill-opacity="1" stroke="none" stroke-dasharray="none" stroke-miterlimit="4" stroke-opacity=".251" stroke-width="1.024" display="inline" enable-background="new" rx="21" ry="21" transform="matrix(0,-1,-1,0,0,0)"/><rect id="rect4410" width="22" height="22" x="-211" y="-343" fill="#da1636" fill-opacity="1" stroke="none" stroke-opacity=".251" stroke-width="1.048" display="inline" enable-background="new" rx="11" ry="11" transform="matrix(0,-1,-1,0,0,0)"/><rect id="rect4412" width="30" height="30" x="-163" y="-351" fill="#da1636" fill-opacity="1" stroke="none" stroke-opacity=".251" stroke-width="1.034" display="inline" enable-background="new" rx="15" ry="15" transform="matrix(0,-1,-1,0,0,0)"/><rect id="rect4418" width="224" height="224" x="-268" y="-264" fill="#da1636" fill-opacity="1" stroke="none" stroke-width=".5" display="inline" enable-background="new" rx="112" ry="112" transform="matrix(0,-1,-1,0,0,0)"/><rect id="rect4420" width="8" height="8" x="-276" y="-328" fill="#da1636" fill-opacity="1" stroke="none" stroke-opacity=".251" stroke-width="1.143" display="inline" enable-background="new" rx="1" ry="1" transform="matrix(0,-1,-1,0,0,0)"/></g><g id="layer6" display="inline"><g id="text913" fill="#fff" fill-opacity="1" stroke="none" stroke-linecap="butt" stroke-linejoin="miter" stroke-opacity="1" stroke-width="5.099" aria-label="!" display="inline" font-family="sans-serif" font-size="203.966" font-style="normal" font-weight="normal" letter-spacing="0" text-anchor="middle" transform="translate(0,-2e-6)" word-spacing="0" style="line-height:1000%;text-align:center"><path id="path939" fill="#fff" fill-opacity="1" stroke-width="5.099" d="m 159.13404,123.36543 q 0,8.77054 -0.40793,16.52125 -0.20397,7.54674 -0.81586,14.68555 -0.6119,7.13881 -1.42777,13.86969 -0.61189,6.73088 -1.42776,13.46176 h -6.11898 q -1.83569,-13.66573 -3.05949,-27.33145 -1.01983,-13.66572 -1.01983,-31.2068 V 83.999994 h 14.27762 z m 4.07932,93.21247 q 0,4.69121 -3.05949,7.95467 -2.85552,3.26346 -8.15864,3.26346 -5.30311,0 -8.3626,-3.26346 -2.85553,-3.26346 -2.85553,-7.95467 0,-4.69122 2.85553,-7.95468 3.05949,-3.26345 8.3626,-3.26345 5.30312,0 8.15864,3.26345 3.05949,3.26346 3.05949,7.95468 z" font-family="Ubuntu" font-stretch="normal" font-style="normal" font-variant="normal" font-weight="300" text-anchor="middle" style="-inkscape-font-specification:'Ubuntu Light';text-align:center"/></g><g id="text925" fill="#fff" fill-opacity="1" stroke="none" stroke-linecap="butt" stroke-linejoin="miter" stroke-opacity="1" stroke-width=".993" aria-label="!" display="inline" font-family="sans-serif" font-size="39.716" font-style="normal" font-weight="normal" letter-spacing="0" text-anchor="middle" transform="translate(0,-2e-6)" word-spacing="0" style="line-height:1000%;text-align:center"><path id="path947" fill="#fff" fill-opacity="1" stroke-width=".993" d="m 345.98675,77.466669 q 0,3.33617 -0.2383,6.076596 -0.2383,2.700709 -0.59575,5.401419 h -2.30354 q -0.35745,-2.70071 -0.59575,-5.401419 -0.23829,-2.740426 -0.23829,-6.076596 v -7.466667 h 3.97163 z m 0.67517,17.912057 q 0,1.072341 -0.71489,1.866667 -0.71489,0.794326 -1.9461,0.794326 -1.2312,0 -1.9461,-0.794326 -0.71489,-0.794326 -0.71489,-1.866667 0,-1.07234 0.71489,-1.866667 0.7149,-0.794326 1.9461,-0.794326 1.23121,0 1.9461,0.794326 0.71489,0.794327 0.71489,1.866667 z" font-family="Ubuntu" font-stretch="normal" font-style="normal" font-variant="normal" font-weight="normal" text-anchor="middle" style="-inkscape-font-specification:Ubuntu;text-align:center"/></g><g id="text929" fill="#fff" fill-opacity="1" stroke="none" stroke-linecap="butt" stroke-linejoin="miter" stroke-opacity="1" stroke-width=".637" aria-label="!" display="inline" font-family="sans-serif" font-size="25.496" font-style="normal" font-weight="normal" letter-spacing="0" text-anchor="middle" transform="translate(1.5e-5,10e-6)" word-spacing="0" style="line-height:1000%;text-align:center"><path id="path951" fill="#fff" fill-opacity="1" stroke-width=".637" d="m 337.27477,143.79319 q 0,2.14165 -0.15297,3.90085 -0.15298,1.73372 -0.38244,3.46743 h -1.47875 q -0.22946,-1.73371 -0.38244,-3.46743 -0.15297,-1.7592 -0.15297,-3.90085 v -4.7932 h 2.54957 z m 0.43343,11.49859 q 0,0.68838 -0.45892,1.1983 -0.45893,0.50991 -1.24929,0.50991 -0.79037,0 -1.2493,-0.50991 -0.45892,-0.50992 -0.45892,-1.1983 0,-0.68839 0.45892,-1.1983 0.45893,-0.50992 1.2493,-0.50992 0.79036,0 1.24929,0.50992 0.45892,0.50991 0.45892,1.1983 z" font-family="Ubuntu" font-stretch="normal" font-style="normal" font-variant="normal" font-weight="normal" text-anchor="middle" style="-inkscape-font-specification:Ubuntu;text-align:center"/></g><g id="text933" fill="#fff" fill-opacity="1" stroke="none" stroke-linecap="butt" stroke-linejoin="miter" stroke-opacity="1" stroke-width=".425" aria-label="!" display="inline" font-family="sans-serif" font-size="16.997" font-style="normal" font-weight="normal" letter-spacing="0" text-anchor="middle" transform="translate(1e-5)" word-spacing="0" style="line-height:1000%;text-align:center"><path id="path954" fill="#fff" fill-opacity="1" stroke-width=".425" d="m 332.84985,197.19547 q 0,1.42776 -0.10198,2.60056 -0.10199,1.15581 -0.25496,2.31162 h -0.98584 q -0.15297,-1.15581 -0.25495,-2.31162 -0.10199,-1.1728 -0.10199,-2.60056 V 194 h 1.69972 z m 0.28895,7.66572 q 0,0.45892 -0.30595,0.79887 Q 332.5269,206 331.99999,206 q -0.52691,0 -0.83286,-0.33994 -0.30595,-0.33995 -0.30595,-0.79887 0,-0.45892 0.30595,-0.79887 0.30595,-0.33994 0.83286,-0.33994 0.52691,0 0.83286,0.33994 0.30595,0.33995 0.30595,0.79887 z" font-family="Ubuntu" font-stretch="normal" font-style="normal" font-variant="normal" font-weight="normal" text-anchor="middle" style="-inkscape-font-specification:Ubuntu;text-align:center"/></g><g id="text937" fill="#fff" fill-opacity="1" stroke="none" stroke-linecap="butt" stroke-linejoin="miter" stroke-opacity="1" stroke-width=".319" aria-label="!" display="inline" font-family="sans-serif" font-size="12.748" font-style="normal" font-weight="normal" letter-spacing="0" text-anchor="middle" transform="translate(0.49999)" word-spacing="0" style="line-height:1000%;text-align:center"><path id="path957" fill="#fff" fill-opacity="1" stroke-width=".319" d="m 328.6374,241.3966 q 0,1.07082 -0.0765,1.95042 -0.0765,0.86686 -0.19121,1.73371 h -0.73938 q -0.11473,-0.86685 -0.19122,-1.73371 -0.0765,-0.8796 -0.0765,-1.95042 V 239 h 1.27479 z m 0.21672,5.74929 q 0,0.34419 -0.22947,0.59915 Q 328.39519,248 328.00001,248 q -0.39519,0 -0.62465,-0.25496 -0.22946,-0.25496 -0.22946,-0.59915 0,-0.34419 0.22946,-0.59915 0.22946,-0.25496 0.62465,-0.25496 0.39518,0 0.62464,0.25496 0.22947,0.25496 0.22947,0.59915 z" font-family="Ubuntu" font-stretch="normal" font-style="normal" font-variant="normal" font-weight="normal" text-anchor="middle" style="-inkscape-font-specification:Ubuntu;text-align:center"/></g><g id="text937-6" fill="#fff" fill-opacity="1" stroke="none" stroke-linecap="butt" stroke-linejoin="miter" stroke-opacity="1" stroke-width=".319" aria-label="!" display="inline" font-family="sans-serif" font-size="12.748" font-style="normal" font-weight="normal" letter-spacing="0" text-anchor="middle" transform="matrix(0.74978701,0,0,0.74978701,78.069853,89.426863)" word-spacing="0" style="line-height:1000%;text-align:center"><path id="path957-2" fill="#fff" fill-opacity="1" stroke-width=".319" d="m 328.6374,241.3966 q 0,1.07082 -0.0765,1.95042 -0.0765,0.86686 -0.19121,1.73371 h -0.73938 q -0.11473,-0.86685 -0.19122,-1.73371 -0.0765,-0.8796 -0.0765,-1.95042 V 239 h 1.27479 z m 0.21672,5.74929 q 0,0.34419 -0.22947,0.59915 Q 328.39519,248 328.00001,248 q -0.39519,0 -0.62465,-0.25496 -0.22946,-0.25496 -0.22946,-0.59915 0,-0.34419 0.22946,-0.59915 0.22946,-0.25496 0.62465,-0.25496 0.39518,0 0.62464,0.25496 0.22947,0.25496 0.22947,0.59915 z" font-family="Ubuntu" font-stretch="normal" font-style="normal" font-variant="normal" font-weight="normal" text-anchor="middle" style="-inkscape-font-specification:Ubuntu;text-align:center"/></g></g></g></svg>