<svg xmlns="http://www.w3.org/2000/svg" xmlns:osb="http://www.openswatchbook.org/uri/2009/osb" xmlns:svg="http://www.w3.org/2000/svg" xmlns:xlink="http://www.w3.org/1999/xlink" id="svg11300" width="400" height="300" display="inline" enable-background="new" version="1.0"><title id="title3004">Suru Icon Theme Template</title><defs id="defs3"><clipPath id="clipPath9430" clipPathUnits="userSpaceOnUse"><path id="path9432" fill="#fff" fill-opacity="1" fill-rule="nonzero" stroke="none" stroke-width="1" d="m 166.0625,-196 h 179.875 C 491.2348,-196 512,-175.28677 512,-30.125 v 148.25 C 512,263.28618 491.2348,284 345.9375,284 H 166.0625 C 20.7652,284 0,263.28618 0,118.125 V -30.125 C 0,-175.28677 20.7652,-196 166.0625,-196 Z" color="#000" display="inline" enable-background="new" overflow="visible" visibility="visible" style="marker:none"/></clipPath><clipPath id="clipPath1082" clipPathUnits="userSpaceOnUse"><path id="path1084" fill="#8c59d9" fill-opacity="1" stroke="none" stroke-dasharray="none" stroke-dashoffset="0" stroke-linecap="round" stroke-linejoin="round" stroke-miterlimit="4" stroke-opacity="1" stroke-width="2" d="M 361.9375,-212 C 507.2348,-212 528,-191.28677 528,-46.125 V 70.125 C 528,215.28618 507.2348,236 361.9375,236 H 214.0625 C 68.7652,236 48,215.28618 48,70.125 V -46.125 C 48,-191.28677 68.7652,-212 214.0625,-212 Z" display="inline" enable-background="new" opacity="1"/></clipPath><clipPath id="clipPath994" clipPathUnits="userSpaceOnUse"><path id="path996" fill="#cdcdcd" fill-opacity="1" fill-rule="nonzero" stroke="none" stroke-dasharray="none" stroke-miterlimit="4" stroke-opacity="1" stroke-width="2" d="m 335.73108,62 c -8.82418,0 -9.77365,0.90635 -9.7304,9.74838 V 84 96.25162 c -0.0433,8.84203 0.90622,9.74838 9.7304,9.74838 h 16.53919 c 8.82418,0 9.7304,-0.90625 9.7304,-9.74838 V 84 71.74838 C 362.00067,62.90625 361.09445,62 352.27027,62 Z" color="#000" display="inline" enable-background="accumulate" overflow="visible" visibility="visible" style="marker:none"/></clipPath><clipPath id="clipPath994-5" clipPathUnits="userSpaceOnUse"><path id="path996-3" fill="#cdcdcd" fill-opacity="1" fill-rule="nonzero" stroke="none" stroke-dasharray="none" stroke-miterlimit="4" stroke-opacity="1" stroke-width="2" d="m 335.73108,62 c -8.82418,0 -9.77365,0.90635 -9.7304,9.74838 V 84 96.25162 c -0.0433,8.84203 0.90622,9.74838 9.7304,9.74838 h 16.53919 c 8.82418,0 9.7304,-0.90625 9.7304,-9.74838 V 84 71.74838 C 362.00067,62.90625 361.09445,62 352.27027,62 Z" color="#000" display="inline" enable-background="accumulate" overflow="visible" visibility="visible" style="marker:none"/></clipPath><clipPath id="clipPath971" clipPathUnits="userSpaceOnUse"><path id="path973" fill="#46a926" fill-opacity="1" fill-rule="nonzero" stroke="none" stroke-dasharray="none" stroke-miterlimit="4" stroke-opacity="1" stroke-width="2" d="m 327.8652,189 c -4.41209,0 -4.88682,0.45318 -4.8652,4.87419 V 200 206.12581 C 322.9783,210.54682 323.45311,211 327.8652,211 h 8.2696 C 340.54689,211 341,210.54688 341,206.12581 V 200 193.87419 C 341,189.45313 340.54688,189 336.13479,189 Z" color="#000" display="inline" enable-background="accumulate" opacity="1" overflow="visible" visibility="visible" style="marker:none"/></clipPath><clipPath id="clipPath983" clipPathUnits="userSpaceOnUse"><path id="path985" fill="#46a926" fill-opacity="1" fill-rule="nonzero" stroke="none" stroke-dasharray="none" stroke-miterlimit="4" stroke-opacity="1" stroke-width="2" d="m 325.09646,237 c -2.80769,0 -3.10979,0.28839 -3.09603,3.10176 V 244 v 3.89824 c -0.0138,2.81337 0.28834,3.10176 3.09603,3.10176 h 5.8075 C 333.71166,251 334,250.71165 334,247.89824 V 244 240.10176 C 334,237.28836 333.71165,237 330.90396,237 Z" color="#000" display="inline" enable-background="accumulate" opacity="1" overflow="visible" visibility="visible" style="marker:none"/></clipPath><clipPath id="clipPath959" clipPathUnits="userSpaceOnUse"><path id="path961" fill="#46a926" fill-opacity="1" fill-rule="nonzero" stroke="none" stroke-dasharray="none" stroke-miterlimit="4" stroke-opacity="1" stroke-width="2" d="m 330.1929,133.99999 c -5.61538,0 -6.21958,0.57678 -6.19206,6.20352 v 7.79648 7.79648 c -0.0276,5.62673 0.57668,6.20351 6.19206,6.20351 h 11.615 c 5.6154,0 6.19208,-0.5767 6.19208,-6.20351 v -7.79648 -7.79648 c 0,-5.6268 -0.5767,-6.20352 -6.19208,-6.20352 z" color="#000" display="inline" enable-background="accumulate" opacity="1" overflow="visible" visibility="visible" style="marker:none"/></clipPath><filter id="filter945" width="1.048" height="1.048" x="-.024" y="-.024" color-interpolation-filters="sRGB"><feGaussianBlur id="feGaussianBlur947" stdDeviation="2.24"/></filter><filter id="filter951" width="1.12" height="1.12" x="-.06" y="-.06" color-interpolation-filters="sRGB"><feGaussianBlur id="feGaussianBlur953" stdDeviation="5.6"/></filter><linearGradient id="linearGradient3045"><stop id="stop3047" offset="0" stop-color="#847784" stop-opacity=".996"/><stop id="stop3049" offset="1" stop-color="#695f69" stop-opacity="1"/></linearGradient><linearGradient id="linearGradient4213"><stop id="stop4215" offset="0" stop-color="#b1d7f3" stop-opacity="1"/><stop id="stop4217" offset="1" stop-color="#8fafda" stop-opacity="1"/></linearGradient><linearGradient id="linearGradient5460" osb:paint="gradient"><stop id="stop5462" offset="0" stop-color="#e6e6e6" stop-opacity="1"/><stop id="stop5464" offset="1" stop-color="#fff" stop-opacity="1"/></linearGradient><linearGradient id="linearGradient5476" osb:paint="solid"><stop id="stop5478" offset="0" stop-color="#772953" stop-opacity="1"/></linearGradient><filter id="filter4154" color-interpolation-filters="sRGB"><feComposite id="feComposite4156" in2="SourceGraphic" k1="0" k2="1" k3="0" k4="0" operator="arithmetic" result="composite1"/><feColorMatrix id="feColorMatrix4158" in="composite1" result="colormatrix1" type="saturate" values="0"/><feFlood id="feFlood4160" flood-color="#483B48" result="flood1"/><feBlend id="feBlend4162" in="flood1" in2="colormatrix1" mode="multiply" result="blend1"/><feBlend id="feBlend4164" in2="blend1" mode="screen" result="blend2"/><feColorMatrix id="feColorMatrix4166" in="blend2" result="colormatrix2" type="saturate" values="1"/><feComposite id="feComposite4168" in="colormatrix2" in2="SourceGraphic" operator="in" result="composite2"/></filter><clipPath id="clipPath3062" clipPathUnits="userSpaceOnUse"><rect id="rect3064" width="475.665" height="445.935" x="34.168" y="-194.968" fill="url(#linearGradient3066)" fill-opacity="1" fill-rule="nonzero" stroke="none" stroke-width="40" color="#000" display="inline" enable-background="new" overflow="visible" visibility="visible" style="marker:none"/></clipPath><linearGradient id="linearGradient3066" x1="256" x2="256" y1="50" y2="288" gradientTransform="matrix(1.8580645,0,0,1.8736786,4.4387126,-288.65166)" gradientUnits="userSpaceOnUse" xlink:href="#linearGradient3045"/></defs><metadata id="metadata4"/><g id="layer1" display="inline"><g id="layer7" display="none"><text enable-background="new" style="line-height:0%;-inkscape-font-specification:'DejaVu Sans'" id="context" x="19.007" y="-8.255" fill="#000" fill-opacity="1" stroke="none" display="inline" font-family="DejaVu Sans" font-stretch="normal" font-style="normal" font-variant="normal" font-weight="normal" xml:space="preserve"><tspan id="tspan3933" x="19.007" y="-8.255" font-family="DejaVu Sans" font-size="18" font-stretch="normal" font-style="normal" font-variant="normal" font-weight="normal" style="line-height:1.25;-inkscape-font-specification:'DejaVu Sans'">emblems</tspan></text><text id="icon-name" x="146.488" y="-8.255" fill="#000" fill-opacity="1" stroke="none" display="inline" enable-background="new" font-family="DejaVu Sans" font-stretch="normal" font-style="normal" font-variant="normal" font-weight="bold" text-anchor="start" writing-mode="lr-tb" xml:space="preserve" style="line-height:0%;-inkscape-font-specification:'DejaVu Sans Bold';text-align:start"><tspan id="tspan924" x="146.488" y="-8.255" font-family="DejaVu Sans" font-size="18" font-stretch="normal" font-style="normal" font-variant="normal" font-weight="bold" style="line-height:1.25;-inkscape-font-specification:'DejaVu Sans Bold'">emblem-dropbox-infinite</tspan></text><rect id="rect16x16" width="16" height="16" x="320" y="236" fill="#cdcdcd" fill-opacity="1" fill-rule="nonzero" stroke="none" stroke-width="2" display="inline" enable-background="accumulate" overflow="visible" visibility="visible" style="marker:none"/><rect id="rect24x24" width="24" height="24" x="320" y="188" fill="#cdcdcd" fill-opacity="1" fill-rule="nonzero" stroke="none" stroke-width="2" display="inline" enable-background="accumulate" overflow="visible" visibility="visible" style="marker:none"/><rect id="rect32x32" width="32" height="32" x="320" y="132" fill="#cdcdcd" fill-opacity="1" fill-rule="nonzero" stroke="none" stroke-width="2" display="inline" enable-background="accumulate" overflow="visible" visibility="visible" style="marker:none"/><rect id="rect48x48" width="48" height="48" x="320" y="60" fill="#cdcdcd" fill-opacity="1" fill-rule="nonzero" stroke="none" stroke-width="2" display="inline" enable-background="accumulate" overflow="visible" visibility="visible" style="marker:none"/><rect id="rect3951" width="256" height="256" x="24" y="28" fill="#cdcdcd" fill-opacity="1" fill-rule="nonzero" stroke="none" stroke-width="2" display="inline" enable-background="accumulate" overflow="visible" visibility="visible" style="marker:none"/><rect id="rect841" width="8" height="8" x="320" y="268" fill="#cdcdcd" fill-opacity="1" fill-rule="nonzero" stroke="none" stroke-width="1" display="inline" enable-background="accumulate" overflow="visible" visibility="visible" style="marker:none"/></g><g id="layer2" display="inline"><rect id="rect892" width="15" height="15" x="-252" y="-336" fill="#000" fill-opacity="1" stroke="none" stroke-opacity=".251" stroke-width="1" display="inline" enable-background="new" opacity=".2" rx="7.5" ry="7.5" transform="matrix(0,-1,-1,0,0,0)"/><rect id="rect894" width="42" height="42" x="-106" y="-365" fill="#000" fill-opacity="1" stroke="none" stroke-dasharray="none" stroke-miterlimit="4" stroke-opacity=".251" stroke-width="1.024" display="inline" enable-background="new" opacity=".2" rx="21" ry="21" transform="matrix(0,-1,-1,0,0,0)"/><rect id="rect896" width="22" height="22" x="-212" y="-343" fill="#000" fill-opacity="1" stroke="none" stroke-opacity=".251" stroke-width="1.048" display="inline" enable-background="new" opacity=".2" rx="11" ry="11" transform="matrix(0,-1,-1,0,0,0)"/><rect id="rect876" width="30" height="30" x="-164" y="-351" fill="#000" fill-opacity="1" stroke="none" stroke-opacity=".251" stroke-width="1.034" display="inline" enable-background="new" opacity=".2" rx="15" ry="15" transform="matrix(0,-1,-1,0,0,0)"/><rect id="rect949" width="224" height="224" x="-270" y="-264" fill="#000" fill-opacity="1" stroke="none" stroke-width=".5" display="inline" enable-background="new" filter="url(#filter951)" opacity=".1" rx="112" ry="112" transform="matrix(0,-1,-1,0,0,0)"/><rect id="rect939" width="224" height="224" x="-270" y="-264" fill="#000" fill-opacity="1" stroke="none" stroke-width=".5" display="inline" enable-background="new" filter="url(#filter945)" opacity=".5" rx="112" ry="112" transform="matrix(0,-1,-1,0,0,0)"/><rect id="rect4414" width="15" height="15" x="-251" y="-336" fill="#f1f0e9" fill-opacity="1" stroke="none" stroke-opacity=".251" stroke-width="1" display="inline" enable-background="new" rx="7.5" ry="7.5" transform="matrix(0,-1,-1,0,0,0)"/><rect id="rect917" width="42" height="42" x="-106" y="-365" fill="#000" fill-opacity="1" stroke="none" stroke-opacity=".251" stroke-width="1.05" display="inline" enable-background="new" opacity=".1" rx="21" ry="21" transform="matrix(0,-1,-1,0,0,0)"/><rect id="rect4408" width="42" height="42" x="-105" y="-365" fill="#f1f0e9" fill-opacity="1" stroke="none" stroke-dasharray="none" stroke-miterlimit="4" stroke-opacity=".251" stroke-width="1.024" display="inline" enable-background="new" rx="21" ry="21" transform="matrix(0,-1,-1,0,0,0)"/><rect id="rect4410" width="22" height="22" x="-211" y="-343" fill="#f1f0e9" fill-opacity="1" stroke="none" stroke-opacity=".251" stroke-width="1.048" display="inline" enable-background="new" rx="11" ry="11" transform="matrix(0,-1,-1,0,0,0)"/><rect id="rect4412" width="30" height="30" x="-163" y="-351" fill="#f1f0e9" fill-opacity="1" stroke="none" stroke-opacity=".251" stroke-width="1.034" display="inline" enable-background="new" rx="15" ry="15" transform="matrix(0,-1,-1,0,0,0)"/><rect id="rect4418" width="224" height="224" x="-268" y="-264" fill="#f1f0e9" fill-opacity="1" stroke="none" stroke-width=".5" display="inline" enable-background="new" rx="112" ry="112" transform="matrix(0,-1,-1,0,0,0)"/><rect id="rect4420" width="8" height="8" x="-276" y="-328" fill="#f1f0e9" fill-opacity="1" stroke="none" stroke-opacity=".251" stroke-width="1.143" display="inline" enable-background="new" rx="1" ry="1" transform="matrix(0,-1,-1,0,0,0)"/><path id="path2" fill="gray" stroke="gray" stroke-dasharray="none" stroke-miterlimit="4" stroke-opacity="1" stroke-width="2" d="m 158.01445,95.759486 c -20.25804,0.0188 -37.46658,12.488864 -45.69553,30.326074 l -0.56298,1.2198 -1.30425,0.0938 c -18.709843,1.34178 -33.516321,17.54633 -33.516321,37.22262 0,20.57706 16.101342,37.46659 36.012211,37.46659 h 87.12177 c 14.92847,0 26.99509,-12.66714 26.99509,-28.03661 a 27.755111,27.755111 0 0 0 -16.93643,-25.66269 l -1.2761,-0.54421 -0.0938,-1.39808 c -1.2761,-28.08352 -23.33569,-50.668564 -50.71548,-50.687334 z m 0,9.383074 c 22.2191,0.0187 40.26274,18.31574 41.32302,41.7265 v 0.0938 l 0.47855,7.27187 6.59629,2.78679 a 18.240682,18.240682 0 0 1 11.22214,17.03025 c 0.0938,10.45274 -7.93808,18.65354 -17.55571,18.65354 h -87.13116 c -14.600053,0 -26.619761,-12.39503 -26.619761,-28.07414 -0.0094,-14.99413 11.10955,-26.89186 24.808831,-27.89586 l 6.78395,-0.46915 2.90876,-6.22097 v -0.0376 c 6.83087,-14.82524 20.76472,-24.84635 37.16633,-24.86512 z" color="#000" font-family="sans-serif" font-weight="400" overflow="visible" text-decoration="none" style="line-height:normal;-inkscape-font-specification:sans-serif;text-indent:0;text-align:start;text-decoration-line:none;text-transform:none;marker:none"/><path id="path2-6" fill="gray" stroke="gray" stroke-dasharray="none" stroke-miterlimit="4" stroke-opacity="1" stroke-width=".365" d="m 345.36306,72.439713 c -3.69661,0.0034 -6.83677,2.278925 -8.33836,5.533801 l -0.10273,0.222584 -0.238,0.01712 c -3.41412,0.244844 -6.11595,3.201796 -6.11595,6.79226 0,3.754835 2.93812,6.83678 6.5714,6.83678 h 15.89768 c 2.7241,0 4.92599,-2.311457 4.92599,-5.116029 a 5.0646607,5.0646607 0 0 0 -3.09051,-4.682843 l -0.23286,-0.09931 -0.0172,-0.255116 c -0.23286,-5.124588 -4.25821,-9.245831 -9.25439,-9.249256 z m 0,1.712192 c 4.05447,0.0034 7.34701,3.342195 7.54049,7.614113 v 0.01712 l 0.0873,1.326946 1.20366,0.508524 a 3.3284991,3.3284991 0 0 1 2.04778,3.107624 c 0.0172,1.907382 -1.44852,3.403836 -3.2035,3.403836 h -15.89941 c -2.66418,0 -4.85749,-2.261803 -4.85749,-5.122876 -0.002,-2.736079 2.02723,-4.907137 4.52703,-5.090343 l 1.23792,-0.0856 0.53078,-1.135182 v -0.0068 c 1.24648,-2.70526 3.78908,-4.533879 6.78199,-4.537304 z" color="#000" display="inline" enable-background="new" font-family="sans-serif" font-weight="400" overflow="visible" text-decoration="none" style="line-height:normal;-inkscape-font-specification:sans-serif;text-indent:0;text-align:start;text-decoration-line:none;text-transform:none;marker:none"/><path id="path2-6-7" fill="gray" stroke="gray" stroke-dasharray="none" stroke-miterlimit="4" stroke-opacity="1" stroke-width=".261" d="m 336.78487,140.01889 c -2.64352,0.002 -4.88911,1.62971 -5.96292,3.95733 l -0.0735,0.15918 -0.1702,0.0122 c -2.44151,0.17509 -4.37363,2.28966 -4.37363,4.85728 0,2.68515 2.1011,4.88912 4.69933,4.88912 h 11.36874 c 1.94806,0 3.52267,-1.65297 3.52267,-3.65858 a 3.6218372,3.6218372 0 0 0 -2.21008,-3.3488 l -0.16652,-0.071 -0.0123,-0.18243 c -0.16652,-3.66469 -3.04513,-6.61187 -6.61799,-6.61433 z m 0,1.22442 c 2.89942,0.002 5.25399,2.39007 5.39235,5.445 v 0.0122 l 0.0624,0.94892 0.86076,0.36366 a 2.3802744,2.3802744 0 0 1 1.46441,2.22231 c 0.0123,1.36401 -1.03587,2.43416 -2.29089,2.43416 h -11.36996 c -1.90521,0 -3.47369,-1.61747 -3.47369,-3.66348 -0.002,-1.95662 1.44971,-3.50919 3.23737,-3.6402 l 0.88526,-0.0612 0.37957,-0.81178 v -0.005 c 0.89138,-1.93459 2.70964,-3.24226 4.84993,-3.24472 z" color="#000" display="inline" enable-background="new" font-family="sans-serif" font-weight="400" overflow="visible" text-decoration="none" style="line-height:normal;-inkscape-font-specification:sans-serif;text-indent:0;text-align:start;text-decoration-line:none;text-transform:none;marker:none"/><path id="path2-6-7-5" fill="gray" stroke="gray" stroke-dasharray="none" stroke-miterlimit="4" stroke-opacity="1" stroke-width=".197" d="m 332.59239,194.48928 c -1.99516,0.002 -3.68998,1.23 -4.50043,2.98674 l -0.0555,0.12015 -0.12845,0.009 c -1.8427,0.13215 -3.30094,1.7281 -3.30094,3.66597 0,2.02657 1.58578,3.68999 3.54676,3.68999 h 8.5804 c 1.47027,0 2.65869,-1.24755 2.65869,-2.76126 a 2.7335318,2.7335318 0 0 0 -1.66804,-2.52746 l -0.12567,-0.0536 -0.009,-0.13768 c -0.12567,-2.76588 -2.29826,-4.99022 -4.99483,-4.99207 z m 0,0.92411 c 2.1883,0.002 3.96538,1.80387 4.06981,4.10954 v 0.009 l 0.0471,0.71618 0.64965,0.27447 a 1.7964793,1.7964793 0 0 1 1.10523,1.67726 c 0.009,1.02946 -0.78179,1.83715 -1.72902,1.83715 h -8.58131 c -1.43793,0 -2.62172,-1.22076 -2.62172,-2.76496 -0.002,-1.47674 1.09415,-2.64851 2.44336,-2.74739 l 0.66814,-0.0462 0.28647,-0.61268 v -0.004 c 0.67276,-1.46011 2.04506,-2.44705 3.66043,-2.44891 z" color="#000" display="inline" enable-background="new" font-family="sans-serif" font-weight="400" overflow="visible" text-decoration="none" style="line-height:normal;-inkscape-font-specification:sans-serif;text-indent:0;text-align:start;text-decoration-line:none;text-transform:none;marker:none"/><path id="path2-6-7-5-3" fill="gray" stroke="gray" stroke-dasharray="none" stroke-miterlimit="4" stroke-opacity="1" stroke-width=".132" d="m 328.89738,239.85457 c -1.33838,9.5e-4 -2.47529,0.82511 -3.01895,2.00355 l -0.0372,0.0806 -0.0862,0.007 c -1.23611,0.0887 -2.21432,1.15923 -2.21432,2.45918 0,1.35946 1.06377,2.47531 2.37922,2.47531 h 5.75586 c 0.98628,0 1.78348,-0.83688 1.78348,-1.8523 a 1.8336933,1.8336933 0 0 0 -1.11893,-1.69546 l -0.0843,-0.0359 -0.007,-0.0924 c -0.0843,-1.85539 -1.5417,-3.34751 -3.35061,-3.34876 z m 0,0.61992 c 1.46795,9.5e-4 2.66004,1.21006 2.73009,2.75674 v 0.007 l 0.0316,0.48043 0.4358,0.18411 a 1.2051047,1.2051047 0 0 1 0.7414,1.12513 c 0.007,0.69059 -0.52444,1.23239 -1.15984,1.23239 h -5.75648 c -0.96458,0 -1.75868,-0.8189 -1.75868,-1.85477 -9.5e-4,-0.99062 0.73397,-1.77666 1.63904,-1.84299 l 0.4482,-0.031 0.19216,-0.41098 v -0.003 c 0.4513,-0.97945 1.37186,-1.64151 2.45547,-1.64276 z" color="#000" display="inline" enable-background="new" font-family="sans-serif" font-weight="400" overflow="visible" text-decoration="none" style="line-height:normal;-inkscape-font-specification:sans-serif;text-indent:0;text-align:start;text-decoration-line:none;text-transform:none;marker:none"/><path id="path2-6-7-5-5" fill="gray" stroke="gray" stroke-dasharray="none" stroke-miterlimit="4" stroke-opacity="1" stroke-width=".081" d="m 324.27727,269.72473 c -0.82215,7.7e-4 -1.52055,0.50686 -1.85451,1.23076 l -0.0229,0.0495 -0.0529,0.004 c -0.75932,0.0544 -1.36023,0.71211 -1.36023,1.51066 0,0.8351 0.65346,1.52055 1.46153,1.52055 h 3.53576 c 0.60587,0 1.09558,-0.51409 1.09558,-1.13785 a 1.126418,1.126418 0 0 0 -0.68735,-1.0415 l -0.0518,-0.0221 -0.004,-0.0567 c -0.0518,-1.13974 -0.94705,-2.05633 -2.05824,-2.05711 z m 0,0.38081 c 0.90175,7.6e-4 1.63403,0.74332 1.67706,1.69344 v 0.004 l 0.0194,0.29512 0.26769,0.11311 a 0.74028285,0.74028285 0 0 1 0.45545,0.69115 c 0.004,0.42422 -0.32216,0.75705 -0.71249,0.75705 h -3.53614 c -0.59253,0 -1.08034,-0.50306 -1.08034,-1.13937 -7.6e-4,-0.60853 0.45087,-1.09138 1.00684,-1.13213 l 0.27533,-0.0191 0.11804,-0.25247 v -10e-4 c 0.27724,-0.60168 0.84272,-1.00837 1.50838,-1.00913 z" color="#000" display="inline" enable-background="new" font-family="sans-serif" font-weight="400" overflow="visible" text-decoration="none" style="line-height:normal;-inkscape-font-specification:sans-serif;text-indent:0;text-align:start;text-decoration-line:none;text-transform:none;marker:none"/></g></g></svg>