<svg xmlns="http://www.w3.org/2000/svg" xmlns:svg="http://www.w3.org/2000/svg" id="svg11300" width="400" height="300" display="inline" enable-background="new" version="1.0"><title id="title3004">Suru Icon Theme Template</title><defs id="defs3"><clipPath id="clipPath9430" clipPathUnits="userSpaceOnUse"><path id="path9432" fill="#fff" fill-opacity="1" fill-rule="nonzero" stroke="none" stroke-width="1" d="m 166.0625,-196 h 179.875 C 491.2348,-196 512,-175.28677 512,-30.125 v 148.25 C 512,263.28618 491.2348,284 345.9375,284 H 166.0625 C 20.7652,284 0,263.28618 0,118.125 V -30.125 C 0,-175.28677 20.7652,-196 166.0625,-196 Z" color="#000" display="inline" enable-background="new" overflow="visible" visibility="visible" style="marker:none"/></clipPath><clipPath id="clipPath1082" clipPathUnits="userSpaceOnUse"><path id="path1084" fill="#8c59d9" fill-opacity="1" stroke="none" stroke-dasharray="none" stroke-dashoffset="0" stroke-linecap="round" stroke-linejoin="round" stroke-miterlimit="4" stroke-opacity="1" stroke-width="2" d="M 361.9375,-212 C 507.2348,-212 528,-191.28677 528,-46.125 V 70.125 C 528,215.28618 507.2348,236 361.9375,236 H 214.0625 C 68.7652,236 48,215.28618 48,70.125 V -46.125 C 48,-191.28677 68.7652,-212 214.0625,-212 Z" display="inline" enable-background="new" opacity="1"/></clipPath><clipPath id="clipPath994" clipPathUnits="userSpaceOnUse"><path id="path996" fill="#cdcdcd" fill-opacity="1" fill-rule="nonzero" stroke="none" stroke-dasharray="none" stroke-miterlimit="4" stroke-opacity="1" stroke-width="2" d="m 335.73108,62 c -8.82418,0 -9.77365,0.90635 -9.7304,9.74838 V 84 96.25162 c -0.0433,8.84203 0.90622,9.74838 9.7304,9.74838 h 16.53919 c 8.82418,0 9.7304,-0.90625 9.7304,-9.74838 V 84 71.74838 C 362.00067,62.90625 361.09445,62 352.27027,62 Z" color="#000" display="inline" enable-background="accumulate" overflow="visible" visibility="visible" style="marker:none"/></clipPath><clipPath id="clipPath994-5" clipPathUnits="userSpaceOnUse"><path id="path996-3" fill="#cdcdcd" fill-opacity="1" fill-rule="nonzero" stroke="none" stroke-dasharray="none" stroke-miterlimit="4" stroke-opacity="1" stroke-width="2" d="m 335.73108,62 c -8.82418,0 -9.77365,0.90635 -9.7304,9.74838 V 84 96.25162 c -0.0433,8.84203 0.90622,9.74838 9.7304,9.74838 h 16.53919 c 8.82418,0 9.7304,-0.90625 9.7304,-9.74838 V 84 71.74838 C 362.00067,62.90625 361.09445,62 352.27027,62 Z" color="#000" display="inline" enable-background="accumulate" overflow="visible" visibility="visible" style="marker:none"/></clipPath><clipPath id="clipPath971" clipPathUnits="userSpaceOnUse"><path id="path973" fill="#46a926" fill-opacity="1" fill-rule="nonzero" stroke="none" stroke-dasharray="none" stroke-miterlimit="4" stroke-opacity="1" stroke-width="2" d="m 327.8652,189 c -4.41209,0 -4.88682,0.45318 -4.8652,4.87419 V 200 206.12581 C 322.9783,210.54682 323.45311,211 327.8652,211 h 8.2696 C 340.54689,211 341,210.54688 341,206.12581 V 200 193.87419 C 341,189.45313 340.54688,189 336.13479,189 Z" color="#000" display="inline" enable-background="accumulate" opacity="1" overflow="visible" visibility="visible" style="marker:none"/></clipPath><clipPath id="clipPath983" clipPathUnits="userSpaceOnUse"><path id="path985" fill="#46a926" fill-opacity="1" fill-rule="nonzero" stroke="none" stroke-dasharray="none" stroke-miterlimit="4" stroke-opacity="1" stroke-width="2" d="m 325.09646,237 c -2.80769,0 -3.10979,0.28839 -3.09603,3.10176 V 244 v 3.89824 c -0.0138,2.81337 0.28834,3.10176 3.09603,3.10176 h 5.8075 C 333.71166,251 334,250.71165 334,247.89824 V 244 240.10176 C 334,237.28836 333.71165,237 330.90396,237 Z" color="#000" display="inline" enable-background="accumulate" opacity="1" overflow="visible" visibility="visible" style="marker:none"/></clipPath><clipPath id="clipPath959" clipPathUnits="userSpaceOnUse"><path id="path961" fill="#46a926" fill-opacity="1" fill-rule="nonzero" stroke="none" stroke-dasharray="none" stroke-miterlimit="4" stroke-opacity="1" stroke-width="2" d="m 330.1929,133.99999 c -5.61538,0 -6.21958,0.57678 -6.19206,6.20352 v 7.79648 7.79648 c -0.0276,5.62673 0.57668,6.20351 6.19206,6.20351 h 11.615 c 5.6154,0 6.19208,-0.5767 6.19208,-6.20351 v -7.79648 -7.79648 c 0,-5.6268 -0.5767,-6.20352 -6.19208,-6.20352 z" color="#000" display="inline" enable-background="accumulate" opacity="1" overflow="visible" visibility="visible" style="marker:none"/></clipPath><filter id="filter945" width="1.048" height="1.048" x="-.024" y="-.024" color-interpolation-filters="sRGB"><feGaussianBlur id="feGaussianBlur947" stdDeviation="2.24"/></filter><filter id="filter951" width="1.12" height="1.12" x="-.06" y="-.06" color-interpolation-filters="sRGB"><feGaussianBlur id="feGaussianBlur953" stdDeviation="5.6"/></filter></defs><metadata id="metadata4"/><g id="layer1" display="inline"><g id="layer7" display="none"><text enable-background="new" style="line-height:0%;-inkscape-font-specification:'DejaVu Sans'" id="context" x="19.007" y="-8.255" fill="#000" fill-opacity="1" stroke="none" display="inline" font-family="DejaVu Sans" font-stretch="normal" font-style="normal" font-variant="normal" font-weight="normal" xml:space="preserve"><tspan id="tspan3933" x="19.007" y="-8.255" font-family="DejaVu Sans" font-size="18" font-stretch="normal" font-style="normal" font-variant="normal" font-weight="normal" style="line-height:1.25;-inkscape-font-specification:'DejaVu Sans'">emblems</tspan></text><text id="icon-name" x="146.488" y="-8.255" fill="#000" fill-opacity="1" stroke="none" display="inline" enable-background="new" font-family="DejaVu Sans" font-stretch="normal" font-style="normal" font-variant="normal" font-weight="bold" text-anchor="start" writing-mode="lr-tb" xml:space="preserve" style="line-height:0%;-inkscape-font-specification:'DejaVu Sans Bold';text-align:start"><tspan id="tspan924" x="146.488" y="-8.255" font-family="DejaVu Sans" font-size="18" font-stretch="normal" font-style="normal" font-variant="normal" font-weight="bold" style="line-height:1.25;-inkscape-font-specification:'DejaVu Sans Bold'">emblem-favorite</tspan></text><rect id="rect16x16" width="16" height="16" x="320" y="236" fill="#cdcdcd" fill-opacity="1" fill-rule="nonzero" stroke="none" stroke-width="2" display="inline" enable-background="accumulate" overflow="visible" visibility="visible" style="marker:none"/><rect id="rect24x24" width="24" height="24" x="320" y="188" fill="#cdcdcd" fill-opacity="1" fill-rule="nonzero" stroke="none" stroke-width="2" display="inline" enable-background="accumulate" overflow="visible" visibility="visible" style="marker:none"/><rect id="rect32x32" width="32" height="32" x="320" y="132" fill="#cdcdcd" fill-opacity="1" fill-rule="nonzero" stroke="none" stroke-width="2" display="inline" enable-background="accumulate" overflow="visible" visibility="visible" style="marker:none"/><rect id="rect48x48" width="48" height="48" x="320" y="60" fill="#cdcdcd" fill-opacity="1" fill-rule="nonzero" stroke="none" stroke-width="2" display="inline" enable-background="accumulate" overflow="visible" visibility="visible" style="marker:none"/><rect id="rect3951" width="256" height="256" x="24" y="28" fill="#cdcdcd" fill-opacity="1" fill-rule="nonzero" stroke="none" stroke-width="2" display="inline" enable-background="accumulate" overflow="visible" visibility="visible" style="marker:none"/><rect id="rect841" width="8" height="8" x="320" y="268" fill="#cdcdcd" fill-opacity="1" fill-rule="nonzero" stroke="none" stroke-width="1" display="inline" enable-background="accumulate" overflow="visible" visibility="visible" style="marker:none"/></g><g id="layer2" display="inline"><rect id="rect892" width="15" height="15" x="-252" y="-336" fill="#000" fill-opacity="1" stroke="none" stroke-opacity=".251" stroke-width="1" display="inline" enable-background="new" opacity=".2" rx="7.5" ry="7.5" transform="matrix(0,-1,-1,0,0,0)"/><rect id="rect894" width="42" height="42" x="-106" y="-365" fill="#000" fill-opacity="1" stroke="none" stroke-dasharray="none" stroke-miterlimit="4" stroke-opacity=".251" stroke-width="1.024" display="inline" enable-background="new" opacity=".2" rx="21" ry="21" transform="matrix(0,-1,-1,0,0,0)"/><rect id="rect896" width="22" height="22" x="-212" y="-343" fill="#000" fill-opacity="1" stroke="none" stroke-opacity=".251" stroke-width="1.048" display="inline" enable-background="new" opacity=".2" rx="11" ry="11" transform="matrix(0,-1,-1,0,0,0)"/><rect id="rect876" width="30" height="30" x="-164" y="-351" fill="#000" fill-opacity="1" stroke="none" stroke-opacity=".251" stroke-width="1.034" display="inline" enable-background="new" opacity=".2" rx="15" ry="15" transform="matrix(0,-1,-1,0,0,0)"/><rect id="rect949" width="224" height="224" x="-270" y="-264" fill="#000" fill-opacity="1" stroke="none" stroke-width=".5" display="inline" enable-background="new" filter="url(#filter951)" opacity=".1" rx="112" ry="112" transform="matrix(0,-1,-1,0,0,0)"/><rect id="rect939" width="224" height="224" x="-270" y="-264" fill="#000" fill-opacity="1" stroke="none" stroke-width=".5" display="inline" enable-background="new" filter="url(#filter945)" opacity=".5" rx="112" ry="112" transform="matrix(0,-1,-1,0,0,0)"/><rect id="rect4414" width="15" height="15" x="-251" y="-336" fill="#f76363" fill-opacity="1" stroke="none" stroke-opacity=".251" stroke-width="1" display="inline" enable-background="new" rx="7.5" ry="7.5" transform="matrix(0,-1,-1,0,0,0)"/><rect id="rect917" width="42" height="42" x="-106" y="-365" fill="#000" fill-opacity="1" stroke="none" stroke-opacity=".251" stroke-width="1.05" display="inline" enable-background="new" opacity=".1" rx="21" ry="21" transform="matrix(0,-1,-1,0,0,0)"/><rect id="rect4408" width="42" height="42" x="-105" y="-365" fill="#f76363" fill-opacity="1" stroke="none" stroke-dasharray="none" stroke-miterlimit="4" stroke-opacity=".251" stroke-width="1.024" display="inline" enable-background="new" rx="21" ry="21" transform="matrix(0,-1,-1,0,0,0)"/><rect id="rect4410" width="22" height="22" x="-211" y="-343" fill="#f76363" fill-opacity="1" stroke="none" stroke-opacity=".251" stroke-width="1.048" display="inline" enable-background="new" rx="11" ry="11" transform="matrix(0,-1,-1,0,0,0)"/><rect id="rect4412" width="30" height="30" x="-163" y="-351" fill="#f76363" fill-opacity="1" stroke="none" stroke-opacity=".251" stroke-width="1.034" display="inline" enable-background="new" rx="15" ry="15" transform="matrix(0,-1,-1,0,0,0)"/><rect id="rect4418" width="224" height="224" x="-268" y="-264" fill="#f76363" fill-opacity="1" stroke="none" stroke-width=".5" display="inline" enable-background="new" rx="112" ry="112" transform="matrix(0,-1,-1,0,0,0)"/><rect id="rect4420" width="8" height="8" x="-276" y="-328" fill="#f76363" fill-opacity="1" stroke="none" stroke-opacity=".251" stroke-width="1.143" display="inline" enable-background="new" rx="1" ry="1" transform="matrix(0,-1,-1,0,0,0)"/></g><g id="layer6" display="inline"><rect id="rect875" width="160" height="160" x="76" y="-232" fill="none" stroke="none" stroke-width="32" color="#000" display="inline" enable-background="accumulate" overflow="visible" transform="rotate(90)" visibility="visible" style="marker:none"/><path style="marker:none" id="path866" fill="#fff" fill-opacity="1" stroke-width="9.714" d="M 120.42858,92.5 A 36.438286,36.438286 0 0 0 84,128.12228 c 0,9.16058 2.399424,16.3103 4.857141,22.916 C 100.388,178.33542 122.85714,201.14458 152,228.5 181.14286,201.14458 203.612,178.33542 215.14286,151.03828 217.60058,144.43258 220,137.28286 220,128.11258 A 36.438286,36.438286 0 0 0 152,110.76286 36.409142,36.409142 0 0 0 120.42858,92.5 Z" color="#000" overflow="visible"/><path style="marker:none" id="path866-3" fill="#fff" fill-opacity="1" stroke-width="1.786" d="M 338.19643,72.713201 A 6.6982142,6.6982142 0 0 0 331.5,79.261413 c 0,1.683931 0.44107,2.998217 0.89286,4.2125 2.11964,5.017857 6.25,9.210717 11.60714,14.239287 5.35714,-5.02857 9.4875,-9.22143 11.60714,-14.239287 C 356.05893,82.25963 356.5,80.945344 356.5,79.25963 A 6.6982142,6.6982142 0 0 0 344,76.070344 6.6928569,6.6928569 0 0 0 338.19643,72.713201 Z" color="#000" display="inline" enable-background="new" overflow="visible"/><path style="marker:none" id="path866-3-6" fill="#fff" fill-opacity="1" stroke-width="1.274" d="m 331.85959,140.06687 a 4.7786741,4.7786741 0 0 0 -4.7774,4.67165 c 0,1.20136 0.31466,2.139 0.63698,3.00531 1.51221,3.57986 4.45891,6.57115 8.28083,10.15865 3.82192,-3.5875 6.76862,-6.57879 8.28083,-10.15865 0.32232,-0.86631 0.63698,-1.80395 0.63698,-3.00658 A 4.7786741,4.7786741 0 0 0 336,142.46193 a 4.774852,4.774852 0 0 0 -4.14041,-2.39506 z" color="#000" display="inline" enable-background="new" overflow="visible"/><path style="marker:none" id="path866-3-6-7" fill="#fff" fill-opacity="1" stroke-width=".963" d="m 328.87136,194.22859 a 3.6109427,3.6109427 0 0 0 -3.60999,3.53008 c 0,0.90778 0.23778,1.6163 0.48133,2.27092 1.14268,2.70507 3.36932,4.9654 6.2573,7.67625 2.88798,-2.71085 5.11462,-4.97118 6.2573,-7.67625 0.24355,-0.65462 0.48133,-1.36314 0.48133,-2.27188 A 3.6109427,3.6109427 0 0 0 332,196.03839 a 3.6080545,3.6080545 0 0 0 -3.12864,-1.8098 z" color="#000" display="inline" enable-background="new" overflow="visible"/><path style="marker:none" id="path866-3-6-7-5" fill="#fff" fill-opacity="1" stroke-width=".633" d="m 326.44129,239.52121 a 2.3760772,2.3760772 0 0 0 -2.37545,2.32287 c 0,0.59735 0.15646,1.06356 0.31672,1.49431 0.75191,1.78 2.21709,3.26735 4.11744,5.05115 1.90035,-1.7838 3.36553,-3.27115 4.11744,-5.05115 0.16026,-0.43075 0.31672,-0.89696 0.31672,-1.49494 A 2.3760772,2.3760772 0 0 0 328.5,240.7121 a 2.3741767,2.3741767 0 0 0 -2.05871,-1.19089 z" color="#000" display="inline" enable-background="new" overflow="visible"/><path style="marker:none" id="path866-3-6-7-5-3" fill="#fff" fill-opacity="1" stroke-width=".41" d="m 322.60634,269.32606 a 1.5368356,1.5368356 0 0 0 -1.53642,1.50242 c 0,0.38636 0.10121,0.68791 0.20485,0.96652 0.48633,1.15129 1.434,2.1133 2.66314,3.26705 1.22914,-1.15375 2.17681,-2.11576 2.66314,-3.26705 0.10365,-0.27861 0.20485,-0.58016 0.20485,-0.96693 a 1.5368356,1.5368356 0 0 0 -2.86799,-0.73174 1.5356064,1.5356064 0 0 0 -1.33157,-0.77027 z" color="#000" display="inline" enable-background="new" overflow="visible"/></g></g></svg>