<svg xmlns="http://www.w3.org/2000/svg" xmlns:svg="http://www.w3.org/2000/svg" xmlns:xlink="http://www.w3.org/1999/xlink" id="svg11300" width="400" height="300" display="inline" enable-background="new" version="1.0"><title id="title3004">Suru Icon Theme Template</title><defs id="defs3"><linearGradient id="linearGradient928"><stop id="stop924" offset="0" stop-color="gray" stop-opacity="1"/><stop id="stop926" offset="1" stop-color="#999" stop-opacity="1"/></linearGradient><clipPath id="clipPath9430" clipPathUnits="userSpaceOnUse"><path id="path9432" fill="#fff" fill-opacity="1" fill-rule="nonzero" stroke="none" stroke-width="1" d="m 166.0625,-196 h 179.875 C 491.2348,-196 512,-175.28677 512,-30.125 v 148.25 C 512,263.28618 491.2348,284 345.9375,284 H 166.0625 C 20.7652,284 0,263.28618 0,118.125 V -30.125 C 0,-175.28677 20.7652,-196 166.0625,-196 Z" color="#000" display="inline" enable-background="new" overflow="visible" visibility="visible" style="marker:none"/></clipPath><clipPath id="clipPath1082" clipPathUnits="userSpaceOnUse"><path id="path1084" fill="#8c59d9" fill-opacity="1" stroke="none" stroke-dasharray="none" stroke-dashoffset="0" stroke-linecap="round" stroke-linejoin="round" stroke-miterlimit="4" stroke-opacity="1" stroke-width="2" d="M 361.9375,-212 C 507.2348,-212 528,-191.28677 528,-46.125 V 70.125 C 528,215.28618 507.2348,236 361.9375,236 H 214.0625 C 68.7652,236 48,215.28618 48,70.125 V -46.125 C 48,-191.28677 68.7652,-212 214.0625,-212 Z" display="inline" enable-background="new" opacity="1"/></clipPath><filter id="filter4346" width="1.026" height="1.022" x="-.013" y="-.011" color-interpolation-filters="sRGB"><feGaussianBlur id="feGaussianBlur4348" stdDeviation="2.12"/></filter><linearGradient id="linearGradient4358" x1="88" x2="488" y1="88" y2="488" gradientUnits="userSpaceOnUse" xlink:href="#linearGradient4360"/><linearGradient id="linearGradient4360"><stop id="stop4362" offset="0" stop-color="#000" stop-opacity=".588"/><stop id="stop4364" offset=".88" stop-color="#000" stop-opacity="0"/><stop id="stop4366" offset="1" stop-color="#000" stop-opacity="1"/></linearGradient><filter id="filter4380" width="1.106" height="1.088" x="-.053" y="-.044" color-interpolation-filters="sRGB"><feGaussianBlur id="feGaussianBlur4382" stdDeviation="8.48"/></filter><linearGradient id="linearGradient4226" x1="529.655" x2="-35.31" y1="295.638" y2="295.638" gradientTransform="matrix(0,-0.453125,-0.45311204,0,277.957,268)" gradientUnits="userSpaceOnUse" xlink:href="#linearGradient4338-3"/><linearGradient id="linearGradient951" x1="494.345" x2="0" y1="313.287" y2="313.287" gradientTransform="matrix(0,-0.11328125,-0.11327801,0,379.48855,112)" gradientUnits="userSpaceOnUse" xlink:href="#linearGradient4338-3"/><clipPath id="clipPath994" clipPathUnits="userSpaceOnUse"><path id="path996" fill="#cdcdcd" fill-opacity="1" fill-rule="nonzero" stroke="none" stroke-dasharray="none" stroke-miterlimit="4" stroke-opacity="1" stroke-width="2" d="m 335.73108,62 c -8.82418,0 -9.77365,0.90635 -9.7304,9.74838 V 84 96.25162 c -0.0433,8.84203 0.90622,9.74838 9.7304,9.74838 h 16.53919 c 8.82418,0 9.7304,-0.90625 9.7304,-9.74838 V 84 71.74838 C 362.00067,62.90625 361.09445,62 352.27027,62 Z" color="#000" display="inline" enable-background="accumulate" overflow="visible" visibility="visible" style="marker:none"/></clipPath><linearGradient id="linearGradient916" x1="512" x2="0" y1="313.292" y2="313.292" gradientTransform="matrix(0,-0.05664062,-0.05663901,0,349.74456,214)" gradientUnits="userSpaceOnUse" xlink:href="#linearGradient4338-3"/><linearGradient id="linearGradient920" x1="469.123" x2="25.222" y1="320.848" y2="320.848" gradientTransform="matrix(0,-0.03604403,-0.03604301,0,339.56432,252.90909)" gradientUnits="userSpaceOnUse" xlink:href="#linearGradient4338-3"/><linearGradient id="linearGradient924" x1="524.611" x2="-30.266" y1="320.848" y2="320.848" gradientTransform="matrix(0,-0.07208805,-0.07208601,0,359.12864,165.81816)" gradientUnits="userSpaceOnUse" xlink:href="#linearGradient4338-3"/><linearGradient id="linearGradient1004" x1="344" x2="344" y1="62" y2="106" gradientUnits="userSpaceOnUse" xlink:href="#linearGradient927"/><linearGradient id="linearGradient927"><stop id="stop923" offset="0" stop-color="#fff" stop-opacity="1"/><stop id="stop933" offset=".125" stop-color="#fff" stop-opacity=".098"/><stop id="stop931" offset=".925" stop-color="#fff" stop-opacity=".098"/><stop id="stop925" offset="1" stop-color="#fff" stop-opacity=".498"/></linearGradient><clipPath id="clipPath994-5" clipPathUnits="userSpaceOnUse"><path id="path996-3" fill="#cdcdcd" fill-opacity="1" fill-rule="nonzero" stroke="none" stroke-dasharray="none" stroke-miterlimit="4" stroke-opacity="1" stroke-width="2" d="m 335.73108,62 c -8.82418,0 -9.77365,0.90635 -9.7304,9.74838 V 84 96.25162 c -0.0433,8.84203 0.90622,9.74838 9.7304,9.74838 h 16.53919 c 8.82418,0 9.7304,-0.90625 9.7304,-9.74838 V 84 71.74838 C 362.00067,62.90625 361.09445,62 352.27027,62 Z" color="#000" display="inline" enable-background="accumulate" overflow="visible" visibility="visible" style="marker:none"/></clipPath><linearGradient id="linearGradient981" x1="332" x2="332" y1="189" y2="211" gradientUnits="userSpaceOnUse" xlink:href="#linearGradient927"/><clipPath id="clipPath971" clipPathUnits="userSpaceOnUse"><path id="path973" fill="#46a926" fill-opacity="1" fill-rule="nonzero" stroke="none" stroke-dasharray="none" stroke-miterlimit="4" stroke-opacity="1" stroke-width="2" d="m 327.8652,189 c -4.41209,0 -4.88682,0.45318 -4.8652,4.87419 V 200 206.12581 C 322.9783,210.54682 323.45311,211 327.8652,211 h 8.2696 C 340.54689,211 341,210.54688 341,206.12581 V 200 193.87419 C 341,189.45313 340.54688,189 336.13479,189 Z" color="#000" display="inline" enable-background="accumulate" opacity="1" overflow="visible" visibility="visible" style="marker:none"/></clipPath><linearGradient id="linearGradient993" x1="328" x2="328" y1="237" y2="251" gradientUnits="userSpaceOnUse" xlink:href="#linearGradient927"/><clipPath id="clipPath983" clipPathUnits="userSpaceOnUse"><path id="path985" fill="#46a926" fill-opacity="1" fill-rule="nonzero" stroke="none" stroke-dasharray="none" stroke-miterlimit="4" stroke-opacity="1" stroke-width="2" d="m 325.09646,237 c -2.80769,0 -3.10979,0.28839 -3.09603,3.10176 V 244 v 3.89824 c -0.0138,2.81337 0.28834,3.10176 3.09603,3.10176 h 5.8075 C 333.71166,251 334,250.71165 334,247.89824 V 244 240.10176 C 334,237.28836 333.71165,237 330.90396,237 Z" color="#000" display="inline" enable-background="accumulate" opacity="1" overflow="visible" visibility="visible" style="marker:none"/></clipPath><linearGradient id="linearGradient969" x1="336" x2="336" y1="134" y2="162" gradientUnits="userSpaceOnUse" xlink:href="#linearGradient927"/><clipPath id="clipPath959" clipPathUnits="userSpaceOnUse"><path id="path961" fill="#46a926" fill-opacity="1" fill-rule="nonzero" stroke="none" stroke-dasharray="none" stroke-miterlimit="4" stroke-opacity="1" stroke-width="2" d="m 330.1929,133.99999 c -5.61538,0 -6.21958,0.57678 -6.19206,6.20352 v 7.79648 7.79648 c -0.0276,5.62673 0.57668,6.20351 6.19206,6.20351 h 11.615 c 5.6154,0 6.19208,-0.5767 6.19208,-6.20351 v -7.79648 -7.79648 c 0,-5.6268 -0.5767,-6.20352 -6.19208,-6.20352 z" color="#000" display="inline" enable-background="accumulate" opacity="1" overflow="visible" visibility="visible" style="marker:none"/></clipPath><linearGradient id="linearGradient4338-3"><stop id="stop4342-7" offset="0" stop-color="#999" stop-opacity="1"/><stop id="stop932" offset=".613" stop-color="#b7b7b7" stop-opacity="1"/><stop id="stop4340-0" offset="1" stop-color="#dbdbdb" stop-opacity="1"/></linearGradient><linearGradient id="linearGradient1008" x1="152.006" x2="152.006" y1="112.013" y2="239.995" gradientTransform="matrix(1.0011449,0,0,1.0011449,2.2140235,-1.4825001)" gradientUnits="userSpaceOnUse" xlink:href="#linearGradient928"/><linearGradient id="linearGradient954" x1="152.006" x2="152.006" y1="112.013" y2="239.995" gradientTransform="matrix(1.0011449,0,0,1.0011449,2.2140229,-1.4825031)" gradientUnits="userSpaceOnUse" xlink:href="#linearGradient928"/><linearGradient id="linearGradient1008-3" x1="152.006" x2="152.006" y1="112.013" y2="239.995" gradientTransform="matrix(1.0011318,0,0,1.0011318,23.847675,-17.893129)" gradientUnits="userSpaceOnUse" xlink:href="#linearGradient928"/><linearGradient id="linearGradient954-5" x1="152.006" x2="152.006" y1="112.013" y2="239.995" gradientTransform="matrix(1.0011318,0,0,1.0011318,23.847674,-17.893129)" gradientUnits="userSpaceOnUse" xlink:href="#linearGradient928"/><linearGradient id="linearGradient1008-9" x1="152.006" x2="152.006" y1="112.013" y2="239.995" gradientTransform="matrix(0.04130685,0,0,0.04130685,473.79544,-120.10214)" gradientUnits="userSpaceOnUse" xlink:href="#linearGradient928"/></defs><metadata id="metadata4"/><g id="layer1" display="inline"><g id="layer7" display="none"><text enable-background="new" style="line-height:0%;-inkscape-font-specification:'DejaVu Sans'" id="context" x="19.007" y="-8.255" fill="#000" fill-opacity="1" stroke="none" display="inline" font-family="DejaVu Sans" font-stretch="normal" font-style="normal" font-variant="normal" font-weight="normal" xml:space="preserve"><tspan id="tspan3933" x="19.007" y="-8.255" font-family="DejaVu Sans" font-size="18" font-stretch="normal" font-style="normal" font-variant="normal" font-weight="normal" style="line-height:1.25;-inkscape-font-specification:'DejaVu Sans'">devices</tspan></text><text id="icon-name" x="146.488" y="-8.255" fill="#000" fill-opacity="1" stroke="none" display="inline" enable-background="new" font-family="DejaVu Sans" font-stretch="normal" font-style="normal" font-variant="normal" font-weight="bold" text-anchor="start" writing-mode="lr-tb" xml:space="preserve" style="line-height:0%;-inkscape-font-specification:'DejaVu Sans Bold';text-align:start"><tspan id="tspan924" x="146.488" y="-8.255" font-family="DejaVu Sans" font-size="18" font-stretch="normal" font-style="normal" font-variant="normal" font-weight="bold" style="line-height:1.25;-inkscape-font-specification:'DejaVu Sans Bold'">drive-harddisk-solidstate</tspan></text><rect id="rect16x16" width="16" height="16" x="320" y="236" fill="#cdcdcd" fill-opacity="1" fill-rule="nonzero" stroke="none" stroke-width="2" display="inline" enable-background="accumulate" overflow="visible" visibility="visible" style="marker:none"/><rect id="rect24x24" width="24" height="24" x="320" y="188" fill="#cdcdcd" fill-opacity="1" fill-rule="nonzero" stroke="none" stroke-width="2" display="inline" enable-background="accumulate" overflow="visible" visibility="visible" style="marker:none"/><rect id="rect32x32" width="32" height="32" x="320" y="132" fill="#cdcdcd" fill-opacity="1" fill-rule="nonzero" stroke="none" stroke-width="2" display="inline" enable-background="accumulate" overflow="visible" visibility="visible" style="marker:none"/><rect id="rect48x48" width="48" height="48" x="320" y="60" fill="#cdcdcd" fill-opacity="1" fill-rule="nonzero" stroke="none" stroke-width="2" display="inline" enable-background="accumulate" overflow="visible" visibility="visible" style="marker:none"/><rect id="rect3951" width="256" height="256" x="24" y="28" fill="#cdcdcd" fill-opacity="1" fill-rule="nonzero" stroke="none" stroke-width="2" display="inline" enable-background="accumulate" overflow="visible" visibility="visible" style="marker:none"/></g><g id="layer4" display="inline"><path id="path1020" fill="#000" fill-opacity="1" fill-rule="nonzero" stroke="none" stroke-dasharray="none" stroke-dashoffset="0" stroke-linecap="butt" stroke-linejoin="miter" stroke-miterlimit="4" stroke-opacity="1" stroke-width="2" d="m 335.73047,62 c -2.22316,0 -3.97368,0.05118 -5.41406,0.292969 -1.44039,0.241784 -2.61905,0.695299 -3.48243,1.55664 -0.86337,0.861342 -1.31906,2.039471 -1.55859,3.480469 -0.23953,1.440999 -0.28629,3.195341 -0.27539,5.423828 V 85 97.251953 c -0.0108,2.225063 0.0361,3.978517 0.27539,5.417967 0.23953,1.441 0.69522,2.61913 1.55859,3.48047 0.86338,0.86134 2.04204,1.31486 3.48243,1.55664 1.44039,0.24179 3.1909,0.29297 5.41406,0.29297 h 16.53906 c 2.22316,0 3.97276,-0.0511 5.41016,-0.29297 1.4374,-0.24189 2.61246,-0.69694 3.47265,-1.55859 0.8602,-0.86165 1.3132,-2.03894 1.55469,-3.47852 C 362.94852,101.23035 363,99.479567 363,97.251953 V 85 72.748047 c 0,-2.227614 -0.0515,-3.978392 -0.29297,-5.417969 -0.24149,-1.439576 -0.69449,-2.616863 -1.55469,-3.478516 -0.86019,-0.861652 -2.03525,-1.316704 -3.47265,-1.558593 C 356.24229,62.051079 354.49269,62 352.26953,62 Z" baseline-shift="baseline" clip-rule="nonzero" color="#000" color-interpolation="sRGB" color-interpolation-filters="linearRGB" color-rendering="auto" direction="ltr" display="inline" dominant-baseline="auto" enable-background="accumulate" font-family="sans-serif" font-size="medium" font-stretch="normal" font-style="normal" font-variant="normal" font-weight="normal" image-rendering="auto" letter-spacing="normal" opacity=".1" overflow="visible" shape-rendering="auto" text-anchor="start" text-decoration="none" text-rendering="auto" vector-effect="none" visibility="visible" word-spacing="normal" writing-mode="lr-tb" style="line-height:normal;font-variant-ligatures:normal;font-variant-position:normal;font-variant-caps:normal;font-variant-numeric:normal;font-variant-alternates:normal;font-feature-settings:normal;text-indent:0;text-align:start;text-decoration-line:none;text-decoration-style:solid;text-decoration-color:#000;text-transform:none;text-orientation:mixed;white-space:normal;shape-padding:0;isolation:auto;mix-blend-mode:normal;solid-color:#000;solid-opacity:1;marker:none"/><path id="rect4158-9" fill="#000" fill-opacity="1" fill-rule="nonzero" stroke="none" stroke-width="2" d="M 189.84323,74 C 119.24979,74 111.65402,81.250835 112,151.98706 V 298 444.01294 C 111.65402,514.74917 119.24979,522 189.84323,522 H 386.15677 C 456.75021,522 462.16345,514.72616 464,444.01294 V 298 151.98706 C 464,81.249993 456.75021,74 386.15677,74 Z" color="#000" display="inline" enable-background="accumulate" filter="url(#filter4346)" opacity=".1" overflow="visible" transform="matrix(0.5,0,0,0.5,8,8)" visibility="visible" style="marker:none"/><path id="path4350" fill="url(#linearGradient4358)" fill-opacity="1" fill-rule="nonzero" stroke="none" stroke-width="2" d="M 189.84323,74 C 119.24979,74 111.65402,81.250835 112,151.98706 V 298 444.01294 C 111.65402,514.74917 119.24979,522 189.84323,522 H 386.15677 C 456.75021,522 464,514.75001 464,444.01294 V 298 151.98706 C 464,81.249993 456.75021,74 386.15677,74 Z" color="#000" display="inline" enable-background="accumulate" filter="url(#filter4380)" opacity=".3" overflow="visible" transform="matrix(0.5,0,0,0.5,8,8)" visibility="visible" style="marker:none"/></g><g id="layer2" display="inline"><path id="path949" fill="url(#linearGradient951)" fill-opacity="1" fill-rule="nonzero" stroke="none" stroke-width="1" d="m 352.26816,61.5 c 2.21461,0 3.94722,0.05465 5.33203,0.287109 1.38481,0.232456 2.44551,0.654338 3.21094,1.417969 0.76543,0.763631 1.1878,1.822342 1.41797,3.207031 0.23017,1.38469 0.28039,3.118394 0.26953,5.337891 V 84 96.251953 c 0.0108,2.218334 -0.0394,3.951757 -0.26953,5.335937 -0.23017,1.38469 -0.65253,2.4434 -1.41797,3.20703 -0.76544,0.76363 -1.82612,1.18551 -3.21094,1.41797 -1.38481,0.23246 -3.11742,0.28711 -5.33203,0.28711 H 335.7291 c -2.2146,0 -3.94454,-0.0546 -5.32617,-0.28711 -1.38163,-0.2325 -2.44064,-0.65418 -3.20313,-1.41797 -0.76249,-0.76378 -1.18385,-1.82305 -1.41601,-3.20703 -0.23217,-1.38398 -0.28516,-3.116864 -0.28516,-5.335937 V 84 71.748047 c 0,-2.219073 0.053,-3.951957 0.28516,-5.335938 0.23216,-1.383981 0.65352,-2.443248 1.41601,-3.207031 0.76249,-0.763783 1.8215,-1.185464 3.20313,-1.417969 C 331.78456,61.554605 333.5145,61.5 335.7291,61.5 Z" color="#000" display="inline" enable-background="accumulate" overflow="visible" visibility="visible" style="marker:none"/><path id="rect4158" fill="url(#linearGradient4226)" fill-opacity="1" fill-rule="nonzero" stroke="none" stroke-width="1" d="m 201.07298,44 c 35.29673,0 39.09461,3.625418 38.92162,38.99353 V 156 229.00647 C 240.16759,264.37459 236.36971,268 201.07298,268 H 102.91622 C 67.619504,268 63.994604,264.375 63.994604,229.00647 V 156 82.99353 C 63.994604,47.624997 67.619504,44 102.91622,44 Z" color="#000" display="inline" enable-background="accumulate" overflow="visible" visibility="visible" style="marker:none"/><path id="path918" fill="url(#linearGradient920)" fill-opacity="1" fill-rule="nonzero" stroke="none" stroke-width="1" d="m 330.90385,236.5 c 0.71048,0 1.27344,0.0154 1.75195,0.0957 0.47851,0.0803 0.89671,0.23728 1.20703,0.54688 0.31032,0.30959 0.46726,0.7261 0.54688,1.20508 0.0796,0.47897 0.0933,1.04352 0.0898,1.75586 V 244 v 3.89844 c 0.003,0.71121 -0.0103,1.27546 -0.0898,1.7539 -0.0796,0.47898 -0.23655,0.89549 -0.54688,1.20508 -0.31033,0.3096 -0.72851,0.46655 -1.20703,0.54688 -0.47852,0.0803 -1.04147,0.0957 -1.75195,0.0957 h -5.8086 c -0.71048,0 -1.27236,-0.0153 -1.75,-0.0957 -0.47763,-0.0804 -0.89584,-0.23713 -1.20508,-0.54688 -0.30921,-0.30975 -0.46469,-0.72681 -0.54492,-1.20508 -0.0802,-0.47826 -0.0957,-1.04201 -0.0957,-1.7539 V 244 240.10156 c 0,-0.71189 0.0155,-1.27564 0.0957,-1.7539 0.0802,-0.47827 0.2357,-0.89533 0.54492,-1.20508 0.30924,-0.30975 0.72745,-0.4665 1.20508,-0.54688 0.47764,-0.0804 1.03952,-0.0957 1.75,-0.0957 z" color="#000" display="inline" enable-background="accumulate" overflow="visible" visibility="visible" style="marker:none"/><path id="path914" fill="url(#linearGradient916)" fill-opacity="1" fill-rule="nonzero" stroke="none" stroke-width="1" d="m 336.13403,188.5 c 1.11158,0 1.98683,0.0256 2.70703,0.14648 0.72019,0.1209 1.3105,0.34863 1.74218,0.7793 0.43169,0.43067 0.65954,1.01974 0.7793,1.74024 0.11977,0.72049 0.14217,1.59669 0.13672,2.71093 V 200 v 6.125 c 0.005,1.1131 -0.017,1.989 -0.13672,2.70898 -0.11976,0.72051 -0.3476,1.30957 -0.7793,1.74024 -0.43169,0.43067 -1.02199,0.6584 -1.74218,0.7793 -0.7202,0.12089 -1.59545,0.14648 -2.70703,0.14648 h -8.26954 c -1.11158,0 -1.98637,-0.0255 -2.70507,-0.14648 -0.7187,-0.12095 -1.30623,-0.34848 -1.73633,-0.7793 -0.4301,-0.43083 -0.6566,-1.01849 -0.77735,-1.73828 -0.12074,-0.71979 -0.14648,-1.59713 -0.14648,-2.71094 V 200 193.875 c 0,-1.11381 0.0257,-1.99115 0.14648,-2.71094 0.12075,-0.71979 0.34725,-1.30745 0.77735,-1.73828 0.4301,-0.43082 1.01763,-0.65835 1.73633,-0.7793 0.7187,-0.12094 1.59349,-0.14648 2.70507,-0.14648 z" color="#000" display="inline" enable-background="accumulate" overflow="visible" visibility="visible" style="marker:none"/><path id="path922" fill="url(#linearGradient924)" fill-opacity="1" fill-rule="nonzero" stroke="none" stroke-width="1" d="m 341.80573,133.5 c 1.41241,0 2.52238,0.0342 3.42383,0.18555 0.90145,0.15132 1.61987,0.43164 2.14258,0.95312 0.5227,0.52148 0.80325,1.23898 0.95312,2.14063 0.14988,0.90164 0.18075,2.0101 0.17383,3.42578 V 148 v 7.79688 c 0.007,1.41452 -0.024,2.52269 -0.17383,3.42382 -0.14987,0.90165 -0.43041,1.61915 -0.95312,2.14063 -0.52272,0.52148 -1.24112,0.8018 -2.14258,0.95312 -0.90146,0.15132 -2.01142,0.18555 -3.42383,0.18555 H 330.1905 c -1.41241,0 -2.51847,-0.0342 -3.41797,-0.18555 -0.8995,-0.15137 -1.61597,-0.43149 -2.13672,-0.95312 -0.52075,-0.52163 -0.80004,-1.23774 -0.95117,-2.13867 -0.15113,-0.90094 -0.18555,-2.01055 -0.18555,-3.42578 V 148 140.20312 c 0,-1.41524 0.0344,-2.52484 0.18555,-3.42578 0.15113,-0.90093 0.43042,-1.61703 0.95117,-2.13867 0.52075,-0.52163 1.23722,-0.80175 2.13672,-0.95312 0.8995,-0.15137 2.00556,-0.18555 3.41797,-0.18555 z" color="#000" display="inline" enable-background="accumulate" overflow="visible" visibility="visible" style="marker:none"/></g><g id="layer6" display="inline"><text font-family="Ubuntu" style="line-height:1.25;-inkscape-font-specification:'Ubuntu Light'" id="text927-5" x="87.804" y="239.649" fill="#fff" fill-opacity="1" stroke="#fff" stroke-dasharray="none" stroke-miterlimit="4" stroke-opacity="1" stroke-width="3" display="inline" enable-background="new" font-size="76.074" font-stretch="normal" font-style="normal" font-variant="normal" font-weight="300" letter-spacing="0" opacity=".2" transform="scale(1.0012075,0.99879396)" word-spacing="0" xml:space="preserve"><tspan stroke-opacity="1" style="-inkscape-font-specification:'Ubuntu Light'" id="tspan925-62" x="87.804" y="239.649" fill="#fff" fill-opacity="1" stroke="#fff" stroke-dasharray="none" stroke-miterlimit="4" stroke-width="3" font-family="Ubuntu" font-stretch="normal" font-style="normal" font-variant="normal" font-weight="300">SSD</tspan></text><text id="text927" x="87.804" y="237.646" fill="url(#linearGradient1008)" fill-opacity="1" stroke="url(#linearGradient954)" stroke-dasharray="none" stroke-miterlimit="4" stroke-opacity="1" stroke-width="3" font-family="Ubuntu" font-size="76.074" font-stretch="normal" font-style="normal" font-variant="normal" font-weight="300" letter-spacing="0" transform="scale(1.0012075,0.99879396)" word-spacing="0" xml:space="preserve" style="line-height:1.25;-inkscape-font-specification:'Ubuntu Light'"><tspan stroke-opacity="1" style="-inkscape-font-specification:'Ubuntu Light'" id="tspan925" x="87.804" y="237.646" fill="url(#linearGradient1008)" fill-opacity="1" stroke="url(#linearGradient954)" stroke-dasharray="none" stroke-miterlimit="4" stroke-width="3" font-family="Ubuntu" font-stretch="normal" font-style="normal" font-variant="normal" font-weight="300">SSD</tspan></text><text font-family="Ubuntu" style="line-height:1.25;-inkscape-font-specification:Ubuntu" id="text927-5-0" x="330.092" y="101.892" fill="#fff" fill-opacity="1" stroke="none" stroke-dasharray="none" stroke-miterlimit="4" stroke-opacity="1" stroke-width=".608" display="inline" enable-background="new" font-size="15.416" font-stretch="normal" font-style="normal" font-variant="normal" font-weight="normal" letter-spacing="0" opacity=".2" transform="scale(1.0012075,0.99879396)" word-spacing="0" xml:space="preserve"><tspan stroke-opacity="1" style="-inkscape-font-specification:Ubuntu" id="tspan925-62-9" x="330.092" y="101.892" fill="#fff" fill-opacity="1" stroke="none" stroke-dasharray="none" stroke-miterlimit="4" stroke-width=".608" font-family="Ubuntu" font-stretch="normal" font-style="normal" font-variant="normal" font-weight="normal">SSD</tspan></text><text enable-background="new" style="line-height:1.25;-inkscape-font-specification:Ubuntu" id="text927-3" x="330.092" y="100.891" fill="gray" fill-opacity="1" stroke="none" stroke-dasharray="none" stroke-miterlimit="4" stroke-opacity="1" stroke-width=".608" display="inline" font-family="Ubuntu" font-size="15.416" font-stretch="normal" font-style="normal" font-variant="normal" font-weight="normal" letter-spacing="0" transform="scale(1.0012075,0.99879396)" word-spacing="0" xml:space="preserve"><tspan stroke-opacity="1" style="-inkscape-font-specification:Ubuntu" id="tspan925-6" x="330.092" y="100.891" fill="gray" fill-opacity="1" stroke="none" stroke-dasharray="none" stroke-miterlimit="4" stroke-width=".608" font-family="Ubuntu" font-stretch="normal" font-style="normal" font-variant="normal" font-weight="normal">SSD</tspan></text><text font-family="Ubuntu" style="line-height:1.25;-inkscape-font-specification:Ubuntu" id="text927-5-0-3" x="326.253" y="160.033" fill="#fff" fill-opacity="1" stroke="none" stroke-dasharray="none" stroke-miterlimit="4" stroke-opacity="1" stroke-width=".421" display="inline" enable-background="new" font-size="10.673" font-stretch="normal" font-style="normal" font-variant="normal" font-weight="normal" letter-spacing="0" opacity=".2" transform="scale(1.0012075,0.99879396)" word-spacing="0" xml:space="preserve"><tspan stroke-opacity="1" style="-inkscape-font-specification:Ubuntu" id="tspan925-62-9-6" x="326.253" y="160.033" fill="#fff" fill-opacity="1" stroke="none" stroke-dasharray="none" stroke-miterlimit="4" stroke-width=".421" font-family="Ubuntu" font-stretch="normal" font-style="normal" font-variant="normal" font-weight="normal">SSD</tspan></text><text enable-background="new" style="line-height:1.25;-inkscape-font-specification:Ubuntu" id="text927-3-7" x="326.253" y="159.032" fill="gray" fill-opacity="1" stroke="none" stroke-dasharray="none" stroke-miterlimit="4" stroke-opacity="1" stroke-width=".421" display="inline" font-family="Ubuntu" font-size="10.673" font-stretch="normal" font-style="normal" font-variant="normal" font-weight="normal" letter-spacing="0" transform="scale(1.0012075,0.99879396)" word-spacing="0" xml:space="preserve"><tspan stroke-opacity="1" style="-inkscape-font-specification:Ubuntu" id="tspan925-6-5" x="326.253" y="159.032" fill="gray" fill-opacity="1" stroke="none" stroke-dasharray="none" stroke-miterlimit="4" stroke-width=".421" font-family="Ubuntu" font-stretch="normal" font-style="normal" font-variant="normal" font-weight="normal">SSD</tspan></text><text font-family="Ubuntu" style="line-height:1.25;-inkscape-font-specification:Ubuntu" id="text927-5-0-3-3" x="324.334" y="209.128" fill="#fff" fill-opacity="1" stroke="none" stroke-dasharray="none" stroke-miterlimit="4" stroke-opacity="1" stroke-width=".327" display="inline" enable-background="new" font-size="8.301" font-stretch="normal" font-style="normal" font-variant="normal" font-weight="normal" letter-spacing="0" opacity=".2" transform="scale(1.0012075,0.99879396)" word-spacing="0" xml:space="preserve"><tspan stroke-opacity="1" style="-inkscape-font-specification:Ubuntu" id="tspan925-62-9-6-6" x="324.334" y="209.128" fill="#fff" fill-opacity="1" stroke="none" stroke-dasharray="none" stroke-miterlimit="4" stroke-width=".327" font-family="Ubuntu" font-stretch="normal" font-style="normal" font-variant="normal" font-weight="normal">SSD</tspan></text><text enable-background="new" style="line-height:1.25;-inkscape-font-specification:Ubuntu" id="text927-3-7-7" x="324.334" y="208.349" fill="gray" fill-opacity="1" stroke="none" stroke-dasharray="none" stroke-miterlimit="4" stroke-opacity="1" stroke-width=".327" display="inline" font-family="Ubuntu" font-size="8.301" font-stretch="normal" font-style="normal" font-variant="normal" font-weight="normal" letter-spacing="0" transform="scale(1.0012075,0.99879396)" word-spacing="0" xml:space="preserve"><tspan stroke-opacity="1" style="-inkscape-font-specification:Ubuntu" id="tspan925-6-5-5" x="324.334" y="208.349" fill="gray" fill-opacity="1" stroke="none" stroke-dasharray="none" stroke-miterlimit="4" stroke-width=".327" font-family="Ubuntu" font-stretch="normal" font-style="normal" font-variant="normal" font-weight="normal">SSD</tspan></text><path id="path1268" fill="none" stroke="gray" stroke-dasharray="none" stroke-linecap="butt" stroke-linejoin="miter" stroke-miterlimit="4" stroke-opacity="1" stroke-width="1.002" d="m 324.00015,248.49921 h 8"/><path id="path1268-3" fill="none" stroke="#fff" stroke-dasharray="none" stroke-linecap="butt" stroke-linejoin="miter" stroke-miterlimit="4" stroke-opacity="1" stroke-width="1.002" d="m 324.00015,249.50078 h 8" display="inline" enable-background="new" opacity=".2"/></g><g id="layer9" display="inline"><path id="path901" fill="none" fill-opacity="1" fill-rule="nonzero" stroke="#000" stroke-opacity="1" stroke-width="1" d="m 335.73047,61.5 c -2.21461,0 -3.94722,0.05465 -5.33203,0.287109 -1.38481,0.232456 -2.44551,0.654338 -3.21094,1.417969 -0.76543,0.763631 -1.1878,1.822342 -1.41797,3.207031 -0.23017,1.38469 -0.28039,3.118394 -0.26953,5.337891 V 84 96.251953 c -0.0108,2.218334 0.0394,3.951757 0.26953,5.335937 0.23017,1.38469 0.65253,2.4434 1.41797,3.20703 0.76544,0.76363 1.82612,1.18551 3.21094,1.41797 1.38481,0.23246 3.11742,0.28711 5.33203,0.28711 h 16.53906 c 2.2146,0 3.94454,-0.0546 5.32617,-0.28711 1.38163,-0.2325 2.44064,-0.65418 3.20313,-1.41797 0.76249,-0.76378 1.18385,-1.82305 1.41601,-3.20703 0.23217,-1.38398 0.28516,-3.116864 0.28516,-5.335937 V 84 71.748047 c 0,-2.219073 -0.053,-3.951957 -0.28516,-5.335938 -0.23216,-1.383981 -0.65352,-2.443248 -1.41601,-3.207031 -0.76249,-0.763783 -1.8215,-1.185464 -3.20313,-1.417969 C 356.21407,61.554605 354.48413,61.5 352.26953,61.5 Z" color="#000" display="inline" enable-background="accumulate" opacity=".4" overflow="visible" visibility="visible" style="marker:none"/><path id="path1089" fill="none" fill-opacity="1" fill-rule="nonzero" stroke="#000" stroke-opacity="1" stroke-width="1" d="m 330.19336,133.5 c -1.41241,0 -2.52238,0.0342 -3.42383,0.18555 -0.90145,0.15132 -1.61987,0.43164 -2.14258,0.95312 -0.5227,0.52148 -0.80325,1.23898 -0.95312,2.14063 -0.14988,0.90164 -0.18075,2.0101 -0.17383,3.42578 V 148 v 7.79688 c -0.007,1.41452 0.024,2.52269 0.17383,3.42382 0.14987,0.90165 0.43041,1.61915 0.95312,2.14063 0.52272,0.52148 1.24112,0.8018 2.14258,0.95312 0.90146,0.15132 2.01142,0.18555 3.42383,0.18555 h 11.61523 c 1.41241,0 2.51847,-0.0342 3.41797,-0.18555 0.8995,-0.15137 1.61597,-0.43149 2.13672,-0.95312 0.52075,-0.52163 0.80004,-1.23774 0.95117,-2.13867 0.15113,-0.90094 0.18555,-2.01055 0.18555,-3.42578 V 148 140.20312 c 0,-1.41524 -0.0344,-2.52484 -0.18555,-3.42578 -0.15113,-0.90093 -0.43042,-1.61703 -0.95117,-2.13867 -0.52075,-0.52163 -1.23722,-0.80175 -2.13672,-0.95312 C 344.32706,133.53418 343.221,133.5 341.80859,133.5 Z" color="#000" display="inline" enable-background="accumulate" opacity=".4" overflow="visible" visibility="visible" style="marker:none"/><path id="path1085" fill="none" fill-opacity="1" fill-rule="nonzero" stroke="#000" stroke-opacity="1" stroke-width="1" d="m 327.86523,188.5 c -1.11158,0 -1.98683,0.0256 -2.70703,0.14648 -0.72019,0.1209 -1.3105,0.34863 -1.74218,0.7793 -0.43169,0.43067 -0.65954,1.01974 -0.7793,1.74024 -0.11977,0.72049 -0.14217,1.59669 -0.13672,2.71093 V 200 v 6.125 c -0.005,1.1131 0.017,1.989 0.13672,2.70898 0.11976,0.72051 0.3476,1.30957 0.7793,1.74024 0.43169,0.43067 1.02199,0.6584 1.74218,0.7793 0.7202,0.12089 1.59545,0.14648 2.70703,0.14648 h 8.26954 c 1.11158,0 1.98637,-0.0255 2.70507,-0.14648 0.7187,-0.12095 1.30623,-0.34848 1.73633,-0.7793 0.4301,-0.43083 0.6566,-1.01849 0.77735,-1.73828 0.12074,-0.71979 0.14648,-1.59713 0.14648,-2.71094 V 200 193.875 c 0,-1.11381 -0.0257,-1.99115 -0.14648,-2.71094 -0.12075,-0.71979 -0.34725,-1.30745 -0.77735,-1.73828 -0.4301,-0.43082 -1.01763,-0.65835 -1.73633,-0.7793 -0.7187,-0.12094 -1.59349,-0.14648 -2.70507,-0.14648 z" color="#000" display="inline" enable-background="accumulate" opacity=".4" overflow="visible" visibility="visible" style="marker:none"/><path id="path1087" fill="none" fill-opacity="1" fill-rule="nonzero" stroke="#000" stroke-opacity="1" stroke-width="1" d="m 325.0957,236.5 c -0.71048,0 -1.27344,0.0154 -1.75195,0.0957 -0.47851,0.0803 -0.89671,0.23728 -1.20703,0.54688 -0.31032,0.30959 -0.46726,0.7261 -0.54688,1.20508 -0.0796,0.47897 -0.0933,1.04352 -0.0898,1.75586 V 244 v 3.89844 c -0.003,0.71121 0.0103,1.27546 0.0898,1.7539 0.0796,0.47898 0.23655,0.89549 0.54688,1.20508 0.31033,0.3096 0.72851,0.46655 1.20703,0.54688 0.47852,0.0803 1.04147,0.0957 1.75195,0.0957 h 5.8086 c 0.71048,0 1.27236,-0.0153 1.75,-0.0957 0.47763,-0.0804 0.89584,-0.23713 1.20508,-0.54688 0.30921,-0.30975 0.46469,-0.72681 0.54492,-1.20508 0.0802,-0.47826 0.0957,-1.04201 0.0957,-1.7539 V 244 240.10156 c 0,-0.71189 -0.0155,-1.27564 -0.0957,-1.7539 -0.0802,-0.47827 -0.2357,-0.89533 -0.54492,-1.20508 -0.30924,-0.30975 -0.72745,-0.4665 -1.20508,-0.54688 -0.47764,-0.0804 -1.03952,-0.0957 -1.75,-0.0957 z" color="#000" display="inline" enable-background="accumulate" opacity=".4" overflow="visible" visibility="visible" style="marker:none"/></g><g id="layer5" display="inline"><path id="path945" fill="#000" fill-opacity="1" fill-rule="nonzero" stroke="none" stroke-width="1" d="m 64,227.00586 v 2 C 63.82701,264.37398 67.62515,268 102.92188,268 h 98.15624 c 35.29672,0 38.00361,-3.63752 38.92188,-38.99414 v -2 C 239.08173,262.36248 236.37484,266 201.07812,266 H 102.92188 C 67.62515,266 63.82701,262.37398 64,227.00586 Z" color="#000" display="inline" enable-background="accumulate" opacity=".2" overflow="visible" visibility="visible" style="marker:none"/><path id="path990" fill="none" fill-opacity="1" fill-rule="nonzero" stroke="url(#linearGradient1004)" stroke-dasharray="none" stroke-miterlimit="4" stroke-opacity="1" stroke-width="2" d="m 335.73108,62 c -8.82418,0 -9.77365,0.90635 -9.7304,9.74838 V 84 96.25162 c -0.0433,8.84203 0.90622,9.74838 9.7304,9.74838 h 16.53919 c 8.82418,0 9.7304,-0.90625 9.7304,-9.74838 V 84 71.74838 C 362.00067,62.90625 361.09445,62 352.27027,62 Z" clip-path="url(#clipPath994-5)" color="#000" display="inline" enable-background="accumulate" opacity=".4" overflow="visible" transform="translate(1.5261807e-6)" visibility="visible" style="marker:none"/><path id="path935" fill="none" fill-opacity="1" fill-rule="nonzero" stroke="url(#linearGradient981)" stroke-dasharray="none" stroke-miterlimit="4" stroke-opacity="1" stroke-width="2" d="m 327.8652,189 c -4.41209,0 -4.88682,0.45318 -4.8652,4.87419 V 200 206.12581 C 322.9783,210.54682 323.45311,211 327.8652,211 h 8.2696 C 340.54689,211 341,210.54688 341,206.12581 V 200 193.87419 C 341,189.45313 340.54688,189 336.13479,189 Z" clip-path="url(#clipPath971)" color="#000" display="inline" enable-background="accumulate" opacity=".4" overflow="visible" transform="translate(1.5261807e-6)" visibility="visible" style="marker:none"/><path id="path937" fill="none" fill-opacity="1" fill-rule="nonzero" stroke="url(#linearGradient993)" stroke-dasharray="none" stroke-miterlimit="4" stroke-opacity="1" stroke-width="2" d="m 325.09646,237 c -2.80769,0 -3.10979,0.28839 -3.09603,3.10176 V 244 v 3.89824 c -0.0138,2.81337 0.28834,3.10176 3.09603,3.10176 h 5.8075 C 333.71166,251 334,250.71165 334,247.89824 V 244 240.10176 C 334,237.28836 333.71165,237 330.90396,237 Z" clip-path="url(#clipPath983)" color="#000" display="inline" enable-background="accumulate" opacity=".4" overflow="visible" transform="translate(1.5261807e-6)" visibility="visible" style="marker:none"/><path id="path939" fill="none" fill-opacity="1" fill-rule="nonzero" stroke="url(#linearGradient969)" stroke-dasharray="none" stroke-miterlimit="4" stroke-opacity="1" stroke-width="2" d="m 330.1929,133.99999 c -5.61538,0 -6.21958,0.57678 -6.19206,6.20352 v 7.79648 7.79648 c -0.0276,5.62673 0.57668,6.20351 6.19206,6.20351 h 11.615 c 5.6154,0 6.19208,-0.5767 6.19208,-6.20351 v -7.79648 -7.79648 c 0,-5.6268 -0.5767,-6.20352 -6.19208,-6.20352 z" clip-path="url(#clipPath959)" color="#000" display="inline" enable-background="accumulate" opacity=".4" overflow="visible" transform="translate(1.5261807e-6)" visibility="visible" style="marker:none"/></g></g></svg>