<svg xmlns="http://www.w3.org/2000/svg" xmlns:osb="http://www.openswatchbook.org/uri/2009/osb" xmlns:svg="http://www.w3.org/2000/svg" xmlns:xlink="http://www.w3.org/1999/xlink" id="svg11300" width="400" height="300" display="inline" enable-background="new" version="1.0"><title id="title3004">Suru Icon Theme Template</title><defs id="defs3"><linearGradient id="linearGradient10301"><stop id="stop10297" offset="0" stop-color="#cdcdcd" stop-opacity="1"/><stop id="stop10299" offset="1" stop-color="#e9e9e9" stop-opacity="1"/></linearGradient><clipPath id="clipPath9430" clipPathUnits="userSpaceOnUse"><path id="path9432" fill="#fff" fill-opacity="1" fill-rule="nonzero" stroke="none" stroke-width="1" d="m 166.0625,-196 h 179.875 C 491.2348,-196 512,-175.28677 512,-30.125 v 148.25 C 512,263.28618 491.2348,284 345.9375,284 H 166.0625 C 20.7652,284 0,263.28618 0,118.125 V -30.125 C 0,-175.28677 20.7652,-196 166.0625,-196 Z" color="#000" display="inline" enable-background="new" overflow="visible" visibility="visible" style="marker:none"/></clipPath><clipPath id="clipPath1082" clipPathUnits="userSpaceOnUse"><path id="path1084" fill="#8c59d9" fill-opacity="1" stroke="none" stroke-dasharray="none" stroke-dashoffset="0" stroke-linecap="round" stroke-linejoin="round" stroke-miterlimit="4" stroke-opacity="1" stroke-width="2" d="M 361.9375,-212 C 507.2348,-212 528,-191.28677 528,-46.125 V 70.125 C 528,215.28618 507.2348,236 361.9375,236 H 214.0625 C 68.7652,236 48,215.28618 48,70.125 V -46.125 C 48,-191.28677 68.7652,-212 214.0625,-212 Z" display="inline" enable-background="new" opacity="1"/></clipPath><filter id="filter4346" width="1.026" height="1.022" x="-.013" y="-.011" color-interpolation-filters="sRGB"><feGaussianBlur id="feGaussianBlur4348" stdDeviation="2.12"/></filter><linearGradient id="linearGradient4358" x1="88" x2="488" y1="88" y2="488" gradientTransform="rotate(-90,287.9946,298)" gradientUnits="userSpaceOnUse" xlink:href="#linearGradient4360"/><linearGradient id="linearGradient4360"><stop id="stop4362" offset="0" stop-color="#000" stop-opacity=".588"/><stop id="stop4364" offset=".88" stop-color="#000" stop-opacity="0"/><stop id="stop4366" offset="1" stop-color="#000" stop-opacity="1"/></linearGradient><filter id="filter4380" width="1.106" height="1.088" x="-.053" y="-.044" color-interpolation-filters="sRGB"><feGaussianBlur id="feGaussianBlur4382" stdDeviation="8.48"/></filter><linearGradient id="linearGradient4226" x1="529.655" x2="-35.31" y1="295.638" y2="295.638" gradientTransform="matrix(0,-0.453125,-0.45311204,0,277.957,268)" gradientUnits="userSpaceOnUse" xlink:href="#linearGradient4338-3"/><linearGradient id="linearGradient951" x1="494.345" x2="0" y1="313.287" y2="313.287" gradientTransform="matrix(0,-0.11328125,-0.11327801,0,379.48855,112)" gradientUnits="userSpaceOnUse" xlink:href="#linearGradient4338-3"/><clipPath id="clipPath994" clipPathUnits="userSpaceOnUse"><path id="path996" fill="#cdcdcd" fill-opacity="1" fill-rule="nonzero" stroke="none" stroke-dasharray="none" stroke-miterlimit="4" stroke-opacity="1" stroke-width="2" d="m 335.73108,62 c -8.82418,0 -9.77365,0.90635 -9.7304,9.74838 V 84 96.25162 c -0.0433,8.84203 0.90622,9.74838 9.7304,9.74838 h 16.53919 c 8.82418,0 9.7304,-0.90625 9.7304,-9.74838 V 84 71.74838 C 362.00067,62.90625 361.09445,62 352.27027,62 Z" color="#000" display="inline" enable-background="accumulate" overflow="visible" visibility="visible" style="marker:none"/></clipPath><linearGradient id="linearGradient916" x1="512" x2="0" y1="313.292" y2="313.292" gradientTransform="matrix(0,-0.05664062,-0.05663901,0,349.74456,214)" gradientUnits="userSpaceOnUse" xlink:href="#linearGradient4338-3"/><linearGradient id="linearGradient920" x1="469.123" x2="25.222" y1="320.848" y2="320.848" gradientTransform="matrix(0,-0.03604403,-0.03604301,0,339.56432,252.90909)" gradientUnits="userSpaceOnUse" xlink:href="#linearGradient4338-3"/><linearGradient id="linearGradient924" x1="524.611" x2="-30.266" y1="320.848" y2="320.848" gradientTransform="matrix(0,-0.07208805,-0.07208601,0,359.12864,165.81816)" gradientUnits="userSpaceOnUse" xlink:href="#linearGradient4338-3"/><linearGradient id="linearGradient1004" x1="344" x2="344" y1="62" y2="106" gradientTransform="rotate(-90,344,84)" gradientUnits="userSpaceOnUse" xlink:href="#linearGradient927"/><linearGradient id="linearGradient927"><stop id="stop923" offset="0" stop-color="#fff" stop-opacity="1"/><stop id="stop933" offset=".125" stop-color="#fff" stop-opacity=".098"/><stop id="stop931" offset=".925" stop-color="#fff" stop-opacity=".098"/><stop id="stop925" offset="1" stop-color="#fff" stop-opacity=".498"/></linearGradient><clipPath id="clipPath994-5" clipPathUnits="userSpaceOnUse"><path id="path996-3" fill="#cdcdcd" fill-opacity="1" fill-rule="nonzero" stroke="none" stroke-dasharray="none" stroke-miterlimit="4" stroke-opacity="1" stroke-width="2" d="m 335.73108,62 c -8.82418,0 -9.77365,0.90635 -9.7304,9.74838 V 84 96.25162 c -0.0433,8.84203 0.90622,9.74838 9.7304,9.74838 h 16.53919 c 8.82418,0 9.7304,-0.90625 9.7304,-9.74838 V 84 71.74838 C 362.00067,62.90625 361.09445,62 352.27027,62 Z" color="#000" display="inline" enable-background="accumulate" overflow="visible" visibility="visible" style="marker:none"/></clipPath><linearGradient id="linearGradient981" x1="332" x2="332" y1="189" y2="211" gradientTransform="rotate(90,331.99966,200)" gradientUnits="userSpaceOnUse" xlink:href="#linearGradient927"/><clipPath id="clipPath971" clipPathUnits="userSpaceOnUse"><path id="path973" fill="#46a926" fill-opacity="1" fill-rule="nonzero" stroke="none" stroke-dasharray="none" stroke-miterlimit="4" stroke-opacity="1" stroke-width="2" d="m 327.8652,189 c -4.41209,0 -4.88682,0.45318 -4.8652,4.87419 V 200 206.12581 C 322.9783,210.54682 323.45311,211 327.8652,211 h 8.2696 C 340.54689,211 341,210.54688 341,206.12581 V 200 193.87419 C 341,189.45313 340.54688,189 336.13479,189 Z" color="#000" display="inline" enable-background="accumulate" opacity="1" overflow="visible" visibility="visible" style="marker:none"/></clipPath><linearGradient id="linearGradient993" x1="328" x2="328" y1="237" y2="251" gradientTransform="rotate(90,328,244)" gradientUnits="userSpaceOnUse" xlink:href="#linearGradient927"/><clipPath id="clipPath983" clipPathUnits="userSpaceOnUse"><path id="path985" fill="#46a926" fill-opacity="1" fill-rule="nonzero" stroke="none" stroke-dasharray="none" stroke-miterlimit="4" stroke-opacity="1" stroke-width="2" d="m 325.09646,237 c -2.80769,0 -3.10979,0.28839 -3.09603,3.10176 V 244 v 3.89824 c -0.0138,2.81337 0.28834,3.10176 3.09603,3.10176 h 5.8075 C 333.71166,251 334,250.71165 334,247.89824 V 244 240.10176 C 334,237.28836 333.71165,237 330.90396,237 Z" color="#000" display="inline" enable-background="accumulate" opacity="1" overflow="visible" visibility="visible" style="marker:none"/></clipPath><linearGradient id="linearGradient969" x1="336" x2="336" y1="134" y2="162" gradientTransform="rotate(90,335.99998,147.99998)" gradientUnits="userSpaceOnUse" xlink:href="#linearGradient927"/><clipPath id="clipPath959" clipPathUnits="userSpaceOnUse"><path id="path961" fill="#46a926" fill-opacity="1" fill-rule="nonzero" stroke="none" stroke-dasharray="none" stroke-miterlimit="4" stroke-opacity="1" stroke-width="2" d="m 330.1929,133.99999 c -5.61538,0 -6.21958,0.57678 -6.19206,6.20352 v 7.79648 7.79648 c -0.0276,5.62673 0.57668,6.20351 6.19206,6.20351 h 11.615 c 5.6154,0 6.19208,-0.5767 6.19208,-6.20351 v -7.79648 -7.79648 c 0,-5.6268 -0.5767,-6.20352 -6.19208,-6.20352 z" color="#000" display="inline" enable-background="accumulate" opacity="1" overflow="visible" visibility="visible" style="marker:none"/></clipPath><linearGradient id="linearGradient4338-3"><stop id="stop4342-7" offset="0" stop-color="#999" stop-opacity="1"/><stop id="stop932" offset=".613" stop-color="#b7b7b7" stop-opacity="1"/><stop id="stop4340-0" offset="1" stop-color="#dbdbdb" stop-opacity="1"/></linearGradient><linearGradient id="linearGradient3045"><stop id="stop3047" offset="0" stop-color="#847784" stop-opacity=".996"/><stop id="stop3049" offset="1" stop-color="#695f69" stop-opacity="1"/></linearGradient><linearGradient id="linearGradient4213"><stop id="stop4215" offset="0" stop-color="#b1d7f3" stop-opacity="1"/><stop id="stop4217" offset="1" stop-color="#8fafda" stop-opacity="1"/></linearGradient><linearGradient id="linearGradient5460" osb:paint="gradient"><stop id="stop5462" offset="0" stop-color="#e6e6e6" stop-opacity="1"/><stop id="stop5464" offset="1" stop-color="#fff" stop-opacity="1"/></linearGradient><linearGradient id="linearGradient5476" osb:paint="solid"><stop id="stop5478" offset="0" stop-color="#772953" stop-opacity="1"/></linearGradient><filter id="filter4154" color-interpolation-filters="sRGB"><feComposite id="feComposite4156" in2="SourceGraphic" k1="0" k2="1" k3="0" k4="0" operator="arithmetic" result="composite1"/><feColorMatrix id="feColorMatrix4158" in="composite1" result="colormatrix1" type="saturate" values="0"/><feFlood id="feFlood4160" flood-color="#483B48" result="flood1"/><feBlend id="feBlend4162" in="flood1" in2="colormatrix1" mode="multiply" result="blend1"/><feBlend id="feBlend4164" in2="blend1" mode="screen" result="blend2"/><feColorMatrix id="feColorMatrix4166" in="blend2" result="colormatrix2" type="saturate" values="1"/><feComposite id="feComposite4168" in="colormatrix2" in2="SourceGraphic" operator="in" result="composite2"/></filter><clipPath id="clipPath3062" clipPathUnits="userSpaceOnUse"><rect id="rect3064" width="475.665" height="445.935" x="34.168" y="-194.968" fill="url(#linearGradient3066)" fill-opacity="1" fill-rule="nonzero" stroke="none" stroke-width="40" color="#000" display="inline" enable-background="new" overflow="visible" visibility="visible" style="marker:none"/></clipPath><linearGradient id="linearGradient3066" x1="256" x2="256" y1="50" y2="288" gradientTransform="matrix(1.8580645,0,0,1.8736786,4.4387126,-288.65166)" gradientUnits="userSpaceOnUse" xlink:href="#linearGradient3045"/><filter id="filter4154-0" color-interpolation-filters="sRGB"><feComposite id="feComposite4156-9" in2="SourceGraphic" k1="0" k2="1" k3="0" k4="0" operator="arithmetic" result="composite1"/><feColorMatrix id="feColorMatrix4158-3" in="composite1" result="colormatrix1" type="saturate" values="0"/><feFlood id="feFlood4160-6" flood-color="#483B48" result="flood1"/><feBlend id="feBlend4162-0" in="flood1" in2="colormatrix1" mode="multiply" result="blend1"/><feBlend id="feBlend4164-6" in2="blend1" mode="screen" result="blend2"/><feColorMatrix id="feColorMatrix4166-2" in="blend2" result="colormatrix2" type="saturate" values="1"/><feComposite id="feComposite4168-6" in="colormatrix2" in2="SourceGraphic" operator="in" result="composite2"/></filter><clipPath id="clipPath3062-1" clipPathUnits="userSpaceOnUse"><rect id="rect3064-8" width="475.665" height="445.935" x="34.168" y="-194.968" fill="url(#linearGradient3066)" fill-opacity="1" fill-rule="nonzero" stroke="none" stroke-width="40" color="#000" display="inline" enable-background="new" overflow="visible" visibility="visible" style="marker:none"/></clipPath><linearGradient id="linearGradient11811" x1="494.345" x2="0" y1="313.287" y2="313.287" gradientTransform="matrix(0,-0.11328125,-0.11327801,0,379.48855,112)" gradientUnits="userSpaceOnUse" xlink:href="#linearGradient4338-3"/><linearGradient id="linearGradient8590-3" x1="96" x2="96" y1="4" y2="188" gradientTransform="matrix(0.12173896,0,0,0.12173891,324.31302,139.51309)" gradientUnits="userSpaceOnUse" xlink:href="#linearGradient927"/><linearGradient id="linearGradient8590" x1="96" x2="96" y1="4" y2="188" gradientTransform="matrix(0.19234383,0,0,0.19234374,325.03495,70.230696)" gradientUnits="userSpaceOnUse" xlink:href="#linearGradient927"/><linearGradient id="linearGradient1048"><stop id="stop1044" offset="0" stop-color="#cdcdcd" stop-opacity="1"/><stop id="stop1046" offset="1" stop-color="#d9d9d9" stop-opacity="1"/></linearGradient><linearGradient id="linearGradient8588-0" x1="13.735" x2="38.1" y1="249.694" y2="292.767" gradientTransform="matrix(0.48713838,0,0,0.48713858,323.88443,18.635466)" gradientUnits="userSpaceOnUse" xlink:href="#linearGradient10301"/><linearGradient id="linearGradient8588" x1="13.735" x2="38.1" y1="249.694" y2="292.767" gradientTransform="matrix(0.76001289,0,0,0.76001318,324.59781,-118.12598)" gradientUnits="userSpaceOnUse" xlink:href="#linearGradient1048"/><linearGradient id="linearGradient11065" x1="104" x2="200" y1="44" y2="268" gradientTransform="matrix(0.71689263,0,0,0.71689263,43.032312,81.297179)" gradientUnits="userSpaceOnUse" xlink:href="#linearGradient1048"/><filter id="filter11210" width="1.096" height="1.096" x="-.048" y="-.048" color-interpolation-filters="sRGB"><feGaussianBlur id="feGaussianBlur11212" stdDeviation="4.48"/></filter><linearGradient id="linearGradient10081" x1="13.735" x2="38.1" y1="249.694" y2="292.767" gradientTransform="matrix(0.42624608,0,0,0.42624626,321.53535,84.506713)" gradientUnits="userSpaceOnUse" xlink:href="#linearGradient10301"/><linearGradient id="linearGradient10083" x1="96" x2="96" y1="4" y2="188" gradientTransform="matrix(0.10652159,0,0,0.10652155,321.91037,190.27463)" gradientUnits="userSpaceOnUse" xlink:href="#linearGradient927"/></defs><metadata id="metadata4"/><g id="layer1" display="inline"><g id="layer7" display="none"><text enable-background="new" style="line-height:0%;-inkscape-font-specification:'DejaVu Sans'" id="context" x="19.007" y="-8.255" fill="#000" fill-opacity="1" stroke="none" display="inline" font-family="DejaVu Sans" font-stretch="normal" font-style="normal" font-variant="normal" font-weight="normal" xml:space="preserve"><tspan id="tspan3933" x="19.007" y="-8.255" font-family="DejaVu Sans" font-size="18" font-stretch="normal" font-style="normal" font-variant="normal" font-weight="normal" style="line-height:1.25;-inkscape-font-specification:'DejaVu Sans'">devices</tspan></text><text id="icon-name" x="146.488" y="-8.255" fill="#000" fill-opacity="1" stroke="none" display="inline" enable-background="new" font-family="DejaVu Sans" font-stretch="normal" font-style="normal" font-variant="normal" font-weight="bold" text-anchor="start" writing-mode="lr-tb" xml:space="preserve" style="line-height:0%;-inkscape-font-specification:'DejaVu Sans Bold';text-align:start"><tspan id="tspan924" x="146.488" y="-8.255" font-family="DejaVu Sans" font-size="18" font-stretch="normal" font-style="normal" font-variant="normal" font-weight="bold" style="line-height:1.25;-inkscape-font-specification:'DejaVu Sans Bold'">drive-optical</tspan></text><rect id="rect16x16" width="16" height="16" x="320" y="236" fill="#cdcdcd" fill-opacity="1" fill-rule="nonzero" stroke="none" stroke-width="2" display="inline" enable-background="accumulate" overflow="visible" visibility="visible" style="marker:none"/><rect id="rect24x24" width="24" height="24" x="320" y="188" fill="#cdcdcd" fill-opacity="1" fill-rule="nonzero" stroke="none" stroke-width="2" display="inline" enable-background="accumulate" overflow="visible" visibility="visible" style="marker:none"/><rect id="rect32x32" width="32" height="32" x="320" y="132" fill="#cdcdcd" fill-opacity="1" fill-rule="nonzero" stroke="none" stroke-width="2" display="inline" enable-background="accumulate" overflow="visible" visibility="visible" style="marker:none"/><rect id="rect48x48" width="48" height="48" x="320" y="60" fill="#cdcdcd" fill-opacity="1" fill-rule="nonzero" stroke="none" stroke-width="2" display="inline" enable-background="accumulate" overflow="visible" visibility="visible" style="marker:none"/><rect id="rect3951" width="256" height="256" x="24" y="28" fill="#cdcdcd" fill-opacity="1" fill-rule="nonzero" stroke="none" stroke-width="2" display="inline" enable-background="accumulate" overflow="visible" visibility="visible" style="marker:none"/></g><g id="layer4" display="inline"><path id="path1020" fill="#000" fill-opacity="1" fill-rule="nonzero" stroke="none" stroke-dasharray="none" stroke-dashoffset="0" stroke-linecap="butt" stroke-linejoin="miter" stroke-miterlimit="4" stroke-opacity="1" stroke-width="2" d="m 366.99928,76.731193 c 0,-2.22316 -0.0512,-3.97368 -0.29297,-5.41406 -0.24179,-1.44039 -0.6953,-2.61905 -1.55664,-3.48243 -0.86134,-0.86337 -2.03947,-1.31906 -3.48047,-1.55859 -1.441,-0.23953 -3.19534,-0.28629 -5.42383,-0.27539 h -12.24609 -12.25196 c -2.22506,-0.0108 -3.97851,0.0361 -5.41796,0.27539 -1.441,0.23953 -2.61913,0.69522 -3.48047,1.55859 -0.86134,0.86338 -1.31486,2.04204 -1.55664,3.48243 -0.24179,1.44039 -0.29297,3.1909 -0.29297,5.41406 v 16.53906 c 0,2.22316 0.0511,3.97276 0.29297,5.41016 0.24189,1.437397 0.69694,2.612457 1.55859,3.472647 0.86165,0.8602 2.03894,1.3132 3.47852,1.55469 1.43957,0.24149 3.19035,0.29297 5.41796,0.29297 h 12.25196 12.25195 c 2.22761,0 3.97839,-0.0515 5.41797,-0.29297 1.43957,-0.24149 2.61686,-0.69449 3.47851,-1.55469 0.86166,-0.86019 1.31671,-2.03525 1.5586,-3.472647 0.24189,-1.4374 0.29297,-3.187 0.29297,-5.41016 z" baseline-shift="baseline" clip-rule="nonzero" color="#000" color-interpolation="sRGB" color-interpolation-filters="linearRGB" color-rendering="auto" direction="ltr" display="inline" dominant-baseline="auto" enable-background="accumulate" font-family="sans-serif" font-size="medium" font-stretch="normal" font-style="normal" font-variant="normal" font-weight="normal" image-rendering="auto" letter-spacing="normal" opacity=".1" overflow="visible" shape-rendering="auto" text-anchor="start" text-decoration="none" text-rendering="auto" vector-effect="none" visibility="visible" word-spacing="normal" writing-mode="lr-tb" style="line-height:normal;font-variant-ligatures:normal;font-variant-position:normal;font-variant-caps:normal;font-variant-numeric:normal;font-variant-alternates:normal;font-feature-settings:normal;text-indent:0;text-align:start;text-decoration-line:none;text-decoration-style:solid;text-decoration-color:#000;text-transform:none;text-orientation:mixed;white-space:normal;shape-padding:0;isolation:auto;mix-blend-mode:normal;solid-color:#000;solid-opacity:1;marker:none"/><path id="rect4158-9" fill="#000" fill-opacity="1" fill-rule="nonzero" stroke="none" stroke-width="2" d="M 189.84323,74 C 119.24979,74 111.65402,81.250835 112,151.98706 V 298 444.01294 C 111.65402,514.74917 119.24979,522 189.84323,522 H 386.15677 C 456.75021,522 462.16345,514.72616 464,444.01294 V 298 151.98706 C 464,81.249993 456.75021,74 386.15677,74 Z" color="#000" display="inline" enable-background="accumulate" filter="url(#filter4346)" opacity=".1" overflow="visible" transform="matrix(0,0.5,-0.5,0,300.9973,13.002698)" visibility="visible" style="marker:none"/><path id="path4350" fill="url(#linearGradient4358)" fill-opacity="1" fill-rule="nonzero" stroke="none" stroke-width="2" d="M 189.84323,74 C 119.24979,74 111.65402,81.250835 112,151.98706 V 298 444.01294 C 111.65402,514.74917 119.24979,522 189.84323,522 H 386.15677 C 456.75021,522 464,514.75001 464,444.01294 V 298 151.98706 C 464,81.249993 456.75021,74 386.15677,74 Z" color="#000" display="inline" enable-background="accumulate" filter="url(#filter4380)" opacity=".3" overflow="visible" transform="matrix(0,0.5,-0.5,0,300.9973,13.002698)" visibility="visible" style="marker:none"/></g><g id="layer2" display="inline"><path id="path949" fill="url(#linearGradient951)" fill-opacity="1" fill-rule="nonzero" stroke="none" stroke-width="1" d="m 366.49932,92.268843 c 0,2.21461 -0.0547,3.94722 -0.28711,5.33203 -0.23246,1.38481 -0.65434,2.445507 -1.41797,3.210937 -0.76363,0.76543 -1.82234,1.1878 -3.20703,1.41797 -1.38469,0.23017 -3.1184,0.28039 -5.33789,0.26953 h -12.25 -12.25196 c -2.21833,0.0108 -3.95175,-0.0394 -5.33593,-0.26953 -1.38469,-0.23017 -2.4434,-0.65253 -3.20703,-1.41797 -0.76363,-0.76544 -1.18551,-1.826117 -1.41797,-3.210937 -0.23246,-1.38481 -0.28711,-3.11742 -0.28711,-5.33203 v -16.53906 c 0,-2.2146 0.0546,-3.94454 0.28711,-5.32617 0.2325,-1.38163 0.65418,-2.44064 1.41797,-3.20313 0.76378,-0.76249 1.82305,-1.18385 3.20703,-1.41601 1.38398,-0.23217 3.11686,-0.28516 5.33593,-0.28516 h 12.25196 12.25195 c 2.21907,0 3.95196,0.053 5.33594,0.28516 1.38398,0.23216 2.44325,0.65352 3.20703,1.41601 0.76378,0.76249 1.18546,1.8215 1.41797,3.20313 0.2325,1.38163 0.28711,3.11157 0.28711,5.32617 z" color="#000" display="inline" enable-background="accumulate" overflow="visible" visibility="visible" style="marker:none"/><path id="rect4158" fill="url(#linearGradient4226)" fill-opacity="1" fill-rule="nonzero" stroke="none" stroke-width="1" d="m 263.9973,205.07568 c 0,35.29673 -3.62542,39.09461 -38.99353,38.92162 H 151.9973 78.99083 C 43.62271,244.17029 39.9973,240.37241 39.9973,205.07568 v -98.15676 c 0,-35.296716 3.625,-38.921616 38.99353,-38.921616 h 73.00647 73.00647 c 35.36853,0 38.99353,3.6249 38.99353,38.921616 z" color="#000" display="inline" enable-background="accumulate" overflow="visible" visibility="visible" style="marker:none"/><path id="path918" fill="url(#linearGradient920)" fill-opacity="1" fill-rule="nonzero" stroke="none" stroke-width="1" d="m 320.49978,241.09593 c 0,-0.71048 0.0154,-1.27344 0.0957,-1.75195 0.0803,-0.47851 0.23728,-0.89671 0.54688,-1.20703 0.30959,-0.31032 0.7261,-0.46726 1.20508,-0.54688 0.47897,-0.0796 1.04352,-0.0933 1.75586,-0.0898 h 3.89648 3.89844 c 0.71121,-0.003 1.27546,0.0103 1.7539,0.0898 0.47898,0.0796 0.89549,0.23655 1.20508,0.54688 0.3096,0.31033 0.46655,0.72851 0.54688,1.20703 0.0803,0.47852 0.0957,1.04147 0.0957,1.75195 v 5.8086 c 0,0.71048 -0.0153,1.27236 -0.0957,1.75 -0.0804,0.47763 -0.23713,0.89584 -0.54688,1.20508 -0.30975,0.30921 -0.72681,0.46469 -1.20508,0.54492 -0.47826,0.0802 -1.04201,0.0957 -1.7539,0.0957 h -3.89844 -3.89844 c -0.71189,0 -1.27564,-0.0155 -1.7539,-0.0957 -0.47827,-0.0802 -0.89533,-0.2357 -1.20508,-0.54492 -0.30975,-0.30924 -0.4665,-0.72745 -0.54688,-1.20508 -0.0804,-0.47764 -0.0957,-1.03952 -0.0957,-1.75 z" color="#000" display="inline" enable-background="accumulate" overflow="visible" visibility="visible" style="marker:none"/><path id="path914" fill="url(#linearGradient916)" fill-opacity="1" fill-rule="nonzero" stroke="none" stroke-width="1" d="m 320.49963,195.8656 c 0,-1.11158 0.0256,-1.98683 0.14648,-2.70703 0.1209,-0.72019 0.34863,-1.3105 0.7793,-1.74218 0.43067,-0.43169 1.01974,-0.65954 1.74024,-0.7793 0.72049,-0.11977 1.59669,-0.14217 2.71093,-0.13672 h 6.12305 6.125 c 1.1131,-0.005 1.989,0.017 2.70898,0.13672 0.72051,0.11976 1.30957,0.3476 1.74024,0.7793 0.43067,0.43169 0.6584,1.02199 0.7793,1.74218 0.12089,0.7202 0.14648,1.59545 0.14648,2.70703 v 8.26954 c 0,1.11158 -0.0255,1.98637 -0.14648,2.70507 -0.12095,0.7187 -0.34848,1.30623 -0.7793,1.73633 -0.43083,0.4301 -1.01849,0.6566 -1.73828,0.77735 -0.71979,0.12074 -1.59713,0.14648 -2.71094,0.14648 h -6.125 -6.125 c -1.11381,0 -1.99115,-0.0257 -2.71094,-0.14648 -0.71979,-0.12075 -1.30745,-0.34725 -1.73828,-0.77735 -0.43082,-0.4301 -0.65835,-1.01763 -0.7793,-1.73633 -0.12094,-0.7187 -0.14648,-1.59349 -0.14648,-2.70507 z" color="#000" display="inline" enable-background="accumulate" overflow="visible" visibility="visible" style="marker:none"/><path id="path922" fill="url(#linearGradient924)" fill-opacity="1" fill-rule="nonzero" stroke="none" stroke-width="1" d="m 321.49955,142.19382 c 0,-1.41241 0.0342,-2.52238 0.18555,-3.42383 0.15132,-0.90145 0.43164,-1.61987 0.95312,-2.14258 0.52148,-0.5227 1.23898,-0.80325 2.14063,-0.95312 0.90164,-0.14988 2.0101,-0.18075 3.42578,-0.17383 h 7.79492 7.79688 c 1.41452,-0.007 2.52269,0.024 3.42382,0.17383 0.90165,0.14987 1.61915,0.43041 2.14063,0.95312 0.52148,0.52272 0.8018,1.24112 0.95312,2.14258 0.15132,0.90146 0.18555,2.01142 0.18555,3.42383 v 11.61523 c 0,1.41241 -0.0342,2.51847 -0.18555,3.41797 -0.15137,0.8995 -0.43149,1.61597 -0.95312,2.13672 -0.52163,0.52075 -1.23774,0.80004 -2.13867,0.95117 -0.90094,0.15113 -2.01055,0.18555 -3.42578,0.18555 h -7.79688 -7.79688 c -1.41524,0 -2.52484,-0.0344 -3.42578,-0.18555 -0.90093,-0.15113 -1.61703,-0.43042 -2.13867,-0.95117 -0.52163,-0.52075 -0.80175,-1.23722 -0.95312,-2.13672 -0.15137,-0.8995 -0.18555,-2.00556 -0.18555,-3.41797 z" color="#000" display="inline" enable-background="accumulate" overflow="visible" visibility="visible" style="marker:none"/><path id="rect4158-5" fill="#000" fill-opacity="1" fill-rule="nonzero" stroke="none" stroke-width="1" d="m 39.998047,203.07617 v 2 c 0,35.29673 3.624067,39.09487 38.992187,38.92188 h 73.007816 73.00586 c 35.36811,0.17299 38.99414,-3.62515 38.99414,-38.92188 v -2 c 0,35.29673 -3.62603,39.09487 -38.99414,38.92188 H 151.99805 78.990234 c -35.36812,0.17299 -38.992187,-3.62515 -38.992187,-38.92188 z" color="#000" display="inline" enable-background="accumulate" opacity=".2" overflow="visible" visibility="visible" style="marker:none"/><path id="rect4158-91" fill="#000" fill-opacity="1" fill-rule="nonzero" stroke="none" stroke-width="1" d="m 39.998047,196 v 9.07617 c 0,35.29673 3.624067,39.09487 38.992187,38.92188 h 73.007816 73.00586 c 35.36811,0.17299 38.99414,-3.62515 38.99414,-38.92188 V 196 Z" color="#000" display="inline" enable-background="accumulate" opacity=".2" overflow="visible" visibility="visible" style="marker:none"/><path id="path11736" fill="#000" fill-opacity="1" stroke="none" stroke-dasharray="none" stroke-dashoffset="0" stroke-linecap="round" stroke-linejoin="bevel" stroke-miterlimit="10" stroke-opacity="1" stroke-width="2.667" d="m 64.496371,213.47688 c 0.0677,4.52548 0.119383,9.05259 0.330078,13.57422 49.539051,0.7734 99.323891,0.59996 148.844721,0.36718 8.5121,-0.0756 17.02505,-0.13279 25.53516,-0.34179 0.20103,-4.99981 0.31235,-10.00281 0.39258,-15.00586 -58.37305,0 -116.7461,0 -175.119141,0 0.0055,0.46875 0.01107,0.9375 0.0166,1.40625 z" opacity=".5"/><rect id="rect11738" width="224" height="2" x="40" y="194" fill="#fff" fill-opacity="1" stroke="none" stroke-dasharray="none" stroke-dashoffset="0" stroke-linecap="round" stroke-linejoin="bevel" stroke-miterlimit="10" stroke-opacity="1" stroke-width="2.667" opacity=".2"/><path id="path11736-2" fill="#fff" fill-opacity="1" stroke="none" stroke-dasharray="none" stroke-dashoffset="0" stroke-linecap="round" stroke-linejoin="bevel" stroke-miterlimit="10" stroke-opacity="1" stroke-width="2.667" d="m 64.480469,214.07031 c 0.0055,0.46875 0.0101,0.9375 0.01563,1.40625 0.0677,4.52548 0.119383,9.05259 0.330078,13.57422 49.539053,0.7734 99.324863,0.59997 148.845703,0.36719 8.5121,-0.0756 17.02504,-0.1328 25.53516,-0.3418 0.20103,-4.99981 0.31235,-10.00281 0.39258,-15.00586 h -0.041 c -0.0776,4.33626 -0.17732,8.67235 -0.35156,13.00586 -8.51011,0.209 -17.02305,0.2662 -25.53515,0.3418 -49.52084,0.23278 -99.30666,0.40621 -148.845713,-0.36719 -0.201482,-4.3239 -0.256593,-8.65276 -0.320313,-12.98047 z" display="inline" enable-background="new" opacity=".3"/><path id="path949-6" fill="url(#linearGradient11811)" fill-opacity="1" fill-rule="nonzero" stroke="none" stroke-width="1" d="m 366.49932,92.26884 c 0,2.21461 -0.0547,3.94722 -0.28711,5.33203 -0.23246,1.38481 -0.65434,2.44551 -1.41797,3.21094 -0.76363,0.76543 -1.82234,1.1878 -3.20703,1.41797 -1.38469,0.23017 -3.1184,0.28039 -5.33789,0.26953 h -12.25 -12.25196 c -2.21833,0.0108 -3.95175,-0.0394 -5.33593,-0.26953 -1.38469,-0.23017 -2.4434,-0.65253 -3.20703,-1.41797 -0.76363,-0.76544 -1.18551,-1.82612 -1.41797,-3.21094 -0.23246,-1.38481 -0.28711,-3.11742 -0.28711,-5.33203 V 75.72978 c 0,-2.2146 0.0546,-3.94454 0.28711,-5.32617 0.2325,-1.38163 0.65418,-2.44064 1.41797,-3.20313 0.76378,-0.76249 1.82305,-1.18385 3.20703,-1.41601 1.38398,-0.23217 3.11686,-0.28516 5.33593,-0.28516 h 12.25196 12.25195 c 2.21907,0 3.95196,0.053 5.33594,0.28516 1.38398,0.23216 2.44325,0.65352 3.20703,1.41601 0.76378,0.76249 1.18546,1.8215 1.41797,3.20313 0.2325,1.38163 0.28711,3.11157 0.28711,5.32617 z" color="#000" display="inline" enable-background="accumulate" overflow="visible" visibility="visible" style="marker:none"/><path id="rect11813" fill="#000" fill-opacity="1" stroke="none" stroke-dasharray="none" stroke-dashoffset="0" stroke-linecap="round" stroke-linejoin="bevel" stroke-miterlimit="10" stroke-opacity="1" stroke-width="2.667" d="m 321.5,90 v 2.26953 c 0,2.21461 0.0546,3.94722 0.28711,5.33203 0.23246,1.38482 0.65434,2.4455 1.41797,3.21094 0.76363,0.76544 1.82234,1.1878 3.20703,1.41797 1.38418,0.23013 3.11761,0.28033 5.33594,0.26953 H 344 356.25 c 2.21949,0.0109 3.9532,-0.0394 5.33789,-0.26953 1.38469,-0.23017 2.4434,-0.65254 3.20703,-1.41797 0.76363,-0.76543 1.18551,-1.82613 1.41797,-3.21094 C 366.4453,96.21675 366.5,94.48414 366.5,92.26953 V 90 Z" opacity=".2"/><path id="rect11813-7" fill="#fff" fill-opacity="1" stroke="none" stroke-dasharray="none" stroke-dashoffset="0" stroke-linecap="round" stroke-linejoin="bevel" stroke-miterlimit="10" stroke-opacity="1" stroke-width="2.667" d="m 321.5,89 v 1 h 45 v -1 z" display="inline" enable-background="new" opacity=".15"/><path id="path922-8" fill="#000" fill-opacity="1" fill-rule="nonzero" stroke="none" stroke-width="1" d="m 321.50391,154 c 0.003,1.31232 0.0379,2.37232 0.18164,3.22656 0.15137,0.8995 0.43149,1.61597 0.95312,2.13672 0.52164,0.52075 1.23774,0.80004 2.13867,0.95117 0.90094,0.15115 2.01055,0.18555 3.42578,0.18555 H 336 h 7.79688 c 1.41522,0 2.52484,-0.0344 3.42578,-0.18555 0.90093,-0.15113 1.61704,-0.43042 2.13867,-0.95117 0.52163,-0.52075 0.80175,-1.23722 0.95312,-2.13672 0.14374,-0.85424 0.17818,-1.91424 0.18164,-3.22656 z" color="#000" display="inline" enable-background="accumulate" opacity=".2" overflow="visible" visibility="visible" style="marker:none"/><path id="path11966" fill="#000" fill-opacity="1" stroke="none" stroke-dasharray="none" stroke-dashoffset="0" stroke-linecap="round" stroke-linejoin="bevel" stroke-miterlimit="10" stroke-opacity="1" stroke-width="2.667" d="m 324.64243,156.20561 c 0.0863,0.69134 0.0668,1.75335 0.92411,1.9492 1.58947,0.42148 2.23821,0.195 3.85335,0.27699 5.60132,0.013 10.20515,0.0696 15.80484,-0.0592 0.71024,-0.10123 1.75257,-0.11091 1.95101,-0.97857 0.12674,-0.4495 0.16169,-0.91798 0.19353,-1.38193 h -22.74548 c 0.006,0.0645 0.0124,0.12902 0.0186,0.19353 z" opacity=".5"/><path id="path922-8-9" fill="#fff" fill-opacity="1" fill-rule="nonzero" stroke="none" stroke-width="1" d="m 321.50391,153 c 8.4e-4,0.36757 0.0139,0.671 0.0215,1 h 28.94922 c 0.008,-0.329 0.0205,-0.63244 0.0215,-1 z" color="#000" display="inline" enable-background="accumulate" opacity=".1" overflow="visible" visibility="visible" style="marker:none"/><path id="path914-3" fill="#000" fill-opacity="1" fill-rule="nonzero" stroke="none" stroke-width="1" d="m 320.5,203 v 1.13477 c 0,1.11158 0.0255,1.98637 0.14648,2.70507 0.12095,0.7187 0.34848,1.30623 0.7793,1.73633 0.43083,0.4301 1.01849,0.6566 1.73828,0.77735 0.71979,0.12078 1.59713,0.14648 2.71094,0.14648 h 6.125 6.125 c 1.11381,0 1.99115,-0.0257 2.71094,-0.14648 0.71979,-0.12075 1.30745,-0.34725 1.73828,-0.77735 0.43082,-0.4301 0.65835,-1.01763 0.7793,-1.73633 0.12098,-0.7187 0.14648,-1.59349 0.14648,-2.70507 V 203 Z" color="#000" display="inline" enable-background="accumulate" opacity=".2" overflow="visible" visibility="visible" style="marker:none"/><path id="path914-3-1" fill="#fff" fill-opacity="1" fill-rule="nonzero" stroke="none" stroke-width="1" d="m 320.5,202 v 1 h 23 v -1 z" color="#000" display="inline" enable-background="accumulate" opacity=".1" overflow="visible" visibility="visible" style="marker:none"/><path id="rect12124" fill="#000" fill-opacity="1" stroke="none" stroke-dasharray="none" stroke-dashoffset="0" stroke-linecap="round" stroke-linejoin="bevel" stroke-miterlimit="10" stroke-opacity="1" stroke-width="2.667" d="m 320.50195,247 c 0.002,0.66129 0.0173,1.20039 0.0937,1.6543 0.0804,0.47763 0.23713,0.89584 0.54688,1.20508 0.30975,0.30921 0.72681,0.46472 1.20508,0.54492 0.47826,0.0802 1.04201,0.0957 1.7539,0.0957 H 328 h 3.89844 c 0.71189,0 1.27564,-0.0155 1.7539,-0.0957 0.47827,-0.0802 0.89533,-0.23571 1.20508,-0.54492 0.30975,-0.30925 0.46648,-0.72745 0.54688,-1.20508 0.0764,-0.45391 0.0922,-0.99301 0.0937,-1.6543 z" opacity=".3"/><path id="rect12124-3" fill="#fff" fill-opacity="1" stroke="none" stroke-dasharray="none" stroke-dashoffset="0" stroke-linecap="round" stroke-linejoin="bevel" stroke-miterlimit="10" stroke-opacity="1" stroke-width="2.667" d="m 320.50195,246 c 10e-4,0.37285 0.0111,0.69821 0.0293,1 h 14.9375 c 0.0182,-0.30179 0.0285,-0.62715 0.0293,-1 z" display="inline" enable-background="new" opacity=".1"/><g id="g9642" display="inline" opacity="1"><path id="path11042-0" fill="#000" fill-opacity="1" stroke="none" stroke-dasharray="none" stroke-linecap="round" stroke-linejoin="round" stroke-miterlimit="4" stroke-opacity="1" stroke-width=".717" d="M 73.404297,212 A 80.291975,80.291975 0 0 0 152,276.29102 80.291975,80.291975 0 0 0 230.67969,212 Z" display="inline" enable-background="new" filter="url(#filter11210)" opacity=".3"/><path id="path11042-7" fill="#000" fill-opacity="1" stroke="none" stroke-dasharray="none" stroke-linecap="round" stroke-linejoin="round" stroke-miterlimit="4" stroke-opacity="1" stroke-width=".717" d="M 72.580078,212 A 81.725754,81.725754 0 0 0 152,274.85742 81.725754,81.725754 0 0 0 231.42578,212 Z" display="inline" enable-background="new" opacity=".1"/><path id="path11042" fill="url(#linearGradient11065)" fill-opacity="1" stroke="none" stroke-dasharray="none" stroke-linecap="round" stroke-linejoin="round" stroke-miterlimit="4" stroke-opacity="1" stroke-width=".717" d="M 74.048828,212 A 80.291977,80.291977 0 0 0 152,273.42383 80.291977,80.291977 0 0 0 229.94727,212 Z" display="inline" enable-background="new" opacity="1"/><path id="path11042-53" fill="#fff" fill-opacity="1" stroke="none" stroke-dasharray="none" stroke-linecap="round" stroke-linejoin="round" stroke-miterlimit="4" stroke-opacity="1" stroke-width=".717" d="m 152,212 v 61.42383 A 80.291975,80.291975 0 0 0 229.95117,212 Z" display="inline" enable-background="new" opacity=".2"/><path id="path11042-53-6" fill="#000" fill-opacity="1" stroke="none" stroke-dasharray="none" stroke-linecap="round" stroke-linejoin="round" stroke-miterlimit="4" stroke-opacity="1" stroke-width=".717" d="m 133.13281,212 -37.908201,37.9082 a 80.291975,80.291975 0 0 0 113.550781,0 L 170.86719,212 Z" display="inline" enable-background="new" opacity=".02"/><path id="path11042-53-6-2" fill="#faf8f6" fill-opacity="1" stroke="none" stroke-dasharray="none" stroke-linecap="round" stroke-linejoin="round" stroke-miterlimit="4" stroke-opacity="1" stroke-width=".717" d="m 170.87891,212 37.88086,37.88281 a 80.291975,80.291975 0 0 0 12.7832,-16.60547 L 184.69141,212 Z m 37.58984,38.19922 a 80.291975,80.291975 0 0 1 -0.91016,0.84766 80.291975,80.291975 0 0 0 0.91016,-0.84766 z m -5.04102,4.51953 a 80.291975,80.291975 0 0 1 -3.18359,2.49414 80.291975,80.291975 0 0 0 3.18359,-2.49414 z m -6.4082,4.82813 a 80.291975,80.291975 0 0 1 -3.41406,2.16015 80.291975,80.291975 0 0 0 3.41406,-2.16015 z m -85.10937,3.0371 -0.0469,0.082 a 80.291975,80.291975 0 0 0 1.36524,0.69921 80.291975,80.291975 0 0 1 -1.31836,-0.78125 z m 78.25781,1.1211 a 80.291975,80.291975 0 0 1 -3.60938,1.81054 80.291975,80.291975 0 0 0 3.60938,-1.81054 z m -73.37695,1.48633 a 80.291975,80.291975 0 0 0 3.64257,1.69531 80.291975,80.291975 0 0 1 -3.64257,-1.69531 z m 66.13086,1.97461 a 80.291975,80.291975 0 0 1 -3.75586,1.43359 80.291975,80.291975 0 0 0 3.75586,-1.43359 z m -58.7461,1.1875 a 80.291975,80.291975 0 0 0 3.77344,1.3164 80.291975,80.291975 0 0 1 -3.77344,-1.3164 z m 51.20117,1.52929 a 80.291975,80.291975 0 0 1 -3.88281,1.05078 80.291975,80.291975 0 0 0 3.88281,-1.05078 z m -43.54687,0.875 a 80.291975,80.291975 0 0 0 3.8789,0.92969 80.291975,80.291975 0 0 1 -3.8789,-0.92969 z m 35.76758,1.07422 a 80.291975,80.291975 0 0 1 -3.95508,0.65625 80.291975,80.291975 0 0 0 3.95508,-0.65625 z m -27.93164,0.54883 a 80.291975,80.291975 0 0 0 3.98046,0.54297 80.291975,80.291975 0 0 1 -3.98046,-0.54297 z m 19.98828,0.61523 a 80.291975,80.291975 0 0 1 -3.98633,0.25782 80.291975,80.291975 0 0 0 3.98633,-0.25782 z m -12.01563,0.22071 a 80.291975,80.291975 0 0 0 4.00391,0.14453 80.291975,80.291975 0 0 1 -4.00391,-0.14453 z" display="inline" enable-background="new" opacity="1"/><path id="path7147" fill="#7f7f7f" fill-opacity="1" stroke="none" stroke-dasharray="none" stroke-dashoffset="0" stroke-linecap="round" stroke-linejoin="round" stroke-miterlimit="4" stroke-opacity="1" stroke-width="1.979" d="m 128,212 c 5.43851,6.22473 12.85913,10.9913 24,11 9.88474,0.1112 18.56553,-4.77987 24,-11 z" display="inline" enable-background="new" opacity="1"/><path id="path7164" fill="#faf8f6" fill-opacity="1" stroke="none" stroke-dasharray="none" stroke-dashoffset="0" stroke-linecap="round" stroke-linejoin="round" stroke-miterlimit="4" stroke-opacity="1" stroke-width="1.843" d="M 134.4375,212 A 25.808134,25.808134 0 0 0 152,218.94141 25.808134,25.808134 0 0 0 169.57812,212 Z" display="inline" enable-background="new" opacity="1"/><path id="path11042-1-7" fill="#000" fill-opacity="1" stroke="none" stroke-dasharray="none" stroke-linecap="round" stroke-linejoin="round" stroke-miterlimit="4" stroke-opacity="1" stroke-width=".717" d="M 74.048828,212 A 80.291975,80.291975 0 0 0 152,273.42383 80.291975,80.291975 0 0 0 229.94727,212 h -0.3418 A 80.291975,80.291975 0 0 1 152,271.99023 80.291975,80.291975 0 0 1 74.449219,212 Z" display="inline" enable-background="new" opacity=".2"/><rect id="rect9611" width="164" height="16" x="72" y="196" fill="#969696" fill-opacity="1" stroke="none" stroke-dasharray="none" stroke-dashoffset="0" stroke-linecap="round" stroke-linejoin="round" stroke-miterlimit="4" stroke-opacity="1" stroke-width="2" opacity="1"/></g><path id="path11736-0" fill="#000" fill-opacity="1" stroke="none" stroke-dasharray="none" stroke-dashoffset="0" stroke-linecap="round" stroke-linejoin="bevel" stroke-miterlimit="10" stroke-opacity="1" stroke-width="2.667" d="m 64.480469,212.07031 c 0.0055,0.46875 0.0101,0.9375 0.01563,1.40625 0.003,0.19789 0.0069,0.39585 0.0098,0.59375 H 239.55859 c 0.0119,-0.66672 0.0303,-1.33327 0.041,-2 z" display="inline" enable-background="new" opacity=".2"/></g><g id="layer9" display="inline"><path id="path901" fill="none" fill-opacity="1" fill-rule="nonzero" stroke="#000" stroke-opacity="1" stroke-width="1" d="m 366.49931,75.731157 c 0,-2.21461 -0.0546,-3.94722 -0.28711,-5.33203 -0.23245,-1.38481 -0.65433,-2.44551 -1.41796,-3.21094 -0.76364,-0.76543 -1.82235,-1.1878 -3.20704,-1.41797 -1.38469,-0.23017 -3.11839,-0.28039 -5.33789,-0.26953 h -12.25 -12.25195 c -2.21833,-0.0108 -3.95176,0.0394 -5.33594,0.26953 -1.38469,0.23017 -2.4434,0.65253 -3.20703,1.41797 -0.76363,0.76544 -1.18551,1.82612 -1.41797,3.21094 -0.23246,1.38481 -0.28711,3.11742 -0.28711,5.33203 v 16.53906 c 0,2.2146 0.0546,3.94454 0.28711,5.32617 0.2325,1.38163 0.65418,2.440643 1.41797,3.203133 0.76378,0.76249 1.82305,1.18385 3.20703,1.41601 1.38398,0.23217 3.11687,0.28516 5.33594,0.28516 h 12.25195 12.25196 c 2.21907,0 3.95195,-0.053 5.33593,-0.28516 1.38399,-0.23216 2.44325,-0.65352 3.20704,-1.41601 0.76378,-0.76249 1.18546,-1.821503 1.41796,-3.203133 0.23251,-1.38163 0.28711,-3.11157 0.28711,-5.32617 z" color="#000" display="inline" enable-background="accumulate" opacity=".4" overflow="visible" visibility="visible" style="marker:none"/><path id="path1089" fill="none" fill-opacity="1" fill-rule="nonzero" stroke="#000" stroke-opacity="1" stroke-width="1" d="m 321.49954,153.80618 c 0,1.41241 0.0342,2.52238 0.18555,3.42383 0.15132,0.90145 0.43164,1.61987 0.95312,2.14258 0.52148,0.5227 1.23898,0.80325 2.14063,0.95312 0.90164,0.14988 2.0101,0.18075 3.42578,0.17383 h 7.79492 7.79688 c 1.41452,0.007 2.52269,-0.024 3.42382,-0.17383 0.90165,-0.14987 1.61915,-0.43041 2.14063,-0.95312 0.52148,-0.52272 0.8018,-1.24112 0.95312,-2.14258 0.15132,-0.90146 0.18555,-2.01142 0.18555,-3.42383 v -11.61523 c 0,-1.41241 -0.0342,-2.51847 -0.18555,-3.41797 -0.15137,-0.8995 -0.43149,-1.61597 -0.95312,-2.13672 -0.52163,-0.52075 -1.23774,-0.80004 -2.13867,-0.95117 -0.90094,-0.15113 -2.01055,-0.18555 -3.42578,-0.18555 h -7.79688 -7.79688 c -1.41524,0 -2.52484,0.0344 -3.42578,0.18555 -0.90093,0.15113 -1.61703,0.43042 -2.13867,0.95117 -0.52163,0.52075 -0.80175,1.23722 -0.95312,2.13672 -0.15137,0.8995 -0.18555,2.00556 -0.18555,3.41797 z" color="#000" display="inline" enable-background="accumulate" opacity=".4" overflow="visible" visibility="visible" style="marker:none"/><path id="path1085" fill="none" fill-opacity="1" fill-rule="nonzero" stroke="#000" stroke-opacity="1" stroke-width="1" d="m 320.49963,204.1344 c 0,1.11158 0.0256,1.98683 0.14648,2.70703 0.1209,0.72019 0.34863,1.3105 0.7793,1.74218 0.43067,0.43169 1.01974,0.65954 1.74024,0.7793 0.72049,0.11977 1.59669,0.14217 2.71093,0.13672 h 6.12305 6.125 c 1.1131,0.005 1.989,-0.017 2.70898,-0.13672 0.72051,-0.11976 1.30957,-0.3476 1.74024,-0.7793 0.43067,-0.43169 0.6584,-1.02199 0.7793,-1.74218 0.12089,-0.7202 0.14648,-1.59545 0.14648,-2.70703 v -8.26954 c 0,-1.11158 -0.0255,-1.98637 -0.14648,-2.70507 -0.12095,-0.7187 -0.34848,-1.30623 -0.7793,-1.73633 -0.43083,-0.4301 -1.01849,-0.6566 -1.73828,-0.77735 -0.71979,-0.12074 -1.59713,-0.14648 -2.71094,-0.14648 h -6.125 -6.125 c -1.11381,0 -1.99115,0.0257 -2.71094,0.14648 -0.71979,0.12075 -1.30745,0.34725 -1.73828,0.77735 -0.43082,0.4301 -0.65835,1.01763 -0.7793,1.73633 -0.12094,0.7187 -0.14648,1.59349 -0.14648,2.70507 z" color="#000" display="inline" enable-background="accumulate" opacity=".4" overflow="visible" visibility="visible" style="marker:none"/><path id="path1087" fill="none" fill-opacity="1" fill-rule="nonzero" stroke="#000" stroke-opacity="1" stroke-width="1" d="m 320.49977,246.90407 c 0,0.71048 0.0154,1.27344 0.0957,1.75195 0.0803,0.47851 0.23728,0.89671 0.54688,1.20703 0.30959,0.31032 0.7261,0.46726 1.20508,0.54688 0.47897,0.0796 1.04352,0.0933 1.75586,0.0898 h 3.89648 3.89844 c 0.71121,0.003 1.27546,-0.0103 1.7539,-0.0898 0.47898,-0.0796 0.89549,-0.23655 1.20508,-0.54688 0.3096,-0.31033 0.46655,-0.72851 0.54688,-1.20703 0.0803,-0.47852 0.0957,-1.04147 0.0957,-1.75195 v -5.8086 c 0,-0.71048 -0.0153,-1.27236 -0.0957,-1.75 -0.0804,-0.47763 -0.23713,-0.89584 -0.54688,-1.20508 -0.30975,-0.30921 -0.72681,-0.46469 -1.20508,-0.54492 -0.47826,-0.0802 -1.04201,-0.0957 -1.7539,-0.0957 h -3.89844 -3.89844 c -0.71189,0 -1.27564,0.0155 -1.7539,0.0957 -0.47827,0.0802 -0.89533,0.2357 -1.20508,0.54492 -0.30975,0.30924 -0.4665,0.72745 -0.54688,1.20508 -0.0804,0.47764 -0.0957,1.03952 -0.0957,1.75 z" color="#000" display="inline" enable-background="accumulate" opacity=".4" overflow="visible" visibility="visible" style="marker:none"/></g><g id="layer5" display="inline"><path id="path990" fill="none" fill-opacity="1" fill-rule="nonzero" stroke="url(#linearGradient1004)" stroke-dasharray="none" stroke-miterlimit="4" stroke-opacity="1" stroke-width="2" d="m 335.73108,62 c -8.82418,0 -9.77365,0.90635 -9.7304,9.74838 V 84 96.25162 c -0.0433,8.84203 0.90622,9.74838 9.7304,9.74838 h 16.53919 c 8.82418,0 9.7304,-0.90625 9.7304,-9.74838 V 84 71.74838 C 362.00067,62.90625 361.09445,62 352.27027,62 Z" clip-path="url(#clipPath994-5)" color="#000" display="inline" enable-background="accumulate" opacity=".4" overflow="visible" transform="rotate(90,344,84.000001)" visibility="visible" style="marker:none"/><path id="path935" fill="none" fill-opacity="1" fill-rule="nonzero" stroke="url(#linearGradient981)" stroke-dasharray="none" stroke-miterlimit="4" stroke-opacity="1" stroke-width="2" d="m 327.8652,189 c -4.41209,0 -4.88682,0.45318 -4.8652,4.87419 V 200 206.12581 C 322.9783,210.54682 323.45311,211 327.8652,211 h 8.2696 C 340.54689,211 341,210.54688 341,206.12581 V 200 193.87419 C 341,189.45313 340.54688,189 336.13479,189 Z" clip-path="url(#clipPath971)" color="#000" display="inline" enable-background="accumulate" opacity=".4" overflow="visible" transform="rotate(-90,331.99966,200)" visibility="visible" style="marker:none"/><path id="path937" fill="none" fill-opacity="1" fill-rule="nonzero" stroke="url(#linearGradient993)" stroke-dasharray="none" stroke-miterlimit="4" stroke-opacity="1" stroke-width="2" d="m 325.09646,237 c -2.80769,0 -3.10979,0.28839 -3.09603,3.10176 V 244 v 3.89824 c -0.0138,2.81337 0.28834,3.10176 3.09603,3.10176 h 5.8075 C 333.71166,251 334,250.71165 334,247.89824 V 244 240.10176 C 334,237.28836 333.71165,237 330.90396,237 Z" clip-path="url(#clipPath983)" color="#000" display="inline" enable-background="accumulate" opacity=".4" overflow="visible" transform="rotate(-90,328,244)" visibility="visible" style="marker:none"/><path id="path939" fill="none" fill-opacity="1" fill-rule="nonzero" stroke="url(#linearGradient969)" stroke-dasharray="none" stroke-miterlimit="4" stroke-opacity="1" stroke-width="2" d="m 330.1929,133.99999 c -5.61538,0 -6.21958,0.57678 -6.19206,6.20352 v 7.79648 7.79648 c -0.0276,5.62673 0.57668,6.20351 6.19206,6.20351 h 11.615 c 5.6154,0 6.19208,-0.5767 6.19208,-6.20351 v -7.79648 -7.79648 c 0,-5.6268 -0.5767,-6.20352 -6.19208,-6.20352 z" clip-path="url(#clipPath959)" color="#000" display="inline" enable-background="accumulate" opacity=".4" overflow="visible" transform="rotate(-90,335.99998,147.99998)" visibility="visible" style="marker:none"/><path id="path11845" fill="#000" fill-opacity="1" stroke="none" stroke-dasharray="none" stroke-dashoffset="0" stroke-linecap="round" stroke-linejoin="bevel" stroke-miterlimit="10" stroke-opacity="1" stroke-width="2.667" d="m 325.60546,94.41686 c 0.12152,1.17026 -0.0237,2.46477 0.5293,3.53174 1.64748,0.58682 3.44825,0.2675 5.16258,0.3851 9.10377,0.0329 18.32585,0.0919 27.41764,-0.0155 1.02103,-0.11127 2.17587,0.11734 3.1146,-0.36882 0.62302,-0.92859 0.37828,-2.17545 0.49781,-3.23609 0.37599,-1.08502 -0.84743,-0.60796 -1.48389,-0.70361 -11.75122,0 -23.50244,0 -35.25366,0 0.005,0.13574 0.0104,0.27149 0.0156,0.40723 z" display="inline" enable-background="new" opacity=".5"/><path id="path11845-2" fill="#fff" fill-opacity="1" stroke="none" stroke-dasharray="none" stroke-dashoffset="0" stroke-linecap="round" stroke-linejoin="bevel" stroke-miterlimit="10" stroke-opacity="1" stroke-width="2.667" d="m 325.58984,95.009766 c 0.005,0.13574 0.0104,0.272463 0.0156,0.408203 0.12152,1.17026 -0.0237,2.46428 0.5293,3.53125 1.64748,0.58682 3.44778,0.267165 5.16211,0.384765 9.10376,0.0329 18.32617,0.09177 27.41796,-0.01563 1.02103,-0.11127 2.17651,0.11702 3.11524,-0.36914 0.62302,-0.92859 0.37852,-2.175688 0.49804,-3.236328 0.10542,-0.304206 0.0764,-0.476357 -0.0215,-0.582032 -0.0409,0.96005 0.0673,2.007782 -0.47656,2.81836 -0.93873,0.48616 -2.09421,0.25787 -3.11524,0.36914 -9.09179,0.1074 -18.3142,0.04852 -27.41796,0.01563 -1.71433,-0.1176 -3.51463,0.202055 -5.16211,-0.384765 -0.46204,-0.891466 -0.44607,-1.935489 -0.4961,-2.939453 z" display="inline" enable-background="new" opacity=".3"/><g id="g10096" transform="translate(0.503906)"><path id="path9498-0-0" fill="#000" fill-opacity="1" stroke="none" stroke-dasharray="none" stroke-linecap="round" stroke-linejoin="round" stroke-miterlimit="4" stroke-opacity="1" stroke-width="1.572" d="M 325.57227,94 A 18.499979,18.499979 0 0 0 343.5,108 18.499979,18.499979 0 0 0 361.41992,94 Z" display="inline" enable-background="new" opacity=".1"/><path id="path9498-6" fill="url(#linearGradient8588)" fill-opacity="1" stroke="none" stroke-dasharray="none" stroke-linecap="round" stroke-linejoin="round" stroke-miterlimit="4" stroke-opacity="1" stroke-width="1.504" d="M 326.2168,94 A 18.097807,18.097807 0 0 0 343.5,106.79297 18.097807,18.097807 0 0 0 360.80078,94 Z" display="inline" enable-background="new" opacity="1"/><path id="path11042-53-1" fill="#fff" fill-opacity="1" stroke="none" stroke-dasharray="none" stroke-linecap="round" stroke-linejoin="round" stroke-miterlimit="4" stroke-opacity="1" stroke-width=".162" d="m 343.5,94 v 12.79297 A 18.097806,18.097806 0 0 0 360.7832,94 Z" display="inline" enable-background="new" opacity=".2"/><path id="path11042-53-6-27" fill="#000" fill-opacity="1" stroke="none" stroke-dasharray="none" stroke-linecap="round" stroke-linejoin="round" stroke-miterlimit="4" stroke-opacity="1" stroke-width=".162" d="m 338.19531,94 -7.49219,7.49219 a 18.097806,18.097806 0 0 0 25.59376,0 L 348.80469,94 Z" display="inline" enable-background="new" opacity=".02"/><path id="path11042-53-6-2-0" fill="#faf8f6" fill-opacity="1" stroke="none" stroke-dasharray="none" stroke-linecap="round" stroke-linejoin="round" stroke-miterlimit="4" stroke-opacity="1" stroke-width=".162" d="m 348.80664,94 7.48633,7.48633 a 18.097806,18.097806 0 0 0 2.88281,-3.742189 L 352.68945,94 Z m 7.42188,7.55859 a 18.097806,18.097806 0 0 1 -0.20508,0.19141 18.097806,18.097806 0 0 0 0.20508,-0.19141 z m -1.13672,1.01953 a 18.097806,18.097806 0 0 1 -0.7168,0.56055 18.097806,18.097806 0 0 0 0.7168,-0.56055 z m -1.44336,1.0879 a 18.097806,18.097806 0 0 1 -0.76953,0.48632 18.097806,18.097806 0 0 0 0.76953,-0.48632 z m -19.18555,0.68359 -0.01,0.0195 a 18.097806,18.097806 0 0 0 0.30665,0.15625 18.097806,18.097806 0 0 1 -0.29688,-0.17578 z m 17.64063,0.25391 a 18.097806,18.097806 0 0 1 -0.81446,0.40625 18.097806,18.097806 0 0 0 0.81446,-0.40625 z m -16.53907,0.33398 a 18.097806,18.097806 0 0 0 0.82032,0.38281 18.097806,18.097806 0 0 1 -0.82032,-0.38281 z m 14.9043,0.44531 a 18.097806,18.097806 0 0 1 -0.8457,0.32422 18.097806,18.097806 0 0 0 0.8457,-0.32422 z m -13.24023,0.26758 a 18.097806,18.097806 0 0 0 0.8496,0.29688 18.097806,18.097806 0 0 1 -0.8496,-0.29688 z m 11.54101,0.3457 a 18.097806,18.097806 0 0 1 -0.875,0.23633 18.097806,18.097806 0 0 0 0.875,-0.23633 z m -9.81641,0.19727 a 18.097806,18.097806 0 0 0 0.875,0.20898 18.097806,18.097806 0 0 1 -0.875,-0.20898 z m 8.0625,0.24219 a 18.097806,18.097806 0 0 1 -0.89257,0.14648 18.097806,18.097806 0 0 0 0.89257,-0.14648 z m -6.29492,0.12304 a 18.097806,18.097806 0 0 0 0.89649,0.12305 18.097806,18.097806 0 0 1 -0.89649,-0.12305 z m 4.50391,0.13868 a 18.097806,18.097806 0 0 1 -0.89844,0.0586 18.097806,18.097806 0 0 0 0.89844,-0.0586 z m -2.70703,0.0488 a 18.097806,18.097806 0 0 0 0.90234,0.0332 18.097806,18.097806 0 0 1 -0.90234,-0.0332 z" display="inline" enable-background="new" opacity="1"/><path id="path7147-9" fill="#7f7f7f" fill-opacity="1" stroke="none" stroke-dasharray="none" stroke-dashoffset="0" stroke-linecap="round" stroke-linejoin="round" stroke-miterlimit="4" stroke-opacity="1" stroke-width=".518" d="m 337.51172,94 a 7.4999995,7.4999995 0 0 0 5.98828,3 7.4999995,7.4999995 0 0 0 5.99023,-3 z" display="inline" enable-background="new" opacity="1"/><path id="path7164-3" fill="#faf8f6" fill-opacity="1" stroke="none" stroke-dasharray="none" stroke-dashoffset="0" stroke-linecap="round" stroke-linejoin="round" stroke-miterlimit="4" stroke-opacity="1" stroke-width=".464" d="m 338.8125,94 a 6.5,6.5 0 0 0 4.6875,2 6.5,6.5 0 0 0 4.67969,-2 z" display="inline" enable-background="new" opacity="1"/><path id="path9498-9-1" fill="#000" fill-opacity="1" stroke="none" stroke-dasharray="none" stroke-linecap="round" stroke-linejoin="round" stroke-miterlimit="4" stroke-opacity="1" stroke-width="1.572" d="M 325.78516,94 A 18.49998,18.49998 0 0 0 343.5,107.19531 18.49998,18.49998 0 0 0 361.20703,94 h -0.82226 c -2.25406,7.1807 -8.96031,12.39063 -16.88477,12.39062 -7.92447,0 -14.63071,-5.20992 -16.88477,-12.39062 z" display="inline" enable-background="new" opacity=".4"/><path id="path9498-1-6" fill="url(#linearGradient8590)" fill-opacity="1" stroke="none" stroke-dasharray="none" stroke-linecap="round" stroke-linejoin="round" stroke-miterlimit="4" stroke-opacity="1" stroke-width="1.504" d="M 326.62109,94 A 17.695633,17.695625 0 0 0 343.5,106.39062 17.695633,17.695625 0 0 0 360.36133,94 h -0.80274 A 16.926257,16.92625 0 0 1 343.5,105.62109 16.926257,16.92625 0 0 1 327.44922,94 Z" display="inline" enable-background="new" opacity=".7"/></g><path id="path11845-7" fill="#000" fill-opacity="1" stroke="none" stroke-dasharray="none" stroke-dashoffset="0" stroke-linecap="round" stroke-linejoin="bevel" stroke-miterlimit="10" stroke-opacity="1" stroke-width="2.667" d="m 361.96484,93.990234 c -0.33841,-0.02832 -0.80286,0.06736 -1.12109,0.01953 h -35.25391 c 0.005,0.13574 0.0104,0.27051 0.0156,0.40625 0.02,0.192494 0.0233,0.396097 0.0332,0.59375 h 35.20508 c 0.45802,0.06883 1.21174,-0.150144 1.46289,0.121093 0.006,-0.139774 0.006,-0.283174 0.0215,-0.417968 0.188,-0.54251 -0.0249,-0.694338 -0.36328,-0.722657 z" display="inline" enable-background="new" opacity=".2"/><path id="path9498-0-0-2" fill="#000" fill-opacity="1" stroke="none" stroke-dasharray="none" stroke-linecap="round" stroke-linejoin="round" stroke-miterlimit="4" stroke-opacity="1" stroke-width="1.563" d="M 324.70117,156 A 11.999979,11.999979 0 0 0 336,164 a 11.999979,11.999979 0 0 0 11.29883,-8 z" display="inline" enable-background="new" opacity=".1"/><path id="path9498-6-5" fill="url(#linearGradient8588-0)" fill-opacity="1" stroke="none" stroke-dasharray="none" stroke-linecap="round" stroke-linejoin="round" stroke-miterlimit="4" stroke-opacity="1" stroke-width="1.496" d="M 325.45508,156 A 11.599982,11.599982 0 0 0 336,162.80078 11.599982,11.599982 0 0 0 346.54688,156 Z" display="inline" enable-background="new" opacity="1"/><path id="path11042-53-1-6" fill="#fff" fill-opacity="1" stroke="none" stroke-dasharray="none" stroke-linecap="round" stroke-linejoin="round" stroke-miterlimit="4" stroke-opacity="1" stroke-width=".104" d="m 336,156 v 6.80078 A 11.599983,11.599983 0 0 0 346.54492,156 Z" display="inline" enable-background="new" opacity=".2"/><path id="path11042-53-6-27-2" fill="#000" fill-opacity="1" stroke="none" stroke-dasharray="none" stroke-linecap="round" stroke-linejoin="round" stroke-miterlimit="4" stroke-opacity="1" stroke-width=".104" d="m 331.19922,156 -3.40234,3.40234 a 11.599983,11.599983 0 0 0 16.40624,0 L 340.80078,156 Z" display="inline" enable-background="new" opacity=".02"/><path id="path11042-53-6-2-0-6" fill="#faf8f6" fill-opacity="1" stroke="none" stroke-dasharray="none" stroke-linecap="round" stroke-linejoin="round" stroke-miterlimit="4" stroke-opacity="1" stroke-width=".104" d="m 340.80273,156 3.39844,3.39844 A 11.599983,11.599983 0 0 0 346.04688,157 l -1.73243,-1 z m 3.35547,3.44531 a 11.599983,11.599983 0 0 1 -0.13086,0.1211 11.599983,11.599983 0 0 0 0.13086,-0.1211 z m -0.72851,0.65235 a 11.599983,11.599983 0 0 1 -0.45899,0.35937 11.599983,11.599983 0 0 0 0.45899,-0.35937 z m -0.92578,0.69726 a 11.599983,11.599983 0 0 1 -0.49219,0.3125 11.599983,11.599983 0 0 0 0.49219,-0.3125 z m -12.29493,0.43946 -0.008,0.0117 a 11.599983,11.599983 0 0 0 0.19727,0.10157 11.599983,11.599983 0 0 1 -0.18946,-0.11328 z m 11.30469,0.1621 a 11.599983,11.599983 0 0 1 -0.52148,0.26172 11.599983,11.599983 0 0 0 0.52148,-0.26172 z m -10.59961,0.21485 a 11.599983,11.599983 0 0 0 0.52539,0.24414 11.599983,11.599983 0 0 1 -0.52539,-0.24414 z m 9.55274,0.28515 a 11.599983,11.599983 0 0 1 -0.54102,0.20704 11.599983,11.599983 0 0 0 0.54102,-0.20704 z m -8.48633,0.17188 a 11.599983,11.599983 0 0 0 0.54492,0.18945 11.599983,11.599983 0 0 1 -0.54492,-0.18945 z m 7.39648,0.2207 a 11.599983,11.599983 0 0 1 -0.56054,0.15039 11.599983,11.599983 0 0 0 0.56054,-0.15039 z m -6.29101,0.125 a 11.599983,11.599983 0 0 0 0.56054,0.13477 11.599983,11.599983 0 0 1 -0.56054,-0.13477 z m 5.16797,0.15625 a 11.599983,11.599983 0 0 1 -0.57227,0.0937 11.599983,11.599983 0 0 0 0.57227,-0.0937 z m -4.03516,0.0781 a 11.599983,11.599983 0 0 0 0.57422,0.0801 11.599983,11.599983 0 0 1 -0.57422,-0.0801 z m 2.88672,0.0898 a 11.599983,11.599983 0 0 1 -0.57617,0.0371 11.599983,11.599983 0 0 0 0.57617,-0.0371 z m -1.73633,0.0312 a 11.599983,11.599983 0 0 0 0.58008,0.0215 11.599983,11.599983 0 0 1 -0.58008,-0.0215 z" display="inline" enable-background="new" opacity="1"/><path id="path9498-9-1-2" fill="#000" fill-opacity="1" stroke="none" stroke-dasharray="none" stroke-linecap="round" stroke-linejoin="round" stroke-miterlimit="4" stroke-opacity="1" stroke-width="1.563" d="m 325.00586,156 c 1.85242,4.23656 6.07455,7.19922 10.99414,7.19922 4.91959,0 9.14172,-2.96266 10.99414,-7.19922 h -0.82812 c -1.74894,3.83117 -5.56266,6.40039 -10.16602,6.40039 -4.60335,0 -8.41708,-2.56922 -10.16602,-6.40039 z" display="inline" enable-background="new" opacity=".4"/><path id="path9498-1-6-7" fill="url(#linearGradient8590-3)" fill-opacity="1" stroke="none" stroke-dasharray="none" stroke-linecap="round" stroke-linejoin="round" stroke-miterlimit="4" stroke-opacity="1" stroke-width="1.496" d="m 325.89258,156 c 1.79877,3.78067 5.64196,6.40039 10.10742,6.40039 4.46547,0 8.30866,-2.61972 10.10742,-6.40039 h -0.81836 c -1.68165,3.37593 -5.12659,5.59961 -9.28906,5.59961 -4.16246,0 -7.6074,-2.22368 -9.28906,-5.59961 z" display="inline" enable-background="new" opacity=".7"/><path id="path11966-3" fill="#000" fill-opacity="1" stroke="none" stroke-dasharray="none" stroke-dashoffset="0" stroke-linecap="round" stroke-linejoin="bevel" stroke-miterlimit="10" stroke-opacity="1" stroke-width="2.667" d="m 324.62346,156.01172 c 0.006,0.0645 0.0133,0.12885 0.0195,0.19336 0.0303,0.24243 0.0589,0.52638 0.10547,0.80664 h 22.50144 c 0.0594,-0.33031 0.0962,-0.66559 0.11915,-1 z" display="inline" enable-background="new" opacity=".2"/><path id="path9970" fill="#3c3c3c" fill-opacity="1" stroke="none" stroke-dasharray="none" stroke-dashoffset="0" stroke-linecap="round" stroke-linejoin="round" stroke-miterlimit="4" stroke-opacity="1" stroke-width="2" d="m 333.00977,156 a 5,5 0 0 0 2.99023,1 5,5 0 0 0 2.99023,-1 z" opacity="1"/><path id="path9498-0-0-2-0" fill="#000" fill-opacity="1" stroke="none" stroke-dasharray="none" stroke-linecap="round" stroke-linejoin="round" stroke-miterlimit="4" stroke-opacity="1" stroke-width="1.368" d="m 322.25,205 a 10.499982,10.499982 0 0 0 9.88648,7 10.499982,10.499982 0 0 0 9.88647,-7 z" display="inline" enable-background="new" opacity=".1"/><path id="path9498-6-5-7" fill="url(#linearGradient10081)" fill-opacity="1" stroke="none" stroke-dasharray="none" stroke-linecap="round" stroke-linejoin="round" stroke-miterlimit="4" stroke-opacity="1" stroke-width="1.309" d="m 322.90967,204.70068 a 10.149984,10.149984 0 0 0 9.22681,5.95068 10.149984,10.149984 0 0 0 9.22852,-5.95068 z" display="inline" enable-background="new" opacity="1"/><path id="path11042-53-1-6-8" fill="#fff" fill-opacity="1" stroke="none" stroke-dasharray="none" stroke-linecap="round" stroke-linejoin="round" stroke-miterlimit="4" stroke-opacity="1" stroke-width=".091" d="m 332.13648,204.70068 v 5.95068 a 10.149985,10.149985 0 0 0 9.2268,-5.95068 z" display="inline" enable-background="new" opacity=".2"/><path id="path11042-53-6-27-2-6" fill="#000" fill-opacity="1" stroke="none" stroke-dasharray="none" stroke-linecap="round" stroke-linejoin="round" stroke-miterlimit="4" stroke-opacity="1" stroke-width=".091" d="m 327.93579,204.70068 -2.97704,2.97705 a 10.149985,10.149985 0 0 0 14.35546,0 l -2.97705,-2.97705 z" display="inline" enable-background="new" opacity=".02"/><path id="path11042-53-6-2-0-6-8" fill="#faf8f6" fill-opacity="1" stroke="none" stroke-dasharray="none" stroke-linecap="round" stroke-linejoin="round" stroke-miterlimit="4" stroke-opacity="1" stroke-width=".091" d="m 336.33886,204.70068 2.97364,2.97363 a 10.149985,10.149985 0 0 0 1.615,-2.09863 l -1.51588,-0.875 z m 2.93604,3.01465 a 10.149985,10.149985 0 0 1 -0.1145,0.10596 10.149985,10.149985 0 0 0 0.1145,-0.10596 z m -0.63745,0.5708 a 10.149985,10.149985 0 0 1 -0.40161,0.31445 10.149985,10.149985 0 0 0 0.40161,-0.31445 z m -0.81005,0.61011 a 10.149985,10.149985 0 0 1 -0.43067,0.27343 10.149985,10.149985 0 0 0 0.43067,-0.27343 z m -10.75807,0.38452 -0.007,0.0102 a 10.149985,10.149985 0 0 0 0.17261,0.0889 10.149985,10.149985 0 0 1 -0.16577,-0.0991 z m 9.89161,0.14184 a 10.149985,10.149985 0 0 1 -0.4563,0.229 10.149985,10.149985 0 0 0 0.4563,-0.229 z m -9.27466,0.18799 a 10.149985,10.149985 0 0 0 0.45971,0.21363 10.149985,10.149985 0 0 1 -0.45971,-0.21363 z m 8.35865,0.24951 a 10.149985,10.149985 0 0 1 -0.4734,0.18116 10.149985,10.149985 0 0 0 0.4734,-0.18116 z m -7.42554,0.1504 a 10.149985,10.149985 0 0 0 0.4768,0.16576 10.149985,10.149985 0 0 1 -0.4768,-0.16576 z m 6.47192,0.19311 a 10.149985,10.149985 0 0 1 -0.49048,0.13159 10.149985,10.149985 0 0 0 0.49048,-0.13159 z m -5.50464,0.10937 a 10.149985,10.149985 0 0 0 0.49048,0.11793 10.149985,10.149985 0 0 1 -0.49048,-0.11793 z m 4.52198,0.13672 a 10.149985,10.149985 0 0 1 -0.50074,0.082 10.149985,10.149985 0 0 0 0.50074,-0.082 z m -3.53077,0.0683 a 10.149985,10.149985 0 0 0 0.50244,0.0701 10.149985,10.149985 0 0 1 -0.50244,-0.0701 z m 2.52588,0.0786 a 10.149985,10.149985 0 0 1 -0.50415,0.0325 10.149985,10.149985 0 0 0 0.50415,-0.0325 z m -1.51929,0.0273 a 10.149985,10.149985 0 0 0 0.50757,0.0188 10.149985,10.149985 0 0 1 -0.50757,-0.0188 z" display="inline" enable-background="new" opacity="1"/><path id="path9498-9-1-2-8" fill="#000" fill-opacity="1" stroke="none" stroke-dasharray="none" stroke-linecap="round" stroke-linejoin="round" stroke-miterlimit="4" stroke-opacity="1" stroke-width="1.368" d="m 322.5166,204.70068 c 1.62087,3.70699 5.31523,6.29932 9.61988,6.29932 4.30464,0 7.999,-2.59233 9.61987,-6.29932 h -0.72461 c -1.53032,3.35227 -4.86732,5.60034 -8.89526,5.60034 -4.02794,0 -7.36495,-2.24807 -8.89527,-5.60034 z" display="inline" enable-background="new" opacity=".4"/><path id="path9498-1-6-7-4" fill="url(#linearGradient10083)" fill-opacity="1" stroke="none" stroke-dasharray="none" stroke-linecap="round" stroke-linejoin="round" stroke-miterlimit="4" stroke-opacity="1" stroke-width="1.309" d="m 323.29248,204.70068 c 1.57393,3.30809 4.93672,5.60034 8.844,5.60034 3.90728,0 7.27007,-2.29225 8.84399,-5.60034 h -0.71607 c -1.47144,2.95394 -4.48576,4.89966 -8.12792,4.89966 -3.64216,0 -6.65648,-1.94572 -8.12793,-4.89966 z" display="inline" enable-background="new" opacity=".7"/><path id="path9970-1" fill="#3c3c3c" fill-opacity="1" stroke="none" stroke-dasharray="none" stroke-dashoffset="0" stroke-linecap="round" stroke-linejoin="round" stroke-miterlimit="4" stroke-opacity="1" stroke-width="1.75" d="m 329.52002,204.975 a 4.375,4.375 0 0 0 2.61646,0.875 4.375,4.375 0 0 0 2.61645,-0.875 z" opacity="1"/><rect id="rect10085" width="20" height="1" x="322" y="205" fill="#000" fill-opacity="1" stroke="none" stroke-dasharray="none" stroke-dashoffset="0" stroke-linecap="round" stroke-linejoin="round" stroke-miterlimit="4" stroke-opacity="1" stroke-width="2" opacity=".2"/><path id="path9498-0-0-2-6" fill="#000" fill-opacity="1" stroke="none" stroke-dasharray="none" stroke-linecap="round" stroke-linejoin="round" stroke-miterlimit="4" stroke-opacity="1" stroke-width=".97" d="m 320.92685,247 a 7.3860616,7.4999869 0 0 0 6.9545,5 7.3860616,7.4999869 0 0 0 6.9545,-5 z" display="inline" enable-background="new" opacity=".1"/><path id="path9498-0-0-2-6-7" fill="#faf8f6" fill-opacity="1" stroke="none" stroke-dasharray="none" stroke-linecap="round" stroke-linejoin="round" stroke-miterlimit="4" stroke-opacity="1" stroke-width=".97" d="m 321.36719,247 a 7.3860616,7.4999869 0 0 0 6.51367,4 7.3860616,7.4999869 0 0 0 6.51953,-4 z" display="inline" enable-background="new" opacity="1"/><path id="path9970-17" fill="#3c3c3c" fill-opacity="1" stroke="none" stroke-dasharray="none" stroke-dashoffset="0" stroke-linecap="round" stroke-linejoin="round" stroke-miterlimit="4" stroke-opacity="1" stroke-width="1.24" d="m 326.04084,247 a 3.0775311,3.125 0 0 0 1.84051,0.625 3.0775311,3.125 0 0 0 1.8405,-0.625 z" opacity="1"/><path id="path9498-0-0-2-6-2" fill="#000" fill-opacity="1" stroke="none" stroke-dasharray="none" stroke-linecap="round" stroke-linejoin="round" stroke-miterlimit="4" stroke-opacity="1" stroke-width=".97" d="m 320.92685,247 a 7.3860616,7.4999869 0 0 0 6.9545,5 7.3860616,7.4999869 0 0 0 6.9545,-5 z" display="inline" enable-background="new" opacity="0"/><path id="path9498-0-0-2-6-7-2" fill="#555" fill-opacity="1" stroke="none" stroke-dasharray="none" stroke-linecap="round" stroke-linejoin="round" stroke-miterlimit="4" stroke-opacity="1" stroke-width=".97" d="M 321.36719 247 A 7.3860616 7.4999869 0 0 0 327.88086 251 A 7.3860616 7.4999869 0 0 0 334.40039 247 L 333.76953 247 A 7.3860616 7.4999869 0 0 1 327.88086 250 A 7.3860616 7.4999869 0 0 1 322.00195 247 L 321.36719 247 z" display="inline" enable-background="new" opacity="1"/><rect id="rect10161" width="14" height="1" x="321" y="247" fill="#919191" fill-opacity="1" stroke="none" stroke-dasharray="none" stroke-dashoffset="0" stroke-linecap="round" stroke-linejoin="round" stroke-miterlimit="4" stroke-opacity="1" stroke-width="2" opacity="1"/><rect id="rect10259" width="20" height="1" x="322" y="204" fill="#949494" fill-opacity="1" stroke="none" stroke-dasharray="none" stroke-dashoffset="0" stroke-linecap="round" stroke-linejoin="round" stroke-miterlimit="4" stroke-opacity="1" stroke-width="2" opacity="1"/><path id="path9498-0-0-2-6-7-6" fill="#555" fill-opacity="1" stroke="none" stroke-dasharray="none" stroke-linecap="round" stroke-linejoin="round" stroke-miterlimit="4" stroke-opacity="1" stroke-width=".848" d="m 326,248 a 5.6442794,7.4999869 0 0 0 2.0015,0.5 A 5.6442794,7.4999869 0 0 0 330,248 Z" display="inline" enable-background="new" opacity="1"/></g></g></svg>