<svg xmlns="http://www.w3.org/2000/svg" xmlns:osb="http://www.openswatchbook.org/uri/2009/osb" xmlns:svg="http://www.w3.org/2000/svg" xmlns:xlink="http://www.w3.org/1999/xlink" id="svg11300" width="400" height="300" display="inline" enable-background="new" version="1.0"><title id="title3004">Suru Icon Theme Template</title><defs id="defs3"><clipPath id="clipPath9430" clipPathUnits="userSpaceOnUse"><path id="path9432" fill="#fff" fill-opacity="1" fill-rule="nonzero" stroke="none" stroke-width="1" d="m 166.0625,-196 h 179.875 C 491.2348,-196 512,-175.28677 512,-30.125 v 148.25 C 512,263.28618 491.2348,284 345.9375,284 H 166.0625 C 20.7652,284 0,263.28618 0,118.125 V -30.125 C 0,-175.28677 20.7652,-196 166.0625,-196 Z" color="#000" display="inline" enable-background="new" overflow="visible" visibility="visible" style="marker:none"/></clipPath><clipPath id="clipPath1082" clipPathUnits="userSpaceOnUse"><path id="path1084" fill="#8c59d9" fill-opacity="1" stroke="none" stroke-dasharray="none" stroke-dashoffset="0" stroke-linecap="round" stroke-linejoin="round" stroke-miterlimit="4" stroke-opacity="1" stroke-width="2" d="M 361.9375,-212 C 507.2348,-212 528,-191.28677 528,-46.125 V 70.125 C 528,215.28618 507.2348,236 361.9375,236 H 214.0625 C 68.7652,236 48,215.28618 48,70.125 V -46.125 C 48,-191.28677 68.7652,-212 214.0625,-212 Z" display="inline" enable-background="new" opacity="1"/></clipPath><filter id="filter4346" width="1.026" height="1.022" x="-.013" y="-.011" color-interpolation-filters="sRGB"><feGaussianBlur id="feGaussianBlur4348" stdDeviation="2.12"/></filter><linearGradient id="linearGradient4358" x1="88" x2="488" y1="88" y2="488" gradientTransform="rotate(-90,287.9946,298)" gradientUnits="userSpaceOnUse" xlink:href="#linearGradient4360"/><linearGradient id="linearGradient4360"><stop id="stop4362" offset="0" stop-color="#000" stop-opacity=".588"/><stop id="stop4364" offset=".88" stop-color="#000" stop-opacity="0"/><stop id="stop4366" offset="1" stop-color="#000" stop-opacity="1"/></linearGradient><filter id="filter4380" width="1.106" height="1.088" x="-.053" y="-.044" color-interpolation-filters="sRGB"><feGaussianBlur id="feGaussianBlur4382" stdDeviation="8.48"/></filter><linearGradient id="linearGradient4226" x1="529.655" x2="-35.31" y1="295.638" y2="295.638" gradientTransform="matrix(0,-0.453125,-0.45311204,0,277.957,268)" gradientUnits="userSpaceOnUse" xlink:href="#linearGradient4338-3"/><linearGradient id="linearGradient951" x1="494.345" x2="0" y1="313.287" y2="313.287" gradientTransform="matrix(0,-0.11328125,-0.11327801,0,379.48855,112)" gradientUnits="userSpaceOnUse" xlink:href="#linearGradient4338-3"/><clipPath id="clipPath994" clipPathUnits="userSpaceOnUse"><path id="path996" fill="#cdcdcd" fill-opacity="1" fill-rule="nonzero" stroke="none" stroke-dasharray="none" stroke-miterlimit="4" stroke-opacity="1" stroke-width="2" d="m 335.73108,62 c -8.82418,0 -9.77365,0.90635 -9.7304,9.74838 V 84 96.25162 c -0.0433,8.84203 0.90622,9.74838 9.7304,9.74838 h 16.53919 c 8.82418,0 9.7304,-0.90625 9.7304,-9.74838 V 84 71.74838 C 362.00067,62.90625 361.09445,62 352.27027,62 Z" color="#000" display="inline" enable-background="accumulate" overflow="visible" visibility="visible" style="marker:none"/></clipPath><linearGradient id="linearGradient916" x1="512" x2="0" y1="313.292" y2="313.292" gradientTransform="matrix(0,-0.05664062,-0.05663901,0,349.74456,214)" gradientUnits="userSpaceOnUse" xlink:href="#linearGradient4338-3"/><linearGradient id="linearGradient920" x1="469.123" x2="25.222" y1="320.848" y2="320.848" gradientTransform="matrix(0,-0.03604403,-0.03604301,0,339.56432,252.90909)" gradientUnits="userSpaceOnUse" xlink:href="#linearGradient4338-3"/><linearGradient id="linearGradient924" x1="524.611" x2="-30.266" y1="320.848" y2="320.848" gradientTransform="matrix(0,-0.07208805,-0.07208601,0,359.12864,165.81816)" gradientUnits="userSpaceOnUse" xlink:href="#linearGradient4338-3"/><linearGradient id="linearGradient1004" x1="344" x2="344" y1="62" y2="106" gradientTransform="rotate(-90,344,84)" gradientUnits="userSpaceOnUse" xlink:href="#linearGradient927"/><linearGradient id="linearGradient927"><stop id="stop923" offset="0" stop-color="#fff" stop-opacity="1"/><stop id="stop933" offset=".125" stop-color="#fff" stop-opacity=".098"/><stop id="stop931" offset=".925" stop-color="#fff" stop-opacity=".098"/><stop id="stop925" offset="1" stop-color="#fff" stop-opacity=".498"/></linearGradient><clipPath id="clipPath994-5" clipPathUnits="userSpaceOnUse"><path id="path996-3" fill="#cdcdcd" fill-opacity="1" fill-rule="nonzero" stroke="none" stroke-dasharray="none" stroke-miterlimit="4" stroke-opacity="1" stroke-width="2" d="m 335.73108,62 c -8.82418,0 -9.77365,0.90635 -9.7304,9.74838 V 84 96.25162 c -0.0433,8.84203 0.90622,9.74838 9.7304,9.74838 h 16.53919 c 8.82418,0 9.7304,-0.90625 9.7304,-9.74838 V 84 71.74838 C 362.00067,62.90625 361.09445,62 352.27027,62 Z" color="#000" display="inline" enable-background="accumulate" overflow="visible" visibility="visible" style="marker:none"/></clipPath><linearGradient id="linearGradient981" x1="332" x2="332" y1="189" y2="211" gradientTransform="rotate(90,331.99966,200)" gradientUnits="userSpaceOnUse" xlink:href="#linearGradient927"/><clipPath id="clipPath971" clipPathUnits="userSpaceOnUse"><path id="path973" fill="#46a926" fill-opacity="1" fill-rule="nonzero" stroke="none" stroke-dasharray="none" stroke-miterlimit="4" stroke-opacity="1" stroke-width="2" d="m 327.8652,189 c -4.41209,0 -4.88682,0.45318 -4.8652,4.87419 V 200 206.12581 C 322.9783,210.54682 323.45311,211 327.8652,211 h 8.2696 C 340.54689,211 341,210.54688 341,206.12581 V 200 193.87419 C 341,189.45313 340.54688,189 336.13479,189 Z" color="#000" display="inline" enable-background="accumulate" opacity="1" overflow="visible" visibility="visible" style="marker:none"/></clipPath><linearGradient id="linearGradient993" x1="328" x2="328" y1="237" y2="251" gradientTransform="rotate(90,328,244)" gradientUnits="userSpaceOnUse" xlink:href="#linearGradient927"/><clipPath id="clipPath983" clipPathUnits="userSpaceOnUse"><path id="path985" fill="#46a926" fill-opacity="1" fill-rule="nonzero" stroke="none" stroke-dasharray="none" stroke-miterlimit="4" stroke-opacity="1" stroke-width="2" d="m 325.09646,237 c -2.80769,0 -3.10979,0.28839 -3.09603,3.10176 V 244 v 3.89824 c -0.0138,2.81337 0.28834,3.10176 3.09603,3.10176 h 5.8075 C 333.71166,251 334,250.71165 334,247.89824 V 244 240.10176 C 334,237.28836 333.71165,237 330.90396,237 Z" color="#000" display="inline" enable-background="accumulate" opacity="1" overflow="visible" visibility="visible" style="marker:none"/></clipPath><linearGradient id="linearGradient969" x1="336" x2="336" y1="134" y2="162" gradientTransform="rotate(90,335.99998,147.99998)" gradientUnits="userSpaceOnUse" xlink:href="#linearGradient927"/><clipPath id="clipPath959" clipPathUnits="userSpaceOnUse"><path id="path961" fill="#46a926" fill-opacity="1" fill-rule="nonzero" stroke="none" stroke-dasharray="none" stroke-miterlimit="4" stroke-opacity="1" stroke-width="2" d="m 330.1929,133.99999 c -5.61538,0 -6.21958,0.57678 -6.19206,6.20352 v 7.79648 7.79648 c -0.0276,5.62673 0.57668,6.20351 6.19206,6.20351 h 11.615 c 5.6154,0 6.19208,-0.5767 6.19208,-6.20351 v -7.79648 -7.79648 c 0,-5.6268 -0.5767,-6.20352 -6.19208,-6.20352 z" color="#000" display="inline" enable-background="accumulate" opacity="1" overflow="visible" visibility="visible" style="marker:none"/></clipPath><linearGradient id="linearGradient4338-3"><stop id="stop4342-7" offset="0" stop-color="#999" stop-opacity="1"/><stop id="stop932" offset=".613" stop-color="#b7b7b7" stop-opacity="1"/><stop id="stop4340-0" offset="1" stop-color="#dbdbdb" stop-opacity="1"/></linearGradient><linearGradient id="linearGradient3045"><stop id="stop3047" offset="0" stop-color="#847784" stop-opacity=".996"/><stop id="stop3049" offset="1" stop-color="#695f69" stop-opacity="1"/></linearGradient><linearGradient id="linearGradient4213"><stop id="stop4215" offset="0" stop-color="#b1d7f3" stop-opacity="1"/><stop id="stop4217" offset="1" stop-color="#8fafda" stop-opacity="1"/></linearGradient><linearGradient id="linearGradient5460" osb:paint="gradient"><stop id="stop5462" offset="0" stop-color="#e6e6e6" stop-opacity="1"/><stop id="stop5464" offset="1" stop-color="#fff" stop-opacity="1"/></linearGradient><linearGradient id="linearGradient5476" osb:paint="solid"><stop id="stop5478" offset="0" stop-color="#772953" stop-opacity="1"/></linearGradient><filter id="filter4154" color-interpolation-filters="sRGB"><feComposite id="feComposite4156" in2="SourceGraphic" k1="0" k2="1" k3="0" k4="0" operator="arithmetic" result="composite1"/><feColorMatrix id="feColorMatrix4158" in="composite1" result="colormatrix1" type="saturate" values="0"/><feFlood id="feFlood4160" flood-color="#483B48" result="flood1"/><feBlend id="feBlend4162" in="flood1" in2="colormatrix1" mode="multiply" result="blend1"/><feBlend id="feBlend4164" in2="blend1" mode="screen" result="blend2"/><feColorMatrix id="feColorMatrix4166" in="blend2" result="colormatrix2" type="saturate" values="1"/><feComposite id="feComposite4168" in="colormatrix2" in2="SourceGraphic" operator="in" result="composite2"/></filter><clipPath id="clipPath3062" clipPathUnits="userSpaceOnUse"><rect id="rect3064" width="475.665" height="445.935" x="34.168" y="-194.968" fill="url(#linearGradient3066)" fill-opacity="1" fill-rule="nonzero" stroke="none" stroke-width="40" color="#000" display="inline" enable-background="new" overflow="visible" visibility="visible" style="marker:none"/></clipPath><linearGradient id="linearGradient3066" x1="256" x2="256" y1="50" y2="288" gradientTransform="matrix(1.8580645,0,0,1.8736786,4.4387126,-288.65166)" gradientUnits="userSpaceOnUse" xlink:href="#linearGradient3045"/><filter id="filter4154-0" color-interpolation-filters="sRGB"><feComposite id="feComposite4156-9" in2="SourceGraphic" k1="0" k2="1" k3="0" k4="0" operator="arithmetic" result="composite1"/><feColorMatrix id="feColorMatrix4158-3" in="composite1" result="colormatrix1" type="saturate" values="0"/><feFlood id="feFlood4160-6" flood-color="#483B48" result="flood1"/><feBlend id="feBlend4162-0" in="flood1" in2="colormatrix1" mode="multiply" result="blend1"/><feBlend id="feBlend4164-6" in2="blend1" mode="screen" result="blend2"/><feColorMatrix id="feColorMatrix4166-2" in="blend2" result="colormatrix2" type="saturate" values="1"/><feComposite id="feComposite4168-6" in="colormatrix2" in2="SourceGraphic" operator="in" result="composite2"/></filter><clipPath id="clipPath3062-1" clipPathUnits="userSpaceOnUse"><rect id="rect3064-8" width="475.665" height="445.935" x="34.168" y="-194.968" fill="url(#linearGradient3066)" fill-opacity="1" fill-rule="nonzero" stroke="none" stroke-width="40" color="#000" display="inline" enable-background="new" overflow="visible" visibility="visible" style="marker:none"/></clipPath><linearGradient id="linearGradient11811" x1="494.345" x2="0" y1="313.287" y2="313.287" gradientTransform="matrix(0,-0.11328125,-0.11327801,0,379.48855,112)" gradientUnits="userSpaceOnUse" xlink:href="#linearGradient4338-3"/></defs><metadata id="metadata4"/><g id="layer1" display="inline"><g id="layer7" display="none"><text enable-background="new" style="line-height:0%;-inkscape-font-specification:'DejaVu Sans'" id="context" x="19.007" y="-8.255" fill="#000" fill-opacity="1" stroke="none" display="inline" font-family="DejaVu Sans" font-stretch="normal" font-style="normal" font-variant="normal" font-weight="normal" xml:space="preserve"><tspan id="tspan3933" x="19.007" y="-8.255" font-family="DejaVu Sans" font-size="18" font-stretch="normal" font-style="normal" font-variant="normal" font-weight="normal" style="line-height:1.25;-inkscape-font-specification:'DejaVu Sans'">devices</tspan></text><text id="icon-name" x="146.488" y="-8.255" fill="#000" fill-opacity="1" stroke="none" display="inline" enable-background="new" font-family="DejaVu Sans" font-stretch="normal" font-style="normal" font-variant="normal" font-weight="bold" text-anchor="start" writing-mode="lr-tb" xml:space="preserve" style="line-height:0%;-inkscape-font-specification:'DejaVu Sans Bold';text-align:start"><tspan id="tspan924" x="146.488" y="-8.255" font-family="DejaVu Sans" font-size="18" font-stretch="normal" font-style="normal" font-variant="normal" font-weight="bold" style="line-height:1.25;-inkscape-font-specification:'DejaVu Sans Bold'">drive-removable-media</tspan></text><rect id="rect16x16" width="16" height="16" x="320" y="236" fill="#cdcdcd" fill-opacity="1" fill-rule="nonzero" stroke="none" stroke-width="2" display="inline" enable-background="accumulate" overflow="visible" visibility="visible" style="marker:none"/><rect id="rect24x24" width="24" height="24" x="320" y="188" fill="#cdcdcd" fill-opacity="1" fill-rule="nonzero" stroke="none" stroke-width="2" display="inline" enable-background="accumulate" overflow="visible" visibility="visible" style="marker:none"/><rect id="rect32x32" width="32" height="32" x="320" y="132" fill="#cdcdcd" fill-opacity="1" fill-rule="nonzero" stroke="none" stroke-width="2" display="inline" enable-background="accumulate" overflow="visible" visibility="visible" style="marker:none"/><rect id="rect48x48" width="48" height="48" x="320" y="60" fill="#cdcdcd" fill-opacity="1" fill-rule="nonzero" stroke="none" stroke-width="2" display="inline" enable-background="accumulate" overflow="visible" visibility="visible" style="marker:none"/><rect id="rect3951" width="256" height="256" x="24" y="28" fill="#cdcdcd" fill-opacity="1" fill-rule="nonzero" stroke="none" stroke-width="2" display="inline" enable-background="accumulate" overflow="visible" visibility="visible" style="marker:none"/><path id="path995" fill="#000" fill-opacity="1" fill-rule="nonzero" stroke="none" stroke-dasharray="none" stroke-dashoffset="0" stroke-linecap="butt" stroke-linejoin="miter" stroke-miterlimit="4" stroke-opacity="1" stroke-width="2" d="m 327.86523,189 c -1.12014,0 -2.01524,0.0241 -2.79101,0.1543 -0.77577,0.13022 -1.48014,0.38763 -2.00977,0.91601 -0.52962,0.52838 -0.79079,1.23687 -0.91992,2.01367 -0.12912,0.77681 -0.15002,1.67169 -0.14453,2.79493 V 201 v 5.125 c -0.005,1.12104 0.0156,2.01529 0.14453,2.79102 0.12912,0.77681 0.39029,1.48529 0.91992,2.01367 0.52964,0.52838 1.234,0.78579 2.00977,0.91601 0.77577,0.13022 1.67087,0.1543 2.79101,0.1543 h 8.26954 c 1.12013,0 2.01264,-0.024 2.78711,-0.1543 0.77446,-0.13033 1.48001,-0.38927 2.00781,-0.91797 0.5278,-0.52869 0.78594,-1.23438 0.91601,-2.00976 C 341.97577,208.14258 342,207.24735 342,206.125 V 201 194.875 c 0,-1.12235 -0.0242,-2.01758 -0.1543,-2.79297 -0.13007,-0.77538 -0.38821,-1.48107 -0.91601,-2.00976 -0.5278,-0.5287 -1.23334,-0.78764 -2.00781,-0.91797 C 338.1474,189.02397 337.25491,189 336.13477,189 Z" baseline-shift="baseline" clip-rule="nonzero" color="#000" color-interpolation="sRGB" color-interpolation-filters="linearRGB" color-rendering="auto" direction="ltr" display="inline" dominant-baseline="auto" enable-background="accumulate" font-family="sans-serif" font-size="medium" font-stretch="normal" font-style="normal" font-variant="normal" font-weight="normal" image-rendering="auto" letter-spacing="normal" opacity=".1" overflow="visible" shape-rendering="auto" text-anchor="start" text-decoration="none" text-rendering="auto" vector-effect="none" visibility="visible" word-spacing="normal" writing-mode="lr-tb" style="line-height:normal;font-variant-ligatures:normal;font-variant-position:normal;font-variant-caps:normal;font-variant-numeric:normal;font-variant-alternates:normal;font-feature-settings:normal;text-indent:0;text-align:start;text-decoration-line:none;text-decoration-style:solid;text-decoration-color:#000;text-transform:none;text-orientation:mixed;white-space:normal;shape-padding:0;isolation:auto;mix-blend-mode:normal;solid-color:#000;solid-opacity:1;marker:none"/><path id="path997" fill="#000" fill-opacity="1" fill-rule="nonzero" stroke="none" stroke-dasharray="none" stroke-dashoffset="0" stroke-linecap="butt" stroke-linejoin="miter" stroke-miterlimit="4" stroke-opacity="1" stroke-width="2" d="m 325.0957,237 c -0.71904,0 -1.30185,0.0139 -1.83593,0.10352 -0.53409,0.0897 -1.0683,0.27628 -1.47657,0.68359 -0.40826,0.4073 -0.59657,0.94323 -0.68554,1.47851 -0.089,0.53529 -0.10119,1.12048 -0.0977,1.8418 V 244 v 3.89844 c -0.003,0.71816 0.009,1.30235 0.0977,1.83594 0.089,0.53528 0.27727,1.07121 0.68554,1.47851 0.40827,0.40731 0.94248,0.59394 1.47657,0.68359 0.53408,0.0897 1.11689,0.10352 1.83593,0.10352 h 5.8086 c 0.71904,0 1.30058,-0.0137 1.83398,-0.10352 0.53341,-0.0898 1.06768,-0.27792 1.47461,-0.68554 0.40693,-0.40762 0.59404,-0.94271 0.68359,-1.47656 C 334.98604,249.20052 335,248.61887 335,247.89844 V 244 241.10156 c 0,-0.72043 -0.014,-1.30208 -0.10352,-1.83594 -0.0895,-0.53385 -0.27666,-1.06894 -0.68359,-1.47656 -0.40693,-0.40762 -0.9412,-0.59578 -1.47461,-0.68554 C 332.20488,237.01375 331.62334,237 330.9043,237 Z" baseline-shift="baseline" clip-rule="nonzero" color="#000" color-interpolation="sRGB" color-interpolation-filters="linearRGB" color-rendering="auto" direction="ltr" display="inline" dominant-baseline="auto" enable-background="accumulate" font-family="sans-serif" font-size="medium" font-stretch="normal" font-style="normal" font-variant="normal" font-weight="normal" image-rendering="auto" letter-spacing="normal" opacity=".1" overflow="visible" shape-rendering="auto" text-anchor="start" text-decoration="none" text-rendering="auto" vector-effect="none" visibility="visible" word-spacing="normal" writing-mode="lr-tb" style="line-height:normal;font-variant-ligatures:normal;font-variant-position:normal;font-variant-caps:normal;font-variant-numeric:normal;font-variant-alternates:normal;font-feature-settings:normal;text-indent:0;text-align:start;text-decoration-line:none;text-decoration-style:solid;text-decoration-color:#000;text-transform:none;text-orientation:mixed;white-space:normal;shape-padding:0;isolation:auto;mix-blend-mode:normal;solid-color:#000;solid-opacity:1;marker:none"/><path id="path999" fill="#000" fill-opacity="1" fill-rule="nonzero" stroke="none" stroke-dasharray="none" stroke-dashoffset="0" stroke-linecap="butt" stroke-linejoin="miter" stroke-miterlimit="4" stroke-opacity="1" stroke-width="2" d="m 330.19336,134 c -1.42096,0 -2.54883,0.0308 -3.50586,0.19141 -0.95703,0.16064 -1.79146,0.4726 -2.41211,1.09179 -0.62065,0.61919 -0.93647,1.45612 -1.0957,2.41407 -0.15924,0.95795 -0.18666,2.08705 -0.17969,3.51171 V 149 v 7.79688 c -0.007,1.42131 0.0207,2.5495 0.17969,3.50585 0.15923,0.95796 0.47505,1.79488 1.0957,2.41407 0.62065,0.61919 1.45508,0.93115 2.41211,1.09179 0.95703,0.16065 2.0849,0.19141 3.50586,0.19141 h 11.61523 c 1.42097,0 2.54669,-0.0307 3.50196,-0.19141 0.95527,-0.16075 1.78779,-0.47425 2.40625,-1.09375 0.61845,-0.6195 0.93134,-1.45363 1.09179,-2.41015 C 348.96905,159.34816 349,158.22066 349,156.79688 V 149 141.20312 c 0,-1.42378 -0.031,-2.55128 -0.19141,-3.50781 -0.16045,-0.95653 -0.47334,-1.79065 -1.09179,-2.41015 -0.61846,-0.61951 -1.45098,-0.933 -2.40625,-1.09375 C 344.35528,134.03065 343.22956,134 341.80859,134 Z" baseline-shift="baseline" clip-rule="nonzero" color="#000" color-interpolation="sRGB" color-interpolation-filters="linearRGB" color-rendering="auto" direction="ltr" display="inline" dominant-baseline="auto" enable-background="accumulate" font-family="sans-serif" font-size="medium" font-stretch="normal" font-style="normal" font-variant="normal" font-weight="normal" image-rendering="auto" letter-spacing="normal" opacity=".1" overflow="visible" shape-rendering="auto" text-anchor="start" text-decoration="none" text-rendering="auto" vector-effect="none" visibility="visible" word-spacing="normal" writing-mode="lr-tb" style="line-height:normal;font-variant-ligatures:normal;font-variant-position:normal;font-variant-caps:normal;font-variant-numeric:normal;font-variant-alternates:normal;font-feature-settings:normal;text-indent:0;text-align:start;text-decoration-line:none;text-decoration-style:solid;text-decoration-color:#000;text-transform:none;text-orientation:mixed;white-space:normal;shape-padding:0;isolation:auto;mix-blend-mode:normal;solid-color:#000;solid-opacity:1;marker:none"/></g><g id="layer4" display="inline"><path id="path1020" fill="#000" fill-opacity="1" fill-rule="nonzero" stroke="none" stroke-dasharray="none" stroke-dashoffset="0" stroke-linecap="butt" stroke-linejoin="miter" stroke-miterlimit="4" stroke-opacity="1" stroke-width="2" d="m 366.99928,76.731193 c 0,-2.22316 -0.0512,-3.97368 -0.29297,-5.41406 -0.24179,-1.44039 -0.6953,-2.61905 -1.55664,-3.48243 -0.86134,-0.86337 -2.03947,-1.31906 -3.48047,-1.55859 -1.441,-0.23953 -3.19534,-0.28629 -5.42383,-0.27539 h -12.24609 -12.25196 c -2.22506,-0.0108 -3.97851,0.0361 -5.41796,0.27539 -1.441,0.23953 -2.61913,0.69522 -3.48047,1.55859 -0.86134,0.86338 -1.31486,2.04204 -1.55664,3.48243 -0.24179,1.44039 -0.29297,3.1909 -0.29297,5.41406 v 16.53906 c 0,2.22316 0.0511,3.97276 0.29297,5.41016 0.24189,1.437397 0.69694,2.612457 1.55859,3.472647 0.86165,0.8602 2.03894,1.3132 3.47852,1.55469 1.43957,0.24149 3.19035,0.29297 5.41796,0.29297 h 12.25196 12.25195 c 2.22761,0 3.97839,-0.0515 5.41797,-0.29297 1.43957,-0.24149 2.61686,-0.69449 3.47851,-1.55469 0.86166,-0.86019 1.31671,-2.03525 1.5586,-3.472647 0.24189,-1.4374 0.29297,-3.187 0.29297,-5.41016 z" baseline-shift="baseline" clip-rule="nonzero" color="#000" color-interpolation="sRGB" color-interpolation-filters="linearRGB" color-rendering="auto" direction="ltr" display="inline" dominant-baseline="auto" enable-background="accumulate" font-family="sans-serif" font-size="medium" font-stretch="normal" font-style="normal" font-variant="normal" font-weight="normal" image-rendering="auto" letter-spacing="normal" opacity=".1" overflow="visible" shape-rendering="auto" text-anchor="start" text-decoration="none" text-rendering="auto" vector-effect="none" visibility="visible" word-spacing="normal" writing-mode="lr-tb" style="line-height:normal;font-variant-ligatures:normal;font-variant-position:normal;font-variant-caps:normal;font-variant-numeric:normal;font-variant-alternates:normal;font-feature-settings:normal;text-indent:0;text-align:start;text-decoration-line:none;text-decoration-style:solid;text-decoration-color:#000;text-transform:none;text-orientation:mixed;white-space:normal;shape-padding:0;isolation:auto;mix-blend-mode:normal;solid-color:#000;solid-opacity:1;marker:none"/><path id="rect4158-9" fill="#000" fill-opacity="1" fill-rule="nonzero" stroke="none" stroke-width="2" d="M 189.84323,74 C 119.24979,74 111.65402,81.250835 112,151.98706 V 298 444.01294 C 111.65402,514.74917 119.24979,522 189.84323,522 H 386.15677 C 456.75021,522 462.16345,514.72616 464,444.01294 V 298 151.98706 C 464,81.249993 456.75021,74 386.15677,74 Z" color="#000" display="inline" enable-background="accumulate" filter="url(#filter4346)" opacity=".1" overflow="visible" transform="matrix(0,0.5,-0.5,0,300.9973,13.002698)" visibility="visible" style="marker:none"/><path id="path4350" fill="url(#linearGradient4358)" fill-opacity="1" fill-rule="nonzero" stroke="none" stroke-width="2" d="M 189.84323,74 C 119.24979,74 111.65402,81.250835 112,151.98706 V 298 444.01294 C 111.65402,514.74917 119.24979,522 189.84323,522 H 386.15677 C 456.75021,522 464,514.75001 464,444.01294 V 298 151.98706 C 464,81.249993 456.75021,74 386.15677,74 Z" color="#000" display="inline" enable-background="accumulate" filter="url(#filter4380)" opacity=".3" overflow="visible" transform="matrix(0,0.5,-0.5,0,300.9973,13.002698)" visibility="visible" style="marker:none"/></g><g id="layer2" display="inline"><path id="path949" fill="url(#linearGradient951)" fill-opacity="1" fill-rule="nonzero" stroke="none" stroke-width="1" d="m 366.49932,92.268843 c 0,2.21461 -0.0547,3.94722 -0.28711,5.33203 -0.23246,1.38481 -0.65434,2.445507 -1.41797,3.210937 -0.76363,0.76543 -1.82234,1.1878 -3.20703,1.41797 -1.38469,0.23017 -3.1184,0.28039 -5.33789,0.26953 h -12.25 -12.25196 c -2.21833,0.0108 -3.95175,-0.0394 -5.33593,-0.26953 -1.38469,-0.23017 -2.4434,-0.65253 -3.20703,-1.41797 -0.76363,-0.76544 -1.18551,-1.826117 -1.41797,-3.210937 -0.23246,-1.38481 -0.28711,-3.11742 -0.28711,-5.33203 v -16.53906 c 0,-2.2146 0.0546,-3.94454 0.28711,-5.32617 0.2325,-1.38163 0.65418,-2.44064 1.41797,-3.20313 0.76378,-0.76249 1.82305,-1.18385 3.20703,-1.41601 1.38398,-0.23217 3.11686,-0.28516 5.33593,-0.28516 h 12.25196 12.25195 c 2.21907,0 3.95196,0.053 5.33594,0.28516 1.38398,0.23216 2.44325,0.65352 3.20703,1.41601 0.76378,0.76249 1.18546,1.8215 1.41797,3.20313 0.2325,1.38163 0.28711,3.11157 0.28711,5.32617 z" color="#000" display="inline" enable-background="accumulate" overflow="visible" visibility="visible" style="marker:none"/><path id="rect4158" fill="url(#linearGradient4226)" fill-opacity="1" fill-rule="nonzero" stroke="none" stroke-width="1" d="m 263.9973,205.07568 c 0,35.29673 -3.62542,39.09461 -38.99353,38.92162 H 151.9973 78.99083 C 43.62271,244.17029 39.9973,240.37241 39.9973,205.07568 v -98.15676 c 0,-35.296716 3.625,-38.921616 38.99353,-38.921616 h 73.00647 73.00647 c 35.36853,0 38.99353,3.6249 38.99353,38.921616 z" color="#000" display="inline" enable-background="accumulate" overflow="visible" visibility="visible" style="marker:none"/><path id="path918" fill="url(#linearGradient920)" fill-opacity="1" fill-rule="nonzero" stroke="none" stroke-width="1" d="m 320.49978,241.09593 c 0,-0.71048 0.0154,-1.27344 0.0957,-1.75195 0.0803,-0.47851 0.23728,-0.89671 0.54688,-1.20703 0.30959,-0.31032 0.7261,-0.46726 1.20508,-0.54688 0.47897,-0.0796 1.04352,-0.0933 1.75586,-0.0898 h 3.89648 3.89844 c 0.71121,-0.003 1.27546,0.0103 1.7539,0.0898 0.47898,0.0796 0.89549,0.23655 1.20508,0.54688 0.3096,0.31033 0.46655,0.72851 0.54688,1.20703 0.0803,0.47852 0.0957,1.04147 0.0957,1.75195 v 5.8086 c 0,0.71048 -0.0153,1.27236 -0.0957,1.75 -0.0804,0.47763 -0.23713,0.89584 -0.54688,1.20508 -0.30975,0.30921 -0.72681,0.46469 -1.20508,0.54492 -0.47826,0.0802 -1.04201,0.0957 -1.7539,0.0957 h -3.89844 -3.89844 c -0.71189,0 -1.27564,-0.0155 -1.7539,-0.0957 -0.47827,-0.0802 -0.89533,-0.2357 -1.20508,-0.54492 -0.30975,-0.30924 -0.4665,-0.72745 -0.54688,-1.20508 -0.0804,-0.47764 -0.0957,-1.03952 -0.0957,-1.75 z" color="#000" display="inline" enable-background="accumulate" overflow="visible" visibility="visible" style="marker:none"/><path id="path914" fill="url(#linearGradient916)" fill-opacity="1" fill-rule="nonzero" stroke="none" stroke-width="1" d="m 320.49963,195.8656 c 0,-1.11158 0.0256,-1.98683 0.14648,-2.70703 0.1209,-0.72019 0.34863,-1.3105 0.7793,-1.74218 0.43067,-0.43169 1.01974,-0.65954 1.74024,-0.7793 0.72049,-0.11977 1.59669,-0.14217 2.71093,-0.13672 h 6.12305 6.125 c 1.1131,-0.005 1.989,0.017 2.70898,0.13672 0.72051,0.11976 1.30957,0.3476 1.74024,0.7793 0.43067,0.43169 0.6584,1.02199 0.7793,1.74218 0.12089,0.7202 0.14648,1.59545 0.14648,2.70703 v 8.26954 c 0,1.11158 -0.0255,1.98637 -0.14648,2.70507 -0.12095,0.7187 -0.34848,1.30623 -0.7793,1.73633 -0.43083,0.4301 -1.01849,0.6566 -1.73828,0.77735 -0.71979,0.12074 -1.59713,0.14648 -2.71094,0.14648 h -6.125 -6.125 c -1.11381,0 -1.99115,-0.0257 -2.71094,-0.14648 -0.71979,-0.12075 -1.30745,-0.34725 -1.73828,-0.77735 -0.43082,-0.4301 -0.65835,-1.01763 -0.7793,-1.73633 -0.12094,-0.7187 -0.14648,-1.59349 -0.14648,-2.70507 z" color="#000" display="inline" enable-background="accumulate" overflow="visible" visibility="visible" style="marker:none"/><path id="path922" fill="url(#linearGradient924)" fill-opacity="1" fill-rule="nonzero" stroke="none" stroke-width="1" d="m 321.49955,142.19382 c 0,-1.41241 0.0342,-2.52238 0.18555,-3.42383 0.15132,-0.90145 0.43164,-1.61987 0.95312,-2.14258 0.52148,-0.5227 1.23898,-0.80325 2.14063,-0.95312 0.90164,-0.14988 2.0101,-0.18075 3.42578,-0.17383 h 7.79492 7.79688 c 1.41452,-0.007 2.52269,0.024 3.42382,0.17383 0.90165,0.14987 1.61915,0.43041 2.14063,0.95312 0.52148,0.52272 0.8018,1.24112 0.95312,2.14258 0.15132,0.90146 0.18555,2.01142 0.18555,3.42383 v 11.61523 c 0,1.41241 -0.0342,2.51847 -0.18555,3.41797 -0.15137,0.8995 -0.43149,1.61597 -0.95312,2.13672 -0.52163,0.52075 -1.23774,0.80004 -2.13867,0.95117 -0.90094,0.15113 -2.01055,0.18555 -3.42578,0.18555 h -7.79688 -7.79688 c -1.41524,0 -2.52484,-0.0344 -3.42578,-0.18555 -0.90093,-0.15113 -1.61703,-0.43042 -2.13867,-0.95117 -0.52163,-0.52075 -0.80175,-1.23722 -0.95312,-2.13672 -0.15137,-0.8995 -0.18555,-2.00556 -0.18555,-3.41797 z" color="#000" display="inline" enable-background="accumulate" overflow="visible" visibility="visible" style="marker:none"/><path id="rect4158-5" fill="#000" fill-opacity="1" fill-rule="nonzero" stroke="none" stroke-width="1" d="M 39.998047 203.07617 L 39.998047 205.07617 C 39.998047 240.3729 43.622114 244.17104 78.990234 243.99805 L 151.99805 243.99805 L 225.00391 243.99805 C 260.37202 244.17104 263.99805 240.3729 263.99805 205.07617 L 263.99805 203.07617 C 263.99805 238.3729 260.37202 242.17104 225.00391 241.99805 L 151.99805 241.99805 L 78.990234 241.99805 C 43.622114 242.17104 39.998047 238.3729 39.998047 203.07617 z" color="#000" display="inline" enable-background="accumulate" opacity=".2" overflow="visible" visibility="visible" style="marker:none"/><path id="rect4158-91" fill="#000" fill-opacity="1" fill-rule="nonzero" stroke="none" stroke-width="1" d="m 39.998047,196 v 9.07617 c 0,35.29673 3.624067,39.09487 38.992187,38.92188 h 73.007816 73.00586 c 35.36811,0.17299 38.99414,-3.62515 38.99414,-38.92188 V 196 Z" color="#000" display="inline" enable-background="accumulate" opacity=".2" overflow="visible" visibility="visible" style="marker:none"/><path id="path11736" fill="#000" fill-opacity="1" stroke="none" stroke-dasharray="none" stroke-dashoffset="0" stroke-linecap="round" stroke-linejoin="bevel" stroke-miterlimit="10" stroke-opacity="1" stroke-width="2.667" d="m 64.496371,213.47688 c 0.0677,4.52548 0.119383,9.05259 0.330078,13.57422 49.539051,0.7734 99.323891,0.59996 148.844721,0.36718 8.5121,-0.0756 17.02505,-0.13279 25.53516,-0.34179 0.20103,-4.99981 0.31235,-10.00281 0.39258,-15.00586 -58.37305,0 -116.7461,0 -175.119141,0 0.0055,0.46875 0.01107,0.9375 0.0166,1.40625 z" opacity=".5"/><rect id="rect11738" width="224" height="2" x="40" y="194" fill="#fff" fill-opacity="1" stroke="none" stroke-dasharray="none" stroke-dashoffset="0" stroke-linecap="round" stroke-linejoin="bevel" stroke-miterlimit="10" stroke-opacity="1" stroke-width="2.667" opacity=".2"/><path id="path11736-2" fill="#fff" fill-opacity="1" stroke="none" stroke-dasharray="none" stroke-dashoffset="0" stroke-linecap="round" stroke-linejoin="bevel" stroke-miterlimit="10" stroke-opacity="1" stroke-width="2.667" d="m 64.480469,214.07031 c 0.0055,0.46875 0.0101,0.9375 0.01563,1.40625 0.0677,4.52548 0.119383,9.05259 0.330078,13.57422 49.539053,0.7734 99.324863,0.59997 148.845703,0.36719 8.5121,-0.0756 17.02504,-0.1328 25.53516,-0.3418 0.20103,-4.99981 0.31235,-10.00281 0.39258,-15.00586 h -0.041 c -0.0776,4.33626 -0.17732,8.67235 -0.35156,13.00586 -8.51011,0.209 -17.02305,0.2662 -25.53515,0.3418 -49.52084,0.23278 -99.30666,0.40621 -148.845713,-0.36719 -0.201482,-4.3239 -0.256593,-8.65276 -0.320313,-12.98047 z" display="inline" enable-background="new" opacity=".3"/><path id="path11736-0" fill="#000" fill-opacity="1" stroke="none" stroke-dasharray="none" stroke-dashoffset="0" stroke-linecap="round" stroke-linejoin="bevel" stroke-miterlimit="10" stroke-opacity="1" stroke-width="2.667" d="m 64.480469,212.07031 c 0.0055,0.46875 0.0101,0.9375 0.01563,1.40625 0.003,0.19789 0.0069,0.39585 0.0098,0.59375 H 239.55859 c 0.0119,-0.66672 0.0303,-1.33327 0.041,-2 z" display="inline" enable-background="new" opacity=".2"/><path id="path949-6" fill="url(#linearGradient11811)" fill-opacity="1" fill-rule="nonzero" stroke="none" stroke-width="1" d="m 366.49932,92.26884 c 0,2.21461 -0.0547,3.94722 -0.28711,5.33203 -0.23246,1.38481 -0.65434,2.44551 -1.41797,3.21094 -0.76363,0.76543 -1.82234,1.1878 -3.20703,1.41797 -1.38469,0.23017 -3.1184,0.28039 -5.33789,0.26953 h -12.25 -12.25196 c -2.21833,0.0108 -3.95175,-0.0394 -5.33593,-0.26953 -1.38469,-0.23017 -2.4434,-0.65253 -3.20703,-1.41797 -0.76363,-0.76544 -1.18551,-1.82612 -1.41797,-3.21094 -0.23246,-1.38481 -0.28711,-3.11742 -0.28711,-5.33203 V 75.72978 c 0,-2.2146 0.0546,-3.94454 0.28711,-5.32617 0.2325,-1.38163 0.65418,-2.44064 1.41797,-3.20313 0.76378,-0.76249 1.82305,-1.18385 3.20703,-1.41601 1.38398,-0.23217 3.11686,-0.28516 5.33593,-0.28516 h 12.25196 12.25195 c 2.21907,0 3.95196,0.053 5.33594,0.28516 1.38398,0.23216 2.44325,0.65352 3.20703,1.41601 0.76378,0.76249 1.18546,1.8215 1.41797,3.20313 0.2325,1.38163 0.28711,3.11157 0.28711,5.32617 z" color="#000" display="inline" enable-background="accumulate" overflow="visible" visibility="visible" style="marker:none"/><path id="rect11813" fill="#000" fill-opacity="1" stroke="none" stroke-dasharray="none" stroke-dashoffset="0" stroke-linecap="round" stroke-linejoin="bevel" stroke-miterlimit="10" stroke-opacity="1" stroke-width="2.667" d="m 321.5,90 v 2.26953 c 0,2.21461 0.0546,3.94722 0.28711,5.33203 0.23246,1.38482 0.65434,2.4455 1.41797,3.21094 0.76363,0.76544 1.82234,1.1878 3.20703,1.41797 1.38418,0.23013 3.11761,0.28033 5.33594,0.26953 H 344 356.25 c 2.21949,0.0109 3.9532,-0.0394 5.33789,-0.26953 1.38469,-0.23017 2.4434,-0.65254 3.20703,-1.41797 0.76363,-0.76543 1.18551,-1.82613 1.41797,-3.21094 C 366.4453,96.21675 366.5,94.48414 366.5,92.26953 V 90 Z" opacity=".2"/><path id="path11845" fill="#000" fill-opacity="1" stroke="none" stroke-dasharray="none" stroke-dashoffset="0" stroke-linecap="round" stroke-linejoin="bevel" stroke-miterlimit="10" stroke-opacity="1" stroke-width="2.667" d="m 325.60546,94.41686 c 0.12152,1.17026 -0.0237,2.46477 0.5293,3.53174 1.64748,0.58682 3.44825,0.2675 5.16258,0.3851 9.10377,0.0329 18.32585,0.0919 27.41764,-0.0155 1.02103,-0.11127 2.17587,0.11734 3.1146,-0.36882 0.62302,-0.92859 0.37828,-2.17545 0.49781,-3.23609 0.37599,-1.08502 -0.84743,-0.60796 -1.48389,-0.70361 -11.75122,0 -23.50244,0 -35.25366,0 0.005,0.13574 0.0104,0.27149 0.0156,0.40723 z" opacity=".5"/><path id="rect11813-7" fill="#fff" fill-opacity="1" stroke="none" stroke-dasharray="none" stroke-dashoffset="0" stroke-linecap="round" stroke-linejoin="bevel" stroke-miterlimit="10" stroke-opacity="1" stroke-width="2.667" d="M 321.5 89 L 321.5 90 L 366.5 90 L 366.5 89 L 321.5 89 z" display="inline" enable-background="new" opacity=".15"/><path id="path11845-2" fill="#fff" fill-opacity="1" stroke="none" stroke-dasharray="none" stroke-dashoffset="0" stroke-linecap="round" stroke-linejoin="bevel" stroke-miterlimit="10" stroke-opacity="1" stroke-width="2.667" d="M 325.58984 95.009766 C 325.59484 95.145506 325.60027 95.282229 325.60547 95.417969 C 325.72699 96.588229 325.58177 97.882249 326.13477 98.949219 C 327.78225 99.536039 329.58255 99.216384 331.29688 99.333984 C 340.40064 99.366884 349.62305 99.425759 358.71484 99.318359 C 359.73587 99.207089 360.89135 99.435379 361.83008 98.949219 C 362.4531 98.020629 362.2086 96.773531 362.32812 95.712891 C 362.43354 95.408685 362.40449 95.236534 362.30664 95.130859 C 362.26575 96.090909 362.37392 97.138641 361.83008 97.949219 C 360.89135 98.435379 359.73587 98.207089 358.71484 98.318359 C 349.62305 98.425759 340.40064 98.366884 331.29688 98.333984 C 329.58255 98.216384 327.78225 98.536039 326.13477 97.949219 C 325.67273 97.057753 325.6887 96.01373 325.63867 95.009766 L 325.58984 95.009766 z" display="inline" enable-background="new" opacity=".3"/><path id="path11845-7" fill="#000" fill-opacity="1" stroke="none" stroke-dasharray="none" stroke-dashoffset="0" stroke-linecap="round" stroke-linejoin="bevel" stroke-miterlimit="10" stroke-opacity="1" stroke-width="2.667" d="M 361.96484 93.990234 C 361.62643 93.961916 361.16198 94.057591 360.84375 94.009766 L 325.58984 94.009766 C 325.59484 94.145506 325.60027 94.280276 325.60547 94.416016 C 325.62546 94.60851 325.62882 94.812113 325.63867 95.009766 L 360.84375 95.009766 C 361.30177 95.078598 362.05549 94.859622 362.30664 95.130859 C 362.31259 94.991085 362.31293 94.847685 362.32812 94.712891 C 362.51612 94.170381 362.30326 94.018553 361.96484 93.990234 z" display="inline" enable-background="new" opacity=".2"/><path id="path922-8" fill="#000" fill-opacity="1" fill-rule="nonzero" stroke="none" stroke-width="1" d="m 321.50391,154 c 0.003,1.31232 0.0379,2.37232 0.18164,3.22656 0.15137,0.8995 0.43149,1.61597 0.95312,2.13672 0.52164,0.52075 1.23774,0.80004 2.13867,0.95117 0.90094,0.15115 2.01055,0.18555 3.42578,0.18555 H 336 h 7.79688 c 1.41522,0 2.52484,-0.0344 3.42578,-0.18555 0.90093,-0.15113 1.61704,-0.43042 2.13867,-0.95117 0.52163,-0.52075 0.80175,-1.23722 0.95312,-2.13672 0.14374,-0.85424 0.17818,-1.91424 0.18164,-3.22656 z" color="#000" display="inline" enable-background="accumulate" opacity=".2" overflow="visible" visibility="visible" style="marker:none"/><path id="path11966" fill="#000" fill-opacity="1" stroke="none" stroke-dasharray="none" stroke-dashoffset="0" stroke-linecap="round" stroke-linejoin="bevel" stroke-miterlimit="10" stroke-opacity="1" stroke-width="2.667" d="m 324.64243,156.20561 c 0.0863,0.69134 0.0668,1.75335 0.92411,1.9492 1.58947,0.42148 2.23821,0.195 3.85335,0.27699 5.60132,0.013 10.20515,0.0696 15.80484,-0.0592 0.71024,-0.10123 1.75257,-0.11091 1.95101,-0.97857 0.12674,-0.4495 0.16169,-0.91798 0.19353,-1.38193 h -22.74548 c 0.006,0.0645 0.0124,0.12902 0.0186,0.19353 z" opacity=".5"/><path id="path922-8-9" fill="#fff" fill-opacity="1" fill-rule="nonzero" stroke="none" stroke-width="1" d="M 321.50391 153 C 321.50475 153.36757 321.51785 153.671 321.52539 154 L 350.47461 154 C 350.48216 153.671 350.49512 153.36756 350.49609 153 L 321.50391 153 z" color="#000" display="inline" enable-background="accumulate" opacity=".1" overflow="visible" visibility="visible" style="marker:none"/><path id="path11966-3" fill="#000" fill-opacity="1" stroke="none" stroke-dasharray="none" stroke-dashoffset="0" stroke-linecap="round" stroke-linejoin="bevel" stroke-miterlimit="10" stroke-opacity="1" stroke-width="2.667" d="m 324.62346,156.01172 c 0.006,0.0645 0.0133,0.12885 0.0195,0.19336 0.0303,0.24243 0.0589,0.52638 0.10547,0.80664 h 22.50144 c 0.0594,-0.33031 0.0962,-0.66559 0.11915,-1 z" display="inline" enable-background="new" opacity=".2"/><path id="path914-3" fill="#000" fill-opacity="1" fill-rule="nonzero" stroke="none" stroke-width="1" d="m 320.5,203 v 1.13477 c 0,1.11158 0.0255,1.98637 0.14648,2.70507 0.12095,0.7187 0.34848,1.30623 0.7793,1.73633 0.43083,0.4301 1.01849,0.6566 1.73828,0.77735 0.71979,0.12078 1.59713,0.14648 2.71094,0.14648 h 6.125 6.125 c 1.11381,0 1.99115,-0.0257 2.71094,-0.14648 0.71979,-0.12075 1.30745,-0.34725 1.73828,-0.77735 0.43082,-0.4301 0.65835,-1.01763 0.7793,-1.73633 0.12098,-0.7187 0.14648,-1.59349 0.14648,-2.70507 V 203 Z" color="#000" display="inline" enable-background="accumulate" opacity=".2" overflow="visible" visibility="visible" style="marker:none"/><path id="path12051" fill="#000" fill-opacity="1" stroke="none" stroke-dasharray="none" stroke-dashoffset="0" stroke-linecap="round" stroke-linejoin="bevel" stroke-miterlimit="10" stroke-opacity="1" stroke-width="2.667" d="m 323.63617,205.32964 c 0.14824,0.56082 -0.15676,1.40909 0.34692,1.81983 1.55976,0.45293 2.23262,0.17671 3.83889,0.27898 4.2181,-0.0202 7.47607,0.0853 11.6546,-0.12688 0.93596,0.0785 0.83707,-1.12414 0.94335,-1.74048 0.2464,-0.8813 -1.09681,-0.27224 -1.59765,-0.45093 h -15.19466 l 0.005,0.12491 z" opacity=".5"/><path id="path914-3-1" fill="#fff" fill-opacity="1" fill-rule="nonzero" stroke="none" stroke-width="1" d="M 320.5 202 L 320.5 203 L 343.5 203 L 343.5 202 L 320.5 202 z" color="#000" display="inline" enable-background="accumulate" opacity=".1" overflow="visible" visibility="visible" style="marker:none"/><path id="path12051-4" fill="#000" fill-opacity="1" stroke="none" stroke-dasharray="none" stroke-dashoffset="0" stroke-linecap="round" stroke-linejoin="bevel" stroke-miterlimit="10" stroke-opacity="1" stroke-width="2.667" d="m 339.90213,205.07227 c -0.3676,0.0198 -0.82965,0.12645 -1.08007,0.0371 h -15.19515 l 0.006,0.125 0.004,0.0957 c 0.0604,0.22858 0.0457,0.50429 0.041,0.7793 h 15.14437 c 0.37903,0.13523 1.23947,-0.17735 1.52929,0.043 0.0233,-0.21575 0.0396,-0.42493 0.0684,-0.59179 0.1232,-0.44065 -0.14997,-0.50805 -0.51758,-0.48828 z" display="inline" enable-background="new" opacity=".2"/><path id="rect12124" fill="#000" fill-opacity="1" stroke="none" stroke-dasharray="none" stroke-dashoffset="0" stroke-linecap="round" stroke-linejoin="bevel" stroke-miterlimit="10" stroke-opacity="1" stroke-width="2.667" d="M 320.50195 247 C 320.50352 247.66129 320.5193 248.20039 320.5957 248.6543 C 320.67608 249.13193 320.83283 249.55014 321.14258 249.85938 C 321.45233 250.16859 321.86939 250.3241 322.34766 250.4043 C 322.82592 250.4845 323.38967 250.5 324.10156 250.5 L 328 250.5 L 331.89844 250.5 C 332.61033 250.5 333.17408 250.4845 333.65234 250.4043 C 334.13061 250.32407 334.54767 250.16859 334.85742 249.85938 C 335.16717 249.55013 335.3239 249.13193 335.4043 248.6543 C 335.4807 248.20039 335.49648 247.66129 335.49805 247 L 320.50195 247 z" opacity=".3"/><rect id="rect12154" width="10" height="1" x="323" y="248" fill="#000" fill-opacity="1" stroke="none" stroke-dasharray="none" stroke-dashoffset="0" stroke-linecap="round" stroke-linejoin="bevel" stroke-miterlimit="10" stroke-opacity="1" stroke-width="2.667" opacity=".5"/><path id="rect12124-3" fill="#fff" fill-opacity="1" stroke="none" stroke-dasharray="none" stroke-dashoffset="0" stroke-linecap="round" stroke-linejoin="bevel" stroke-miterlimit="10" stroke-opacity="1" stroke-width="2.667" d="M 320.50195 246 C 320.50308 246.37285 320.5131 246.69821 320.53125 247 L 335.46875 247 C 335.48699 246.69821 335.4972 246.37285 335.49805 246 L 320.50195 246 z" display="inline" enable-background="new" opacity=".1"/></g><g id="layer9" display="inline"><path id="path901" fill="none" fill-opacity="1" fill-rule="nonzero" stroke="#000" stroke-opacity="1" stroke-width="1" d="m 366.49931,75.731157 c 0,-2.21461 -0.0546,-3.94722 -0.28711,-5.33203 -0.23245,-1.38481 -0.65433,-2.44551 -1.41796,-3.21094 -0.76364,-0.76543 -1.82235,-1.1878 -3.20704,-1.41797 -1.38469,-0.23017 -3.11839,-0.28039 -5.33789,-0.26953 h -12.25 -12.25195 c -2.21833,-0.0108 -3.95176,0.0394 -5.33594,0.26953 -1.38469,0.23017 -2.4434,0.65253 -3.20703,1.41797 -0.76363,0.76544 -1.18551,1.82612 -1.41797,3.21094 -0.23246,1.38481 -0.28711,3.11742 -0.28711,5.33203 v 16.53906 c 0,2.2146 0.0546,3.94454 0.28711,5.32617 0.2325,1.38163 0.65418,2.440643 1.41797,3.203133 0.76378,0.76249 1.82305,1.18385 3.20703,1.41601 1.38398,0.23217 3.11687,0.28516 5.33594,0.28516 h 12.25195 12.25196 c 2.21907,0 3.95195,-0.053 5.33593,-0.28516 1.38399,-0.23216 2.44325,-0.65352 3.20704,-1.41601 0.76378,-0.76249 1.18546,-1.821503 1.41796,-3.203133 0.23251,-1.38163 0.28711,-3.11157 0.28711,-5.32617 z" color="#000" display="inline" enable-background="accumulate" opacity=".4" overflow="visible" visibility="visible" style="marker:none"/><path id="path1089" fill="none" fill-opacity="1" fill-rule="nonzero" stroke="#000" stroke-opacity="1" stroke-width="1" d="m 321.49954,153.80618 c 0,1.41241 0.0342,2.52238 0.18555,3.42383 0.15132,0.90145 0.43164,1.61987 0.95312,2.14258 0.52148,0.5227 1.23898,0.80325 2.14063,0.95312 0.90164,0.14988 2.0101,0.18075 3.42578,0.17383 h 7.79492 7.79688 c 1.41452,0.007 2.52269,-0.024 3.42382,-0.17383 0.90165,-0.14987 1.61915,-0.43041 2.14063,-0.95312 0.52148,-0.52272 0.8018,-1.24112 0.95312,-2.14258 0.15132,-0.90146 0.18555,-2.01142 0.18555,-3.42383 v -11.61523 c 0,-1.41241 -0.0342,-2.51847 -0.18555,-3.41797 -0.15137,-0.8995 -0.43149,-1.61597 -0.95312,-2.13672 -0.52163,-0.52075 -1.23774,-0.80004 -2.13867,-0.95117 -0.90094,-0.15113 -2.01055,-0.18555 -3.42578,-0.18555 h -7.79688 -7.79688 c -1.41524,0 -2.52484,0.0344 -3.42578,0.18555 -0.90093,0.15113 -1.61703,0.43042 -2.13867,0.95117 -0.52163,0.52075 -0.80175,1.23722 -0.95312,2.13672 -0.15137,0.8995 -0.18555,2.00556 -0.18555,3.41797 z" color="#000" display="inline" enable-background="accumulate" opacity=".4" overflow="visible" visibility="visible" style="marker:none"/><path id="path1085" fill="none" fill-opacity="1" fill-rule="nonzero" stroke="#000" stroke-opacity="1" stroke-width="1" d="m 320.49963,204.1344 c 0,1.11158 0.0256,1.98683 0.14648,2.70703 0.1209,0.72019 0.34863,1.3105 0.7793,1.74218 0.43067,0.43169 1.01974,0.65954 1.74024,0.7793 0.72049,0.11977 1.59669,0.14217 2.71093,0.13672 h 6.12305 6.125 c 1.1131,0.005 1.989,-0.017 2.70898,-0.13672 0.72051,-0.11976 1.30957,-0.3476 1.74024,-0.7793 0.43067,-0.43169 0.6584,-1.02199 0.7793,-1.74218 0.12089,-0.7202 0.14648,-1.59545 0.14648,-2.70703 v -8.26954 c 0,-1.11158 -0.0255,-1.98637 -0.14648,-2.70507 -0.12095,-0.7187 -0.34848,-1.30623 -0.7793,-1.73633 -0.43083,-0.4301 -1.01849,-0.6566 -1.73828,-0.77735 -0.71979,-0.12074 -1.59713,-0.14648 -2.71094,-0.14648 h -6.125 -6.125 c -1.11381,0 -1.99115,0.0257 -2.71094,0.14648 -0.71979,0.12075 -1.30745,0.34725 -1.73828,0.77735 -0.43082,0.4301 -0.65835,1.01763 -0.7793,1.73633 -0.12094,0.7187 -0.14648,1.59349 -0.14648,2.70507 z" color="#000" display="inline" enable-background="accumulate" opacity=".4" overflow="visible" visibility="visible" style="marker:none"/><path id="path1087" fill="none" fill-opacity="1" fill-rule="nonzero" stroke="#000" stroke-opacity="1" stroke-width="1" d="m 320.49977,246.90407 c 0,0.71048 0.0154,1.27344 0.0957,1.75195 0.0803,0.47851 0.23728,0.89671 0.54688,1.20703 0.30959,0.31032 0.7261,0.46726 1.20508,0.54688 0.47897,0.0796 1.04352,0.0933 1.75586,0.0898 h 3.89648 3.89844 c 0.71121,0.003 1.27546,-0.0103 1.7539,-0.0898 0.47898,-0.0796 0.89549,-0.23655 1.20508,-0.54688 0.3096,-0.31033 0.46655,-0.72851 0.54688,-1.20703 0.0803,-0.47852 0.0957,-1.04147 0.0957,-1.75195 v -5.8086 c 0,-0.71048 -0.0153,-1.27236 -0.0957,-1.75 -0.0804,-0.47763 -0.23713,-0.89584 -0.54688,-1.20508 -0.30975,-0.30921 -0.72681,-0.46469 -1.20508,-0.54492 -0.47826,-0.0802 -1.04201,-0.0957 -1.7539,-0.0957 h -3.89844 -3.89844 c -0.71189,0 -1.27564,0.0155 -1.7539,0.0957 -0.47827,0.0802 -0.89533,0.2357 -1.20508,0.54492 -0.30975,0.30924 -0.4665,0.72745 -0.54688,1.20508 -0.0804,0.47764 -0.0957,1.03952 -0.0957,1.75 z" color="#000" display="inline" enable-background="accumulate" opacity=".4" overflow="visible" visibility="visible" style="marker:none"/></g><g id="layer5" display="inline"><path id="path990" fill="none" fill-opacity="1" fill-rule="nonzero" stroke="url(#linearGradient1004)" stroke-dasharray="none" stroke-miterlimit="4" stroke-opacity="1" stroke-width="2" d="m 335.73108,62 c -8.82418,0 -9.77365,0.90635 -9.7304,9.74838 V 84 96.25162 c -0.0433,8.84203 0.90622,9.74838 9.7304,9.74838 h 16.53919 c 8.82418,0 9.7304,-0.90625 9.7304,-9.74838 V 84 71.74838 C 362.00067,62.90625 361.09445,62 352.27027,62 Z" clip-path="url(#clipPath994-5)" color="#000" display="inline" enable-background="accumulate" opacity=".4" overflow="visible" transform="rotate(90,344,84.000001)" visibility="visible" style="marker:none"/><path id="path935" fill="none" fill-opacity="1" fill-rule="nonzero" stroke="url(#linearGradient981)" stroke-dasharray="none" stroke-miterlimit="4" stroke-opacity="1" stroke-width="2" d="m 327.8652,189 c -4.41209,0 -4.88682,0.45318 -4.8652,4.87419 V 200 206.12581 C 322.9783,210.54682 323.45311,211 327.8652,211 h 8.2696 C 340.54689,211 341,210.54688 341,206.12581 V 200 193.87419 C 341,189.45313 340.54688,189 336.13479,189 Z" clip-path="url(#clipPath971)" color="#000" display="inline" enable-background="accumulate" opacity=".4" overflow="visible" transform="rotate(-90,331.99966,200)" visibility="visible" style="marker:none"/><path id="path937" fill="none" fill-opacity="1" fill-rule="nonzero" stroke="url(#linearGradient993)" stroke-dasharray="none" stroke-miterlimit="4" stroke-opacity="1" stroke-width="2" d="m 325.09646,237 c -2.80769,0 -3.10979,0.28839 -3.09603,3.10176 V 244 v 3.89824 c -0.0138,2.81337 0.28834,3.10176 3.09603,3.10176 h 5.8075 C 333.71166,251 334,250.71165 334,247.89824 V 244 240.10176 C 334,237.28836 333.71165,237 330.90396,237 Z" clip-path="url(#clipPath983)" color="#000" display="inline" enable-background="accumulate" opacity=".4" overflow="visible" transform="rotate(-90,328,244)" visibility="visible" style="marker:none"/><path id="path939" fill="none" fill-opacity="1" fill-rule="nonzero" stroke="url(#linearGradient969)" stroke-dasharray="none" stroke-miterlimit="4" stroke-opacity="1" stroke-width="2" d="m 330.1929,133.99999 c -5.61538,0 -6.21958,0.57678 -6.19206,6.20352 v 7.79648 7.79648 c -0.0276,5.62673 0.57668,6.20351 6.19206,6.20351 h 11.615 c 5.6154,0 6.19208,-0.5767 6.19208,-6.20351 v -7.79648 -7.79648 c 0,-5.6268 -0.5767,-6.20352 -6.19208,-6.20352 z" clip-path="url(#clipPath959)" color="#000" display="inline" enable-background="accumulate" opacity=".4" overflow="visible" transform="rotate(-90,335.99998,147.99998)" visibility="visible" style="marker:none"/></g></g></svg>