<svg xmlns="http://www.w3.org/2000/svg" xmlns:svg="http://www.w3.org/2000/svg" xmlns:xlink="http://www.w3.org/1999/xlink" id="svg11300" width="400" height="300" display="inline" enable-background="new" version="1.0"><title id="title3004">Suru Icon Theme Template</title><defs id="defs3"><clipPath id="clipPath9430" clipPathUnits="userSpaceOnUse"><path id="path9432" fill="#fff" fill-opacity="1" fill-rule="nonzero" stroke="none" stroke-width="1" d="m 166.0625,-196 h 179.875 C 491.2348,-196 512,-175.28677 512,-30.125 v 148.25 C 512,263.28618 491.2348,284 345.9375,284 H 166.0625 C 20.7652,284 0,263.28618 0,118.125 V -30.125 C 0,-175.28677 20.7652,-196 166.0625,-196 Z" color="#000" display="inline" enable-background="new" overflow="visible" visibility="visible" style="marker:none"/></clipPath><clipPath id="clipPath1082" clipPathUnits="userSpaceOnUse"><path id="path1084" fill="#8c59d9" fill-opacity="1" stroke="none" stroke-dasharray="none" stroke-dashoffset="0" stroke-linecap="round" stroke-linejoin="round" stroke-miterlimit="4" stroke-opacity="1" stroke-width="2" d="M 361.9375,-212 C 507.2348,-212 528,-191.28677 528,-46.125 V 70.125 C 528,215.28618 507.2348,236 361.9375,236 H 214.0625 C 68.7652,236 48,215.28618 48,70.125 V -46.125 C 48,-191.28677 68.7652,-212 214.0625,-212 Z" display="inline" enable-background="new" opacity="1"/></clipPath><linearGradient id="linearGradient927"><stop id="stop923" offset="0" stop-color="#fff" stop-opacity="1"/><stop id="stop933" offset=".125" stop-color="#fff" stop-opacity=".098"/><stop id="stop931" offset=".925" stop-color="#fff" stop-opacity=".098"/><stop id="stop925" offset="1" stop-color="#fff" stop-opacity=".498"/></linearGradient><clipPath id="clipPath994" clipPathUnits="userSpaceOnUse"><path id="path996" fill="#cdcdcd" fill-opacity="1" fill-rule="nonzero" stroke="none" stroke-dasharray="none" stroke-miterlimit="4" stroke-opacity="1" stroke-width="2" d="m 335.73108,62 c -8.82418,0 -9.77365,0.90635 -9.7304,9.74838 V 84 96.25162 c -0.0433,8.84203 0.90622,9.74838 9.7304,9.74838 h 16.53919 c 8.82418,0 9.7304,-0.90625 9.7304,-9.74838 V 84 71.74838 C 362.00067,62.90625 361.09445,62 352.27027,62 Z" color="#000" display="inline" enable-background="accumulate" overflow="visible" visibility="visible" style="marker:none"/></clipPath><clipPath id="clipPath959" clipPathUnits="userSpaceOnUse"><path id="path961" fill="#46a926" fill-opacity="1" fill-rule="nonzero" stroke="none" stroke-dasharray="none" stroke-miterlimit="4" stroke-opacity="1" stroke-width="2" d="m 330.1929,133.99999 c -5.61538,0 -6.21958,0.57678 -6.19206,6.20352 v 7.79648 7.79648 c -0.0276,5.62673 0.57668,6.20351 6.19206,6.20351 h 11.615 c 5.6154,0 6.19208,-0.5767 6.19208,-6.20351 v -7.79648 -7.79648 c 0,-5.6268 -0.5767,-6.20352 -6.19208,-6.20352 z" color="#000" display="inline" enable-background="accumulate" opacity="1" overflow="visible" visibility="visible" style="marker:none"/></clipPath><clipPath id="clipPath971" clipPathUnits="userSpaceOnUse"><path id="path973" fill="#46a926" fill-opacity="1" fill-rule="nonzero" stroke="none" stroke-dasharray="none" stroke-miterlimit="4" stroke-opacity="1" stroke-width="2" d="m 327.8652,189 c -4.41209,0 -4.88682,0.45318 -4.8652,4.87419 V 200 206.12581 C 322.9783,210.54682 323.45311,211 327.8652,211 h 8.2696 C 340.54689,211 341,210.54688 341,206.12581 V 200 193.87419 C 341,189.45313 340.54688,189 336.13479,189 Z" color="#000" display="inline" enable-background="accumulate" opacity="1" overflow="visible" visibility="visible" style="marker:none"/></clipPath><clipPath id="clipPath983" clipPathUnits="userSpaceOnUse"><path id="path985" fill="#46a926" fill-opacity="1" fill-rule="nonzero" stroke="none" stroke-dasharray="none" stroke-miterlimit="4" stroke-opacity="1" stroke-width="2" d="m 325.09646,237 c -2.80769,0 -3.10979,0.28839 -3.09603,3.10176 V 244 v 3.89824 c -0.0138,2.81337 0.28834,3.10176 3.09603,3.10176 h 5.8075 C 333.71166,251 334,250.71165 334,247.89824 V 244 240.10176 C 334,237.28836 333.71165,237 330.90396,237 Z" color="#000" display="inline" enable-background="accumulate" opacity="1" overflow="visible" visibility="visible" style="marker:none"/></clipPath><linearGradient id="linearGradient4336-3"><stop id="stop4338-8" offset="0" stop-color="#5884f4" stop-opacity="1"/><stop id="stop4344-3" offset=".278" stop-color="#5884f4" stop-opacity="1"/><stop id="stop4346-3" offset=".278" stop-color="#2f5fdd" stop-opacity="1"/><stop id="stop4350-1" offset=".707" stop-color="#2f5fdd" stop-opacity="1"/><stop id="stop4348-6" offset=".709" stop-color="#234db8" stop-opacity="1"/><stop id="stop4340-0" offset="1" stop-color="#234db8" stop-opacity="1"/></linearGradient><clipPath id="clipPath994-1" clipPathUnits="userSpaceOnUse"><path id="path996-8" fill="#cdcdcd" fill-opacity="1" fill-rule="nonzero" stroke="none" stroke-dasharray="none" stroke-miterlimit="4" stroke-opacity="1" stroke-width="2" d="m 335.73108,62 c -8.82418,0 -9.77365,0.90635 -9.7304,9.74838 V 84 96.25162 c -0.0433,8.84203 0.90622,9.74838 9.7304,9.74838 h 16.53919 c 8.82418,0 9.7304,-0.90625 9.7304,-9.74838 V 84 71.74838 C 362.00067,62.90625 361.09445,62 352.27027,62 Z" color="#000" display="inline" enable-background="accumulate" overflow="visible" visibility="visible" style="marker:none"/></clipPath><linearGradient id="linearGradient11065" x1="104" x2="200" y1="44" y2="268" gradientTransform="translate(0,-5.6126213e-6)" gradientUnits="userSpaceOnUse" xlink:href="#linearGradient1048"/><filter id="filter11191" width="1.024" height="1.024" x="-.012" y="-.012" color-interpolation-filters="sRGB"><feGaussianBlur id="feGaussianBlur11193" stdDeviation="1.12"/></filter><filter id="filter11210" width="1.096" height="1.096" x="-.048" y="-.048" color-interpolation-filters="sRGB"><feGaussianBlur id="feGaussianBlur11212" stdDeviation="4.48"/></filter><linearGradient id="linearGradient8590" x1="96" x2="96" y1="4" y2="188" gradientTransform="matrix(0.23913043,0,0,0.23913032,321.04348,61.043494)" gradientUnits="userSpaceOnUse" xlink:href="#linearGradient927"/><linearGradient id="linearGradient8588" x1="13.735" x2="38.1" y1="249.694" y2="292.767" gradientTransform="matrix(0.94488193,0,0,0.94488229,320.50001,-173.12993)" gradientUnits="userSpaceOnUse" xlink:href="#linearGradient1048"/><linearGradient id="linearGradient8590-3" x1="96" x2="96" y1="4" y2="188" gradientTransform="matrix(0.15217394,0,0,0.15217387,321.3913,133.39129)" gradientUnits="userSpaceOnUse" xlink:href="#linearGradient927"/><linearGradient id="linearGradient8588-0" x1="13.735" x2="38.1" y1="249.694" y2="292.767" gradientTransform="matrix(0.60892393,0,0,0.60892417,320.85556,-17.70596)" gradientUnits="userSpaceOnUse" xlink:href="#linearGradient1048"/><linearGradient id="linearGradient8590-3-3" x1="96" x2="96" y1="4" y2="188" gradientTransform="matrix(0.10869563,0,0,0.10869559,321.56522,189.56521)" gradientUnits="userSpaceOnUse" xlink:href="#linearGradient927"/><linearGradient id="linearGradient8588-0-1" x1="13.735" x2="38.1" y1="249.694" y2="292.767" gradientTransform="matrix(0.44094488,0,0,0.44094506,321.03334,80.006038)" gradientUnits="userSpaceOnUse" xlink:href="#linearGradient1048"/><linearGradient id="linearGradient8590-3-3-4" x1="96" x2="96" y1="4" y2="188" gradientTransform="matrix(0.06521734,0,0,0.06521732,321.73913,237.73914)" gradientUnits="userSpaceOnUse" xlink:href="#linearGradient927"/><linearGradient id="linearGradient8588-0-1-5" x1="13.735" x2="38.1" y1="249.694" y2="292.767" gradientTransform="matrix(0.27296588,0,0,0.27296599,321.21111,169.71803)" gradientUnits="userSpaceOnUse" xlink:href="#linearGradient1048"/><clipPath id="clipPath1348" clipPathUnits="userSpaceOnUse"><path id="path1350" fill="#da1636" fill-opacity="1" stroke="none" stroke-dasharray="none" stroke-dashoffset="0" stroke-linecap="round" stroke-linejoin="round" stroke-miterlimit="4" stroke-opacity="1" stroke-width="2" d="m 339.76513,135.56122 c 8.62214,1e-5 9.85437,1.23067 9.85437,9.85549 v 6.90662 c 0,8.62479 -1.23223,9.85549 -9.85437,9.85549 h -9.40807 c -8.62214,0 -9.85437,-1.2307 -9.85437,-9.85549 v -6.90663 c 0,-8.62482 1.23223,-9.85551 9.85437,-9.8555 z" display="inline" enable-background="new" opacity=".1"/></clipPath><clipPath id="clipPath1278" clipPathUnits="userSpaceOnUse"><path id="path1280" fill="#da1636" fill-opacity="1" stroke="none" stroke-dasharray="none" stroke-dashoffset="0" stroke-linecap="round" stroke-linejoin="round" stroke-miterlimit="4" stroke-opacity="1" stroke-width="2" d="m 339.98751,134.06477 c 8.56743,0 9.79185,1.21924 9.79185,9.76386 v 7.47067 c 0,8.54459 -1.22442,9.76386 -9.79185,9.76386 h -9.97735 c -8.56744,0 -9.79186,-1.21927 -9.79186,-9.76386 v -7.47067 c 0,-8.54462 1.22442,-9.76386 9.79186,-9.76386 z" display="inline" enable-background="new" opacity=".1"/></clipPath><clipPath id="clipPath1361" clipPathUnits="userSpaceOnUse"><path id="path1363" fill="#da1636" fill-opacity="1" stroke="none" stroke-dasharray="none" stroke-dashoffset="0" stroke-linecap="round" stroke-linejoin="round" stroke-miterlimit="4" stroke-opacity="1" stroke-width="2" d="m 341.12109,133.5 c 9.08109,0 10.37891,1.29458 10.37891,10.36719 v 8.26562 c 0,9.07258 -1.29782,10.36719 -10.37891,10.36719 H 330.87891 C 321.79783,162.5 320.5,161.20539 320.5,152.13281 v -8.26562 c 0,-9.07261 1.29783,-10.36719 10.37891,-10.36719 z" display="inline" enable-background="new" opacity=".1"/></clipPath><clipPath id="clipPath1221" clipPathUnits="userSpaceOnUse"><path id="path1223" fill="#da1636" fill-opacity="1" stroke="none" stroke-dasharray="none" stroke-dashoffset="0" stroke-linecap="round" stroke-linejoin="round" stroke-miterlimit="4" stroke-opacity="1" stroke-width="2" d="M 188.96875,44 C 261.6174,44 272,54.356615 272,126.9375 v 58.125 C 272,257.64309 261.6174,268 188.96875,268 h -73.9375 C 42.3826,268 32,257.64309 32,185.0625 v -58.125 C 32,54.356615 42.3826,44 115.03125,44 Z" display="inline" enable-background="new" opacity=".1"/></clipPath><clipPath id="clipPath1322" clipPathUnits="userSpaceOnUse"><path id="path1324" fill="#da1636" fill-opacity="1" stroke="none" stroke-dasharray="none" stroke-dashoffset="0" stroke-linecap="round" stroke-linejoin="round" stroke-miterlimit="4" stroke-opacity="1" stroke-width="2" d="m 339.2585,134.52626 c 8.67761,0 9.91777,1.24234 9.91777,9.94882 v 6.97244 c 0,8.70646 -1.24016,9.94882 -9.91777,9.94882 h -8.83154 c -8.67758,0 -9.91775,-1.24236 -9.91775,-9.94882 v -6.97244 c 0,-8.70648 1.24017,-9.94882 9.91777,-9.94882 z" display="inline" enable-background="new" opacity=".1"/></clipPath><clipPath id="clipPath1237" clipPathUnits="userSpaceOnUse"><path id="path1239" fill="url(#linearGradient1241)" fill-opacity="1" stroke="none" stroke-dasharray="none" stroke-dashoffset="0" stroke-linecap="round" stroke-linejoin="round" stroke-miterlimit="4" stroke-opacity="1" stroke-width="2" d="M 351.93164,62.5 C 365.55326,62.5 367.5,64.44187 367.5,78.05078 V 89.94922 C 367.5,103.55808 365.55326,105.5 351.93164,105.5 H 336.06836 C 322.44674,105.5 320.5,103.55808 320.5,89.94922 V 78.05078 C 320.5,64.44187 322.44674,62.5 336.06836,62.5 Z" opacity="1"/></clipPath><clipPath id="clipPath1205" clipPathUnits="userSpaceOnUse"><path id="path1207" fill="#325fd1" fill-opacity="1" stroke="none" stroke-dasharray="none" stroke-dashoffset="0" stroke-linecap="round" stroke-linejoin="round" stroke-miterlimit="4" stroke-opacity="1" stroke-width="2" d="m 341.12109,133.5 c 9.08109,0 10.37891,1.29458 10.37891,10.36719 v 8.26562 c 0,9.07258 -1.29782,10.36719 -10.37891,10.36719 H 330.87891 C 321.79783,162.5 320.5,161.20539 320.5,152.13281 v -8.26562 c 0,-9.07261 1.29783,-10.36719 10.37891,-10.36719 z" opacity="1"/></clipPath><clipPath id="clipPath1231" clipPathUnits="userSpaceOnUse"><path id="path1233" fill="#325fd1" fill-opacity="1" stroke="none" stroke-dasharray="none" stroke-dashoffset="0" stroke-linecap="round" stroke-linejoin="round" stroke-miterlimit="4" stroke-opacity="1" stroke-width="2" d="m 335.71582,189.50031 c 6.81081,10e-6 7.78418,0.97093 7.78418,7.77539 v 5.44891 c 0,6.80444 -0.97337,7.77539 -7.78418,7.77539 h -7.43164 c -6.81081,0 -7.78418,-0.97095 -7.78418,-7.77539 v -5.44892 c 0,-6.80446 0.97337,-7.7754 7.78418,-7.77539 z" opacity="1"/></clipPath><clipPath id="clipPath1225" clipPathUnits="userSpaceOnUse"><path id="path1227" fill="#325fd1" fill-opacity="1" stroke="none" stroke-dasharray="none" stroke-dashoffset="0" stroke-linecap="round" stroke-linejoin="round" stroke-miterlimit="4" stroke-opacity="1" stroke-width="2" d="m 330.31054,236.5 c 4.54055,0 5.18946,0.64729 5.18946,5.18359 v 3.63282 c 0,4.53629 -0.64891,5.18359 -5.18946,5.18359 h -4.62109 c -4.54053,0 -5.18945,-0.6473 -5.18945,-5.18359 v -3.63282 c 0,-4.5363 0.64892,-5.18359 5.18946,-5.18359 z" opacity="1"/></clipPath><linearGradient id="linearGradient1048"><stop id="stop1044" offset="0" stop-color="#cdcdcd" stop-opacity="1"/><stop id="stop1046" offset="1" stop-color="#d9d9d9" stop-opacity="1"/></linearGradient></defs><metadata id="metadata4"/><g id="layer1" display="inline"><g id="layer7" display="none"><text enable-background="new" style="line-height:0%;-inkscape-font-specification:'DejaVu Sans'" id="context" x="19.007" y="-8.255" fill="#000" fill-opacity="1" stroke="none" display="inline" font-family="DejaVu Sans" font-stretch="normal" font-style="normal" font-variant="normal" font-weight="normal" xml:space="preserve"><tspan id="tspan3933" x="19.007" y="-8.255" font-family="DejaVu Sans" font-size="18" font-stretch="normal" font-style="normal" font-variant="normal" font-weight="normal" style="line-height:1.25;-inkscape-font-specification:'DejaVu Sans'">devices</tspan></text><text id="icon-name" x="146.488" y="-8.255" fill="#000" fill-opacity="1" stroke="none" display="inline" enable-background="new" font-family="DejaVu Sans" font-stretch="normal" font-style="normal" font-variant="normal" font-weight="bold" text-anchor="start" writing-mode="lr-tb" xml:space="preserve" style="line-height:0%;-inkscape-font-specification:'DejaVu Sans Bold';text-align:start"><tspan id="tspan3937" x="146.488" y="-8.255" font-family="DejaVu Sans" font-size="18" font-stretch="normal" font-style="normal" font-variant="normal" font-weight="bold" style="line-height:1.25;-inkscape-font-specification:'DejaVu Sans Bold'">media-optical</tspan></text><rect id="rect16x16" width="16" height="16" x="320" y="236" fill="#cdcdcd" fill-opacity="1" fill-rule="nonzero" stroke="none" stroke-width="2" display="inline" enable-background="accumulate" overflow="visible" visibility="visible" style="marker:none"/><rect id="rect24x24" width="24" height="24" x="320" y="188" fill="#cdcdcd" fill-opacity="1" fill-rule="nonzero" stroke="none" stroke-width="2" display="inline" enable-background="accumulate" overflow="visible" visibility="visible" style="marker:none"/><rect id="rect32x32" width="32" height="32" x="320" y="132" fill="#cdcdcd" fill-opacity="1" fill-rule="nonzero" stroke="none" stroke-width="2" display="inline" enable-background="accumulate" overflow="visible" visibility="visible" style="marker:none"/><rect id="rect48x48" width="48" height="48" x="320" y="60" fill="#cdcdcd" fill-opacity="1" fill-rule="nonzero" stroke="none" stroke-width="2" display="inline" enable-background="accumulate" overflow="visible" visibility="visible" style="marker:none"/><rect id="rect3951" width="256" height="256" x="24" y="28" fill="#cdcdcd" fill-opacity="1" fill-rule="nonzero" stroke="none" stroke-width="2" display="inline" enable-background="accumulate" overflow="visible" visibility="visible" style="marker:none"/></g><g id="layer8" display="inline"><circle id="path11042-0" cx="152" cy="160" r="112" fill="#000" fill-opacity="1" stroke="none" stroke-dasharray="none" stroke-linecap="round" stroke-linejoin="round" stroke-miterlimit="4" stroke-opacity="1" stroke-width="1" display="inline" enable-background="new" filter="url(#filter11210)" opacity=".3"/><circle id="path11042-6" cx="152" cy="158" r="112" fill="#000" fill-opacity="1" stroke="none" stroke-dasharray="none" stroke-linecap="round" stroke-linejoin="round" stroke-miterlimit="4" stroke-opacity="1" stroke-width="1" display="inline" enable-background="new" filter="url(#filter11191)" opacity=".1"/><circle id="path11042-7" cx="152" cy="156" r="114" fill="#000" fill-opacity="1" stroke="none" stroke-dasharray="none" stroke-linecap="round" stroke-linejoin="round" stroke-miterlimit="4" stroke-opacity="1" stroke-width="1" display="inline" enable-background="new" opacity=".1"/><circle id="path11042" cx="152" cy="156" r="112" fill="url(#linearGradient11065)" fill-opacity="1" stroke="none" stroke-dasharray="none" stroke-linecap="round" stroke-linejoin="round" stroke-miterlimit="4" stroke-opacity="1" stroke-width="1" display="inline" enable-background="new" opacity="1"/><path id="path11042-5" cx="152" cy="156" r="112" fill="#fff" fill-opacity="1" stroke="none" stroke-dasharray="none" stroke-linecap="round" stroke-linejoin="round" stroke-miterlimit="4" stroke-opacity="1" stroke-width="1" display="inline" enable-background="new" opacity="1"/><circle id="path9498-0-0" cx="-344" cy="-85" r="23" fill="#000" fill-opacity="1" stroke="none" stroke-dasharray="none" stroke-linecap="round" stroke-linejoin="round" stroke-miterlimit="4" stroke-opacity="1" stroke-width="1.954" display="inline" enable-background="new" opacity=".1" transform="scale(-1)"/><circle id="path9498-6" cx="344" cy="84" r="22.5" fill="url(#linearGradient8588)" fill-opacity="1" stroke="none" stroke-dasharray="none" stroke-linecap="round" stroke-linejoin="round" stroke-miterlimit="4" stroke-opacity="1" stroke-width="1.869" display="inline" enable-background="new" opacity="1"/><circle id="path9498-0-0-2" cx="-336" cy="-149" r="15" fill="#000" fill-opacity="1" stroke="none" stroke-dasharray="none" stroke-linecap="round" stroke-linejoin="round" stroke-miterlimit="4" stroke-opacity="1" stroke-width="1.954" display="inline" enable-background="new" opacity=".1" transform="scale(-1)"/><circle id="path9498-6-5" cx="336" cy="148" r="14.5" fill="url(#linearGradient8588-0)" fill-opacity="1" stroke="none" stroke-dasharray="none" stroke-linecap="round" stroke-linejoin="round" stroke-miterlimit="4" stroke-opacity="1" stroke-width="1.869" display="inline" enable-background="new" opacity="1"/><circle id="path9498-0-0-2-3" cx="-332" cy="-201" r="11" fill="#000" fill-opacity="1" stroke="none" stroke-dasharray="none" stroke-linecap="round" stroke-linejoin="round" stroke-miterlimit="4" stroke-opacity="1" stroke-width="1.954" display="inline" enable-background="new" opacity=".1" transform="scale(-1)"/><circle id="path9498-6-5-6" cx="332" cy="200" r="10.5" fill="url(#linearGradient8588-0-1)" fill-opacity="1" stroke="none" stroke-dasharray="none" stroke-linecap="round" stroke-linejoin="round" stroke-miterlimit="4" stroke-opacity="1" stroke-width="1.869" display="inline" enable-background="new" opacity="1"/><circle id="path9498-0-0-2-3-3" cx="-328" cy="-245" r="7" fill="#000" fill-opacity="1" stroke="none" stroke-dasharray="none" stroke-linecap="round" stroke-linejoin="round" stroke-miterlimit="4" stroke-opacity="1" stroke-width="1.954" display="inline" enable-background="new" opacity=".1" transform="scale(-1)"/><circle id="path9498-6-5-6-8" cx="328" cy="244" r="6.5" fill="url(#linearGradient8588-0-1-5)" fill-opacity="1" stroke="none" stroke-dasharray="none" stroke-linecap="round" stroke-linejoin="round" stroke-miterlimit="4" stroke-opacity="1" stroke-width="1.869" display="inline" enable-background="new" opacity="1"/><path id="path11042-53" fill="#fff" fill-opacity="1" stroke="none" stroke-dasharray="none" stroke-linecap="round" stroke-linejoin="round" stroke-miterlimit="4" stroke-opacity="1" stroke-width="1" d="M 152 44 A 112 112 0 0 0 40 156 L 152 156 L 152 44 z M 152 156 L 152 268 A 112 112 0 0 0 264 156 L 152 156 z" display="inline" enable-background="new" opacity=".2"/><path id="path11042-53-6" fill="#000" fill-opacity="1" stroke="none" stroke-dasharray="none" stroke-linecap="round" stroke-linejoin="round" stroke-miterlimit="4" stroke-opacity="1" stroke-width="1" d="m 231.19596,76.804041 a 112,112 0 0 0 -158.391919,0 L 152,156 Z M 152,156 72.804041,235.19596 a 112,112 0 0 0 158.391919,0 z" display="inline" enable-background="new" opacity=".02"/><path id="path11042-53-6-2" fill="#faf8f6" fill-opacity="1" stroke="none" stroke-dasharray="none" stroke-linecap="round" stroke-linejoin="round" stroke-miterlimit="4" stroke-opacity="1" stroke-width="1" d="m 121.44856,48.249113 a 112,112 0 0 0 -2.03367,0.688485 112,112 0 0 1 5.41608,-1.467409 112,112 0 0 0 -3.38241,0.778924 z m 8.81964,-2.031602 a 112,112 0 0 1 5.51726,-0.916223 112,112 0 0 0 -5.51726,0.916223 z m -16.13892,4.508414 a 112,112 0 0 0 -5.23705,1.999761 112,112 0 0 1 5.23705,-1.999761 z m 27.21962,-6.130811 a 112,112 0 0 1 5.55882,-0.361191 112,112 0 0 0 -5.55882,0.361191 z m -37.5313,10.434599 a 112,112 0 0 0 -5.033989,2.523649 112,112 0 0 1 5.033989,-2.523649 z m 48.70606,-10.943799 a 112,112 0 0 1 5.58578,0.199771 112,112 0 0 0 -5.58578,-0.199771 z M 93.988108,60.340677 A 112,112 0 0 0 89.225332,63.3558 112,112 0 0 1 93.988108,60.340677 Z M 163.67649,44.694702 a 112,112 0 0 1 5.55298,0.756528 112,112 0 0 0 -5.55298,-0.756528 z M 84.727175,66.61141 a 112,112 0 0 0 -4.438508,3.478225 112,112 0 0 1 4.438508,-3.478225 z M 174.75,46.418658 a 112,112 0 0 1 5.41096,1.298069 A 112,112 0 0 0 174.75,46.418658 Z M 74.525186,75.210915 a 112,112 0 0 0 -1.270164,1.183523 112,112 0 0 1 1.270164,-1.183523 z m -1.675884,1.623848 A 112,112 0 0 0 55.018278,99.998834 l 96.994052,55.999546 z m 79.163028,79.163617 79.16303,79.16361 a 112,112 0 0 0 17.83102,-23.16407 z M 185.57232,49.235089 a 112,112 0 0 1 5.26554,1.83445 112,112 0 0 0 -5.26554,-1.83445 z m 10.48491,3.881454 a 112,112 0 0 1 5.0821,2.364844 112,112 0 0 0 -5.0821,-2.364844 z m 10.0512,4.911619 a 112,112 0 0 1 1.83715,1.090983 l 0.0663,-0.11482 a 112,112 0 0 0 -1.90344,-0.976163 z M 96.079079,252.87761 l -0.06629,0.11482 a 112,112 0 0 0 1.903446,0.97616 112,112 0 0 1 -1.837154,-1.09098 z m 6.806251,3.63775 a 112,112 0 0 0 5.08211,2.36485 112,112 0 0 1 -5.08211,-2.36485 z m 10.30148,4.41185 a 112,112 0 0 0 5.26553,1.83445 112,112 0 0 1 -5.26553,-1.83445 z m 117.58283,-25.3249 a 112,112 0 0 1 -1.27017,1.18352 112,112 0 0 0 1.27017,-1.18352 z M 123.8637,264.28003 a 112,112 0 0 0 5.41096,1.29807 112,112 0 0 1 -5.41096,-1.29807 z m 99.87229,-22.37291 a 112,112 0 0 1 -4.4385,3.47822 112,112 0 0 0 4.4385,-3.47822 z m -88.9408,24.6384 a 112,112 0 0 0 5.55298,0.75653 112,112 0 0 1 -5.55298,-0.75653 z m 80.00414,-17.90457 a 112,112 0 0 1 -4.76278,3.01513 112,112 0 0 0 4.76278,-3.01513 z m -68.88411,19.07011 a 112,112 0 0 0 5.58578,0.19978 112,112 0 0 1 -5.58578,-0.19978 z m 59.32583,-13.26767 a 112,112 0 0 1 -5.03399,2.52365 112,112 0 0 0 5.03399,-2.52365 z m -48.12411,13.31944 a 112,112 0 0 0 5.55882,-0.36119 112,112 0 0 1 -5.55882,0.36119 z m 38.01549,-8.49177 a 112,112 0 0 1 -5.23705,1.99976 112,112 0 0 0 5.23705,-1.99976 z m -26.89323,7.4244 a 112,112 0 0 0 5.51726,-0.91622 112,112 0 0 1 -5.51726,0.91622 z m 16.37057,-3.6363 a 112,112 0 0 1 -5.41608,1.4674 112,112 0 0 0 5.41608,-1.4674 z" display="inline" enable-background="new" opacity="1"/><circle id="path7147" cx="152" cy="-156" r="40" fill="#aea795" fill-opacity="1" stroke="none" stroke-dasharray="none" stroke-dashoffset="0" stroke-linecap="round" stroke-linejoin="round" stroke-miterlimit="4" stroke-opacity="1" stroke-width="2.76" display="inline" enable-background="new" opacity="1" transform="scale(1,-1)"/><circle id="path7164" cx="152" cy="156" r="36" fill="#faf8f6" fill-opacity="1" stroke="none" stroke-dasharray="none" stroke-dashoffset="0" stroke-linecap="round" stroke-linejoin="round" stroke-miterlimit="4" stroke-opacity="1" stroke-width="2.571" opacity="1"/><circle id="path7166" cx="152" cy="156" r="14" fill="#4d4d4d" fill-opacity="1" stroke="none" stroke-dasharray="none" stroke-dashoffset="0" stroke-linecap="round" stroke-linejoin="round" stroke-miterlimit="4" stroke-opacity="1" stroke-width="3.5" opacity="1"/><path id="path11042-53-1" fill="#fff" fill-opacity="1" stroke="none" stroke-dasharray="none" stroke-linecap="round" stroke-linejoin="round" stroke-miterlimit="4" stroke-opacity="1" stroke-width=".201" d="M 344,61.5 A 22.5,22.5 0 0 0 321.5,83.999999 H 344 Z m 0,22.499999 V 106.5 a 22.5,22.5 0 0 0 22.5,-22.500001 z" display="inline" enable-background="new" opacity=".2"/><path id="path11042-53-6-27" fill="#000" fill-opacity="1" stroke="none" stroke-dasharray="none" stroke-linecap="round" stroke-linejoin="round" stroke-miterlimit="4" stroke-opacity="1" stroke-width=".201" d="m 359.9099,68.090098 a 22.5,22.5 0 0 0 -31.81981,0 L 344,83.999999 Z M 344,83.999999 328.09009,99.909902 a 22.5,22.5 0 0 0 31.81981,0 z" display="inline" enable-background="new" opacity=".02"/><path id="path11042-53-6-2-0" fill="#faf8f6" fill-opacity="1" stroke="none" stroke-dasharray="none" stroke-linecap="round" stroke-linejoin="round" stroke-miterlimit="4" stroke-opacity="1" stroke-width=".201" d="m 337.86243,62.353616 a 22.5,22.5 0 0 0 -0.40855,0.138312 22.5,22.5 0 0 1 1.08805,-0.294792 22.5,22.5 0 0 0 -0.6795,0.15648 z m 1.7718,-0.408134 a 22.5,22.5 0 0 1 1.10838,-0.184063 22.5,22.5 0 0 0 -1.10838,0.184063 z m -3.24219,0.905708 a 22.5,22.5 0 0 0 -1.05209,0.401738 22.5,22.5 0 0 1 1.05209,-0.401738 z m 5.46823,-1.231636 a 22.5,22.5 0 0 1 1.11672,-0.07256 22.5,22.5 0 0 0 -1.11672,0.07256 z m -7.53977,2.096237 a 22.5,22.5 0 0 0 -1.0113,0.506983 22.5,22.5 0 0 1 1.0113,-0.506983 z m 9.7847,-2.198532 a 22.5,22.5 0 0 1 1.12214,0.04013 22.5,22.5 0 0 0 -1.12214,-0.04013 z m -11.75938,3.265466 a 22.5,22.5 0 0 0 -0.95681,0.605717 22.5,22.5 0 0 1 0.95681,-0.605717 z m 13.9999,-3.143164 a 22.5,22.5 0 0 1 1.11555,0.151981 22.5,22.5 0 0 0 -1.11555,-0.151981 z m -15.86035,4.40291 a 22.5,22.5 0 0 0 -0.89167,0.69875 22.5,22.5 0 0 1 0.89167,-0.69875 z m 18.08494,-4.05658 a 22.5,22.5 0 0 1 1.08702,0.260773 22.5,22.5 0 0 0 -1.08702,-0.260773 z m -20.13445,5.784159 a 22.5,22.5 0 0 0 -0.25517,0.237761 22.5,22.5 0 0 1 0.25517,-0.237761 z m -0.33667,0.326219 a 22.5,22.5 0 0 0 -3.58213,4.653497 l 19.48541,11.249908 z m 15.90328,15.903405 15.90329,15.903404 a 22.5,22.5 0 0 0 3.58213,-4.653496 z m 6.74197,-21.447982 a 22.5,22.5 0 0 1 1.05781,0.368528 22.5,22.5 0 0 0 -1.05781,-0.368528 z m 2.10634,0.779756 a 22.5,22.5 0 0 1 1.02096,0.475081 22.5,22.5 0 0 0 -1.02096,-0.475081 z m 2.01921,0.98671 a 22.5,22.5 0 0 1 0.36907,0.21917 l 0.0133,-0.02307 a 22.5,22.5 0 0 0 -0.38236,-0.1961 z m -22.10411,39.143862 -0.0133,0.0231 a 22.5,22.5 0 0 0 0.38239,0.1961 22.5,22.5 0 0 1 -0.36907,-0.21917 z m 1.36733,0.7308 a 22.5,22.5 0 0 0 1.02096,0.47508 22.5,22.5 0 0 1 -1.02096,-0.47508 z m 2.06949,0.88631 a 22.5,22.5 0 0 0 1.05781,0.36852 22.5,22.5 0 0 1 -1.05781,-0.36852 z m 23.62155,-5.087595 a 22.5,22.5 0 0 1 -0.25516,0.237765 22.5,22.5 0 0 0 0.25516,-0.237765 z m -21.47664,5.761145 a 22.5,22.5 0 0 0 1.08703,0.26078 22.5,22.5 0 0 1 -1.08703,-0.26078 z m 20.06363,-4.49455 a 22.5,22.5 0 0 1 -0.89166,0.69875 22.5,22.5 0 0 0 0.89166,-0.69875 z m -17.86757,4.94968 a 22.5,22.5 0 0 0 1.11556,0.15198 22.5,22.5 0 0 1 -1.11556,-0.15198 z m 16.07226,-3.59691 a 22.5,22.5 0 0 1 -0.95681,0.60572 22.5,22.5 0 0 0 0.95681,-0.60572 z m -13.83832,3.83105 a 22.5,22.5 0 0 0 1.12214,0.0401 22.5,22.5 0 0 1 -1.12214,-0.0401 z m 11.91813,-2.66538 a 22.5,22.5 0 0 1 -1.01129,0.50699 22.5,22.5 0 0 0 1.01129,-0.50699 z m -9.66779,2.67578 a 22.5,22.5 0 0 0 1.11673,-0.0726 22.5,22.5 0 0 1 -1.11673,0.0726 z m 7.63704,-1.70593 a 22.5,22.5 0 0 1 -1.05208,0.40174 22.5,22.5 0 0 0 1.05208,-0.40174 z m -5.40265,1.49151 a 22.5,22.5 0 0 0 1.10837,-0.18407 22.5,22.5 0 0 1 -1.10837,0.18407 z m 3.28873,-0.73051 a 22.5,22.5 0 0 1 -1.08806,0.29479 22.5,22.5 0 0 0 1.08806,-0.29479 z" display="inline" enable-background="new" opacity="1"/><circle id="path7147-9" cx="344" cy="-84" r="8.036" fill="#aea795" fill-opacity="1" stroke="none" stroke-dasharray="none" stroke-dashoffset="0" stroke-linecap="round" stroke-linejoin="round" stroke-miterlimit="4" stroke-opacity="1" stroke-width=".555" display="inline" enable-background="new" opacity="1" transform="scale(1,-1)"/><circle id="path7164-3" cx="344" cy="84" r="7" fill="#faf8f6" fill-opacity="1" stroke="none" stroke-dasharray="none" stroke-dashoffset="0" stroke-linecap="round" stroke-linejoin="round" stroke-miterlimit="4" stroke-opacity="1" stroke-width=".5" display="inline" enable-background="new" opacity="1"/><circle id="path7166-6" cx="344" cy="84" r="3" fill="#4d4d4d" fill-opacity="1" stroke="none" stroke-dasharray="none" stroke-dashoffset="0" stroke-linecap="round" stroke-linejoin="round" stroke-miterlimit="4" stroke-opacity="1" stroke-width=".75" display="inline" enable-background="new" opacity="1"/><path id="path11042-53-1-6" fill="#fff" fill-opacity="1" stroke="none" stroke-dasharray="none" stroke-linecap="round" stroke-linejoin="round" stroke-miterlimit="4" stroke-opacity="1" stroke-width=".129" d="M 336,133.5 A 14.5,14.5 0 0 0 321.5,148 H 336 Z m 0,14.5 v 14.5 A 14.5,14.5 0 0 0 350.5,148 Z" display="inline" enable-background="new" opacity=".2"/><path id="path11042-53-6-27-2" fill="#000" fill-opacity="1" stroke="none" stroke-dasharray="none" stroke-linecap="round" stroke-linejoin="round" stroke-miterlimit="4" stroke-opacity="1" stroke-width=".129" d="m 346.25304,137.74695 a 14.5,14.5 0 0 0 -20.50609,0 L 336,148 Z M 336,148 325.74695,158.25305 a 14.5,14.5 0 0 0 20.50609,0 z" display="inline" enable-background="new" opacity=".02"/><path id="path11042-53-6-2-0-6" fill="#faf8f6" fill-opacity="1" stroke="none" stroke-dasharray="none" stroke-linecap="round" stroke-linejoin="round" stroke-miterlimit="4" stroke-opacity="1" stroke-width=".129" d="m 332.04468,134.05011 a 14.5,14.5 0 0 0 -0.26329,0.0891 14.5,14.5 0 0 1 0.70119,-0.18998 14.5,14.5 0 0 0 -0.4379,0.10085 z m 1.14182,-0.26302 a 14.5,14.5 0 0 1 0.71429,-0.11862 14.5,14.5 0 0 0 -0.71429,0.11862 z m -2.08941,0.58367 a 14.5,14.5 0 0 0 -0.67801,0.2589 14.5,14.5 0 0 1 0.67801,-0.2589 z m 3.52397,-0.79372 a 14.5,14.5 0 0 1 0.71967,-0.0468 14.5,14.5 0 0 0 -0.71967,0.0468 z m -4.85896,1.35091 a 14.5,14.5 0 0 0 -0.65173,0.32672 14.5,14.5 0 0 1 0.65173,-0.32672 z m 6.30569,-1.41683 a 14.5,14.5 0 0 1 0.72316,0.0259 14.5,14.5 0 0 0 -0.72316,-0.0259 z m -7.57826,2.10441 a 14.5,14.5 0 0 0 -0.61661,0.39035 14.5,14.5 0 0 1 0.61661,-0.39035 z m 9.02215,-2.02559 a 14.5,14.5 0 0 1 0.71892,0.0979 14.5,14.5 0 0 0 -0.71892,-0.0979 z m -10.22111,2.83743 a 14.5,14.5 0 0 0 -0.57463,0.4503 14.5,14.5 0 0 1 0.57463,-0.4503 z m 11.65474,-2.61424 a 14.5,14.5 0 0 1 0.70052,0.16805 14.5,14.5 0 0 0 -0.70052,-0.16805 z m -12.97554,3.72757 a 14.5,14.5 0 0 0 -0.16444,0.15322 14.5,14.5 0 0 1 0.16444,-0.15322 z m -0.21696,0.21023 a 14.5,14.5 0 0 0 -2.30848,2.99892 l 12.55726,7.24994 z m 10.24878,10.24886 10.24879,10.24886 a 14.5,14.5 0 0 0 2.30848,-2.99892 z m 4.34482,-13.82204 a 14.5,14.5 0 0 1 0.6817,0.2375 14.5,14.5 0 0 0 -0.6817,-0.2375 z m 1.35742,0.50251 a 14.5,14.5 0 0 1 0.65795,0.30617 14.5,14.5 0 0 0 -0.65795,-0.30617 z m 1.30128,0.63588 a 14.5,14.5 0 0 1 0.23784,0.14125 l 0.009,-0.0149 a 14.5,14.5 0 0 0 -0.24642,-0.12638 z m -14.24488,25.22605 -0.009,0.0149 a 14.5,14.5 0 0 0 0.24643,0.12638 14.5,14.5 0 0 1 -0.23785,-0.14124 z m 0.88117,0.47096 a 14.5,14.5 0 0 0 0.65795,0.30616 14.5,14.5 0 0 1 -0.65795,-0.30616 z m 1.33367,0.57117 a 14.5,14.5 0 0 0 0.6817,0.2375 14.5,14.5 0 0 1 -0.6817,-0.2375 z m 15.22278,-3.27867 a 14.5,14.5 0 0 1 -0.16444,0.15323 14.5,14.5 0 0 0 0.16444,-0.15323 z m -13.8405,3.71274 a 14.5,14.5 0 0 0 0.70053,0.16806 14.5,14.5 0 0 1 -0.70053,-0.16806 z m 12.9299,-2.89649 a 14.5,14.5 0 0 1 -0.57463,0.45031 14.5,14.5 0 0 0 0.57463,-0.45031 z m -11.51466,3.18979 a 14.5,14.5 0 0 0 0.71891,0.0979 14.5,14.5 0 0 1 -0.71891,-0.0979 z m 10.35768,-2.318 a 14.5,14.5 0 0 1 -0.61661,0.39035 14.5,14.5 0 0 0 0.61661,-0.39035 z m -8.91804,2.4689 a 14.5,14.5 0 0 0 0.72316,0.0259 14.5,14.5 0 0 1 -0.72316,-0.0259 z m 7.68058,-1.71769 a 14.5,14.5 0 0 1 -0.65172,0.32672 14.5,14.5 0 0 0 0.65172,-0.32672 z m -6.23035,1.72439 a 14.5,14.5 0 0 0 0.71967,-0.0468 14.5,14.5 0 0 1 -0.71967,0.0468 z m 4.92165,-1.09938 a 14.5,14.5 0 0 1 -0.67802,0.2589 14.5,14.5 0 0 0 0.67802,-0.2589 z m -3.48172,0.9612 a 14.5,14.5 0 0 0 0.71429,-0.11862 14.5,14.5 0 0 1 -0.71429,0.11862 z m 2.11941,-0.47077 a 14.5,14.5 0 0 1 -0.70119,0.18997 14.5,14.5 0 0 0 0.70119,-0.18997 z" display="inline" enable-background="new" opacity="1"/><circle id="path7147-9-1" cx="336" cy="-148" r="5" fill="#aea795" fill-opacity="1" stroke="none" stroke-dasharray="none" stroke-dashoffset="0" stroke-linecap="round" stroke-linejoin="round" stroke-miterlimit="4" stroke-opacity="1" stroke-width=".345" display="inline" enable-background="new" opacity="1" transform="scale(1,-1)"/><circle id="path7164-3-8" cx="336" cy="148" r="4" fill="#faf8f6" fill-opacity="1" stroke="none" stroke-dasharray="none" stroke-dashoffset="0" stroke-linecap="round" stroke-linejoin="round" stroke-miterlimit="4" stroke-opacity="1" stroke-width=".286" display="inline" enable-background="new" opacity="1"/><circle id="path7166-6-7" cx="336" cy="148" r="2" fill="#4d4d4d" fill-opacity="1" stroke="none" stroke-dasharray="none" stroke-dashoffset="0" stroke-linecap="round" stroke-linejoin="round" stroke-miterlimit="4" stroke-opacity="1" stroke-width=".5" display="inline" enable-background="new" opacity="1"/><g id="g7204-0-9" display="inline" transform="matrix(0.09375,0,0,0.09375,292.62299,190.40341)"><path id="path11042-53-1-6-2" fill="#fff" fill-opacity="1" stroke="none" stroke-dasharray="none" stroke-linecap="round" stroke-linejoin="round" stroke-miterlimit="4" stroke-opacity="1" stroke-width="1" d="m 420.02143,-9.6363458 a 112,112 0 0 0 -112,111.9999958 h 112 z m 0,111.9999958 v 112 a 112,112 0 0 0 112,-112 z" display="inline" enable-background="new" opacity=".2"/><path id="path11042-53-6-27-2-0" fill="#000" fill-opacity="1" stroke="none" stroke-dasharray="none" stroke-linecap="round" stroke-linejoin="round" stroke-miterlimit="4" stroke-opacity="1" stroke-width="1" d="m 499.21739,23.167695 a 112,112 0 0 0 -158.39192,0 l 79.19596,79.195955 z m -79.19596,79.195955 -79.19596,79.19596 a 112,112 0 0 0 158.39192,0 z" display="inline" enable-background="new" opacity=".02"/><path id="path11042-53-6-2-0-6-2" fill="#faf8f6" fill-opacity="1" stroke="none" stroke-dasharray="none" stroke-linecap="round" stroke-linejoin="round" stroke-miterlimit="4" stroke-opacity="1" stroke-width="1" d="m 389.46999,-5.3872328 a 112,112 0 0 0 -2.03367,0.688485 112,112 0 0 1 5.41608,-1.467409 112,112 0 0 0 -3.38241,0.778924 z m 8.81964,-2.031602 a 112,112 0 0 1 5.51726,-0.916223 112,112 0 0 0 -5.51726,0.916223 z m -16.13892,4.508414 a 112,112 0 0 0 -5.23705,1.99976104 112,112 0 0 1 5.23705,-1.99976104 z m 27.21962,-6.130811 a 112,112 0 0 1 5.55882,-0.361191 112,112 0 0 0 -5.55882,0.361191 z m -37.5313,10.434599 a 112,112 0 0 0 -5.03399,2.523649 112,112 0 0 1 5.03399,-2.523649 z m 48.70606,-10.943799 a 112,112 0 0 1 5.58578,0.199771 112,112 0 0 0 -5.58578,-0.199771 z m -58.53555,16.254763 a 112,112 0 0 0 -4.76278,3.015123 112,112 0 0 1 4.76278,-3.015123 z m 69.68838,-15.645975 a 112,112 0 0 1 5.55298,0.756528 112,112 0 0 0 -5.55298,-0.756528 z M 352.7486,12.975064 a 112,112 0 0 0 -4.4385,3.478225 112,112 0 0 1 4.4385,-3.478225 z m 90.02283,-20.1927518 a 112,112 0 0 1 5.41096,1.298069 112,112 0 0 0 -5.41096,-1.298069 z M 342.54661,21.574569 a 112,112 0 0 0 -1.27016,1.183523 112,112 0 0 1 1.27016,-1.183523 z m -1.67588,1.623848 a 112,112 0 0 0 -17.83102,23.164071 l 96.99405,55.999542 z m 79.16303,79.163613 79.16303,79.16361 a 112,112 0 0 0 17.83102,-23.16407 z M 453.59375,-4.4012568 a 112,112 0 0 1 5.26554,1.83445 112,112 0 0 0 -5.26554,-1.83445 z m 10.48491,3.88145404 a 112,112 0 0 1 5.0821,2.36484396 112,112 0 0 0 -5.0821,-2.36484396 z m 10.0512,4.91161896 a 112,112 0 0 1 1.83715,1.090983 l 0.0663,-0.11482 a 112,112 0 0 0 -1.90344,-0.976163 z M 364.10051,199.24126 l -0.0663,0.11482 a 112,112 0 0 0 1.90344,0.97616 112,112 0 0 1 -1.83715,-1.09098 z m 6.80625,3.63775 a 112,112 0 0 0 5.08211,2.36485 112,112 0 0 1 -5.08211,-2.36485 z m 10.30148,4.41185 a 112,112 0 0 0 5.26553,1.83445 112,112 0 0 1 -5.26553,-1.83445 z m 117.58283,-25.3249 a 112,112 0 0 1 -1.27017,1.18352 112,112 0 0 0 1.27017,-1.18352 z m -106.90594,28.67772 a 112,112 0 0 0 5.41096,1.29807 112,112 0 0 1 -5.41096,-1.29807 z m 99.87229,-22.37291 a 112,112 0 0 1 -4.4385,3.47822 112,112 0 0 0 4.4385,-3.47822 z m -88.9408,24.6384 a 112,112 0 0 0 5.55298,0.75653 112,112 0 0 1 -5.55298,-0.75653 z m 80.00414,-17.90457 a 112,112 0 0 1 -4.76278,3.01513 112,112 0 0 0 4.76278,-3.01513 z m -68.88411,19.07011 a 112,112 0 0 0 5.58578,0.19978 112,112 0 0 1 -5.58578,-0.19978 z m 59.32583,-13.26767 a 112,112 0 0 1 -5.03399,2.52365 112,112 0 0 0 5.03399,-2.52365 z m -48.12411,13.31944 a 112,112 0 0 0 5.55882,-0.36119 112,112 0 0 1 -5.55882,0.36119 z m 38.01549,-8.49177 a 112,112 0 0 1 -5.23705,1.99976 112,112 0 0 0 5.23705,-1.99976 z m -26.89323,7.4244 a 112,112 0 0 0 5.51726,-0.91622 112,112 0 0 1 -5.51726,0.91622 z m 16.37057,-3.6363 a 112,112 0 0 1 -5.41608,1.4674 112,112 0 0 0 5.41608,-1.4674 z" display="inline" enable-background="new" opacity="1"/><circle id="path7147-9-1-3" cx="420.021" cy="-102.364" r="40" fill="#aea795" fill-opacity="1" stroke="none" stroke-dasharray="none" stroke-dashoffset="0" stroke-linecap="round" stroke-linejoin="round" stroke-miterlimit="4" stroke-opacity="1" stroke-width="2.76" display="inline" enable-background="new" opacity="1" transform="scale(1,-1)"/><circle id="path7164-3-8-7" cx="420.021" cy="102.364" r="36" fill="#faf8f6" fill-opacity="1" stroke="none" stroke-dasharray="none" stroke-dashoffset="0" stroke-linecap="round" stroke-linejoin="round" stroke-miterlimit="4" stroke-opacity="1" stroke-width="2.571" display="inline" enable-background="new" opacity="1"/><circle id="path7166-6-7-5" cx="420.021" cy="102.364" r="14" fill="#4d4d4d" fill-opacity="1" stroke="none" stroke-dasharray="none" stroke-dashoffset="0" stroke-linecap="round" stroke-linejoin="round" stroke-miterlimit="4" stroke-opacity="1" stroke-width="3.5" display="inline" enable-background="new" opacity="1"/></g><path id="path11042-53-1-6-2-2" fill="#fff" fill-opacity="1" stroke="none" stroke-dasharray="none" stroke-linecap="round" stroke-linejoin="round" stroke-miterlimit="4" stroke-opacity="1" stroke-width=".058" d="m 328,237.5 a 6.4999995,6.4999995 0 0 0 -6.5,6.5 h 6.5 z m 0,6.5 v 6.5 a 6.4999995,6.4999995 0 0 0 6.5,-6.5 z" display="inline" enable-background="new" opacity=".2"/><path id="path11042-53-6-27-2-0-2" fill="#000" fill-opacity="1" stroke="none" stroke-dasharray="none" stroke-linecap="round" stroke-linejoin="round" stroke-miterlimit="4" stroke-opacity="1" stroke-width=".058" d="m 332.5962,239.4038 a 6.4999995,6.4999995 0 0 0 -9.19239,0 L 328,244 Z M 328,244 l -4.59619,4.59619 a 6.4999995,6.4999995 0 0 0 9.19239,0 z" display="inline" enable-background="new" opacity=".02"/><path id="path11042-53-6-2-0-6-2-8" fill="#faf8f6" fill-opacity="1" stroke="none" stroke-dasharray="none" stroke-linecap="round" stroke-linejoin="round" stroke-miterlimit="4" stroke-opacity="1" stroke-width=".058" d="m 326.22693,237.7466 a 6.4999995,6.4999995 0 0 0 -0.11803,0.04 6.4999995,6.4999995 0 0 1 0.31433,-0.0852 6.4999995,6.4999995 0 0 0 -0.1963,0.0452 z m 0.51185,-0.11791 a 6.4999995,6.4999995 0 0 1 0.3202,-0.0532 6.4999995,6.4999995 0 0 0 -0.3202,0.0532 z m -0.93663,0.26165 a 6.4999995,6.4999995 0 0 0 -0.30394,0.11606 6.4999995,6.4999995 0 0 1 0.30394,-0.11606 z m 1.57971,-0.3558 a 6.4999995,6.4999995 0 0 1 0.32261,-0.021 6.4999995,6.4999995 0 0 0 -0.32261,0.021 z m -2.17816,0.60558 a 6.4999995,6.4999995 0 0 0 -0.29215,0.14646 6.4999995,6.4999995 0 0 1 0.29215,-0.14646 z m 2.82669,-0.63514 a 6.4999995,6.4999995 0 0 1 0.32418,0.0116 6.4999995,6.4999995 0 0 0 -0.32418,-0.0116 z m -3.39715,0.94336 a 6.4999995,6.4999995 0 0 0 -0.27641,0.17499 6.4999995,6.4999995 0 0 1 0.27641,-0.17499 z m 4.04442,-0.90802 a 6.4999995,6.4999995 0 0 1 0.32227,0.0439 6.4999995,6.4999995 0 0 0 -0.32227,-0.0439 z m -4.58188,1.27195 a 6.4999995,6.4999995 0 0 0 -0.2576,0.20186 6.4999995,6.4999995 0 0 1 0.2576,-0.20186 z m 5.22453,-1.1719 a 6.4999995,6.4999995 0 0 1 0.31403,0.0753 6.4999995,6.4999995 0 0 0 -0.31403,-0.0753 z m -5.81661,1.67098 a 6.4999995,6.4999995 0 0 0 -0.0737,0.0687 6.4999995,6.4999995 0 0 1 0.0737,-0.0687 z m -0.0973,0.0942 a 6.4999995,6.4999995 0 0 0 -1.03483,1.34434 l 5.62912,3.24997 z m 4.59429,4.59431 4.59428,4.59432 a 6.4999995,6.4999995 0 0 0 1.03484,-1.34434 z m 1.94768,-6.19608 a 6.4999995,6.4999995 0 0 1 0.30558,0.10646 6.4999995,6.4999995 0 0 0 -0.30558,-0.10646 z m 0.60849,0.22526 a 6.4999995,6.4999995 0 0 1 0.29495,0.13725 6.4999995,6.4999995 0 0 0 -0.29495,-0.13725 z m 0.58333,0.28505 a 6.4999995,6.4999995 0 0 1 0.10662,0.0633 l 0.004,-0.007 a 6.4999995,6.4999995 0 0 0 -0.11047,-0.0566 z m -6.38563,11.30823 -0.004,0.007 a 6.4999995,6.4999995 0 0 0 0.11047,0.0566 6.4999995,6.4999995 0 0 1 -0.10662,-0.0633 z m 0.39501,0.21112 a 6.4999995,6.4999995 0 0 0 0.29494,0.13724 6.4999995,6.4999995 0 0 1 -0.29494,-0.13724 z m 0.59785,0.25604 a 6.4999995,6.4999995 0 0 0 0.30559,0.10647 6.4999995,6.4999995 0 0 1 -0.30559,-0.10647 z m 6.824,-1.46975 a 6.4999995,6.4999995 0 0 1 -0.0737,0.0687 6.4999995,6.4999995 0 0 0 0.0737,-0.0687 z m -6.20436,1.66434 a 6.4999995,6.4999995 0 0 0 0.31403,0.0753 6.4999995,6.4999995 0 0 1 -0.31403,-0.0753 z m 5.79616,-1.29843 a 6.4999995,6.4999995 0 0 1 -0.25759,0.20186 6.4999995,6.4999995 0 0 0 0.25759,-0.20186 z m -5.16174,1.4299 a 6.4999995,6.4999995 0 0 0 0.32227,0.0439 6.4999995,6.4999995 0 0 1 -0.32227,-0.0439 z m 4.6431,-1.0391 a 6.4999995,6.4999995 0 0 1 -0.27642,0.17499 6.4999995,6.4999995 0 0 0 0.27642,-0.17499 z m -3.99774,1.10675 a 6.4999995,6.4999995 0 0 0 0.32417,0.0116 6.4999995,6.4999995 0 0 1 -0.32417,-0.0116 z m 3.44301,-0.77 a 6.4999995,6.4999995 0 0 1 -0.29215,0.14646 6.4999995,6.4999995 0 0 0 0.29215,-0.14646 z m -2.79291,0.773 a 6.4999995,6.4999995 0 0 0 0.32261,-0.021 6.4999995,6.4999995 0 0 1 -0.32261,0.021 z m 2.20625,-0.49282 a 6.4999995,6.4999995 0 0 1 -0.30393,0.11605 6.4999995,6.4999995 0 0 0 0.30393,-0.11605 z m -1.56076,0.43088 a 6.4999995,6.4999995 0 0 0 0.32019,-0.0532 6.4999995,6.4999995 0 0 1 -0.32019,0.0532 z m 0.95007,-0.21104 a 6.4999995,6.4999995 0 0 1 -0.31432,0.0852 6.4999995,6.4999995 0 0 0 0.31432,-0.0852 z" display="inline" enable-background="new" opacity="1"/><circle id="path7147-9-1-3-9" cx="328" cy="-244" r="3" fill="#aea795" fill-opacity="1" stroke="none" stroke-dasharray="none" stroke-dashoffset="0" stroke-linecap="round" stroke-linejoin="round" stroke-miterlimit="4" stroke-opacity="1" stroke-width=".207" display="inline" enable-background="new" opacity="1" transform="scale(1,-1)"/><circle id="path7164-3-8-7-7" cx="328" cy="244" r="2" fill="#faf8f6" fill-opacity="1" stroke="none" stroke-dasharray="none" stroke-dashoffset="0" stroke-linecap="round" stroke-linejoin="round" stroke-miterlimit="4" stroke-opacity="1" stroke-width=".143" display="inline" enable-background="new" opacity="1"/><circle id="path7166-6-7-5-3" cx="328" cy="244" r="1" fill="#4d4d4d" fill-opacity="1" stroke="none" stroke-dasharray="none" stroke-dashoffset="0" stroke-linecap="round" stroke-linejoin="round" stroke-miterlimit="4" stroke-opacity="1" stroke-width=".25" display="inline" enable-background="new" opacity="1"/></g><g id="layer5" display="inline"><path id="path11042-1" fill="#fff" fill-opacity="1" stroke="none" stroke-dasharray="none" stroke-linecap="round" stroke-linejoin="round" stroke-miterlimit="4" stroke-opacity="1" stroke-width="1" d="M 152,43.999994 A 112,112 0 0 0 40,155.99999 112,112 0 0 0 40.04102,157.16991 112,112 0 0 1 152,45.999994 112,112 0 0 1 263.95898,156.83007 a 112,112 0 0 0 0.041,-0.83008 112,112 0 0 0 -112,-111.999996 z" display="inline" enable-background="new" opacity=".3"/><path id="path11042-1-7" fill="#000" fill-opacity="1" stroke="none" stroke-dasharray="none" stroke-linecap="round" stroke-linejoin="round" stroke-miterlimit="4" stroke-opacity="1" stroke-width="1" d="m 152,267.99999 a 112,112 0 0 1 -112,-112 112,112 0 0 1 0.04102,-1.16992 A 112,112 0 0 0 152,265.99999 112,112 0 0 0 263.95898,155.16991 a 112,112 0 0 1 0.041,0.83008 112,112 0 0 1 -112,112 z" display="inline" enable-background="new" opacity=".2"/><path id="path9498-9-1" fill="#000" fill-opacity="1" stroke="none" stroke-dasharray="none" stroke-linecap="round" stroke-linejoin="round" stroke-miterlimit="4" stroke-opacity="1" stroke-width="1.954" d="m 344,61 a 23,23 0 0 0 -23,23 23,23 0 0 0 23,23 23,23 0 0 0 23,-23 23,23 0 0 0 -23,-23 z m 0,1 c 12.15027,0 22,9.849738 22,22 0,12.150256 -9.84974,22 -22,22 -12.15026,0 -22,-9.849744 -22,-22 0,-12.150262 9.84973,-22 22,-22 z" display="inline" enable-background="new" opacity=".4"/><path id="path9498-1-6" fill="url(#linearGradient8590)" fill-opacity="1" stroke="none" stroke-dasharray="none" stroke-linecap="round" stroke-linejoin="round" stroke-miterlimit="4" stroke-opacity="1" stroke-width="1.869" d="M 344,62.000016 A 22,21.99999 0 0 0 322,84.000013 22,21.99999 0 0 0 344,106 22,21.99999 0 0 0 366,84.000013 22,21.99999 0 0 0 344,62.000016 Z m 0,0.956532 A 21.043478,21.043469 0 0 1 365.04348,84.000013 21.043478,21.043469 0 0 1 344,105.04348 21.043478,21.043469 0 0 1 322.95652,84.000013 21.043478,21.043469 0 0 1 344,62.956548 Z" display="inline" enable-background="new" opacity=".7"/><path id="path9498-9-1-2" fill="#000" fill-opacity="1" stroke="none" stroke-dasharray="none" stroke-linecap="round" stroke-linejoin="round" stroke-miterlimit="4" stroke-opacity="1" stroke-width="1.954" d="m 336,133.00001 c -8.28427,0 -15,6.71572 -15,14.99999 0,8.28427 6.71573,15 15,15 8.28427,0 15,-6.71573 15,-15 0,-8.28427 -6.71573,-14.99999 -15,-14.99999 z M 336,134 c 7.92409,0 14,6.07592 14,14 0,7.92408 -6.07592,14 -14,14 -7.92408,0 -14,-6.07592 -14,-14 0,-7.92408 6.07591,-14 14,-14 z" display="inline" enable-background="new" opacity=".4"/><path id="path9498-1-6-7" fill="url(#linearGradient8590-3)" fill-opacity="1" stroke="none" stroke-dasharray="none" stroke-linecap="round" stroke-linejoin="round" stroke-miterlimit="4" stroke-opacity="1" stroke-width="1.869" d="m 336,134 c -7.73199,0 -14,6.26802 -14,14 0,7.73198 6.26801,14 14,14 7.73199,0 14,-6.26802 14,-14 0,-7.73198 -6.26801,-14 -14,-14 z m 0,1 c 7.39582,0 13,5.60419 13,13 -10e-6,7.39581 -5.60419,13 -13,13 -7.39581,0 -12.99999,-5.60419 -13,-13 0,-7.39581 5.60418,-13 13,-13 z" display="inline" enable-background="new" opacity=".7"/><path id="path9498-9-1-2-4" fill="#000" fill-opacity="1" stroke="none" stroke-dasharray="none" stroke-linecap="round" stroke-linejoin="round" stroke-miterlimit="4" stroke-opacity="1" stroke-width="1.954" d="M 332,189.00001 C 326,189 321,194 321,200 c 0,6.07513 4.92487,11 11,11 6.07514,0 11,-4.92487 11,-11 0,-6.07513 -4.92486,-10.99998 -11,-10.99999 z M 332,190 c 5.811,0 10,4.18901 10,10 0,5.811 -4.18901,10 -10,10 -5.81099,0 -10,-4.189 -10,-10 0,-5.81099 4.189,-10 10,-10 z" display="inline" enable-background="new" opacity=".4"/><path id="path9498-1-6-7-2" fill="url(#linearGradient8590-3-3)" fill-opacity="1" stroke="none" stroke-dasharray="none" stroke-linecap="round" stroke-linejoin="round" stroke-miterlimit="4" stroke-opacity="1" stroke-width="1.869" d="m 332,190.00001 c -5.52284,0 -10,4.47716 -10,10 0,5.52284 4.47716,9.99999 10,9.99999 5.52285,0 10,-4.47715 10,-9.99999 0,-5.52284 -4.47715,-10 -10,-10 z M 332,191 c 5.28274,0 9,3.71727 9,9 0,5.28272 -3.71727,9 -9,9 -5.28272,0 -8.99999,-3.71728 -9,-9 0,-5.28273 3.71728,-9 9,-9 z" display="inline" enable-background="new" opacity=".7"/><path id="path9498-9-1-2-4-9" fill="#000" fill-opacity="1" stroke="none" stroke-dasharray="none" stroke-linecap="round" stroke-linejoin="round" stroke-miterlimit="4" stroke-opacity="1" stroke-width="1.954" d="m 328,237 c -3.81818,0 -7,3.18181 -7,7 0,3.86599 3.13401,7 7,7 3.866,0 7,-3.13401 7,-7 0,-3.866 -3.134,-6.99999 -7,-7 z m 0,1 c 3.69791,0 6,2.30209 6,6 0,3.69791 -2.3021,6 -6,6 -3.6979,0 -6,-2.30209 -6,-6 0,-3.69791 2.30209,-6 6,-6 z" display="inline" enable-background="new" opacity=".4"/><path id="path9498-1-6-7-2-0" fill="url(#linearGradient8590-3-3-4)" fill-opacity="1" stroke="none" stroke-dasharray="none" stroke-linecap="round" stroke-linejoin="round" stroke-miterlimit="4" stroke-opacity="1" stroke-width="1.869" d="m 328,238.00002 c -3.31371,0 -6,2.68629 -6,5.99999 0,3.31371 2.68629,5.99999 6,5.99999 3.31371,0 6,-2.68628 6,-5.99999 0,-3.3137 -2.68629,-5.99999 -6,-5.99999 z m 0,0.59998 c 3.16964,0 5.39999,2.23037 5.39999,5.40001 0,3.16963 -2.23035,5.39999 -5.39999,5.39999 -3.16963,0 -5.4,-2.23036 -5.4,-5.39999 0,-3.16964 2.23037,-5.40001 5.4,-5.40001 z" display="inline" enable-background="new" opacity=".7"/></g></g></svg>