<svg xmlns="http://www.w3.org/2000/svg" xmlns:svg="http://www.w3.org/2000/svg" xmlns:xlink="http://www.w3.org/1999/xlink" id="svg11300" width="400" height="300" display="inline" enable-background="new" version="1.0"><title id="title3004">Suru Icon Theme Template</title><defs id="defs3"><clipPath id="clipPath9430" clipPathUnits="userSpaceOnUse"><path id="path9432" fill="#fff" fill-opacity="1" fill-rule="nonzero" stroke="none" stroke-width="1" d="m 166.0625,-196 h 179.875 C 491.2348,-196 512,-175.28677 512,-30.125 v 148.25 C 512,263.28618 491.2348,284 345.9375,284 H 166.0625 C 20.7652,284 0,263.28618 0,118.125 V -30.125 C 0,-175.28677 20.7652,-196 166.0625,-196 Z" color="#000" display="inline" enable-background="new" overflow="visible" visibility="visible" style="marker:none"/></clipPath><clipPath id="clipPath1082" clipPathUnits="userSpaceOnUse"><path id="path1084" fill="#8c59d9" fill-opacity="1" stroke="none" stroke-dasharray="none" stroke-dashoffset="0" stroke-linecap="round" stroke-linejoin="round" stroke-miterlimit="4" stroke-opacity="1" stroke-width="2" d="M 361.9375,-212 C 507.2348,-212 528,-191.28677 528,-46.125 V 70.125 C 528,215.28618 507.2348,236 361.9375,236 H 214.0625 C 68.7652,236 48,215.28618 48,70.125 V -46.125 C 48,-191.28677 68.7652,-212 214.0625,-212 Z" display="inline" enable-background="new" opacity="1"/></clipPath><filter id="filter4346" width="1.026" height="1.022" x="-.013" y="-.011" color-interpolation-filters="sRGB"><feGaussianBlur id="feGaussianBlur4348" stdDeviation="2.12"/></filter><linearGradient id="linearGradient4358" x1="88" x2="488" y1="88" y2="488" gradientUnits="userSpaceOnUse" xlink:href="#linearGradient4360"/><linearGradient id="linearGradient4360"><stop id="stop4362" offset="0" stop-color="#000" stop-opacity=".588"/><stop id="stop4366" offset="1" stop-color="#000" stop-opacity=".206"/></linearGradient><filter id="filter4380" width="1.106" height="1.088" x="-.053" y="-.044" color-interpolation-filters="sRGB"><feGaussianBlur id="feGaussianBlur4382" stdDeviation="8.48"/></filter><linearGradient id="linearGradient927"><stop id="stop923" offset="0" stop-color="#fff" stop-opacity="1"/><stop id="stop933" offset=".125" stop-color="#fff" stop-opacity=".098"/><stop id="stop931" offset=".925" stop-color="#fff" stop-opacity=".098"/><stop id="stop925" offset="1" stop-color="#fff" stop-opacity=".498"/></linearGradient><clipPath id="clipPath994" clipPathUnits="userSpaceOnUse"><path id="path996" fill="#cdcdcd" fill-opacity="1" fill-rule="nonzero" stroke="none" stroke-dasharray="none" stroke-miterlimit="4" stroke-opacity="1" stroke-width="2" d="m 335.73108,62 c -8.82418,0 -9.77365,0.90635 -9.7304,9.74838 V 84 96.25162 c -0.0433,8.84203 0.90622,9.74838 9.7304,9.74838 h 16.53919 c 8.82418,0 9.7304,-0.90625 9.7304,-9.74838 V 84 71.74838 C 362.00067,62.90625 361.09445,62 352.27027,62 Z" color="#000" display="inline" enable-background="accumulate" overflow="visible" visibility="visible" style="marker:none"/></clipPath><linearGradient id="linearGradient1004" x1="344" x2="344" y1="62" y2="106" gradientUnits="userSpaceOnUse" xlink:href="#linearGradient927"/><clipPath id="clipPath959" clipPathUnits="userSpaceOnUse"><path id="path961" fill="#46a926" fill-opacity="1" fill-rule="nonzero" stroke="none" stroke-dasharray="none" stroke-miterlimit="4" stroke-opacity="1" stroke-width="2" d="m 330.1929,133.99999 c -5.61538,0 -6.21958,0.57678 -6.19206,6.20352 v 7.79648 7.79648 c -0.0276,5.62673 0.57668,6.20351 6.19206,6.20351 h 11.615 c 5.6154,0 6.19208,-0.5767 6.19208,-6.20351 v -7.79648 -7.79648 c 0,-5.6268 -0.5767,-6.20352 -6.19208,-6.20352 z" color="#000" display="inline" enable-background="accumulate" opacity="1" overflow="visible" visibility="visible" style="marker:none"/></clipPath><clipPath id="clipPath971" clipPathUnits="userSpaceOnUse"><path id="path973" fill="#46a926" fill-opacity="1" fill-rule="nonzero" stroke="none" stroke-dasharray="none" stroke-miterlimit="4" stroke-opacity="1" stroke-width="2" d="m 327.8652,189 c -4.41209,0 -4.88682,0.45318 -4.8652,4.87419 V 200 206.12581 C 322.9783,210.54682 323.45311,211 327.8652,211 h 8.2696 C 340.54689,211 341,210.54688 341,206.12581 V 200 193.87419 C 341,189.45313 340.54688,189 336.13479,189 Z" color="#000" display="inline" enable-background="accumulate" opacity="1" overflow="visible" visibility="visible" style="marker:none"/></clipPath><linearGradient id="linearGradient981" x1="332" x2="332" y1="189" y2="211" gradientUnits="userSpaceOnUse" xlink:href="#linearGradient927"/><clipPath id="clipPath983" clipPathUnits="userSpaceOnUse"><path id="path985" fill="#46a926" fill-opacity="1" fill-rule="nonzero" stroke="none" stroke-dasharray="none" stroke-miterlimit="4" stroke-opacity="1" stroke-width="2" d="m 325.09646,237 c -2.80769,0 -3.10979,0.28839 -3.09603,3.10176 V 244 v 3.89824 c -0.0138,2.81337 0.28834,3.10176 3.09603,3.10176 h 5.8075 C 333.71166,251 334,250.71165 334,247.89824 V 244 240.10176 C 334,237.28836 333.71165,237 330.90396,237 Z" color="#000" display="inline" enable-background="accumulate" opacity="1" overflow="visible" visibility="visible" style="marker:none"/></clipPath><linearGradient id="linearGradient993" x1="328" x2="328" y1="237" y2="251" gradientUnits="userSpaceOnUse" xlink:href="#linearGradient927"/><linearGradient id="linearGradient4336-3"><stop id="stop4338-8" offset="0" stop-color="#5884f4" stop-opacity="1"/><stop id="stop4344-3" offset=".278" stop-color="#5884f4" stop-opacity="1"/><stop id="stop4346-3" offset=".278" stop-color="#2f5fdd" stop-opacity="1"/><stop id="stop4350-1" offset=".707" stop-color="#2f5fdd" stop-opacity="1"/><stop id="stop4348-6" offset=".709" stop-color="#234db8" stop-opacity="1"/><stop id="stop4340-0" offset="1" stop-color="#234db8" stop-opacity="1"/></linearGradient><linearGradient id="linearGradient1004-8" x1="344" x2="344" y1="62" y2="106" gradientUnits="userSpaceOnUse" xlink:href="#linearGradient927"/><clipPath id="clipPath994-1" clipPathUnits="userSpaceOnUse"><path id="path996-8" fill="#cdcdcd" fill-opacity="1" fill-rule="nonzero" stroke="none" stroke-dasharray="none" stroke-miterlimit="4" stroke-opacity="1" stroke-width="2" d="m 335.73108,62 c -8.82418,0 -9.77365,0.90635 -9.7304,9.74838 V 84 96.25162 c -0.0433,8.84203 0.90622,9.74838 9.7304,9.74838 h 16.53919 c 8.82418,0 9.7304,-0.90625 9.7304,-9.74838 V 84 71.74838 C 362.00067,62.90625 361.09445,62 352.27027,62 Z" color="#000" display="inline" enable-background="accumulate" overflow="visible" visibility="visible" style="marker:none"/></clipPath><linearGradient id="linearGradient1018"><stop id="stop1016" offset="0" stop-color="#37a6e6" stop-opacity="1"/><stop id="stop1014" offset="1" stop-color="#1a7fd4" stop-opacity="1"/></linearGradient><clipPath id="clipPath1010" clipPathUnits="userSpaceOnUse"><path id="path1012" fill="#fff" fill-opacity="1" stroke="none" stroke-dasharray="none" stroke-dashoffset="0" stroke-linecap="round" stroke-linejoin="round" stroke-miterlimit="4" stroke-opacity="1" stroke-width="2" d="M 188.96875,44 C 261.6174,44 272,54.356615 272,126.9375 v 58.125 C 272,257.64309 261.6174,268 188.96875,268 h -73.9375 C 42.3826,268 32,257.64309 32,185.0625 v -58.125 C 32,54.356615 42.3826,44 115.03125,44 Z" opacity="1"/></clipPath><linearGradient id="linearGradient1108" x1="296" x2="296" y1="-212" y2="202.4" gradientUnits="userSpaceOnUse" xlink:href="#linearGradient1013"/><linearGradient id="linearGradient1013"><stop id="stop1005" offset="0" stop-color="#fff" stop-opacity="1"/><stop id="stop1007" offset=".135" stop-color="#fff" stop-opacity=".098"/><stop id="stop1009" offset="1" stop-color="#fff" stop-opacity="0"/></linearGradient><clipPath id="clipPath1082-3" clipPathUnits="userSpaceOnUse"><path id="path1084-6" fill="#8c59d9" fill-opacity="1" stroke="none" stroke-dasharray="none" stroke-dashoffset="0" stroke-linecap="round" stroke-linejoin="round" stroke-miterlimit="4" stroke-opacity="1" stroke-width="2" d="M 361.9375,-212 C 507.2348,-212 528,-191.28677 528,-46.125 V 70.125 C 528,215.28618 507.2348,236 361.9375,236 H 214.0625 C 68.7652,236 48,215.28618 48,70.125 V -46.125 C 48,-191.28677 68.7652,-212 214.0625,-212 Z" display="inline" enable-background="new" opacity="1"/></clipPath><linearGradient id="linearGradient2054" x1="184" x2="184" y1="164" y2="268" gradientUnits="userSpaceOnUse" xlink:href="#linearGradient1018"/></defs><metadata id="metadata4"/><g id="layer1" display="inline"><g id="layer7" display="none"><text enable-background="new" style="line-height:0%;-inkscape-font-specification:'DejaVu Sans'" id="context" x="19.007" y="-8.255" fill="#000" fill-opacity="1" stroke="none" display="inline" font-family="DejaVu Sans" font-stretch="normal" font-style="normal" font-variant="normal" font-weight="normal" xml:space="preserve"><tspan id="tspan3933" x="19.007" y="-8.255" font-family="DejaVu Sans" font-size="18" font-stretch="normal" font-style="normal" font-variant="normal" font-weight="normal" style="line-height:1.25;-inkscape-font-specification:'DejaVu Sans'">apps</tspan></text><text id="icon-name" x="146.488" y="-8.255" fill="#000" fill-opacity="1" stroke="none" display="inline" enable-background="new" font-family="DejaVu Sans" font-stretch="normal" font-style="normal" font-variant="normal" font-weight="bold" text-anchor="start" writing-mode="lr-tb" xml:space="preserve" style="line-height:0%;-inkscape-font-specification:'DejaVu Sans Bold';text-align:start"><tspan id="tspan3937" x="146.488" y="-8.255" font-family="DejaVu Sans" font-size="18" font-stretch="normal" font-style="normal" font-variant="normal" font-weight="bold" style="line-height:1.25;-inkscape-font-specification:'DejaVu Sans Bold'">amazon-store</tspan></text><rect id="rect16x16" width="16" height="16" x="320" y="236" fill="#cdcdcd" fill-opacity="1" fill-rule="nonzero" stroke="none" stroke-width="2" display="inline" enable-background="accumulate" overflow="visible" visibility="visible" style="marker:none"/><rect id="rect24x24" width="24" height="24" x="320" y="188" fill="#cdcdcd" fill-opacity="1" fill-rule="nonzero" stroke="none" stroke-width="2" display="inline" enable-background="accumulate" overflow="visible" visibility="visible" style="marker:none"/><rect id="rect32x32" width="32" height="32" x="320" y="132" fill="#cdcdcd" fill-opacity="1" fill-rule="nonzero" stroke="none" stroke-width="2" display="inline" enable-background="accumulate" overflow="visible" visibility="visible" style="marker:none"/><rect id="rect48x48" width="48" height="48" x="320" y="60" fill="#cdcdcd" fill-opacity="1" fill-rule="nonzero" stroke="none" stroke-width="2" display="inline" enable-background="accumulate" overflow="visible" visibility="visible" style="marker:none"/><rect id="rect3951" width="256" height="256" x="24" y="28" fill="#cdcdcd" fill-opacity="1" fill-rule="nonzero" stroke="none" stroke-width="2" display="inline" enable-background="accumulate" overflow="visible" visibility="visible" style="marker:none"/></g><g id="layer8" display="inline"><path id="path995" fill="#000" fill-opacity="1" fill-rule="nonzero" stroke="none" stroke-dasharray="none" stroke-dashoffset="0" stroke-linecap="butt" stroke-linejoin="miter" stroke-miterlimit="4" stroke-opacity="1" stroke-width="2" d="m 327.24566,189 c -1.28811,0 -2.31744,0.0231 -3.20954,0.14787 -0.8921,0.12479 -1.70209,0.37148 -2.31114,0.87784 -0.60904,0.50637 -0.90937,1.18534 -1.05787,1.92977 -0.14848,0.74444 -0.17251,1.60204 -0.1662,2.67847 v 5.86605 5.86979 c -0.006,1.07433 0.0179,1.93132 0.1662,2.67473 0.14848,0.74444 0.44882,1.4234 1.05787,1.92977 0.60906,0.50636 1.41904,0.75304 2.31114,0.87784 0.8921,0.12479 1.92143,0.14787 3.20954,0.14787 h 9.5096 c 1.2881,0 2.31444,-0.023 3.20505,-0.14787 0.89059,-0.1249 1.70195,-0.37305 2.30889,-0.87972 0.60695,-0.50666 0.9038,-1.18295 1.05337,-1.92602 0.14958,-0.74308 0.17744,-1.60101 0.17744,-2.6766 V 200.5 194.63021 c 0,-1.07559 -0.0278,-1.93352 -0.17744,-2.6766 -0.14957,-0.74307 -0.44642,-1.41936 -1.05337,-1.92602 -0.60694,-0.50667 -1.41828,-0.75482 -2.30889,-0.87972 C 339.06969,189.02297 338.04337,189 336.75526,189 Z" baseline-shift="baseline" clip-rule="nonzero" color="#000" color-interpolation="sRGB" color-interpolation-filters="linearRGB" color-rendering="auto" direction="ltr" display="inline" dominant-baseline="auto" enable-background="accumulate" font-family="sans-serif" font-size="medium" font-stretch="normal" font-style="normal" font-variant="normal" font-weight="normal" image-rendering="auto" letter-spacing="normal" opacity=".1" overflow="visible" shape-rendering="auto" text-anchor="start" text-decoration="none" text-rendering="auto" vector-effect="none" visibility="visible" word-spacing="normal" writing-mode="lr-tb" style="line-height:normal;font-variant-ligatures:normal;font-variant-position:normal;font-variant-caps:normal;font-variant-numeric:normal;font-variant-alternates:normal;font-feature-settings:normal;text-indent:0;text-align:start;text-decoration-line:none;text-decoration-style:solid;text-decoration-color:#000;text-transform:none;text-orientation:mixed;white-space:normal;shape-padding:0;isolation:auto;mix-blend-mode:normal;solid-color:#000;solid-opacity:1;marker:none"/><path id="path997" fill="#000" fill-opacity="1" fill-rule="nonzero" stroke="none" stroke-dasharray="none" stroke-dashoffset="0" stroke-linecap="butt" stroke-linejoin="miter" stroke-miterlimit="4" stroke-opacity="1" stroke-width="2" d="m 324.68125,237 c -0.82173,0 -1.48777,0.0139 -2.09812,0.10352 -0.61037,0.0897 -1.22087,0.27628 -1.68744,0.68359 -0.46657,0.4073 -0.68177,0.94323 -0.78345,1.47851 -0.10171,0.53529 -0.11564,1.12048 -0.11165,1.8418 V 244 v 3.89844 c -0.003,0.71816 0.0103,1.30235 0.11165,1.83594 0.10171,0.53528 0.31687,1.07121 0.78345,1.47851 0.46657,0.40731 1.07707,0.59394 1.68744,0.68359 0.61035,0.0897 1.27639,0.10352 2.09812,0.10352 h 6.63813 c 0.82173,0 1.48632,-0.0137 2.0959,-0.10352 0.60958,-0.0898 1.22015,-0.27792 1.6852,-0.68554 0.46504,-0.40762 0.67887,-0.94271 0.78121,-1.47656 C 335.98409,249.20052 336,248.61887 336,247.89844 V 244 241.10156 c 0,-0.72043 -0.016,-1.30208 -0.11831,-1.83594 -0.10228,-0.53385 -0.31617,-1.06894 -0.78121,-1.47656 -0.46505,-0.40762 -1.07562,-0.59578 -1.6852,-0.68554 C 332.8057,237.01375 332.14111,237 331.31938,237 Z" baseline-shift="baseline" clip-rule="nonzero" color="#000" color-interpolation="sRGB" color-interpolation-filters="linearRGB" color-rendering="auto" direction="ltr" display="inline" dominant-baseline="auto" enable-background="accumulate" font-family="sans-serif" font-size="medium" font-stretch="normal" font-style="normal" font-variant="normal" font-weight="normal" image-rendering="auto" letter-spacing="normal" opacity=".1" overflow="visible" shape-rendering="auto" text-anchor="start" text-decoration="none" text-rendering="auto" vector-effect="none" visibility="visible" word-spacing="normal" writing-mode="lr-tb" style="line-height:normal;font-variant-ligatures:normal;font-variant-position:normal;font-variant-caps:normal;font-variant-numeric:normal;font-variant-alternates:normal;font-feature-settings:normal;text-indent:0;text-align:start;text-decoration-line:none;text-decoration-style:solid;text-decoration-color:#000;text-transform:none;text-orientation:mixed;white-space:normal;shape-padding:0;isolation:auto;mix-blend-mode:normal;solid-color:#000;solid-opacity:1;marker:none"/><path id="path999" fill="#000" fill-opacity="1" fill-rule="nonzero" stroke="none" stroke-dasharray="none" stroke-dashoffset="0" stroke-linecap="butt" stroke-linejoin="miter" stroke-miterlimit="4" stroke-opacity="1" stroke-width="2" d="m 329.07753,134 c -1.69415,0 -3.03886,0.0308 -4.1799,0.19141 -1.14103,0.16064 -2.13588,0.4726 -2.87586,1.09179 -0.73998,0.61919 -1.11652,1.45612 -1.30636,2.41407 -0.18986,0.95795 -0.22255,2.08705 -0.21424,3.51171 V 149 v 7.79688 c -0.009,1.42131 0.0247,2.5495 0.21424,3.50585 0.18984,0.95796 0.56638,1.79488 1.30636,2.41407 0.73998,0.61919 1.73483,0.93115 2.87586,1.09179 1.14104,0.16065 2.48575,0.19141 4.1799,0.19141 h 13.8484 c 1.69415,0 3.03631,-0.0307 4.17524,-0.19141 1.13893,-0.16075 2.13151,-0.47425 2.86888,-1.09375 0.73736,-0.6195 1.1104,-1.45363 1.30169,-2.41015 0.19132,-0.95653 0.22822,-2.08403 0.22822,-3.50781 V 149 141.20312 c 0,-1.42378 -0.037,-2.55128 -0.22822,-3.50781 -0.19129,-0.95653 -0.56433,-1.79065 -1.30169,-2.41015 -0.73737,-0.61951 -1.72995,-0.933 -2.86888,-1.09375 C 345.96224,134.03065 344.62008,134 342.92593,134 Z" baseline-shift="baseline" clip-rule="nonzero" color="#000" color-interpolation="sRGB" color-interpolation-filters="linearRGB" color-rendering="auto" direction="ltr" display="inline" dominant-baseline="auto" enable-background="accumulate" font-family="sans-serif" font-size="medium" font-stretch="normal" font-style="normal" font-variant="normal" font-weight="normal" image-rendering="auto" letter-spacing="normal" opacity=".1" overflow="visible" shape-rendering="auto" text-anchor="start" text-decoration="none" text-rendering="auto" vector-effect="none" visibility="visible" word-spacing="normal" writing-mode="lr-tb" style="line-height:normal;font-variant-ligatures:normal;font-variant-position:normal;font-variant-caps:normal;font-variant-numeric:normal;font-variant-alternates:normal;font-feature-settings:normal;text-indent:0;text-align:start;text-decoration-line:none;text-decoration-style:solid;text-decoration-color:#000;text-transform:none;text-orientation:mixed;white-space:normal;shape-padding:0;isolation:auto;mix-blend-mode:normal;solid-color:#000;solid-opacity:1;marker:none"/><path id="path1020" fill="#000" fill-opacity="1" fill-rule="nonzero" stroke="none" stroke-dasharray="none" stroke-dashoffset="0" stroke-linecap="butt" stroke-linejoin="miter" stroke-miterlimit="4" stroke-opacity="1" stroke-width="2" d="m 333.43292,61.500047 c -2.6791,0 -4.78864,0.05118 -6.52443,0.292969 -1.7358,0.241784 -3.15619,0.695299 -4.19664,1.55664 -1.04044,0.861342 -1.58959,2.039471 -1.87824,3.480469 -0.28866,1.440999 -0.34501,3.195341 -0.33188,5.423828 V 85 97.752143 c -0.013,2.225063 0.0435,3.978517 0.33188,5.417967 0.28865,1.441 0.8378,2.61913 1.87824,3.48047 1.04045,0.86134 2.46084,1.31486 4.19664,1.55664 1.73581,0.24179 3.84533,0.29297 6.52443,0.29297 h 21.13588 c 2.67913,0 4.78754,-0.0511 6.51976,-0.29297 1.73219,-0.24189 3.14824,-0.69694 4.18485,-1.55859 1.03662,-0.86165 1.58252,-2.03894 1.87353,-3.47852 0.29102,-1.43957 0.35305,-3.190353 0.35305,-5.417967 V 85 72.248094 c 0,-2.227614 -0.0621,-3.978392 -0.35305,-5.417969 -0.29101,-1.439576 -0.83692,-2.616863 -1.87354,-3.478516 -1.03661,-0.861652 -2.45266,-1.316704 -4.18486,-1.558593 -1.7322,-0.24189 -3.84063,-0.292969 -6.51974,-0.292969 z" baseline-shift="baseline" clip-rule="nonzero" color="#000" color-interpolation="sRGB" color-interpolation-filters="linearRGB" color-rendering="auto" direction="ltr" display="inline" dominant-baseline="auto" enable-background="accumulate" font-family="sans-serif" font-size="medium" font-stretch="normal" font-style="normal" font-variant="normal" font-weight="normal" image-rendering="auto" letter-spacing="normal" opacity=".1" overflow="visible" shape-rendering="auto" text-anchor="start" text-decoration="none" text-rendering="auto" vector-effect="none" visibility="visible" word-spacing="normal" writing-mode="lr-tb" style="line-height:normal;font-variant-ligatures:normal;font-variant-position:normal;font-variant-caps:normal;font-variant-numeric:normal;font-variant-alternates:normal;font-feature-settings:normal;text-indent:0;text-align:start;text-decoration-line:none;text-decoration-style:solid;text-decoration-color:#000;text-transform:none;text-orientation:mixed;white-space:normal;shape-padding:0;isolation:auto;mix-blend-mode:normal;solid-color:#000;solid-opacity:1;marker:none"/><path id="rect4158-9" fill="#000" fill-opacity="1" fill-rule="nonzero" stroke="none" stroke-width="2" d="M 141.84323,74 C 71.24979,74 63.65402,81.250835 64,151.98706 V 298 444.01294 C 63.65402,514.74917 71.24979,522 141.84323,522 H 434.15677 C 504.75021,522 513.9371,514.72348 512,444.01294 V 298 151.98706 C 512,81.249993 504.75021,74 434.15677,74 Z" color="#000" display="inline" enable-background="accumulate" filter="url(#filter4346)" opacity=".1" overflow="visible" transform="matrix(0.5,0,0,0.5,8,7.9996982)" visibility="visible" style="marker:none"/><path id="path4350" fill="url(#linearGradient4358)" fill-opacity="1" fill-rule="nonzero" stroke="none" stroke-width="2" d="M 141.84323,74 C 71.24979,74 63.65402,81.250835 64,151.98706 V 298 444.01294 C 63.65402,514.74917 71.24979,522 141.84323,522 H 434.15677 C 504.75021,522 513.9371,514.72348 512,444.01294 V 298 151.98706 C 512,81.249993 504.75021,74 434.15677,74 Z" color="#000" display="inline" enable-background="accumulate" filter="url(#filter4380)" opacity=".3" overflow="visible" transform="matrix(0.5,0,0,0.5,8,8)" visibility="visible" style="marker:none"/><path id="rect4158-7" fill="#000" fill-opacity="1" fill-rule="nonzero" stroke="none" stroke-width="1.02" d="m 77.8116,41.999698 c -36.098811,0 -39.983003,3.69016 -39.806081,39.68984 v 74.310162 74.31016 c -0.176922,35.99969 3.70727,39.68984 39.806081,39.68984 h 148.38732 c 36.09881,0 40.77464,-3.70276 39.80608,-39.68984 V 155.9997 81.689538 c 0,-36.00011 -3.70727,-39.68984 -39.80608,-39.68984 z" color="#000" display="inline" enable-background="accumulate" opacity=".2" overflow="visible" visibility="visible" style="marker:none"/><path id="path964" fill="#fff" fill-opacity="1" fill-rule="nonzero" stroke="none" stroke-width="1" d="m 333.33517,61.500047 c -10.01116,0 -11.88667,0.90635 -11.83407,9.74838 V 84 96.75181 c -0.0527,8.84203 1.82291,9.74838 11.83407,9.74838 h 21.3308 c 10.00866,0 11.83405,-0.90625 11.83405,-9.74838 V 84 71.248427 c 0,-8.84213 -1.82539,-9.74838 -11.83406,-9.74838 z" color="#000" display="inline" enable-background="accumulate" overflow="visible" visibility="visible" style="marker:none"/><path id="rect4158" fill="#fff" fill-opacity="1" fill-rule="nonzero" stroke="none" stroke-width="1" d="m 225.07298,43.999698 c 35.29673,0 39.09461,3.62542 38.92162,38.99353 v 73.006472 73.00647 c 0.17299,35.36812 -3.62489,38.99353 -38.92162,38.99353 H 78.91622 c -35.296716,0 -38.921616,-3.625 -38.921616,-38.99353 V 155.9997 82.993228 c 0,-35.36853 3.6249,-38.99353 38.921616,-38.99353 z" color="#000" display="inline" enable-background="accumulate" overflow="visible" visibility="visible" style="marker:none"/><path id="path914" fill="#fff" fill-opacity="1" fill-rule="nonzero" stroke="none" stroke-width="1" d="m 327.17649,189.49897 c -5.14666,0 -5.70043,0.43262 -5.67521,4.65309 v 5.84793 5.84794 c -0.0253,4.22046 0.52855,4.65308 5.67521,4.65308 h 9.6464 c 5.14665,0 5.67521,-0.43256 5.67521,-4.65308 v -5.84794 -5.84793 c 0,-4.22051 -0.52857,-4.65309 -5.67522,-4.65309 z" color="#000" display="inline" enable-background="accumulate" overflow="visible" visibility="visible" style="marker:none"/><path id="path918" fill="#fff" fill-opacity="1" fill-rule="nonzero" stroke="none" stroke-width="1" d="m 324.4056,236.50001 c -3.47604,0 -3.85006,0.30899 -3.83302,3.32331 v 4.17669 4.17668 c -0.017,3.01433 0.35698,3.32332 3.83302,3.32332 h 7.18996 c 3.47605,0 3.83303,-0.30895 3.83303,-3.32332 v -4.17668 -4.17669 c 0,-3.01436 -0.35699,-3.32331 -3.83303,-3.32331 z" color="#000" display="inline" enable-background="accumulate" overflow="visible" visibility="visible" style="marker:none"/><path id="path964-7" fill="#fff" fill-opacity="1" fill-rule="nonzero" stroke="none" stroke-width="1" d="m 329.12711,133.5 c -6.45163,0 -7.6603,0.58409 -7.62639,6.28227 v 8.21765 8.21781 c -0.034,5.69818 1.17476,6.28227 7.62639,6.28227 h 13.74651 c 6.45003,0 7.62639,-0.58403 7.62639,-6.28227 v -8.21781 -8.21765 c 0,-5.69824 -1.17636,-6.28227 -7.62639,-6.28227 z" color="#000" display="inline" enable-background="accumulate" overflow="visible" visibility="visible" style="marker:none"/></g><g id="layer6" display="inline"><path id="path1068" fill="none" fill-opacity="1" stroke="url(#linearGradient1108)" stroke-dasharray="none" stroke-dashoffset="0" stroke-linecap="round" stroke-linejoin="round" stroke-miterlimit="4" stroke-opacity="1" stroke-width="8" d="M 361.9375,-212 C 507.2348,-212 528,-191.28677 528,-46.125 V 70.125 C 528,215.28618 507.2348,236 361.9375,236 H 214.0625 C 68.7652,236 48,215.28618 48,70.125 V -46.125 C 48,-191.28677 68.7652,-212 214.0625,-212 Z" clip-path="url(#clipPath1082-3)" display="inline" enable-background="new" opacity=".5" transform="matrix(0.5,0,0,0.5,8,150)"/><g id="g916" stroke-width="5.493" display="inline" transform="matrix(0.04773998,0,0,0.04773998,329.4677,64.785855)"><path id="path909" fill="#050606" stroke-width="5.493" d="m 443.342,337.31 c 0,19.962 0.717,39.804 -0.239,59.766 -0.956,22.711 5.977,42.194 20.32,59.406 1.673,2.032 3.228,4.064 4.661,6.216 5.141,7.77 4.184,13.148 -2.868,19.125 -15.062,12.671 -30.003,25.46 -45.063,38.131 -8.965,7.53 -14.583,7.411 -23.667,0 -12.192,-9.921 -21.755,-22.113 -30.241,-35.143 -2.032,-3.107 -3.108,-2.988 -5.618,-0.598 -15.062,14.702 -30.959,28.329 -51.159,35.143 -31.198,10.638 -62.874,12.312 -94.191,1.195 -30.122,-10.758 -48.171,-32.991 -54.865,-63.949 -7.411,-34.545 -3.586,-67.416 17.69,-96.701 16.137,-22.113 38.489,-35.142 64.188,-43.15 26.536,-8.128 53.908,-11.236 81.4,-13.985 7.77,-0.837 15.42,-1.554 23.189,-2.271 1.912,-0.12 3.586,-0.359 3.466,-2.869 -0.238,-12.67 1.076,-25.58 -1.912,-38.011 -3.825,-15.897 -14.225,-25.221 -30.122,-28.688 -11.355,-2.51 -22.591,-1.793 -33.588,1.913 -16.734,5.737 -27.134,17.332 -31.317,34.544 -2.271,9.443 -6.694,12.79 -15.898,11.833 -19.603,-2.032 -39.206,-4.064 -58.689,-6.096 -8.009,-0.837 -12.192,-6.933 -10.519,-14.703 10.16,-49.605 42.673,-77.456 89.529,-90.246 35.979,-9.801 72.436,-10.399 108.534,-0.239 29.046,8.128 53.431,22.472 67.057,50.92 7.77,16.137 9.563,33.588 9.802,51.04 0.239,22.354 0,44.945 0.12,67.417 -0.12,0 0,0 0,0 z m -92.996,37.294 c 0,-5.977 -0.238,-11.953 0.12,-17.93 0.239,-3.706 -1.076,-5.021 -4.781,-4.662 -9.085,0.836 -18.288,0.956 -27.373,2.151 -15.897,2.032 -31.437,5.977 -44.346,16.017 -18.767,14.703 -22.711,34.784 -19.604,57.375 3.706,26.535 27.373,41.238 52.714,32.393 17.212,-5.977 27.73,-18.646 35.022,-34.545 7.65,-16.135 8.248,-33.467 8.248,-50.799 z"/><path id="path912" fill="#f6a61f" stroke-width="5.493" d="M 306.119,644.386 C 214.917,643.788 133.038,620.361 59.048,570.994 43.987,560.953 29.643,549.956 16.017,537.884 c -1.195,-1.076 -2.391,-2.151 -3.347,-3.467 -1.315,-1.793 -2.271,-3.944 -0.717,-6.096 1.554,-2.391 4.184,-2.63 6.455,-1.554 5.259,2.51 10.28,5.259 15.419,7.889 47.096,24.862 96.701,42.792 148.697,54.147 47.095,10.28 94.668,15.062 142.959,13.746 68.97,-1.912 135.429,-15.778 199.378,-41.478 3.108,-1.314 6.336,-2.629 9.563,-3.347 4.543,-0.837 9.085,-0.239 11.117,4.662 1.912,4.542 -0.598,8.128 -3.945,10.997 -2.391,2.031 -5.14,3.705 -7.889,5.498 -41.238,26.775 -86.421,43.987 -134.233,54.626 -31.557,7.174 -63.591,10.639 -93.355,10.879 z"/><path id="path914-3" fill="#f6a61f" stroke-width="5.493" d="m 536.217,537.884 c -13.746,-0.12 -27.372,1.673 -40.999,3.107 -2.63,0.239 -5.618,0.956 -6.813,-1.912 -1.434,-3.228 1.315,-5.14 3.586,-6.694 16.974,-11.235 35.979,-15.658 55.941,-16.734 13.746,-0.836 27.372,-0.238 40.76,3.825 6.096,1.793 9.084,5.379 8.965,11.595 -0.717,33.229 -11.834,62.156 -35.859,85.704 -0.837,0.837 -1.793,1.554 -2.749,2.271 -2.151,1.555 -4.781,2.988 -7.053,1.076 -2.151,-1.793 -0.956,-4.423 0,-6.574 7.053,-17.571 14.225,-35.022 17.69,-53.789 0.479,-2.391 0.598,-4.781 0.718,-7.053 0.119,-7.77 -2.63,-11.116 -10.28,-13.028 -8.009,-2.153 -16.018,-1.794 -23.907,-1.794 z"/></g><g id="g924" stroke-width="6.991" display="inline" transform="matrix(0.03750999,0,0,0.03750999,324.58177,132.90317)"><path id="path918-7" fill="#050606" stroke-width="6.991" d="m 443.342,337.31 c 0,19.962 0.717,39.804 -0.239,59.766 -0.956,22.711 5.977,42.194 20.32,59.406 1.673,2.032 3.228,4.064 4.661,6.216 5.141,7.77 4.184,13.148 -2.868,19.125 -15.062,12.671 -30.003,25.46 -45.063,38.131 -8.965,7.53 -14.583,7.411 -23.667,0 -12.192,-9.921 -21.755,-22.113 -30.241,-35.143 -2.032,-3.107 -3.108,-2.988 -5.618,-0.598 -15.062,14.702 -30.959,28.329 -51.159,35.143 -31.198,10.638 -62.874,12.312 -94.191,1.195 -30.122,-10.758 -48.171,-32.991 -54.865,-63.949 -7.411,-34.545 -3.586,-67.416 17.69,-96.701 16.137,-22.113 38.489,-35.142 64.188,-43.15 26.536,-8.128 53.908,-11.236 81.4,-13.985 7.77,-0.837 15.42,-1.554 23.189,-2.271 1.912,-0.12 3.586,-0.359 3.466,-2.869 -0.238,-12.67 1.076,-25.58 -1.912,-38.011 -3.825,-15.897 -14.225,-25.221 -30.122,-28.688 -11.355,-2.51 -22.591,-1.793 -33.588,1.913 -16.734,5.737 -27.134,17.332 -31.317,34.544 -2.271,9.443 -6.694,12.79 -15.898,11.833 -19.603,-2.032 -39.206,-4.064 -58.689,-6.096 -8.009,-0.837 -12.192,-6.933 -10.519,-14.703 10.16,-49.605 42.673,-77.456 89.529,-90.246 35.979,-9.801 72.436,-10.399 108.534,-0.239 29.046,8.128 53.431,22.472 67.057,50.92 7.77,16.137 9.563,33.588 9.802,51.04 0.239,22.354 0,44.945 0.12,67.417 -0.12,0 0,0 0,0 z m -92.996,37.294 c 0,-5.977 -0.238,-11.953 0.12,-17.93 0.239,-3.706 -1.076,-5.021 -4.781,-4.662 -9.085,0.836 -18.288,0.956 -27.373,2.151 -15.897,2.032 -31.437,5.977 -44.346,16.017 -18.767,14.703 -22.711,34.784 -19.604,57.375 3.706,26.535 27.373,41.238 52.714,32.393 17.212,-5.977 27.73,-18.646 35.022,-34.545 7.65,-16.135 8.248,-33.467 8.248,-50.799 z"/><path id="path920" fill="#f6a61f" stroke-width="6.991" d="M 306.119,644.386 C 214.917,643.788 133.038,620.361 59.048,570.994 43.987,560.953 29.643,549.956 16.017,537.884 c -1.195,-1.076 -2.391,-2.151 -3.347,-3.467 -1.315,-1.793 -2.271,-3.944 -0.717,-6.096 1.554,-2.391 4.184,-2.63 6.455,-1.554 5.259,2.51 10.28,5.259 15.419,7.889 47.096,24.862 96.701,42.792 148.697,54.147 47.095,10.28 94.668,15.062 142.959,13.746 68.97,-1.912 135.429,-15.778 199.378,-41.478 3.108,-1.314 6.336,-2.629 9.563,-3.347 4.543,-0.837 9.085,-0.239 11.117,4.662 1.912,4.542 -0.598,8.128 -3.945,10.997 -2.391,2.031 -5.14,3.705 -7.889,5.498 -41.238,26.775 -86.421,43.987 -134.233,54.626 -31.557,7.174 -63.591,10.639 -93.355,10.879 z"/><path id="path922" fill="#f6a61f" stroke-width="6.991" d="m 536.217,537.884 c -13.746,-0.12 -27.372,1.673 -40.999,3.107 -2.63,0.239 -5.618,0.956 -6.813,-1.912 -1.434,-3.228 1.315,-5.14 3.586,-6.694 16.974,-11.235 35.979,-15.658 55.941,-16.734 13.746,-0.836 27.372,-0.238 40.76,3.825 6.096,1.793 9.084,5.379 8.965,11.595 -0.717,33.229 -11.834,62.156 -35.859,85.704 -0.837,0.837 -1.793,1.554 -2.749,2.271 -2.151,1.555 -4.781,2.988 -7.053,1.076 -2.151,-1.793 -0.956,-4.423 0,-6.574 7.053,-17.571 14.225,-35.022 17.69,-53.789 0.479,-2.391 0.598,-4.781 0.718,-7.053 0.119,-7.77 -2.63,-11.116 -10.28,-13.028 -8.009,-2.153 -16.018,-1.794 -23.907,-1.794 z"/></g><g id="g932" stroke-width="9.612" display="inline" transform="matrix(0.02727999,0,0,0.02727999,323.69583,189.02064)"><path id="path926" fill="#050606" stroke-width="9.612" d="m 443.342,337.31 c 0,19.962 0.717,39.804 -0.239,59.766 -0.956,22.711 5.977,42.194 20.32,59.406 1.673,2.032 3.228,4.064 4.661,6.216 5.141,7.77 4.184,13.148 -2.868,19.125 -15.062,12.671 -30.003,25.46 -45.063,38.131 -8.965,7.53 -14.583,7.411 -23.667,0 -12.192,-9.921 -21.755,-22.113 -30.241,-35.143 -2.032,-3.107 -3.108,-2.988 -5.618,-0.598 -15.062,14.702 -30.959,28.329 -51.159,35.143 -31.198,10.638 -62.874,12.312 -94.191,1.195 -30.122,-10.758 -48.171,-32.991 -54.865,-63.949 -7.411,-34.545 -3.586,-67.416 17.69,-96.701 16.137,-22.113 38.489,-35.142 64.188,-43.15 26.536,-8.128 53.908,-11.236 81.4,-13.985 7.77,-0.837 15.42,-1.554 23.189,-2.271 1.912,-0.12 3.586,-0.359 3.466,-2.869 -0.238,-12.67 1.076,-25.58 -1.912,-38.011 -3.825,-15.897 -14.225,-25.221 -30.122,-28.688 -11.355,-2.51 -22.591,-1.793 -33.588,1.913 -16.734,5.737 -27.134,17.332 -31.317,34.544 -2.271,9.443 -6.694,12.79 -15.898,11.833 -19.603,-2.032 -39.206,-4.064 -58.689,-6.096 -8.009,-0.837 -12.192,-6.933 -10.519,-14.703 10.16,-49.605 42.673,-77.456 89.529,-90.246 35.979,-9.801 72.436,-10.399 108.534,-0.239 29.046,8.128 53.431,22.472 67.057,50.92 7.77,16.137 9.563,33.588 9.802,51.04 0.239,22.354 0,44.945 0.12,67.417 -0.12,0 0,0 0,0 z m -92.996,37.294 c 0,-5.977 -0.238,-11.953 0.12,-17.93 0.239,-3.706 -1.076,-5.021 -4.781,-4.662 -9.085,0.836 -18.288,0.956 -27.373,2.151 -15.897,2.032 -31.437,5.977 -44.346,16.017 -18.767,14.703 -22.711,34.784 -19.604,57.375 3.706,26.535 27.373,41.238 52.714,32.393 17.212,-5.977 27.73,-18.646 35.022,-34.545 7.65,-16.135 8.248,-33.467 8.248,-50.799 z"/><path id="path928" fill="#f6a61f" stroke-width="9.612" d="M 306.119,644.386 C 214.917,643.788 133.038,620.361 59.048,570.994 43.987,560.953 29.643,549.956 16.017,537.884 c -1.195,-1.076 -2.391,-2.151 -3.347,-3.467 -1.315,-1.793 -2.271,-3.944 -0.717,-6.096 1.554,-2.391 4.184,-2.63 6.455,-1.554 5.259,2.51 10.28,5.259 15.419,7.889 47.096,24.862 96.701,42.792 148.697,54.147 47.095,10.28 94.668,15.062 142.959,13.746 68.97,-1.912 135.429,-15.778 199.378,-41.478 3.108,-1.314 6.336,-2.629 9.563,-3.347 4.543,-0.837 9.085,-0.239 11.117,4.662 1.912,4.542 -0.598,8.128 -3.945,10.997 -2.391,2.031 -5.14,3.705 -7.889,5.498 -41.238,26.775 -86.421,43.987 -134.233,54.626 -31.557,7.174 -63.591,10.639 -93.355,10.879 z"/><path id="path930" fill="#f6a61f" stroke-width="9.612" d="m 536.217,537.884 c -13.746,-0.12 -27.372,1.673 -40.999,3.107 -2.63,0.239 -5.618,0.956 -6.813,-1.912 -1.434,-3.228 1.315,-5.14 3.586,-6.694 16.974,-11.235 35.979,-15.658 55.941,-16.734 13.746,-0.836 27.372,-0.238 40.76,3.825 6.096,1.793 9.084,5.379 8.965,11.595 -0.717,33.229 -11.834,62.156 -35.859,85.704 -0.837,0.837 -1.793,1.554 -2.749,2.271 -2.151,1.555 -4.781,2.988 -7.053,1.076 -2.151,-1.793 -0.956,-4.423 0,-6.574 7.053,-17.571 14.225,-35.022 17.69,-53.789 0.479,-2.391 0.598,-4.781 0.718,-7.053 0.119,-7.77 -2.63,-11.116 -10.28,-13.028 -8.009,-2.153 -16.018,-1.794 -23.907,-1.794 z"/></g><g id="g940" stroke-width="15.38" display="inline" transform="matrix(0.01704999,0,0,0.01704999,322.80989,236.63781)"><path id="path934" fill="#050606" stroke-width="15.38" d="m 443.342,337.31 c 0,19.962 0.717,39.804 -0.239,59.766 -0.956,22.711 5.977,42.194 20.32,59.406 1.673,2.032 3.228,4.064 4.661,6.216 5.141,7.77 4.184,13.148 -2.868,19.125 -15.062,12.671 -30.003,25.46 -45.063,38.131 -8.965,7.53 -14.583,7.411 -23.667,0 -12.192,-9.921 -21.755,-22.113 -30.241,-35.143 -2.032,-3.107 -3.108,-2.988 -5.618,-0.598 -15.062,14.702 -30.959,28.329 -51.159,35.143 -31.198,10.638 -62.874,12.312 -94.191,1.195 -30.122,-10.758 -48.171,-32.991 -54.865,-63.949 -7.411,-34.545 -3.586,-67.416 17.69,-96.701 16.137,-22.113 38.489,-35.142 64.188,-43.15 26.536,-8.128 53.908,-11.236 81.4,-13.985 7.77,-0.837 15.42,-1.554 23.189,-2.271 1.912,-0.12 3.586,-0.359 3.466,-2.869 -0.238,-12.67 1.076,-25.58 -1.912,-38.011 -3.825,-15.897 -14.225,-25.221 -30.122,-28.688 -11.355,-2.51 -22.591,-1.793 -33.588,1.913 -16.734,5.737 -27.134,17.332 -31.317,34.544 -2.271,9.443 -6.694,12.79 -15.898,11.833 -19.603,-2.032 -39.206,-4.064 -58.689,-6.096 -8.009,-0.837 -12.192,-6.933 -10.519,-14.703 10.16,-49.605 42.673,-77.456 89.529,-90.246 35.979,-9.801 72.436,-10.399 108.534,-0.239 29.046,8.128 53.431,22.472 67.057,50.92 7.77,16.137 9.563,33.588 9.802,51.04 0.239,22.354 0,44.945 0.12,67.417 -0.12,0 0,0 0,0 z m -92.996,37.294 c 0,-5.977 -0.238,-11.953 0.12,-17.93 0.239,-3.706 -1.076,-5.021 -4.781,-4.662 -9.085,0.836 -18.288,0.956 -27.373,2.151 -15.897,2.032 -31.437,5.977 -44.346,16.017 -18.767,14.703 -22.711,34.784 -19.604,57.375 3.706,26.535 27.373,41.238 52.714,32.393 17.212,-5.977 27.73,-18.646 35.022,-34.545 7.65,-16.135 8.248,-33.467 8.248,-50.799 z"/><path id="path936" fill="#f6a61f" stroke-width="15.38" d="M 306.119,644.386 C 214.917,643.788 133.038,620.361 59.048,570.994 43.987,560.953 29.643,549.956 16.017,537.884 c -1.195,-1.076 -2.391,-2.151 -3.347,-3.467 -1.315,-1.793 -2.271,-3.944 -0.717,-6.096 1.554,-2.391 4.184,-2.63 6.455,-1.554 5.259,2.51 10.28,5.259 15.419,7.889 47.096,24.862 96.701,42.792 148.697,54.147 47.095,10.28 94.668,15.062 142.959,13.746 68.97,-1.912 135.429,-15.778 199.378,-41.478 3.108,-1.314 6.336,-2.629 9.563,-3.347 4.543,-0.837 9.085,-0.239 11.117,4.662 1.912,4.542 -0.598,8.128 -3.945,10.997 -2.391,2.031 -5.14,3.705 -7.889,5.498 -41.238,26.775 -86.421,43.987 -134.233,54.626 -31.557,7.174 -63.591,10.639 -93.355,10.879 z"/><path id="path938" fill="#f6a61f" stroke-width="15.38" d="m 536.217,537.884 c -13.746,-0.12 -27.372,1.673 -40.999,3.107 -2.63,0.239 -5.618,0.956 -6.813,-1.912 -1.434,-3.228 1.315,-5.14 3.586,-6.694 16.974,-11.235 35.979,-15.658 55.941,-16.734 13.746,-0.836 27.372,-0.238 40.76,3.825 6.096,1.793 9.084,5.379 8.965,11.595 -0.717,33.229 -11.834,62.156 -35.859,85.704 -0.837,0.837 -1.793,1.554 -2.749,2.271 -2.151,1.555 -4.781,2.988 -7.053,1.076 -2.151,-1.793 -0.956,-4.423 0,-6.574 7.053,-17.571 14.225,-35.022 17.69,-53.789 0.479,-2.391 0.598,-4.781 0.718,-7.053 0.119,-7.77 -2.63,-11.116 -10.28,-13.028 -8.009,-2.153 -16.018,-1.794 -23.907,-1.794 z"/></g><g id="g845" stroke-width="3.502" display="inline" transform="matrix(0.28558167,0,0,0.28558167,109.29876,-91.48719)"><path id="path8" fill="#f90" fill-opacity="1" fill-rule="evenodd" stroke="none" stroke-width="3.502" d="m 222.02642,784.73404 c -34.99948,25.79739 -85.72909,39.56123 -129.406339,39.56123 -61.24255,0 -116.37656,-22.65135 -158.08757,-60.32496 -3.2771,-2.96252 -0.34083,-6.9999 3.59171,-4.69283 45.01431,26.19064 100.67269,41.94697 158.16623,41.94697 38.774689,0 81.429499,-8.02237 120.649899,-24.67006 5.92501,-2.51683 10.87999,3.88009 5.08607,8.17965"/><path id="path10" fill="#f90" fill-opacity="1" fill-rule="evenodd" stroke="none" stroke-width="3.502" d="m 236.57678,768.08635 c -4.45688,-5.71527 -29.57261,-2.70033 -40.84585,-1.36327 -3.43442,0.41947 -3.95874,-2.56925 -0.86517,-4.71905 20.00346,-14.07844 52.82696,-10.01483 56.65462,-5.2958 3.82764,4.74526 -0.99624,37.64741 -19.79373,53.35128 -2.88385,2.41195 -5.63662,1.12734 -4.35198,-2.07113 4.2209,-10.53917 13.68519,-34.16054 9.20211,-39.90203"/><path id="path12" fill="#221f1f" fill-rule="evenodd" stroke="none" stroke-width="3.502" d="m 196.51744,662.61598 v -13.68519 c 0,-2.07113 1.57301,-3.46062 3.46062,-3.46062 h 61.26875 c 1.96628,0 3.53929,1.41571 3.53929,3.46062 v 11.71893 c -0.0262,1.96626 -1.67788,4.53551 -4.61418,8.59912 l -31.74859,45.32893 c 11.79759,-0.28837 24.25059,1.46814 34.94706,7.49802 2.41195,1.36327 3.06737,3.35575 3.25089,5.32203 v 14.60278 c 0,1.99248 -2.20222,4.32576 -4.5093,3.1198 -18.84992,-9.88376 -43.887,-10.95865 -64.72939,0.10487 -2.12356,1.15354 -4.35199,-1.15354 -4.35199,-3.14602 v -13.86871 c 0,-2.22843 0.0262,-6.02989 2.25463,-9.41186 l 36.78224,-52.74829 h -32.01076 c -1.96626,0 -3.53927,-1.38948 -3.53927,-3.43441"/><path id="path14" fill="#221f1f" fill-rule="evenodd" stroke="none" stroke-width="3.502" d="m -26.981169,748.00424 h -18.64017 c -1.78273,-0.13107 -3.19845,-1.46813 -3.32954,-3.17224 v -95.66524 c 0,-1.91383 1.59923,-3.43442 3.59171,-3.43442 h 17.38176 c 1.80898,0.0786 3.25089,1.46814 3.38199,3.19845 v 12.50545 h 0.34082 c 4.53551,-12.08598 13.05597,-17.7226 24.53896043,-17.7226 11.66648957,0 18.95476957,5.63662 24.19813957,17.7226 4.5093,-12.08598 14.76008,-17.7226 25.74495,-17.7226 7.81262,0 16.35931,3.22467 21.57646,10.46052 5.89879,8.04857 4.69281,19.74128 4.69281,29.99208 l -0.02621,60.37739 c 0,1.91383 -1.59923,3.46061 -3.59171,3.46061 h -18.61397 c -1.86138,-0.13107 -3.35574,-1.62543 -3.35574,-3.46061 v -50.70338 c 0,-4.03739 0.36702,-14.10466 -0.52434,-17.93233 -1.38949,-6.42311 -5.55797,-8.23209 -10.95865,-8.23209 -4.5093,0 -9.22833,3.01494 -11.14216,7.83885 -1.91383,4.8239 -1.73031,12.89867 -1.73031,18.32557 v 50.70338 c 0,1.91383 -1.59923,3.46061 -3.59171,3.46061 H 4.3479714 c -1.88761,-0.13107 -3.35575997,-1.62543 -3.35575997,-3.46061 l -0.02621,-50.70338 c 0,-10.67025 1.75650997,-26.37415 -11.48298043,-26.37415 -13.39682,0 -12.87248,15.31063 -12.87248,26.37415 v 50.70338 c 0,1.91383 -1.59923,3.46061 -3.59171,3.46061"/><path id="path16" fill="#221f1f" fill-rule="evenodd" stroke="none" stroke-width="3.502" d="m 317.53439,643.71364 c 27.65877,0 42.62858,23.75246 42.62858,53.95427 0,29.17934 -16.54284,52.32881 -42.62858,52.32881 -27.16066,0 -41.94697,-23.75246 -41.94697,-53.35127 0,-29.78234 14.96983,-52.93181 41.94697,-52.93181 m 0.15729,19.53156 c -13.73761,0 -14.60278,18.71881 -14.60278,30.38532 0,11.69271 -0.18352,36.65114 14.44549,36.65114 14.44548,0 15.12712,-20.13452 15.12712,-32.40403 0,-8.07477 -0.34082,-17.72257 -2.779,-25.3779 -2.09735,-6.65906 -6.26581,-9.25453 -12.19083,-9.25453"/><path id="path18" fill="#221f1f" fill-rule="evenodd" stroke="none" stroke-width="3.502" d="M 396.02762,748.00424 H 377.4661 c -1.86141,-0.13107 -3.35577,-1.62543 -3.35577,-3.46061 l -0.0262,-95.69149 c 0.1573,-1.75653 1.7041,-3.1198 3.59171,-3.1198 h 17.27691 c 1.62543,0.0786 2.96249,1.17976 3.32954,2.67412 v 14.62899 h 0.3408 c 5.21717,-13.0822 12.53165,-19.32181 25.40412,-19.32181 8.36317,0 16.51662,3.01494 21.75999,11.27324 4.87633,7.65532 4.87633,20.5278 4.87633,29.78233 v 60.22011 c -0.20973,1.67786 -1.75653,3.01492 -3.59169,3.01492 h -18.69262 c -1.70411,-0.13107 -3.11982,-1.38948 -3.30332,-3.01492 v -51.96179 c 0,-10.46052 1.20597,-25.77117 -11.66651,-25.77117 -4.5355,0 -8.70399,3.04117 -10.77512,7.65532 -2.62167,5.84637 -2.96249,11.66651 -2.96249,18.11585 v 51.5161 c -0.0262,1.91383 -1.65166,3.46061 -3.64414,3.46061"/><path id="path28" fill="#221f1f" fill-rule="evenodd" stroke="none" stroke-width="3.502" d="m 147.67545,702.30829 c 0,7.26206 0.18352,13.31815 -3.48684,19.7675 -2.9625,5.24338 -7.68153,8.46805 -12.89868,8.46805 -7.1572,0 -11.35189,-5.45312 -11.35189,-13.50169 0,-15.8874 14.23574,-18.77125 27.73741,-18.77125 v 4.03739 m 18.79748,45.43378 c -1.23218,1.10111 -3.01494,1.17976 -4.40443,0.4457 -6.18718,-5.1385 -7.3145,-7.52423 -10.69647,-12.42678 -10.22457,10.4343 -17.48665,13.55409 -30.72615,13.55409 -15.70389,0 -27.894719,-9.67401 -27.894719,-29.04824 0,-15.12713 8.179669,-25.43035 19.872379,-30.46398 10.1197,-4.45688 24.25056,-5.24337 35.05191,-6.47556 v -2.41195 c 0,-4.43066 0.34082,-9.67403 -2.28086,-13.50167 -2.25465,-3.43442 -6.60666,-4.85013 -10.46052,-4.85013 -7.10478,0 -13.42302,3.64414 -14.96983,11.19459 -0.3146,1.67789 -1.54678,3.32955 -3.25089,3.4082 l -18.063399,-1.94006 c -1.52058,-0.3408 -3.22467,-1.57301 -2.77898,-3.90629 4.142259,-21.91728 23.962199,-28.52394 41.684769,-28.52394 9.07104,0 20.92105,2.41195 28.07825,9.28076 9.07102,8.46804 8.20587,19.7675 8.20587,32.06321 v 29.04826 c 0,8.73022 3.61792,12.55786 7.02611,17.27691 1.17977,1.67786 1.44194,3.69656 -0.0787,4.95497 -3.80144,3.17225 -10.56539,9.07104 -14.28818,12.37436 l -0.0262,-0.0525"/><path id="path30" fill="#221f1f" fill-rule="evenodd" stroke="none" stroke-width="3.502" d="m -96.691739,702.30829 c 0,7.26206 0.1835,13.31815 -3.486841,19.7675 -2.96252,5.24338 -7.65533,8.46805 -12.8987,8.46805 -7.1572,0 -11.32567,-5.45312 -11.32567,-13.50169 0,-15.8874 14.23574,-18.77125 27.711211,-18.77125 v 4.03739 m 18.79747,45.43378 c -1.23219,1.10111 -3.01495,1.17976 -4.40444,0.4457 -6.18716,-5.1385 -7.28828,-7.52423 -10.69647,-12.42678 -10.224571,10.4343 -17.460401,13.55409 -30.726141,13.55409 -15.67768,0 -27.89471,-9.67401 -27.89471,-29.04824 0,-15.12713 8.20587,-25.43035 19.87236,-30.46398 10.1197,-4.45688 24.25058,-5.24337 35.051931,-6.47556 v -2.41195 c 0,-4.43066 0.34082,-9.67403 -2.25465,-13.50167 -2.280881,-3.43442 -6.632861,-4.85013 -10.460531,-4.85013 -7.10475,0 -13.44924,3.64414 -14.99603,11.19459 -0.31461,1.67789 -1.5468,3.32955 -3.22467,3.4082 l -18.08962,-1.94006 c -1.52058,-0.3408 -3.19846,-1.57301 -2.77899,-3.90629 4.16848,-21.91728 23.96219,-28.52394 41.68479,-28.52394 9.071011,0 20.921021,2.41195 28.078221,9.28076 9.07104,8.46804 8.20587,19.7675 8.20587,32.06321 v 29.04826 c 0,8.73022 3.61794,12.55786 7.02613,17.27691 1.20597,1.67786 1.46814,3.69656 -0.05244,4.95497 -3.80144,3.17225 -10.56538,9.07104 -14.28819,12.37436 l -0.05242,-0.0525"/></g><path id="path964-6" fill="url(#linearGradient2054)" fill-opacity="1" fill-rule="evenodd" stroke="none" stroke-dasharray="none" stroke-dashoffset="0" stroke-linecap="round" stroke-linejoin="miter" stroke-miterlimit="4" stroke-opacity="1" stroke-width="16" d="M 80 164 A 8.0008 8.0008 0 1 0 80 180 L 97.222656 180 L 109.61914 254.38086 L 109.17188 254.82812 L 109.79883 255.45508 L 111.89062 268 L 133.65625 268 L 127.00195 261.3457 L 126.61719 259.03906 L 140 245.65625 L 154.34375 260 L 146.34375 268 L 157.65625 268 L 160 265.65625 L 162.34375 268 L 173.65625 268 L 165.65625 260 L 180 245.65625 L 194.34375 260 L 186.34375 268 L 197.65625 268 L 200 265.65625 L 202.34375 268 L 213.65625 268 L 205.65625 260 L 220 245.65625 L 234.34375 260 L 226.35352 267.99023 C 230.67416 267.97803 234.54592 267.9054 237.94336 267.71289 L 240 265.65625 L 241.77539 267.43164 C 244.93363 267.12883 247.64516 266.67547 249.98438 266.01562 L 250.82812 265.17188 L 245.65625 260 L 260 245.65625 L 263.12891 248.78516 C 263.81252 243.95084 264.00359 237.87522 263.99023 230.35352 L 260 234.34375 L 245.65625 220 L 260 205.65625 L 263.99414 209.65039 L 263.99414 184 L 114.11133 184 L 110.77734 164 L 80 164 z M 116.11133 196 L 130.34375 196 L 134.34375 200 L 120 214.34375 L 119.00195 213.3457 L 116.11133 196 z M 149.65625 196 L 170.34375 196 L 174.34375 200 L 160 214.34375 L 145.65625 200 L 149.65625 196 z M 189.65625 196 L 210.34375 196 L 214.34375 200 L 200 214.34375 L 185.65625 200 L 189.65625 196 z M 229.65625 196 L 250.34375 196 L 254.34375 200 L 240 214.34375 L 225.65625 200 L 229.65625 196 z M 140 205.65625 L 154.34375 220 L 140 234.34375 L 125.65625 220 L 140 205.65625 z M 180 205.65625 L 194.34375 220 L 180 234.34375 L 165.65625 220 L 180 205.65625 z M 220 205.65625 L 234.34375 220 L 220 234.34375 L 205.65625 220 L 220 205.65625 z M 160 225.65625 L 174.34375 240 L 160 254.34375 L 145.65625 240 L 160 225.65625 z M 200 225.65625 L 214.34375 240 L 200 254.34375 L 185.65625 240 L 200 225.65625 z M 240 225.65625 L 254.34375 240 L 240 254.34375 L 225.65625 240 L 240 225.65625 z M 121.26367 226.91992 L 134.34375 240 L 125 249.34375 L 121.26367 226.91992 z" baseline-shift="baseline" clip-rule="nonzero" color="#000" color-interpolation="sRGB" color-interpolation-filters="linearRGB" color-rendering="auto" direction="ltr" display="inline" dominant-baseline="auto" enable-background="accumulate" font-family="sans-serif" font-size="medium" font-stretch="normal" font-style="normal" font-variant="normal" font-weight="normal" image-rendering="auto" letter-spacing="normal" opacity="1" overflow="visible" shape-rendering="auto" text-anchor="start" text-decoration="none" text-rendering="auto" vector-effect="none" visibility="visible" word-spacing="normal" writing-mode="lr-tb" style="line-height:normal;font-variant-ligatures:normal;font-variant-position:normal;font-variant-caps:normal;font-variant-numeric:normal;font-variant-alternates:normal;font-feature-settings:normal;text-indent:0;text-align:start;text-decoration-line:none;text-decoration-style:solid;text-decoration-color:#000;text-transform:none;text-orientation:mixed;white-space:normal;shape-padding:0;isolation:auto;mix-blend-mode:normal;solid-color:#000;solid-opacity:1"/></g><g id="layer4" display="inline"><path id="path931" fill="#fff" fill-opacity="1" fill-rule="nonzero" stroke="none" stroke-width="1" d="m 78.92188,43.999698 c -35.296728,0 -39.09487,3.62603 -38.92188,38.99414 v 2 c -0.17299,-35.36811 3.625152,-38.99414 38.92188,-38.99414 h 146.15624 c 35.29673,0 38.92188,3.62561 38.92188,38.99414 v -2 c 0,-35.36853 -3.62515,-38.99414 -38.92188,-38.99414 z" color="#000" display="inline" enable-background="accumulate" opacity=".3" overflow="visible" visibility="visible" style="marker:none"/><path id="path931-8" fill="#000" fill-opacity="1" fill-rule="nonzero" stroke="none" stroke-width="1" d="m 78.92728,267.9997 c -35.296731,0 -39.094875,-3.62603 -38.921885,-38.99414 v -2 c -0.17299,35.36811 3.625154,38.99414 38.921885,38.99414 h 146.15624 c 35.29673,0 38.92188,-3.62561 38.92188,-38.99414 v 2 c 0,35.36853 -3.62515,38.99414 -38.92188,38.99414 z" color="#000" display="inline" enable-background="accumulate" opacity=".2" overflow="visible" visibility="visible" style="marker:none"/><path id="path958" fill="none" fill-opacity="1" fill-rule="nonzero" stroke="#000" stroke-dasharray="none" stroke-miterlimit="4" stroke-opacity="1" stroke-width="1" d="m 333.33517,61.500047 c -10.01116,0 -11.88667,0.90635 -11.83407,9.74838 V 84 96.75181 c -0.0527,8.84203 1.82291,9.74838 11.83407,9.74838 h 21.3308 c 10.00866,0 11.83405,-0.90625 11.83405,-9.74838 V 84 71.248427 c 0,-8.84213 -1.82539,-9.74838 -11.83406,-9.74838 z" color="#000" display="inline" enable-background="accumulate" opacity=".4" overflow="visible" visibility="visible" style="marker:none"/><path id="path990" fill="none" fill-opacity="1" fill-rule="nonzero" stroke="url(#linearGradient1004)" stroke-dasharray="none" stroke-miterlimit="4" stroke-opacity="1" stroke-width="1.814" d="m 335.73108,62 c -8.82418,0 -9.77365,0.90635 -9.7304,9.74838 V 84 96.25162 c -0.0433,8.84203 0.90622,9.74838 9.7304,9.74838 h 16.53919 c 8.82418,0 9.7304,-0.90625 9.7304,-9.74838 V 84 71.74838 C 362.00067,62.90625 361.09445,62 352.27027,62 Z" clip-path="url(#clipPath994)" color="#000" display="inline" enable-background="accumulate" opacity=".7" overflow="visible" transform="matrix(1.2161948,0,0,1,-74.371693,0)" visibility="visible" style="marker:none"/><path id="path958-1" fill="none" fill-opacity="1" fill-rule="nonzero" stroke="#000" stroke-dasharray="none" stroke-miterlimit="4" stroke-opacity="1" stroke-width="1" d="m 329.12711,133.5 c -6.45163,0 -7.6603,0.58409 -7.62639,6.28227 v 8.21765 8.21781 c -0.034,5.69818 1.17476,6.28227 7.62639,6.28227 h 13.74651 c 6.45003,0 7.62639,-0.58403 7.62639,-6.28227 v -8.21781 -8.21765 c 0,-5.69824 -1.17636,-6.28227 -7.62639,-6.28227 z" color="#000" display="inline" enable-background="accumulate" opacity=".4" overflow="visible" visibility="visible" style="marker:none"/><path id="path990-8" fill="none" fill-opacity="1" fill-rule="nonzero" stroke="url(#linearGradient1004-8)" stroke-dasharray="none" stroke-miterlimit="4" stroke-opacity="1" stroke-width="2.851" d="m 335.73108,62 c -8.82418,0 -9.77365,0.90635 -9.7304,9.74838 V 84 96.25162 c -0.0433,8.84203 0.90622,9.74838 9.7304,9.74838 h 16.53919 c 8.82418,0 9.7304,-0.90625 9.7304,-9.74838 V 84 71.74838 C 362.00067,62.90625 361.09445,62 352.27027,62 Z" clip-path="url(#clipPath994-1)" color="#000" display="inline" enable-background="accumulate" opacity=".7" overflow="visible" transform="matrix(0.7733047,0,0,0.63636364,69.98319,94.545454)" visibility="visible" style="marker:none"/><path id="path935" fill="none" fill-opacity="1" fill-rule="nonzero" stroke="url(#linearGradient981)" stroke-dasharray="none" stroke-miterlimit="4" stroke-opacity="1" stroke-width="1.991" d="m 327.8652,189 c -4.41209,0 -4.88682,0.45318 -4.8652,4.87419 V 200 206.12581 C 322.9783,210.54682 323.45311,211 327.8652,211 h 8.2696 C 340.54689,211 341,210.54688 341,206.12581 V 200 193.87419 C 341,189.45313 340.54688,189 336.13479,189 Z" clip-path="url(#clipPath971)" color="#000" display="inline" enable-background="accumulate" opacity=".7" overflow="visible" transform="matrix(1.1051369,0,0,0.91313222,-34.905388,17.373548)" visibility="visible" style="marker:none"/><path id="path958-6" fill="none" fill-opacity="1" fill-rule="nonzero" stroke="#000" stroke-dasharray="none" stroke-miterlimit="4" stroke-opacity="1" stroke-width=".977" d="m 336.98249,210.51174 c 4.67709,0 5.5533,-0.42343 5.52872,-4.55431 v -5.95736 -5.95749 c 0.0245,-4.13088 -0.85163,-4.55431 -5.52872,-4.55431 H 327.017 c -4.67593,0 -5.52873,0.42338 -5.52873,4.55431 v 5.95749 5.95736 c 0,4.13093 0.8528,4.55431 5.52873,4.55431 z" color="#000" display="inline" enable-background="accumulate" opacity=".4" overflow="visible" visibility="visible" style="marker:none"/><path id="path937" fill="none" fill-opacity="1" fill-rule="nonzero" stroke="url(#linearGradient993)" stroke-dasharray="none" stroke-miterlimit="4" stroke-opacity="1" stroke-width="1.871" d="m 325.09646,237 c -2.80769,0 -3.10979,0.28839 -3.09603,3.10176 V 244 v 3.89824 c -0.0138,2.81337 0.28834,3.10176 3.09603,3.10176 h 5.8075 C 333.71166,251 334,250.71165 334,247.89824 V 244 240.10176 C 334,237.28836 333.71165,237 330.90396,237 Z" clip-path="url(#clipPath983)" color="#000" display="inline" enable-background="accumulate" opacity=".7" overflow="visible" transform="matrix(1.1428116,0,0,1,-46.841891,-4.4414902e-6)" visibility="visible" style="marker:none"/><path id="path958-6-0" fill="none" fill-opacity="1" fill-rule="nonzero" stroke="#000" stroke-dasharray="none" stroke-miterlimit="4" stroke-opacity="1" stroke-width=".977" d="m 331.52755,251.51174 c 3.31109,0 3.93139,-0.30259 3.91399,-3.25454 v -4.25716 -4.25724 c 0.0174,-2.95195 -0.6029,-3.25453 -3.91399,-3.25453 h -7.05493 c -3.31027,0 -3.914,0.30255 -3.914,3.25453 v 4.25724 4.25716 c 0,2.95199 0.60373,3.25454 3.914,3.25454 z" color="#000" display="inline" enable-background="accumulate" opacity=".4" overflow="visible" visibility="visible" style="marker:none"/></g></g></svg>