<svg xmlns="http://www.w3.org/2000/svg" xmlns:svg="http://www.w3.org/2000/svg" xmlns:xlink="http://www.w3.org/1999/xlink" id="svg11300" width="400" height="300" display="inline" enable-background="new" version="1.0"><title id="title3004">Suru Icon Theme Template</title><defs id="defs3"><clipPath id="clipPath9430" clipPathUnits="userSpaceOnUse"><path id="path9432" fill="#fff" fill-opacity="1" fill-rule="nonzero" stroke="none" stroke-width="1" d="m 166.0625,-196 h 179.875 C 491.2348,-196 512,-175.28677 512,-30.125 v 148.25 C 512,263.28618 491.2348,284 345.9375,284 H 166.0625 C 20.7652,284 0,263.28618 0,118.125 V -30.125 C 0,-175.28677 20.7652,-196 166.0625,-196 Z" color="#000" display="inline" enable-background="new" overflow="visible" visibility="visible" style="marker:none"/></clipPath><clipPath id="clipPath1082" clipPathUnits="userSpaceOnUse"><path id="path1084" fill="#8c59d9" fill-opacity="1" stroke="none" stroke-dasharray="none" stroke-dashoffset="0" stroke-linecap="round" stroke-linejoin="round" stroke-miterlimit="4" stroke-opacity="1" stroke-width="2" d="M 361.9375,-212 C 507.2348,-212 528,-191.28677 528,-46.125 V 70.125 C 528,215.28618 507.2348,236 361.9375,236 H 214.0625 C 68.7652,236 48,215.28618 48,70.125 V -46.125 C 48,-191.28677 68.7652,-212 214.0625,-212 Z" display="inline" enable-background="new" opacity="1"/></clipPath><filter id="filter4346" width="1.026" height="1.022" x="-.013" y="-.011" color-interpolation-filters="sRGB"><feGaussianBlur id="feGaussianBlur4348" stdDeviation="2.12"/></filter><linearGradient id="linearGradient4358" x1="88" x2="488" y1="88" y2="488" gradientUnits="userSpaceOnUse" xlink:href="#linearGradient4360"/><linearGradient id="linearGradient4360"><stop id="stop4362" offset="0" stop-color="#000" stop-opacity=".588"/><stop id="stop4364" offset=".88" stop-color="#000" stop-opacity="0"/><stop id="stop4366" offset="1" stop-color="#000" stop-opacity="1"/></linearGradient><filter id="filter4380" width="1.106" height="1.088" x="-.053" y="-.044" color-interpolation-filters="sRGB"><feGaussianBlur id="feGaussianBlur4382" stdDeviation="8.48"/></filter><linearGradient id="linearGradient927"><stop id="stop923" offset="0" stop-color="#fff" stop-opacity="1"/><stop id="stop933" offset=".125" stop-color="#fff" stop-opacity=".098"/><stop id="stop931" offset=".925" stop-color="#fff" stop-opacity=".098"/><stop id="stop925" offset="1" stop-color="#fff" stop-opacity=".498"/></linearGradient><clipPath id="clipPath994" clipPathUnits="userSpaceOnUse"><path id="path996" fill="#cdcdcd" fill-opacity="1" fill-rule="nonzero" stroke="none" stroke-dasharray="none" stroke-miterlimit="4" stroke-opacity="1" stroke-width="2" d="m 335.73108,62 c -8.82418,0 -9.77365,0.90635 -9.7304,9.74838 V 84 96.25162 c -0.0433,8.84203 0.90622,9.74838 9.7304,9.74838 h 16.53919 c 8.82418,0 9.7304,-0.90625 9.7304,-9.74838 V 84 71.74838 C 362.00067,62.90625 361.09445,62 352.27027,62 Z" color="#000" display="inline" enable-background="accumulate" overflow="visible" visibility="visible" style="marker:none"/></clipPath><linearGradient id="linearGradient1004" x1="344" x2="344" y1="62" y2="106" gradientUnits="userSpaceOnUse" xlink:href="#linearGradient927"/><clipPath id="clipPath959" clipPathUnits="userSpaceOnUse"><path id="path961" fill="#46a926" fill-opacity="1" fill-rule="nonzero" stroke="none" stroke-dasharray="none" stroke-miterlimit="4" stroke-opacity="1" stroke-width="2" d="m 330.1929,133.99999 c -5.61538,0 -6.21958,0.57678 -6.19206,6.20352 v 7.79648 7.79648 c -0.0276,5.62673 0.57668,6.20351 6.19206,6.20351 h 11.615 c 5.6154,0 6.19208,-0.5767 6.19208,-6.20351 v -7.79648 -7.79648 c 0,-5.6268 -0.5767,-6.20352 -6.19208,-6.20352 z" color="#000" display="inline" enable-background="accumulate" opacity="1" overflow="visible" visibility="visible" style="marker:none"/></clipPath><clipPath id="clipPath971" clipPathUnits="userSpaceOnUse"><path id="path973" fill="#46a926" fill-opacity="1" fill-rule="nonzero" stroke="none" stroke-dasharray="none" stroke-miterlimit="4" stroke-opacity="1" stroke-width="2" d="m 327.8652,189 c -4.41209,0 -4.88682,0.45318 -4.8652,4.87419 V 200 206.12581 C 322.9783,210.54682 323.45311,211 327.8652,211 h 8.2696 C 340.54689,211 341,210.54688 341,206.12581 V 200 193.87419 C 341,189.45313 340.54688,189 336.13479,189 Z" color="#000" display="inline" enable-background="accumulate" opacity="1" overflow="visible" visibility="visible" style="marker:none"/></clipPath><linearGradient id="linearGradient981" x1="332" x2="332" y1="189" y2="211" gradientUnits="userSpaceOnUse" xlink:href="#linearGradient927"/><clipPath id="clipPath983" clipPathUnits="userSpaceOnUse"><path id="path985" fill="#46a926" fill-opacity="1" fill-rule="nonzero" stroke="none" stroke-dasharray="none" stroke-miterlimit="4" stroke-opacity="1" stroke-width="2" d="m 325.09646,237 c -2.80769,0 -3.10979,0.28839 -3.09603,3.10176 V 244 v 3.89824 c -0.0138,2.81337 0.28834,3.10176 3.09603,3.10176 h 5.8075 C 333.71166,251 334,250.71165 334,247.89824 V 244 240.10176 C 334,237.28836 333.71165,237 330.90396,237 Z" color="#000" display="inline" enable-background="accumulate" opacity="1" overflow="visible" visibility="visible" style="marker:none"/></clipPath><linearGradient id="linearGradient993" x1="328" x2="328" y1="237" y2="251" gradientUnits="userSpaceOnUse" xlink:href="#linearGradient927"/><linearGradient id="linearGradient4336-3"><stop id="stop4338-8" offset="0" stop-color="#5884f4" stop-opacity="1"/><stop id="stop4344-3" offset=".278" stop-color="#5884f4" stop-opacity="1"/><stop id="stop4346-3" offset=".278" stop-color="#2f5fdd" stop-opacity="1"/><stop id="stop4350-1" offset=".707" stop-color="#2f5fdd" stop-opacity="1"/><stop id="stop4348-6" offset=".709" stop-color="#234db8" stop-opacity="1"/><stop id="stop4340-0" offset="1" stop-color="#234db8" stop-opacity="1"/></linearGradient><linearGradient id="linearGradient1004-8" x1="344" x2="344" y1="62" y2="106" gradientUnits="userSpaceOnUse" xlink:href="#linearGradient927"/><clipPath id="clipPath994-1" clipPathUnits="userSpaceOnUse"><path id="path996-8" fill="#cdcdcd" fill-opacity="1" fill-rule="nonzero" stroke="none" stroke-dasharray="none" stroke-miterlimit="4" stroke-opacity="1" stroke-width="2" d="m 335.73108,62 c -8.82418,0 -9.77365,0.90635 -9.7304,9.74838 V 84 96.25162 c -0.0433,8.84203 0.90622,9.74838 9.7304,9.74838 h 16.53919 c 8.82418,0 9.7304,-0.90625 9.7304,-9.74838 V 84 71.74838 C 362.00067,62.90625 361.09445,62 352.27027,62 Z" color="#000" display="inline" enable-background="accumulate" overflow="visible" visibility="visible" style="marker:none"/></clipPath><filter id="filter1229" width="1.048" height="1.048" x="-.024" y="-.024" color-interpolation-filters="sRGB"><feGaussianBlur id="feGaussianBlur1231" stdDeviation=".24"/></filter><filter id="filter966" width="1.12" height="1.12" x="-.06" y="-.06" color-interpolation-filters="sRGB"><feGaussianBlur id="feGaussianBlur968" stdDeviation="2"/></filter><filter id="filter1219" width="1.045" height="1.051" x="-.023" y="-.026" color-interpolation-filters="sRGB"><feGaussianBlur id="feGaussianBlur1221" stdDeviation=".792"/></filter></defs><metadata id="metadata4"/><g id="layer1" display="inline"><g id="layer7" display="none"><text enable-background="new" style="line-height:0%;-inkscape-font-specification:'DejaVu Sans'" id="context" x="19.007" y="-8.255" fill="#000" fill-opacity="1" stroke="none" display="inline" font-family="DejaVu Sans" font-stretch="normal" font-style="normal" font-variant="normal" font-weight="normal" xml:space="preserve"><tspan id="tspan3933" x="19.007" y="-8.255" font-family="DejaVu Sans" font-size="18" font-stretch="normal" font-style="normal" font-variant="normal" font-weight="normal" style="line-height:1.25;-inkscape-font-specification:'DejaVu Sans'">apps</tspan></text><text id="icon-name" x="146.488" y="-8.255" fill="#000" fill-opacity="1" stroke="none" display="inline" enable-background="new" font-family="DejaVu Sans" font-stretch="normal" font-style="normal" font-variant="normal" font-weight="bold" text-anchor="start" writing-mode="lr-tb" xml:space="preserve" style="line-height:0%;-inkscape-font-specification:'DejaVu Sans Bold';text-align:start"><tspan id="tspan3937" x="146.488" y="-8.255" font-family="DejaVu Sans" font-size="18" font-stretch="normal" font-style="normal" font-variant="normal" font-weight="bold" style="line-height:1.25;-inkscape-font-specification:'DejaVu Sans Bold'">backups-app</tspan></text><rect id="rect16x16" width="16" height="16" x="320" y="236" fill="#cdcdcd" fill-opacity="1" fill-rule="nonzero" stroke="none" stroke-width="2" display="inline" enable-background="accumulate" overflow="visible" visibility="visible" style="marker:none"/><rect id="rect24x24" width="24" height="24" x="320" y="188" fill="#cdcdcd" fill-opacity="1" fill-rule="nonzero" stroke="none" stroke-width="2" display="inline" enable-background="accumulate" overflow="visible" visibility="visible" style="marker:none"/><rect id="rect32x32" width="32" height="32" x="320" y="132" fill="#cdcdcd" fill-opacity="1" fill-rule="nonzero" stroke="none" stroke-width="2" display="inline" enable-background="accumulate" overflow="visible" visibility="visible" style="marker:none"/><rect id="rect48x48" width="48" height="48" x="320" y="60" fill="#cdcdcd" fill-opacity="1" fill-rule="nonzero" stroke="none" stroke-width="2" display="inline" enable-background="accumulate" overflow="visible" visibility="visible" style="marker:none"/><rect id="rect3951" width="256" height="256" x="24" y="28" fill="#cdcdcd" fill-opacity="1" fill-rule="nonzero" stroke="none" stroke-width="2" display="inline" enable-background="accumulate" overflow="visible" visibility="visible" style="marker:none"/></g><g id="layer8" display="inline"><path id="path995" fill="#000" fill-opacity="1" fill-rule="nonzero" stroke="none" stroke-dasharray="none" stroke-dashoffset="0" stroke-linecap="butt" stroke-linejoin="miter" stroke-miterlimit="4" stroke-opacity="1" stroke-width="2" d="m 327.86523,189 c -1.12014,0 -2.01524,0.0241 -2.79101,0.1543 -0.77577,0.13022 -1.48014,0.38763 -2.00977,0.91601 -0.52962,0.52838 -0.79079,1.23687 -0.91992,2.01367 -0.12912,0.77681 -0.15002,1.67169 -0.14453,2.79493 V 201 v 6.125 c -0.005,1.12104 0.0156,2.01529 0.14453,2.79102 0.12912,0.77681 0.39029,1.48529 0.91992,2.01367 0.52964,0.52838 1.234,0.78579 2.00977,0.91601 0.77577,0.13022 1.67087,0.1543 2.79101,0.1543 h 8.26954 c 1.12013,0 2.01264,-0.024 2.78711,-0.1543 0.77446,-0.13033 1.48001,-0.38927 2.00781,-0.91797 0.5278,-0.52869 0.78594,-1.23438 0.91601,-2.00976 C 341.97577,209.14258 342,208.24735 342,207.125 V 201 194.875 c 0,-1.12235 -0.0242,-2.01758 -0.1543,-2.79297 -0.13007,-0.77538 -0.38821,-1.48107 -0.91601,-2.00976 -0.5278,-0.5287 -1.23334,-0.78764 -2.00781,-0.91797 C 338.1474,189.02397 337.25491,189 336.13477,189 Z" baseline-shift="baseline" clip-rule="nonzero" color="#000" color-interpolation="sRGB" color-interpolation-filters="linearRGB" color-rendering="auto" direction="ltr" display="inline" dominant-baseline="auto" enable-background="accumulate" font-family="sans-serif" font-size="medium" font-stretch="normal" font-style="normal" font-variant="normal" font-weight="normal" image-rendering="auto" letter-spacing="normal" opacity=".1" overflow="visible" shape-rendering="auto" text-anchor="start" text-decoration="none" text-rendering="auto" vector-effect="none" visibility="visible" word-spacing="normal" writing-mode="lr-tb" style="line-height:normal;font-variant-ligatures:normal;font-variant-position:normal;font-variant-caps:normal;font-variant-numeric:normal;font-variant-alternates:normal;font-feature-settings:normal;text-indent:0;text-align:start;text-decoration-line:none;text-decoration-style:solid;text-decoration-color:#000;text-transform:none;text-orientation:mixed;white-space:normal;shape-padding:0;isolation:auto;mix-blend-mode:normal;solid-color:#000;solid-opacity:1;marker:none"/><path id="path997" fill="#000" fill-opacity="1" fill-rule="nonzero" stroke="none" stroke-dasharray="none" stroke-dashoffset="0" stroke-linecap="butt" stroke-linejoin="miter" stroke-miterlimit="4" stroke-opacity="1" stroke-width="2" d="m 325.0957,237 c -0.71904,0 -1.30185,0.0139 -1.83593,0.10352 -0.53409,0.0897 -1.0683,0.27628 -1.47657,0.68359 -0.40826,0.4073 -0.59657,0.94323 -0.68554,1.47851 -0.089,0.53529 -0.10119,1.12048 -0.0977,1.8418 V 244 v 3.89844 c -0.003,0.71816 0.009,1.30235 0.0977,1.83594 0.089,0.53528 0.27727,1.07121 0.68554,1.47851 0.40827,0.40731 0.94248,0.59394 1.47657,0.68359 0.53408,0.0897 1.11689,0.10352 1.83593,0.10352 h 5.8086 c 0.71904,0 1.30058,-0.0137 1.83398,-0.10352 0.53341,-0.0898 1.06768,-0.27792 1.47461,-0.68554 0.40693,-0.40762 0.59404,-0.94271 0.68359,-1.47656 C 334.98604,249.20052 335,248.61887 335,247.89844 V 244 241.10156 c 0,-0.72043 -0.014,-1.30208 -0.10352,-1.83594 -0.0895,-0.53385 -0.27666,-1.06894 -0.68359,-1.47656 -0.40693,-0.40762 -0.9412,-0.59578 -1.47461,-0.68554 C 332.20488,237.01375 331.62334,237 330.9043,237 Z" baseline-shift="baseline" clip-rule="nonzero" color="#000" color-interpolation="sRGB" color-interpolation-filters="linearRGB" color-rendering="auto" direction="ltr" display="inline" dominant-baseline="auto" enable-background="accumulate" font-family="sans-serif" font-size="medium" font-stretch="normal" font-style="normal" font-variant="normal" font-weight="normal" image-rendering="auto" letter-spacing="normal" opacity=".1" overflow="visible" shape-rendering="auto" text-anchor="start" text-decoration="none" text-rendering="auto" vector-effect="none" visibility="visible" word-spacing="normal" writing-mode="lr-tb" style="line-height:normal;font-variant-ligatures:normal;font-variant-position:normal;font-variant-caps:normal;font-variant-numeric:normal;font-variant-alternates:normal;font-feature-settings:normal;text-indent:0;text-align:start;text-decoration-line:none;text-decoration-style:solid;text-decoration-color:#000;text-transform:none;text-orientation:mixed;white-space:normal;shape-padding:0;isolation:auto;mix-blend-mode:normal;solid-color:#000;solid-opacity:1;marker:none"/><path id="path999" fill="#000" fill-opacity="1" fill-rule="nonzero" stroke="none" stroke-dasharray="none" stroke-dashoffset="0" stroke-linecap="butt" stroke-linejoin="miter" stroke-miterlimit="4" stroke-opacity="1" stroke-width="2" d="m 330.19336,134 c -1.42096,0 -2.54883,0.0308 -3.50586,0.19141 -0.95703,0.16064 -1.79146,0.4726 -2.41211,1.09179 -0.62065,0.61919 -0.93647,1.45612 -1.0957,2.41407 -0.15924,0.95795 -0.18666,2.08705 -0.17969,3.51171 V 149 v 7.79688 c -0.007,1.42131 0.0207,2.5495 0.17969,3.50585 0.15923,0.95796 0.47505,1.79488 1.0957,2.41407 0.62065,0.61919 1.45508,0.93115 2.41211,1.09179 0.95703,0.16065 2.0849,0.19141 3.50586,0.19141 h 11.61523 c 1.42097,0 2.54669,-0.0307 3.50196,-0.19141 0.95527,-0.16075 1.78779,-0.47425 2.40625,-1.09375 0.61845,-0.6195 0.93134,-1.45363 1.09179,-2.41015 C 348.96905,159.34816 349,158.22066 349,156.79688 V 149 141.20312 c 0,-1.42378 -0.031,-2.55128 -0.19141,-3.50781 -0.16045,-0.95653 -0.47334,-1.79065 -1.09179,-2.41015 -0.61846,-0.61951 -1.45098,-0.933 -2.40625,-1.09375 C 344.35528,134.03065 343.22956,134 341.80859,134 Z" baseline-shift="baseline" clip-rule="nonzero" color="#000" color-interpolation="sRGB" color-interpolation-filters="linearRGB" color-rendering="auto" direction="ltr" display="inline" dominant-baseline="auto" enable-background="accumulate" font-family="sans-serif" font-size="medium" font-stretch="normal" font-style="normal" font-variant="normal" font-weight="normal" image-rendering="auto" letter-spacing="normal" opacity=".1" overflow="visible" shape-rendering="auto" text-anchor="start" text-decoration="none" text-rendering="auto" vector-effect="none" visibility="visible" word-spacing="normal" writing-mode="lr-tb" style="line-height:normal;font-variant-ligatures:normal;font-variant-position:normal;font-variant-caps:normal;font-variant-numeric:normal;font-variant-alternates:normal;font-feature-settings:normal;text-indent:0;text-align:start;text-decoration-line:none;text-decoration-style:solid;text-decoration-color:#000;text-transform:none;text-orientation:mixed;white-space:normal;shape-padding:0;isolation:auto;mix-blend-mode:normal;solid-color:#000;solid-opacity:1;marker:none"/><path id="path1020" fill="#000" fill-opacity="1" fill-rule="nonzero" stroke="none" stroke-dasharray="none" stroke-dashoffset="0" stroke-linecap="butt" stroke-linejoin="miter" stroke-miterlimit="4" stroke-opacity="1" stroke-width="2" d="m 335.23093,61.500047 c -2.22316,0 -3.97368,0.05118 -5.41406,0.292969 -1.44039,0.241784 -2.61905,0.695299 -3.48243,1.55664 -0.86337,0.861342 -1.31906,2.039471 -1.55859,3.480469 -0.23953,1.440999 -0.28629,3.195341 -0.27539,5.423828 V 85 97.752143 c -0.0108,2.225063 0.0361,3.978517 0.27539,5.417967 0.23953,1.441 0.69522,2.61913 1.55859,3.48047 0.86338,0.86134 2.04204,1.31486 3.48243,1.55664 1.44039,0.24179 3.1909,0.29297 5.41406,0.29297 h 17.53883 c 2.22317,0 3.97276,-0.0511 5.41017,-0.29297 1.4374,-0.24189 2.61246,-0.69694 3.47265,-1.55859 0.8602,-0.86165 1.31319,-2.03894 1.55468,-3.47852 0.24149,-1.43957 0.29297,-3.190353 0.29297,-5.417967 V 85 72.248094 c 0,-2.227614 -0.0515,-3.978392 -0.29297,-5.417969 -0.24149,-1.439576 -0.69449,-2.616863 -1.55469,-3.478516 -0.86019,-0.861652 -2.03525,-1.316704 -3.47265,-1.558593 -1.4374,-0.24189 -3.187,-0.292969 -5.41016,-0.292969 z" baseline-shift="baseline" clip-rule="nonzero" color="#000" color-interpolation="sRGB" color-interpolation-filters="linearRGB" color-rendering="auto" direction="ltr" display="inline" dominant-baseline="auto" enable-background="accumulate" font-family="sans-serif" font-size="medium" font-stretch="normal" font-style="normal" font-variant="normal" font-weight="normal" image-rendering="auto" letter-spacing="normal" opacity=".1" overflow="visible" shape-rendering="auto" text-anchor="start" text-decoration="none" text-rendering="auto" vector-effect="none" visibility="visible" word-spacing="normal" writing-mode="lr-tb" style="line-height:normal;font-variant-ligatures:normal;font-variant-position:normal;font-variant-caps:normal;font-variant-numeric:normal;font-variant-alternates:normal;font-feature-settings:normal;text-indent:0;text-align:start;text-decoration-line:none;text-decoration-style:solid;text-decoration-color:#000;text-transform:none;text-orientation:mixed;white-space:normal;shape-padding:0;isolation:auto;mix-blend-mode:normal;solid-color:#000;solid-opacity:1;marker:none"/><path id="rect4158-9" fill="#000" fill-opacity="1" fill-rule="nonzero" stroke="none" stroke-width="2" d="M 189.84323,74 C 119.24979,74 111.65402,81.250835 112,151.98706 V 298 444.01294 C 111.65402,514.74917 119.24979,522 189.84323,522 H 386.15677 C 456.75021,522 462.16345,514.72616 464,444.01294 V 298 151.98706 C 464,81.249993 456.75021,74 386.15677,74 Z" color="#000" display="inline" enable-background="accumulate" filter="url(#filter4346)" opacity=".1" overflow="visible" transform="matrix(0.5,0,0,0.5,8,8)" visibility="visible" style="marker:none"/><path id="path4350" fill="url(#linearGradient4358)" fill-opacity="1" fill-rule="nonzero" stroke="none" stroke-width="2" d="M 189.84323,74 C 119.24979,74 111.65402,81.250835 112,151.98706 V 298 444.01294 C 111.65402,514.74917 119.24979,522 189.84323,522 H 386.15677 C 456.75021,522 464,514.75001 464,444.01294 V 298 151.98706 C 464,81.249993 456.75021,74 386.15677,74 Z" color="#000" display="inline" enable-background="accumulate" filter="url(#filter4380)" opacity=".3" overflow="visible" transform="matrix(0.5,0,0,0.5,8,8)" visibility="visible" style="marker:none"/><path id="rect4158-7" fill="#000" fill-opacity="1" fill-rule="nonzero" stroke="none" stroke-width="1.02" d="M 101.8116,42 C 65.712789,42 61.828597,45.690158 62.005519,81.689842 V 156 230.31016 C 61.828597,266.30985 65.712789,270 101.8116,270 h 100.38732 c 36.09881,0 39.80608,-3.68973 39.80608,-39.68984 V 156 81.689842 C 242.005,45.689729 238.29773,42 202.19892,42 Z" color="#000" display="inline" enable-background="accumulate" opacity=".1" overflow="visible" visibility="visible" style="marker:none"/><path id="path964" fill="#4d4d4d" fill-opacity="1" fill-rule="nonzero" stroke="none" stroke-width="1" d="m 335.23154,61.500047 c -8.23154,0 -9.77365,0.90635 -9.7304,9.74838 V 84 96.75181 c -0.0433,8.84203 1.49886,9.74838 9.7304,9.74838 h 17.53897 c 8.22949,0 9.73039,-0.90625 9.73039,-9.74838 V 84 71.248427 c 0,-8.84213 -1.5009,-9.74838 -9.7304,-9.74838 z" color="#000" display="inline" enable-background="accumulate" overflow="visible" visibility="visible" style="marker:none"/><path id="rect4158" fill="#4d4d4d" fill-opacity="1" fill-rule="nonzero" stroke="none" stroke-width="1" d="m 201.07298,44 c 35.29673,0 39.09461,3.625418 38.92162,38.99353 V 156 229.00647 C 240.16759,264.37459 236.36971,268 201.07298,268 H 102.91622 C 67.619504,268 63.994604,264.375 63.994604,229.00647 V 156 82.99353 C 63.994604,47.624997 67.619504,44 102.91622,44 Z" color="#000" display="inline" enable-background="accumulate" overflow="visible" visibility="visible" style="marker:none"/><path id="rect4158-96-2" fill="#fff" fill-opacity="1" fill-rule="nonzero" stroke="none" stroke-width="1" d="m 112,62 c -0.27209,0 -0.50233,0.0054 -0.76953,0.0059 -1.5673,0.0026 -3.08858,0.01056 -4.50391,0.03711 -2.0397,0.03826 -3.90889,0.110481 -5.65234,0.21875 -0.38876,0.02372 -0.77923,0.04801 -1.15234,0.07617 C 98.1707,62.47032 96.5776,62.65173 95.11719,62.892578 83.0723,65.010189 82,71.955617 82,94 v 2 c 0,-29.684304 1.92392,-32 30,-32 h 80 c 28.0402,0 30.13178,2.316416 30,31.89258 V 94 c 0.10212,-22.029007 -1.01838,-28.980646 -13.07227,-31.103516 -1.47869,-0.244399 -3.09388,-0.427059 -4.86914,-0.560546 -0.33482,-0.02509 -0.6859,-0.04683 -1.0332,-0.06836 -2.98537,-0.188289 -6.40186,-0.255396 -10.27734,-0.261719 C 192.48825,62.005428 192.26439,62 192,62 Z M 80,218.57617 v 2 C 80,250.89205 82.9655,254 111.84375,254 h 80.30859 c 28.87826,0 31.98529,-3.10829 31.84375,-33.42383 v -2 c 0.10721,22.96232 -1.66053,30.3113 -15.06836,32.52735 -1.44585,0.25463 -3.09154,0.42732 -4.86914,0.56054 -0.33543,0.0252 -0.68662,0.0465 -1.0332,0.0684 -2.95543,0.18322 -6.34101,0.25518 -10.27734,0.26172 -0.2074,3.4e-4 -0.38559,0.006 -0.59571,0.006 H 192 112 111.84375 c -0.21631,0 -0.39987,-0.006 -0.61328,-0.006 -1.57802,-0.003 -3.09114,-0.0129 -4.50391,-0.0371 -2.06616,-0.0353 -3.91571,-0.11278 -5.65234,-0.21875 -0.38766,-0.0241 -0.77864,-0.0479 -1.15234,-0.0762 -1.75241,-0.13228 -3.37731,-0.30374 -4.80469,-0.55469 C 81.7158,248.8973 80,241.5554 80,218.57617 Z" color="#000" display="inline" enable-background="accumulate" opacity=".15" overflow="visible" visibility="visible" style="marker:none"/><path id="rect4158-96" fill="#3b3b3b" fill-opacity="1" fill-rule="nonzero" stroke="none" stroke-width="1" d="M 111.84375,60 C 82.9655,60 80,63.107942 80,93.423828 V 156 218.57617 C 80,248.89205 82.9655,252 111.84375,252 h 80.30859 c 28.87826,0 31.98529,-3.10829 31.84375,-33.42383 V 156 93.423828 C 224.13763,63.108304 221.0306,60 192.15234,60 Z M 112,62 h 80 c 28.07609,0 30.13761,2.31605 30,32 l -0.004,62 0.004,62 c 0.13761,29.68397 -1.92391,32 -30,32 H 112 C 83.923924,250 82,247.6843 82,218 V 156 94 c 0,-29.684304 1.923924,-32 30,-32 z" color="#000" display="inline" enable-background="accumulate" overflow="visible" visibility="visible" style="marker:none"/><path id="path914" fill="#4d4d4d" fill-opacity="1" fill-rule="nonzero" stroke="none" stroke-width="1" d="m 327.63532,188.49999 c -4.65703,0 -5.15812,0.47378 -5.1353,5.09575 v 6.40425 6.40426 c -0.0229,4.62196 0.47827,5.09574 5.1353,5.09574 h 8.72869 c 4.65703,0 5.1353,-0.47372 5.1353,-5.09574 v -6.40426 -6.40425 c 0,-4.62202 -0.47828,-5.09575 -5.13531,-5.09575 z" color="#000" display="inline" enable-background="accumulate" overflow="visible" visibility="visible" style="marker:none"/><path id="path918" fill="#4d4d4d" fill-opacity="1" fill-rule="nonzero" stroke="none" stroke-width="1" d="m 324.8545,236.50001 c -3.04166,0 -3.36894,0.30899 -3.35403,3.32331 v 4.17669 4.17668 c -0.0149,3.01433 0.31237,3.32332 3.35403,3.32332 h 6.29146 c 3.04167,0 3.35404,-0.30895 3.35404,-3.32332 v -4.17668 -4.17669 c 0,-3.01436 -0.31238,-3.32331 -3.35404,-3.32331 z" color="#000" display="inline" enable-background="accumulate" overflow="visible" visibility="visible" style="marker:none"/><path id="path964-7" fill="#4d4d4d" fill-opacity="1" fill-rule="nonzero" stroke="none" stroke-width="1" d="m 330.07509,133.5 c -5.56175,0 -6.6037,0.58409 -6.57447,6.28227 v 8.21765 8.21781 c -0.0293,5.69818 1.01272,6.28227 6.57447,6.28227 h 11.85044 c 5.56037,0 6.57447,-0.58403 6.57447,-6.28227 v -8.21781 -8.21765 c 0,-5.69824 -1.0141,-6.28227 -6.57447,-6.28227 z" color="#000" display="inline" enable-background="accumulate" overflow="visible" visibility="visible" style="marker:none"/></g><g id="layer6" display="inline"><path id="path1197" fill="#000" fill-opacity="1" fill-rule="evenodd" stroke="none" stroke-dasharray="none" stroke-dashoffset="0" stroke-linecap="round" stroke-linejoin="miter" stroke-miterlimit="4" stroke-opacity="1" stroke-width="8" d="m 190.28321,171.9729 a 4.0004,4.0004 0 0 0 -2.17773,0.5625 l -28.3125,16.3457 a 12,12 0 0 0 -7.79297,-2.88086 12,12 0 0 0 -7.78516,2.88672 L 115.89454,172.5354 a 4.0004,4.0004 0 0 0 -1.89844,-0.56055 4.0004,4.0004 0 0 0 -2.10156,7.49023 l 28.31445,16.34571 a 12,12 0 0 0 -0.20898,2.18945 12,12 0 0 0 8,11.29883 v 32.70117 a 4.0004,4.0004 0 1 0 8,0 v -32.70117 a 12,12 0 0 0 8,-11.29883 12,12 0 0 0 -0.20703,-2.18945 l 28.3125,-16.34571 a 4.0004,4.0004 0 0 0 -1.82227,-7.49218 z" baseline-shift="baseline" clip-rule="nonzero" color="#000" color-interpolation="sRGB" color-interpolation-filters="linearRGB" color-rendering="auto" direction="ltr" display="inline" dominant-baseline="auto" enable-background="accumulate" filter="url(#filter1219)" font-family="sans-serif" font-size="medium" font-stretch="normal" font-style="normal" font-variant="normal" font-weight="normal" image-rendering="auto" letter-spacing="normal" opacity=".1" overflow="visible" shape-rendering="auto" text-anchor="start" text-decoration="none" text-rendering="auto" vector-effect="none" visibility="visible" word-spacing="normal" writing-mode="lr-tb" style="line-height:normal;font-variant-ligatures:normal;font-variant-position:normal;font-variant-caps:normal;font-variant-numeric:normal;font-variant-alternates:normal;font-feature-settings:normal;text-indent:0;text-align:start;text-decoration-line:none;text-decoration-style:solid;text-decoration-color:#000;text-transform:none;text-orientation:mixed;white-space:normal;shape-padding:0;isolation:auto;mix-blend-mode:normal;solid-color:#000;solid-opacity:1"/><path id="path1091" fill="none" fill-rule="evenodd" stroke="#cdcdcd" stroke-dasharray="none" stroke-linecap="round" stroke-linejoin="miter" stroke-miterlimit="4" stroke-opacity="1" stroke-width="2" d="m 344.00001,91.000239 6.9282,-4" display="inline" enable-background="new"/><path id="path1087" fill="none" fill-rule="evenodd" stroke="#cdcdcd" stroke-dasharray="none" stroke-linecap="round" stroke-linejoin="miter" stroke-miterlimit="4" stroke-opacity="1" stroke-width="2" d="m 344.00001,91.000239 -6.9282,-4" display="inline" enable-background="new"/><circle id="circle1030" cx="344" cy="76" r="8" fill="#fff" fill-opacity="1" stroke="none" stroke-dasharray="none" stroke-dashoffset="1" stroke-linecap="butt" stroke-linejoin="miter" stroke-miterlimit="4" stroke-opacity="1" stroke-width=".6" display="inline" enable-background="new" opacity="1"/><circle id="circle964" cx="152" cy="118" r="40" fill="#000" fill-opacity="1" stroke="none" stroke-dasharray="none" stroke-dashoffset="1" stroke-linecap="butt" stroke-linejoin="miter" stroke-miterlimit="4" stroke-opacity="1" stroke-width="3" display="inline" enable-background="new" filter="url(#filter966)" opacity=".1"/><circle id="path898" cx="152" cy="116" r="40" fill="#fff" fill-opacity="1" stroke="none" stroke-dasharray="none" stroke-dashoffset="1" stroke-linecap="butt" stroke-linejoin="miter" stroke-miterlimit="4" stroke-opacity="1" stroke-width="3" display="inline" enable-background="new" opacity="1"/><circle id="circle900" cx="152" cy="116" r="34" fill="#cdcdcd" fill-opacity="1" stroke="none" stroke-dasharray="none" stroke-dashoffset="1" stroke-linecap="butt" stroke-linejoin="miter" stroke-miterlimit="4" stroke-opacity="1" stroke-width="3" display="inline" enable-background="new" opacity="1"/><g id="g932" display="inline" transform="translate(5.9962273e-6,-3.9997605)"><path id="path908" fill="none" fill-rule="evenodd" stroke="#cdcdcd" stroke-dasharray="none" stroke-linecap="round" stroke-linejoin="miter" stroke-miterlimit="4" stroke-opacity="1" stroke-width="8" d="M 152,244 V 200"/><path id="path914-4" fill="none" fill-rule="evenodd" stroke="#cdcdcd" stroke-dasharray="none" stroke-linecap="round" stroke-linejoin="miter" stroke-miterlimit="4" stroke-opacity="1" stroke-width="8" d="M 152,200 113.89488,178"/><path id="path922" fill="none" fill-rule="evenodd" stroke="#cdcdcd" stroke-dasharray="none" stroke-linecap="round" stroke-linejoin="miter" stroke-miterlimit="4" stroke-opacity="1" stroke-width="8" d="M 190.10512,178 152,200"/></g><circle id="circle1223" cx="152" cy="198" r="12" fill="#000" fill-opacity="1" stroke="none" stroke-dasharray="none" stroke-dashoffset="1" stroke-linecap="butt" stroke-linejoin="miter" stroke-miterlimit="4" stroke-opacity="1" stroke-width="3" display="inline" enable-background="new" filter="url(#filter1229)" opacity=".1"/><circle id="circle904" cx="152" cy="196" r="12" fill="#e6e6e6" fill-opacity="1" stroke="none" stroke-dasharray="none" stroke-dashoffset="1" stroke-linecap="butt" stroke-linejoin="miter" stroke-miterlimit="4" stroke-opacity="1" stroke-width="3" display="inline" enable-background="new" opacity="1"/><circle id="circle934" cx="152" cy="196" r="8" fill="#fff" fill-opacity="1" stroke="none" stroke-dasharray="none" stroke-dashoffset="1" stroke-linecap="butt" stroke-linejoin="miter" stroke-miterlimit="4" stroke-opacity="1" stroke-width="3" display="inline" enable-background="new" opacity="1"/><circle id="circle936" cx="152" cy="116" r="28" fill="#666" fill-opacity="1" stroke="none" stroke-dasharray="none" stroke-dashoffset="1" stroke-linecap="butt" stroke-linejoin="miter" stroke-miterlimit="4" stroke-opacity="1" stroke-width="3" display="inline" enable-background="new" opacity="1"/><path id="circle938" fill="#f7f7f7" fill-opacity="1" stroke="none" stroke-dasharray="none" stroke-dashoffset="1" stroke-linecap="butt" stroke-linejoin="miter" stroke-miterlimit="4" stroke-opacity="1" stroke-width="3" d="m 152.00001,88.000239 -5.95312,8.929688 a 20,20 0 0 0 -14.04688,19.070313 20,20 0 0 0 20,20 20,20 0 0 0 20,-20 20,20 0 0 0 -14.06641,-19.097657 z" display="inline" enable-background="new" opacity="1"/><path id="path971" fill="#fff" fill-opacity="1" stroke="none" stroke-dasharray="none" stroke-dashoffset="1" stroke-linecap="butt" stroke-linejoin="miter" stroke-miterlimit="4" stroke-opacity="1" stroke-width="3" d="m 152.00001,93.600239 -4.7625,7.143751 a 16,16 0 0 0 -11.2375,15.25625 16,16 0 0 0 16,16 16,16 0 0 0 16,-16 16,16 0 0 0 -11.25313,-15.27812 z" display="inline" enable-background="new" opacity="1"/><circle id="circle1004" cx="332" cy="196" r="4" fill="#fff" fill-opacity="1" stroke="none" stroke-dasharray="none" stroke-dashoffset="1" stroke-linecap="butt" stroke-linejoin="miter" stroke-miterlimit="4" stroke-opacity="1" stroke-width=".3" display="inline" enable-background="new" opacity="1"/><circle id="circle1006" cx="332" cy="196" r="3.4" fill="#cdcdcd" fill-opacity="1" stroke="none" stroke-dasharray="none" stroke-dashoffset="1" stroke-linecap="butt" stroke-linejoin="miter" stroke-miterlimit="4" stroke-opacity="1" stroke-width=".3" display="inline" enable-background="new" opacity="1"/><g id="g1014" display="inline" transform="matrix(0.1,0,0,0.1,316.80001,184.00025)"><path id="path1008" fill="none" fill-rule="evenodd" stroke="#cdcdcd" stroke-dasharray="none" stroke-linecap="round" stroke-linejoin="miter" stroke-miterlimit="4" stroke-opacity="1" stroke-width="10" d="M 152,244 V 200"/><path id="path1010" fill="none" fill-rule="evenodd" stroke="#cdcdcd" stroke-dasharray="none" stroke-linecap="round" stroke-linejoin="miter" stroke-miterlimit="4" stroke-opacity="1" stroke-width="10" d="M 152,200 113.89488,178"/><path id="path1012" fill="none" fill-rule="evenodd" stroke="#cdcdcd" stroke-dasharray="none" stroke-linecap="round" stroke-linejoin="miter" stroke-miterlimit="4" stroke-opacity="1" stroke-width="10" d="M 190.10512,178 152,200"/></g><circle id="circle1016" cx="332" cy="204" r="1.2" fill="#e6e6e6" fill-opacity="1" stroke="none" stroke-dasharray="none" stroke-dashoffset="1" stroke-linecap="butt" stroke-linejoin="miter" stroke-miterlimit="4" stroke-opacity="1" stroke-width=".3" display="inline" enable-background="new" opacity="1"/><circle id="circle1018" cx="332" cy="204" r=".8" fill="#fff" fill-opacity="1" stroke="none" stroke-dasharray="none" stroke-dashoffset="1" stroke-linecap="butt" stroke-linejoin="miter" stroke-miterlimit="4" stroke-opacity="1" stroke-width=".3" display="inline" enable-background="new" opacity="1"/><circle id="circle1020" cx="332" cy="196" r="2.8" fill="#666" fill-opacity="1" stroke="none" stroke-dasharray="none" stroke-dashoffset="1" stroke-linecap="butt" stroke-linejoin="miter" stroke-miterlimit="4" stroke-opacity="1" stroke-width=".3" display="inline" enable-background="new" opacity="1"/><path id="path1022" fill="#f7f7f7" fill-opacity="1" stroke="none" stroke-dasharray="none" stroke-dashoffset="1" stroke-linecap="butt" stroke-linejoin="miter" stroke-miterlimit="4" stroke-opacity="1" stroke-width=".3" d="m 332.00001,193.20025 -0.59531,0.89297 a 2,2 0 0 0 -1.40469,1.90703 2,2 0 0 0 2,2 2,2 0 0 0 2,-2 2,2 0 0 0 -1.40664,-1.90977 z" display="inline" enable-background="new" opacity="1"/><path id="path1024" fill="#fff" fill-opacity="1" stroke="none" stroke-dasharray="none" stroke-dashoffset="1" stroke-linecap="butt" stroke-linejoin="miter" stroke-miterlimit="4" stroke-opacity="1" stroke-width=".3" d="m 332.00001,193.76025 -0.47625,0.71438 a 1.6,1.6 0 0 0 -1.12375,1.52562 1.6,1.6 0 0 0 1.6,1.6 1.6,1.6 0 0 0 1.6,-1.6 1.6,1.6 0 0 0 -1.12531,-1.52781 z" display="inline" enable-background="new" opacity="1"/><circle id="circle1032" cx="344" cy="76" r="7" fill="#cdcdcd" fill-opacity="1" stroke="none" stroke-dasharray="none" stroke-dashoffset="1" stroke-linecap="butt" stroke-linejoin="miter" stroke-miterlimit="4" stroke-opacity="1" stroke-width=".618" display="inline" enable-background="new" opacity="1"/><path id="path1034" fill="none" fill-rule="evenodd" stroke="#cdcdcd" stroke-dasharray="none" stroke-linecap="round" stroke-linejoin="miter" stroke-miterlimit="4" stroke-opacity="1" stroke-width="2" d="m 344.00001,99.000239 v -8" display="inline" enable-background="new"/><circle id="circle1042" cx="344" cy="91" r="3" fill="#e6e6e6" fill-opacity="1" stroke="none" stroke-dasharray="none" stroke-dashoffset="1" stroke-linecap="butt" stroke-linejoin="miter" stroke-miterlimit="4" stroke-opacity="1" stroke-width=".75" display="inline" enable-background="new" opacity="1"/><circle id="circle1044" cx="344" cy="91" r="2" fill="#fff" fill-opacity="1" stroke="none" stroke-dasharray="none" stroke-dashoffset="1" stroke-linecap="butt" stroke-linejoin="miter" stroke-miterlimit="4" stroke-opacity="1" stroke-width=".75" display="inline" enable-background="new" opacity="1"/><circle id="circle1046" cx="344" cy="76" r="6" fill="#666" fill-opacity="1" stroke="none" stroke-dasharray="none" stroke-dashoffset="1" stroke-linecap="butt" stroke-linejoin="miter" stroke-miterlimit="4" stroke-opacity="1" stroke-width=".643" display="inline" enable-background="new" opacity="1"/><path id="path1048" fill="#f7f7f7" fill-opacity="1" stroke="none" stroke-dasharray="none" stroke-dashoffset="1" stroke-linecap="butt" stroke-linejoin="miter" stroke-miterlimit="4" stroke-opacity="1" stroke-width=".6" d="m 344.00001,70.000239 -1.19062,2.185937 c -1.66952,0.520535 -2.80735,2.065274 -2.80938,3.814062 0,2.209139 1.79086,4 4,4 2.20914,0 4,-1.790861 4,-4 -1.7e-4,-1.751868 -1.14029,-3.299787 -2.81328,-3.819531 z" display="inline" enable-background="new" opacity="1"/><path id="path1093" fill="none" fill-rule="evenodd" stroke="#cdcdcd" stroke-dasharray="none" stroke-linecap="round" stroke-linejoin="miter" stroke-miterlimit="4" stroke-opacity="1" stroke-width="1.5" d="m 336.00001,153.2538 5.19615,-3" display="inline" enable-background="new"/><path id="path1095" fill="none" fill-rule="evenodd" stroke="#cdcdcd" stroke-dasharray="none" stroke-linecap="round" stroke-linejoin="miter" stroke-miterlimit="4" stroke-opacity="1" stroke-width="1.5" d="m 336.00001,153.2538 -5.19615,-3" display="inline" enable-background="new"/><path id="path1101" fill="none" fill-rule="evenodd" stroke="#cdcdcd" stroke-dasharray="none" stroke-linecap="round" stroke-linejoin="miter" stroke-miterlimit="4" stroke-opacity="1" stroke-width="1.5" d="m 336.00001,159.2538 v -6" display="inline" enable-background="new"/><circle id="circle1103" cx="336" cy="153.254" r="2.25" fill="#e6e6e6" fill-opacity="1" stroke="none" stroke-dasharray="none" stroke-dashoffset="1" stroke-linecap="butt" stroke-linejoin="miter" stroke-miterlimit="4" stroke-opacity="1" stroke-width=".563" display="inline" enable-background="new" opacity="1"/><circle id="circle1105" cx="336" cy="153.254" r="1.5" fill="#fff" fill-opacity="1" stroke="none" stroke-dasharray="none" stroke-dashoffset="1" stroke-linecap="butt" stroke-linejoin="miter" stroke-miterlimit="4" stroke-opacity="1" stroke-width=".563" display="inline" enable-background="new" opacity="1"/><g id="g1237" display="inline" transform="matrix(0.83333333,0,0,0.83333333,56.000006,24.667498)"><circle id="circle1097" cx="336" cy="142.004" r="6" fill="#fff" fill-opacity="1" stroke="none" stroke-dasharray="none" stroke-dashoffset="1" stroke-linecap="butt" stroke-linejoin="miter" stroke-miterlimit="4" stroke-opacity="1" stroke-width=".45" display="inline" enable-background="new" opacity="1"/><circle id="circle1099" cx="336" cy="142.004" r="5.25" fill="#cdcdcd" fill-opacity="1" stroke="none" stroke-dasharray="none" stroke-dashoffset="1" stroke-linecap="butt" stroke-linejoin="miter" stroke-miterlimit="4" stroke-opacity="1" stroke-width=".463" display="inline" enable-background="new" opacity="1"/><circle id="circle1107" cx="336" cy="142.004" r="4.5" fill="#666" fill-opacity="1" stroke="none" stroke-dasharray="none" stroke-dashoffset="1" stroke-linecap="butt" stroke-linejoin="miter" stroke-miterlimit="4" stroke-opacity="1" stroke-width=".482" display="inline" enable-background="new" opacity="1"/><path id="path1109" fill="#f7f7f7" fill-opacity="1" stroke="none" stroke-dasharray="none" stroke-dashoffset="1" stroke-linecap="butt" stroke-linejoin="miter" stroke-miterlimit="4" stroke-opacity="1" stroke-width=".45" d="m 336,137.50356 -0.89297,1.63945 c -1.25214,0.3904 -2.10551,1.54896 -2.10703,2.86055 0,1.65685 1.34314,3 3,3 1.65685,0 3,-1.34315 3,-3 -1.3e-4,-1.3139 -0.85522,-2.47484 -2.10996,-2.86465 z" display="inline" enable-background="new" opacity="1"/></g><g id="g1155" display="inline" transform="matrix(1.3333333,0,0,1.3333333,-162.66665,-76.011853)"><circle id="circle1126" cx="368" cy="240.009" r="3" fill="#fff" fill-opacity="1" stroke="none" stroke-dasharray="none" stroke-dashoffset="1" stroke-linecap="butt" stroke-linejoin="miter" stroke-miterlimit="4" stroke-opacity="1" stroke-width=".225" display="inline" enable-background="new" opacity="1"/><circle id="circle1128" cx="368" cy="240.009" r="2.625" fill="#cdcdcd" fill-opacity="1" stroke="none" stroke-dasharray="none" stroke-dashoffset="1" stroke-linecap="butt" stroke-linejoin="miter" stroke-miterlimit="4" stroke-opacity="1" stroke-width=".232" display="inline" enable-background="new" opacity="1"/><circle id="circle1136" cx="368" cy="240.009" r="2.25" fill="#666" fill-opacity="1" stroke="none" stroke-dasharray="none" stroke-dashoffset="1" stroke-linecap="butt" stroke-linejoin="miter" stroke-miterlimit="4" stroke-opacity="1" stroke-width=".241" display="inline" enable-background="new" opacity="1"/><path id="path1138" fill="#f7f7f7" fill-opacity="1" stroke="none" stroke-dasharray="none" stroke-dashoffset="1" stroke-linecap="butt" stroke-linejoin="miter" stroke-miterlimit="4" stroke-opacity="1" stroke-width=".225" d="m 368,237.7589 -0.44648,0.81973 c -0.62607,0.1952 -1.05276,0.77447 -1.05352,1.43027 0,0.82843 0.67157,1.5 1.5,1.5 0.82843,0 1.5,-0.67157 1.5,-1.5 -6e-5,-0.65695 -0.42761,-1.23742 -1.05498,-1.43232 z" display="inline" enable-background="new" opacity="1"/></g></g><g id="layer4"><path id="path931" fill="#fff" fill-opacity="1" fill-rule="nonzero" stroke="none" stroke-width="1" d="M 102.92188,44 C 67.625152,44 63.82701,47.626029 64,82.994141 v 2 C 63.82701,49.626029 67.625152,46 102.92188,46 h 98.15624 C 236.37485,46 240,49.625608 240,84.994141 v -2 C 240,47.625608 236.37485,44 201.07812,44 Z" color="#000" display="inline" enable-background="accumulate" opacity=".3" overflow="visible" visibility="visible" style="marker:none"/><path id="path931-8" fill="#000" fill-opacity="1" fill-rule="nonzero" stroke="none" stroke-width="1" d="m 102.92728,268 c -35.296731,0 -39.094875,-3.62603 -38.921885,-38.99414 v -2 C 63.832405,262.37397 67.630549,266 102.92728,266 h 98.15624 c 35.29673,0 38.92188,-3.62561 38.92188,-38.99414 v 2 C 240.0054,264.37439 236.38025,268 201.08352,268 Z" color="#000" display="inline" enable-background="accumulate" opacity=".2" overflow="visible" visibility="visible" style="marker:none"/><path id="path958" fill="none" fill-opacity="1" fill-rule="nonzero" stroke="#000" stroke-dasharray="none" stroke-miterlimit="4" stroke-opacity="1" stroke-width="1" d="m 335.23154,61.500047 c -8.23154,0 -9.77365,0.90635 -9.7304,9.74838 V 84 96.75181 c -0.0433,8.84203 1.49886,9.74838 9.7304,9.74838 h 17.53897 c 8.22949,0 9.73039,-0.90625 9.73039,-9.74838 V 84 71.248427 c 0,-8.84213 -1.5009,-9.74838 -9.7304,-9.74838 z" color="#000" display="inline" enable-background="accumulate" opacity=".4" overflow="visible" visibility="visible" style="marker:none"/><path d="m 335.73108,62 c -8.82418,0 -9.77365,0.90635 -9.7304,9.74838 V 84 96.25162 c -0.0433,8.84203 0.90622,9.74838 9.7304,9.74838 h 16.53919 c 8.82418,0 9.7304,-0.90625 9.7304,-9.74838 V 84 71.74838 C 362.00067,62.90625 361.09445,62 352.27027,62 Z" style="marker:none" id="path990" fill="none" fill-opacity="1" fill-rule="nonzero" stroke="url(#linearGradient1004)" stroke-dasharray="none" stroke-miterlimit="4" stroke-opacity="1" stroke-width="2" clip-path="url(#clipPath994)" color="#000" display="inline" enable-background="accumulate" opacity=".3" overflow="visible" visibility="visible"/><path id="path958-1" fill="none" fill-opacity="1" fill-rule="nonzero" stroke="#000" stroke-dasharray="none" stroke-miterlimit="4" stroke-opacity="1" stroke-width="1" d="m 330.07509,133.5 c -5.56175,0 -6.6037,0.58409 -6.57447,6.28227 v 8.21765 8.21781 c -0.0293,5.69818 1.01272,6.28227 6.57447,6.28227 h 11.85044 c 5.56037,0 6.57447,-0.58403 6.57447,-6.28227 v -8.21781 -8.21765 c 0,-5.69824 -1.0141,-6.28227 -6.57447,-6.28227 z" color="#000" display="inline" enable-background="accumulate" opacity=".4" overflow="visible" visibility="visible" style="marker:none"/><path id="path990-8" fill="none" fill-opacity="1" fill-rule="nonzero" stroke="url(#linearGradient1004-8)" stroke-dasharray="none" stroke-miterlimit="4" stroke-opacity="1" stroke-width="3.071" d="m 335.73108,62 c -8.82418,0 -9.77365,0.90635 -9.7304,9.74838 V 84 96.25162 c -0.0433,8.84203 0.90622,9.74838 9.7304,9.74838 h 16.53919 c 8.82418,0 9.7304,-0.90625 9.7304,-9.74838 V 84 71.74838 C 362.00067,62.90625 361.09445,62 352.27027,62 Z" clip-path="url(#clipPath994-1)" color="#000" display="inline" enable-background="accumulate" opacity=".3" overflow="visible" transform="matrix(0.66664182,0,0,0.63636364,106.67522,94.545454)" visibility="visible" style="marker:none"/><path d="m 327.8652,189 c -4.41209,0 -4.88682,0.45318 -4.8652,4.87419 V 200 206.12581 C 322.9783,210.54682 323.45311,211 327.8652,211 h 8.2696 C 340.54689,211 341,210.54688 341,206.12581 V 200 193.87419 C 341,189.45313 340.54688,189 336.13479,189 Z" style="marker:none" id="path935" fill="none" fill-opacity="1" fill-rule="nonzero" stroke="url(#linearGradient981)" stroke-dasharray="none" stroke-miterlimit="4" stroke-opacity="1" stroke-width="2" clip-path="url(#clipPath971)" color="#000" display="inline" enable-background="accumulate" opacity=".3" overflow="visible" visibility="visible"/><path id="path958-6" fill="none" fill-opacity="1" fill-rule="nonzero" stroke="#000" stroke-dasharray="none" stroke-miterlimit="4" stroke-opacity="1" stroke-width=".977" d="m 336.50843,211.51174 c 4.23214,0 5.02499,-0.46371 5.00275,-4.98757 v -6.5241 -6.52423 c 0.0222,-4.52386 -0.77061,-4.98757 -5.00275,-4.98757 H 327.491 c -4.23108,0 -5.00275,0.46366 -5.00275,4.98757 v 6.52423 6.5241 c 0,4.52391 0.77167,4.98757 5.00275,4.98757 z" color="#000" display="inline" enable-background="accumulate" opacity=".4" overflow="visible" visibility="visible" style="marker:none"/><path id="path937" fill="none" fill-opacity="1" fill-rule="nonzero" stroke="url(#linearGradient993)" stroke-dasharray="none" stroke-miterlimit="4" stroke-opacity="1" stroke-width="2" d="m 325.09646,237 c -2.80769,0 -3.10979,0.28839 -3.09603,3.10176 V 244 v 3.89824 c -0.0138,2.81337 0.28834,3.10176 3.09603,3.10176 h 5.8075 C 333.71166,251 334,250.71165 334,247.89824 V 244 240.10176 C 334,237.28836 333.71165,237 330.90396,237 Z" clip-path="url(#clipPath983)" color="#000" display="inline" enable-background="accumulate" opacity=".3" overflow="visible" visibility="visible" style="marker:none"/><path id="path958-6-0" fill="none" fill-opacity="1" fill-rule="nonzero" stroke="#000" stroke-dasharray="none" stroke-miterlimit="4" stroke-opacity="1" stroke-width=".977" d="m 331.08645,251.51174 c 2.89732,0 3.44011,-0.30259 3.42488,-3.25454 v -4.25716 -4.25724 c 0.0152,-2.95195 -0.52756,-3.25453 -3.42488,-3.25453 h -6.17331 c -2.8966,0 -3.42488,0.30255 -3.42488,3.25453 v 4.25724 4.25716 c 0,2.95199 0.52828,3.25454 3.42488,3.25454 z" color="#000" display="inline" enable-background="accumulate" opacity=".4" overflow="visible" visibility="visible" style="marker:none"/></g></g></svg>