<svg xmlns="http://www.w3.org/2000/svg" xmlns:svg="http://www.w3.org/2000/svg" xmlns:xlink="http://www.w3.org/1999/xlink" id="svg11300" width="400" height="300" display="inline" enable-background="new" version="1.0"><title id="title3004">Suru Icon Theme Template</title><defs id="defs3"><clipPath id="clipPath9430" clipPathUnits="userSpaceOnUse"><path id="path9432" fill="#fff" fill-opacity="1" fill-rule="nonzero" stroke="none" stroke-width="1" d="m 166.0625,-196 h 179.875 C 491.2348,-196 512,-175.28677 512,-30.125 v 148.25 C 512,263.28618 491.2348,284 345.9375,284 H 166.0625 C 20.7652,284 0,263.28618 0,118.125 V -30.125 C 0,-175.28677 20.7652,-196 166.0625,-196 Z" color="#000" display="inline" enable-background="new" overflow="visible" visibility="visible" style="marker:none"/></clipPath><clipPath id="clipPath1082" clipPathUnits="userSpaceOnUse"><path id="path1084" fill="#8c59d9" fill-opacity="1" stroke="none" stroke-dasharray="none" stroke-dashoffset="0" stroke-linecap="round" stroke-linejoin="round" stroke-miterlimit="4" stroke-opacity="1" stroke-width="2" d="M 361.9375,-212 C 507.2348,-212 528,-191.28677 528,-46.125 V 70.125 C 528,215.28618 507.2348,236 361.9375,236 H 214.0625 C 68.7652,236 48,215.28618 48,70.125 V -46.125 C 48,-191.28677 68.7652,-212 214.0625,-212 Z" display="inline" enable-background="new" opacity="1"/></clipPath><filter id="filter4346" width="1.026" height="1.022" x="-.013" y="-.011" color-interpolation-filters="sRGB"><feGaussianBlur id="feGaussianBlur4348" stdDeviation="2.12"/></filter><linearGradient id="linearGradient4358" x1="88" x2="488" y1="88" y2="488" gradientUnits="userSpaceOnUse" xlink:href="#linearGradient4360"/><linearGradient id="linearGradient4360"><stop id="stop4362" offset="0" stop-color="#000" stop-opacity=".588"/><stop id="stop4366" offset="1" stop-color="#000" stop-opacity=".206"/></linearGradient><filter id="filter4380" width="1.106" height="1.088" x="-.053" y="-.044" color-interpolation-filters="sRGB"><feGaussianBlur id="feGaussianBlur4382" stdDeviation="8.48"/></filter><linearGradient id="linearGradient927"><stop id="stop923" offset="0" stop-color="#fff" stop-opacity="1"/><stop id="stop933" offset=".125" stop-color="#fff" stop-opacity=".098"/><stop id="stop931" offset=".925" stop-color="#fff" stop-opacity=".098"/><stop id="stop925" offset="1" stop-color="#fff" stop-opacity=".498"/></linearGradient><clipPath id="clipPath994" clipPathUnits="userSpaceOnUse"><path id="path996" fill="#cdcdcd" fill-opacity="1" fill-rule="nonzero" stroke="none" stroke-dasharray="none" stroke-miterlimit="4" stroke-opacity="1" stroke-width="2" d="m 335.73108,62 c -8.82418,0 -9.77365,0.90635 -9.7304,9.74838 V 84 96.25162 c -0.0433,8.84203 0.90622,9.74838 9.7304,9.74838 h 16.53919 c 8.82418,0 9.7304,-0.90625 9.7304,-9.74838 V 84 71.74838 C 362.00067,62.90625 361.09445,62 352.27027,62 Z" color="#000" display="inline" enable-background="accumulate" overflow="visible" visibility="visible" style="marker:none"/></clipPath><linearGradient id="linearGradient1004" x1="344" x2="344" y1="62" y2="106" gradientUnits="userSpaceOnUse" xlink:href="#linearGradient927"/><clipPath id="clipPath959" clipPathUnits="userSpaceOnUse"><path id="path961" fill="#46a926" fill-opacity="1" fill-rule="nonzero" stroke="none" stroke-dasharray="none" stroke-miterlimit="4" stroke-opacity="1" stroke-width="2" d="m 330.1929,133.99999 c -5.61538,0 -6.21958,0.57678 -6.19206,6.20352 v 7.79648 7.79648 c -0.0276,5.62673 0.57668,6.20351 6.19206,6.20351 h 11.615 c 5.6154,0 6.19208,-0.5767 6.19208,-6.20351 v -7.79648 -7.79648 c 0,-5.6268 -0.5767,-6.20352 -6.19208,-6.20352 z" color="#000" display="inline" enable-background="accumulate" opacity="1" overflow="visible" visibility="visible" style="marker:none"/></clipPath><clipPath id="clipPath971" clipPathUnits="userSpaceOnUse"><path id="path973" fill="#46a926" fill-opacity="1" fill-rule="nonzero" stroke="none" stroke-dasharray="none" stroke-miterlimit="4" stroke-opacity="1" stroke-width="2" d="m 327.8652,189 c -4.41209,0 -4.88682,0.45318 -4.8652,4.87419 V 200 206.12581 C 322.9783,210.54682 323.45311,211 327.8652,211 h 8.2696 C 340.54689,211 341,210.54688 341,206.12581 V 200 193.87419 C 341,189.45313 340.54688,189 336.13479,189 Z" color="#000" display="inline" enable-background="accumulate" opacity="1" overflow="visible" visibility="visible" style="marker:none"/></clipPath><linearGradient id="linearGradient981" x1="332" x2="332" y1="189" y2="211" gradientUnits="userSpaceOnUse" xlink:href="#linearGradient927"/><clipPath id="clipPath983" clipPathUnits="userSpaceOnUse"><path id="path985" fill="#46a926" fill-opacity="1" fill-rule="nonzero" stroke="none" stroke-dasharray="none" stroke-miterlimit="4" stroke-opacity="1" stroke-width="2" d="m 325.09646,237 c -2.80769,0 -3.10979,0.28839 -3.09603,3.10176 V 244 v 3.89824 c -0.0138,2.81337 0.28834,3.10176 3.09603,3.10176 h 5.8075 C 333.71166,251 334,250.71165 334,247.89824 V 244 240.10176 C 334,237.28836 333.71165,237 330.90396,237 Z" color="#000" display="inline" enable-background="accumulate" opacity="1" overflow="visible" visibility="visible" style="marker:none"/></clipPath><linearGradient id="linearGradient993" x1="328" x2="328" y1="237" y2="251" gradientUnits="userSpaceOnUse" xlink:href="#linearGradient927"/><linearGradient id="linearGradient4336-3"><stop id="stop4338-8" offset="0" stop-color="#5884f4" stop-opacity="1"/><stop id="stop4344-3" offset=".278" stop-color="#5884f4" stop-opacity="1"/><stop id="stop4346-3" offset=".278" stop-color="#2f5fdd" stop-opacity="1"/><stop id="stop4350-1" offset=".707" stop-color="#2f5fdd" stop-opacity="1"/><stop id="stop4348-6" offset=".709" stop-color="#234db8" stop-opacity="1"/><stop id="stop4340-0" offset="1" stop-color="#234db8" stop-opacity="1"/></linearGradient><linearGradient id="linearGradient1004-8" x1="344" x2="344" y1="62" y2="106" gradientUnits="userSpaceOnUse" xlink:href="#linearGradient927"/><clipPath id="clipPath994-1" clipPathUnits="userSpaceOnUse"><path id="path996-8" fill="#cdcdcd" fill-opacity="1" fill-rule="nonzero" stroke="none" stroke-dasharray="none" stroke-miterlimit="4" stroke-opacity="1" stroke-width="2" d="m 335.73108,62 c -8.82418,0 -9.77365,0.90635 -9.7304,9.74838 V 84 96.25162 c -0.0433,8.84203 0.90622,9.74838 9.7304,9.74838 h 16.53919 c 8.82418,0 9.7304,-0.90625 9.7304,-9.74838 V 84 71.74838 C 362.00067,62.90625 361.09445,62 352.27027,62 Z" color="#000" display="inline" enable-background="accumulate" overflow="visible" visibility="visible" style="marker:none"/></clipPath><linearGradient id="linearGradient3797-5"><stop id="stop3801" offset="0" stop-color="#f7f7f7" stop-opacity="1"/><stop id="stop3799" offset="1" stop-color="#e6e6e6" stop-opacity="1"/></linearGradient><linearGradient id="linearGradient1686" x1="321.5" x2="366.5" y1="84" y2="84" gradientTransform="matrix(0,1,1,0,259.99991,-259.99991)" gradientUnits="userSpaceOnUse" xlink:href="#linearGradient4338-7"/><linearGradient id="linearGradient1688" x1="321.5" x2="350.5" y1="148" y2="148" gradientTransform="matrix(0,1,1,0,188.00002,-188.00002)" gradientUnits="userSpaceOnUse" xlink:href="#linearGradient4338-7"/><linearGradient id="linearGradient1690" x1="321.498" x2="342.5" y1="200" y2="200" gradientTransform="matrix(0,1,1,0,131.9993,-131.9993)" gradientUnits="userSpaceOnUse" xlink:href="#linearGradient4338-7"/><linearGradient id="linearGradient1692" x1="320.5" x2="335.5" y1="244" y2="244" gradientTransform="matrix(0,1,1,0,84.00031,-84.00031)" gradientUnits="userSpaceOnUse" xlink:href="#linearGradient4338-7"/><linearGradient id="linearGradient1694" x1="39.997" x2="263.997" y1="156" y2="156" gradientTransform="matrix(0,1,1,0,-4.0024,4.002396)" gradientUnits="userSpaceOnUse" xlink:href="#linearGradient4338-7"/><clipPath id="clipPath999" clipPathUnits="userSpaceOnUse"><path id="path1001" fill="#5d5d5d" fill-opacity="1" fill-rule="nonzero" stroke="none" stroke-dasharray="none" stroke-dashoffset="0" stroke-linecap="butt" stroke-linejoin="round" stroke-miterlimit="4" stroke-opacity="1" stroke-width="3.826" d="m 152,68 c -48.60106,0 -88,39.39894 -88,88 0,48.60106 39.39894,88 88,88 48.60106,0 88,-39.39894 88,-88 0,-48.60106 -39.39894,-88 -88,-88 z" color="#000" display="inline" enable-background="accumulate" opacity="1" overflow="visible" visibility="visible" style="marker:none"/></clipPath><linearGradient id="linearGradient4338-7"><stop id="stop4340-2" offset="0" stop-color="#2b898f" stop-opacity="1"/><stop id="stop4342-6" offset="1" stop-color="#5bdbc1" stop-opacity="1"/></linearGradient><linearGradient id="linearGradient1002" x1="16" x2="16" y1="304" y2="208" gradientTransform="matrix(0.078125,0,0,0.08680555,320.16668,61.777776)" gradientUnits="userSpaceOnUse" xlink:href="#linearGradient4245"/><linearGradient id="linearGradient4245"><stop id="stop4247" offset="0" stop-color="#d9d9d9" stop-opacity="1"/><stop id="stop4249" offset="1" stop-color="#ececec" stop-opacity="1"/></linearGradient><linearGradient id="linearGradient998" x1="16" x2="16" y1="304" y2="208" gradientTransform="matrix(0.046875,0,0,0.05208333,321.5,134.66667)" gradientUnits="userSpaceOnUse" xlink:href="#linearGradient4245"/><linearGradient id="linearGradient985" x1="16" x2="16" y1="304" y2="208" gradientTransform="matrix(0.03125,0,0,0.03472222,320.66667,235.11111)" gradientUnits="userSpaceOnUse" xlink:href="#linearGradient4245"/><linearGradient id="linearGradient4251-3" x1="16" x2="16" y1="304" y2="208" gradientTransform="matrix(0.03125,0,0,0.03472222,321.66667,191.11111)" gradientUnits="userSpaceOnUse" xlink:href="#linearGradient4245"/><linearGradient id="linearGradient4251" x1="16" x2="16" y1="304" y2="208" gradientTransform="matrix(0.375,0,0,0.41666666,16,49.333342)" gradientUnits="userSpaceOnUse" xlink:href="#linearGradient4245"/><clipPath id="clipPath949" clipPathUnits="userSpaceOnUse"><path id="path951" fill="#eab305" fill-opacity="1" stroke="none" stroke-dasharray="none" stroke-dashoffset="0" stroke-linecap="round" stroke-linejoin="round" stroke-miterlimit="4" stroke-opacity="1" stroke-width="4" d="M 329.9375,32 C 475.2348,32 496,52.71323 496,197.875 v 116.25 C 496,459.28618 475.2348,480 329.9375,480 H 182.0625 C 36.7652,480 16,459.28618 16,314.125 V 197.875 C 16,52.71323 36.7652,32 182.0625,32 Z" opacity="1"/></clipPath><filter id="filter967" width="1.014" height="1.072" x="-.007" y="-.036" color-interpolation-filters="sRGB"><feGaussianBlur id="feGaussianBlur969" stdDeviation="1.44"/></filter><linearGradient id="linearGradient4268" x1="0" x2="0" y1="258" y2="208" gradientTransform="matrix(1,0,0,0.83333335,0,42.999994)" gradientUnits="userSpaceOnUse" spreadMethod="reflect" xlink:href="#linearGradient4262"/><linearGradient id="linearGradient4262"><stop id="stop4264" offset="0" stop-color="#000" stop-opacity="1"/><stop id="stop4266" offset="1" stop-color="#000" stop-opacity="0"/></linearGradient><clipPath id="clipPath21810" clipPathUnits="userSpaceOnUse"><path id="path21808" fill="#eab305" fill-opacity="1" stroke="none" stroke-dasharray="none" stroke-dashoffset="0" stroke-linecap="round" stroke-linejoin="round" stroke-miterlimit="4" stroke-opacity="1" stroke-width="4" d="M 329.9375,32 C 475.2348,32 496,52.71323 496,197.875 v 116.25 C 496,459.28618 475.2348,480 329.9375,480 H 182.0625 C 36.7652,480 16,459.28618 16,314.125 V 197.875 C 16,52.71323 36.7652,32 182.0625,32 Z" opacity="1"/></clipPath><filter id="filter4277" width="1.056" height="1.355" x="-.028" y="-.178" color-interpolation-filters="sRGB"><feGaussianBlur id="feGaussianBlur4279" stdDeviation="5.92"/></filter><linearGradient id="linearGradient21961" x1="16" x2="16" y1="304" y2="208" gradientTransform="matrix(0.375,0,0,0.41666666,32,49.333342)" gradientUnits="userSpaceOnUse" xlink:href="#linearGradient4245"/><linearGradient id="linearGradient21963" x1="0" x2="0" y1="258" y2="208" gradientTransform="matrix(1,0,0,0.83333335,0,42.999994)" gradientUnits="userSpaceOnUse" spreadMethod="reflect" xlink:href="#linearGradient4262"/><linearGradient id="linearGradient21969" x1="16" x2="16" y1="304" y2="208" gradientTransform="matrix(0.046875,0,0,0.05208333,319.5,134.66667)" gradientUnits="userSpaceOnUse" xlink:href="#linearGradient4245"/><linearGradient id="linearGradient21975" x1="16" x2="16" y1="304" y2="208" gradientTransform="matrix(0.03125,0,0,0.03472222,319.66667,191.11111)" gradientUnits="userSpaceOnUse" xlink:href="#linearGradient4245"/></defs><metadata id="metadata4"/><g id="layer1" display="inline"><g id="layer7" display="none"><text enable-background="new" style="line-height:0%;-inkscape-font-specification:'DejaVu Sans'" id="context" x="19.007" y="-8.255" fill="#000" fill-opacity="1" stroke="none" display="inline" font-family="DejaVu Sans" font-stretch="normal" font-style="normal" font-variant="normal" font-weight="normal" xml:space="preserve"><tspan id="tspan3933" x="19.007" y="-8.255" font-family="DejaVu Sans" font-size="18" font-stretch="normal" font-style="normal" font-variant="normal" font-weight="normal" style="line-height:1.25;-inkscape-font-specification:'DejaVu Sans'">apps</tspan></text><text id="icon-name" x="146.488" y="-8.255" fill="#000" fill-opacity="1" stroke="none" display="inline" enable-background="new" font-family="DejaVu Sans" font-stretch="normal" font-style="normal" font-variant="normal" font-weight="bold" text-anchor="start" writing-mode="lr-tb" xml:space="preserve" style="line-height:0%;-inkscape-font-specification:'DejaVu Sans Bold';text-align:start"><tspan id="tspan3937" x="146.488" y="-8.255" font-family="DejaVu Sans" font-size="18" font-stretch="normal" font-style="normal" font-variant="normal" font-weight="bold" style="line-height:1.25;-inkscape-font-specification:'DejaVu Sans Bold'">calendar-app</tspan></text><rect id="rect16x16" width="16" height="16" x="320" y="236" fill="#cdcdcd" fill-opacity="1" fill-rule="nonzero" stroke="none" stroke-width="2" display="inline" enable-background="accumulate" overflow="visible" visibility="visible" style="marker:none"/><rect id="rect24x24" width="24" height="24" x="320" y="188" fill="#cdcdcd" fill-opacity="1" fill-rule="nonzero" stroke="none" stroke-width="2" display="inline" enable-background="accumulate" overflow="visible" visibility="visible" style="marker:none"/><rect id="rect32x32" width="32" height="32" x="320" y="132" fill="#cdcdcd" fill-opacity="1" fill-rule="nonzero" stroke="none" stroke-width="2" display="inline" enable-background="accumulate" overflow="visible" visibility="visible" style="marker:none"/><rect id="rect48x48" width="48" height="48" x="320" y="60" fill="#cdcdcd" fill-opacity="1" fill-rule="nonzero" stroke="none" stroke-width="2" display="inline" enable-background="accumulate" overflow="visible" visibility="visible" style="marker:none"/><rect id="rect3951" width="256" height="256" x="24" y="28" fill="#cdcdcd" fill-opacity="1" fill-rule="nonzero" stroke="none" stroke-width="2" display="inline" enable-background="accumulate" overflow="visible" visibility="visible" style="marker:none"/></g><g id="layer8" display="inline"><path id="path995" fill="#000" fill-opacity="1" fill-rule="nonzero" stroke="none" stroke-dasharray="none" stroke-dashoffset="0" stroke-linecap="butt" stroke-linejoin="miter" stroke-miterlimit="4" stroke-opacity="1" stroke-width="2" d="m 327.24566,189 c -1.28811,0 -2.31744,0.0231 -3.20954,0.14787 -0.8921,0.12479 -1.70209,0.37148 -2.31114,0.87784 -0.60904,0.50637 -0.90937,1.18534 -1.05787,1.92977 -0.14848,0.74444 -0.17251,1.60204 -0.1662,2.67847 v 5.86605 5.86979 c -0.006,1.07433 0.0179,1.93132 0.1662,2.67473 0.14848,0.74444 0.44882,1.4234 1.05787,1.92977 0.60906,0.50636 1.41904,0.75304 2.31114,0.87784 0.8921,0.12479 1.92143,0.14787 3.20954,0.14787 h 9.5096 c 1.2881,0 2.31444,-0.023 3.20505,-0.14787 0.89059,-0.1249 1.70195,-0.37305 2.30889,-0.87972 0.60695,-0.50666 0.9038,-1.18295 1.05337,-1.92602 0.14958,-0.74308 0.17744,-1.60101 0.17744,-2.6766 V 200.5 194.63021 c 0,-1.07559 -0.0278,-1.93352 -0.17744,-2.6766 -0.14957,-0.74307 -0.44642,-1.41936 -1.05337,-1.92602 -0.60694,-0.50667 -1.41828,-0.75482 -2.30889,-0.87972 C 339.06969,189.02297 338.04337,189 336.75526,189 Z" baseline-shift="baseline" clip-rule="nonzero" color="#000" color-interpolation="sRGB" color-interpolation-filters="linearRGB" color-rendering="auto" direction="ltr" display="inline" dominant-baseline="auto" enable-background="accumulate" font-family="sans-serif" font-size="medium" font-stretch="normal" font-style="normal" font-variant="normal" font-weight="normal" image-rendering="auto" letter-spacing="normal" opacity=".1" overflow="visible" shape-rendering="auto" text-anchor="start" text-decoration="none" text-rendering="auto" vector-effect="none" visibility="visible" word-spacing="normal" writing-mode="lr-tb" style="line-height:normal;font-variant-ligatures:normal;font-variant-position:normal;font-variant-caps:normal;font-variant-numeric:normal;font-variant-alternates:normal;font-feature-settings:normal;text-indent:0;text-align:start;text-decoration-line:none;text-decoration-style:solid;text-decoration-color:#000;text-transform:none;text-orientation:mixed;white-space:normal;shape-padding:0;isolation:auto;mix-blend-mode:normal;solid-color:#000;solid-opacity:1;marker:none"/><path id="path997" fill="#000" fill-opacity="1" fill-rule="nonzero" stroke="none" stroke-dasharray="none" stroke-dashoffset="0" stroke-linecap="butt" stroke-linejoin="miter" stroke-miterlimit="4" stroke-opacity="1" stroke-width="2" d="m 324.68125,237 c -0.82173,0 -1.48777,0.0139 -2.09812,0.10352 -0.61037,0.0897 -1.22087,0.27628 -1.68744,0.68359 -0.46657,0.4073 -0.68177,0.94323 -0.78345,1.47851 -0.10171,0.53529 -0.11564,1.12048 -0.11165,1.8418 V 244 v 3.89844 c -0.003,0.71816 0.0103,1.30235 0.11165,1.83594 0.10171,0.53528 0.31687,1.07121 0.78345,1.47851 0.46657,0.40731 1.07707,0.59394 1.68744,0.68359 0.61035,0.0897 1.27639,0.10352 2.09812,0.10352 h 6.63813 c 0.82173,0 1.48632,-0.0137 2.0959,-0.10352 0.60958,-0.0898 1.22015,-0.27792 1.6852,-0.68554 0.46504,-0.40762 0.67887,-0.94271 0.78121,-1.47656 C 335.98409,249.20052 336,248.61887 336,247.89844 V 244 241.10156 c 0,-0.72043 -0.016,-1.30208 -0.11831,-1.83594 -0.10228,-0.53385 -0.31617,-1.06894 -0.78121,-1.47656 -0.46505,-0.40762 -1.07562,-0.59578 -1.6852,-0.68554 C 332.8057,237.01375 332.14111,237 331.31938,237 Z" baseline-shift="baseline" clip-rule="nonzero" color="#000" color-interpolation="sRGB" color-interpolation-filters="linearRGB" color-rendering="auto" direction="ltr" display="inline" dominant-baseline="auto" enable-background="accumulate" font-family="sans-serif" font-size="medium" font-stretch="normal" font-style="normal" font-variant="normal" font-weight="normal" image-rendering="auto" letter-spacing="normal" opacity=".1" overflow="visible" shape-rendering="auto" text-anchor="start" text-decoration="none" text-rendering="auto" vector-effect="none" visibility="visible" word-spacing="normal" writing-mode="lr-tb" style="line-height:normal;font-variant-ligatures:normal;font-variant-position:normal;font-variant-caps:normal;font-variant-numeric:normal;font-variant-alternates:normal;font-feature-settings:normal;text-indent:0;text-align:start;text-decoration-line:none;text-decoration-style:solid;text-decoration-color:#000;text-transform:none;text-orientation:mixed;white-space:normal;shape-padding:0;isolation:auto;mix-blend-mode:normal;solid-color:#000;solid-opacity:1;marker:none"/><path id="path999" fill="#000" fill-opacity="1" fill-rule="nonzero" stroke="none" stroke-dasharray="none" stroke-dashoffset="0" stroke-linecap="butt" stroke-linejoin="miter" stroke-miterlimit="4" stroke-opacity="1" stroke-width="2" d="m 329.07753,134 c -1.69415,0 -3.03886,0.0308 -4.1799,0.19141 -1.14103,0.16064 -2.13588,0.4726 -2.87586,1.09179 -0.73998,0.61919 -1.11652,1.45612 -1.30636,2.41407 -0.18986,0.95795 -0.22255,2.08705 -0.21424,3.51171 V 149 v 7.79688 c -0.009,1.42131 0.0247,2.5495 0.21424,3.50585 0.18984,0.95796 0.56638,1.79488 1.30636,2.41407 0.73998,0.61919 1.73483,0.93115 2.87586,1.09179 1.14104,0.16065 2.48575,0.19141 4.1799,0.19141 h 13.8484 c 1.69415,0 3.03631,-0.0307 4.17524,-0.19141 1.13893,-0.16075 2.13151,-0.47425 2.86888,-1.09375 0.73736,-0.6195 1.1104,-1.45363 1.30169,-2.41015 0.19132,-0.95653 0.22822,-2.08403 0.22822,-3.50781 V 149 141.20312 c 0,-1.42378 -0.037,-2.55128 -0.22822,-3.50781 -0.19129,-0.95653 -0.56433,-1.79065 -1.30169,-2.41015 -0.73737,-0.61951 -1.72995,-0.933 -2.86888,-1.09375 C 345.96224,134.03065 344.62008,134 342.92593,134 Z" baseline-shift="baseline" clip-rule="nonzero" color="#000" color-interpolation="sRGB" color-interpolation-filters="linearRGB" color-rendering="auto" direction="ltr" display="inline" dominant-baseline="auto" enable-background="accumulate" font-family="sans-serif" font-size="medium" font-stretch="normal" font-style="normal" font-variant="normal" font-weight="normal" image-rendering="auto" letter-spacing="normal" opacity=".1" overflow="visible" shape-rendering="auto" text-anchor="start" text-decoration="none" text-rendering="auto" vector-effect="none" visibility="visible" word-spacing="normal" writing-mode="lr-tb" style="line-height:normal;font-variant-ligatures:normal;font-variant-position:normal;font-variant-caps:normal;font-variant-numeric:normal;font-variant-alternates:normal;font-feature-settings:normal;text-indent:0;text-align:start;text-decoration-line:none;text-decoration-style:solid;text-decoration-color:#000;text-transform:none;text-orientation:mixed;white-space:normal;shape-padding:0;isolation:auto;mix-blend-mode:normal;solid-color:#000;solid-opacity:1;marker:none"/><path id="path1020" fill="#000" fill-opacity="1" fill-rule="nonzero" stroke="none" stroke-dasharray="none" stroke-dashoffset="0" stroke-linecap="butt" stroke-linejoin="miter" stroke-miterlimit="4" stroke-opacity="1" stroke-width="2" d="m 333.43292,61.500047 c -2.6791,0 -4.78864,0.05118 -6.52443,0.292969 -1.7358,0.241784 -3.15619,0.695299 -4.19664,1.55664 -1.04044,0.861342 -1.58959,2.039471 -1.87824,3.480469 -0.28866,1.440999 -0.34501,3.195341 -0.33188,5.423828 V 85 97.752143 c -0.013,2.225063 0.0435,3.978517 0.33188,5.417967 0.28865,1.441 0.8378,2.61913 1.87824,3.48047 1.04045,0.86134 2.46084,1.31486 4.19664,1.55664 1.73581,0.24179 3.84533,0.29297 6.52443,0.29297 h 21.13588 c 2.67913,0 4.78754,-0.0511 6.51976,-0.29297 1.73219,-0.24189 3.14824,-0.69694 4.18485,-1.55859 1.03662,-0.86165 1.58252,-2.03894 1.87353,-3.47852 0.29102,-1.43957 0.35305,-3.190353 0.35305,-5.417967 V 85 72.248094 c 0,-2.227614 -0.0621,-3.978392 -0.35305,-5.417969 -0.29101,-1.439576 -0.83692,-2.616863 -1.87354,-3.478516 -1.03661,-0.861652 -2.45266,-1.316704 -4.18486,-1.558593 -1.7322,-0.24189 -3.84063,-0.292969 -6.51974,-0.292969 z" baseline-shift="baseline" clip-rule="nonzero" color="#000" color-interpolation="sRGB" color-interpolation-filters="linearRGB" color-rendering="auto" direction="ltr" display="inline" dominant-baseline="auto" enable-background="accumulate" font-family="sans-serif" font-size="medium" font-stretch="normal" font-style="normal" font-variant="normal" font-weight="normal" image-rendering="auto" letter-spacing="normal" opacity=".1" overflow="visible" shape-rendering="auto" text-anchor="start" text-decoration="none" text-rendering="auto" vector-effect="none" visibility="visible" word-spacing="normal" writing-mode="lr-tb" style="line-height:normal;font-variant-ligatures:normal;font-variant-position:normal;font-variant-caps:normal;font-variant-numeric:normal;font-variant-alternates:normal;font-feature-settings:normal;text-indent:0;text-align:start;text-decoration-line:none;text-decoration-style:solid;text-decoration-color:#000;text-transform:none;text-orientation:mixed;white-space:normal;shape-padding:0;isolation:auto;mix-blend-mode:normal;solid-color:#000;solid-opacity:1;marker:none"/><path id="rect4158-9" fill="#000" fill-opacity="1" fill-rule="nonzero" stroke="none" stroke-width="2" d="M 141.84323,74 C 71.24979,74 63.65402,81.250835 64,151.98706 V 298 444.01294 C 63.65402,514.74917 71.24979,522 141.84323,522 H 434.15677 C 504.75021,522 513.9371,514.72348 512,444.01294 V 298 151.98706 C 512,81.249993 504.75021,74 434.15677,74 Z" color="#000" display="inline" enable-background="accumulate" filter="url(#filter4346)" opacity=".1" overflow="visible" transform="matrix(0.5,0,0,0.5,8,7.9996982)" visibility="visible" style="marker:none"/><path id="path4350" fill="url(#linearGradient4358)" fill-opacity="1" fill-rule="nonzero" stroke="none" stroke-width="2" d="M 141.84323,74 C 71.24979,74 63.65402,81.250835 64,151.98706 V 298 444.01294 C 63.65402,514.74917 71.24979,522 141.84323,522 H 434.15677 C 504.75021,522 513.9371,514.72348 512,444.01294 V 298 151.98706 C 512,81.249993 504.75021,74 434.15677,74 Z" color="#000" display="inline" enable-background="accumulate" filter="url(#filter4380)" opacity=".3" overflow="visible" transform="matrix(0.5,0,0,0.5,8,8)" visibility="visible" style="marker:none"/><path id="rect4158-7" fill="#000" fill-opacity="1" fill-rule="nonzero" stroke="none" stroke-width="1.02" d="m 77.8116,41.999698 c -36.098811,0 -39.983003,3.69016 -39.806081,39.68984 v 74.310162 74.31016 c -0.176922,35.99969 3.70727,39.68984 39.806081,39.68984 h 148.38732 c 36.09881,0 40.77464,-3.70276 39.80608,-39.68984 V 155.9997 81.689538 c 0,-36.00011 -3.70727,-39.68984 -39.80608,-39.68984 z" color="#000" display="inline" enable-background="accumulate" opacity=".1" overflow="visible" visibility="visible" style="marker:none"/><path id="path964" fill="url(#linearGradient1686)" fill-opacity="1" fill-rule="nonzero" stroke="none" stroke-width="1" d="m 354.66489,61.50005 c 10.01116,0 11.88667,0.90635 11.83407,9.74838 V 84 96.75181 c 0.0527,8.84203 -1.82291,9.74838 -11.83407,9.74838 h -21.3308 c -10.00866,0 -11.83405,-0.90625 -11.83405,-9.74838 V 84 71.24843 c 0,-8.84213 1.82539,-9.74838 11.83406,-9.74838 z" color="#000" display="inline" enable-background="accumulate" overflow="visible" visibility="visible" style="marker:none"/><path id="rect4158" fill="url(#linearGradient1694)" fill-opacity="1" fill-rule="nonzero" stroke="none" stroke-width="1" d="m 78.921622,43.999696 c -35.29673,0 -39.09461,3.62542 -38.92162,38.99353 v 73.006474 73.00647 c -0.17299,35.36812 3.62489,38.99353 38.92162,38.99353 H 225.07838 c 35.29671,0 38.92161,-3.625 38.92161,-38.99353 V 155.9997 82.993226 c 0,-35.36853 -3.6249,-38.99353 -38.92161,-38.99353 z" color="#000" display="inline" enable-background="accumulate" overflow="visible" visibility="visible" style="marker:none"/><path id="path914" fill="url(#linearGradient1690)" fill-opacity="1" fill-rule="nonzero" stroke="none" stroke-width="1" d="m 336.82209,189.49897 c 5.14666,0 5.70043,0.43262 5.67521,4.65309 v 5.84793 5.84794 c 0.0253,4.22046 -0.52855,4.65308 -5.67521,4.65308 h -9.6464 c -5.14665,0 -5.67521,-0.43256 -5.67521,-4.65308 v -5.84794 -5.84793 c 0,-4.22051 0.52857,-4.65309 5.67522,-4.65309 z" color="#000" display="inline" enable-background="accumulate" overflow="visible" visibility="visible" style="marker:none"/><path id="path918" fill="url(#linearGradient1692)" fill-opacity="1" fill-rule="nonzero" stroke="none" stroke-width="1" d="m 331.59504,236.50001 c 3.47604,0 3.85006,0.30899 3.83302,3.32331 v 4.17669 4.17668 c 0.017,3.01433 -0.35698,3.32332 -3.83302,3.32332 h -7.18996 c -3.47605,0 -3.83303,-0.30895 -3.83303,-3.32332 v -4.17668 -4.17669 c 0,-3.01436 0.35699,-3.32331 3.83303,-3.32331 z" color="#000" display="inline" enable-background="accumulate" overflow="visible" visibility="visible" style="marker:none"/><path id="path964-7" fill="url(#linearGradient1688)" fill-opacity="1" fill-rule="nonzero" stroke="none" stroke-width="1" d="m 342.87293,133.5 c 6.45163,0 7.6603,0.58409 7.62639,6.28227 v 8.21765 8.21781 c 0.034,5.69818 -1.17476,6.28227 -7.62639,6.28227 h -13.74651 c -6.45003,0 -7.62639,-0.58403 -7.62639,-6.28227 v -8.21781 -8.21765 c 0,-5.69824 1.17636,-6.28227 7.62639,-6.28227 z" color="#000" display="inline" enable-background="accumulate" overflow="visible" visibility="visible" style="marker:none"/></g><g id="layer6" display="inline"><path id="path21959" fill="url(#linearGradient21963)" fill-opacity="1" fill-rule="nonzero" stroke="none" stroke-dasharray="none" stroke-dashoffset="0" stroke-linecap="butt" stroke-linejoin="miter" stroke-miterlimit="4" stroke-opacity="1" stroke-width="48" d="m 16,210 v 96 h 16 v -96 z" color="#000" display="inline" enable-background="accumulate" filter="url(#filter4277)" opacity=".4" overflow="visible" transform="matrix(0.5,0,0,0.5,32,28.000006)" visibility="visible" style="marker:none"/><path id="path4258" fill="url(#linearGradient4268)" fill-opacity="1" fill-rule="nonzero" stroke="none" stroke-dasharray="none" stroke-dashoffset="0" stroke-linecap="butt" stroke-linejoin="miter" stroke-miterlimit="4" stroke-opacity="1" stroke-width="48" d="m 480,210 v 96 h 16 v -96 z" color="#000" display="inline" enable-background="accumulate" filter="url(#filter4277)" opacity=".4" overflow="visible" transform="matrix(0.5,0,0,0.5,16,28.000006)" visibility="visible" style="marker:none"/><path id="path21955" fill="#000" fill-opacity="1" fill-rule="nonzero" stroke="none" stroke-dasharray="none" stroke-dashoffset="0" stroke-linecap="butt" stroke-linejoin="miter" stroke-miterlimit="4" stroke-opacity="1" stroke-width="48" d="m 16,210 v 96 h 16 v -96 z" color="#000" display="inline" enable-background="accumulate" filter="url(#filter967)" opacity=".1" overflow="visible" transform="matrix(0.5,0,0,0.5,32,28.000006)" visibility="visible" style="marker:none"/><path id="path965" fill="#000" fill-opacity="1" fill-rule="nonzero" stroke="none" stroke-dasharray="none" stroke-dashoffset="0" stroke-linecap="butt" stroke-linejoin="miter" stroke-miterlimit="4" stroke-opacity="1" stroke-width="48" d="m 480,210 v 96 h 16 v -96 z" color="#000" display="inline" enable-background="accumulate" filter="url(#filter967)" opacity=".1" overflow="visible" transform="matrix(0.5,0,0,0.5,16,28.000006)" visibility="visible" style="marker:none"/><path id="path21951" fill="url(#linearGradient21961)" fill-opacity="1" fill-rule="nonzero" stroke="none" stroke-dasharray="none" stroke-dashoffset="0" stroke-linecap="butt" stroke-linejoin="miter" stroke-miterlimit="4" stroke-opacity="1" stroke-width="24" d="M 40,132.00001 V 180 h 8 v -47.99999 z" color="#000" display="inline" enable-background="accumulate" opacity="1" overflow="visible" visibility="visible" style="marker:none"/><path id="rect4243" fill="url(#linearGradient4251)" fill-opacity="1" fill-rule="nonzero" stroke="none" stroke-dasharray="none" stroke-dashoffset="0" stroke-linecap="butt" stroke-linejoin="miter" stroke-miterlimit="4" stroke-opacity="1" stroke-width="24" d="M 256,132.00001 V 180 h 8 v -47.99999 z" color="#000" display="inline" enable-background="accumulate" opacity="1" overflow="visible" visibility="visible" style="marker:none"/><path id="path21947" fill="#fff" fill-opacity="1" fill-rule="nonzero" stroke="none" stroke-dasharray="none" stroke-dashoffset="0" stroke-linecap="butt" stroke-linejoin="miter" stroke-miterlimit="4" stroke-opacity="1" stroke-width="24" d="m 40,132.00001 v 1 h 8 v -1 z" color="#000" display="inline" enable-background="accumulate" opacity="1" overflow="visible" visibility="visible" style="marker:none"/><path id="path4344" fill="#fff" fill-opacity="1" fill-rule="nonzero" stroke="none" stroke-dasharray="none" stroke-dashoffset="0" stroke-linecap="butt" stroke-linejoin="miter" stroke-miterlimit="4" stroke-opacity="1" stroke-width="24" d="m 256,132.00001 v 1 h 8 v -1 z" color="#000" display="inline" enable-background="accumulate" opacity="1" overflow="visible" visibility="visible" style="marker:none"/><path id="text926" fill="#f9f9f9" fill-opacity="1" stroke="none" stroke-linecap="butt" stroke-linejoin="miter" stroke-opacity="1" stroke-width="3.734" d="m 111.4375,156.00001 c -1.56471,1.54321 -3.10185,3.06848 -4.80664,4.70508 -2.98755,2.88796 -6.1258,5.87575 -9.41211,8.96289 -3.18672,3.08714 -6.1237,6.42274 -8.8125,10.0078 -2.58921,3.58506 -4.73088,7.41897 -6.42383,11.50195 -1.69294,3.98341 -2.53906,8.3156 -2.53906,12.9961 v 2.53906 c 0.0996,0.49793 0.14844,0.84771 0.14844,1.04688 h 59.60351 v -8.51563 H 90.34766 v -0.29883 c 0,-2.39004 0.54714,-4.77988 1.64257,-7.16992 1.19503,-2.48963 2.73875,-4.97912 4.63086,-7.46875 1.99171,-2.58921 4.18418,-5.12756 6.57422,-7.61719 2.48963,-2.58921 5.02798,-5.1295 7.61719,-7.61913 3.08714,-2.98755 6.12378,-5.97534 9.11133,-8.96289 1.34823,-1.34823 2.616,-2.71863 3.82226,-4.10742 z m 65.05469,0 c -1.28646,0.84619 -2.54527,1.762 -3.76953,2.76367 -2.09129,1.69295 -3.98284,3.68415 -5.67578,5.97461 -1.59337,2.19087 -2.88892,4.73118 -3.88477,7.61914 -0.99585,2.78837 -1.49414,5.92467 -1.49414,9.41015 0,4.08299 0.74841,7.86804 2.24219,11.35351 1.59336,3.3859 3.78388,6.37173 6.57226,8.96094 2.88797,2.48963 6.27439,4.43198 10.1582,5.82617 3.98341,1.39419 8.41331,2.0918 13.29297,2.0918 4.87967,0 9.31152,-0.74646 13.29493,-2.24023 3.9834,-1.3942 7.36982,-3.33655 10.1582,-5.82618 2.78838,-2.58921 4.93005,-5.67665 6.42383,-9.26171 1.59336,-3.58507 2.38867,-7.51863 2.38867,-11.80079 0,-4.97925 -1.44407,-9.71006 -4.33203,-14.19139 -2.63061,-4.22777 -7.14674,-7.78144 -13.5,-10.67969 z m 11.46679,1.56836 c 3.3859,1.09544 6.72151,2.14087 10.00782,3.13672 3.38589,0.99585 6.37368,2.34026 8.96289,4.0332 2.68879,1.69295 4.83046,3.88347 6.42383,6.57227 1.69294,2.68879 2.53906,6.17486 2.53906,10.45702 0,2.78838 -0.44749,5.37753 -1.34375,7.76758 -0.89627,2.39004 -2.29148,4.4809 -4.1836,6.27343 -1.79253,1.79253 -4.08271,3.2366 -6.87109,4.33203 -2.6888,0.99586 -5.8759,1.49415 -9.56055,1.49415 -3.68464,0 -6.9206,-0.49829 -9.70898,-1.49415 -2.6888,-1.09543 -4.97898,-2.5395 -6.87109,-4.33203 -1.79254,-1.79253 -3.13694,-3.88339 -4.03321,-6.27343 -0.89626,-2.39005 -1.34375,-4.9792 -1.34375,-7.76758 0,-5.67635 1.39326,-10.50682 4.18164,-14.49023 2.78838,-4.08298 6.72195,-7.31894 11.80078,-9.70898 z" display="inline" enable-background="new" font-family="sans-serif" font-size="149.378" font-style="normal" font-weight="normal" letter-spacing="0" word-spacing="0" style="line-height:1000%"/><g id="g905" stroke-width="5.38" display="inline" transform="matrix(0.185862,0,0,0.185862,315.74889,55.005534)"><path id="path901" fill="#ececec" fill-opacity="1" stroke="none" stroke-linecap="butt" stroke-linejoin="miter" stroke-opacity="1" stroke-width="2.69" d="m 105.25195,102.40039 c -3.55359,0 -6.859884,0.44363 -9.919919,1.33203 -3.060035,0.8884 -5.825193,1.97457 -8.292969,3.25781 -2.46777,1.28324 -4.590392,2.66388 -6.367187,4.14454 -1.776795,1.38195 -3.107699,2.56757 -3.996094,3.55468 l 6.808594,9.77149 c 0.69098,-0.59227 1.679646,-1.43176 2.962891,-2.51758 1.28324,-1.18452 2.862776,-2.26875 4.738281,-3.25586 1.87551,-1.08582 3.998127,-2.02282 6.367187,-2.8125 2.36906,-0.78969 4.983096,-1.18555 7.845706,-1.18555 2.36906,0 4.59113,0.34613 6.66406,1.03711 2.17164,0.59226 4.04758,1.57899 5.62695,2.96094 1.57937,1.38195 2.81278,3.10871 3.70117,5.18164 0.98712,2.07293 1.48047,4.5914 1.48047,7.55274 0,2.7639 -0.54308,5.37988 -1.6289,7.84765 -0.98711,2.46777 -2.36774,4.88485 -4.14453,7.25391 -1.67809,2.27035 -3.65349,4.58992 -5.92383,6.95898 -0.79382,0.8299 -1.62953,1.67434 -2.46289,2.51758 h 17.0664 c 1.37929,-1.62871 2.68265,-3.25589 3.9043,-4.88477 2.36907,-3.25746 4.24499,-6.51597 5.62695,-9.77343 1.48066,-3.35617 2.22266,-6.81165 2.22266,-10.36524 0,-9.0814 -2.71543,-16.08985 -8.14453,-21.02539 -5.33039,-5.03426 -13.37528,-7.55078 -24.13477,-7.55078 z m 88.46094,0 c -4.73812,0 -9.03114,0.78977 -12.88086,2.36914 -3.84972,1.48066 -7.15602,3.50383 -9.91992,6.07031 -2.6652,2.56648 -4.73809,5.57637 -6.21875,9.03125 -1.48066,3.35617 -2.2207,6.90915 -2.2207,10.66016 0,10.75949 4.8361,18.90383 14.50976,24.43164 -0.54317,0.33063 -1.07948,0.67827 -1.61133,1.03711 H 212.375 c -0.90352,-0.51362 -1.83287,-1.01278 -2.81836,-1.48047 1.97422,-1.28324 3.85016,-2.76332 5.62695,-4.44141 1.87551,-1.67808 3.50477,-3.60375 4.88672,-5.77539 1.48066,-2.17163 2.61462,-4.49121 3.4043,-6.95898 0.8884,-2.56649 1.33398,-5.28191 1.33398,-8.14453 0,-2.96132 -0.59281,-6.02094 -1.77734,-9.17969 -1.08582,-3.15874 -2.91204,-6.0214 -5.47852,-8.58789 -2.46778,-2.66519 -5.67656,-4.83753 -9.625,-6.51562 -3.94843,-1.67808 -8.68702,-2.51563 -14.21484,-2.51563 z m 0,11.40039 c 3.15875,0 5.82445,0.54309 7.99609,1.62891 2.17164,0.98711 3.95009,2.27024 5.33204,3.84961 1.38195,1.48066 2.36867,3.10992 2.96093,4.88672 0.69098,1.77679 1.03711,3.40605 1.03711,4.88671 0,5.33038 -1.23535,9.67313 -3.70312,13.0293 -2.46777,3.25746 -5.77407,6.12012 -9.91992,8.58789 -3.75102,-0.8884 -7.00759,-2.07403 -9.77149,-3.55469 -2.6652,-1.48066 -4.83753,-3.15769 -6.51562,-5.0332 -1.67808,-1.87551 -2.91149,-3.90062 -3.70118,-6.07226 -0.78969,-2.17164 -1.18554,-4.34204 -1.18554,-6.51368 0,-1.77679 0.29641,-3.55328 0.88867,-5.33007 0.69098,-1.87551 1.72741,-3.55449 3.10937,-5.03516 1.38194,-1.57937 3.15845,-2.8625 5.33008,-3.84961 2.27035,-0.98711 4.98384,-1.48047 8.14258,-1.48047 z" display="inline" enable-background="new" font-family="Ubuntu" font-size="296.133" font-stretch="normal" font-style="normal" font-variant="normal" font-weight="normal" letter-spacing="0" text-anchor="start" word-spacing="0" writing-mode="lr-tb" style="line-height:1.25;-inkscape-font-specification:'Ubuntu, Normal';text-align:start"/><path id="path903" fill="#f9f9f9" fill-opacity="1" stroke="none" stroke-linecap="butt" stroke-linejoin="miter" stroke-opacity="1" stroke-width="2.69" d="m 108.7207,156 c -1.44476,1.46177 -2.94216,2.94123 -4.50586,4.44238 -2.96132,2.96133 -5.972185,6.02094 -9.032225,9.17969 -3.060035,3.15875 -5.82324,6.51477 -8.291015,10.06836 -2.46777,3.55359 -4.49191,7.35423 -6.07129,11.40137 -1.48066,3.94844 -2.2207,8.24243 -2.2207,12.88184 v 1.6289 c 0,0.59227 0.0497,1.1841 0.148435,1.77637 H 140.93554 V 195.68164 H 93.70215 c 0,-1.67809 0.64156,-3.6525 1.924805,-5.92285 1.38195,-2.27035 3.05996,-4.63868 5.034185,-7.10645 1.97421,-2.46777 4.04711,-4.83707 6.21875,-7.10742 l 5.92285,-5.92285 c 2.96132,-2.96133 5.92246,-5.97219 8.88379,-9.03223 1.43424,-1.52986 2.79538,-3.06014 4.09082,-4.58984 z m 66.65039,0 c -1.69141,1.14114 -3.32612,2.42262 -4.90332,3.84961 -1.97422,1.77679 -3.7507,3.80094 -5.33008,6.07129 -1.48066,2.27035 -2.71504,4.73813 -3.70215,7.40332 -0.88839,2.56648 -1.33203,5.28094 -1.33203,8.14356 0,2.96132 0.54211,6.11941 1.62793,9.47558 1.08582,3.25746 2.91204,6.26833 5.47852,9.03223 2.56648,2.7639 5.97223,5.08348 10.2168,6.95898 4.34327,1.7768 9.72344,2.66504 16.13964,2.66504 5.52781,0 10.41364,-0.74004 14.65821,-2.2207 4.24456,-1.38195 7.74879,-3.35637 10.51269,-5.92285 2.86262,-2.6652 4.98524,-5.72481 6.36719,-9.17969 1.48066,-3.55359 2.2207,-7.40297 2.2207,-11.54883 C 227.14454,169.79807 222.16687,161.55701 212.39844,156 Z m 12.56836,3.40527 c 3.94843,0.8884 7.45266,1.97457 10.5127,3.25781 3.15875,1.18453 5.82446,2.66461 7.99609,4.44141 2.27035,1.77679 3.99712,3.85067 5.18165,6.21973 1.18453,2.36906 1.77734,5.13227 1.77734,8.29101 0,2.07293 -0.39488,4.09707 -1.18457,6.07129 -0.78969,1.97422 -1.97434,3.75071 -3.55371,5.33008 -1.57938,1.48066 -3.65227,2.71406 -6.21875,3.70117 -2.46777,0.98711 -5.38016,1.48145 -8.73633,1.48145 -3.75101,0 -6.86036,-0.54309 -9.32813,-1.62891 -2.46777,-1.08581 -4.49093,-2.41867 -6.07031,-3.99804 -1.57937,-1.67809 -2.71429,-3.45458 -3.40527,-5.33008 -0.59226,-1.97422 -0.88867,-3.85016 -0.88867,-5.62695 0,-5.03426 1.18465,-9.377 3.55371,-13.0293 2.46777,-3.6523 5.92227,-6.71289 10.36425,-9.18067 z" display="inline" enable-background="new" font-family="Ubuntu" font-size="medium" font-stretch="normal" font-style="normal" font-variant="normal" font-weight="normal" letter-spacing="0" text-anchor="start" word-spacing="0" writing-mode="lr-tb" style="line-height:125%;-inkscape-font-specification:'Ubuntu, Normal';text-align:start"/></g><g id="g917" stroke-width="8.369" display="inline" transform="matrix(0.11948271,0,0,0.11948271,317.83857,129.36071)"><path id="path913" fill="#ececec" fill-opacity="1" stroke="none" stroke-linecap="butt" stroke-linejoin="miter" stroke-opacity="1" stroke-width="4.185" d="m 105.25195,102.40039 c -3.55359,0 -6.859884,0.44363 -9.919919,1.33203 -3.060035,0.8884 -5.825193,1.97457 -8.292969,3.25781 -2.46777,1.28324 -4.590392,2.66388 -6.367187,4.14454 -1.776795,1.38195 -3.107699,2.56757 -3.996094,3.55468 l 6.808594,9.77149 c 0.69098,-0.59227 1.679646,-1.43176 2.962891,-2.51758 1.28324,-1.18452 2.862776,-2.26875 4.738281,-3.25586 1.87551,-1.08582 3.998127,-2.02282 6.367187,-2.8125 2.36906,-0.78969 4.983096,-1.18555 7.845706,-1.18555 2.36906,0 4.59113,0.34613 6.66406,1.03711 2.17164,0.59226 4.04758,1.57899 5.62695,2.96094 1.57937,1.38195 2.81278,3.10871 3.70117,5.18164 0.98712,2.07293 1.48047,4.5914 1.48047,7.55274 0,2.7639 -0.54308,5.37988 -1.6289,7.84765 -0.98711,2.46777 -2.36774,4.88485 -4.14453,7.25391 -1.67809,2.27035 -3.65349,4.58992 -5.92383,6.95898 -0.79382,0.8299 -1.62953,1.67434 -2.46289,2.51758 h 17.0664 c 1.37929,-1.62871 2.68265,-3.25589 3.9043,-4.88477 2.36907,-3.25746 4.24499,-6.51597 5.62695,-9.77343 1.48066,-3.35617 2.22266,-6.81165 2.22266,-10.36524 0,-9.0814 -2.71543,-16.08985 -8.14453,-21.02539 -5.33039,-5.03426 -13.37528,-7.55078 -24.13477,-7.55078 z m 88.46094,0 c -4.73812,0 -9.03114,0.78977 -12.88086,2.36914 -3.84972,1.48066 -7.15602,3.50383 -9.91992,6.07031 -2.6652,2.56648 -4.73809,5.57637 -6.21875,9.03125 -1.48066,3.35617 -2.2207,6.90915 -2.2207,10.66016 0,10.75949 4.8361,18.90383 14.50976,24.43164 -0.54317,0.33063 -1.07948,0.67827 -1.61133,1.03711 H 212.375 c -0.90352,-0.51362 -1.83287,-1.01278 -2.81836,-1.48047 1.97422,-1.28324 3.85016,-2.76332 5.62695,-4.44141 1.87551,-1.67808 3.50477,-3.60375 4.88672,-5.77539 1.48066,-2.17163 2.61462,-4.49121 3.4043,-6.95898 0.8884,-2.56649 1.33398,-5.28191 1.33398,-8.14453 0,-2.96132 -0.59281,-6.02094 -1.77734,-9.17969 -1.08582,-3.15874 -2.91204,-6.0214 -5.47852,-8.58789 -2.46778,-2.66519 -5.67656,-4.83753 -9.625,-6.51562 -3.94843,-1.67808 -8.68702,-2.51563 -14.21484,-2.51563 z m 0,11.40039 c 3.15875,0 5.82445,0.54309 7.99609,1.62891 2.17164,0.98711 3.95009,2.27024 5.33204,3.84961 1.38195,1.48066 2.36867,3.10992 2.96093,4.88672 0.69098,1.77679 1.03711,3.40605 1.03711,4.88671 0,5.33038 -1.23535,9.67313 -3.70312,13.0293 -2.46777,3.25746 -5.77407,6.12012 -9.91992,8.58789 -3.75102,-0.8884 -7.00759,-2.07403 -9.77149,-3.55469 -2.6652,-1.48066 -4.83753,-3.15769 -6.51562,-5.0332 -1.67808,-1.87551 -2.91149,-3.90062 -3.70118,-6.07226 -0.78969,-2.17164 -1.18554,-4.34204 -1.18554,-6.51368 0,-1.77679 0.29641,-3.55328 0.88867,-5.33007 0.69098,-1.87551 1.72741,-3.55449 3.10937,-5.03516 1.38194,-1.57937 3.15845,-2.8625 5.33008,-3.84961 2.27035,-0.98711 4.98384,-1.48047 8.14258,-1.48047 z" display="inline" enable-background="new" font-family="Ubuntu" font-size="296.133" font-stretch="normal" font-style="normal" font-variant="normal" font-weight="normal" letter-spacing="0" text-anchor="start" word-spacing="0" writing-mode="lr-tb" style="line-height:1.25;-inkscape-font-specification:'Ubuntu, Normal';text-align:start"/><path id="path915" fill="#f9f9f9" fill-opacity="1" stroke="none" stroke-linecap="butt" stroke-linejoin="miter" stroke-opacity="1" stroke-width="4.185" d="m 108.7207,156 c -1.44476,1.46177 -2.94216,2.94123 -4.50586,4.44238 -2.96132,2.96133 -5.972185,6.02094 -9.032225,9.17969 -3.060035,3.15875 -5.82324,6.51477 -8.291015,10.06836 -2.46777,3.55359 -4.49191,7.35423 -6.07129,11.40137 -1.48066,3.94844 -2.2207,8.24243 -2.2207,12.88184 v 1.6289 c 0,0.59227 0.0497,1.1841 0.148435,1.77637 H 140.93554 V 195.68164 H 93.70215 c 0,-1.67809 0.64156,-3.6525 1.924805,-5.92285 1.38195,-2.27035 3.05996,-4.63868 5.034185,-7.10645 1.97421,-2.46777 4.04711,-4.83707 6.21875,-7.10742 l 5.92285,-5.92285 c 2.96132,-2.96133 5.92246,-5.97219 8.88379,-9.03223 1.43424,-1.52986 2.79538,-3.06014 4.09082,-4.58984 z m 66.65039,0 c -1.69141,1.14114 -3.32612,2.42262 -4.90332,3.84961 -1.97422,1.77679 -3.7507,3.80094 -5.33008,6.07129 -1.48066,2.27035 -2.71504,4.73813 -3.70215,7.40332 -0.88839,2.56648 -1.33203,5.28094 -1.33203,8.14356 0,2.96132 0.54211,6.11941 1.62793,9.47558 1.08582,3.25746 2.91204,6.26833 5.47852,9.03223 2.56648,2.7639 5.97223,5.08348 10.2168,6.95898 4.34327,1.7768 9.72344,2.66504 16.13964,2.66504 5.52781,0 10.41364,-0.74004 14.65821,-2.2207 4.24456,-1.38195 7.74879,-3.35637 10.51269,-5.92285 2.86262,-2.6652 4.98524,-5.72481 6.36719,-9.17969 1.48066,-3.55359 2.2207,-7.40297 2.2207,-11.54883 C 227.14454,169.79807 222.16687,161.55701 212.39844,156 Z m 12.56836,3.40527 c 3.94843,0.8884 7.45266,1.97457 10.5127,3.25781 3.15875,1.18453 5.82446,2.66461 7.99609,4.44141 2.27035,1.77679 3.99712,3.85067 5.18165,6.21973 1.18453,2.36906 1.77734,5.13227 1.77734,8.29101 0,2.07293 -0.39488,4.09707 -1.18457,6.07129 -0.78969,1.97422 -1.97434,3.75071 -3.55371,5.33008 -1.57938,1.48066 -3.65227,2.71406 -6.21875,3.70117 -2.46777,0.98711 -5.38016,1.48145 -8.73633,1.48145 -3.75101,0 -6.86036,-0.54309 -9.32813,-1.62891 -2.46777,-1.08581 -4.49093,-2.41867 -6.07031,-3.99804 -1.57937,-1.67809 -2.71429,-3.45458 -3.40527,-5.33008 -0.59226,-1.97422 -0.88867,-3.85016 -0.88867,-5.62695 0,-5.03426 1.18465,-9.377 3.55371,-13.0293 2.46777,-3.6523 5.92227,-6.71289 10.36425,-9.18067 z" display="inline" enable-background="new" font-family="Ubuntu" font-size="medium" font-stretch="normal" font-style="normal" font-variant="normal" font-weight="normal" letter-spacing="0" text-anchor="start" word-spacing="0" writing-mode="lr-tb" style="line-height:125%;-inkscape-font-specification:'Ubuntu, Normal';text-align:start"/></g><g id="g923" stroke-width="10.761" display="inline" transform="matrix(0.092931,0,0,0.092931,317.87444,185.50291)"><path id="path919" fill="#ececec" fill-opacity="1" stroke="none" stroke-linecap="butt" stroke-linejoin="miter" stroke-opacity="1" stroke-width="5.38" d="m 105.25195,102.40039 c -3.55359,0 -6.859884,0.44363 -9.919919,1.33203 -3.060035,0.8884 -5.825193,1.97457 -8.292969,3.25781 -2.46777,1.28324 -4.590392,2.66388 -6.367187,4.14454 -1.776795,1.38195 -3.107699,2.56757 -3.996094,3.55468 l 6.808594,9.77149 c 0.69098,-0.59227 1.679646,-1.43176 2.962891,-2.51758 1.28324,-1.18452 2.862776,-2.26875 4.738281,-3.25586 1.87551,-1.08582 3.998127,-2.02282 6.367187,-2.8125 2.36906,-0.78969 4.983096,-1.18555 7.845706,-1.18555 2.36906,0 4.59113,0.34613 6.66406,1.03711 2.17164,0.59226 4.04758,1.57899 5.62695,2.96094 1.57937,1.38195 2.81278,3.10871 3.70117,5.18164 0.98712,2.07293 1.48047,4.5914 1.48047,7.55274 0,2.7639 -0.54308,5.37988 -1.6289,7.84765 -0.98711,2.46777 -2.36774,4.88485 -4.14453,7.25391 -1.67809,2.27035 -3.65349,4.58992 -5.92383,6.95898 -0.79382,0.8299 -1.62953,1.67434 -2.46289,2.51758 h 17.0664 c 1.37929,-1.62871 2.68265,-3.25589 3.9043,-4.88477 2.36907,-3.25746 4.24499,-6.51597 5.62695,-9.77343 1.48066,-3.35617 2.22266,-6.81165 2.22266,-10.36524 0,-9.0814 -2.71543,-16.08985 -8.14453,-21.02539 -5.33039,-5.03426 -13.37528,-7.55078 -24.13477,-7.55078 z m 88.46094,0 c -4.73812,0 -9.03114,0.78977 -12.88086,2.36914 -3.84972,1.48066 -7.15602,3.50383 -9.91992,6.07031 -2.6652,2.56648 -4.73809,5.57637 -6.21875,9.03125 -1.48066,3.35617 -2.2207,6.90915 -2.2207,10.66016 0,10.75949 4.8361,18.90383 14.50976,24.43164 -0.54317,0.33063 -1.07948,0.67827 -1.61133,1.03711 H 212.375 c -0.90352,-0.51362 -1.83287,-1.01278 -2.81836,-1.48047 1.97422,-1.28324 3.85016,-2.76332 5.62695,-4.44141 1.87551,-1.67808 3.50477,-3.60375 4.88672,-5.77539 1.48066,-2.17163 2.61462,-4.49121 3.4043,-6.95898 0.8884,-2.56649 1.33398,-5.28191 1.33398,-8.14453 0,-2.96132 -0.59281,-6.02094 -1.77734,-9.17969 -1.08582,-3.15874 -2.91204,-6.0214 -5.47852,-8.58789 -2.46778,-2.66519 -5.67656,-4.83753 -9.625,-6.51562 -3.94843,-1.67808 -8.68702,-2.51563 -14.21484,-2.51563 z m 0,11.40039 c 3.15875,0 5.82445,0.54309 7.99609,1.62891 2.17164,0.98711 3.95009,2.27024 5.33204,3.84961 1.38195,1.48066 2.36867,3.10992 2.96093,4.88672 0.69098,1.77679 1.03711,3.40605 1.03711,4.88671 0,5.33038 -1.23535,9.67313 -3.70312,13.0293 -2.46777,3.25746 -5.77407,6.12012 -9.91992,8.58789 -3.75102,-0.8884 -7.00759,-2.07403 -9.77149,-3.55469 -2.6652,-1.48066 -4.83753,-3.15769 -6.51562,-5.0332 -1.67808,-1.87551 -2.91149,-3.90062 -3.70118,-6.07226 -0.78969,-2.17164 -1.18554,-4.34204 -1.18554,-6.51368 0,-1.77679 0.29641,-3.55328 0.88867,-5.33007 0.69098,-1.87551 1.72741,-3.55449 3.10937,-5.03516 1.38194,-1.57937 3.15845,-2.8625 5.33008,-3.84961 2.27035,-0.98711 4.98384,-1.48047 8.14258,-1.48047 z" display="inline" enable-background="new" font-family="Ubuntu" font-size="296.133" font-stretch="normal" font-style="normal" font-variant="normal" font-weight="normal" letter-spacing="0" text-anchor="start" word-spacing="0" writing-mode="lr-tb" style="line-height:1.25;-inkscape-font-specification:'Ubuntu, Normal';text-align:start"/><path id="path921" fill="#f9f9f9" fill-opacity="1" stroke="none" stroke-linecap="butt" stroke-linejoin="miter" stroke-opacity="1" stroke-width="5.38" d="m 108.7207,156 c -1.44476,1.46177 -2.94216,2.94123 -4.50586,4.44238 -2.96132,2.96133 -5.972185,6.02094 -9.032225,9.17969 -3.060035,3.15875 -5.82324,6.51477 -8.291015,10.06836 -2.46777,3.55359 -4.49191,7.35423 -6.07129,11.40137 -1.48066,3.94844 -2.2207,8.24243 -2.2207,12.88184 v 1.6289 c 0,0.59227 0.0497,1.1841 0.148435,1.77637 H 140.93554 V 195.68164 H 93.70215 c 0,-1.67809 0.64156,-3.6525 1.924805,-5.92285 1.38195,-2.27035 3.05996,-4.63868 5.034185,-7.10645 1.97421,-2.46777 4.04711,-4.83707 6.21875,-7.10742 l 5.92285,-5.92285 c 2.96132,-2.96133 5.92246,-5.97219 8.88379,-9.03223 1.43424,-1.52986 2.79538,-3.06014 4.09082,-4.58984 z m 66.65039,0 c -1.69141,1.14114 -3.32612,2.42262 -4.90332,3.84961 -1.97422,1.77679 -3.7507,3.80094 -5.33008,6.07129 -1.48066,2.27035 -2.71504,4.73813 -3.70215,7.40332 -0.88839,2.56648 -1.33203,5.28094 -1.33203,8.14356 0,2.96132 0.54211,6.11941 1.62793,9.47558 1.08582,3.25746 2.91204,6.26833 5.47852,9.03223 2.56648,2.7639 5.97223,5.08348 10.2168,6.95898 4.34327,1.7768 9.72344,2.66504 16.13964,2.66504 5.52781,0 10.41364,-0.74004 14.65821,-2.2207 4.24456,-1.38195 7.74879,-3.35637 10.51269,-5.92285 2.86262,-2.6652 4.98524,-5.72481 6.36719,-9.17969 1.48066,-3.55359 2.2207,-7.40297 2.2207,-11.54883 C 227.14454,169.79807 222.16687,161.55701 212.39844,156 Z m 12.56836,3.40527 c 3.94843,0.8884 7.45266,1.97457 10.5127,3.25781 3.15875,1.18453 5.82446,2.66461 7.99609,4.44141 2.27035,1.77679 3.99712,3.85067 5.18165,6.21973 1.18453,2.36906 1.77734,5.13227 1.77734,8.29101 0,2.07293 -0.39488,4.09707 -1.18457,6.07129 -0.78969,1.97422 -1.97434,3.75071 -3.55371,5.33008 -1.57938,1.48066 -3.65227,2.71406 -6.21875,3.70117 -2.46777,0.98711 -5.38016,1.48145 -8.73633,1.48145 -3.75101,0 -6.86036,-0.54309 -9.32813,-1.62891 -2.46777,-1.08581 -4.49093,-2.41867 -6.07031,-3.99804 -1.57937,-1.67809 -2.71429,-3.45458 -3.40527,-5.33008 -0.59226,-1.97422 -0.88867,-3.85016 -0.88867,-5.62695 0,-5.03426 1.18465,-9.377 3.55371,-13.0293 2.46777,-3.6523 5.92227,-6.71289 10.36425,-9.18067 z" display="inline" enable-background="new" font-family="Ubuntu" font-size="medium" font-stretch="normal" font-style="normal" font-variant="normal" font-weight="normal" letter-spacing="0" text-anchor="start" word-spacing="0" writing-mode="lr-tb" style="line-height:125%;-inkscape-font-specification:'Ubuntu, Normal';text-align:start"/></g><path id="path21973" fill="url(#linearGradient4251-3)" fill-opacity="1" fill-rule="nonzero" stroke="none" stroke-dasharray="none" stroke-dashoffset="0" stroke-linecap="butt" stroke-linejoin="miter" stroke-miterlimit="4" stroke-opacity="1" stroke-width="24" d="m 322,198 v 4 h 1 v -4 z" color="#000" display="inline" enable-background="accumulate" opacity="1" overflow="visible" visibility="visible" style="marker:none"/><path id="rect4243-5" fill="url(#linearGradient21975)" fill-opacity="1" fill-rule="nonzero" stroke="none" stroke-dasharray="none" stroke-dashoffset="0" stroke-linecap="butt" stroke-linejoin="miter" stroke-miterlimit="4" stroke-opacity="1" stroke-width="24" d="m 341,198 v 4 h 1 v -4 z" color="#000" display="inline" enable-background="accumulate" opacity="1" overflow="visible" visibility="visible" style="marker:none"/><path id="path983" fill="url(#linearGradient985)" fill-opacity="1" fill-rule="nonzero" stroke="none" stroke-dasharray="none" stroke-dashoffset="0" stroke-linecap="butt" stroke-linejoin="miter" stroke-miterlimit="4" stroke-opacity="1" stroke-width="24" d="m 321,242 v 3 h 1 v -3 z m 13,0 v 3 h 1 v -3 z" color="#000" display="inline" enable-background="accumulate" opacity="1" overflow="visible" visibility="visible" style="marker:none"/><path id="path987" fill="#ececec" fill-opacity="1" stroke="none" stroke-linecap="butt" stroke-linejoin="miter" stroke-opacity="1" stroke-width=".5" d="m 325.29297,240.36328 c -0.21229,0 -0.41094,0.027 -0.59375,0.0801 -0.18282,0.0531 -0.34671,0.11865 -0.49414,0.19531 -0.14743,0.0767 -0.27471,0.1596 -0.38086,0.24805 -0.10615,0.0826 -0.18521,0.15197 -0.23828,0.21094 l 0.40625,0.58398 c 0.0413,-0.0354 0.0991,-0.0855 0.17578,-0.15039 0.0767,-0.0708 0.17115,-0.13439 0.2832,-0.19336 0.11204,-0.0649 0.23933,-0.12079 0.38086,-0.16797 0.14153,-0.0472 0.29773,-0.0723 0.46875,-0.0723 0.14153,0 0.2746,0.0212 0.39844,0.0625 0.12973,0.0354 0.24158,0.0951 0.33594,0.17773 0.0943,0.0826 0.16763,0.18475 0.2207,0.30859 0.059,0.12384 0.0898,0.27427 0.0898,0.45118 0,0.16512 -0.0328,0.32132 -0.0977,0.46875 -0.059,0.14743 -0.1419,0.29206 -0.24805,0.43359 -0.10025,0.13563 -0.21789,0.27449 -0.35352,0.41602 -0.0474,0.0496 -0.0967,0.10002 -0.14648,0.15039 -0.0863,0.0873 -0.17612,0.17594 -0.26953,0.26562 -0.17692,0.17691 -0.35625,0.36013 -0.53906,0.54883 -0.18281,0.18871 -0.34867,0.38731 -0.4961,0.59961 -0.14743,0.2123 -0.26893,0.43986 -0.36328,0.68164 -0.0885,0.23589 -0.13281,0.49237 -0.13281,0.76953 v 0.0977 c 0,0.0354 0.004,0.07 0.01,0.10547 h 3.71485 v -0.69727 h -2.82227 c 0,-0.10025 0.0385,-0.21984 0.11524,-0.35547 0.0826,-0.13564 0.18284,-0.2764 0.30078,-0.42383 0.11795,-0.14743 0.2433,-0.28818 0.37304,-0.42382 l 0.35352,-0.35352 c 0.17691,-0.17691 0.35238,-0.35821 0.5293,-0.54102 0.0857,-0.0914 0.1687,-0.18204 0.24609,-0.27343 0.0824,-0.0973 0.15943,-0.19566 0.23242,-0.29297 0.14153,-0.19461 0.25338,-0.38742 0.33594,-0.58203 0.0885,-0.2005 0.13281,-0.40685 0.13281,-0.61914 0,-0.54254 -0.16198,-0.96296 -0.48632,-1.25782 -0.31845,-0.30075 -0.79862,-0.45117 -1.44141,-0.45117 z m 5.2832,0 c -0.28306,0 -0.53954,0.0482 -0.76953,0.14258 -0.22999,0.0885 -0.42668,0.20996 -0.5918,0.36328 -0.15922,0.15333 -0.28264,0.33266 -0.37109,0.53906 -0.0885,0.2005 -0.13281,0.41263 -0.13281,0.63672 0,0.64279 0.28927,1.12875 0.86718,1.45899 -0.0325,0.0198 -0.0659,0.041 -0.0976,0.0625 -0.10105,0.0682 -0.19875,0.14521 -0.29297,0.23047 -0.11795,0.10615 -0.22401,0.22569 -0.31836,0.36132 -0.0885,0.13563 -0.16173,0.28414 -0.2207,0.44336 -0.0531,0.15333 -0.0801,0.31532 -0.0801,0.48633 0,0.17692 0.0328,0.3659 0.0977,0.56641 0.0649,0.1946 0.1748,0.37394 0.32812,0.53906 0.15333,0.16512 0.3558,0.30398 0.60938,0.41602 0.25947,0.10615 0.58153,0.1582 0.96484,0.1582 0.33024,0 0.62143,-0.0443 0.875,-0.13281 0.25358,-0.0826 0.46379,-0.2002 0.62891,-0.35352 0.17102,-0.15922 0.2983,-0.34243 0.38085,-0.54883 0.0885,-0.21229 0.13282,-0.44177 0.13282,-0.68945 -0.0108,-0.65294 -0.309,-1.14457 -0.89258,-1.47656 h -0.002 c -0.054,-0.0307 -0.1091,-0.06 -0.16797,-0.0879 0.11794,-0.0767 0.22979,-0.16538 0.33594,-0.26563 0.11205,-0.10025 0.2104,-0.21596 0.29296,-0.3457 0.0885,-0.12973 0.15595,-0.26859 0.20313,-0.41602 0.0531,-0.15332 0.0801,-0.31532 0.0801,-0.48633 0,-0.17692 -0.0366,-0.36011 -0.10743,-0.54882 -0.0649,-0.18871 -0.17285,-0.3584 -0.32617,-0.51172 -0.14743,-0.15922 -0.34029,-0.29038 -0.57617,-0.39063 -0.23589,-0.10026 -0.51937,-0.15039 -0.84961,-0.15039 z m 0,0.68164 h 0.002 c 0.1878,2.4e-4 0.34731,0.0331 0.47657,0.0977 0.12974,0.059 0.2358,0.13611 0.31836,0.23047 0.0826,0.0884 0.14235,0.18486 0.17773,0.29101 0.0413,0.10614 0.0606,0.20451 0.0606,0.29297 0,0.31844 -0.0733,0.57684 -0.22071,0.77735 -0.14742,0.19461 -0.34411,0.36624 -0.59179,0.51367 -0.22409,-0.0531 -0.41887,-0.12443 -0.58399,-0.21289 -0.15922,-0.0884 -0.28842,-0.18874 -0.38867,-0.30078 -0.10025,-0.11205 -0.17547,-0.23355 -0.22265,-0.36329 -0.0472,-0.12974 -0.0703,-0.25893 -0.0703,-0.38867 0,-0.10615 0.0173,-0.21222 0.0527,-0.31836 0.0413,-0.11205 0.10298,-0.21232 0.18554,-0.30078 0.0826,-0.0943 0.18863,-0.1715 0.31836,-0.23047 0.13514,-0.0588 0.29851,-0.0877 0.48633,-0.0879 z m -0.34375,2.72461 c 0.23588,0.0531 0.44415,0.11865 0.62696,0.19531 0.18871,0.0708 0.34877,0.15948 0.47851,0.26563 0.13563,0.10615 0.23978,0.22956 0.31055,0.37109 0.0708,0.14154 0.10547,0.30543 0.10547,0.49414 0,0.12384 -0.0231,0.24534 -0.0703,0.36328 -0.0472,0.11794 -0.11854,0.22401 -0.21289,0.31836 -0.0944,0.0885 -0.21776,0.16174 -0.37109,0.22071 -0.14743,0.059 -0.32294,0.0898 -0.52344,0.0898 -0.22409,0 -0.40921,-0.0328 -0.55664,-0.0977 -0.14742,-0.0649 -0.26893,-0.14393 -0.36328,-0.23828 -0.0944,-0.10025 -0.16184,-0.20826 -0.20313,-0.32031 -0.0354,-0.11794 -0.0527,-0.22979 -0.0527,-0.33594 0,-0.30075 0.0714,-0.55914 0.21289,-0.77734 0.14743,-0.21819 0.35377,-0.4014 0.61914,-0.54883 z" display="inline" enable-background="new" font-family="Ubuntu" font-size="296.133" font-stretch="normal" font-style="normal" font-variant="normal" font-weight="normal" letter-spacing="0" text-anchor="start" word-spacing="0" writing-mode="lr-tb" style="line-height:1.25;-inkscape-font-specification:'Ubuntu, Normal';text-align:start"/><path id="path21967" fill="url(#linearGradient998)" fill-opacity="1" fill-rule="nonzero" stroke="none" stroke-dasharray="none" stroke-dashoffset="0" stroke-linecap="butt" stroke-linejoin="miter" stroke-miterlimit="4" stroke-opacity="1" stroke-width="24" d="m 322,145.00001 v 6 h 1 v -6 z" color="#000" display="inline" enable-background="accumulate" opacity="1" overflow="visible" visibility="visible" style="marker:none"/><path id="path996-3" fill="url(#linearGradient21969)" fill-opacity="1" fill-rule="nonzero" stroke="none" stroke-dasharray="none" stroke-dashoffset="0" stroke-linecap="butt" stroke-linejoin="miter" stroke-miterlimit="4" stroke-opacity="1" stroke-width="24" d="m 349,145.00001 v 6 h 1 v -6 z" color="#000" display="inline" enable-background="accumulate" opacity="1" overflow="visible" visibility="visible" style="marker:none"/><path id="path1004" fill="#000" fill-opacity="1" fill-rule="nonzero" stroke="none" stroke-dasharray="none" stroke-dashoffset="0" stroke-linecap="butt" stroke-linejoin="miter" stroke-miterlimit="4" stroke-opacity="1" stroke-width="24" d="m 321.00001,80.000006 v 10 H 323 v -10 z m 43.99999,0 v 10 h 2.00001 v -10 z" color="#000" display="inline" enable-background="accumulate" opacity=".1" overflow="visible" visibility="visible" style="marker:none"/><path id="path1000" fill="url(#linearGradient1002)" fill-opacity="1" fill-rule="nonzero" stroke="none" stroke-dasharray="none" stroke-dashoffset="0" stroke-linecap="butt" stroke-linejoin="miter" stroke-miterlimit="4" stroke-opacity="1" stroke-width="24" d="m 321.00001,79.000006 v 10 H 323 v -10 z m 43.99999,0 v 10 h 2.00001 v -10 z" color="#000" display="inline" enable-background="accumulate" opacity="1" overflow="visible" visibility="visible" style="marker:none"/><path id="text933" fill="#ececec" fill-opacity="1" stroke="none" stroke-linecap="butt" stroke-linejoin="miter" stroke-opacity="1" stroke-width="3.734" d="m 105.28516,102.00001 c -3.78424,0 -7.21951,0.49829 -10.30664,1.49414 -3.08714,0.89627 -5.82481,1.99055 -8.21485,3.28516 -2.29045,1.2946 -4.23281,2.63901 -5.82617,4.0332 -1.49378,1.29461 -2.53921,2.29119 -3.13672,2.98828 l 5.07813,6.72266 c 0.59751,-0.59751 1.54328,-1.44363 2.83789,-2.53906 1.2946,-1.09544 2.83833,-2.14283 4.63086,-3.13868 1.89211,-1.09543 4.08264,-2.04121 6.57226,-2.83789 2.48963,-0.79668 5.3289,-1.19531 8.51563,-1.19531 5.67635,0 10.35637,1.54372 14.04101,4.63086 3.78423,2.98755 5.67578,7.96654 5.67578,14.9375 0,3.18672 -0.49829,6.12566 -1.49414,8.81445 -0.99585,2.6888 -2.34025,5.22715 -4.0332,7.61719 -1.69295,2.39004 -3.68415,4.73103 -5.97461,7.02148 -0.69065,0.69066 -1.49255,1.45557 -2.21289,2.16602 h 12.30859 c 1.46671,-1.68864 2.83889,-3.40569 4.09571,-5.1543 2.39004,-3.18672 4.28159,-6.47153 5.67578,-9.85742 1.39419,-3.48548 2.0918,-7.17087 2.0918,-11.05469 0,-8.76348 -2.54031,-15.58517 -7.61915,-20.46484 -5.07883,-4.97925 -12.64698,-7.46875 -22.70507,-7.46875 z m 88.64843,0 c -4.38174,0 -8.41496,0.69761 -12.09961,2.0918 -3.68464,1.2946 -6.86979,3.18615 -9.55859,5.67578 -2.58921,2.39004 -4.63122,5.32702 -6.125,8.8125 -1.49378,3.48548 -2.24023,7.37018 -2.24023,11.65234 0,4.78008 1.09428,9.21194 3.28515,13.29492 2.19087,4.08299 6.32375,7.61792 12.39844,10.60547 -1.05448,0.57118 -2.08585,1.19909 -3.10156,1.86719 h 31.875 c -0.38104,-0.17382 -0.74425,-0.3544 -1.13867,-0.52344 1.89211,-1.19502 3.83447,-2.63908 5.82617,-4.33203 1.9917,-1.69294 3.78359,-3.63335 5.37695,-5.82422 1.59336,-2.29045 2.88892,-4.77995 3.88477,-7.46875 0.99585,-2.78838 1.49414,-5.82697 1.49414,-9.11328 0,-3.38589 -0.59795,-6.67265 -1.79297,-9.85937 -1.09544,-3.18673 -2.88733,-6.02405 -5.37696,-8.51368 -2.39004,-2.48962 -5.47748,-4.48083 -9.26171,-5.97461 -3.78424,-1.59336 -8.26689,-2.39062 -13.44532,-2.39062 z m 0,8.36523 c 3.58507,0 6.62366,0.54715 9.11329,1.64258 2.48962,0.99585 4.48083,2.39107 5.9746,4.1836 1.59337,1.69294 2.73846,3.63334 3.43555,5.82421 0.79668,2.19088 1.19531,4.4322 1.19531,6.72266 0,5.67635 -1.3444,10.40718 -4.0332,14.19141 -2.6888,3.78423 -6.32338,6.97133 -10.9043,9.56054 -5.17842,-1.39419 -9.3621,-2.83825 -12.54882,-4.33203 -3.18673,-1.59336 -5.67622,-3.28754 -7.46875,-5.08008 -1.79254,-1.89211 -3.03728,-3.98298 -3.73438,-6.27343 -0.59751,-2.29046 -0.89648,-4.82881 -0.89648,-7.61719 0,-2.48963 0.39863,-4.88142 1.19531,-7.17188 0.89626,-2.29045 2.14101,-4.28166 3.73437,-5.9746 1.69295,-1.79254 3.78381,-3.18579 6.27344,-4.18164 2.48963,-0.99586 5.37776,-1.49415 8.66406,-1.49415 z" display="inline" enable-background="new" font-family="sans-serif" font-size="149.378" font-style="normal" font-weight="normal" letter-spacing="0" word-spacing="0" style="line-height:1000%"/><path id="rect4158-97" fill="#fff" fill-opacity="1" fill-rule="nonzero" stroke="none" stroke-width="1" d="M 40 156 L 40 229.00586 C 39.82701 264.37398 43.625144 268 78.921875 268 L 225.07812 268 C 260.37483 268 264 264.37439 264 229.00586 L 264 156 L 40 156 z" color="#000" display="inline" enable-background="accumulate" opacity=".08" overflow="visible" visibility="visible" style="marker:none"/><path id="path908" fill="#fff" fill-opacity="1" stroke="none" stroke-dasharray="none" stroke-dashoffset="0" stroke-linecap="round" stroke-linejoin="round" stroke-miterlimit="4" stroke-opacity="1" stroke-width="2" d="M 321.55664 84 L 321.55664 84.171875 L 321.55664 96.923828 C 321.55664 105.76596 323.38392 106.67188 333.39258 106.67188 L 354.72266 106.67188 C 364.73382 106.67188 366.60934 105.76586 366.55664 96.923828 L 366.55664 84.171875 L 366.55664 84 L 321.55664 84 z" display="inline" enable-background="new" opacity=".08"/><path id="path925" fill="#fff" fill-opacity="1" stroke="none" stroke-dasharray="none" stroke-dashoffset="0" stroke-linecap="round" stroke-linejoin="round" stroke-miterlimit="4" stroke-opacity="1" stroke-width="2" d="M 321.5 148 L 321.5 156.2168 C 321.5 161.91504 322.67692 162.5 329.12695 162.5 L 342.87305 162.5 C 349.32468 162.5 350.534 161.91498 350.5 156.2168 L 350.5 148 L 321.5 148 z" display="inline" enable-background="new" opacity=".08"/><path id="path927" fill="#fff" fill-opacity="1" stroke="none" stroke-dasharray="none" stroke-dashoffset="0" stroke-linecap="round" stroke-linejoin="round" stroke-miterlimit="4" stroke-opacity="1" stroke-width="2" d="M 321.5 200 L 321.5 205.84766 C 321.5 210.06818 322.02913 210.5 327.17578 210.5 L 336.82227 210.5 C 341.96893 210.5 342.52139 210.06812 342.49609 205.84766 L 342.49609 200 L 321.5 200 z" display="inline" enable-background="new" opacity=".08"/></g><g id="layer4" display="inline"><path id="path931" fill="#fff" fill-opacity="1" fill-rule="nonzero" stroke="none" stroke-width="1" d="m 78.92188,43.999698 c -35.296728,0 -39.09487,3.62603 -38.92188,38.99414 v 2 c -0.17299,-35.36811 3.625152,-38.99414 38.92188,-38.99414 h 146.15624 c 35.29673,0 38.92188,3.62561 38.92188,38.99414 v -2 c 0,-35.36853 -3.62515,-38.99414 -38.92188,-38.99414 z" color="#000" display="inline" enable-background="accumulate" opacity=".3" overflow="visible" visibility="visible" style="marker:none"/><path id="path931-8" fill="#000" fill-opacity="1" fill-rule="nonzero" stroke="none" stroke-width="1" d="m 78.92728,267.9997 c -35.296731,0 -39.094875,-3.62603 -38.921885,-38.99414 v -2 c -0.17299,35.36811 3.625154,38.99414 38.921885,38.99414 h 146.15624 c 35.29673,0 38.92188,-3.62561 38.92188,-38.99414 v 2 c 0,35.36853 -3.62515,38.99414 -38.92188,38.99414 z" color="#000" display="inline" enable-background="accumulate" opacity=".2" overflow="visible" visibility="visible" style="marker:none"/><path id="path958" fill="none" fill-opacity="1" fill-rule="nonzero" stroke="#000" stroke-dasharray="none" stroke-miterlimit="4" stroke-opacity="1" stroke-width="1" d="m 333.33517,61.500047 c -10.01116,0 -11.88667,0.90635 -11.83407,9.74838 V 84 96.75181 c -0.0527,8.84203 1.82291,9.74838 11.83407,9.74838 h 21.3308 c 10.00866,0 11.83405,-0.90625 11.83405,-9.74838 V 84 71.248427 c 0,-8.84213 -1.82539,-9.74838 -11.83406,-9.74838 z" color="#000" display="inline" enable-background="accumulate" opacity=".4" overflow="visible" visibility="visible" style="marker:none"/><path id="path990" fill="none" fill-opacity="1" fill-rule="nonzero" stroke="url(#linearGradient1004)" stroke-dasharray="none" stroke-miterlimit="4" stroke-opacity="1" stroke-width="1.814" d="m 335.73108,62 c -8.82418,0 -9.77365,0.90635 -9.7304,9.74838 V 84 96.25162 c -0.0433,8.84203 0.90622,9.74838 9.7304,9.74838 h 16.53919 c 8.82418,0 9.7304,-0.90625 9.7304,-9.74838 V 84 71.74838 C 362.00067,62.90625 361.09445,62 352.27027,62 Z" clip-path="url(#clipPath994)" color="#000" display="inline" enable-background="accumulate" opacity=".7" overflow="visible" transform="matrix(1.2161948,0,0,1,-74.371693,0)" visibility="visible" style="marker:none"/><path id="path958-1" fill="none" fill-opacity="1" fill-rule="nonzero" stroke="#000" stroke-dasharray="none" stroke-miterlimit="4" stroke-opacity="1" stroke-width="1" d="m 329.12711,133.5 c -6.45163,0 -7.6603,0.58409 -7.62639,6.28227 v 8.21765 8.21781 c -0.034,5.69818 1.17476,6.28227 7.62639,6.28227 h 13.74651 c 6.45003,0 7.62639,-0.58403 7.62639,-6.28227 v -8.21781 -8.21765 c 0,-5.69824 -1.17636,-6.28227 -7.62639,-6.28227 z" color="#000" display="inline" enable-background="accumulate" opacity=".4" overflow="visible" visibility="visible" style="marker:none"/><path id="path990-8" fill="none" fill-opacity="1" fill-rule="nonzero" stroke="url(#linearGradient1004-8)" stroke-dasharray="none" stroke-miterlimit="4" stroke-opacity="1" stroke-width="2.851" d="m 335.73108,62 c -8.82418,0 -9.77365,0.90635 -9.7304,9.74838 V 84 96.25162 c -0.0433,8.84203 0.90622,9.74838 9.7304,9.74838 h 16.53919 c 8.82418,0 9.7304,-0.90625 9.7304,-9.74838 V 84 71.74838 C 362.00067,62.90625 361.09445,62 352.27027,62 Z" clip-path="url(#clipPath994-1)" color="#000" display="inline" enable-background="accumulate" opacity=".7" overflow="visible" transform="matrix(0.7733047,0,0,0.63636364,69.98319,94.545454)" visibility="visible" style="marker:none"/><path id="path935" fill="none" fill-opacity="1" fill-rule="nonzero" stroke="url(#linearGradient981)" stroke-dasharray="none" stroke-miterlimit="4" stroke-opacity="1" stroke-width="1.991" d="m 327.8652,189 c -4.41209,0 -4.88682,0.45318 -4.8652,4.87419 V 200 206.12581 C 322.9783,210.54682 323.45311,211 327.8652,211 h 8.2696 C 340.54689,211 341,210.54688 341,206.12581 V 200 193.87419 C 341,189.45313 340.54688,189 336.13479,189 Z" clip-path="url(#clipPath971)" color="#000" display="inline" enable-background="accumulate" opacity=".7" overflow="visible" transform="matrix(1.1051369,0,0,0.91313222,-34.905388,17.373548)" visibility="visible" style="marker:none"/><path id="path958-6" fill="none" fill-opacity="1" fill-rule="nonzero" stroke="#000" stroke-dasharray="none" stroke-miterlimit="4" stroke-opacity="1" stroke-width=".977" d="m 336.98249,210.51174 c 4.67709,0 5.5533,-0.42343 5.52872,-4.55431 v -5.95736 -5.95749 c 0.0245,-4.13088 -0.85163,-4.55431 -5.52872,-4.55431 H 327.017 c -4.67593,0 -5.52873,0.42338 -5.52873,4.55431 v 5.95749 5.95736 c 0,4.13093 0.8528,4.55431 5.52873,4.55431 z" color="#000" display="inline" enable-background="accumulate" opacity=".4" overflow="visible" visibility="visible" style="marker:none"/><path id="path937" fill="none" fill-opacity="1" fill-rule="nonzero" stroke="url(#linearGradient993)" stroke-dasharray="none" stroke-miterlimit="4" stroke-opacity="1" stroke-width="1.871" d="m 325.09646,237 c -2.80769,0 -3.10979,0.28839 -3.09603,3.10176 V 244 v 3.89824 c -0.0138,2.81337 0.28834,3.10176 3.09603,3.10176 h 5.8075 C 333.71166,251 334,250.71165 334,247.89824 V 244 240.10176 C 334,237.28836 333.71165,237 330.90396,237 Z" clip-path="url(#clipPath983)" color="#000" display="inline" enable-background="accumulate" opacity=".7" overflow="visible" transform="matrix(1.1428116,0,0,1,-46.841891,-4.4414902e-6)" visibility="visible" style="marker:none"/><path id="path958-6-0" fill="none" fill-opacity="1" fill-rule="nonzero" stroke="#000" stroke-dasharray="none" stroke-miterlimit="4" stroke-opacity="1" stroke-width=".977" d="m 331.52755,251.51174 c 3.31109,0 3.93139,-0.30259 3.91399,-3.25454 v -4.25716 -4.25724 c 0.0174,-2.95195 -0.6029,-3.25453 -3.91399,-3.25453 h -7.05493 c -3.31027,0 -3.914,0.30255 -3.914,3.25453 v 4.25724 4.25716 c 0,2.95199 0.60373,3.25454 3.914,3.25454 z" color="#000" display="inline" enable-background="accumulate" opacity=".4" overflow="visible" visibility="visible" style="marker:none"/></g></g></svg>