<svg xmlns="http://www.w3.org/2000/svg" xmlns:svg="http://www.w3.org/2000/svg" xmlns:xlink="http://www.w3.org/1999/xlink" id="svg11300" width="400" height="300" display="inline" enable-background="new" version="1.0"><title id="title3004">Suru Icon Theme Template</title><defs id="defs3"><clipPath id="clipPath9430" clipPathUnits="userSpaceOnUse"><path id="path9432" fill="#fff" fill-opacity="1" fill-rule="nonzero" stroke="none" stroke-width="1" d="m 166.0625,-196 h 179.875 C 491.2348,-196 512,-175.28677 512,-30.125 v 148.25 C 512,263.28618 491.2348,284 345.9375,284 H 166.0625 C 20.7652,284 0,263.28618 0,118.125 V -30.125 C 0,-175.28677 20.7652,-196 166.0625,-196 Z" color="#000" display="inline" enable-background="new" overflow="visible" visibility="visible" style="marker:none"/></clipPath><clipPath id="clipPath1082" clipPathUnits="userSpaceOnUse"><path id="path1084" fill="#8c59d9" fill-opacity="1" stroke="none" stroke-dasharray="none" stroke-dashoffset="0" stroke-linecap="round" stroke-linejoin="round" stroke-miterlimit="4" stroke-opacity="1" stroke-width="2" d="M 361.9375,-212 C 507.2348,-212 528,-191.28677 528,-46.125 V 70.125 C 528,215.28618 507.2348,236 361.9375,236 H 214.0625 C 68.7652,236 48,215.28618 48,70.125 V -46.125 C 48,-191.28677 68.7652,-212 214.0625,-212 Z" display="inline" enable-background="new" opacity="1"/></clipPath><linearGradient id="linearGradient927"><stop id="stop923" offset="0" stop-color="#fff" stop-opacity="1"/><stop id="stop933" offset=".125" stop-color="#fff" stop-opacity=".098"/><stop id="stop931" offset=".925" stop-color="#fff" stop-opacity=".098"/><stop id="stop925" offset="1" stop-color="#fff" stop-opacity=".498"/></linearGradient><clipPath id="clipPath994" clipPathUnits="userSpaceOnUse"><path id="path996" fill="#cdcdcd" fill-opacity="1" fill-rule="nonzero" stroke="none" stroke-dasharray="none" stroke-miterlimit="4" stroke-opacity="1" stroke-width="2" d="m 335.73108,62 c -8.82418,0 -9.77365,0.90635 -9.7304,9.74838 V 84 96.25162 c -0.0433,8.84203 0.90622,9.74838 9.7304,9.74838 h 16.53919 c 8.82418,0 9.7304,-0.90625 9.7304,-9.74838 V 84 71.74838 C 362.00067,62.90625 361.09445,62 352.27027,62 Z" color="#000" display="inline" enable-background="accumulate" overflow="visible" visibility="visible" style="marker:none"/></clipPath><clipPath id="clipPath959" clipPathUnits="userSpaceOnUse"><path id="path961" fill="#46a926" fill-opacity="1" fill-rule="nonzero" stroke="none" stroke-dasharray="none" stroke-miterlimit="4" stroke-opacity="1" stroke-width="2" d="m 330.1929,133.99999 c -5.61538,0 -6.21958,0.57678 -6.19206,6.20352 v 7.79648 7.79648 c -0.0276,5.62673 0.57668,6.20351 6.19206,6.20351 h 11.615 c 5.6154,0 6.19208,-0.5767 6.19208,-6.20351 v -7.79648 -7.79648 c 0,-5.6268 -0.5767,-6.20352 -6.19208,-6.20352 z" color="#000" display="inline" enable-background="accumulate" opacity="1" overflow="visible" visibility="visible" style="marker:none"/></clipPath><clipPath id="clipPath971" clipPathUnits="userSpaceOnUse"><path id="path973" fill="#46a926" fill-opacity="1" fill-rule="nonzero" stroke="none" stroke-dasharray="none" stroke-miterlimit="4" stroke-opacity="1" stroke-width="2" d="m 327.8652,189 c -4.41209,0 -4.88682,0.45318 -4.8652,4.87419 V 200 206.12581 C 322.9783,210.54682 323.45311,211 327.8652,211 h 8.2696 C 340.54689,211 341,210.54688 341,206.12581 V 200 193.87419 C 341,189.45313 340.54688,189 336.13479,189 Z" color="#000" display="inline" enable-background="accumulate" opacity="1" overflow="visible" visibility="visible" style="marker:none"/></clipPath><clipPath id="clipPath983" clipPathUnits="userSpaceOnUse"><path id="path985" fill="#46a926" fill-opacity="1" fill-rule="nonzero" stroke="none" stroke-dasharray="none" stroke-miterlimit="4" stroke-opacity="1" stroke-width="2" d="m 325.09646,237 c -2.80769,0 -3.10979,0.28839 -3.09603,3.10176 V 244 v 3.89824 c -0.0138,2.81337 0.28834,3.10176 3.09603,3.10176 h 5.8075 C 333.71166,251 334,250.71165 334,247.89824 V 244 240.10176 C 334,237.28836 333.71165,237 330.90396,237 Z" color="#000" display="inline" enable-background="accumulate" opacity="1" overflow="visible" visibility="visible" style="marker:none"/></clipPath><linearGradient id="linearGradient4336-3"><stop id="stop4338-8" offset="0" stop-color="#5884f4" stop-opacity="1"/><stop id="stop4344-3" offset=".278" stop-color="#5884f4" stop-opacity="1"/><stop id="stop4346-3" offset=".278" stop-color="#2f5fdd" stop-opacity="1"/><stop id="stop4350-1" offset=".707" stop-color="#2f5fdd" stop-opacity="1"/><stop id="stop4348-6" offset=".709" stop-color="#234db8" stop-opacity="1"/><stop id="stop4340-0" offset="1" stop-color="#234db8" stop-opacity="1"/></linearGradient><clipPath id="clipPath994-1" clipPathUnits="userSpaceOnUse"><path id="path996-8" fill="#cdcdcd" fill-opacity="1" fill-rule="nonzero" stroke="none" stroke-dasharray="none" stroke-miterlimit="4" stroke-opacity="1" stroke-width="2" d="m 335.73108,62 c -8.82418,0 -9.77365,0.90635 -9.7304,9.74838 V 84 96.25162 c -0.0433,8.84203 0.90622,9.74838 9.7304,9.74838 h 16.53919 c 8.82418,0 9.7304,-0.90625 9.7304,-9.74838 V 84 71.74838 C 362.00067,62.90625 361.09445,62 352.27027,62 Z" color="#000" display="inline" enable-background="accumulate" overflow="visible" visibility="visible" style="marker:none"/></clipPath><linearGradient id="linearGradient11065" x1="104" x2="200" y1="44" y2="268" gradientTransform="translate(4.6730066e-8,-5.6126213e-6)" gradientUnits="userSpaceOnUse" xlink:href="#linearGradient4239"/><filter id="filter11191" width="1.024" height="1.024" x="-.012" y="-.012" color-interpolation-filters="sRGB"><feGaussianBlur id="feGaussianBlur11193" stdDeviation="1.12"/></filter><filter id="filter11210" width="1.096" height="1.096" x="-.048" y="-.048" color-interpolation-filters="sRGB"><feGaussianBlur id="feGaussianBlur11212" stdDeviation="4.48"/></filter><linearGradient id="linearGradient8590" x1="96" x2="96" y1="4" y2="188" gradientTransform="matrix(0.23913043,0,0,0.23913032,321.04348,61.043494)" gradientUnits="userSpaceOnUse" xlink:href="#linearGradient927"/><linearGradient id="linearGradient8588" x1="13.735" x2="38.1" y1="249.694" y2="292.767" gradientTransform="matrix(0.94488193,0,0,0.94488229,320.50001,-173.12993)" gradientUnits="userSpaceOnUse" xlink:href="#linearGradient4239"/><linearGradient id="linearGradient8590-3" x1="96" x2="96" y1="4" y2="188" gradientTransform="matrix(0.15217394,0,0,0.15217387,321.3913,133.39129)" gradientUnits="userSpaceOnUse" xlink:href="#linearGradient927"/><linearGradient id="linearGradient8588-0" x1="13.735" x2="38.1" y1="249.694" y2="292.767" gradientTransform="matrix(0.60892393,0,0,0.60892417,320.85556,-17.70596)" gradientUnits="userSpaceOnUse" xlink:href="#linearGradient4239"/><linearGradient id="linearGradient8590-3-3" x1="96" x2="96" y1="4" y2="188" gradientTransform="matrix(0.10869563,0,0,0.10869559,321.56522,189.56521)" gradientUnits="userSpaceOnUse" xlink:href="#linearGradient927"/><linearGradient id="linearGradient8588-0-1" x1="13.735" x2="38.1" y1="249.694" y2="292.767" gradientTransform="matrix(0.44094488,0,0,0.44094506,321.03334,80.006038)" gradientUnits="userSpaceOnUse" xlink:href="#linearGradient4239"/><linearGradient id="linearGradient8590-3-3-4" x1="96" x2="96" y1="4" y2="188" gradientTransform="matrix(0.06521734,0,0,0.06521732,321.73913,237.73914)" gradientUnits="userSpaceOnUse" xlink:href="#linearGradient927"/><linearGradient id="linearGradient8588-0-1-5" x1="13.735" x2="38.1" y1="249.694" y2="292.767" gradientTransform="matrix(0.27296588,0,0,0.27296599,321.21111,169.71803)" gradientUnits="userSpaceOnUse" xlink:href="#linearGradient4239"/><linearGradient id="linearGradient4239"><stop id="stop4241" offset="0" stop-color="#666" stop-opacity="1"/><stop id="stop4243" offset="1" stop-color="#666" stop-opacity="1"/></linearGradient><filter id="filter4278" width="1.024" height="1.024" x="-.012" y="-.012" color-interpolation-filters="sRGB"><feGaussianBlur id="feGaussianBlur4280" stdDeviation="1.384"/></filter><linearGradient id="linearGradient4290" x1="226.84" x2="406.448" y1="429.516" y2="146.703" gradientUnits="userSpaceOnUse" xlink:href="#linearGradient4292"/><linearGradient id="linearGradient4292"><stop id="stop4294" offset="0" stop-color="#000" stop-opacity="0"/><stop id="stop4296" offset=".496" stop-color="#000" stop-opacity="1"/><stop id="stop4298" offset="1" stop-color="#000" stop-opacity="0"/></linearGradient><filter id="filter4300" width="1.188" height="1.196" x="-.094" y="-.098" color-interpolation-filters="sRGB"><feGaussianBlur id="feGaussianBlur4302" stdDeviation="11.069"/></filter></defs><metadata id="metadata4"/><g id="layer1" display="inline"><g id="layer7" display="none"><text enable-background="new" style="line-height:0%;-inkscape-font-specification:'DejaVu Sans'" id="context" x="19.007" y="-8.255" fill="#000" fill-opacity="1" stroke="none" display="inline" font-family="DejaVu Sans" font-stretch="normal" font-style="normal" font-variant="normal" font-weight="normal" xml:space="preserve"><tspan id="tspan3933" x="19.007" y="-8.255" font-family="DejaVu Sans" font-size="18" font-stretch="normal" font-style="normal" font-variant="normal" font-weight="normal" style="line-height:1.25;-inkscape-font-specification:'DejaVu Sans'">apps</tspan></text><text id="icon-name" x="146.488" y="-8.255" fill="#000" fill-opacity="1" stroke="none" display="inline" enable-background="new" font-family="DejaVu Sans" font-stretch="normal" font-style="normal" font-variant="normal" font-weight="bold" text-anchor="start" writing-mode="lr-tb" xml:space="preserve" style="line-height:0%;-inkscape-font-specification:'DejaVu Sans Bold';text-align:start"><tspan id="tspan3937" x="146.488" y="-8.255" font-family="DejaVu Sans" font-size="18" font-stretch="normal" font-style="normal" font-variant="normal" font-weight="bold" style="line-height:1.25;-inkscape-font-specification:'DejaVu Sans Bold'">clock-app</tspan></text><rect id="rect16x16" width="16" height="16" x="320" y="236" fill="#cdcdcd" fill-opacity="1" fill-rule="nonzero" stroke="none" stroke-width="2" display="inline" enable-background="accumulate" overflow="visible" visibility="visible" style="marker:none"/><rect id="rect24x24" width="24" height="24" x="320" y="188" fill="#cdcdcd" fill-opacity="1" fill-rule="nonzero" stroke="none" stroke-width="2" display="inline" enable-background="accumulate" overflow="visible" visibility="visible" style="marker:none"/><rect id="rect32x32" width="32" height="32" x="320" y="132" fill="#cdcdcd" fill-opacity="1" fill-rule="nonzero" stroke="none" stroke-width="2" display="inline" enable-background="accumulate" overflow="visible" visibility="visible" style="marker:none"/><rect id="rect48x48" width="48" height="48" x="320" y="60" fill="#cdcdcd" fill-opacity="1" fill-rule="nonzero" stroke="none" stroke-width="2" display="inline" enable-background="accumulate" overflow="visible" visibility="visible" style="marker:none"/><rect id="rect3951" width="256" height="256" x="24" y="28" fill="#cdcdcd" fill-opacity="1" fill-rule="nonzero" stroke="none" stroke-width="2" display="inline" enable-background="accumulate" overflow="visible" visibility="visible" style="marker:none"/></g><g id="layer8" display="inline"><circle id="path11042-0" cx="152" cy="160" r="112" fill="#000" fill-opacity="1" stroke="none" stroke-dasharray="none" stroke-linecap="round" stroke-linejoin="round" stroke-miterlimit="4" stroke-opacity="1" stroke-width="1" display="inline" enable-background="new" filter="url(#filter11210)" opacity=".1"/><circle id="path11042-6" cx="152" cy="158" r="112" fill="#000" fill-opacity="1" stroke="none" stroke-dasharray="none" stroke-linecap="round" stroke-linejoin="round" stroke-miterlimit="4" stroke-opacity="1" stroke-width="1" display="inline" enable-background="new" filter="url(#filter11191)" opacity=".1"/><circle id="path11042-7" cx="152" cy="156" r="114" fill="#000" fill-opacity="1" stroke="none" stroke-dasharray="none" stroke-linecap="round" stroke-linejoin="round" stroke-miterlimit="4" stroke-opacity="1" stroke-width="1" display="inline" enable-background="new" opacity=".1"/><circle id="path11042" cx="152" cy="156" r="112" fill="url(#linearGradient11065)" fill-opacity="1" stroke="none" stroke-dasharray="none" stroke-linecap="round" stroke-linejoin="round" stroke-miterlimit="4" stroke-opacity="1" stroke-width="1" display="inline" enable-background="new" opacity="1"/><path id="path11042-5" cx="152" cy="156" r="112" fill="#fff" fill-opacity="1" stroke="none" stroke-dasharray="none" stroke-linecap="round" stroke-linejoin="round" stroke-miterlimit="4" stroke-opacity="1" stroke-width="1" display="inline" enable-background="new" opacity="1"/><circle id="path9498-0-0" cx="-344" cy="-85" r="23" fill="#000" fill-opacity="1" stroke="none" stroke-dasharray="none" stroke-linecap="round" stroke-linejoin="round" stroke-miterlimit="4" stroke-opacity="1" stroke-width="1.954" display="inline" enable-background="new" opacity=".1" transform="scale(-1)"/><circle id="path9498-6" cx="344" cy="84" r="22.5" fill="url(#linearGradient8588)" fill-opacity="1" stroke="none" stroke-dasharray="none" stroke-linecap="round" stroke-linejoin="round" stroke-miterlimit="4" stroke-opacity="1" stroke-width="1.869" display="inline" enable-background="new" opacity="1"/><circle id="path9498-0-0-2" cx="-336" cy="-149" r="15" fill="#000" fill-opacity="1" stroke="none" stroke-dasharray="none" stroke-linecap="round" stroke-linejoin="round" stroke-miterlimit="4" stroke-opacity="1" stroke-width="1.954" display="inline" enable-background="new" opacity=".1" transform="scale(-1)"/><circle id="path9498-6-5" cx="336" cy="148" r="14.5" fill="url(#linearGradient8588-0)" fill-opacity="1" stroke="none" stroke-dasharray="none" stroke-linecap="round" stroke-linejoin="round" stroke-miterlimit="4" stroke-opacity="1" stroke-width="1.869" display="inline" enable-background="new" opacity="1"/><circle id="path9498-0-0-2-3" cx="-332" cy="-201" r="11" fill="#000" fill-opacity="1" stroke="none" stroke-dasharray="none" stroke-linecap="round" stroke-linejoin="round" stroke-miterlimit="4" stroke-opacity="1" stroke-width="1.954" display="inline" enable-background="new" opacity=".1" transform="scale(-1)"/><circle id="path9498-6-5-6" cx="332" cy="200" r="10.5" fill="url(#linearGradient8588-0-1)" fill-opacity="1" stroke="none" stroke-dasharray="none" stroke-linecap="round" stroke-linejoin="round" stroke-miterlimit="4" stroke-opacity="1" stroke-width="1.869" display="inline" enable-background="new" opacity="1"/><circle id="path9498-0-0-2-3-3" cx="-328" cy="-245" r="7" fill="#000" fill-opacity="1" stroke="none" stroke-dasharray="none" stroke-linecap="round" stroke-linejoin="round" stroke-miterlimit="4" stroke-opacity="1" stroke-width="1.954" display="inline" enable-background="new" opacity=".1" transform="scale(-1)"/><circle id="path9498-6-5-6-8" cx="328" cy="244" r="6.5" fill="url(#linearGradient8588-0-1-5)" fill-opacity="1" stroke="none" stroke-dasharray="none" stroke-linecap="round" stroke-linejoin="round" stroke-miterlimit="4" stroke-opacity="1" stroke-width="1.869" display="inline" enable-background="new" opacity="1"/></g><g id="layer6" display="inline"><g id="g905" display="inline" transform="translate(0,5e-6)"><path id="circle4261" fill="#000" fill-opacity="1" fill-rule="nonzero" stroke="none" stroke-width="1" d="M 418.56445,154.90625 267.85352,241.91992 A 20,20 0 0 0 262,238.92578 V 218 h -12 v 20.94531 a 20,20 0 0 0 -5.85352,2.97461 l -91.92382,-53.07422 -8,13.85742 91.91211,53.06641 A 20,20 0 0 0 236,258 20,20 0 0 0 250,277.07422 V 426 h 12 V 277.05469 A 20,20 0 0 0 276,258 a 20,20 0 0 0 -0.14844,-2.22266 l 150.71289,-87.01562 z" color="#000" display="inline" enable-background="accumulate" filter="url(#filter4278)" opacity=".1" overflow="visible" transform="matrix(0.5,0,0,0.5,24,28)" visibility="visible" style="marker:none"/><path id="path4282" fill="url(#linearGradient4290)" fill-opacity="1" fill-rule="nonzero" stroke="none" stroke-width="1" d="M 418.56445,154.90625 267.85352,241.91992 A 20,20 0 0 0 262,238.92578 V 218 h -12 v 20.94531 a 20,20 0 0 0 -5.85352,2.97461 l -91.92382,-53.07422 -8,13.85742 91.91211,53.06641 A 20,20 0 0 0 236,258 20,20 0 0 0 250,277.07422 V 426 h 12 V 277.05469 A 20,20 0 0 0 276,258 a 20,20 0 0 0 -0.14844,-2.22266 l 150.71289,-87.01562 z" color="#000" display="inline" enable-background="accumulate" filter="url(#filter4300)" opacity=".4" overflow="visible" transform="matrix(0.5,0,0,0.5,24,28)" visibility="visible" style="marker:none"/><circle id="circle4527" cx="152" cy="156.318" r="3.146" fill="#ccc" fill-opacity="1" fill-rule="nonzero" stroke="none" stroke-width=".5" color="#000" display="inline" enable-background="accumulate" overflow="visible" visibility="visible" style="marker:none"/><path id="path4219" fill="none" fill-opacity="1" fill-rule="nonzero" stroke="#f1f0e9" stroke-dasharray="none" stroke-dashoffset="0" stroke-linecap="butt" stroke-linejoin="miter" stroke-miterlimit="4" stroke-opacity="1" stroke-width="8" d="M 98.111225,124.8873 152,156 235.28265,107.91674" color="#000" display="inline" enable-background="accumulate" opacity="1" overflow="visible" visibility="visible" style="marker:none"/><circle id="path4221" cx="152" cy="156" r="10" fill="#f22c42" fill-opacity="1" fill-rule="nonzero" stroke="none" stroke-dasharray="none" stroke-dashoffset="0" stroke-linecap="butt" stroke-linejoin="miter" stroke-miterlimit="4" stroke-opacity="1" stroke-width="8" color="#000" display="inline" enable-background="accumulate" opacity="1" overflow="visible" visibility="visible" style="marker:none"/><path id="path4223" fill="none" fill-opacity="1" fill-rule="nonzero" stroke="#f22c42" stroke-dasharray="none" stroke-dashoffset="0" stroke-linecap="butt" stroke-linejoin="miter" stroke-miterlimit="4" stroke-opacity="1" stroke-width="6" d="M 152,136 V 240" color="#000" display="inline" enable-background="accumulate" opacity="1" overflow="visible" visibility="visible" style="marker:none"/></g><g id="g936" display="inline" transform="translate(1,5e-6)"><path id="path914" fill="none" fill-opacity="1" fill-rule="nonzero" stroke="#f1f0e9" stroke-dasharray="none" stroke-dashoffset="0" stroke-linecap="butt" stroke-linejoin="miter" stroke-miterlimit="4" stroke-opacity="1" stroke-width="1.6" d="m 331.88535,77.40342 10.77775,6.22254 16.65653,-9.616652" color="#000" display="inline" enable-background="accumulate" opacity="1" overflow="visible" visibility="visible" style="marker:none"/><circle id="circle916" cx="342.663" cy="83.626" r="2" fill="#f22c42" fill-opacity="1" fill-rule="nonzero" stroke="none" stroke-dasharray="none" stroke-dashoffset="0" stroke-linecap="butt" stroke-linejoin="miter" stroke-miterlimit="4" stroke-opacity="1" stroke-width="1.6" color="#000" display="inline" enable-background="accumulate" opacity="1" overflow="visible" visibility="visible" style="marker:none"/><path id="path919" fill="none" fill-opacity="1" fill-rule="nonzero" stroke="#f22c42" stroke-dasharray="none" stroke-dashoffset="0" stroke-linecap="butt" stroke-linejoin="miter" stroke-miterlimit="4" stroke-opacity="1" stroke-width="1.2" d="m 342.6631,79.62596 v 20.8" color="#000" display="inline" enable-background="accumulate" opacity="1" overflow="visible" visibility="visible" style="marker:none"/></g><g id="g945" display="inline" transform="matrix(0.5,0,0,0.5,160.66845,158.18702)"><path id="path938" fill="none" fill-opacity="1" fill-rule="nonzero" stroke="#f1f0e9" stroke-dasharray="none" stroke-dashoffset="0" stroke-linecap="butt" stroke-linejoin="miter" stroke-miterlimit="4" stroke-opacity="1" stroke-width="1.6" d="m 331.88535,77.40342 10.77775,6.22254 16.65653,-9.616652" color="#000" display="inline" enable-background="accumulate" opacity="1" overflow="visible" visibility="visible" style="marker:none"/><circle id="circle940" cx="342.663" cy="83.626" r="2" fill="#f22c42" fill-opacity="1" fill-rule="nonzero" stroke="none" stroke-dasharray="none" stroke-dashoffset="0" stroke-linecap="butt" stroke-linejoin="miter" stroke-miterlimit="4" stroke-opacity="1" stroke-width="1.6" color="#000" display="inline" enable-background="accumulate" opacity="1" overflow="visible" visibility="visible" style="marker:none"/><path id="path943" fill="none" fill-opacity="1" fill-rule="nonzero" stroke="#f22c42" stroke-dasharray="none" stroke-dashoffset="0" stroke-linecap="butt" stroke-linejoin="miter" stroke-miterlimit="4" stroke-opacity="1" stroke-width="1.2" d="m 342.6631,79.62596 v 20.8" color="#000" display="inline" enable-background="accumulate" opacity="1" overflow="visible" visibility="visible" style="marker:none"/></g><g id="g953" display="inline" transform="matrix(0.75,0,0,0.75,78.51689,84.805535)"><path id="path947" fill="none" fill-opacity="1" fill-rule="nonzero" stroke="#f1f0e9" stroke-dasharray="none" stroke-dashoffset="0" stroke-linecap="butt" stroke-linejoin="miter" stroke-miterlimit="4" stroke-opacity="1" stroke-width="1.6" d="m 334.52482,78.927318 8.13828,4.698642 14.33225,-8.274728" color="#000" display="inline" enable-background="accumulate" opacity="1" overflow="visible" visibility="visible" style="marker:none"/><circle id="circle949" cx="342.663" cy="83.626" r="2" fill="#f22c42" fill-opacity="1" fill-rule="nonzero" stroke="none" stroke-dasharray="none" stroke-dashoffset="0" stroke-linecap="butt" stroke-linejoin="miter" stroke-miterlimit="4" stroke-opacity="1" stroke-width="1.6" color="#000" display="inline" enable-background="accumulate" opacity="1" overflow="visible" visibility="visible" style="marker:none"/><path id="path951" fill="none" fill-opacity="1" fill-rule="nonzero" stroke="#f22c42" stroke-dasharray="none" stroke-dashoffset="0" stroke-linecap="butt" stroke-linejoin="miter" stroke-miterlimit="4" stroke-opacity="1" stroke-width="1.2" d="m 342.6631,79.62596 v 18.05" color="#000" display="inline" enable-background="accumulate" opacity="1" overflow="visible" visibility="visible" style="marker:none"/></g><g id="g962" stroke-width="2.069" display="inline" transform="matrix(0.36164918,0,0,0.36336234,204.07967,213.66398)"><path id="path956" fill="none" fill-opacity="1" fill-rule="nonzero" stroke="#f1f0e9" stroke-dasharray="none" stroke-dashoffset="0" stroke-linecap="butt" stroke-linejoin="miter" stroke-miterlimit="4" stroke-opacity="1" stroke-width="3.31" d="m 334.52482,78.927318 8.13828,4.698642 14.33225,-8.274728" color="#000" display="inline" enable-background="accumulate" opacity="1" overflow="visible" visibility="visible" style="marker:none"/><circle id="circle958" cx="342.663" cy="83.626" r="2" fill="#f22c42" fill-opacity="1" fill-rule="nonzero" stroke="none" stroke-dasharray="none" stroke-dashoffset="0" stroke-linecap="butt" stroke-linejoin="miter" stroke-miterlimit="4" stroke-opacity="1" stroke-width="3.31" color="#000" display="inline" enable-background="accumulate" opacity="1" overflow="visible" visibility="visible" style="marker:none"/><path id="path960" fill="none" fill-opacity="1" fill-rule="nonzero" stroke="#f22c42" stroke-dasharray="none" stroke-dashoffset="0" stroke-linecap="butt" stroke-linejoin="miter" stroke-miterlimit="4" stroke-opacity="1" stroke-width="2.483" d="m 342.6631,79.62596 v 18.05" color="#000" display="inline" enable-background="accumulate" opacity="1" overflow="visible" visibility="visible" style="marker:none"/></g><path id="path958" fill="#fff" fill-opacity="1" stroke="none" stroke-dasharray="none" stroke-dashoffset="0" stroke-linecap="round" stroke-linejoin="round" stroke-miterlimit="4" stroke-opacity="1" stroke-width="2" d="M 55.585938,99.246094 A 112,112 0 0 0 40,156 112,112 0 0 0 152,268 112,112 0 0 0 246.63086,215.66406 Z" display="inline" enable-background="new" opacity=".05"/><path id="path964" fill="#fff" fill-opacity="1" stroke="none" stroke-dasharray="none" stroke-dashoffset="0" stroke-linecap="round" stroke-linejoin="round" stroke-miterlimit="4" stroke-opacity="1" stroke-width="2" d="M 324.63477,72.59375 A 22.5,22.5 0 0 0 321.5,84 a 22.5,22.5 0 0 0 15.875,21.5 h 13.18555 a 22.5,22.5 0 0 0 12.90429,-10.255859 z" display="inline" enable-background="new" opacity=".05"/><path id="path975" fill="#fff" fill-opacity="1" stroke="none" stroke-dasharray="none" stroke-dashoffset="0" stroke-linecap="round" stroke-linejoin="round" stroke-miterlimit="4" stroke-opacity="1" stroke-width="2" d="M 323.56055,140.58594 A 14.5,14.5 0 0 0 321.5,148 a 14.5,14.5 0 0 0 14.5,14.5 14.5,14.5 0 0 0 12.58398,-7.31836 z" display="inline" enable-background="new" opacity=".05"/></g><g id="layer5"><path id="path11042-1" fill="#fff" fill-opacity="1" stroke="none" stroke-dasharray="none" stroke-linecap="round" stroke-linejoin="round" stroke-miterlimit="4" stroke-opacity="1" stroke-width="1" d="M 152,43.999994 A 112,112 0 0 0 40,155.99999 112,112 0 0 0 40.04102,157.16991 112,112 0 0 1 152,45.999994 112,112 0 0 1 263.95898,156.83007 a 112,112 0 0 0 0.041,-0.83008 112,112 0 0 0 -112,-111.999996 z" display="inline" enable-background="new" opacity=".3"/><path id="path11042-1-7" fill="#000" fill-opacity="1" stroke="none" stroke-dasharray="none" stroke-linecap="round" stroke-linejoin="round" stroke-miterlimit="4" stroke-opacity="1" stroke-width="1" d="m 152,267.99999 a 112,112 0 0 1 -112,-112 112,112 0 0 1 0.04102,-1.16992 A 112,112 0 0 0 152,265.99999 112,112 0 0 0 263.95898,155.16991 a 112,112 0 0 1 0.041,0.83008 112,112 0 0 1 -112,112 z" display="inline" enable-background="new" opacity=".2"/><path id="path9498-9-1" fill="#000" fill-opacity="1" stroke="none" stroke-dasharray="none" stroke-linecap="round" stroke-linejoin="round" stroke-miterlimit="4" stroke-opacity="1" stroke-width="1.954" d="M 344 61 A 23 23 0 0 0 321 84 A 23 23 0 0 0 344 107 A 23 23 0 0 0 367 84 A 23 23 0 0 0 344 61 z M 344 62 C 356.15027 62 366 71.849738 366 84 C 366 96.150256 356.15026 106 344 106 C 331.84974 106 322 96.150256 322 84 C 322 71.849738 331.84973 62 344 62 z" display="inline" enable-background="new" opacity=".4"/><path id="path9498-1-6" fill="url(#linearGradient8590)" fill-opacity="1" stroke="none" stroke-dasharray="none" stroke-linecap="round" stroke-linejoin="round" stroke-miterlimit="4" stroke-opacity="1" stroke-width="1.869" d="M 344,62.000016 A 22,21.99999 0 0 0 322,84.000013 22,21.99999 0 0 0 344,106 22,21.99999 0 0 0 366,84.000013 22,21.99999 0 0 0 344,62.000016 Z m 0,0.956532 A 21.043478,21.043469 0 0 1 365.04348,84.000013 21.043478,21.043469 0 0 1 344,105.04348 21.043478,21.043469 0 0 1 322.95652,84.000013 21.043478,21.043469 0 0 1 344,62.956548 Z" display="inline" enable-background="new" opacity=".4"/><path id="path9498-9-1-2" fill="#000" fill-opacity="1" stroke="none" stroke-dasharray="none" stroke-linecap="round" stroke-linejoin="round" stroke-miterlimit="4" stroke-opacity="1" stroke-width="1.954" d="m 336,133.00001 c -8.28427,0 -15,6.71572 -15,14.99999 0,8.28427 6.71573,15 15,15 8.28427,0 15,-6.71573 15,-15 0,-8.28427 -6.71573,-14.99999 -15,-14.99999 z M 336,134 c 7.92409,0 14,6.07592 14,14 0,7.92408 -6.07592,14 -14,14 -7.92408,0 -14,-6.07592 -14,-14 0,-7.92408 6.07591,-14 14,-14 z" display="inline" enable-background="new" opacity=".4"/><path id="path9498-1-6-7" fill="url(#linearGradient8590-3)" fill-opacity="1" stroke="none" stroke-dasharray="none" stroke-linecap="round" stroke-linejoin="round" stroke-miterlimit="4" stroke-opacity="1" stroke-width="1.869" d="m 336,134 c -7.73199,0 -14,6.26802 -14,14 0,7.73198 6.26801,14 14,14 7.73199,0 14,-6.26802 14,-14 0,-7.73198 -6.26801,-14 -14,-14 z m 0,1 c 7.39582,0 13,5.60419 13,13 -10e-6,7.39581 -5.60419,13 -13,13 -7.39581,0 -12.99999,-5.60419 -13,-13 0,-7.39581 5.60418,-13 13,-13 z" display="inline" enable-background="new" opacity=".4"/><path id="path9498-9-1-2-4" fill="#000" fill-opacity="1" stroke="none" stroke-dasharray="none" stroke-linecap="round" stroke-linejoin="round" stroke-miterlimit="4" stroke-opacity="1" stroke-width="1.954" d="M 332,189.00001 C 326,189 321,194 321,200 c 0,6.07513 4.92487,11 11,11 6.07514,0 11,-4.92487 11,-11 0,-6.07513 -4.92486,-10.99998 -11,-10.99999 z M 332,190 c 5.811,0 10,4.18901 10,10 0,5.811 -4.18901,10 -10,10 -5.81099,0 -10,-4.189 -10,-10 0,-5.81099 4.189,-10 10,-10 z" display="inline" enable-background="new" opacity=".4"/><path id="path9498-1-6-7-2" fill="url(#linearGradient8590-3-3)" fill-opacity="1" stroke="none" stroke-dasharray="none" stroke-linecap="round" stroke-linejoin="round" stroke-miterlimit="4" stroke-opacity="1" stroke-width="1.869" d="m 332,190.00001 c -5.52284,0 -10,4.47716 -10,10 0,5.52284 4.47716,9.99999 10,9.99999 5.52285,0 10,-4.47715 10,-9.99999 0,-5.52284 -4.47715,-10 -10,-10 z M 332,191 c 5.28274,0 9,3.71727 9,9 0,5.28272 -3.71727,9 -9,9 -5.28272,0 -8.99999,-3.71728 -9,-9 0,-5.28273 3.71728,-9 9,-9 z" display="inline" enable-background="new" opacity=".4"/><path id="path9498-9-1-2-4-9" fill="#000" fill-opacity="1" stroke="none" stroke-dasharray="none" stroke-linecap="round" stroke-linejoin="round" stroke-miterlimit="4" stroke-opacity="1" stroke-width="1.954" d="m 328,237 c -3.81818,0 -7,3.18181 -7,7 0,3.86599 3.13401,7 7,7 3.866,0 7,-3.13401 7,-7 0,-3.866 -3.134,-6.99999 -7,-7 z m 0,1 c 3.69791,0 6,2.30209 6,6 0,3.69791 -2.3021,6 -6,6 -3.6979,0 -6,-2.30209 -6,-6 0,-3.69791 2.30209,-6 6,-6 z" display="inline" enable-background="new" opacity=".4"/><path id="path9498-1-6-7-2-0" fill="url(#linearGradient8590-3-3-4)" fill-opacity="1" stroke="none" stroke-dasharray="none" stroke-linecap="round" stroke-linejoin="round" stroke-miterlimit="4" stroke-opacity="1" stroke-width="1.869" d="m 328,238.00002 c -3.31371,0 -6,2.68629 -6,5.99999 0,3.31371 2.68629,5.99999 6,5.99999 3.31371,0 6,-2.68628 6,-5.99999 0,-3.3137 -2.68629,-5.99999 -6,-5.99999 z m 0,0.59998 c 3.16964,0 5.39999,2.23037 5.39999,5.40001 0,3.16963 -2.23035,5.39999 -5.39999,5.39999 -3.16963,0 -5.4,-2.23036 -5.4,-5.39999 0,-3.16964 2.23037,-5.40001 5.4,-5.40001 z" display="inline" enable-background="new" opacity=".4"/></g></g></svg>