<svg xmlns="http://www.w3.org/2000/svg" xmlns:svg="http://www.w3.org/2000/svg" xmlns:xlink="http://www.w3.org/1999/xlink" id="svg11300" width="400" height="300" display="inline" enable-background="new" version="1.0"><title id="title3004">Suru Icon Theme Template</title><defs id="defs3"><linearGradient id="linearGradient5661"><stop id="stop5657" offset="0" stop-color="#5884f4" stop-opacity="1"/><stop id="stop5659" offset="1" stop-color="#80a3fa" stop-opacity="1"/></linearGradient><clipPath id="clipPath9430" clipPathUnits="userSpaceOnUse"><path id="path9432" fill="#fff" fill-opacity="1" fill-rule="nonzero" stroke="none" stroke-width="1" d="m 166.0625,-196 h 179.875 C 491.2348,-196 512,-175.28677 512,-30.125 v 148.25 C 512,263.28618 491.2348,284 345.9375,284 H 166.0625 C 20.7652,284 0,263.28618 0,118.125 V -30.125 C 0,-175.28677 20.7652,-196 166.0625,-196 Z" color="#000" display="inline" enable-background="new" overflow="visible" visibility="visible" style="marker:none"/></clipPath><clipPath id="clipPath1082" clipPathUnits="userSpaceOnUse"><path id="path1084" fill="#8c59d9" fill-opacity="1" stroke="none" stroke-dasharray="none" stroke-dashoffset="0" stroke-linecap="round" stroke-linejoin="round" stroke-miterlimit="4" stroke-opacity="1" stroke-width="2" d="M 361.9375,-212 C 507.2348,-212 528,-191.28677 528,-46.125 V 70.125 C 528,215.28618 507.2348,236 361.9375,236 H 214.0625 C 68.7652,236 48,215.28618 48,70.125 V -46.125 C 48,-191.28677 68.7652,-212 214.0625,-212 Z" display="inline" enable-background="new" opacity="1"/></clipPath><filter id="filter4346" width="1.026" height="1.022" x="-.013" y="-.011" color-interpolation-filters="sRGB"><feGaussianBlur id="feGaussianBlur4348" stdDeviation="2.12"/></filter><linearGradient id="linearGradient4358" x1="88" x2="488" y1="88" y2="488" gradientUnits="userSpaceOnUse" xlink:href="#linearGradient4360"/><linearGradient id="linearGradient4360"><stop id="stop4362" offset="0" stop-color="#000" stop-opacity=".588"/><stop id="stop4364" offset=".88" stop-color="#000" stop-opacity="0"/><stop id="stop4366" offset="1" stop-color="#000" stop-opacity="1"/></linearGradient><filter id="filter4380" width="1.106" height="1.088" x="-.053" y="-.044" color-interpolation-filters="sRGB"><feGaussianBlur id="feGaussianBlur4382" stdDeviation="8.48"/></filter><linearGradient id="linearGradient4226" x1="494.345" x2="4.414" y1="386.295" y2="169.657" gradientTransform="matrix(0,-0.453125,-0.45311204,0,277.957,268)" gradientUnits="userSpaceOnUse" xlink:href="#linearGradient4245"/><linearGradient id="linearGradient927"><stop id="stop923" offset="0" stop-color="#fff" stop-opacity="1"/><stop id="stop933" offset=".125" stop-color="#fff" stop-opacity=".098"/><stop id="stop931" offset=".925" stop-color="#fff" stop-opacity=".098"/><stop id="stop925" offset="1" stop-color="#fff" stop-opacity=".498"/></linearGradient><clipPath id="clipPath994" clipPathUnits="userSpaceOnUse"><path id="path996" fill="#cdcdcd" fill-opacity="1" fill-rule="nonzero" stroke="none" stroke-dasharray="none" stroke-miterlimit="4" stroke-opacity="1" stroke-width="2" d="m 335.73108,62 c -8.82418,0 -9.77365,0.90635 -9.7304,9.74838 V 84 96.25162 c -0.0433,8.84203 0.90622,9.74838 9.7304,9.74838 h 16.53919 c 8.82418,0 9.7304,-0.90625 9.7304,-9.74838 V 84 71.74838 C 362.00067,62.90625 361.09445,62 352.27027,62 Z" color="#000" display="inline" enable-background="accumulate" overflow="visible" visibility="visible" style="marker:none"/></clipPath><linearGradient id="linearGradient1004" x1="344" x2="344" y1="62" y2="106" gradientUnits="userSpaceOnUse" xlink:href="#linearGradient927"/><linearGradient id="linearGradient916" x1="441.379" x2="52.966" y1="240.303" y2="386.308" gradientTransform="matrix(0,-0.05921519,0.05978336,0,313.2699,214.63635)" gradientUnits="userSpaceOnUse" xlink:href="#linearGradient4245"/><linearGradient id="linearGradient920" x1="441.379" x2="52.965" y1="240.282" y2="401.43" gradientTransform="matrix(0,-0.0386186,0.03904659,0,315.4715,253.54546)" gradientUnits="userSpaceOnUse" xlink:href="#linearGradient4245"/><clipPath id="clipPath959" clipPathUnits="userSpaceOnUse"><path id="path961" fill="#46a926" fill-opacity="1" fill-rule="nonzero" stroke="none" stroke-dasharray="none" stroke-miterlimit="4" stroke-opacity="1" stroke-width="2" d="m 330.1929,133.99999 c -5.61538,0 -6.21958,0.57678 -6.19206,6.20352 v 7.79648 7.79648 c -0.0276,5.62673 0.57668,6.20351 6.19206,6.20351 h 11.615 c 5.6154,0 6.19208,-0.5767 6.19208,-6.20351 v -7.79648 -7.79648 c 0,-5.6268 -0.5767,-6.20352 -6.19208,-6.20352 z" color="#000" display="inline" enable-background="accumulate" opacity="1" overflow="visible" visibility="visible" style="marker:none"/></clipPath><clipPath id="clipPath971" clipPathUnits="userSpaceOnUse"><path id="path973" fill="#46a926" fill-opacity="1" fill-rule="nonzero" stroke="none" stroke-dasharray="none" stroke-miterlimit="4" stroke-opacity="1" stroke-width="2" d="m 327.8652,189 c -4.41209,0 -4.88682,0.45318 -4.8652,4.87419 V 200 206.12581 C 322.9783,210.54682 323.45311,211 327.8652,211 h 8.2696 C 340.54689,211 341,210.54688 341,206.12581 V 200 193.87419 C 341,189.45313 340.54688,189 336.13479,189 Z" color="#000" display="inline" enable-background="accumulate" opacity="1" overflow="visible" visibility="visible" style="marker:none"/></clipPath><linearGradient id="linearGradient981" x1="332" x2="332" y1="189" y2="211" gradientUnits="userSpaceOnUse" xlink:href="#linearGradient927"/><clipPath id="clipPath983" clipPathUnits="userSpaceOnUse"><path id="path985" fill="#46a926" fill-opacity="1" fill-rule="nonzero" stroke="none" stroke-dasharray="none" stroke-miterlimit="4" stroke-opacity="1" stroke-width="2" d="m 325.09646,237 c -2.80769,0 -3.10979,0.28839 -3.09603,3.10176 V 244 v 3.89824 c -0.0138,2.81337 0.28834,3.10176 3.09603,3.10176 h 5.8075 C 333.71166,251 334,250.71165 334,247.89824 V 244 240.10176 C 334,237.28836 333.71165,237 330.90396,237 Z" color="#000" display="inline" enable-background="accumulate" opacity="1" overflow="visible" visibility="visible" style="marker:none"/></clipPath><linearGradient id="linearGradient993" x1="328" x2="328" y1="237" y2="251" gradientUnits="userSpaceOnUse" xlink:href="#linearGradient927"/><linearGradient id="linearGradient4336-3"><stop id="stop4338-8" offset="0" stop-color="#5884f4" stop-opacity="1"/><stop id="stop4344-3" offset=".278" stop-color="#5884f4" stop-opacity="1"/><stop id="stop4346-3" offset=".278" stop-color="#2f5fdd" stop-opacity="1"/><stop id="stop4350-1" offset=".707" stop-color="#2f5fdd" stop-opacity="1"/><stop id="stop4348-6" offset=".709" stop-color="#234db8" stop-opacity="1"/><stop id="stop4340-0" offset="1" stop-color="#234db8" stop-opacity="1"/></linearGradient><linearGradient id="linearGradient3194" x1="335.232" x2="352.27" y1="61.5" y2="106" gradientUnits="userSpaceOnUse" xlink:href="#linearGradient4245"/><linearGradient id="linearGradient1004-8" x1="344" x2="344" y1="62" y2="106" gradientUnits="userSpaceOnUse" xlink:href="#linearGradient927"/><clipPath id="clipPath994-1" clipPathUnits="userSpaceOnUse"><path id="path996-8" fill="#cdcdcd" fill-opacity="1" fill-rule="nonzero" stroke="none" stroke-dasharray="none" stroke-miterlimit="4" stroke-opacity="1" stroke-width="2" d="m 335.73108,62 c -8.82418,0 -9.77365,0.90635 -9.7304,9.74838 V 84 96.25162 c -0.0433,8.84203 0.90622,9.74838 9.7304,9.74838 h 16.53919 c 8.82418,0 9.7304,-0.90625 9.7304,-9.74838 V 84 71.74838 C 362.00067,62.90625 361.09445,62 352.27027,62 Z" color="#000" display="inline" enable-background="accumulate" overflow="visible" visibility="visible" style="marker:none"/></clipPath><linearGradient id="linearGradient3257" x1="330.075" x2="341.926" y1="133.5" y2="162.5" gradientUnits="userSpaceOnUse" xlink:href="#linearGradient4245"/><linearGradient id="linearGradient4245"><stop id="stop4241" offset="0" stop-color="#e8e8e8" stop-opacity="1"/><stop id="stop4243" offset="1" stop-color="#f5f5f5" stop-opacity="1"/></linearGradient><linearGradient id="linearGradient5663" x1="126.747" x2="169.497" y1="99.032" y2="214.25" gradientTransform="translate(0.99969371,0.99999846)" gradientUnits="userSpaceOnUse" xlink:href="#linearGradient5661"/><filter id="filter5669" width="1.097" height="1.095" x="-.049" y="-.047" color-interpolation-filters="sRGB"><feGaussianBlur id="feGaussianBlur5671" stdDeviation="2.265"/></filter><linearGradient id="linearGradient5663-9" x1="126.747" x2="169.497" y1="99.032" y2="214.25" gradientTransform="matrix(0.21428574,0,0,0.21428574,311.73012,51.357279)" gradientUnits="userSpaceOnUse" xlink:href="#linearGradient5661"/><linearGradient id="linearGradient5663-9-2" x1="126.747" x2="169.497" y1="99.032" y2="214.25" gradientTransform="matrix(0.14285716,0,0,0.14285716,314.38607,125.57143)" gradientUnits="userSpaceOnUse" xlink:href="#linearGradient5661"/><linearGradient id="linearGradient5663-9-2-9" x1="126.747" x2="169.497" y1="99.032" y2="214.25" gradientTransform="matrix(0.10714287,0,0,0.10714287,315.81454,183.17855)" gradientUnits="userSpaceOnUse" xlink:href="#linearGradient5661"/><linearGradient id="linearGradient5953" x1="126.747" x2="169.497" y1="99.032" y2="214.25" gradientTransform="matrix(0.08928572,0,0,0.08928572,314.52878,229.98214)" gradientUnits="userSpaceOnUse" xlink:href="#linearGradient5661"/><filter id="filter11887" width="1.097" height="1.095" x="-.049" y="-.047" color-interpolation-filters="sRGB"><feGaussianBlur id="feGaussianBlur11889" stdDeviation=".485"/></filter></defs><metadata id="metadata4"/><g id="layer1" display="inline"><g id="layer7" display="none"><text enable-background="new" style="line-height:0%;-inkscape-font-specification:'DejaVu Sans'" id="context" x="19.007" y="-8.255" fill="#000" fill-opacity="1" stroke="none" display="inline" font-family="DejaVu Sans" font-stretch="normal" font-style="normal" font-variant="normal" font-weight="normal" xml:space="preserve"><tspan id="tspan3933" x="19.007" y="-8.255" font-family="DejaVu Sans" font-size="18" font-stretch="normal" font-style="normal" font-variant="normal" font-weight="normal" style="line-height:1.25;-inkscape-font-specification:'DejaVu Sans'">apps</tspan></text><text id="icon-name" x="146.488" y="-8.255" fill="#000" fill-opacity="1" stroke="none" display="inline" enable-background="new" font-family="DejaVu Sans" font-stretch="normal" font-style="normal" font-variant="normal" font-weight="bold" text-anchor="start" writing-mode="lr-tb" xml:space="preserve" style="line-height:0%;-inkscape-font-specification:'DejaVu Sans Bold';text-align:start"><tspan id="tspan3937" x="146.488" y="-8.255" font-family="DejaVu Sans" font-size="18" font-stretch="normal" font-style="normal" font-variant="normal" font-weight="bold" style="line-height:1.25;-inkscape-font-specification:'DejaVu Sans Bold'">gnome-mahjongg</tspan></text><rect id="rect16x16" width="16" height="16" x="320" y="236" fill="#cdcdcd" fill-opacity="1" fill-rule="nonzero" stroke="none" stroke-width="2" display="inline" enable-background="accumulate" overflow="visible" visibility="visible" style="marker:none"/><rect id="rect24x24" width="24" height="24" x="320" y="188" fill="#cdcdcd" fill-opacity="1" fill-rule="nonzero" stroke="none" stroke-width="2" display="inline" enable-background="accumulate" overflow="visible" visibility="visible" style="marker:none"/><rect id="rect32x32" width="32" height="32" x="320" y="132" fill="#cdcdcd" fill-opacity="1" fill-rule="nonzero" stroke="none" stroke-width="2" display="inline" enable-background="accumulate" overflow="visible" visibility="visible" style="marker:none"/><rect id="rect48x48" width="48" height="48" x="320" y="60" fill="#cdcdcd" fill-opacity="1" fill-rule="nonzero" stroke="none" stroke-width="2" display="inline" enable-background="accumulate" overflow="visible" visibility="visible" style="marker:none"/><rect id="rect3951" width="256" height="256" x="24" y="28" fill="#cdcdcd" fill-opacity="1" fill-rule="nonzero" stroke="none" stroke-width="2" display="inline" enable-background="accumulate" overflow="visible" visibility="visible" style="marker:none"/></g><g id="layer8" display="inline"><path id="path995" fill="#000" fill-opacity="1" fill-rule="nonzero" stroke="none" stroke-dasharray="none" stroke-dashoffset="0" stroke-linecap="butt" stroke-linejoin="miter" stroke-miterlimit="4" stroke-opacity="1" stroke-width="2" d="m 327.86523,189 c -1.12014,0 -2.01524,0.0241 -2.79101,0.1543 -0.77577,0.13022 -1.48014,0.38763 -2.00977,0.91601 -0.52962,0.52838 -0.79079,1.23687 -0.91992,2.01367 -0.12912,0.77681 -0.15002,1.67169 -0.14453,2.79493 V 201 v 6.125 c -0.005,1.12104 0.0156,2.01529 0.14453,2.79102 0.12912,0.77681 0.39029,1.48529 0.91992,2.01367 0.52964,0.52838 1.234,0.78579 2.00977,0.91601 0.77577,0.13022 1.67087,0.1543 2.79101,0.1543 h 8.26954 c 1.12013,0 2.01264,-0.024 2.78711,-0.1543 0.77446,-0.13033 1.48001,-0.38927 2.00781,-0.91797 0.5278,-0.52869 0.78594,-1.23438 0.91601,-2.00976 C 341.97577,209.14258 342,208.24735 342,207.125 V 201 194.875 c 0,-1.12235 -0.0242,-2.01758 -0.1543,-2.79297 -0.13007,-0.77538 -0.38821,-1.48107 -0.91601,-2.00976 -0.5278,-0.5287 -1.23334,-0.78764 -2.00781,-0.91797 C 338.1474,189.02397 337.25491,189 336.13477,189 Z" baseline-shift="baseline" clip-rule="nonzero" color="#000" color-interpolation="sRGB" color-interpolation-filters="linearRGB" color-rendering="auto" direction="ltr" display="inline" dominant-baseline="auto" enable-background="accumulate" font-family="sans-serif" font-size="medium" font-stretch="normal" font-style="normal" font-variant="normal" font-weight="normal" image-rendering="auto" letter-spacing="normal" opacity=".1" overflow="visible" shape-rendering="auto" text-anchor="start" text-decoration="none" text-rendering="auto" vector-effect="none" visibility="visible" word-spacing="normal" writing-mode="lr-tb" style="line-height:normal;font-variant-ligatures:normal;font-variant-position:normal;font-variant-caps:normal;font-variant-numeric:normal;font-variant-alternates:normal;font-feature-settings:normal;text-indent:0;text-align:start;text-decoration-line:none;text-decoration-style:solid;text-decoration-color:#000;text-transform:none;text-orientation:mixed;white-space:normal;shape-padding:0;isolation:auto;mix-blend-mode:normal;solid-color:#000;solid-opacity:1;marker:none"/><path id="path997" fill="#000" fill-opacity="1" fill-rule="nonzero" stroke="none" stroke-dasharray="none" stroke-dashoffset="0" stroke-linecap="butt" stroke-linejoin="miter" stroke-miterlimit="4" stroke-opacity="1" stroke-width="2" d="m 325.0957,237 c -0.71904,0 -1.30185,0.0139 -1.83593,0.10352 -0.53409,0.0897 -1.0683,0.27628 -1.47657,0.68359 -0.40826,0.4073 -0.59657,0.94323 -0.68554,1.47851 -0.089,0.53529 -0.10119,1.12048 -0.0977,1.8418 V 244 v 3.89844 c -0.003,0.71816 0.009,1.30235 0.0977,1.83594 0.089,0.53528 0.27727,1.07121 0.68554,1.47851 0.40827,0.40731 0.94248,0.59394 1.47657,0.68359 0.53408,0.0897 1.11689,0.10352 1.83593,0.10352 h 5.8086 c 0.71904,0 1.30058,-0.0137 1.83398,-0.10352 0.53341,-0.0898 1.06768,-0.27792 1.47461,-0.68554 0.40693,-0.40762 0.59404,-0.94271 0.68359,-1.47656 C 334.98604,249.20052 335,248.61887 335,247.89844 V 244 241.10156 c 0,-0.72043 -0.014,-1.30208 -0.10352,-1.83594 -0.0895,-0.53385 -0.27666,-1.06894 -0.68359,-1.47656 -0.40693,-0.40762 -0.9412,-0.59578 -1.47461,-0.68554 C 332.20488,237.01375 331.62334,237 330.9043,237 Z" baseline-shift="baseline" clip-rule="nonzero" color="#000" color-interpolation="sRGB" color-interpolation-filters="linearRGB" color-rendering="auto" direction="ltr" display="inline" dominant-baseline="auto" enable-background="accumulate" font-family="sans-serif" font-size="medium" font-stretch="normal" font-style="normal" font-variant="normal" font-weight="normal" image-rendering="auto" letter-spacing="normal" opacity=".1" overflow="visible" shape-rendering="auto" text-anchor="start" text-decoration="none" text-rendering="auto" vector-effect="none" visibility="visible" word-spacing="normal" writing-mode="lr-tb" style="line-height:normal;font-variant-ligatures:normal;font-variant-position:normal;font-variant-caps:normal;font-variant-numeric:normal;font-variant-alternates:normal;font-feature-settings:normal;text-indent:0;text-align:start;text-decoration-line:none;text-decoration-style:solid;text-decoration-color:#000;text-transform:none;text-orientation:mixed;white-space:normal;shape-padding:0;isolation:auto;mix-blend-mode:normal;solid-color:#000;solid-opacity:1;marker:none"/><path id="path999" fill="#000" fill-opacity="1" fill-rule="nonzero" stroke="none" stroke-dasharray="none" stroke-dashoffset="0" stroke-linecap="butt" stroke-linejoin="miter" stroke-miterlimit="4" stroke-opacity="1" stroke-width="2" d="m 330.19336,134 c -1.42096,0 -2.54883,0.0308 -3.50586,0.19141 -0.95703,0.16064 -1.79146,0.4726 -2.41211,1.09179 -0.62065,0.61919 -0.93647,1.45612 -1.0957,2.41407 -0.15924,0.95795 -0.18666,2.08705 -0.17969,3.51171 V 149 v 7.79688 c -0.007,1.42131 0.0207,2.5495 0.17969,3.50585 0.15923,0.95796 0.47505,1.79488 1.0957,2.41407 0.62065,0.61919 1.45508,0.93115 2.41211,1.09179 0.95703,0.16065 2.0849,0.19141 3.50586,0.19141 h 11.61523 c 1.42097,0 2.54669,-0.0307 3.50196,-0.19141 0.95527,-0.16075 1.78779,-0.47425 2.40625,-1.09375 0.61845,-0.6195 0.93134,-1.45363 1.09179,-2.41015 C 348.96905,159.34816 349,158.22066 349,156.79688 V 149 141.20312 c 0,-1.42378 -0.031,-2.55128 -0.19141,-3.50781 -0.16045,-0.95653 -0.47334,-1.79065 -1.09179,-2.41015 -0.61846,-0.61951 -1.45098,-0.933 -2.40625,-1.09375 C 344.35528,134.03065 343.22956,134 341.80859,134 Z" baseline-shift="baseline" clip-rule="nonzero" color="#000" color-interpolation="sRGB" color-interpolation-filters="linearRGB" color-rendering="auto" direction="ltr" display="inline" dominant-baseline="auto" enable-background="accumulate" font-family="sans-serif" font-size="medium" font-stretch="normal" font-style="normal" font-variant="normal" font-weight="normal" image-rendering="auto" letter-spacing="normal" opacity=".1" overflow="visible" shape-rendering="auto" text-anchor="start" text-decoration="none" text-rendering="auto" vector-effect="none" visibility="visible" word-spacing="normal" writing-mode="lr-tb" style="line-height:normal;font-variant-ligatures:normal;font-variant-position:normal;font-variant-caps:normal;font-variant-numeric:normal;font-variant-alternates:normal;font-feature-settings:normal;text-indent:0;text-align:start;text-decoration-line:none;text-decoration-style:solid;text-decoration-color:#000;text-transform:none;text-orientation:mixed;white-space:normal;shape-padding:0;isolation:auto;mix-blend-mode:normal;solid-color:#000;solid-opacity:1;marker:none"/><path id="path1020" fill="#000" fill-opacity="1" fill-rule="nonzero" stroke="none" stroke-dasharray="none" stroke-dashoffset="0" stroke-linecap="butt" stroke-linejoin="miter" stroke-miterlimit="4" stroke-opacity="1" stroke-width="2" d="m 335.23093,61.500047 c -2.22316,0 -3.97368,0.05118 -5.41406,0.292969 -1.44039,0.241784 -2.61905,0.695299 -3.48243,1.55664 -0.86337,0.861342 -1.31906,2.039471 -1.55859,3.480469 -0.23953,1.440999 -0.28629,3.195341 -0.27539,5.423828 V 85 97.752143 c -0.0108,2.225063 0.0361,3.978517 0.27539,5.417967 0.23953,1.441 0.69522,2.61913 1.55859,3.48047 0.86338,0.86134 2.04204,1.31486 3.48243,1.55664 1.44039,0.24179 3.1909,0.29297 5.41406,0.29297 h 17.53883 c 2.22317,0 3.97276,-0.0511 5.41017,-0.29297 1.4374,-0.24189 2.61246,-0.69694 3.47265,-1.55859 0.8602,-0.86165 1.31319,-2.03894 1.55468,-3.47852 0.24149,-1.43957 0.29297,-3.190353 0.29297,-5.417967 V 85 72.248094 c 0,-2.227614 -0.0515,-3.978392 -0.29297,-5.417969 -0.24149,-1.439576 -0.69449,-2.616863 -1.55469,-3.478516 -0.86019,-0.861652 -2.03525,-1.316704 -3.47265,-1.558593 -1.4374,-0.24189 -3.187,-0.292969 -5.41016,-0.292969 z" baseline-shift="baseline" clip-rule="nonzero" color="#000" color-interpolation="sRGB" color-interpolation-filters="linearRGB" color-rendering="auto" direction="ltr" display="inline" dominant-baseline="auto" enable-background="accumulate" font-family="sans-serif" font-size="medium" font-stretch="normal" font-style="normal" font-variant="normal" font-weight="normal" image-rendering="auto" letter-spacing="normal" opacity=".1" overflow="visible" shape-rendering="auto" text-anchor="start" text-decoration="none" text-rendering="auto" vector-effect="none" visibility="visible" word-spacing="normal" writing-mode="lr-tb" style="line-height:normal;font-variant-ligatures:normal;font-variant-position:normal;font-variant-caps:normal;font-variant-numeric:normal;font-variant-alternates:normal;font-feature-settings:normal;text-indent:0;text-align:start;text-decoration-line:none;text-decoration-style:solid;text-decoration-color:#000;text-transform:none;text-orientation:mixed;white-space:normal;shape-padding:0;isolation:auto;mix-blend-mode:normal;solid-color:#000;solid-opacity:1;marker:none"/><path id="rect4158-9" fill="#000" fill-opacity="1" fill-rule="nonzero" stroke="none" stroke-width="2" d="M 189.84323,74 C 119.24979,74 111.65402,81.250835 112,151.98706 V 298 444.01294 C 111.65402,514.74917 119.24979,522 189.84323,522 H 386.15677 C 456.75021,522 462.16345,514.72616 464,444.01294 V 298 151.98706 C 464,81.249993 456.75021,74 386.15677,74 Z" color="#000" display="inline" enable-background="accumulate" filter="url(#filter4346)" opacity=".1" overflow="visible" transform="matrix(0.5,0,0,0.5,8,8)" visibility="visible" style="marker:none"/><path id="path4350" fill="url(#linearGradient4358)" fill-opacity="1" fill-rule="nonzero" stroke="none" stroke-width="2" d="M 189.84323,74 C 119.24979,74 111.65402,81.250835 112,151.98706 V 298 444.01294 C 111.65402,514.74917 119.24979,522 189.84323,522 H 386.15677 C 456.75021,522 464,514.75001 464,444.01294 V 298 151.98706 C 464,81.249993 456.75021,74 386.15677,74 Z" color="#000" display="inline" enable-background="accumulate" filter="url(#filter4380)" opacity=".3" overflow="visible" transform="matrix(0.5,0,0,0.5,8,8)" visibility="visible" style="marker:none"/><path id="rect4158-7" fill="#000" fill-opacity="1" fill-rule="nonzero" stroke="none" stroke-width="1.02" d="M 101.8116,42 C 65.712789,42 61.828597,45.690158 62.005519,81.689842 V 156 230.31016 C 61.828597,266.30985 65.712789,270 101.8116,270 h 100.38732 c 36.09881,0 39.80608,-3.68973 39.80608,-39.68984 V 156 81.689842 C 242.005,45.689729 238.29773,42 202.19892,42 Z" color="#000" display="inline" enable-background="accumulate" opacity=".1" overflow="visible" visibility="visible" style="marker:none"/><path id="path964" fill="url(#linearGradient3194)" fill-opacity="1" fill-rule="nonzero" stroke="none" stroke-width="1" d="m 335.23154,61.500047 c -8.23154,0 -9.77365,0.90635 -9.7304,9.74838 V 84 96.75181 c -0.0433,8.84203 1.49886,9.74838 9.7304,9.74838 h 17.53897 c 8.22949,0 9.73039,-0.90625 9.73039,-9.74838 V 84 71.248427 c 0,-8.84213 -1.5009,-9.74838 -9.7304,-9.74838 z" color="#000" display="inline" enable-background="accumulate" overflow="visible" visibility="visible" style="marker:none"/><path id="rect4158" fill="url(#linearGradient4226)" fill-opacity="1" fill-rule="nonzero" stroke="none" stroke-width="1" d="m 201.07298,44 c 35.29673,0 39.09461,3.625418 38.92162,38.99353 V 156 229.00647 C 240.16759,264.37459 236.36971,268 201.07298,268 H 102.91622 C 67.619504,268 63.994604,264.375 63.994604,229.00647 V 156 82.99353 C 63.994604,47.624997 67.619504,44 102.91622,44 Z" color="#000" display="inline" enable-background="accumulate" overflow="visible" visibility="visible" style="marker:none"/><path id="rect4158-6" fill="#fff" fill-opacity="1" fill-rule="nonzero" stroke="none" stroke-width="1" d="M 239.99414,216.00586 188,268 h 13.07227 c 35.29673,0 39.09486,-3.62602 38.92187,-38.99414 z" color="#000" display="inline" enable-background="accumulate" opacity="1" overflow="visible" visibility="visible" style="marker:none"/><path id="path931" fill="#fff" fill-opacity="1" fill-rule="nonzero" stroke="none" stroke-width="1" d="M 102.92188,44 C 67.625152,44 63.82701,47.626029 64,82.994141 v 2 C 63.82701,49.626029 67.625152,46 102.92188,46 h 98.15624 C 236.37485,46 240,49.625608 240,84.994141 v -2 C 240,47.625608 236.37485,44 201.07812,44 Z" color="#000" display="inline" enable-background="accumulate" opacity=".3" overflow="visible" visibility="visible" style="marker:none"/><path id="path914" fill="url(#linearGradient916)" fill-opacity="1" fill-rule="nonzero" stroke="none" stroke-width="1" d="m 327.636,188.49999 c -4.65703,0 -5.15812,0.47378 -5.1353,5.09575 v 6.40425 6.40426 c -0.0229,4.62196 0.47827,5.09574 5.1353,5.09574 h 8.72869 c 4.65703,0 5.1353,-0.47372 5.1353,-5.09574 v -6.40426 -6.40425 c 0,-4.62202 -0.47828,-5.09575 -5.13531,-5.09575 z" color="#000" display="inline" enable-background="accumulate" overflow="visible" visibility="visible" style="marker:none"/><path id="path918" fill="url(#linearGradient920)" fill-opacity="1" fill-rule="nonzero" stroke="none" stroke-width="1" d="m 324.8545,236.50001 c -3.04166,0 -3.36894,0.30899 -3.35403,3.32331 v 4.17669 4.17668 c -0.0149,3.01433 0.31237,3.32332 3.35403,3.32332 h 6.29146 c 3.04167,0 3.35404,-0.30895 3.35404,-3.32332 v -4.17668 -4.17669 c 0,-3.01436 -0.31238,-3.32331 -3.35404,-3.32331 z" color="#000" display="inline" enable-background="accumulate" overflow="visible" visibility="visible" style="marker:none"/><path id="path931-8" fill="#000" fill-opacity="1" fill-rule="nonzero" stroke="none" stroke-width="1" d="m 102.92728,268 c -35.296731,0 -39.094875,-3.62603 -38.921885,-38.99414 v -2 C 63.832405,262.37397 67.630549,266 102.92728,266 h 98.15624 c 35.29673,0 38.92188,-3.62561 38.92188,-38.99414 v 2 C 240.0054,264.37439 236.38025,268 201.08352,268 Z" color="#000" display="inline" enable-background="accumulate" opacity=".2" overflow="visible" visibility="visible" style="marker:none"/><path id="path958" fill="none" fill-opacity="1" fill-rule="nonzero" stroke="#000" stroke-dasharray="none" stroke-miterlimit="4" stroke-opacity="1" stroke-width="1" d="m 335.23154,61.500047 c -8.23154,0 -9.77365,0.90635 -9.7304,9.74838 V 84 96.75181 c -0.0433,8.84203 1.49886,9.74838 9.7304,9.74838 h 17.53897 c 8.22949,0 9.73039,-0.90625 9.73039,-9.74838 V 84 71.248427 c 0,-8.84213 -1.5009,-9.74838 -9.7304,-9.74838 z" color="#000" display="inline" enable-background="accumulate" opacity=".4" overflow="visible" visibility="visible" style="marker:none"/><path id="path964-7" fill="url(#linearGradient3257)" fill-opacity="1" fill-rule="nonzero" stroke="none" stroke-width="1" d="m 330.07509,133.5 c -5.56175,0 -6.6037,0.58409 -6.57447,6.28227 v 8.21765 8.21781 c -0.0293,5.69818 1.01272,6.28227 6.57447,6.28227 h 11.85044 c 5.56037,0 6.57447,-0.58403 6.57447,-6.28227 v -8.21781 -8.21765 c 0,-5.69824 -1.0141,-6.28227 -6.57447,-6.28227 z" color="#000" display="inline" enable-background="accumulate" overflow="visible" visibility="visible" style="marker:none"/><path id="path958-1" fill="none" fill-opacity="1" fill-rule="nonzero" stroke="#000" stroke-dasharray="none" stroke-miterlimit="4" stroke-opacity="1" stroke-width="1" d="m 330.07509,133.5 c -5.56175,0 -6.6037,0.58409 -6.57447,6.28227 v 8.21765 8.21781 c -0.0293,5.69818 1.01272,6.28227 6.57447,6.28227 h 11.85044 c 5.56037,0 6.57447,-0.58403 6.57447,-6.28227 v -8.21781 -8.21765 c 0,-5.69824 -1.0141,-6.28227 -6.57447,-6.28227 z" color="#000" display="inline" enable-background="accumulate" opacity=".4" overflow="visible" visibility="visible" style="marker:none"/><path id="path990-8" fill="none" fill-opacity="1" fill-rule="nonzero" stroke="url(#linearGradient1004-8)" stroke-dasharray="none" stroke-miterlimit="4" stroke-opacity="1" stroke-width="3.071" d="m 335.73108,62 c -8.82418,0 -9.77365,0.90635 -9.7304,9.74838 V 84 96.25162 c -0.0433,8.84203 0.90622,9.74838 9.7304,9.74838 h 16.53919 c 8.82418,0 9.7304,-0.90625 9.7304,-9.74838 V 84 71.74838 C 362.00067,62.90625 361.09445,62 352.27027,62 Z" clip-path="url(#clipPath994-1)" color="#000" display="inline" enable-background="accumulate" opacity=".7" overflow="visible" transform="matrix(0.66664182,0,0,0.63636364,106.67522,94.545454)" visibility="visible" style="marker:none"/><path id="path990" fill="none" fill-opacity="1" fill-rule="nonzero" stroke="url(#linearGradient1004)" stroke-dasharray="none" stroke-miterlimit="4" stroke-opacity="1" stroke-width="2" d="m 335.73108,62 c -8.82418,0 -9.77365,0.90635 -9.7304,9.74838 V 84 96.25162 c -0.0433,8.84203 0.90622,9.74838 9.7304,9.74838 h 16.53919 c 8.82418,0 9.7304,-0.90625 9.7304,-9.74838 V 84 71.74838 C 362.00067,62.90625 361.09445,62 352.27027,62 Z" clip-path="url(#clipPath994)" color="#000" display="inline" enable-background="accumulate" opacity=".7" overflow="visible" visibility="visible" style="marker:none"/><path id="path935" fill="none" fill-opacity="1" fill-rule="nonzero" stroke="url(#linearGradient981)" stroke-dasharray="none" stroke-miterlimit="4" stroke-opacity="1" stroke-width="2" d="m 327.8652,189 c -4.41209,0 -4.88682,0.45318 -4.8652,4.87419 V 200 206.12581 C 322.9783,210.54682 323.45311,211 327.8652,211 h 8.2696 C 340.54689,211 341,210.54688 341,206.12581 V 200 193.87419 C 341,189.45313 340.54688,189 336.13479,189 Z" clip-path="url(#clipPath971)" color="#000" display="inline" enable-background="accumulate" opacity=".7" overflow="visible" visibility="visible" style="marker:none"/><path id="path937" fill="none" fill-opacity="1" fill-rule="nonzero" stroke="url(#linearGradient993)" stroke-dasharray="none" stroke-miterlimit="4" stroke-opacity="1" stroke-width="1.856" d="m 325.09646,237 c -2.80769,0 -3.10979,0.28839 -3.09603,3.10176 V 244 v 3.89824 c -0.0138,2.81337 0.28834,3.10176 3.09603,3.10176 h 5.8075 C 333.71166,251 334,250.71165 334,247.89824 V 244 240.10176 C 334,237.28836 333.71165,237 330.90396,237 Z" clip-path="url(#clipPath983)" color="#000" display="inline" enable-background="accumulate" opacity=".7" overflow="visible" transform="matrix(1.0833332,0,0,1.0714286,-27.333287,-17.428571)" visibility="visible" style="marker:none"/><path id="rect4158-3" fill="#fff" fill-opacity="1" fill-rule="nonzero" stroke="none" stroke-width="1" d="m 152,44 v 224 h 49.07227 c 35.29673,0 39.09486,-3.62602 38.92187,-38.99414 V 156 82.994141 C 240.16713,47.626029 236.369,44 201.07227,44 Z" color="#000" display="inline" enable-background="accumulate" opacity=".2" overflow="visible" visibility="visible" style="marker:none"/><path id="rect4158-8" fill="#fff" fill-opacity="1" fill-rule="nonzero" stroke="none" stroke-width="1" d="m 63.994141,156 v 73.00586 C 63.994141,264.37439 67.6193,268 102.91602,268 h 98.15625 c 35.29673,0 39.09486,-3.62602 38.92187,-38.99414 V 156 Z" color="#000" display="inline" enable-background="accumulate" opacity=".2" overflow="visible" visibility="visible" style="marker:none"/><path id="path958-6" fill="none" fill-opacity="1" fill-rule="nonzero" stroke="#000" stroke-dasharray="none" stroke-miterlimit="4" stroke-opacity="1" stroke-width=".977" d="m 336.50849,211.51179 c 4.23214,0 5.02499,-0.46371 5.00275,-4.98757 v -6.5241 -6.52423 c 0.0222,-4.52386 -0.77061,-4.98757 -5.00275,-4.98757 h -9.01743 c -4.23108,0 -5.00275,0.46366 -5.00275,4.98757 v 6.52423 6.5241 c 0,4.52391 0.77167,4.98757 5.00275,4.98757 z" color="#000" display="inline" enable-background="accumulate" opacity=".4" overflow="visible" visibility="visible" style="marker:none"/><path id="path958-6-0" fill="none" fill-opacity="1" fill-rule="nonzero" stroke="#000" stroke-dasharray="none" stroke-miterlimit="4" stroke-opacity="1" stroke-width=".977" d="m 331.08651,251.51179 c 2.89732,0 3.44011,-0.30259 3.42488,-3.25454 v -4.25716 -4.25724 c 0.0152,-2.95195 -0.52756,-3.25453 -3.42488,-3.25453 h -6.17331 c -2.8966,0 -3.42488,0.30255 -3.42488,3.25453 v 4.25724 4.25716 c 0,2.95199 0.52828,3.25454 3.42488,3.25454 z" color="#000" display="inline" enable-background="accumulate" opacity=".4" overflow="visible" visibility="visible" style="marker:none"/></g><g id="layer6" display="inline"><g font-family="sans-serif" style="line-height:1.25" id="text5531-9-1" fill="#fff" fill-opacity="1" stroke="none" stroke-width="1" aria-label="東" display="inline" font-size="27.429" font-style="normal" font-weight="normal" letter-spacing="0" transform="translate(0,-0.999997)" word-spacing="0"><path id="path11730-9" fill="#fff" fill-opacity="1" stroke-width=".38" d="m 345.15815,77.232282 v 1.821429 h 7.28572 v 10.071428 h -2.14286 v -0.642857 h -4.39286 q 4.5,3.75 10.39286,5.25 l -1.07143,2.571429 q -4.92857,-1.285714 -10.07143,-6.107143 v 7.071429 h -2.14286 v -6.642858 q -3.75,4.071429 -9.64285,6.000001 l -1.07143,-2.25 q 6.42857,-2.035715 10.17857,-5.892858 h -4.60714 v 0.964286 h -2.14286 V 79.053711 h 7.28571 v -1.821429 h -10.60714 v -2.035714 h 10.60714 v -2.464286 h 2.03572 q 0.85714,0.107143 0.10714,0.642857 v 1.821429 h 10.39286 v 2.035714 z m 0,9.535715 h 5.14286 v -2.142858 h -5.14286 z m 0,-3.857143 h 5.14286 v -2.142857 h -5.14286 z m -7.28571,3.857143 h 5.14285 v -2.142858 h -5.14285 z m 0,-3.857143 h 5.14285 v -2.142857 h -5.14285 z" font-family="ubuntu" font-stretch="normal" font-style="normal" font-variant="normal" font-weight="normal" style="-inkscape-font-specification:ubuntu"/></g><g id="text5531-5" fill="#000" fill-opacity="1" stroke="none" stroke-width="1" aria-label="東" display="inline" filter="url(#filter5669)" font-family="sans-serif" font-size="128" font-style="normal" font-weight="normal" letter-spacing="0" opacity=".1" word-spacing="0" style="line-height:1.25"><path id="path11736" fill="#000" fill-opacity="1" stroke-width=".38" d="m 155.9973,123.75 v 8.5 h 34 v 47 h -10 v -3 h -20.5 q 21,17.5 48.5,24.5 l -5,12 q -23,-6 -47,-28.5 v 33 h -10 v -31 q -17.5,19 -44.99999,28 l -5.000004,-10.5 q 29.999994,-9.5 47.499994,-27.5 h -21.5 v 4.5 h -9.99999 v -48.5 h 33.99999 v -8.5 H 96.497306 v -9.49999 H 145.9973 v -11.5 h 9.5 q 4,0.5 0.5,3 v 8.5 h 48.5 V 123.75 Z m 0,44.5 h 24 v -10 h -24 z m 0,-18 h 24 v -10 h -24 z m -34,18 h 24 v -10 h -24 z m 0,-18 h 24 v -10 h -24 z" font-family="ubuntu" font-stretch="normal" font-style="normal" font-variant="normal" font-weight="normal" style="-inkscape-font-specification:ubuntu"/></g><path id="path932" fill="#fff" fill-opacity="1" stroke="none" stroke-dasharray="none" stroke-dashoffset="0" stroke-linecap="round" stroke-linejoin="round" stroke-miterlimit="4" stroke-opacity="1" stroke-width="2" d="m 63.994,156 v 73.00586 c 0,25.47626 1.88547,34.48036 16.12891,37.52539 C 89.7648,267.6254 101.27848,268 115.03111,268 h 73.9375 c 13.7812,0 25.31269,-0.37517 34.9668,-1.47461 14.24957,-3.05295 16.18309,-12.06603 16.05859,-37.51953 V 156 Z" display="inline" enable-background="new" opacity=".2"/><g id="text5531" fill="url(#linearGradient5663)" fill-opacity="1" stroke="none" stroke-width="1" aria-label="東" font-family="sans-serif" font-size="128" font-style="normal" font-weight="normal" letter-spacing="0" word-spacing="0" style="line-height:1.25"><path id="path11733" fill="url(#linearGradient5663)" fill-opacity="1" stroke-width=".38" d="m 156.997,121.75 v 8.5 h 34 v 47 h -10 v -3 h -20.5 q 21,17.5 48.49999,24.5 l -5,12 q -22.99999,-6 -46.99999,-28.5 v 33 h -10 v -31 q -17.5,19 -45,28 l -4.999999,-10.5 Q 126.997,192.25 144.497,174.25 h -21.5 v 4.5 h -10 v -48.5 h 34 v -8.5 H 97.497001 v -9.49999 H 146.997 v -11.5 h 9.5 q 4,0.5 0.5,3 v 8.5 h 48.49999 V 121.75 Z m 0,44.5 h 24 v -10 h -24 z m 0,-18 h 24 v -10 h -24 z m -34,18 h 24 v -10 h -24 z m 0,-18 h 24 v -10 h -24 z" font-family="ubuntu" font-stretch="normal" font-style="normal" font-variant="normal" font-weight="normal" style="-inkscape-font-specification:ubuntu"/></g><path id="text5531-3" fill="#fff" fill-opacity="1" stroke="none" stroke-width="1" d="m 146.99774,100.75 v 1 h 9.5 c 0.98305,0.12288 1.62027,0.3385 1.92383,0.64258 0.53251,-0.8607 -0.0889,-1.41321 -1.92383,-1.64258 z m -49.499999,11.5 v 1 h 49.499999 v -1 z m 59.499999,0 v 1 h 48.5 v -1 z m -44,18 v 1 h 34 v -1 z m 44,0 v 1 h 34 v -1 z m -34,18 v 1 h 24 v -1 z m 34,0 v 1 h 24 v -1 z m -34,18 v 1 h 24 v -1 z m 34,0 v 1 h 24 v -1 z m -13.50977,9 c -11.56601,11.50618 -27.05438,20.34531 -46.490229,26.5 l 0.412109,0.86523 c 19.80339,-6.32842 35.50234,-15.44867 47.08789,-27.36523 z m 17.00977,0 c 13.90377,11.58648 29.94725,19.71606 48.125,24.39844 l 0.375,-0.89844 c -17.79962,-4.53081 -33.55072,-12.37082 -47.26563,-23.5 z" display="inline" enable-background="new" font-family="sans-serif" font-size="128" font-style="normal" font-weight="normal" letter-spacing="0" opacity=".3" word-spacing="0" style="line-height:1.25"/><g id="text5531-9-7" fill="#000" fill-opacity="1" stroke="none" stroke-width="1" aria-label="東" display="inline" filter="url(#filter11887)" font-family="sans-serif" font-size="27.429" font-style="normal" font-weight="normal" letter-spacing="0" opacity=".2" transform="translate(0,1.000003)" word-spacing="0" style="line-height:1.25"><path id="path11730-2" fill="#000" fill-opacity="1" stroke-width=".38" d="m 345.15815,77.232282 v 1.821429 h 7.28572 v 10.071428 h -2.14286 v -0.642857 h -4.39286 q 4.5,3.75 10.39286,5.25 l -1.07143,2.571429 q -4.92857,-1.285714 -10.07143,-6.107143 v 7.071429 h -2.14286 v -6.642858 q -3.75,4.071429 -9.64285,6.000001 l -1.07143,-2.25 q 6.42857,-2.035715 10.17857,-5.892858 h -4.60714 v 0.964286 h -2.14286 V 79.053711 h 7.28571 v -1.821429 h -10.60714 v -2.035714 h 10.60714 v -2.464286 h 2.03572 q 0.85714,0.107143 0.10714,0.642857 v 1.821429 h 10.39286 v 2.035714 z m 0,9.535715 h 5.14286 v -2.142858 h -5.14286 z m 0,-3.857143 h 5.14286 v -2.142857 h -5.14286 z m -7.28571,3.857143 h 5.14285 v -2.142858 h -5.14285 z m 0,-3.857143 h 5.14285 v -2.142857 h -5.14285 z" font-family="ubuntu" font-stretch="normal" font-style="normal" font-variant="normal" font-weight="normal" style="-inkscape-font-specification:ubuntu"/></g><g id="text5531-9" fill="url(#linearGradient5663-9)" fill-opacity="1" stroke="none" stroke-width="1" aria-label="東" display="inline" font-family="sans-serif" font-size="27.429" font-style="normal" font-weight="normal" letter-spacing="0" word-spacing="0" style="line-height:1.25"><path id="path11730" fill="url(#linearGradient5663-9)" fill-opacity="1" stroke-width=".38" d="m 345.15815,77.232282 v 1.821429 h 7.28572 v 10.071428 h -2.14286 v -0.642857 h -4.39286 q 4.5,3.75 10.39286,5.25 l -1.07143,2.571429 q -4.92857,-1.285714 -10.07143,-6.107143 v 7.071429 h -2.14286 v -6.642858 q -3.75,4.071429 -9.64285,6.000001 l -1.07143,-2.25 q 6.42857,-2.035715 10.17857,-5.892858 h -4.60714 v 0.964286 h -2.14286 V 79.053711 h 7.28571 v -1.821429 h -10.60714 v -2.035714 h 10.60714 v -2.464286 h 2.03572 q 0.85714,0.107143 0.10714,0.642857 v 1.821429 h 10.39286 v 2.035714 z m 0,9.535715 h 5.14286 v -2.142858 h -5.14286 z m 0,-3.857143 h 5.14286 v -2.142857 h -5.14286 z m -7.28571,3.857143 h 5.14285 v -2.142858 h -5.14285 z m 0,-3.857143 h 5.14285 v -2.142857 h -5.14285 z" font-family="ubuntu" font-stretch="normal" font-style="normal" font-variant="normal" font-weight="normal" style="-inkscape-font-specification:ubuntu"/></g><path id="text5531-31" fill="#000" fill-opacity="1" stroke="none" stroke-width="1" d="m 158.41992,101.39258 c -0.24136,0.39011 -0.69608,0.8376 -1.42383,1.35742 v 1 c 1.47317,-1.05226 1.94372,-1.83664 1.42383,-2.35742 z M 97.496094,120.75 v 1 h 49.499996 v -1 z m 59.499996,0 v 1 h 48.5 v -1 z m -34,16.5 v 1 h 24 v -1 z m 34,0 v 1 h 24 v -1 z m -34,18 v 1 h 24 v -1 z m 34,0 v 1 h 24 v -1 z m -34,18 v 1 h 20.49024 c 0.33571,-0.33398 0.68068,-0.66151 1.00976,-1 z m 37.5,0 c 0.40757,0.33964 0.82314,0.66629 1.23438,1 h 19.26562 v -1 z m 20.5,3 v 1 h 10 v -1 z m -68,1.5 v 1 h 10 v -1 z m 44,3.5 v 1 c 16,15 31.66667,24.5 47,28.5 l 5,-12 c -0.126,-0.0321 -0.2492,-0.0692 -0.375,-0.10156 l -4.625,11.10156 c -15.33333,-4 -31,-13.5 -47,-28.5 z m -10,2 c -11.66666,12.66667 -26.66666,22 -45,28 l -4.587887,-9.63477 c -0.138663,0.0443 -0.273043,0.0907 -0.412109,0.13477 l 4.999996,10.5 c 18.33334,-6 33.33334,-15.33333 45,-28 z m 0,31 v 1 h 10 v -1 z" display="inline" enable-background="new" font-family="sans-serif" font-size="128" font-style="normal" font-weight="normal" letter-spacing="0" opacity=".2" word-spacing="0" style="line-height:1.25"/><g id="text5531-9-3" fill="url(#linearGradient5663-9-2)" fill-opacity="1" stroke="none" stroke-width="1" aria-label="東" display="inline" font-family="sans-serif" font-size="18.286" font-style="normal" font-weight="normal" letter-spacing="0" word-spacing="0" style="line-height:1.25"><path id="path11727" fill="url(#linearGradient5663-9-2)" fill-opacity="1" stroke-width=".38" d="m 336.67144,142.82143 v 1.21429 h 4.85715 v 6.71429 h -1.42857 v -0.42858 h -2.92858 q 3,2.50001 6.92858,3.50001 l -0.71429,1.71428 q -3.28571,-0.85714 -6.71429,-4.07143 v 4.71429 h -1.42857 v -4.42857 q -2.5,2.71428 -6.42857,4 l -0.71429,-1.5 q 4.28572,-1.35715 6.78572,-3.92858 h -3.07143 v 0.64286 h -1.42857 v -6.92857 h 4.85714 v -1.21429 h -7.07143 v -1.35714 h 7.07143 v -1.64286 h 1.35715 q 0.57142,0.0714 0.0714,0.42858 v 1.21428 H 343.6 v 1.35714 z m 0,6.35715 h 3.42858 v -1.42857 h -3.42858 z m 0,-2.57143 h 3.42858 v -1.42857 h -3.42858 z m -4.85714,2.57143 h 3.42857 v -1.42857 h -3.42857 z m 0,-2.57143 h 3.42857 v -1.42857 h -3.42857 z" font-family="ubuntu" font-stretch="normal" font-style="normal" font-variant="normal" font-weight="normal" style="-inkscape-font-specification:ubuntu"/></g><g id="text5531-9-3-9" fill="url(#linearGradient5663-9-2-9)" fill-opacity="1" stroke="none" stroke-width="1" aria-label="東" display="inline" font-family="sans-serif" font-size="13.714" font-style="normal" font-weight="normal" letter-spacing="0" word-spacing="0" style="line-height:1.25"><path id="path11724" fill="url(#linearGradient5663-9-2-9)" fill-opacity="1" stroke-width=".38" d="m 332.52857,196.11606 v 0.91072 h 3.64286 v 5.03571 H 335.1 v -0.32143 h -2.19643 q 2.25,1.875 5.19643,2.625 l -0.53572,1.28572 q -2.46428,-0.64286 -5.03571,-3.05357 v 3.53571 h -1.07143 v -3.32143 q -1.875,2.03572 -4.82143,3 l -0.53571,-1.125 q 3.21428,-1.01785 5.08928,-2.94643 h -2.30357 v 0.48215 h -1.07143 v -5.19643 h 3.64286 v -0.91072 h -5.30357 v -1.01785 h 5.30357 v -1.23215 h 1.01786 q 0.42857,0.0536 0.0536,0.32143 v 0.91072 h 5.19643 v 1.01785 z m 0,4.76786 H 335.1 v -1.07143 h -2.57143 z m 0,-1.92857 H 335.1 v -1.07143 h -2.57143 z m -3.64286,1.92857 h 2.57143 v -1.07143 h -2.57143 z m 0,-1.92857 h 2.57143 v -1.07143 h -2.57143 z" font-family="ubuntu" font-stretch="normal" font-style="normal" font-variant="normal" font-weight="normal" style="-inkscape-font-specification:ubuntu"/></g><path font-size="medium" style="line-height:1.25;-inkscape-font-specification:ubuntu" id="path5950" fill="url(#linearGradient5953)" fill-opacity="1" stroke="none" stroke-width=".38" d="m 327,239 v 1 h -4 v 1 h 4 v 1 h -3 v 4 h 1 v -1 h 2 l -3,3 1,1 2,-2 v 2 c 0,0 0.61141,0.22089 2,0 v -2 l 2,2 1,-1 -3,-3 h 2 v 1 h 1 v -4 h -3 v -1 h 4 v -1 h -4 v -1 z m -2,4 h 2 v 1 h -2 z m 4,0 h 2 v 1 h -2 z" font-family="ubuntu" font-stretch="normal" font-style="normal" font-variant="normal" font-weight="normal" letter-spacing="0" word-spacing="0"/></g></g></svg>