<svg xmlns="http://www.w3.org/2000/svg" xmlns:svg="http://www.w3.org/2000/svg" xmlns:xlink="http://www.w3.org/1999/xlink" id="svg11300" width="400" height="300" display="inline" enable-background="new" version="1.0"><title id="title3004">Suru Icon Theme Template</title><defs id="defs3"><clipPath id="clipPath9430" clipPathUnits="userSpaceOnUse"><path id="path9432" fill="#fff" fill-opacity="1" fill-rule="nonzero" stroke="none" stroke-width="1" d="m 166.0625,-196 h 179.875 C 491.2348,-196 512,-175.28677 512,-30.125 v 148.25 C 512,263.28618 491.2348,284 345.9375,284 H 166.0625 C 20.7652,284 0,263.28618 0,118.125 V -30.125 C 0,-175.28677 20.7652,-196 166.0625,-196 Z" color="#000" display="inline" enable-background="new" overflow="visible" visibility="visible" style="marker:none"/></clipPath><clipPath id="clipPath1082" clipPathUnits="userSpaceOnUse"><path id="path1084" fill="#8c59d9" fill-opacity="1" stroke="none" stroke-dasharray="none" stroke-dashoffset="0" stroke-linecap="round" stroke-linejoin="round" stroke-miterlimit="4" stroke-opacity="1" stroke-width="2" d="M 361.9375,-212 C 507.2348,-212 528,-191.28677 528,-46.125 V 70.125 C 528,215.28618 507.2348,236 361.9375,236 H 214.0625 C 68.7652,236 48,215.28618 48,70.125 V -46.125 C 48,-191.28677 68.7652,-212 214.0625,-212 Z" display="inline" enable-background="new" opacity="1"/></clipPath><linearGradient id="linearGradient927"><stop id="stop923" offset="0" stop-color="#fff" stop-opacity="1"/><stop id="stop933" offset=".125" stop-color="#fff" stop-opacity=".098"/><stop id="stop931" offset=".925" stop-color="#fff" stop-opacity=".098"/><stop id="stop925" offset="1" stop-color="#fff" stop-opacity=".498"/></linearGradient><clipPath id="clipPath994" clipPathUnits="userSpaceOnUse"><path id="path996" fill="#cdcdcd" fill-opacity="1" fill-rule="nonzero" stroke="none" stroke-dasharray="none" stroke-miterlimit="4" stroke-opacity="1" stroke-width="2" d="m 335.73108,62 c -8.82418,0 -9.77365,0.90635 -9.7304,9.74838 V 84 96.25162 c -0.0433,8.84203 0.90622,9.74838 9.7304,9.74838 h 16.53919 c 8.82418,0 9.7304,-0.90625 9.7304,-9.74838 V 84 71.74838 C 362.00067,62.90625 361.09445,62 352.27027,62 Z" color="#000" display="inline" enable-background="accumulate" overflow="visible" visibility="visible" style="marker:none"/></clipPath><clipPath id="clipPath959" clipPathUnits="userSpaceOnUse"><path id="path961" fill="#46a926" fill-opacity="1" fill-rule="nonzero" stroke="none" stroke-dasharray="none" stroke-miterlimit="4" stroke-opacity="1" stroke-width="2" d="m 330.1929,133.99999 c -5.61538,0 -6.21958,0.57678 -6.19206,6.20352 v 7.79648 7.79648 c -0.0276,5.62673 0.57668,6.20351 6.19206,6.20351 h 11.615 c 5.6154,0 6.19208,-0.5767 6.19208,-6.20351 v -7.79648 -7.79648 c 0,-5.6268 -0.5767,-6.20352 -6.19208,-6.20352 z" color="#000" display="inline" enable-background="accumulate" opacity="1" overflow="visible" visibility="visible" style="marker:none"/></clipPath><clipPath id="clipPath971" clipPathUnits="userSpaceOnUse"><path id="path973" fill="#46a926" fill-opacity="1" fill-rule="nonzero" stroke="none" stroke-dasharray="none" stroke-miterlimit="4" stroke-opacity="1" stroke-width="2" d="m 327.8652,189 c -4.41209,0 -4.88682,0.45318 -4.8652,4.87419 V 200 206.12581 C 322.9783,210.54682 323.45311,211 327.8652,211 h 8.2696 C 340.54689,211 341,210.54688 341,206.12581 V 200 193.87419 C 341,189.45313 340.54688,189 336.13479,189 Z" color="#000" display="inline" enable-background="accumulate" opacity="1" overflow="visible" visibility="visible" style="marker:none"/></clipPath><clipPath id="clipPath983" clipPathUnits="userSpaceOnUse"><path id="path985" fill="#46a926" fill-opacity="1" fill-rule="nonzero" stroke="none" stroke-dasharray="none" stroke-miterlimit="4" stroke-opacity="1" stroke-width="2" d="m 325.09646,237 c -2.80769,0 -3.10979,0.28839 -3.09603,3.10176 V 244 v 3.89824 c -0.0138,2.81337 0.28834,3.10176 3.09603,3.10176 h 5.8075 C 333.71166,251 334,250.71165 334,247.89824 V 244 240.10176 C 334,237.28836 333.71165,237 330.90396,237 Z" color="#000" display="inline" enable-background="accumulate" opacity="1" overflow="visible" visibility="visible" style="marker:none"/></clipPath><linearGradient id="linearGradient4336-3"><stop id="stop4338-8" offset="0" stop-color="#5884f4" stop-opacity="1"/><stop id="stop4344-3" offset=".278" stop-color="#5884f4" stop-opacity="1"/><stop id="stop4346-3" offset=".278" stop-color="#2f5fdd" stop-opacity="1"/><stop id="stop4350-1" offset=".707" stop-color="#2f5fdd" stop-opacity="1"/><stop id="stop4348-6" offset=".709" stop-color="#234db8" stop-opacity="1"/><stop id="stop4340-0" offset="1" stop-color="#234db8" stop-opacity="1"/></linearGradient><clipPath id="clipPath994-1" clipPathUnits="userSpaceOnUse"><path id="path996-8" fill="#cdcdcd" fill-opacity="1" fill-rule="nonzero" stroke="none" stroke-dasharray="none" stroke-miterlimit="4" stroke-opacity="1" stroke-width="2" d="m 335.73108,62 c -8.82418,0 -9.77365,0.90635 -9.7304,9.74838 V 84 96.25162 c -0.0433,8.84203 0.90622,9.74838 9.7304,9.74838 h 16.53919 c 8.82418,0 9.7304,-0.90625 9.7304,-9.74838 V 84 71.74838 C 362.00067,62.90625 361.09445,62 352.27027,62 Z" color="#000" display="inline" enable-background="accumulate" overflow="visible" visibility="visible" style="marker:none"/></clipPath><linearGradient id="linearGradient11065" x1="104" x2="200" y1="44" y2="268" gradientTransform="translate(-304,-311.99998)" gradientUnits="userSpaceOnUse" xlink:href="#linearGradient7537"/><filter id="filter11191" width="1.024" height="1.024" x="-.012" y="-.012" color-interpolation-filters="sRGB"><feGaussianBlur id="feGaussianBlur11193" stdDeviation="1.12"/></filter><filter id="filter11210" width="1.096" height="1.096" x="-.048" y="-.048" color-interpolation-filters="sRGB"><feGaussianBlur id="feGaussianBlur11212" stdDeviation="4.48"/></filter><linearGradient id="linearGradient8590" x1="96" x2="96" y1="4" y2="188" gradientTransform="matrix(0.23913043,0,0,0.23913032,321.04348,61.043494)" gradientUnits="userSpaceOnUse" xlink:href="#linearGradient927"/><linearGradient id="linearGradient8588" x1="13.735" x2="38.1" y1="249.694" y2="292.767" gradientTransform="matrix(0.94488193,0,0,0.94488229,-367.49999,-341.12993)" gradientUnits="userSpaceOnUse" xlink:href="#linearGradient7537"/><linearGradient id="linearGradient8590-3" x1="96" x2="96" y1="4" y2="188" gradientTransform="matrix(0.15217394,0,0,0.15217387,321.3913,133.39129)" gradientUnits="userSpaceOnUse" xlink:href="#linearGradient927"/><linearGradient id="linearGradient8588-0" x1="13.735" x2="38.1" y1="249.694" y2="292.767" gradientTransform="matrix(0.60892393,0,0,0.60892417,-351.14444,-313.70596)" gradientUnits="userSpaceOnUse" xlink:href="#linearGradient7537"/><linearGradient id="linearGradient8590-3-3" x1="96" x2="96" y1="4" y2="188" gradientTransform="matrix(0.10869563,0,0,0.10869559,321.56522,189.56521)" gradientUnits="userSpaceOnUse" xlink:href="#linearGradient927"/><linearGradient id="linearGradient8588-0-1" x1="13.735" x2="38.1" y1="249.694" y2="292.767" gradientTransform="matrix(0.44094488,0,0,0.44094506,-342.96666,-319.99396)" gradientUnits="userSpaceOnUse" xlink:href="#linearGradient7537"/><linearGradient id="linearGradient8590-3-3-4" x1="96" x2="96" y1="4" y2="188" gradientTransform="matrix(0.06521734,0,0,0.06521732,321.73913,237.73914)" gradientUnits="userSpaceOnUse" xlink:href="#linearGradient927"/><linearGradient id="linearGradient8588-0-1-5" x1="13.735" x2="38.1" y1="249.694" y2="292.767" gradientTransform="matrix(0.27296588,0,0,0.27296599,-334.78889,-318.28193)" gradientUnits="userSpaceOnUse" xlink:href="#linearGradient7537"/><linearGradient id="linearGradient7537"><stop id="stop7539" offset="0" stop-color="#f37e40" stop-opacity="1"/><stop id="stop7541" offset="1" stop-color="#f34f17" stop-opacity="1"/></linearGradient><filter id="filter5358" width="1.227" height="1.255" x="-.113" y="-.127" color-interpolation-filters="sRGB"><feGaussianBlur id="feGaussianBlur5360" stdDeviation="6.8"/></filter><filter id="filter5380" width="1.023" height="1.026" x="-.011" y="-.013" color-interpolation-filters="sRGB"><feGaussianBlur id="feGaussianBlur5382" stdDeviation=".68"/></filter></defs><metadata id="metadata4"/><g id="layer1" display="inline"><g id="layer7" display="none"><text enable-background="new" style="line-height:0%;-inkscape-font-specification:'DejaVu Sans'" id="context" x="19.007" y="-8.255" fill="#000" fill-opacity="1" stroke="none" display="inline" font-family="DejaVu Sans" font-stretch="normal" font-style="normal" font-variant="normal" font-weight="normal" xml:space="preserve"><tspan id="tspan3933" x="19.007" y="-8.255" font-family="DejaVu Sans" font-size="18" font-stretch="normal" font-style="normal" font-variant="normal" font-weight="normal" style="line-height:1.25;-inkscape-font-specification:'DejaVu Sans'">apps</tspan></text><text id="icon-name" x="146.488" y="-8.255" fill="#000" fill-opacity="1" stroke="none" display="inline" enable-background="new" font-family="DejaVu Sans" font-stretch="normal" font-style="normal" font-variant="normal" font-weight="bold" text-anchor="start" writing-mode="lr-tb" xml:space="preserve" style="line-height:0%;-inkscape-font-specification:'DejaVu Sans Bold';text-align:start"><tspan id="tspan3937" x="146.488" y="-8.255" font-family="DejaVu Sans" font-size="18" font-stretch="normal" font-style="normal" font-variant="normal" font-weight="bold" style="line-height:1.25;-inkscape-font-specification:'DejaVu Sans Bold'">livepatch</tspan></text><rect id="rect16x16" width="16" height="16" x="320" y="236" fill="#cdcdcd" fill-opacity="1" fill-rule="nonzero" stroke="none" stroke-width="2" display="inline" enable-background="accumulate" overflow="visible" visibility="visible" style="marker:none"/><rect id="rect24x24" width="24" height="24" x="320" y="188" fill="#cdcdcd" fill-opacity="1" fill-rule="nonzero" stroke="none" stroke-width="2" display="inline" enable-background="accumulate" overflow="visible" visibility="visible" style="marker:none"/><rect id="rect32x32" width="32" height="32" x="320" y="132" fill="#cdcdcd" fill-opacity="1" fill-rule="nonzero" stroke="none" stroke-width="2" display="inline" enable-background="accumulate" overflow="visible" visibility="visible" style="marker:none"/><rect id="rect48x48" width="48" height="48" x="320" y="60" fill="#cdcdcd" fill-opacity="1" fill-rule="nonzero" stroke="none" stroke-width="2" display="inline" enable-background="accumulate" overflow="visible" visibility="visible" style="marker:none"/><rect id="rect3951" width="256" height="256" x="24" y="28" fill="#cdcdcd" fill-opacity="1" fill-rule="nonzero" stroke="none" stroke-width="2" display="inline" enable-background="accumulate" overflow="visible" visibility="visible" style="marker:none"/></g><g id="layer8" display="inline"><circle id="path11042-0" cx="152" cy="160" r="112" fill="#000" fill-opacity="1" stroke="none" stroke-dasharray="none" stroke-linecap="round" stroke-linejoin="round" stroke-miterlimit="4" stroke-opacity="1" stroke-width="1" display="inline" enable-background="new" filter="url(#filter11210)" opacity=".1"/><circle id="path11042-6" cx="152" cy="158" r="112" fill="#000" fill-opacity="1" stroke="none" stroke-dasharray="none" stroke-linecap="round" stroke-linejoin="round" stroke-miterlimit="4" stroke-opacity="1" stroke-width="1" display="inline" enable-background="new" filter="url(#filter11191)" opacity=".1"/><circle id="path11042-7" cx="152" cy="156" r="114" fill="#000" fill-opacity="1" stroke="none" stroke-dasharray="none" stroke-linecap="round" stroke-linejoin="round" stroke-miterlimit="4" stroke-opacity="1" stroke-width="1" display="inline" enable-background="new" opacity=".1"/><circle id="path11042" cx="-152" cy="-156" r="112" fill="url(#linearGradient11065)" fill-opacity="1" stroke="none" stroke-dasharray="none" stroke-linecap="round" stroke-linejoin="round" stroke-miterlimit="4" stroke-opacity="1" stroke-width="1" display="inline" enable-background="new" opacity="1" transform="scale(-1)"/><path id="path11042-5" cx="152" cy="156" r="112" fill="#fff" fill-opacity="1" stroke="none" stroke-dasharray="none" stroke-linecap="round" stroke-linejoin="round" stroke-miterlimit="4" stroke-opacity="1" stroke-width="1" display="inline" enable-background="new" opacity="1"/><circle id="path9498-0-0" cx="-344" cy="-85" r="23" fill="#000" fill-opacity="1" stroke="none" stroke-dasharray="none" stroke-linecap="round" stroke-linejoin="round" stroke-miterlimit="4" stroke-opacity="1" stroke-width="1.954" display="inline" enable-background="new" opacity=".1" transform="scale(-1)"/><circle id="path9498-6" cx="-344" cy="-84" r="22.5" fill="url(#linearGradient8588)" fill-opacity="1" stroke="none" stroke-dasharray="none" stroke-linecap="round" stroke-linejoin="round" stroke-miterlimit="4" stroke-opacity="1" stroke-width="1.869" display="inline" enable-background="new" opacity="1" transform="scale(-1)"/><circle id="path9498-0-0-2" cx="-336" cy="-149" r="15" fill="#000" fill-opacity="1" stroke="none" stroke-dasharray="none" stroke-linecap="round" stroke-linejoin="round" stroke-miterlimit="4" stroke-opacity="1" stroke-width="1.954" display="inline" enable-background="new" opacity=".1" transform="scale(-1)"/><circle id="path9498-6-5" cx="-336" cy="-148" r="14.5" fill="url(#linearGradient8588-0)" fill-opacity="1" stroke="none" stroke-dasharray="none" stroke-linecap="round" stroke-linejoin="round" stroke-miterlimit="4" stroke-opacity="1" stroke-width="1.869" display="inline" enable-background="new" opacity="1" transform="scale(-1)"/><circle id="path9498-0-0-2-3" cx="-332" cy="-201" r="11" fill="#000" fill-opacity="1" stroke="none" stroke-dasharray="none" stroke-linecap="round" stroke-linejoin="round" stroke-miterlimit="4" stroke-opacity="1" stroke-width="1.954" display="inline" enable-background="new" opacity=".1" transform="scale(-1)"/><circle id="path9498-6-5-6" cx="-332" cy="-200" r="10.5" fill="url(#linearGradient8588-0-1)" fill-opacity="1" stroke="none" stroke-dasharray="none" stroke-linecap="round" stroke-linejoin="round" stroke-miterlimit="4" stroke-opacity="1" stroke-width="1.869" display="inline" enable-background="new" opacity="1" transform="scale(-1)"/><circle id="path9498-0-0-2-3-3" cx="-328" cy="-245" r="7" fill="#000" fill-opacity="1" stroke="none" stroke-dasharray="none" stroke-linecap="round" stroke-linejoin="round" stroke-miterlimit="4" stroke-opacity="1" stroke-width="1.954" display="inline" enable-background="new" opacity=".1" transform="scale(-1)"/><circle id="path9498-6-5-6-8" cx="-328" cy="-244" r="6.5" fill="url(#linearGradient8588-0-1-5)" fill-opacity="1" stroke="none" stroke-dasharray="none" stroke-linecap="round" stroke-linejoin="round" stroke-miterlimit="4" stroke-opacity="1" stroke-width="1.869" display="inline" enable-background="new" opacity="1" transform="scale(-1)"/></g><g id="layer6" display="inline"><path id="rect12119" fill="#fff" fill-opacity="1" stroke="none" stroke-dasharray="none" stroke-linecap="round" stroke-linejoin="round" stroke-miterlimit="4" stroke-opacity="1" stroke-width="10.667" d="M 40,165.6959 A 112.5345,112.53445 0 0 0 151.97753,267.99999 112.5345,112.53445 0 0 0 264,165.6959 Z" display="inline" enable-background="new" opacity=".1"/><path id="rect12119-7" fill="#fff" fill-opacity="1" stroke="none" stroke-dasharray="none" stroke-linecap="round" stroke-linejoin="round" stroke-miterlimit="4" stroke-opacity="1" stroke-width="2" d="m 322.10849,86.000032 a 21.999999,21.99999 0 0 0 21.89112,19.999998 21.999999,21.99999 0 0 0 21.8999,-19.999998 z" display="inline" enable-background="new" opacity=".1"/><path id="rect12119-0" fill="#fff" fill-opacity="1" stroke="none" stroke-dasharray="none" stroke-linecap="round" stroke-linejoin="round" stroke-miterlimit="4" stroke-opacity="1" stroke-width="1.333" d="m 321.40552,149.33337 a 14.666667,14.666661 0 0 0 14.59409,13.33334 14.666667,14.666661 0 0 0 14.59994,-13.33334 z" display="inline" enable-background="new" opacity=".1"/><path id="rect12119-01" fill="#fff" fill-opacity="1" stroke="none" stroke-dasharray="none" stroke-linecap="round" stroke-linejoin="round" stroke-miterlimit="4" stroke-opacity="1" stroke-width="1" d="m 321.05405,201.00004 a 11,10.999995 0 0 0 10.94556,10 11,10.999995 0 0 0 10.94995,-10 z" display="inline" enable-background="new" opacity=".1"/><path id="rect12119-6" fill="#fff" fill-opacity="1" stroke="none" stroke-dasharray="none" stroke-linecap="round" stroke-linejoin="round" stroke-miterlimit="4" stroke-opacity="1" stroke-width=".667" d="m 320.70257,244.66669 a 7.3333329,7.3333299 0 0 0 7.29704,6.66666 7.3333329,7.3333299 0 0 0 7.29996,-6.66666 z" display="inline" enable-background="new" opacity=".1"/><path id="path5281-3" fill="#000" fill-opacity="1" stroke-width=".8" d="m 148,96 c -6.62742,0 -12,5.37258 -12,12 0,6.62742 5.37258,12 12,12 0.45055,-0.005 0.90048,-0.0346 1.34766,-0.0898 C 150.13441,119.96872 151.01387,120 152,120 a 40,40 0 0 1 40,40 40,40 0 0 1 -40,40 40,40 0 0 1 -39.14844,-32 h 13.7461 c 4.15216,-8.9e-4 6.74675,-2.69417 4.67187,-4.84961 l -24.59765,-25.5332 c -0.91856,-0.95362 -2.58271,-1.5614 -4.41797,-1.61328 -2.01601,-0.0565 -3.91674,0.56578 -4.925785,1.61328 l -24.597656,25.5332 c -2.07488,2.15544 0.519711,4.84873 4.671875,4.84961 h 11.113281 c 3.939742,31.56727 30.849735,56 63.484375,56 35.34622,0 64,-28.65378 64,-64 0,-35.34622 -28.65378,-64.000044 -64,-64 -0.90188,10e-7 -1.68056,0.0461 -2.37305,0.125 C 149.0881,96.046467 148.54452,96.004704 148,96 Z" display="inline" enable-background="new" filter="url(#filter5358)" opacity=".1"/><path id="path5281-5" fill="#000" fill-opacity="1" stroke-width=".8" d="m 148,94 c -6.62742,0 -12,5.372583 -12,12 0,6.62742 5.37258,12 12,12 0.45055,-0.005 0.90048,-0.0346 1.34766,-0.0898 C 150.13441,117.96872 151.01387,118 152,118 a 40,40 0 0 1 40,40 40,40 0 0 1 -40,40 40,40 0 0 1 -39.14844,-32 h 13.7461 c 4.15216,-8.9e-4 6.74675,-2.69417 4.67187,-4.84961 l -24.59765,-25.5332 c -0.91856,-0.95362 -2.58271,-1.5614 -4.41797,-1.61328 -2.01601,-0.0565 -3.91674,0.56578 -4.925785,1.61328 l -24.597656,25.5332 c -2.07488,2.15544 0.519711,4.84873 4.671875,4.84961 h 11.113281 c 3.939742,31.56727 30.849735,56 63.484375,56 35.34622,0 64,-28.65378 64,-64 0,-35.34622 -28.65378,-64.000044 -64,-64 -0.90188,10e-7 -1.68056,0.0461 -2.37305,0.125 C 149.0881,94.046467 148.54452,94.004704 148,94 Z" display="inline" enable-background="new" filter="url(#filter5380)" opacity=".1"/><path id="path5281" fill="#faf8f6" fill-opacity="1" stroke-width=".8" d="M 148 92 C 141.37258 92 136 97.372583 136 104 C 136 110.62742 141.37258 116 148 116 C 148.45055 115.995 148.90048 115.96536 149.34766 115.91016 C 150.13441 115.96872 151.01387 116 152 116 A 40 40 0 0 1 192 156 A 40 40 0 0 1 152 196 A 40 40 0 0 1 112.85156 164 L 126.59766 164 C 130.74982 163.99911 133.34441 161.30583 131.26953 159.15039 L 106.67188 133.61719 C 105.75332 132.66357 104.08917 132.05579 102.25391 132.00391 C 100.2379 131.94741 98.33717 132.56969 97.328125 133.61719 L 72.730469 159.15039 C 70.655589 161.30583 73.25018 163.99912 77.402344 164 L 88.515625 164 C 92.455367 195.56727 119.36536 220 152 220 C 187.34622 220 216 191.34622 216 156 C 216 120.65378 187.34622 91.999956 152 92 C 151.09812 92.000001 150.31944 92.0461 149.62695 92.125 C 149.0881 92.046467 148.54452 92.004704 148 92 z" display="inline" enable-background="new"/><path id="path5281-6-2" fill="#000" fill-opacity="1" stroke-width=".175" d="m 343.12492,71 c -1.44976,0 -2.62501,1.175252 -2.62501,2.624996 0,1.449754 1.17525,2.625006 2.62501,2.625006 0.0986,-9.84e-4 0.19698,-0.0079 0.2948,-0.01969 0.1721,0.0128 0.36448,0.01969 0.5802,0.01969 A 8.7500005,8.7500005 0 0 1 352.74991,85 a 8.7500005,8.7500005 0 0 1 -8.74999,8.749998 8.7500005,8.7500005 0 0 1 -8.56373,-7 h 3.00696 c 0.90828,-1.97e-4 1.47585,-0.589344 1.02198,-1.060849 l -5.38074,-5.585388 c -0.20094,-0.208608 -0.56497,-0.341557 -0.96643,-0.352907 -0.441,-0.0124 -0.85679,0.123765 -1.07752,0.352907 l -5.38074,5.585388 c -0.45387,0.471505 0.11369,1.060662 1.02198,1.060849 h 2.43103 C 330.97452,93.65534 336.86109,99 343.99992,99 c 7.73199,0 14,-6.268011 14,-14 0,-7.731989 -6.26801,-14.00001 -14,-14 -0.19729,0 -0.36763,0.01004 -0.51911,0.02737 C 343.36294,71.01014 343.24403,71.00109 343.12492,71 Z" display="inline" enable-background="new" opacity=".15"/><path id="path5281-6" fill="#faf8f6" fill-opacity="1" stroke-width=".175" d="m 343.12492,70 c -1.44976,0 -2.62501,1.175252 -2.62501,2.624996 0,1.449754 1.17525,2.625006 2.62501,2.625006 0.0986,-9.84e-4 0.19698,-0.0079 0.2948,-0.01969 0.1721,0.0128 0.36448,0.01969 0.5802,0.01969 A 8.7500005,8.7500005 0 0 1 352.74991,84 a 8.7500005,8.7500005 0 0 1 -8.74999,8.749998 8.7500005,8.7500005 0 0 1 -8.56373,-7 h 3.00696 c 0.90828,-1.97e-4 1.47585,-0.589344 1.02198,-1.060849 l -5.38074,-5.585388 c -0.20094,-0.208608 -0.56497,-0.341557 -0.96643,-0.352907 -0.441,-0.0124 -0.85679,0.123765 -1.07752,0.352907 l -5.38074,5.585388 c -0.45387,0.471505 0.11369,1.060662 1.02198,1.060849 h 2.43103 C 330.97452,92.65534 336.86109,98 343.99992,98 c 7.73199,0 14,-6.268011 14,-14 0,-7.731989 -6.26801,-14.00001 -14,-14 -0.19729,0 -0.36763,0.01004 -0.51911,0.02737 C 343.36294,70.01014 343.24403,70.00109 343.12492,70 Z" display="inline" enable-background="new"/><path id="path5281-6-1-7" fill="#000" fill-opacity="1" stroke-width=".1" d="m 335.49995,141 c -0.82842,0 -1.5,0.67158 -1.5,1.5 0,0.82842 0.67158,1.5 1.5,1.5 0.0563,-5.6e-4 0.11257,-0.005 0.16846,-0.0113 0.0983,0.007 0.20828,0.0113 0.33154,0.0113 a 5.0000018,5.0000018 0 0 1 5.00001,4.99999 5.0000018,5.0000018 0 0 1 -5.00001,5.00001 5.0000018,5.0000018 0 0 1 -4.89356,-4.00001 h 1.71826 c 0.51902,-1.1e-4 0.84336,-0.33676 0.584,-0.6062 l -3.07472,-3.19165 c -0.11482,-0.1192 -0.32284,-0.19517 -0.55224,-0.20166 -0.252,-0.006 -0.4896,0.0707 -0.61572,0.20166 l -3.07472,3.19165 c -0.25936,0.26944 0.065,0.60609 0.584,0.6062 h 1.38916 c 0.49246,3.94591 3.8562,7.00001 7.93554,7.00001 4.4183,0 8.00002,-3.58172 8.00002,-8.00001 0,-4.41828 -3.58172,-8 -8.00002,-7.99999 -0.11274,0 -0.21006,0.006 -0.29663,0.0156 -0.0674,-0.01 -0.13531,-0.015 -0.20337,-0.0156 z" display="inline" enable-background="new" opacity=".15"/><path id="path5281-6-1" fill="#faf8f6" fill-opacity="1" stroke-width=".1" d="m 335.49995,140 c -0.82842,0 -1.5,0.67158 -1.5,1.5 0,0.82842 0.67158,1.5 1.5,1.5 0.0563,-5.6e-4 0.11257,-0.005 0.16846,-0.0113 0.0983,0.007 0.20828,0.0113 0.33154,0.0113 a 5.0000018,5.0000018 0 0 1 5,4.99999 5.0000018,5.0000018 0 0 1 -5,5.00001 5.0000018,5.0000018 0 0 1 -4.89356,-4.00001 h 1.71826 c 0.51902,-1.1e-4 0.84336,-0.33676 0.584,-0.6062 l -3.07472,-3.19165 c -0.11482,-0.1192 -0.32284,-0.19517 -0.55224,-0.20166 -0.252,-0.006 -0.4896,0.0707 -0.61572,0.20166 l -3.07472,3.19165 c -0.25936,0.26944 0.065,0.60609 0.584,0.6062 h 1.38916 c 0.49246,3.94591 3.8562,7.00001 7.93554,7.00001 4.41829,0 8.00001,-3.58172 8.00001,-8.00001 0,-4.41828 -3.58172,-8 -8.00001,-7.99999 -0.11274,0 -0.21006,0.006 -0.29663,0.0156 -0.0674,-0.01 -0.13531,-0.015 -0.20337,-0.0156 z" display="inline" enable-background="new"/><path id="path5281-6-1-9-6" fill="#000" fill-opacity="1" stroke-width=".075" d="m 331.62497,195 c -0.62131,0 -1.125,0.50369 -1.125,1.125 0,0.62132 0.50369,1.125 1.125,1.125 0.0422,-4.2e-4 0.0844,-0.004 0.12635,-0.008 0.0737,0.005 0.15621,0.008 0.24865,0.008 a 3.7500013,3.7500013 0 0 1 3.75001,3.74999 3.7500013,3.7500013 0 0 1 -3.75001,3.75001 3.7500013,3.7500013 0 0 1 -3.67017,-3.00001 h 1.2887 c 0.38926,-8e-5 0.63252,-0.25257 0.438,-0.45465 l -2.30604,-2.39373 c -0.0861,-0.0894 -0.24213,-0.14638 -0.41418,-0.15125 -0.189,-0.005 -0.3672,0.053 -0.46179,0.15125 l -2.30604,2.39373 c -0.19452,0.20208 0.0487,0.45457 0.438,0.45465 h 1.04187 c 0.36934,2.95944 2.89215,5.25001 5.95165,5.25001 3.31373,0 6.00002,-2.68629 6.00002,-6.00001 0,-3.31371 -2.68629,-6 -6.00002,-5.99999 -0.0845,0 -0.15754,0.005 -0.22247,0.0117 -0.0505,-0.007 -0.10148,-0.0112 -0.15253,-0.0117 z" display="inline" enable-background="new" opacity=".15"/><path id="path5281-6-1-9" fill="#faf8f6" fill-opacity="1" stroke-width=".075" d="m 331.62497,194 c -0.62131,0 -1.125,0.50369 -1.125,1.125 0,0.62132 0.50369,1.125 1.125,1.125 0.0422,-4.2e-4 0.0844,-0.004 0.12635,-0.008 0.0737,0.005 0.15621,0.008 0.24865,0.008 a 3.7500013,3.7500013 0 0 1 3.75001,3.74999 3.7500013,3.7500013 0 0 1 -3.75001,3.75001 3.7500013,3.7500013 0 0 1 -3.67017,-3.00001 h 1.2887 c 0.38926,-8e-5 0.63252,-0.25257 0.438,-0.45465 l -2.30604,-2.39373 c -0.0861,-0.0894 -0.24213,-0.14638 -0.41418,-0.15125 -0.189,-0.005 -0.3672,0.053 -0.46179,0.15125 l -2.30604,2.39373 c -0.19452,0.20208 0.0487,0.45457 0.438,0.45465 h 1.04187 c 0.36934,2.95944 2.89215,5.25001 5.95165,5.25001 3.31373,0 6.00002,-2.68629 6.00002,-6.00001 0,-3.31371 -2.68629,-6 -6.00002,-5.99999 -0.0845,0 -0.15754,0.005 -0.22247,0.0117 -0.0505,-0.007 -0.10148,-0.0112 -0.15253,-0.0117 z" display="inline" enable-background="new"/><path id="path5281-6-1-9-0" fill="#faf8f6" fill-opacity="1" stroke-width=".05" d="m 327.74998,240.00001 c -0.41421,0 -0.75,0.33579 -0.75,0.75 0,0.41421 0.33579,0.75 0.75,0.75 0.0281,-2.8e-4 0.0563,-0.003 0.0842,-0.005 0.0491,0.003 0.10414,0.005 0.16577,0.005 A 2.5000009,2.5000009 0 0 1 330.49999,244 2.5000009,2.5000009 0 0 1 327.99998,246.50001 2.5000009,2.5000009 0 0 1 325.5532,244.5 h 0.85913 c 0.25951,-5e-5 0.42168,-0.16838 0.292,-0.3031 l -1.53736,-1.59582 c -0.0574,-0.0596 -0.16142,-0.0976 -0.27612,-0.10083 -0.126,-0.003 -0.2448,0.0353 -0.30786,0.10083 l -1.53736,1.59582 c -0.12968,0.13472 0.0325,0.30305 0.292,0.3031 h 0.69458 c 0.24623,1.97296 1.9281,3.50001 3.96777,3.50001 2.20915,0 4.00001,-1.79086 4.00001,-4.00001 0,-2.20914 -1.79086,-4 -4.00001,-3.99999 -0.0563,0 -0.10503,0.003 -0.14831,0.008 -0.0337,-0.005 -0.0677,-0.007 -0.10169,-0.008 z" display="inline" enable-background="new"/></g><g id="layer5"><path id="path11042-1" fill="#fff" fill-opacity="1" stroke="none" stroke-dasharray="none" stroke-linecap="round" stroke-linejoin="round" stroke-miterlimit="4" stroke-opacity="1" stroke-width="1" d="M 152,43.999994 A 112,112 0 0 0 40,155.99999 112,112 0 0 0 40.04102,157.16991 112,112 0 0 1 152,45.999994 112,112 0 0 1 263.95898,156.83007 a 112,112 0 0 0 0.041,-0.83008 112,112 0 0 0 -112,-111.999996 z" display="inline" enable-background="new" opacity=".3"/><path id="path11042-1-7" fill="#000" fill-opacity="1" stroke="none" stroke-dasharray="none" stroke-linecap="round" stroke-linejoin="round" stroke-miterlimit="4" stroke-opacity="1" stroke-width="1" d="m 152,267.99999 a 112,112 0 0 1 -112,-112 112,112 0 0 1 0.04102,-1.16992 A 112,112 0 0 0 152,265.99999 112,112 0 0 0 263.95898,155.16991 a 112,112 0 0 1 0.041,0.83008 112,112 0 0 1 -112,112 z" display="inline" enable-background="new" opacity=".2"/><path id="path9498-9-1" fill="#000" fill-opacity="1" stroke="none" stroke-dasharray="none" stroke-linecap="round" stroke-linejoin="round" stroke-miterlimit="4" stroke-opacity="1" stroke-width="1.954" d="M 344 61 A 23 23 0 0 0 321 84 A 23 23 0 0 0 344 107 A 23 23 0 0 0 367 84 A 23 23 0 0 0 344 61 z M 344 62 C 356.15027 62 366 71.849738 366 84 C 366 96.150256 356.15026 106 344 106 C 331.84974 106 322 96.150256 322 84 C 322 71.849738 331.84973 62 344 62 z" display="inline" enable-background="new" opacity=".4"/><path id="path9498-1-6" fill="url(#linearGradient8590)" fill-opacity="1" stroke="none" stroke-dasharray="none" stroke-linecap="round" stroke-linejoin="round" stroke-miterlimit="4" stroke-opacity="1" stroke-width="1.869" d="M 344,62.000016 A 22,21.99999 0 0 0 322,84.000013 22,21.99999 0 0 0 344,106 22,21.99999 0 0 0 366,84.000013 22,21.99999 0 0 0 344,62.000016 Z m 0,0.956532 A 21.043478,21.043469 0 0 1 365.04348,84.000013 21.043478,21.043469 0 0 1 344,105.04348 21.043478,21.043469 0 0 1 322.95652,84.000013 21.043478,21.043469 0 0 1 344,62.956548 Z" display="inline" enable-background="new" opacity=".7"/><path id="path9498-9-1-2" fill="#000" fill-opacity="1" stroke="none" stroke-dasharray="none" stroke-linecap="round" stroke-linejoin="round" stroke-miterlimit="4" stroke-opacity="1" stroke-width="1.954" d="m 336,133.00001 c -8.28427,0 -15,6.71572 -15,14.99999 0,8.28427 6.71573,15 15,15 8.28427,0 15,-6.71573 15,-15 0,-8.28427 -6.71573,-14.99999 -15,-14.99999 z M 336,134 c 7.92409,0 14,6.07592 14,14 0,7.92408 -6.07592,14 -14,14 -7.92408,0 -14,-6.07592 -14,-14 0,-7.92408 6.07591,-14 14,-14 z" display="inline" enable-background="new" opacity=".4"/><path id="path9498-1-6-7" fill="url(#linearGradient8590-3)" fill-opacity="1" stroke="none" stroke-dasharray="none" stroke-linecap="round" stroke-linejoin="round" stroke-miterlimit="4" stroke-opacity="1" stroke-width="1.869" d="m 336,134 c -7.73199,0 -14,6.26802 -14,14 0,7.73198 6.26801,14 14,14 7.73199,0 14,-6.26802 14,-14 0,-7.73198 -6.26801,-14 -14,-14 z m 0,1 c 7.39582,0 13,5.60419 13,13 -10e-6,7.39581 -5.60419,13 -13,13 -7.39581,0 -12.99999,-5.60419 -13,-13 0,-7.39581 5.60418,-13 13,-13 z" display="inline" enable-background="new" opacity=".7"/><path id="path9498-9-1-2-4" fill="#000" fill-opacity="1" stroke="none" stroke-dasharray="none" stroke-linecap="round" stroke-linejoin="round" stroke-miterlimit="4" stroke-opacity="1" stroke-width="1.954" d="M 332,189.00001 C 326,189 321,194 321,200 c 0,6.07513 4.92487,11 11,11 6.07514,0 11,-4.92487 11,-11 0,-6.07513 -4.92486,-10.99998 -11,-10.99999 z M 332,190 c 5.811,0 10,4.18901 10,10 0,5.811 -4.18901,10 -10,10 -5.81099,0 -10,-4.189 -10,-10 0,-5.81099 4.189,-10 10,-10 z" display="inline" enable-background="new" opacity=".4"/><path id="path9498-1-6-7-2" fill="url(#linearGradient8590-3-3)" fill-opacity="1" stroke="none" stroke-dasharray="none" stroke-linecap="round" stroke-linejoin="round" stroke-miterlimit="4" stroke-opacity="1" stroke-width="1.869" d="m 332,190.00001 c -5.52284,0 -10,4.47716 -10,10 0,5.52284 4.47716,9.99999 10,9.99999 5.52285,0 10,-4.47715 10,-9.99999 0,-5.52284 -4.47715,-10 -10,-10 z M 332,191 c 5.28274,0 9,3.71727 9,9 0,5.28272 -3.71727,9 -9,9 -5.28272,0 -8.99999,-3.71728 -9,-9 0,-5.28273 3.71728,-9 9,-9 z" display="inline" enable-background="new" opacity=".7"/><path id="path9498-9-1-2-4-9" fill="#000" fill-opacity="1" stroke="none" stroke-dasharray="none" stroke-linecap="round" stroke-linejoin="round" stroke-miterlimit="4" stroke-opacity="1" stroke-width="1.954" d="m 328,237 c -3.81818,0 -7,3.18181 -7,7 0,3.86599 3.13401,7 7,7 3.866,0 7,-3.13401 7,-7 0,-3.866 -3.134,-6.99999 -7,-7 z m 0,1 c 3.69791,0 6,2.30209 6,6 0,3.69791 -2.3021,6 -6,6 -3.6979,0 -6,-2.30209 -6,-6 0,-3.69791 2.30209,-6 6,-6 z" display="inline" enable-background="new" opacity=".4"/><path id="path9498-1-6-7-2-0" fill="url(#linearGradient8590-3-3-4)" fill-opacity="1" stroke="none" stroke-dasharray="none" stroke-linecap="round" stroke-linejoin="round" stroke-miterlimit="4" stroke-opacity="1" stroke-width="1.869" d="m 328,238.00002 c -3.31371,0 -6,2.68629 -6,5.99999 0,3.31371 2.68629,5.99999 6,5.99999 3.31371,0 6,-2.68628 6,-5.99999 0,-3.3137 -2.68629,-5.99999 -6,-5.99999 z m 0,0.59998 c 3.16964,0 5.39999,2.23037 5.39999,5.40001 0,3.16963 -2.23035,5.39999 -5.39999,5.39999 -3.16963,0 -5.4,-2.23036 -5.4,-5.39999 0,-3.16964 2.23037,-5.40001 5.4,-5.40001 z" display="inline" enable-background="new" opacity=".7"/></g></g></svg>