<svg xmlns="http://www.w3.org/2000/svg" xmlns:svg="http://www.w3.org/2000/svg" xmlns:xlink="http://www.w3.org/1999/xlink" id="svg11300" width="400" height="300" display="inline" enable-background="new" version="1.0"><title id="title3004">Suru Icon Theme Template</title><defs id="defs3"><clipPath id="clipPath9430" clipPathUnits="userSpaceOnUse"><path id="path9432" fill="#fff" fill-opacity="1" fill-rule="nonzero" stroke="none" stroke-width="1" d="m 166.0625,-196 h 179.875 C 491.2348,-196 512,-175.28677 512,-30.125 v 148.25 C 512,263.28618 491.2348,284 345.9375,284 H 166.0625 C 20.7652,284 0,263.28618 0,118.125 V -30.125 C 0,-175.28677 20.7652,-196 166.0625,-196 Z" color="#000" display="inline" enable-background="new" overflow="visible" visibility="visible" style="marker:none"/></clipPath><clipPath id="clipPath1082" clipPathUnits="userSpaceOnUse"><path id="path1084" fill="#8c59d9" fill-opacity="1" stroke="none" stroke-dasharray="none" stroke-dashoffset="0" stroke-linecap="round" stroke-linejoin="round" stroke-miterlimit="4" stroke-opacity="1" stroke-width="2" d="M 361.9375,-212 C 507.2348,-212 528,-191.28677 528,-46.125 V 70.125 C 528,215.28618 507.2348,236 361.9375,236 H 214.0625 C 68.7652,236 48,215.28618 48,70.125 V -46.125 C 48,-191.28677 68.7652,-212 214.0625,-212 Z" display="inline" enable-background="new" opacity="1"/></clipPath><filter id="filter4346" width="1.026" height="1.022" x="-.013" y="-.011" color-interpolation-filters="sRGB"><feGaussianBlur id="feGaussianBlur4348" stdDeviation="2.12"/></filter><linearGradient id="linearGradient4358" x1="88" x2="488" y1="88" y2="488" gradientUnits="userSpaceOnUse" xlink:href="#linearGradient4360"/><linearGradient id="linearGradient4360"><stop id="stop4362" offset="0" stop-color="#000" stop-opacity=".588"/><stop id="stop4364" offset=".88" stop-color="#000" stop-opacity="0"/><stop id="stop4366" offset="1" stop-color="#000" stop-opacity="1"/></linearGradient><filter id="filter4380" width="1.106" height="1.088" x="-.053" y="-.044" color-interpolation-filters="sRGB"><feGaussianBlur id="feGaussianBlur4382" stdDeviation="8.48"/></filter><linearGradient id="linearGradient927"><stop id="stop923" offset="0" stop-color="#fff" stop-opacity="1"/><stop id="stop933" offset=".125" stop-color="#fff" stop-opacity=".098"/><stop id="stop931" offset=".925" stop-color="#fff" stop-opacity=".098"/><stop id="stop925" offset="1" stop-color="#fff" stop-opacity=".498"/></linearGradient><clipPath id="clipPath994" clipPathUnits="userSpaceOnUse"><path id="path996" fill="#cdcdcd" fill-opacity="1" fill-rule="nonzero" stroke="none" stroke-dasharray="none" stroke-miterlimit="4" stroke-opacity="1" stroke-width="2" d="m 335.73108,62 c -8.82418,0 -9.77365,0.90635 -9.7304,9.74838 V 84 96.25162 c -0.0433,8.84203 0.90622,9.74838 9.7304,9.74838 h 16.53919 c 8.82418,0 9.7304,-0.90625 9.7304,-9.74838 V 84 71.74838 C 362.00067,62.90625 361.09445,62 352.27027,62 Z" color="#000" display="inline" enable-background="accumulate" overflow="visible" visibility="visible" style="marker:none"/></clipPath><linearGradient id="linearGradient1004" x1="344" x2="344" y1="62" y2="106" gradientUnits="userSpaceOnUse" xlink:href="#linearGradient927"/><clipPath id="clipPath959" clipPathUnits="userSpaceOnUse"><path id="path961" fill="#46a926" fill-opacity="1" fill-rule="nonzero" stroke="none" stroke-dasharray="none" stroke-miterlimit="4" stroke-opacity="1" stroke-width="2" d="m 330.1929,133.99999 c -5.61538,0 -6.21958,0.57678 -6.19206,6.20352 v 7.79648 7.79648 c -0.0276,5.62673 0.57668,6.20351 6.19206,6.20351 h 11.615 c 5.6154,0 6.19208,-0.5767 6.19208,-6.20351 v -7.79648 -7.79648 c 0,-5.6268 -0.5767,-6.20352 -6.19208,-6.20352 z" color="#000" display="inline" enable-background="accumulate" opacity="1" overflow="visible" visibility="visible" style="marker:none"/></clipPath><clipPath id="clipPath971" clipPathUnits="userSpaceOnUse"><path id="path973" fill="#46a926" fill-opacity="1" fill-rule="nonzero" stroke="none" stroke-dasharray="none" stroke-miterlimit="4" stroke-opacity="1" stroke-width="2" d="m 327.8652,189 c -4.41209,0 -4.88682,0.45318 -4.8652,4.87419 V 200 206.12581 C 322.9783,210.54682 323.45311,211 327.8652,211 h 8.2696 C 340.54689,211 341,210.54688 341,206.12581 V 200 193.87419 C 341,189.45313 340.54688,189 336.13479,189 Z" color="#000" display="inline" enable-background="accumulate" opacity="1" overflow="visible" visibility="visible" style="marker:none"/></clipPath><linearGradient id="linearGradient981" x1="332" x2="332" y1="189" y2="211" gradientUnits="userSpaceOnUse" xlink:href="#linearGradient927"/><clipPath id="clipPath983" clipPathUnits="userSpaceOnUse"><path id="path985" fill="#46a926" fill-opacity="1" fill-rule="nonzero" stroke="none" stroke-dasharray="none" stroke-miterlimit="4" stroke-opacity="1" stroke-width="2" d="m 325.09646,237 c -2.80769,0 -3.10979,0.28839 -3.09603,3.10176 V 244 v 3.89824 c -0.0138,2.81337 0.28834,3.10176 3.09603,3.10176 h 5.8075 C 333.71166,251 334,250.71165 334,247.89824 V 244 240.10176 C 334,237.28836 333.71165,237 330.90396,237 Z" color="#000" display="inline" enable-background="accumulate" opacity="1" overflow="visible" visibility="visible" style="marker:none"/></clipPath><linearGradient id="linearGradient993" x1="328" x2="328" y1="237" y2="251" gradientUnits="userSpaceOnUse" xlink:href="#linearGradient927"/><linearGradient id="linearGradient4336-3"><stop id="stop4338-8" offset="0" stop-color="#5884f4" stop-opacity="1"/><stop id="stop4344-3" offset=".278" stop-color="#5884f4" stop-opacity="1"/><stop id="stop4346-3" offset=".278" stop-color="#2f5fdd" stop-opacity="1"/><stop id="stop4350-1" offset=".707" stop-color="#2f5fdd" stop-opacity="1"/><stop id="stop4348-6" offset=".709" stop-color="#234db8" stop-opacity="1"/><stop id="stop4340-0" offset="1" stop-color="#234db8" stop-opacity="1"/></linearGradient><linearGradient id="linearGradient1004-8" x1="344" x2="344" y1="62" y2="106" gradientUnits="userSpaceOnUse" xlink:href="#linearGradient927"/><clipPath id="clipPath994-1" clipPathUnits="userSpaceOnUse"><path id="path996-8" fill="#cdcdcd" fill-opacity="1" fill-rule="nonzero" stroke="none" stroke-dasharray="none" stroke-miterlimit="4" stroke-opacity="1" stroke-width="2" d="m 335.73108,62 c -8.82418,0 -9.77365,0.90635 -9.7304,9.74838 V 84 96.25162 c -0.0433,8.84203 0.90622,9.74838 9.7304,9.74838 h 16.53919 c 8.82418,0 9.7304,-0.90625 9.7304,-9.74838 V 84 71.74838 C 362.00067,62.90625 361.09445,62 352.27027,62 Z" color="#000" display="inline" enable-background="accumulate" overflow="visible" visibility="visible" style="marker:none"/></clipPath><linearGradient id="linearGradient1070" x1="256" x2="256" y1="24" y2="664" gradientTransform="matrix(0.09375,0,0,0.125,303.0004,228)" gradientUnits="userSpaceOnUse" xlink:href="#linearGradient4235"/><linearGradient id="linearGradient4235"><stop id="stop4237" offset="0" stop-color="#f1e2a7" stop-opacity="1"/><stop id="stop4239" offset="1" stop-color="#f9f1d2" stop-opacity="1"/></linearGradient><linearGradient id="linearGradient1057" x1="256" x2="256" y1="24" y2="664" gradientTransform="matrix(0.09375,0,0,0.125,307.0004,180)" gradientUnits="userSpaceOnUse" xlink:href="#linearGradient4235"/><linearGradient id="linearGradient1037" x1="256" x2="256" y1="24" y2="664" gradientTransform="matrix(0.09375,0,0,0.125,311.0004,131)" gradientUnits="userSpaceOnUse" xlink:href="#linearGradient4235"/><linearGradient id="linearGradient1015" x1="256" x2="256" y1="24" y2="664" gradientTransform="matrix(0.09375,0,0,0.125,320.0004,59)" gradientUnits="userSpaceOnUse" xlink:href="#linearGradient4235"/><linearGradient id="linearGradient4241" x1="256" x2="256" y1="24" y2="664" gradientTransform="matrix(0.375,0,0,0.5,56.000396,32)" gradientUnits="userSpaceOnUse" xlink:href="#linearGradient4235"/><linearGradient id="linearGradient924" x1="459.034" x2="35.31" y1="419.233" y2="207.365" gradientTransform="matrix(0,-0.07208805,-0.07208601,0,359.12904,165.81816)" gradientUnits="userSpaceOnUse" xlink:href="#linearGradient4338"/><linearGradient id="linearGradient4338"><stop id="stop4340" offset="0" stop-color="#ea9d60" stop-opacity="1"/><stop id="stop4342" offset="1" stop-color="#efbe94" stop-opacity="1"/></linearGradient><linearGradient id="linearGradient916" x1="459.034" x2="35.31" y1="419.233" y2="207.365" gradientTransform="matrix(0,-0.05664062,-0.05663901,0,349.74496,214)" gradientUnits="userSpaceOnUse" xlink:href="#linearGradient4338"/><linearGradient id="linearGradient920" x1="459.034" x2="35.31" y1="419.233" y2="207.365" gradientTransform="matrix(0,-0.03604403,-0.03604301,0,339.56472,252.90909)" gradientUnits="userSpaceOnUse" xlink:href="#linearGradient4338"/><linearGradient id="linearGradient4226" x1="529.655" x2="-35.31" y1="401.584" y2="119.093" gradientTransform="matrix(0,-0.453125,-0.45311204,0,277.9574,268)" gradientUnits="userSpaceOnUse" xlink:href="#linearGradient4338"/><linearGradient id="linearGradient951" x1="512" x2="0" y1="397.994" y2="125.994" gradientTransform="matrix(0,-0.11081861,-0.11029282,0,378.55403,111.3913)" gradientUnits="userSpaceOnUse" xlink:href="#linearGradient4338"/></defs><metadata id="metadata4"/><g id="layer1" display="inline"><g id="layer7" display="none"><text enable-background="new" style="line-height:0%;-inkscape-font-specification:'DejaVu Sans'" id="context" x="19.007" y="-8.255" fill="#000" fill-opacity="1" stroke="none" display="inline" font-family="DejaVu Sans" font-stretch="normal" font-style="normal" font-variant="normal" font-weight="normal" xml:space="preserve"><tspan id="tspan3933" x="19.007" y="-8.255" font-family="DejaVu Sans" font-size="18" font-stretch="normal" font-style="normal" font-variant="normal" font-weight="normal" style="line-height:1.25;-inkscape-font-specification:'DejaVu Sans'">apps</tspan></text><text id="icon-name" x="146.488" y="-8.255" fill="#000" fill-opacity="1" stroke="none" display="inline" enable-background="new" font-family="DejaVu Sans" font-stretch="normal" font-style="normal" font-variant="normal" font-weight="bold" text-anchor="start" writing-mode="lr-tb" xml:space="preserve" style="line-height:0%;-inkscape-font-specification:'DejaVu Sans Bold';text-align:start"><tspan id="tspan3937" x="146.488" y="-8.255" font-family="DejaVu Sans" font-size="18" font-stretch="normal" font-style="normal" font-variant="normal" font-weight="bold" style="line-height:1.25;-inkscape-font-specification:'DejaVu Sans Bold'">packages-app</tspan></text><rect id="rect16x16" width="16" height="16" x="320" y="236" fill="#cdcdcd" fill-opacity="1" fill-rule="nonzero" stroke="none" stroke-width="2" display="inline" enable-background="accumulate" overflow="visible" visibility="visible" style="marker:none"/><rect id="rect24x24" width="24" height="24" x="320" y="188" fill="#cdcdcd" fill-opacity="1" fill-rule="nonzero" stroke="none" stroke-width="2" display="inline" enable-background="accumulate" overflow="visible" visibility="visible" style="marker:none"/><rect id="rect32x32" width="32" height="32" x="320" y="132" fill="#cdcdcd" fill-opacity="1" fill-rule="nonzero" stroke="none" stroke-width="2" display="inline" enable-background="accumulate" overflow="visible" visibility="visible" style="marker:none"/><rect id="rect48x48" width="48" height="48" x="320" y="60" fill="#cdcdcd" fill-opacity="1" fill-rule="nonzero" stroke="none" stroke-width="2" display="inline" enable-background="accumulate" overflow="visible" visibility="visible" style="marker:none"/><rect id="rect3951" width="256" height="256" x="24" y="28" fill="#cdcdcd" fill-opacity="1" fill-rule="nonzero" stroke="none" stroke-width="2" display="inline" enable-background="accumulate" overflow="visible" visibility="visible" style="marker:none"/></g><g id="layer8" display="inline"><path id="path995" fill="#000" fill-opacity="1" fill-rule="nonzero" stroke="none" stroke-dasharray="none" stroke-dashoffset="0" stroke-linecap="butt" stroke-linejoin="miter" stroke-miterlimit="4" stroke-opacity="1" stroke-width="2" d="m 327.86523,189 c -1.12014,0 -2.01524,0.0241 -2.79101,0.1543 -0.77577,0.13022 -1.48014,0.38763 -2.00977,0.91601 -0.52962,0.52838 -0.79079,1.23687 -0.91992,2.01367 -0.12912,0.77681 -0.15002,1.67169 -0.14453,2.79493 V 201 v 6.125 c -0.005,1.12104 0.0156,2.01529 0.14453,2.79102 0.12912,0.77681 0.39029,1.48529 0.91992,2.01367 0.52964,0.52838 1.234,0.78579 2.00977,0.91601 0.77577,0.13022 1.67087,0.1543 2.79101,0.1543 h 8.26954 c 1.12013,0 2.01264,-0.024 2.78711,-0.1543 0.77446,-0.13033 1.48001,-0.38927 2.00781,-0.91797 0.5278,-0.52869 0.78594,-1.23438 0.91601,-2.00976 C 341.97577,209.14258 342,208.24735 342,207.125 V 201 194.875 c 0,-1.12235 -0.0242,-2.01758 -0.1543,-2.79297 -0.13007,-0.77538 -0.38821,-1.48107 -0.91601,-2.00976 -0.5278,-0.5287 -1.23334,-0.78764 -2.00781,-0.91797 C 338.1474,189.02397 337.25491,189 336.13477,189 Z" baseline-shift="baseline" clip-rule="nonzero" color="#000" color-interpolation="sRGB" color-interpolation-filters="linearRGB" color-rendering="auto" direction="ltr" display="inline" dominant-baseline="auto" enable-background="accumulate" font-family="sans-serif" font-size="medium" font-stretch="normal" font-style="normal" font-variant="normal" font-weight="normal" image-rendering="auto" letter-spacing="normal" opacity=".1" overflow="visible" shape-rendering="auto" text-anchor="start" text-decoration="none" text-rendering="auto" vector-effect="none" visibility="visible" word-spacing="normal" writing-mode="lr-tb" style="line-height:normal;font-variant-ligatures:normal;font-variant-position:normal;font-variant-caps:normal;font-variant-numeric:normal;font-variant-alternates:normal;font-feature-settings:normal;text-indent:0;text-align:start;text-decoration-line:none;text-decoration-style:solid;text-decoration-color:#000;text-transform:none;text-orientation:mixed;white-space:normal;shape-padding:0;isolation:auto;mix-blend-mode:normal;solid-color:#000;solid-opacity:1;marker:none"/><path id="path997" fill="#000" fill-opacity="1" fill-rule="nonzero" stroke="none" stroke-dasharray="none" stroke-dashoffset="0" stroke-linecap="butt" stroke-linejoin="miter" stroke-miterlimit="4" stroke-opacity="1" stroke-width="2" d="m 325.0957,237 c -0.71904,0 -1.30185,0.0139 -1.83593,0.10352 -0.53409,0.0897 -1.0683,0.27628 -1.47657,0.68359 -0.40826,0.4073 -0.59657,0.94323 -0.68554,1.47851 -0.089,0.53529 -0.10119,1.12048 -0.0977,1.8418 V 244 v 3.89844 c -0.003,0.71816 0.009,1.30235 0.0977,1.83594 0.089,0.53528 0.27727,1.07121 0.68554,1.47851 0.40827,0.40731 0.94248,0.59394 1.47657,0.68359 0.53408,0.0897 1.11689,0.10352 1.83593,0.10352 h 5.8086 c 0.71904,0 1.30058,-0.0137 1.83398,-0.10352 0.53341,-0.0898 1.06768,-0.27792 1.47461,-0.68554 0.40693,-0.40762 0.59404,-0.94271 0.68359,-1.47656 C 334.98604,249.20052 335,248.61887 335,247.89844 V 244 241.10156 c 0,-0.72043 -0.014,-1.30208 -0.10352,-1.83594 -0.0895,-0.53385 -0.27666,-1.06894 -0.68359,-1.47656 -0.40693,-0.40762 -0.9412,-0.59578 -1.47461,-0.68554 C 332.20488,237.01375 331.62334,237 330.9043,237 Z" baseline-shift="baseline" clip-rule="nonzero" color="#000" color-interpolation="sRGB" color-interpolation-filters="linearRGB" color-rendering="auto" direction="ltr" display="inline" dominant-baseline="auto" enable-background="accumulate" font-family="sans-serif" font-size="medium" font-stretch="normal" font-style="normal" font-variant="normal" font-weight="normal" image-rendering="auto" letter-spacing="normal" opacity=".1" overflow="visible" shape-rendering="auto" text-anchor="start" text-decoration="none" text-rendering="auto" vector-effect="none" visibility="visible" word-spacing="normal" writing-mode="lr-tb" style="line-height:normal;font-variant-ligatures:normal;font-variant-position:normal;font-variant-caps:normal;font-variant-numeric:normal;font-variant-alternates:normal;font-feature-settings:normal;text-indent:0;text-align:start;text-decoration-line:none;text-decoration-style:solid;text-decoration-color:#000;text-transform:none;text-orientation:mixed;white-space:normal;shape-padding:0;isolation:auto;mix-blend-mode:normal;solid-color:#000;solid-opacity:1;marker:none"/><path id="path999" fill="#000" fill-opacity="1" fill-rule="nonzero" stroke="none" stroke-dasharray="none" stroke-dashoffset="0" stroke-linecap="butt" stroke-linejoin="miter" stroke-miterlimit="4" stroke-opacity="1" stroke-width="2" d="m 330.19336,134 c -1.42096,0 -2.54883,0.0308 -3.50586,0.19141 -0.95703,0.16064 -1.79146,0.4726 -2.41211,1.09179 -0.62065,0.61919 -0.93647,1.45612 -1.0957,2.41407 -0.15924,0.95795 -0.18666,2.08705 -0.17969,3.51171 V 149 v 7.79688 c -0.007,1.42131 0.0207,2.5495 0.17969,3.50585 0.15923,0.95796 0.47505,1.79488 1.0957,2.41407 0.62065,0.61919 1.45508,0.93115 2.41211,1.09179 0.95703,0.16065 2.0849,0.19141 3.50586,0.19141 h 11.61523 c 1.42097,0 2.54669,-0.0307 3.50196,-0.19141 0.95527,-0.16075 1.78779,-0.47425 2.40625,-1.09375 0.61845,-0.6195 0.93134,-1.45363 1.09179,-2.41015 C 348.96905,159.34816 349,158.22066 349,156.79688 V 149 141.20312 c 0,-1.42378 -0.031,-2.55128 -0.19141,-3.50781 -0.16045,-0.95653 -0.47334,-1.79065 -1.09179,-2.41015 -0.61846,-0.61951 -1.45098,-0.933 -2.40625,-1.09375 C 344.35528,134.03065 343.22956,134 341.80859,134 Z" baseline-shift="baseline" clip-rule="nonzero" color="#000" color-interpolation="sRGB" color-interpolation-filters="linearRGB" color-rendering="auto" direction="ltr" display="inline" dominant-baseline="auto" enable-background="accumulate" font-family="sans-serif" font-size="medium" font-stretch="normal" font-style="normal" font-variant="normal" font-weight="normal" image-rendering="auto" letter-spacing="normal" opacity=".1" overflow="visible" shape-rendering="auto" text-anchor="start" text-decoration="none" text-rendering="auto" vector-effect="none" visibility="visible" word-spacing="normal" writing-mode="lr-tb" style="line-height:normal;font-variant-ligatures:normal;font-variant-position:normal;font-variant-caps:normal;font-variant-numeric:normal;font-variant-alternates:normal;font-feature-settings:normal;text-indent:0;text-align:start;text-decoration-line:none;text-decoration-style:solid;text-decoration-color:#000;text-transform:none;text-orientation:mixed;white-space:normal;shape-padding:0;isolation:auto;mix-blend-mode:normal;solid-color:#000;solid-opacity:1;marker:none"/><path id="path1020" fill="#000" fill-opacity="1" fill-rule="nonzero" stroke="none" stroke-dasharray="none" stroke-dashoffset="0" stroke-linecap="butt" stroke-linejoin="miter" stroke-miterlimit="4" stroke-opacity="1" stroke-width="2" d="m 335.23093,61.500047 c -2.22316,0 -3.97368,0.05118 -5.41406,0.292969 -1.44039,0.241784 -2.61905,0.695299 -3.48243,1.55664 -0.86337,0.861342 -1.31906,2.039471 -1.55859,3.480469 -0.23953,1.440999 -0.28629,3.195341 -0.27539,5.423828 V 85 97.752143 c -0.0108,2.225063 0.0361,3.978517 0.27539,5.417967 0.23953,1.441 0.69522,2.61913 1.55859,3.48047 0.86338,0.86134 2.04204,1.31486 3.48243,1.55664 1.44039,0.24179 3.1909,0.29297 5.41406,0.29297 h 17.53883 c 2.22317,0 3.97276,-0.0511 5.41017,-0.29297 1.4374,-0.24189 2.61246,-0.69694 3.47265,-1.55859 0.8602,-0.86165 1.31319,-2.03894 1.55468,-3.47852 0.24149,-1.43957 0.29297,-3.190353 0.29297,-5.417967 V 85 72.248094 c 0,-2.227614 -0.0515,-3.978392 -0.29297,-5.417969 -0.24149,-1.439576 -0.69449,-2.616863 -1.55469,-3.478516 -0.86019,-0.861652 -2.03525,-1.316704 -3.47265,-1.558593 -1.4374,-0.24189 -3.187,-0.292969 -5.41016,-0.292969 z" baseline-shift="baseline" clip-rule="nonzero" color="#000" color-interpolation="sRGB" color-interpolation-filters="linearRGB" color-rendering="auto" direction="ltr" display="inline" dominant-baseline="auto" enable-background="accumulate" font-family="sans-serif" font-size="medium" font-stretch="normal" font-style="normal" font-variant="normal" font-weight="normal" image-rendering="auto" letter-spacing="normal" opacity=".1" overflow="visible" shape-rendering="auto" text-anchor="start" text-decoration="none" text-rendering="auto" vector-effect="none" visibility="visible" word-spacing="normal" writing-mode="lr-tb" style="line-height:normal;font-variant-ligatures:normal;font-variant-position:normal;font-variant-caps:normal;font-variant-numeric:normal;font-variant-alternates:normal;font-feature-settings:normal;text-indent:0;text-align:start;text-decoration-line:none;text-decoration-style:solid;text-decoration-color:#000;text-transform:none;text-orientation:mixed;white-space:normal;shape-padding:0;isolation:auto;mix-blend-mode:normal;solid-color:#000;solid-opacity:1;marker:none"/><path id="rect4158-9" fill="#000" fill-opacity="1" fill-rule="nonzero" stroke="none" stroke-width="2" d="M 189.84323,74 C 119.24979,74 111.65402,81.250835 112,151.98706 V 298 444.01294 C 111.65402,514.74917 119.24979,522 189.84323,522 H 386.15677 C 456.75021,522 462.16345,514.72616 464,444.01294 V 298 151.98706 C 464,81.249993 456.75021,74 386.15677,74 Z" color="#000" display="inline" enable-background="accumulate" filter="url(#filter4346)" opacity=".1" overflow="visible" transform="matrix(0.5,0,0,0.5,8,8)" visibility="visible" style="marker:none"/><path id="path4350" fill="url(#linearGradient4358)" fill-opacity="1" fill-rule="nonzero" stroke="none" stroke-width="2" d="M 189.84323,74 C 119.24979,74 111.65402,81.250835 112,151.98706 V 298 444.01294 C 111.65402,514.74917 119.24979,522 189.84323,522 H 386.15677 C 456.75021,522 464,514.75001 464,444.01294 V 298 151.98706 C 464,81.249993 456.75021,74 386.15677,74 Z" color="#000" display="inline" enable-background="accumulate" filter="url(#filter4380)" opacity=".3" overflow="visible" transform="matrix(0.5,0,0,0.5,8,8)" visibility="visible" style="marker:none"/><path id="rect4158-7" fill="#000" fill-opacity="1" fill-rule="nonzero" stroke="none" stroke-width="1.02" d="M 101.8116,42 C 65.712789,42 61.828597,45.690158 62.005519,81.689842 V 156 230.31016 C 61.828597,266.30985 65.712789,270 101.8116,270 h 100.38732 c 36.09881,0 39.80608,-3.68973 39.80608,-39.68984 V 156 81.689842 C 242.005,45.689729 238.29773,42 202.19892,42 Z" color="#000" display="inline" enable-background="accumulate" opacity=".1" overflow="visible" visibility="visible" style="marker:none"/><path id="path949" fill="url(#linearGradient951)" fill-opacity="1" fill-rule="nonzero" stroke="none" stroke-width="1" d="m 335.94909,61.5 c -2.16426,0 -3.86997,0.05215 -5.27138,0.288511 -1.40313,0.236647 -2.54967,0.679815 -3.39066,1.5228 -0.84113,0.843138 -1.2842,1.99261 -1.51752,3.402896 -0.233,1.408382 -0.27874,3.124137 -0.26813,5.304008 V 84 95.985606 c -0.0105,2.177614 0.0353,3.892781 0.26813,5.300184 0.23332,1.41029 0.67638,2.55976 1.51752,3.4029 0.841,0.84298 1.98752,1.28615 3.39066,1.5228 1.40141,0.23636 3.10712,0.28851 5.27138,0.28851 h 16.10321 c 2.16425,0 3.86719,-0.052 5.26568,-0.28851 1.40007,-0.23672 2.54472,-0.67906 3.38305,-1.5228 0.83805,-0.84344 1.27848,-1.99393 1.51372,-3.4029 C 362.44977,99.878172 362.5,98.164225 362.5,95.985606 V 84 72.014394 c 0,-2.17862 -0.0502,-3.892574 -0.28525,-5.300187 -0.23524,-1.408966 -0.67567,-2.559454 -1.51372,-3.402896 -0.83833,-0.843732 -1.98298,-1.286077 -3.38305,-1.5228 C 355.91949,61.552052 354.21655,61.5 352.0523,61.5 Z" color="#000" display="inline" enable-background="accumulate" overflow="visible" visibility="visible" style="marker:none"/><path id="rect4158" fill="url(#linearGradient4226)" fill-opacity="1" fill-rule="nonzero" stroke="none" stroke-width="1" d="m 201.07338,44 c 35.29673,0 39.09461,3.625418 38.92162,38.99353 V 156 229.00647 C 240.16799,264.37459 236.37011,268 201.07338,268 H 102.91662 C 67.6199,268 63.995,264.375 63.995,229.00647 V 156 82.99353 C 63.995,47.624997 67.6199,44 102.91662,44 Z" color="#000" display="inline" enable-background="accumulate" overflow="visible" visibility="visible" style="marker:none"/><path id="path918" fill="url(#linearGradient920)" fill-opacity="1" fill-rule="nonzero" stroke="none" stroke-width="1" d="m 330.90425,236.5 c 0.71048,0 1.27344,0.0154 1.75195,0.0957 0.47851,0.0803 0.89671,0.23728 1.20703,0.54688 0.31032,0.30959 0.46726,0.7261 0.54688,1.20508 0.0796,0.47897 0.0933,1.04352 0.0898,1.75586 V 244 v 3.89844 c 0.003,0.71121 -0.0103,1.27546 -0.0898,1.7539 -0.0796,0.47898 -0.23655,0.89549 -0.54688,1.20508 -0.31033,0.3096 -0.72851,0.46655 -1.20703,0.54688 -0.47852,0.0803 -1.04147,0.0957 -1.75195,0.0957 h -5.8086 c -0.71048,0 -1.27236,-0.0153 -1.75,-0.0957 -0.47763,-0.0804 -0.89584,-0.23713 -1.20508,-0.54688 -0.30921,-0.30975 -0.46469,-0.72681 -0.54492,-1.20508 -0.0802,-0.47826 -0.0957,-1.04201 -0.0957,-1.7539 V 244 240.10156 c 0,-0.71189 0.0155,-1.27564 0.0957,-1.7539 0.0802,-0.47827 0.2357,-0.89533 0.54492,-1.20508 0.30924,-0.30975 0.72745,-0.4665 1.20508,-0.54688 0.47764,-0.0804 1.03952,-0.0957 1.75,-0.0957 z" color="#000" display="inline" enable-background="accumulate" overflow="visible" visibility="visible" style="marker:none"/><path id="path914" fill="url(#linearGradient916)" fill-opacity="1" fill-rule="nonzero" stroke="none" stroke-width="1" d="m 336.13443,188.5 c 1.11158,0 1.98683,0.0256 2.70703,0.14648 0.72019,0.1209 1.3105,0.34863 1.74218,0.7793 0.43169,0.43067 0.65954,1.01974 0.7793,1.74024 0.11977,0.72049 0.14217,1.59669 0.13672,2.71093 V 200 v 6.125 c 0.005,1.1131 -0.017,1.989 -0.13672,2.70898 -0.11976,0.72051 -0.3476,1.30957 -0.7793,1.74024 -0.43169,0.43067 -1.02199,0.6584 -1.74218,0.7793 -0.7202,0.12089 -1.59545,0.14648 -2.70703,0.14648 h -8.26954 c -1.11158,0 -1.98637,-0.0255 -2.70507,-0.14648 -0.7187,-0.12095 -1.30623,-0.34848 -1.73633,-0.7793 -0.4301,-0.43083 -0.6566,-1.01849 -0.77735,-1.73828 -0.12074,-0.71979 -0.14648,-1.59713 -0.14648,-2.71094 V 200 193.875 c 0,-1.11381 0.0257,-1.99115 0.14648,-2.71094 0.12075,-0.71979 0.34725,-1.30745 0.77735,-1.73828 0.4301,-0.43082 1.01763,-0.65835 1.73633,-0.7793 0.7187,-0.12094 1.59349,-0.14648 2.70507,-0.14648 z" color="#000" display="inline" enable-background="accumulate" overflow="visible" visibility="visible" style="marker:none"/><path id="path922" fill="url(#linearGradient924)" fill-opacity="1" fill-rule="nonzero" stroke="none" stroke-width="1" d="m 341.80613,133.5 c 1.41241,0 2.52238,0.0342 3.42383,0.18555 0.90145,0.15132 1.61987,0.43164 2.14258,0.95312 0.5227,0.52148 0.80325,1.23898 0.95312,2.14063 0.14988,0.90164 0.18075,2.0101 0.17383,3.42578 V 148 v 7.79688 c 0.007,1.41452 -0.024,2.52269 -0.17383,3.42382 -0.14987,0.90165 -0.43041,1.61915 -0.95312,2.14063 -0.52272,0.52148 -1.24112,0.8018 -2.14258,0.95312 -0.90146,0.15132 -2.01142,0.18555 -3.42383,0.18555 H 330.1909 c -1.41241,0 -2.51847,-0.0342 -3.41797,-0.18555 -0.8995,-0.15137 -1.61597,-0.43149 -2.13672,-0.95312 -0.52075,-0.52163 -0.80004,-1.23774 -0.95117,-2.13867 -0.15113,-0.90094 -0.18555,-2.01055 -0.18555,-3.42578 V 148 140.20312 c 0,-1.41524 0.0344,-2.52484 0.18555,-3.42578 0.15113,-0.90093 0.43042,-1.61703 0.95117,-2.13867 0.52075,-0.52163 1.23722,-0.80175 2.13672,-0.95312 0.8995,-0.15137 2.00556,-0.18555 3.41797,-0.18555 z" color="#000" display="inline" enable-background="accumulate" overflow="visible" visibility="visible" style="marker:none"/></g><g id="layer6" display="inline"><rect id="rect4233" width="16" height="224" x="144" y="44" fill="url(#linearGradient4241)" fill-opacity="1" fill-rule="nonzero" stroke="none" stroke-dasharray="none" stroke-dashoffset="0" stroke-linecap="butt" stroke-linejoin="miter" stroke-miterlimit="4" stroke-opacity="1" stroke-width="16" color="#000" display="inline" enable-background="accumulate" opacity=".6" overflow="visible" visibility="visible" style="marker:none"/><rect id="rect4223" width="52" height="32" x="80" y="204" fill="#f9f9f9" fill-opacity="1" fill-rule="nonzero" stroke="none" stroke-dasharray="none" stroke-dashoffset="0" stroke-linecap="butt" stroke-linejoin="miter" stroke-miterlimit="4" stroke-opacity="1" stroke-width="16" color="#000" display="inline" enable-background="accumulate" opacity="1" overflow="visible" visibility="visible" style="marker:none"/><path stroke-opacity="1" style="marker:none" id="rect4225" fill="#5d5d5d" fill-opacity="1" fill-rule="nonzero" stroke="none" stroke-dasharray="none" stroke-dashoffset="0" stroke-linecap="butt" stroke-linejoin="miter" stroke-miterlimit="4" stroke-width="16" d="m 84.000396,212 v 16 h 8 v -16 z m 12,0 v 16 h 4.000004 v -16 z m 8.000004,0 v 16 h 8 v -16 z m 12,0 v 16 h 4 v -16 z m 8,0 v 16 h 4 v -16 z" color="#000" display="inline" enable-background="accumulate" opacity="1" overflow="visible" visibility="visible"/><path stroke-opacity="1" style="marker:none" id="path1075" fill="#e2965b" fill-opacity="1" fill-rule="nonzero" stroke="none" stroke-dasharray="none" stroke-dashoffset="0" stroke-linecap="butt" stroke-linejoin="miter" stroke-miterlimit="4" stroke-width="16" d="m 176.0004,208 v 4 h 48 v -4 z m 0,8 v 4 h 40 v -4 z m 0,8 v 4 h 48 v -4 z m 0,8 v 4 h 32 v -4 z" color="#000" display="inline" enable-background="accumulate" opacity="1" overflow="visible" visibility="visible"/><path id="path4231" fill="#fff" fill-opacity="1" fill-rule="nonzero" stroke="none" stroke-width="1" d="m 152.0004,44 v 224 h 49.07812 c 35.29672,0 38.00361,-3.63655 38.92188,-38.99317 V 156 82.993165 C 240.0004,47.624631 236.37524,44 201.07852,44 Z" color="#000" display="inline" enable-background="accumulate" opacity=".08" overflow="visible" visibility="visible" style="marker:none"/><rect stroke-linecap="butt" style="marker:none" id="rect1013" width="4" height="44" x="342" y="62" fill="url(#linearGradient1015)" fill-opacity="1" fill-rule="nonzero" stroke="none" stroke-dasharray="none" stroke-dashoffset="0" stroke-linejoin="miter" stroke-miterlimit="4" stroke-opacity="1" stroke-width="16" color="#000" display="inline" enable-background="accumulate" opacity=".6" overflow="visible" visibility="visible"/><path stroke-opacity="1" style="marker:none" id="path1002" fill="#e2965b" fill-opacity="1" fill-rule="nonzero" stroke="none" stroke-dasharray="none" stroke-dashoffset="0" stroke-linecap="butt" stroke-linejoin="miter" stroke-miterlimit="4" stroke-width="16" d="m 349.0004,93 v 1 h 11 v -1 z m 0,2 v 1 h 11 v -1 z m 0,2 v 1 h 7 v -1 z" color="#000" display="inline" enable-background="accumulate" opacity="1" overflow="visible" visibility="visible"/><rect stroke-linecap="butt" style="marker:none" id="rect1004" width="11" height="8" x="328" y="92" fill="#f9f9f9" fill-opacity="1" fill-rule="nonzero" stroke="none" stroke-dasharray="none" stroke-dashoffset="0" stroke-linejoin="miter" stroke-miterlimit="4" stroke-opacity="1" stroke-width="16" color="#000" display="inline" enable-background="accumulate" opacity="1" overflow="visible" visibility="visible"/><path stroke-opacity="1" style="marker:none" id="path1006" fill="#5d5d5d" fill-opacity="1" fill-rule="nonzero" stroke="none" stroke-dasharray="none" stroke-dashoffset="0" stroke-linecap="butt" stroke-linejoin="miter" stroke-miterlimit="4" stroke-width="16" d="m 329.0004,94 v 4 h 1 v -4 z m 2,0 v 4 h 0.5 v -4 z m 1.5,0 v 4 h 0.5 v -4 z m 1.5,0 v 4 h 1 v -4 z m 2,0 v 4 h 0.5 v -4 z m 1.5,0 v 4 h 0.5 v -4 z" color="#000" display="inline" enable-background="accumulate" opacity="1" overflow="visible" visibility="visible"/><path id="path1013" fill="#fff" fill-opacity="1" fill-rule="nonzero" stroke="none" stroke-width="1" d="m 344.50144,62.5 v 44 h 8.26953 c 8.82418,0 9.73047,-0.90592 9.73047,-9.748047 V 84.5 72.248047 c 0,-8.84213 -0.90629,-9.748047 -9.73047,-9.748047 z" color="#000" display="inline" enable-background="accumulate" opacity=".08" overflow="visible" visibility="visible" style="marker:none"/><path stroke-opacity="1" style="marker:none" id="rect1035" fill="url(#linearGradient1037)" fill-opacity="1" fill-rule="nonzero" stroke="none" stroke-dasharray="none" stroke-dashoffset="0" stroke-linecap="butt" stroke-linejoin="miter" stroke-miterlimit="4" stroke-width="16" d="m 335.0004,134 h 2 v 28 h -2 z" color="#000" display="inline" enable-background="accumulate" opacity=".6" overflow="visible" visibility="visible"/><path stroke-opacity="1" style="marker:none" id="path1042" fill="#e2965b" fill-opacity="1" fill-rule="nonzero" stroke="none" stroke-dasharray="none" stroke-dashoffset="0" stroke-linecap="butt" stroke-linejoin="miter" stroke-miterlimit="4" stroke-width="16" d="m 338.0004,153 v 1 h 9 v -1 z m 0,2 v 1 h 5 v -1 z" color="#000" display="inline" enable-background="accumulate" opacity="1" overflow="visible" visibility="visible"/><path stroke-opacity="1" style="marker:none" id="rect1044" fill="#f9f9f9" fill-opacity="1" fill-rule="nonzero" stroke="none" stroke-dasharray="none" stroke-dashoffset="0" stroke-linecap="butt" stroke-linejoin="miter" stroke-miterlimit="4" stroke-width="16" d="m 325.0004,153 h 9 v 4 h -9 z" color="#000" display="inline" enable-background="accumulate" opacity="1" overflow="visible" visibility="visible"/><path stroke-opacity="1" style="marker:none" id="path1046" fill="#5d5d5d" fill-opacity="1" fill-rule="nonzero" stroke="none" stroke-dasharray="none" stroke-dashoffset="0" stroke-linecap="butt" stroke-linejoin="miter" stroke-miterlimit="4" stroke-width="16" d="m 326.0004,154 v 2 h 1 v -2 z m 2,0 v 2 h 0.5 v -2 z m 1,0 v 2 h 0.5 v -2 z m 1,0 v 2 h 1 v -2 z m 2.5,0 v 2 h 0.5 v -2 z" color="#000" display="inline" enable-background="accumulate" opacity="1" overflow="visible" visibility="visible"/><path id="path1018" fill="#fff" fill-opacity="1" fill-rule="nonzero" stroke="none" stroke-width="1" d="m 336.0004,134 v 28 h 5.80859 c 5.6154,0 6.19141,-0.57631 6.19141,-6.20312 V 148 140.20312 c 0,-5.6268 -0.57603,-6.20312 -6.19141,-6.20312 z" color="#000" display="inline" enable-background="accumulate" opacity=".08" overflow="visible" visibility="visible" style="marker:none"/><path stroke-opacity="1" style="marker:none" id="path1049" fill="url(#linearGradient1057)" fill-opacity="1" fill-rule="nonzero" stroke="none" stroke-dasharray="none" stroke-dashoffset="0" stroke-linecap="butt" stroke-linejoin="miter" stroke-miterlimit="4" stroke-width="16" d="m 331.0004,189 h 2 v 22 h -2 z" color="#000" display="inline" enable-background="accumulate" opacity=".6" overflow="visible" visibility="visible"/><path stroke-opacity="1" style="marker:none" id="path1051" fill="#e2965b" fill-opacity="1" fill-rule="nonzero" stroke="none" stroke-dasharray="none" stroke-dashoffset="0" stroke-linecap="butt" stroke-linejoin="miter" stroke-miterlimit="4" stroke-width="16" d="m 334.0004,205 v 1 h 5 v -1 z m 0,2 v 1 h 3 v -1 z" color="#000" display="inline" enable-background="accumulate" opacity="1" overflow="visible" visibility="visible"/><path stroke-opacity="1" style="marker:none" id="path1053" fill="#f9f9f9" fill-opacity="1" fill-rule="nonzero" stroke="none" stroke-dasharray="none" stroke-dashoffset="0" stroke-linecap="butt" stroke-linejoin="miter" stroke-miterlimit="4" stroke-width="16" d="m 324.0004,205 h 6 v 4 h -6 z" color="#000" display="inline" enable-background="accumulate" opacity="1" overflow="visible" visibility="visible"/><path stroke-opacity="1" style="marker:none" id="path1055" fill="#5d5d5d" fill-opacity="1" fill-rule="nonzero" stroke="none" stroke-dasharray="none" stroke-dashoffset="0" stroke-linecap="butt" stroke-linejoin="miter" stroke-miterlimit="4" stroke-width="16" d="m 325.0004,206 v 2 h 0.5 v -2 z m 1,0 v 2 h 0.5 v -2 z m 1,0 v 2 h 1 v -2 z m 1.5,0 v 2 h 0.5 v -2 z" color="#000" display="inline" enable-background="accumulate" opacity="1" overflow="visible" visibility="visible"/><path id="path1014" fill="#fff" fill-opacity="1" fill-rule="nonzero" stroke="none" stroke-width="1" d="m 332.0004,189 v 22 h 4.13477 c 4.41209,0 4.86523,-0.45393 4.86523,-4.875 V 200 193.875 c 0,-4.42106 -0.45314,-4.875 -4.86523,-4.875 z" color="#000" display="inline" enable-background="accumulate" opacity=".08" overflow="visible" visibility="visible" style="marker:none"/><path stroke-opacity="1" style="marker:none" id="path1068" fill="url(#linearGradient1070)" fill-opacity="1" fill-rule="nonzero" stroke="none" stroke-dasharray="none" stroke-dashoffset="0" stroke-linecap="butt" stroke-linejoin="miter" stroke-miterlimit="4" stroke-width="16" d="m 327.0004,237 h 2 v 14 h -2 z" color="#000" display="inline" enable-background="accumulate" opacity=".6" overflow="visible" visibility="visible"/><path stroke-opacity="1" style="marker:none" id="path1059" fill="#e2965b" fill-opacity="1" fill-rule="nonzero" stroke="none" stroke-dasharray="none" stroke-dashoffset="0" stroke-linecap="butt" stroke-linejoin="miter" stroke-miterlimit="4" stroke-width="16" d="m 329.0004,246 v 0.5 h 5 V 246 Z m 0,2 v 0.5 h 3 V 248 Z" color="#000" display="inline" enable-background="accumulate" opacity="1" overflow="visible" visibility="visible"/><path stroke-opacity="1" style="marker:none" id="path1061" fill="#f9f9f9" fill-opacity="1" fill-rule="nonzero" stroke="none" stroke-dasharray="none" stroke-dashoffset="0" stroke-linecap="butt" stroke-linejoin="miter" stroke-miterlimit="4" stroke-width="16" d="m 322.0004,246 h 4 v 3 h -4 z" color="#000" display="inline" enable-background="accumulate" opacity="1" overflow="visible" visibility="visible"/><path stroke-opacity="1" style="marker:none" id="path1063" fill="#5d5d5d" fill-opacity="1" fill-rule="nonzero" stroke="none" stroke-dasharray="none" stroke-dashoffset="0" stroke-linecap="butt" stroke-linejoin="miter" stroke-miterlimit="4" stroke-width="16" d="m 322.5004,247 v 1 h 0.5 v -1 z m 1,0 v 1 h 0.5 v -1 z m 1,0 v 1 h 1 v -1 z" color="#000" display="inline" enable-background="accumulate" opacity="1" overflow="visible" visibility="visible"/><path id="path1009" fill="#fff" fill-opacity="1" fill-rule="nonzero" stroke="none" stroke-width="1" d="m 328.0004,237 v 14 h 2.9043 c 2.8077,0 3.0957,-0.28815 3.0957,-3.10156 V 244 240.10156 c 0,-2.8134 -0.28801,-3.10156 -3.0957,-3.10156 z" color="#000" display="inline" enable-background="accumulate" opacity=".08" overflow="visible" visibility="visible" style="marker:none"/></g><g id="layer4" display="inline"><path id="path931" fill="#fff" fill-opacity="1" fill-rule="nonzero" stroke="none" stroke-width="1" d="M 102.92188,44 C 67.625152,44 63.82701,47.626029 64,82.994141 v 2 C 63.82701,49.626029 67.625152,46 102.92188,46 h 98.15624 C 236.37485,46 240,49.625608 240,84.994141 v -2 C 240,47.625608 236.37485,44 201.07812,44 Z" color="#000" display="inline" enable-background="accumulate" opacity=".3" overflow="visible" visibility="visible" style="marker:none"/><path id="path931-8" fill="#000" fill-opacity="1" fill-rule="nonzero" stroke="none" stroke-width="1" d="m 102.92728,268 c -35.296731,0 -39.094875,-3.62603 -38.921885,-38.99414 v -2 C 63.832405,262.37397 67.630549,266 102.92728,266 h 98.15624 c 35.29673,0 38.92188,-3.62561 38.92188,-38.99414 v 2 C 240.0054,264.37439 236.38025,268 201.08352,268 Z" color="#000" display="inline" enable-background="accumulate" opacity=".2" overflow="visible" visibility="visible" style="marker:none"/><path id="path958" fill="none" fill-opacity="1" fill-rule="nonzero" stroke="#000" stroke-dasharray="none" stroke-miterlimit="4" stroke-opacity="1" stroke-width="1" d="m 335.23154,61.500047 c -8.23154,0 -9.77365,0.90635 -9.7304,9.74838 V 84 96.75181 c -0.0433,8.84203 1.49886,9.74838 9.7304,9.74838 h 17.53897 c 8.22949,0 9.73039,-0.90625 9.73039,-9.74838 V 84 71.248427 c 0,-8.84213 -1.5009,-9.74838 -9.7304,-9.74838 z" color="#000" display="inline" enable-background="accumulate" opacity=".4" overflow="visible" visibility="visible" style="marker:none"/><path id="path990" fill="none" fill-opacity="1" fill-rule="nonzero" stroke="url(#linearGradient1004)" stroke-dasharray="none" stroke-miterlimit="4" stroke-opacity="1" stroke-width="2" d="m 335.73108,62 c -8.82418,0 -9.77365,0.90635 -9.7304,9.74838 V 84 96.25162 c -0.0433,8.84203 0.90622,9.74838 9.7304,9.74838 h 16.53919 c 8.82418,0 9.7304,-0.90625 9.7304,-9.74838 V 84 71.74838 C 362.00067,62.90625 361.09445,62 352.27027,62 Z" clip-path="url(#clipPath994)" color="#000" display="inline" enable-background="accumulate" opacity=".7" overflow="visible" visibility="visible" style="marker:none"/><path id="path958-1" fill="none" fill-opacity="1" fill-rule="nonzero" stroke="#000" stroke-dasharray="none" stroke-miterlimit="4" stroke-opacity="1" stroke-width="1" d="m 330.07509,133.5 c -5.56175,0 -6.6037,0.58409 -6.57447,6.28227 v 8.21765 8.21781 c -0.0293,5.69818 1.01272,6.28227 6.57447,6.28227 h 11.85044 c 5.56037,0 6.57447,-0.58403 6.57447,-6.28227 v -8.21781 -8.21765 c 0,-5.69824 -1.0141,-6.28227 -6.57447,-6.28227 z" color="#000" display="inline" enable-background="accumulate" opacity=".4" overflow="visible" visibility="visible" style="marker:none"/><path id="path990-8" fill="none" fill-opacity="1" fill-rule="nonzero" stroke="url(#linearGradient1004-8)" stroke-dasharray="none" stroke-miterlimit="4" stroke-opacity="1" stroke-width="3.071" d="m 335.73108,62 c -8.82418,0 -9.77365,0.90635 -9.7304,9.74838 V 84 96.25162 c -0.0433,8.84203 0.90622,9.74838 9.7304,9.74838 h 16.53919 c 8.82418,0 9.7304,-0.90625 9.7304,-9.74838 V 84 71.74838 C 362.00067,62.90625 361.09445,62 352.27027,62 Z" clip-path="url(#clipPath994-1)" color="#000" display="inline" enable-background="accumulate" opacity=".7" overflow="visible" transform="matrix(0.66664182,0,0,0.63636364,106.67522,94.545454)" visibility="visible" style="marker:none"/><path id="path935" fill="none" fill-opacity="1" fill-rule="nonzero" stroke="url(#linearGradient981)" stroke-dasharray="none" stroke-miterlimit="4" stroke-opacity="1" stroke-width="2" d="m 327.8652,189 c -4.41209,0 -4.88682,0.45318 -4.8652,4.87419 V 200 206.12581 C 322.9783,210.54682 323.45311,211 327.8652,211 h 8.2696 C 340.54689,211 341,210.54688 341,206.12581 V 200 193.87419 C 341,189.45313 340.54688,189 336.13479,189 Z" clip-path="url(#clipPath971)" color="#000" display="inline" enable-background="accumulate" opacity=".7" overflow="visible" visibility="visible" style="marker:none"/><path id="path958-6" fill="none" fill-opacity="1" fill-rule="nonzero" stroke="#000" stroke-dasharray="none" stroke-miterlimit="4" stroke-opacity="1" stroke-width=".977" d="m 336.50843,211.51174 c 4.23214,0 5.02499,-0.46371 5.00275,-4.98757 v -6.5241 -6.52423 c 0.0222,-4.52386 -0.77061,-4.98757 -5.00275,-4.98757 H 327.491 c -4.23108,0 -5.00275,0.46366 -5.00275,4.98757 v 6.52423 6.5241 c 0,4.52391 0.77167,4.98757 5.00275,4.98757 z" color="#000" display="inline" enable-background="accumulate" opacity=".4" overflow="visible" visibility="visible" style="marker:none"/><path id="path937" fill="none" fill-opacity="1" fill-rule="nonzero" stroke="url(#linearGradient993)" stroke-dasharray="none" stroke-miterlimit="4" stroke-opacity="1" stroke-width="2" d="m 325.09646,237 c -2.80769,0 -3.10979,0.28839 -3.09603,3.10176 V 244 v 3.89824 c -0.0138,2.81337 0.28834,3.10176 3.09603,3.10176 h 5.8075 C 333.71166,251 334,250.71165 334,247.89824 V 244 240.10176 C 334,237.28836 333.71165,237 330.90396,237 Z" clip-path="url(#clipPath983)" color="#000" display="inline" enable-background="accumulate" opacity=".7" overflow="visible" visibility="visible" style="marker:none"/><path id="path958-6-0" fill="none" fill-opacity="1" fill-rule="nonzero" stroke="#000" stroke-dasharray="none" stroke-miterlimit="4" stroke-opacity="1" stroke-width=".977" d="m 331.08645,251.51174 c 2.89732,0 3.44011,-0.30259 3.42488,-3.25454 v -4.25716 -4.25724 c 0.0152,-2.95195 -0.52756,-3.25453 -3.42488,-3.25453 h -6.17331 c -2.8966,0 -3.42488,0.30255 -3.42488,3.25453 v 4.25724 4.25716 c 0,2.95199 0.52828,3.25454 3.42488,3.25454 z" color="#000" display="inline" enable-background="accumulate" opacity=".4" overflow="visible" visibility="visible" style="marker:none"/></g></g></svg>