<svg xmlns="http://www.w3.org/2000/svg" xmlns:svg="http://www.w3.org/2000/svg" xmlns:xlink="http://www.w3.org/1999/xlink" id="svg11300" width="400" height="300" display="inline" enable-background="new" version="1.0"><title id="title3004">Suru Icon Theme Template</title><defs id="defs3"><clipPath id="clipPath9430" clipPathUnits="userSpaceOnUse"><path id="path9432" fill="#fff" fill-opacity="1" fill-rule="nonzero" stroke="none" stroke-width="1" d="m 166.0625,-196 h 179.875 C 491.2348,-196 512,-175.28677 512,-30.125 v 148.25 C 512,263.28618 491.2348,284 345.9375,284 H 166.0625 C 20.7652,284 0,263.28618 0,118.125 V -30.125 C 0,-175.28677 20.7652,-196 166.0625,-196 Z" color="#000" display="inline" enable-background="new" overflow="visible" visibility="visible" style="marker:none"/></clipPath><clipPath id="clipPath1082" clipPathUnits="userSpaceOnUse"><path id="path1084" fill="#8c59d9" fill-opacity="1" stroke="none" stroke-dasharray="none" stroke-dashoffset="0" stroke-linecap="round" stroke-linejoin="round" stroke-miterlimit="4" stroke-opacity="1" stroke-width="2" d="M 361.9375,-212 C 507.2348,-212 528,-191.28677 528,-46.125 V 70.125 C 528,215.28618 507.2348,236 361.9375,236 H 214.0625 C 68.7652,236 48,215.28618 48,70.125 V -46.125 C 48,-191.28677 68.7652,-212 214.0625,-212 Z" display="inline" enable-background="new" opacity="1"/></clipPath><linearGradient id="linearGradient927"><stop id="stop923" offset="0" stop-color="#fff" stop-opacity="1"/><stop id="stop933" offset=".125" stop-color="#fff" stop-opacity=".098"/><stop id="stop931" offset=".925" stop-color="#fff" stop-opacity=".098"/><stop id="stop925" offset="1" stop-color="#fff" stop-opacity=".498"/></linearGradient><clipPath id="clipPath994" clipPathUnits="userSpaceOnUse"><path id="path996" fill="#cdcdcd" fill-opacity="1" fill-rule="nonzero" stroke="none" stroke-dasharray="none" stroke-miterlimit="4" stroke-opacity="1" stroke-width="2" d="m 335.73108,62 c -8.82418,0 -9.77365,0.90635 -9.7304,9.74838 V 84 96.25162 c -0.0433,8.84203 0.90622,9.74838 9.7304,9.74838 h 16.53919 c 8.82418,0 9.7304,-0.90625 9.7304,-9.74838 V 84 71.74838 C 362.00067,62.90625 361.09445,62 352.27027,62 Z" color="#000" display="inline" enable-background="accumulate" overflow="visible" visibility="visible" style="marker:none"/></clipPath><clipPath id="clipPath959" clipPathUnits="userSpaceOnUse"><path id="path961" fill="#46a926" fill-opacity="1" fill-rule="nonzero" stroke="none" stroke-dasharray="none" stroke-miterlimit="4" stroke-opacity="1" stroke-width="2" d="m 330.1929,133.99999 c -5.61538,0 -6.21958,0.57678 -6.19206,6.20352 v 7.79648 7.79648 c -0.0276,5.62673 0.57668,6.20351 6.19206,6.20351 h 11.615 c 5.6154,0 6.19208,-0.5767 6.19208,-6.20351 v -7.79648 -7.79648 c 0,-5.6268 -0.5767,-6.20352 -6.19208,-6.20352 z" color="#000" display="inline" enable-background="accumulate" opacity="1" overflow="visible" visibility="visible" style="marker:none"/></clipPath><clipPath id="clipPath971" clipPathUnits="userSpaceOnUse"><path id="path973" fill="#46a926" fill-opacity="1" fill-rule="nonzero" stroke="none" stroke-dasharray="none" stroke-miterlimit="4" stroke-opacity="1" stroke-width="2" d="m 327.8652,189 c -4.41209,0 -4.88682,0.45318 -4.8652,4.87419 V 200 206.12581 C 322.9783,210.54682 323.45311,211 327.8652,211 h 8.2696 C 340.54689,211 341,210.54688 341,206.12581 V 200 193.87419 C 341,189.45313 340.54688,189 336.13479,189 Z" color="#000" display="inline" enable-background="accumulate" opacity="1" overflow="visible" visibility="visible" style="marker:none"/></clipPath><clipPath id="clipPath983" clipPathUnits="userSpaceOnUse"><path id="path985" fill="#46a926" fill-opacity="1" fill-rule="nonzero" stroke="none" stroke-dasharray="none" stroke-miterlimit="4" stroke-opacity="1" stroke-width="2" d="m 325.09646,237 c -2.80769,0 -3.10979,0.28839 -3.09603,3.10176 V 244 v 3.89824 c -0.0138,2.81337 0.28834,3.10176 3.09603,3.10176 h 5.8075 C 333.71166,251 334,250.71165 334,247.89824 V 244 240.10176 C 334,237.28836 333.71165,237 330.90396,237 Z" color="#000" display="inline" enable-background="accumulate" opacity="1" overflow="visible" visibility="visible" style="marker:none"/></clipPath><linearGradient id="linearGradient4336-3"><stop id="stop4338-8" offset="0" stop-color="#5884f4" stop-opacity="1"/><stop id="stop4344-3" offset=".278" stop-color="#5884f4" stop-opacity="1"/><stop id="stop4346-3" offset=".278" stop-color="#2f5fdd" stop-opacity="1"/><stop id="stop4350-1" offset=".707" stop-color="#2f5fdd" stop-opacity="1"/><stop id="stop4348-6" offset=".709" stop-color="#234db8" stop-opacity="1"/><stop id="stop4340-0" offset="1" stop-color="#234db8" stop-opacity="1"/></linearGradient><clipPath id="clipPath994-1" clipPathUnits="userSpaceOnUse"><path id="path996-8" fill="#cdcdcd" fill-opacity="1" fill-rule="nonzero" stroke="none" stroke-dasharray="none" stroke-miterlimit="4" stroke-opacity="1" stroke-width="2" d="m 335.73108,62 c -8.82418,0 -9.77365,0.90635 -9.7304,9.74838 V 84 96.25162 c -0.0433,8.84203 0.90622,9.74838 9.7304,9.74838 h 16.53919 c 8.82418,0 9.7304,-0.90625 9.7304,-9.74838 V 84 71.74838 C 362.00067,62.90625 361.09445,62 352.27027,62 Z" color="#000" display="inline" enable-background="accumulate" overflow="visible" visibility="visible" style="marker:none"/></clipPath><filter id="filter11191" width="1.024" height="1.024" x="-.012" y="-.012" color-interpolation-filters="sRGB"><feGaussianBlur id="feGaussianBlur11193" stdDeviation="1.12"/></filter><filter id="filter11210" width="1.096" height="1.096" x="-.048" y="-.048" color-interpolation-filters="sRGB"><feGaussianBlur id="feGaussianBlur11212" stdDeviation="4.48"/></filter><linearGradient id="linearGradient8590" x1="96" x2="96" y1="4" y2="188" gradientTransform="matrix(0.23913043,0,0,0.23913032,321.04348,61.043494)" gradientUnits="userSpaceOnUse" xlink:href="#linearGradient927"/><linearGradient id="linearGradient8590-3" x1="96" x2="96" y1="4" y2="188" gradientTransform="matrix(0.15217394,0,0,0.15217387,321.3913,133.39129)" gradientUnits="userSpaceOnUse" xlink:href="#linearGradient927"/><linearGradient id="linearGradient8590-3-3" x1="96" x2="96" y1="4" y2="188" gradientTransform="matrix(0.10869563,0,0,0.10869559,321.56522,189.56521)" gradientUnits="userSpaceOnUse" xlink:href="#linearGradient927"/><linearGradient id="linearGradient8590-3-3-4" x1="96" x2="96" y1="4" y2="188" gradientTransform="matrix(0.06521734,0,0,0.06521732,321.73913,237.73914)" gradientUnits="userSpaceOnUse" xlink:href="#linearGradient927"/><clipPath id="clipPath999" clipPathUnits="userSpaceOnUse"><path id="path1001" fill="#5d5d5d" fill-opacity="1" fill-rule="nonzero" stroke="none" stroke-dasharray="none" stroke-dashoffset="0" stroke-linecap="butt" stroke-linejoin="round" stroke-miterlimit="4" stroke-opacity="1" stroke-width="3.826" d="m 152,68 c -48.60106,0 -88,39.39894 -88,88 0,48.60106 39.39894,88 88,88 48.60106,0 88,-39.39894 88,-88 0,-48.60106 -39.39894,-88 -88,-88 z" color="#000" display="inline" enable-background="accumulate" opacity="1" overflow="visible" visibility="visible" style="marker:none"/></clipPath><radialGradient id="radialGradient4404" cx="-256" cy="-256.2" r="96" fx="-256" fy="-256.2" gradientTransform="matrix(0,-0.8333347,-0.83333471,0,-61.500495,-57.333683)" gradientUnits="userSpaceOnUse" xlink:href="#linearGradient4398"/><linearGradient id="linearGradient4398"><stop id="stop4402" offset="0" stop-color="#000" stop-opacity="0"/><stop id="stop4408" offset=".899" stop-color="#000" stop-opacity="0"/><stop id="stop4410" offset=".949" stop-color="#000" stop-opacity=".262"/><stop id="stop4400" offset="1" stop-color="#000" stop-opacity="1"/></linearGradient><filter id="filter1013" width="1.12" height="1.12" x="-.06" y="-.06" color-interpolation-filters="sRGB"><feGaussianBlur id="feGaussianBlur1015" stdDeviation="3.4"/></filter><linearGradient id="linearGradient4301" x1="-434" x2="-82" y1="-256" y2="-256" gradientUnits="userSpaceOnUse" xlink:href="#linearGradient4295"/><linearGradient id="linearGradient4295"><stop id="stop4365" offset="0" stop-color="#000" stop-opacity="0"/><stop id="stop4367" offset=".499" stop-color="#000" stop-opacity="1"/><stop id="stop4369" offset="1" stop-color="#000" stop-opacity="0"/></linearGradient><filter id="filter4291" width="1.192" height="1.192" x="-.096" y="-.096" color-interpolation-filters="sRGB"><feGaussianBlur id="feGaussianBlur4293" stdDeviation="14.08"/></filter><filter id="filter4323" width="1.024" height="1.024" x="-.012" y="-.012" color-interpolation-filters="sRGB"><feGaussianBlur id="feGaussianBlur4325" stdDeviation="1.76"/></filter><linearGradient id="linearGradient946" x1="-101" x2="-69" y1="-344" y2="-344" gradientTransform="translate(1)" gradientUnits="userSpaceOnUse" xlink:href="#linearGradient4295"/><filter id="filter952" width="1.24" height="1.24" x="-.12" y="-.12" color-interpolation-filters="sRGB"><feGaussianBlur id="feGaussianBlur954" stdDeviation="1.6"/></filter></defs><metadata id="metadata4"/><g id="layer1" display="inline"><g id="layer7" display="none"><text enable-background="new" style="line-height:0%;-inkscape-font-specification:'DejaVu Sans'" id="context" x="19.007" y="-8.255" fill="#000" fill-opacity="1" stroke="none" display="inline" font-family="DejaVu Sans" font-stretch="normal" font-style="normal" font-variant="normal" font-weight="normal" xml:space="preserve"><tspan id="tspan3933" x="19.007" y="-8.255" font-family="DejaVu Sans" font-size="18" font-stretch="normal" font-style="normal" font-variant="normal" font-weight="normal" style="line-height:1.25;-inkscape-font-specification:'DejaVu Sans'">apps</tspan></text><text id="icon-name" x="146.488" y="-8.255" fill="#000" fill-opacity="1" stroke="none" display="inline" enable-background="new" font-family="DejaVu Sans" font-stretch="normal" font-style="normal" font-variant="normal" font-weight="bold" text-anchor="start" writing-mode="lr-tb" xml:space="preserve" style="line-height:0%;-inkscape-font-specification:'DejaVu Sans Bold';text-align:start"><tspan id="tspan3937" x="146.488" y="-8.255" font-family="DejaVu Sans" font-size="18" font-stretch="normal" font-style="normal" font-variant="normal" font-weight="bold" style="line-height:1.25;-inkscape-font-specification:'DejaVu Sans Bold'">passwords-app</tspan></text><rect id="rect16x16" width="16" height="16" x="320" y="236" fill="#cdcdcd" fill-opacity="1" fill-rule="nonzero" stroke="none" stroke-width="2" display="inline" enable-background="accumulate" overflow="visible" visibility="visible" style="marker:none"/><rect id="rect24x24" width="24" height="24" x="320" y="188" fill="#cdcdcd" fill-opacity="1" fill-rule="nonzero" stroke="none" stroke-width="2" display="inline" enable-background="accumulate" overflow="visible" visibility="visible" style="marker:none"/><rect id="rect32x32" width="32" height="32" x="320" y="132" fill="#cdcdcd" fill-opacity="1" fill-rule="nonzero" stroke="none" stroke-width="2" display="inline" enable-background="accumulate" overflow="visible" visibility="visible" style="marker:none"/><rect id="rect48x48" width="48" height="48" x="320" y="60" fill="#cdcdcd" fill-opacity="1" fill-rule="nonzero" stroke="none" stroke-width="2" display="inline" enable-background="accumulate" overflow="visible" visibility="visible" style="marker:none"/><rect id="rect3951" width="256" height="256" x="24" y="28" fill="#cdcdcd" fill-opacity="1" fill-rule="nonzero" stroke="none" stroke-width="2" display="inline" enable-background="accumulate" overflow="visible" visibility="visible" style="marker:none"/></g><g id="layer8" display="inline"><circle id="path11042-0" cx="152" cy="160" r="112" fill="#000" fill-opacity="1" stroke="none" stroke-dasharray="none" stroke-linecap="round" stroke-linejoin="round" stroke-miterlimit="4" stroke-opacity="1" stroke-width="1" display="inline" enable-background="new" filter="url(#filter11210)" opacity=".1"/><circle id="path11042-6" cx="152" cy="158" r="112" fill="#000" fill-opacity="1" stroke="none" stroke-dasharray="none" stroke-linecap="round" stroke-linejoin="round" stroke-miterlimit="4" stroke-opacity="1" stroke-width="1" display="inline" enable-background="new" filter="url(#filter11191)" opacity=".1"/><circle id="path11042-7" cx="152" cy="156" r="114" fill="#000" fill-opacity="1" stroke="none" stroke-dasharray="none" stroke-linecap="round" stroke-linejoin="round" stroke-miterlimit="4" stroke-opacity="1" stroke-width="1" display="inline" enable-background="new" opacity=".1"/><circle id="path11042" cx="-152" cy="-156" r="112" fill="#c8c4b7" fill-opacity="1" stroke="none" stroke-dasharray="none" stroke-linecap="round" stroke-linejoin="round" stroke-miterlimit="4" stroke-opacity="1" stroke-width="1" display="inline" enable-background="new" opacity="1" transform="scale(-1)"/><path id="path11042-5" cx="152" cy="156" r="112" fill="#fff" fill-opacity="1" stroke="none" stroke-dasharray="none" stroke-linecap="round" stroke-linejoin="round" stroke-miterlimit="4" stroke-opacity="1" stroke-width="1" display="inline" enable-background="new" opacity="1"/><circle id="path9498-0-0" cx="-344" cy="-85" r="23" fill="#000" fill-opacity="1" stroke="none" stroke-dasharray="none" stroke-linecap="round" stroke-linejoin="round" stroke-miterlimit="4" stroke-opacity="1" stroke-width="1.954" display="inline" enable-background="new" opacity=".1" transform="scale(-1)"/><circle id="path9498-6" cx="-344" cy="-84" r="22.5" fill="#c8c4b7" fill-opacity="1" stroke="none" stroke-dasharray="none" stroke-linecap="round" stroke-linejoin="round" stroke-miterlimit="4" stroke-opacity="1" stroke-width="1.869" display="inline" enable-background="new" opacity="1" transform="scale(-1)"/><circle id="path9498-0-0-2" cx="-336" cy="-149" r="15" fill="#000" fill-opacity="1" stroke="none" stroke-dasharray="none" stroke-linecap="round" stroke-linejoin="round" stroke-miterlimit="4" stroke-opacity="1" stroke-width="1.954" display="inline" enable-background="new" opacity=".1" transform="scale(-1)"/><circle id="path9498-6-5" cx="-336" cy="-148" r="14.5" fill="#c8c4b7" fill-opacity="1" stroke="none" stroke-dasharray="none" stroke-linecap="round" stroke-linejoin="round" stroke-miterlimit="4" stroke-opacity="1" stroke-width="1.869" display="inline" enable-background="new" opacity="1" transform="scale(-1)"/><circle id="path9498-0-0-2-3" cx="-332" cy="-201" r="11" fill="#000" fill-opacity="1" stroke="none" stroke-dasharray="none" stroke-linecap="round" stroke-linejoin="round" stroke-miterlimit="4" stroke-opacity="1" stroke-width="1.954" display="inline" enable-background="new" opacity=".1" transform="scale(-1)"/><circle id="path9498-6-5-6" cx="-332" cy="-200" r="10.5" fill="#c8c4b7" fill-opacity="1" stroke="none" stroke-dasharray="none" stroke-linecap="round" stroke-linejoin="round" stroke-miterlimit="4" stroke-opacity="1" stroke-width="1.869" display="inline" enable-background="new" opacity="1" transform="scale(-1)"/><circle id="path9498-0-0-2-3-3" cx="-328" cy="-245" r="7" fill="#000" fill-opacity="1" stroke="none" stroke-dasharray="none" stroke-linecap="round" stroke-linejoin="round" stroke-miterlimit="4" stroke-opacity="1" stroke-width="1.954" display="inline" enable-background="new" opacity=".1" transform="scale(-1)"/><circle id="path9498-6-5-6-8" cx="-328" cy="-244" r="6.5" fill="#c8c4b7" fill-opacity="1" stroke="none" stroke-dasharray="none" stroke-linecap="round" stroke-linejoin="round" stroke-miterlimit="4" stroke-opacity="1" stroke-width="1.869" display="inline" enable-background="new" opacity="1" transform="scale(-1)"/><path id="path11042-2" fill="#fff" fill-opacity="1" stroke="none" stroke-dasharray="none" stroke-linecap="round" stroke-linejoin="round" stroke-miterlimit="4" stroke-opacity="1" stroke-width="1" d="M 152,44 A 112,112 0 0 0 40,156 112,112 0 0 0 152,268 Z" display="inline" enable-background="new" opacity=".25"/><path id="path9498-6-7" fill="#fff" fill-opacity="1" stroke="none" stroke-dasharray="none" stroke-linecap="round" stroke-linejoin="round" stroke-miterlimit="4" stroke-opacity="1" stroke-width="1.869" d="M 344,61.5 A 22.5,22.5 0 0 0 321.5,84 22.5,22.5 0 0 0 344,106.5 Z" display="inline" enable-background="new" opacity=".25"/><path id="path9498-6-5-2" fill="#fff" fill-opacity="1" stroke="none" stroke-dasharray="none" stroke-linecap="round" stroke-linejoin="round" stroke-miterlimit="4" stroke-opacity="1" stroke-width="1.869" d="M 336,133.5 A 14.5,14.5 0 0 0 321.5,148 14.5,14.5 0 0 0 336,162.5 Z" display="inline" enable-background="new" opacity=".25"/><path id="path9498-6-5-6-2" fill="#fff" fill-opacity="1" stroke="none" stroke-dasharray="none" stroke-linecap="round" stroke-linejoin="round" stroke-miterlimit="4" stroke-opacity="1" stroke-width="1.869" d="M 332 189.5 A 10.5 10.5 0 0 0 321.5 200 A 10.5 10.5 0 0 0 332 210.5 L 332 189.5 z" display="inline" enable-background="new" opacity=".25"/></g><g id="layer6" display="inline"><path id="rect12119-6" fill="#fff" fill-opacity="1" stroke="none" stroke-dasharray="none" stroke-linecap="round" stroke-linejoin="round" stroke-miterlimit="4" stroke-opacity="1" stroke-width=".667" d="m 320.70257,244.66669 a 7.3333329,7.3333299 0 0 0 7.29704,6.66666 7.3333329,7.3333299 0 0 0 7.29996,-6.66666 z" display="inline" enable-background="new" opacity=".25"/><circle id="circle1244" cx="-201" cy="-332" r="8" fill="#000" fill-opacity="1" stroke="none" stroke-width=".225" color="#000" display="inline" enable-background="accumulate" opacity=".1" overflow="visible" transform="matrix(0,-1,-1,0,0,0)" visibility="visible" style="marker:none"/><circle id="circle938" cx="-84" cy="-344" r="16" fill="url(#linearGradient946)" fill-opacity="1" stroke="none" stroke-width=".451" color="#000" display="inline" enable-background="accumulate" filter="url(#filter952)" opacity=".4" overflow="visible" transform="matrix(0,-1,-1,0,-4.1563252e-6,6.3785834e-6)" visibility="visible" style="marker:none"/><circle id="circle1133" cx="-85" cy="-344" r="16" fill="#000" fill-opacity="1" stroke="none" stroke-width=".451" color="#000" display="inline" enable-background="accumulate" opacity=".1" overflow="visible" transform="matrix(0,-1,-1,0,0,0)" visibility="visible" style="marker:none"/><circle id="circle1092" cx="-149" cy="-336" r="11" fill="#000" fill-opacity="1" stroke="none" stroke-width=".31" color="#000" display="inline" enable-background="accumulate" opacity=".1" overflow="visible" transform="matrix(0,-1,-1,0,0,0)" visibility="visible" style="marker:none"/><circle id="circle4305" cx="-258" cy="-256" r="176" fill="#000" fill-opacity=".996" stroke="none" stroke-width="4.96" color="#000" display="inline" enable-background="accumulate" filter="url(#filter4323)" opacity=".1" overflow="visible" transform="matrix(0,-0.5,-0.50000001,0,23.999996,27.999994)" visibility="visible" style="marker:none"/><circle id="circle4345" cx="-258" cy="-256" r="176" fill="url(#linearGradient4301)" fill-opacity="1" stroke="none" stroke-width="4.96" color="#000" display="inline" enable-background="accumulate" filter="url(#filter4291)" opacity=".4" overflow="visible" transform="matrix(0,-0.5,-0.50000001,0,23.999996,27.999994)" visibility="visible" style="marker:none"/><circle id="path4389-5" cx="-156" cy="-152" r="88" fill="#f7f7f7" fill-opacity="1" stroke="none" stroke-width="2.48" color="#000" display="inline" enable-background="accumulate" overflow="visible" transform="matrix(0,-1,-1,0,0,0)" visibility="visible" style="marker:none"/><circle id="circle4191" cx="-157" cy="-152" r="80" fill="#fff" fill-opacity="1" stroke="none" stroke-width="2" color="#000" display="inline" enable-background="accumulate" opacity="1" overflow="visible" transform="matrix(0,-1,-1,0,0,0)" visibility="visible" style="marker:none"/><circle id="circle4371" cx="-156" cy="-152" r="80" fill="#aea795" fill-opacity="1" stroke="none" stroke-width="2" color="#000" display="inline" enable-background="accumulate" overflow="visible" transform="matrix(0,-1,-1,0,0,0)" visibility="visible" style="marker:none"/><circle id="circle1011" cx="-157" cy="-152" r="68" fill="#000" fill-opacity="1" stroke="none" stroke-width="2" color="#000" display="inline" enable-background="accumulate" filter="url(#filter1013)" opacity=".1" overflow="visible" transform="matrix(0,-1,-1,0,-4.1563252e-6,6.3785834e-6)" visibility="visible" style="marker:none"/><path id="circle4396" fill="url(#radialGradient4404)" fill-opacity="1" stroke="none" stroke-width="2" d="M 151.9993,75.999301 A 80.000136,80.000135 0 0 0 71.999996,155.99999 80.000136,80.000135 0 0 0 151.9993,236.00069 80.000136,80.000135 0 0 0 232,155.99999 80.000136,80.000135 0 0 0 151.9993,75.999301 Z m 0,28.622579 a 51.378131,51.37813 0 0 1 51.37811,51.37811 51.378131,51.37813 0 0 1 -51.37811,51.37811 51.378131,51.37813 0 0 1 -51.37811,-51.37811 51.378131,51.37813 0 0 1 51.37811,-51.37811 z" color="#000" display="inline" enable-background="accumulate" opacity=".05" overflow="visible" visibility="visible" style="marker:none"/><circle id="circle4269" cx="-156" cy="-152" r="68" fill="#f7f7f7" fill-opacity="1" stroke="none" stroke-width="2" color="#000" display="inline" enable-background="accumulate" opacity="1" overflow="visible" transform="matrix(0,-1,-1,0,0,0)" visibility="visible" style="marker:none"/><circle id="circle4201" cx="-156" cy="-152" r="60" fill="#000" fill-opacity="1" stroke="none" stroke-width="2" color="#000" display="inline" enable-background="accumulate" opacity=".1" overflow="visible" transform="matrix(0,-1,-1,0,0,0)" visibility="visible" style="marker:none"/><circle id="circle1084" cx="-156" cy="-152" r="32" fill="#000" fill-opacity="1" stroke="none" stroke-width="2" color="#000" display="inline" enable-background="accumulate" opacity=".1" overflow="visible" transform="matrix(0,-1,-1,0,0,0)" visibility="visible" style="marker:none"/><path id="circle1021" fill="#fff" fill-opacity="1" stroke="none" stroke-width="2.48" d="M 152,68.000004 A 87.999993,87.999992 0 0 0 63.999996,156 a 87.999993,87.999992 0 0 0 0.041,0.83008 A 87.999993,87.999992 0 0 1 152,70.000004 a 87.999993,87.999992 0 0 1 87.95898,87.169916 87.999993,87.999992 0 0 0 0.041,-1.16992 87.999993,87.999992 0 0 0 -88,-87.999996 z" color="#000" display="inline" enable-background="accumulate" opacity="1" overflow="visible" visibility="visible" style="marker:none"/><circle id="circle1040" cx="-148" cy="-336" r="11" fill="#f7f7f7" fill-opacity="1" stroke="none" stroke-width=".31" color="#000" display="inline" enable-background="accumulate" overflow="visible" transform="matrix(0,-1,-1,0,0,0)" visibility="visible" style="marker:none"/><circle id="circle1044" cx="-148" cy="-336" r="9" fill="#aea795" fill-opacity="1" stroke="none" stroke-width=".225" color="#000" display="inline" enable-background="accumulate" overflow="visible" transform="matrix(0,-1,-1,0,0,0)" visibility="visible" style="marker:none"/><circle id="circle1048" cx="-148" cy="-336" r="8" fill="#f7f7f7" fill-opacity="1" stroke="none" stroke-width=".219" color="#000" display="inline" enable-background="accumulate" opacity="1" overflow="visible" transform="matrix(0,-1,-1,0,0,0)" visibility="visible" style="marker:none"/><circle id="circle1050" cx="-148" cy="-335.862" r="7" fill="#000" fill-opacity="1" stroke="none" stroke-width=".2" color="#000" display="inline" enable-background="accumulate" opacity=".1" overflow="visible" transform="matrix(0,-1,-1,0,0,0)" visibility="visible" style="marker:none"/><circle id="circle1109" cx="-84" cy="-344" r="16" fill="#f7f7f7" fill-opacity="1" stroke="none" stroke-width=".451" color="#000" display="inline" enable-background="accumulate" overflow="visible" transform="matrix(0,-1,-1,0,0,0)" visibility="visible" style="marker:none"/><circle id="circle1111" cx="-84" cy="-344" r="14" fill="#aea795" fill-opacity="1" stroke="none" stroke-width=".325" color="#000" display="inline" enable-background="accumulate" overflow="visible" transform="matrix(0,-1,-1,0,0,0)" visibility="visible" style="marker:none"/><circle id="circle1115" cx="-84" cy="-344" r="12" fill="#f7f7f7" fill-opacity="1" stroke="none" stroke-width=".344" color="#000" display="inline" enable-background="accumulate" opacity="1" overflow="visible" transform="matrix(0,-1,-1,0,0,0)" visibility="visible" style="marker:none"/><circle id="circle1117" cx="-84" cy="-343.862" r="11" fill="#000" fill-opacity="1" stroke="none" stroke-width=".333" color="#000" display="inline" enable-background="accumulate" opacity=".1" overflow="visible" transform="matrix(0,-1,-1,0,0,0)" visibility="visible" style="marker:none"/><circle id="circle1218" cx="-200" cy="-332" r="8" fill="#f7f7f7" fill-opacity="1" stroke="none" stroke-width=".225" color="#000" display="inline" enable-background="accumulate" overflow="visible" transform="matrix(0,-1,-1,0,0,0)" visibility="visible" style="marker:none"/><circle id="circle1220" cx="-200" cy="-332" r="7" fill="#aea795" fill-opacity="1" stroke="none" stroke-width=".15" color="#000" display="inline" enable-background="accumulate" overflow="visible" transform="matrix(0,-1,-1,0,0,0)" visibility="visible" style="marker:none"/><circle id="circle1224" cx="-200" cy="-332" r="6" fill="#f7f7f7" fill-opacity="1" stroke="none" stroke-width=".156" color="#000" display="inline" enable-background="accumulate" opacity="1" overflow="visible" transform="matrix(0,-1,-1,0,0,0)" visibility="visible" style="marker:none"/><circle id="circle1226" cx="-200" cy="-332" r="5" fill="#000" fill-opacity="1" stroke="none" stroke-width=".133" color="#000" display="inline" enable-background="accumulate" opacity=".1" overflow="visible" transform="matrix(0,-1,-1,0,0,0)" visibility="visible" style="marker:none"/><circle id="circle957" cx="-244" cy="-328" r="5" fill="#000" fill-opacity="1" stroke="none" stroke-width=".141" color="#000" display="inline" enable-background="accumulate" opacity=".1" overflow="visible" transform="matrix(0,-1,-1,0,0,0)" visibility="visible" style="marker:none"/><circle id="circle961" cx="-244" cy="-328" r="5" fill="#f7f7f7" fill-opacity="1" stroke="none" stroke-width=".1" color="#000" display="inline" enable-background="accumulate" overflow="visible" transform="matrix(0,-1,-1,0,0,0)" visibility="visible" style="marker:none"/><circle id="circle959" cx="-244" cy="-328" r="4" fill="#aea795" fill-opacity="1" stroke="none" stroke-width=".141" color="#000" display="inline" enable-background="accumulate" overflow="visible" transform="matrix(0,-1,-1,0,0,0)" visibility="visible" style="marker:none"/><path id="rect3030" fill="#3b3b3b" fill-opacity="1" stroke="none" stroke-width="1" d="m 144,116 h 16 v 42.49998 l -5.33334,5 5.33334,5 V 196 h -16 v -42.50002 l 5.33332,-5 -5.33332,-5 z" display="inline" enable-background="new"/><path id="circle1017" fill="#fff" fill-opacity="1" stroke="none" stroke-width="2" d="M 152,88.000004 A 68.000001,68 0 0 0 83.999997,156 a 68.000001,68 0 0 0 0.041,0.82812 68.000001,68 0 0 1 67.958983,-66.828116 68.000001,68 0 0 1 67.95898,67.171876 68.000001,68 0 0 0 0.041,-1.17188 68.000001,68 0 0 0 -68,-67.999996 z" color="#000" display="inline" enable-background="accumulate" opacity="1" overflow="visible" visibility="visible" style="marker:none"/><path id="path1047" fill="#3b3b3b" fill-opacity="1" stroke="none" stroke-width="1" d="m 335,143 h 2 v 5.5 l -1,1 1,1 v 2.5 h -2 v -5.5 l 1,-1 -1,-1 z" display="inline" enable-background="new"/><circle id="circle1088" cx="-84" cy="-343.862" r="5" fill="#000" fill-opacity="1" stroke="none" stroke-width=".333" color="#000" display="inline" enable-background="accumulate" opacity=".1" overflow="visible" transform="matrix(0,-1,-1,0,0,0)" visibility="visible" style="marker:none"/><path id="path1086" fill="#3b3b3b" fill-opacity="1" stroke="none" stroke-width="1" d="m 342,76.000004 h 4 v 8 l -1.5,1.5 1.5,1.5 v 5 h -4 v -9 l 1.5,-1.5 -1.5,-1.5 z" display="inline" enable-background="new"/><path id="path1090" fill="#3b3b3b" fill-opacity="1" stroke="none" stroke-width="1" d="m 331,196 h 2 v 4.5 l -1,1 1,1 v 1.5 h -2 v -4.5 l 1,-1 -1,-1 z" display="inline" enable-background="new"/><circle id="circle1094" cx="-200" cy="-332" r="3" fill="#000" fill-opacity="1" stroke="none" stroke-width=".133" color="#000" display="inline" enable-background="accumulate" opacity=".1" overflow="visible" transform="matrix(0,-1,-1,0,0,0)" visibility="visible" style="marker:none"/><circle id="circle1098" cx="-148" cy="-335.862" r="4" fill="#000" fill-opacity="1" stroke="none" stroke-width=".2" color="#000" display="inline" enable-background="accumulate" opacity=".1" overflow="visible" transform="matrix(0,-1,-1,0,0,0)" visibility="visible" style="marker:none"/><circle id="circle961-1" cx="-244" cy="-328" r="3" fill="#aea795" fill-opacity="1" stroke="none" stroke-width=".1" color="#000" display="inline" enable-background="accumulate" overflow="visible" transform="matrix(0,-1,-1,0,0,0)" visibility="visible" style="marker:none"/><circle id="circle965" cx="-244" cy="-328" r="3" fill="#f7f7f7" fill-opacity="1" stroke="none" stroke-width=".094" color="#000" display="inline" enable-background="accumulate" opacity="1" overflow="visible" transform="matrix(0,-1,-1,0,0,0)" visibility="visible" style="marker:none"/><rect id="rect1096" width="2" height="4" x="327" y="242" fill="#3b3b3b" fill-opacity="1" stroke="none" stroke-dasharray="none" stroke-dashoffset="0" stroke-linecap="round" stroke-linejoin="round" stroke-miterlimit="4" stroke-opacity="1" stroke-width="2" display="inline" enable-background="new" opacity="1"/></g><g id="layer5" display="inline"><path id="path11042-1" fill="#fff" fill-opacity="1" stroke="none" stroke-dasharray="none" stroke-linecap="round" stroke-linejoin="round" stroke-miterlimit="4" stroke-opacity="1" stroke-width="1" d="M 152,43.999994 A 112,112 0 0 0 40,155.99999 112,112 0 0 0 40.04102,157.16991 112,112 0 0 1 152,45.999994 112,112 0 0 1 263.95898,156.83007 a 112,112 0 0 0 0.041,-0.83008 112,112 0 0 0 -112,-111.999996 z" display="inline" enable-background="new" opacity=".3"/><path id="path11042-1-7" fill="#000" fill-opacity="1" stroke="none" stroke-dasharray="none" stroke-linecap="round" stroke-linejoin="round" stroke-miterlimit="4" stroke-opacity="1" stroke-width="1" d="m 152,267.99999 a 112,112 0 0 1 -112,-112 112,112 0 0 1 0.04102,-1.16992 A 112,112 0 0 0 152,265.99999 112,112 0 0 0 263.95898,155.16991 a 112,112 0 0 1 0.041,0.83008 112,112 0 0 1 -112,112 z" display="inline" enable-background="new" opacity=".2"/><path id="path9498-9-1" fill="#000" fill-opacity="1" stroke="none" stroke-dasharray="none" stroke-linecap="round" stroke-linejoin="round" stroke-miterlimit="4" stroke-opacity="1" stroke-width="1.954" d="m 344,61 a 23,23 0 0 0 -23,23 23,23 0 0 0 23,23 23,23 0 0 0 23,-23 23,23 0 0 0 -23,-23 z m 0,1 c 12.15027,0 22,9.849738 22,22 0,12.150256 -9.84974,22 -22,22 -12.15026,0 -22,-9.849744 -22,-22 0,-12.150262 9.84973,-22 22,-22 z" display="inline" enable-background="new" opacity=".4"/><path id="path9498-1-6" fill="url(#linearGradient8590)" fill-opacity="1" stroke="none" stroke-dasharray="none" stroke-linecap="round" stroke-linejoin="round" stroke-miterlimit="4" stroke-opacity="1" stroke-width="1.869" d="M 344,62.000016 A 22,21.99999 0 0 0 322,84.000013 22,21.99999 0 0 0 344,106 22,21.99999 0 0 0 366,84.000013 22,21.99999 0 0 0 344,62.000016 Z m 0,0.956532 A 21.043478,21.043469 0 0 1 365.04348,84.000013 21.043478,21.043469 0 0 1 344,105.04348 21.043478,21.043469 0 0 1 322.95652,84.000013 21.043478,21.043469 0 0 1 344,62.956548 Z" display="inline" enable-background="new" opacity=".7"/><path id="path9498-9-1-2" fill="#000" fill-opacity="1" stroke="none" stroke-dasharray="none" stroke-linecap="round" stroke-linejoin="round" stroke-miterlimit="4" stroke-opacity="1" stroke-width="1.954" d="m 336,133.00001 c -8.28427,0 -15,6.71572 -15,14.99999 0,8.28427 6.71573,15 15,15 8.28427,0 15,-6.71573 15,-15 0,-8.28427 -6.71573,-14.99999 -15,-14.99999 z M 336,134 c 7.92409,0 14,6.07592 14,14 0,7.92408 -6.07592,14 -14,14 -7.92408,0 -14,-6.07592 -14,-14 0,-7.92408 6.07591,-14 14,-14 z" display="inline" enable-background="new" opacity=".4"/><path id="path9498-1-6-7" fill="url(#linearGradient8590-3)" fill-opacity="1" stroke="none" stroke-dasharray="none" stroke-linecap="round" stroke-linejoin="round" stroke-miterlimit="4" stroke-opacity="1" stroke-width="1.869" d="m 336,134 c -7.73199,0 -14,6.26802 -14,14 0,7.73198 6.26801,14 14,14 7.73199,0 14,-6.26802 14,-14 0,-7.73198 -6.26801,-14 -14,-14 z m 0,1 c 7.39582,0 13,5.60419 13,13 -10e-6,7.39581 -5.60419,13 -13,13 -7.39581,0 -12.99999,-5.60419 -13,-13 0,-7.39581 5.60418,-13 13,-13 z" display="inline" enable-background="new" opacity=".7"/><path id="path9498-9-1-2-4" fill="#000" fill-opacity="1" stroke="none" stroke-dasharray="none" stroke-linecap="round" stroke-linejoin="round" stroke-miterlimit="4" stroke-opacity="1" stroke-width="1.954" d="M 332,189.00001 C 326,189 321,194 321,200 c 0,6.07513 4.92487,11 11,11 6.07514,0 11,-4.92487 11,-11 0,-6.07513 -4.92486,-10.99998 -11,-10.99999 z M 332,190 c 5.811,0 10,4.18901 10,10 0,5.811 -4.18901,10 -10,10 -5.81099,0 -10,-4.189 -10,-10 0,-5.81099 4.189,-10 10,-10 z" display="inline" enable-background="new" opacity=".4"/><path id="path9498-1-6-7-2" fill="url(#linearGradient8590-3-3)" fill-opacity="1" stroke="none" stroke-dasharray="none" stroke-linecap="round" stroke-linejoin="round" stroke-miterlimit="4" stroke-opacity="1" stroke-width="1.869" d="m 332,190.00001 c -5.52284,0 -10,4.47716 -10,10 0,5.52284 4.47716,9.99999 10,9.99999 5.52285,0 10,-4.47715 10,-9.99999 0,-5.52284 -4.47715,-10 -10,-10 z M 332,191 c 5.28274,0 9,3.71727 9,9 0,5.28272 -3.71727,9 -9,9 -5.28272,0 -8.99999,-3.71728 -9,-9 0,-5.28273 3.71728,-9 9,-9 z" display="inline" enable-background="new" opacity=".7"/><path id="path9498-9-1-2-4-9" fill="#000" fill-opacity="1" stroke="none" stroke-dasharray="none" stroke-linecap="round" stroke-linejoin="round" stroke-miterlimit="4" stroke-opacity="1" stroke-width="1.954" d="m 328,237 c -3.81818,0 -7,3.18181 -7,7 0,3.86599 3.13401,7 7,7 3.866,0 7,-3.13401 7,-7 0,-3.866 -3.134,-6.99999 -7,-7 z m 0,1 c 3.69791,0 6,2.30209 6,6 0,3.69791 -2.3021,6 -6,6 -3.6979,0 -6,-2.30209 -6,-6 0,-3.69791 2.30209,-6 6,-6 z" display="inline" enable-background="new" opacity=".4"/><path id="path9498-1-6-7-2-0" fill="url(#linearGradient8590-3-3-4)" fill-opacity="1" stroke="none" stroke-dasharray="none" stroke-linecap="round" stroke-linejoin="round" stroke-miterlimit="4" stroke-opacity="1" stroke-width="1.869" d="m 328,238.00002 c -3.31371,0 -6,2.68629 -6,5.99999 0,3.31371 2.68629,5.99999 6,5.99999 3.31371,0 6,-2.68628 6,-5.99999 0,-3.3137 -2.68629,-5.99999 -6,-5.99999 z m 0,0.59998 c 3.16964,0 5.39999,2.23037 5.39999,5.40001 0,3.16963 -2.23035,5.39999 -5.39999,5.39999 -3.16963,0 -5.4,-2.23036 -5.4,-5.39999 0,-3.16964 2.23037,-5.40001 5.4,-5.40001 z" display="inline" enable-background="new" opacity=".7"/></g></g></svg>