<svg xmlns="http://www.w3.org/2000/svg" xmlns:svg="http://www.w3.org/2000/svg" xmlns:xlink="http://www.w3.org/1999/xlink" id="svg11300" width="400" height="300" display="inline" enable-background="new" version="1.0"><title id="title3004">Suru Icon Theme Template</title><defs id="defs3"><clipPath id="clipPath9430" clipPathUnits="userSpaceOnUse"><path id="path9432" fill="#fff" fill-opacity="1" fill-rule="nonzero" stroke="none" stroke-width="1" d="m 166.0625,-196 h 179.875 C 491.2348,-196 512,-175.28677 512,-30.125 v 148.25 C 512,263.28618 491.2348,284 345.9375,284 H 166.0625 C 20.7652,284 0,263.28618 0,118.125 V -30.125 C 0,-175.28677 20.7652,-196 166.0625,-196 Z" color="#000" display="inline" enable-background="new" overflow="visible" visibility="visible" style="marker:none"/></clipPath><clipPath id="clipPath1082" clipPathUnits="userSpaceOnUse"><path id="path1084" fill="#8c59d9" fill-opacity="1" stroke="none" stroke-dasharray="none" stroke-dashoffset="0" stroke-linecap="round" stroke-linejoin="round" stroke-miterlimit="4" stroke-opacity="1" stroke-width="2" d="M 361.9375,-212 C 507.2348,-212 528,-191.28677 528,-46.125 V 70.125 C 528,215.28618 507.2348,236 361.9375,236 H 214.0625 C 68.7652,236 48,215.28618 48,70.125 V -46.125 C 48,-191.28677 68.7652,-212 214.0625,-212 Z" display="inline" enable-background="new" opacity="1"/></clipPath><linearGradient id="linearGradient927"><stop id="stop923" offset="0" stop-color="#fff" stop-opacity="1"/><stop id="stop933" offset=".125" stop-color="#fff" stop-opacity=".098"/><stop id="stop931" offset=".925" stop-color="#fff" stop-opacity=".098"/><stop id="stop925" offset="1" stop-color="#fff" stop-opacity=".498"/></linearGradient><clipPath id="clipPath994" clipPathUnits="userSpaceOnUse"><path id="path996" fill="#cdcdcd" fill-opacity="1" fill-rule="nonzero" stroke="none" stroke-dasharray="none" stroke-miterlimit="4" stroke-opacity="1" stroke-width="2" d="m 335.73108,62 c -8.82418,0 -9.77365,0.90635 -9.7304,9.74838 V 84 96.25162 c -0.0433,8.84203 0.90622,9.74838 9.7304,9.74838 h 16.53919 c 8.82418,0 9.7304,-0.90625 9.7304,-9.74838 V 84 71.74838 C 362.00067,62.90625 361.09445,62 352.27027,62 Z" color="#000" display="inline" enable-background="accumulate" overflow="visible" visibility="visible" style="marker:none"/></clipPath><clipPath id="clipPath959" clipPathUnits="userSpaceOnUse"><path id="path961" fill="#46a926" fill-opacity="1" fill-rule="nonzero" stroke="none" stroke-dasharray="none" stroke-miterlimit="4" stroke-opacity="1" stroke-width="2" d="m 330.1929,133.99999 c -5.61538,0 -6.21958,0.57678 -6.19206,6.20352 v 7.79648 7.79648 c -0.0276,5.62673 0.57668,6.20351 6.19206,6.20351 h 11.615 c 5.6154,0 6.19208,-0.5767 6.19208,-6.20351 v -7.79648 -7.79648 c 0,-5.6268 -0.5767,-6.20352 -6.19208,-6.20352 z" color="#000" display="inline" enable-background="accumulate" opacity="1" overflow="visible" visibility="visible" style="marker:none"/></clipPath><clipPath id="clipPath971" clipPathUnits="userSpaceOnUse"><path id="path973" fill="#46a926" fill-opacity="1" fill-rule="nonzero" stroke="none" stroke-dasharray="none" stroke-miterlimit="4" stroke-opacity="1" stroke-width="2" d="m 327.8652,189 c -4.41209,0 -4.88682,0.45318 -4.8652,4.87419 V 200 206.12581 C 322.9783,210.54682 323.45311,211 327.8652,211 h 8.2696 C 340.54689,211 341,210.54688 341,206.12581 V 200 193.87419 C 341,189.45313 340.54688,189 336.13479,189 Z" color="#000" display="inline" enable-background="accumulate" opacity="1" overflow="visible" visibility="visible" style="marker:none"/></clipPath><clipPath id="clipPath983" clipPathUnits="userSpaceOnUse"><path id="path985" fill="#46a926" fill-opacity="1" fill-rule="nonzero" stroke="none" stroke-dasharray="none" stroke-miterlimit="4" stroke-opacity="1" stroke-width="2" d="m 325.09646,237 c -2.80769,0 -3.10979,0.28839 -3.09603,3.10176 V 244 v 3.89824 c -0.0138,2.81337 0.28834,3.10176 3.09603,3.10176 h 5.8075 C 333.71166,251 334,250.71165 334,247.89824 V 244 240.10176 C 334,237.28836 333.71165,237 330.90396,237 Z" color="#000" display="inline" enable-background="accumulate" opacity="1" overflow="visible" visibility="visible" style="marker:none"/></clipPath><linearGradient id="linearGradient4336-3"><stop id="stop4338-8" offset="0" stop-color="#5884f4" stop-opacity="1"/><stop id="stop4344-3" offset=".278" stop-color="#5884f4" stop-opacity="1"/><stop id="stop4346-3" offset=".278" stop-color="#2f5fdd" stop-opacity="1"/><stop id="stop4350-1" offset=".707" stop-color="#2f5fdd" stop-opacity="1"/><stop id="stop4348-6" offset=".709" stop-color="#234db8" stop-opacity="1"/><stop id="stop4340-0" offset="1" stop-color="#234db8" stop-opacity="1"/></linearGradient><clipPath id="clipPath994-1" clipPathUnits="userSpaceOnUse"><path id="path996-8" fill="#cdcdcd" fill-opacity="1" fill-rule="nonzero" stroke="none" stroke-dasharray="none" stroke-miterlimit="4" stroke-opacity="1" stroke-width="2" d="m 335.73108,62 c -8.82418,0 -9.77365,0.90635 -9.7304,9.74838 V 84 96.25162 c -0.0433,8.84203 0.90622,9.74838 9.7304,9.74838 h 16.53919 c 8.82418,0 9.7304,-0.90625 9.7304,-9.74838 V 84 71.74838 C 362.00067,62.90625 361.09445,62 352.27027,62 Z" color="#000" display="inline" enable-background="accumulate" overflow="visible" visibility="visible" style="marker:none"/></clipPath><linearGradient id="linearGradient11065" x1="104" x2="200" y1="44" y2="268" gradientTransform="translate(-304,-311.99999)" gradientUnits="userSpaceOnUse" xlink:href="#linearGradient945"/><filter id="filter11191" width="1.024" height="1.024" x="-.012" y="-.012" color-interpolation-filters="sRGB"><feGaussianBlur id="feGaussianBlur11193" stdDeviation="1.12"/></filter><filter id="filter11210" width="1.096" height="1.096" x="-.048" y="-.048" color-interpolation-filters="sRGB"><feGaussianBlur id="feGaussianBlur11212" stdDeviation="4.48"/></filter><linearGradient id="linearGradient8590" x1="96" x2="96" y1="4" y2="188" gradientTransform="matrix(0.23913043,0,0,0.23913032,321.04348,61.043494)" gradientUnits="userSpaceOnUse" xlink:href="#linearGradient927"/><linearGradient id="linearGradient8588" x1="13.735" x2="38.1" y1="249.694" y2="292.767" gradientTransform="matrix(0.94488193,0,0,0.94488229,-367.49999,-341.12993)" gradientUnits="userSpaceOnUse" xlink:href="#linearGradient945"/><linearGradient id="linearGradient8590-3" x1="96" x2="96" y1="4" y2="188" gradientTransform="matrix(0.15217394,0,0,0.15217387,321.3913,133.39129)" gradientUnits="userSpaceOnUse" xlink:href="#linearGradient927"/><linearGradient id="linearGradient8588-0" x1="13.735" x2="38.1" y1="249.694" y2="292.767" gradientTransform="matrix(0.60892393,0,0,0.60892417,-351.14444,-313.70596)" gradientUnits="userSpaceOnUse" xlink:href="#linearGradient945"/><linearGradient id="linearGradient8590-3-3" x1="96" x2="96" y1="4" y2="188" gradientTransform="matrix(0.10869563,0,0,0.10869559,321.56522,189.56521)" gradientUnits="userSpaceOnUse" xlink:href="#linearGradient927"/><linearGradient id="linearGradient8588-0-1" x1="13.735" x2="38.1" y1="249.694" y2="292.767" gradientTransform="matrix(0.44094488,0,0,0.44094506,-342.96666,-319.99396)" gradientUnits="userSpaceOnUse" xlink:href="#linearGradient945"/><linearGradient id="linearGradient8590-3-3-4" x1="96" x2="96" y1="4" y2="188" gradientTransform="matrix(0.06521734,0,0,0.06521732,321.73913,237.73914)" gradientUnits="userSpaceOnUse" xlink:href="#linearGradient927"/><linearGradient id="linearGradient8588-0-1-5" x1="13.735" x2="38.1" y1="249.694" y2="292.767" gradientTransform="matrix(0.27296588,0,0,0.27296599,-334.78889,-318.28194)" gradientUnits="userSpaceOnUse" xlink:href="#linearGradient945"/><linearGradient id="linearGradient945"><stop id="stop943" offset="0" stop-color="#e6e6e6" stop-opacity="1"/><stop id="stop941" offset="1" stop-color="#d3d3d3" stop-opacity="1"/></linearGradient><linearGradient id="linearGradient955" x1="200" x2="200" y1="268" y2="44" gradientTransform="translate(0,-5.6126213e-6)" gradientUnits="userSpaceOnUse" xlink:href="#linearGradient945"/><linearGradient id="linearGradient983" x1="152" x2="152" y1="299.111" y2="12.889" gradientUnits="userSpaceOnUse" xlink:href="#linearGradient945"/><linearGradient id="linearGradient1035" x1="152" x2="152" y1="100" y2="212" gradientTransform="translate(0,-5.6126213e-6)" gradientUnits="userSpaceOnUse" xlink:href="#linearGradient1033"/><linearGradient id="linearGradient1033"><stop id="stop1029" offset="0" stop-color="#000" stop-opacity="0"/><stop id="stop1037" offset=".5" stop-color="#000" stop-opacity="1"/><stop id="stop1031" offset="1" stop-color="#000" stop-opacity="0"/></linearGradient><filter id="filter1025" width="1.048" height="1.048" x="-.024" y="-.024" color-interpolation-filters="sRGB"><feGaussianBlur id="feGaussianBlur1027" stdDeviation="1.5"/></filter><linearGradient id="linearGradient982" x1="152" x2="152" y1="124" y2="236" gradientUnits="userSpaceOnUse" xlink:href="#linearGradient980"/><linearGradient id="linearGradient980"><stop id="stop976" offset="0" stop-color="#000" stop-opacity="1"/><stop id="stop978" offset="1" stop-color="#000" stop-opacity="0"/></linearGradient><clipPath id="clipPath999" clipPathUnits="userSpaceOnUse"><path id="path1001" fill="#5d5d5d" fill-opacity="1" fill-rule="nonzero" stroke="none" stroke-dasharray="none" stroke-dashoffset="0" stroke-linecap="butt" stroke-linejoin="round" stroke-miterlimit="4" stroke-opacity="1" stroke-width="3.826" d="m 152,68 c -48.60106,0 -88,39.39894 -88,88 0,48.60106 39.39894,88 88,88 48.60106,0 88,-39.39894 88,-88 0,-48.60106 -39.39894,-88 -88,-88 z" color="#000" display="inline" enable-background="accumulate" opacity="1" overflow="visible" visibility="visible" style="marker:none"/></clipPath><filter id="filter1003" width="1.12" height="1.12" x="-.06" y="-.06" color-interpolation-filters="sRGB"><feGaussianBlur id="feGaussianBlur1005" stdDeviation="4.4"/></filter></defs><metadata id="metadata4"/><g id="layer1" display="inline"><g id="layer7" display="none"><text enable-background="new" style="line-height:0%;-inkscape-font-specification:'DejaVu Sans'" id="context" x="19.007" y="-8.255" fill="#000" fill-opacity="1" stroke="none" display="inline" font-family="DejaVu Sans" font-stretch="normal" font-style="normal" font-variant="normal" font-weight="normal" xml:space="preserve"><tspan id="tspan3933" x="19.007" y="-8.255" font-family="DejaVu Sans" font-size="18" font-stretch="normal" font-style="normal" font-variant="normal" font-weight="normal" style="line-height:1.25;-inkscape-font-specification:'DejaVu Sans'">apps</tspan></text><text id="icon-name" x="146.488" y="-8.255" fill="#000" fill-opacity="1" stroke="none" display="inline" enable-background="new" font-family="DejaVu Sans" font-stretch="normal" font-style="normal" font-variant="normal" font-weight="bold" text-anchor="start" writing-mode="lr-tb" xml:space="preserve" style="line-height:0%;-inkscape-font-specification:'DejaVu Sans Bold';text-align:start"><tspan id="tspan3937" x="146.488" y="-8.255" font-family="DejaVu Sans" font-size="18" font-stretch="normal" font-style="normal" font-variant="normal" font-weight="bold" style="line-height:1.25;-inkscape-font-specification:'DejaVu Sans Bold'">system-settings</tspan></text><rect id="rect16x16" width="16" height="16" x="320" y="236" fill="#cdcdcd" fill-opacity="1" fill-rule="nonzero" stroke="none" stroke-width="2" display="inline" enable-background="accumulate" overflow="visible" visibility="visible" style="marker:none"/><rect id="rect24x24" width="24" height="24" x="320" y="188" fill="#cdcdcd" fill-opacity="1" fill-rule="nonzero" stroke="none" stroke-width="2" display="inline" enable-background="accumulate" overflow="visible" visibility="visible" style="marker:none"/><rect id="rect32x32" width="32" height="32" x="320" y="132" fill="#cdcdcd" fill-opacity="1" fill-rule="nonzero" stroke="none" stroke-width="2" display="inline" enable-background="accumulate" overflow="visible" visibility="visible" style="marker:none"/><rect id="rect48x48" width="48" height="48" x="320" y="60" fill="#cdcdcd" fill-opacity="1" fill-rule="nonzero" stroke="none" stroke-width="2" display="inline" enable-background="accumulate" overflow="visible" visibility="visible" style="marker:none"/><rect id="rect3951" width="256" height="256" x="24" y="28" fill="#cdcdcd" fill-opacity="1" fill-rule="nonzero" stroke="none" stroke-width="2" display="inline" enable-background="accumulate" overflow="visible" visibility="visible" style="marker:none"/></g><g id="layer8" display="inline"><circle id="path11042-0" cx="152" cy="160" r="112" fill="#000" fill-opacity="1" stroke="none" stroke-dasharray="none" stroke-linecap="round" stroke-linejoin="round" stroke-miterlimit="4" stroke-opacity="1" stroke-width="1" display="inline" enable-background="new" filter="url(#filter11210)" opacity=".1"/><circle id="path11042-6" cx="152" cy="158" r="112" fill="#000" fill-opacity="1" stroke="none" stroke-dasharray="none" stroke-linecap="round" stroke-linejoin="round" stroke-miterlimit="4" stroke-opacity="1" stroke-width="1" display="inline" enable-background="new" filter="url(#filter11191)" opacity=".1"/><circle id="path11042-7" cx="152" cy="156" r="114" fill="#000" fill-opacity="1" stroke="none" stroke-dasharray="none" stroke-linecap="round" stroke-linejoin="round" stroke-miterlimit="4" stroke-opacity="1" stroke-width="1" display="inline" enable-background="new" opacity=".1"/><circle id="path11042" cx="-152" cy="-156" r="112" fill="url(#linearGradient11065)" fill-opacity="1" stroke="none" stroke-dasharray="none" stroke-linecap="round" stroke-linejoin="round" stroke-miterlimit="4" stroke-opacity="1" stroke-width="1" display="inline" enable-background="new" opacity="1" transform="scale(-1)"/><path id="path11042-5" cx="152" cy="156" r="112" fill="#fff" fill-opacity="1" stroke="none" stroke-dasharray="none" stroke-linecap="round" stroke-linejoin="round" stroke-miterlimit="4" stroke-opacity="1" stroke-width="1" display="inline" enable-background="new" opacity="1"/><circle id="path9498-0-0" cx="-344" cy="-85" r="23" fill="#000" fill-opacity="1" stroke="none" stroke-dasharray="none" stroke-linecap="round" stroke-linejoin="round" stroke-miterlimit="4" stroke-opacity="1" stroke-width="1.954" display="inline" enable-background="new" opacity=".1" transform="scale(-1)"/><circle id="path9498-6" cx="-344" cy="-84" r="22.5" fill="url(#linearGradient8588)" fill-opacity="1" stroke="none" stroke-dasharray="none" stroke-linecap="round" stroke-linejoin="round" stroke-miterlimit="4" stroke-opacity="1" stroke-width="1.869" display="inline" enable-background="new" opacity="1" transform="scale(-1)"/><circle id="path9498-0-0-2" cx="-336" cy="-149" r="15" fill="#000" fill-opacity="1" stroke="none" stroke-dasharray="none" stroke-linecap="round" stroke-linejoin="round" stroke-miterlimit="4" stroke-opacity="1" stroke-width="1.954" display="inline" enable-background="new" opacity=".1" transform="scale(-1)"/><circle id="path9498-6-5" cx="-336" cy="-148" r="14.5" fill="url(#linearGradient8588-0)" fill-opacity="1" stroke="none" stroke-dasharray="none" stroke-linecap="round" stroke-linejoin="round" stroke-miterlimit="4" stroke-opacity="1" stroke-width="1.869" display="inline" enable-background="new" opacity="1" transform="scale(-1)"/><circle id="path9498-0-0-2-3" cx="-332" cy="-201" r="11" fill="#000" fill-opacity="1" stroke="none" stroke-dasharray="none" stroke-linecap="round" stroke-linejoin="round" stroke-miterlimit="4" stroke-opacity="1" stroke-width="1.954" display="inline" enable-background="new" opacity=".1" transform="scale(-1)"/><circle id="path9498-6-5-6" cx="-332" cy="-200" r="10.5" fill="url(#linearGradient8588-0-1)" fill-opacity="1" stroke="none" stroke-dasharray="none" stroke-linecap="round" stroke-linejoin="round" stroke-miterlimit="4" stroke-opacity="1" stroke-width="1.869" display="inline" enable-background="new" opacity="1" transform="scale(-1)"/><circle id="path9498-0-0-2-3-3" cx="-328" cy="-245" r="7" fill="#000" fill-opacity="1" stroke="none" stroke-dasharray="none" stroke-linecap="round" stroke-linejoin="round" stroke-miterlimit="4" stroke-opacity="1" stroke-width="1.954" display="inline" enable-background="new" opacity=".1" transform="scale(-1)"/><circle id="path9498-6-5-6-8" cx="-328" cy="-244" r="6.5" fill="url(#linearGradient8588-0-1-5)" fill-opacity="1" stroke="none" stroke-dasharray="none" stroke-linecap="round" stroke-linejoin="round" stroke-miterlimit="4" stroke-opacity="1" stroke-width="1.869" display="inline" enable-background="new" opacity="1" transform="scale(-1)"/></g><g id="layer6" display="inline"><path id="rect12119" fill="#fff" fill-opacity="1" stroke="none" stroke-dasharray="none" stroke-linecap="round" stroke-linejoin="round" stroke-miterlimit="4" stroke-opacity="1" stroke-width="10.667" d="M 40,165.6959 A 112.5345,112.53445 0 0 0 151.97753,267.99999 112.5345,112.53445 0 0 0 264,165.6959 Z" display="inline" enable-background="new" opacity=".25"/><path id="rect12119-7" fill="#fff" fill-opacity="1" stroke="none" stroke-dasharray="none" stroke-linecap="round" stroke-linejoin="round" stroke-miterlimit="4" stroke-opacity="1" stroke-width="2" d="m 322.10849,86.000032 a 21.999999,21.99999 0 0 0 21.89112,19.999998 21.999999,21.99999 0 0 0 21.8999,-19.999998 z" display="inline" enable-background="new" opacity=".25"/><path id="rect12119-0" fill="#fff" fill-opacity="1" stroke="none" stroke-dasharray="none" stroke-linecap="round" stroke-linejoin="round" stroke-miterlimit="4" stroke-opacity="1" stroke-width="1.333" d="m 321.40552,149.33337 a 14.666667,14.666661 0 0 0 14.59409,13.33334 14.666667,14.666661 0 0 0 14.59994,-13.33334 z" display="inline" enable-background="new" opacity=".25"/><path id="rect12119-01" fill="#fff" fill-opacity="1" stroke="none" stroke-dasharray="none" stroke-linecap="round" stroke-linejoin="round" stroke-miterlimit="4" stroke-opacity="1" stroke-width="1" d="m 321.05405,201.00004 a 11,10.999995 0 0 0 10.94556,10 11,10.999995 0 0 0 10.94995,-10 z" display="inline" enable-background="new" opacity=".25"/><path id="rect12119-6" fill="#fff" fill-opacity="1" stroke="none" stroke-dasharray="none" stroke-linecap="round" stroke-linejoin="round" stroke-miterlimit="4" stroke-opacity="1" stroke-width=".667" d="m 320.70257,244.66669 a 7.3333329,7.3333299 0 0 0 7.29704,6.66666 7.3333329,7.3333299 0 0 0 7.29996,-6.66666 z" display="inline" enable-background="new" opacity=".25"/><circle stroke-linejoin="miter" style="marker:none" id="path4238" cx="152" cy="-156" r="88" fill="#5d5d5d" fill-opacity="1" fill-rule="nonzero" stroke="none" stroke-dasharray="11.478 11.478" stroke-dashoffset="0" stroke-linecap="butt" stroke-miterlimit="4" stroke-opacity="1" stroke-width="3.826" color="#000" display="inline" enable-background="accumulate" opacity="1" overflow="visible" transform="scale(1,-1)" visibility="visible"/><path id="circle1007" fill="#000" fill-opacity="1" fill-rule="nonzero" stroke="none" stroke-dasharray="11.478 11.478" stroke-dashoffset="0" stroke-linecap="butt" stroke-linejoin="miter" stroke-miterlimit="4" stroke-opacity="1" stroke-width="3.826" d="m 64,155.99999 a 88,88 0 0 1 88,-87.999996 88,88 0 0 1 88,87.999996 z" color="#000" display="inline" enable-background="accumulate" opacity=".05" overflow="visible" visibility="visible" style="marker:none"/><path id="path962" fill="none" fill-opacity="1" fill-rule="nonzero" stroke="url(#linearGradient982)" stroke-dasharray="none" stroke-dashoffset="0" stroke-linecap="butt" stroke-linejoin="round" stroke-miterlimit="4" stroke-opacity="1" stroke-width="10" d="m 152,70 c -48.60106,0 -88,39.39894 -88,88 0,48.60106 39.39894,88 88,88 48.60106,0 88,-39.39894 88,-88 0,-48.60106 -39.39894,-88 -88,-88 z" clip-path="url(#clipPath999)" color="#000" display="inline" enable-background="accumulate" filter="url(#filter1003)" opacity=".2" overflow="visible" transform="translate(0,-5.6126213e-6)" visibility="visible" style="marker:none"/><path id="path1039" fill="#000" fill-opacity=".714" fill-rule="nonzero" stroke="none" stroke-dasharray="none" stroke-dashoffset="0" stroke-linecap="butt" stroke-linejoin="miter" stroke-miterlimit="4" stroke-opacity="1" stroke-width="16.078" d="m 152,83.005854 c -5.39372,-0.06 -7.28039,0.14029 -8.03906,6.66211 l -0.28906,2.30469 c -0.66573,4.22983 -0.793,6.14517 -4.79493,7.18164 -0.26817,0.0599 -0.53589,0.12007 -0.80273,0.18359 -0.0631,0.013 -0.11886,0.0282 -0.1836,0.041 l 0.008,0.002 c -1.01036,0.24375 -2.00991,0.51443 -3,0.808586 l 0.01,-0.0117 c -0.16537,0.0565 -0.31605,0.10151 -0.47265,0.15039 -0.14986,0.0458 -0.29985,0.0898 -0.44922,0.13672 -4.02147,1.12811 -5.08541,-0.467616 -7.78711,-3.810546 l -1.4043,-1.85156 c -1.95898,-2.63437 -3.36984,-3.75873 -4.87304,-3.88086 -0.18789,-0.0153 -0.37832,-0.0151 -0.57032,0 -1.3439,0.10545 -2.81717,0.93022 -4.84765,2.13281 -4.70108,2.64491 -6.23474,3.7597 -3.63086,9.787106 l 0.90039,2.14062 c 1.65637,4.30254 2.51833,5.96731 -1.30274,9.30469 l 0.10157,-0.0234 c -0.78976,0.74858 -1.55804,1.51883 -2.30665,2.3086 l 0.0215,-0.10157 c -3.33739,3.82107 -5.00215,2.95911 -9.30469,1.30274 l -2.14062,-0.90235 c -1.88356,-0.81371 -3.28745,-1.22275 -4.40821,-1.25781 -2.46566,-0.0772 -3.56052,1.65668 -5.3789,4.88867 -2.7488,4.6411 -3.52069,6.37502 1.74804,10.29297 l 1.85157,1.4043 c 3.34293,2.7017 4.93866,3.76564 3.81054,7.78711 -0.047,0.14937 -0.0909,0.29936 -0.13671,0.44922 -0.0489,0.1566 -0.0919,0.30729 -0.14844,0.47265 l 0.01,-0.01 c -0.29416,0.99009 -0.56485,1.98964 -0.8086,3 l -0.002,-0.008 c -0.0127,0.0647 -0.028,0.12053 -0.041,0.1836 -0.0635,0.26684 -0.12365,0.53456 -0.18359,0.80273 -1.03646,4.00194 -2.95181,4.1292 -7.18164,4.79493 l -2.30469,0.28906 c -6.52182,0.75868 -6.72208,2.64535 -6.66211,8.03906 -0.06,5.39372 0.14029,7.2804 6.66211,8.03906 l 2.30469,0.28906 c 4.22983,0.66573 6.14518,0.793 7.18164,4.79493 0.0599,0.26818 0.12007,0.5359 0.18359,0.80273 0.013,0.0631 0.0282,0.11886 0.041,0.1836 l 0.002,-0.008 c 0.24375,1.01037 0.51444,2.00991 0.8086,3 l -0.0117,-0.01 c 0.0565,0.16537 0.10147,0.31605 0.15039,0.47265 0.0458,0.14985 0.0897,0.29986 0.13672,0.44922 1.12811,4.02147 -0.46762,5.08542 -3.81055,7.78711 l -1.85156,1.4043 c -5.26873,3.91794 -4.49684,5.6499 -1.74805,10.29101 2.64492,4.70108 3.75971,6.23474 9.78711,3.63086 l 2.14063,-0.90039 c 4.30252,-1.65637 5.96729,-2.51832 9.30468,1.30274 l -0.0234,-0.10157 c 0.74858,0.78976 1.51884,1.55807 2.3086,2.30665 l -0.10157,-0.0215 c 3.82107,3.3374 2.95911,5.00215 1.30274,9.30469 l -0.90235,2.14062 c -2.60388,6.0274 -1.07022,7.14414 3.63086,9.78907 4.6411,2.74879 6.37502,3.51873 10.29297,-1.75 l 1.4043,-1.85157 c 2.70169,-3.34294 3.76565,-4.93865 7.78711,-3.81054 0.14937,0.047 0.29936,0.0909 0.44922,0.13672 0.1566,0.0489 0.30728,0.0938 0.47265,0.15039 l -0.01,-0.0117 c 0.99009,0.29416 1.98964,0.56484 3,0.80859 l -0.008,0.002 c 0.0647,0.0128 0.12053,0.028 0.1836,0.041 0.26684,0.0635 0.53456,0.12365 0.80273,0.18359 4.00193,1.03647 4.12919,2.95182 4.79493,7.18164 l 0.28906,2.30469 c 0.75867,6.52182 2.64534,6.72209 8.03906,6.66211 5.39371,0.06 7.28039,-0.14029 8.03906,-6.66211 l 0.28906,-2.30469 c 0.66576,-4.22983 0.79299,-6.14518 4.79493,-7.18164 0.26817,-0.06 0.5359,-0.12007 0.80273,-0.18359 0.0631,-0.0131 0.11886,-0.0281 0.1836,-0.041 l -0.008,-0.002 c 1.01037,-0.24375 2.0099,-0.51443 3,-0.80859 l -0.01,0.0117 c 0.16536,-0.0565 0.31604,-0.10151 0.47265,-0.15039 0.14985,-0.0458 0.29986,-0.0897 0.44922,-0.13672 4.02147,-1.1281 5.08542,0.46761 7.78711,3.81054 l 1.4043,1.85157 c 3.91794,5.26872 5.6499,4.49685 10.29101,1.74804 4.70108,-2.64491 6.23475,-3.7597 3.63086,-9.78711 l -0.90039,-2.14062 c -1.65641,-4.30248 -2.51833,-5.96729 1.30274,-9.30469 l -0.10157,0.0234 c 0.78977,-0.74858 1.55807,-1.51884 2.30665,-2.3086 l -0.0215,0.10157 c 3.3374,-3.82106 5.00215,-2.95912 9.30469,-1.30274 l 2.14062,0.90235 c 6.0274,2.60387 7.14218,1.07022 9.78711,-3.63086 2.74879,-4.64111 3.5207,-6.37503 -1.74804,-10.29297 l -1.85157,-1.4043 c -3.34293,-2.70168 -4.93866,-3.76564 -3.81054,-7.78711 0.047,-0.14936 0.0908,-0.29937 0.13672,-0.44922 0.0489,-0.1566 0.092,-0.30728 0.14843,-0.47265 l -0.01,0.01 c 0.29416,-0.99009 0.56484,-1.98963 0.80859,-3 l 0.002,0.008 c 0.0128,-0.0647 0.028,-0.12052 0.041,-0.1836 0.0635,-0.26683 0.12365,-0.53455 0.18359,-0.80273 1.03647,-4.00193 2.9518,-4.12919 7.18164,-4.79493 l 2.30469,-0.28906 c 6.52182,-0.75867 6.72209,-2.64534 6.66211,-8.03906 0.06,-5.3937 -0.14028,-7.28038 -6.66211,-8.03906 l -2.30469,-0.28906 c -4.22984,-0.66574 -6.14517,-0.79299 -7.18164,-4.79493 -0.06,-0.26816 -0.12007,-0.53589 -0.18359,-0.80273 -0.0131,-0.0631 -0.0281,-0.11887 -0.041,-0.1836 l -0.002,0.008 c -0.24375,-1.01036 -0.51442,-2.0099 -0.80859,-3 l 0.0117,0.01 c -0.0565,-0.16536 -0.10151,-0.31604 -0.15039,-0.47265 -0.0458,-0.14986 -0.0897,-0.29985 -0.13672,-0.44922 -1.12811,-4.02147 0.46762,-5.08541 3.81054,-7.78711 l 1.85157,-1.4043 c 5.26873,-3.91794 4.49684,-5.6499 1.74804,-10.29101 -1.81838,-3.23199 -2.91322,-4.96776 -5.3789,-4.89063 -1.12074,0.0351 -2.52465,0.44605 -4.40821,1.25977 l -2.14062,0.90039 c -4.30247,1.6564 -5.9673,2.51834 -9.30469,-1.30274 l 0.0234,0.10157 c -0.74858,-0.78977 -1.51883,-1.55806 -2.3086,-2.30665 l 0.10157,0.0215 c -3.82106,-3.33739 -2.95912,-5.00215 -1.30274,-9.30469 l 0.90235,-2.14062 c 2.60387,-6.027396 1.07022,-7.142186 -3.63086,-9.787106 -2.32056,-1.3744 -3.91477,-2.25494 -5.41797,-2.13281 -1.5032,0.12213 -2.91603,1.24649 -4.875,3.88086 l -1.4043,1.85156 c -2.70169,3.34293 -3.76564,4.938646 -7.78711,3.810546 -0.14936,-0.047 -0.29937,-0.0909 -0.44922,-0.13672 -0.15661,-0.0489 -0.30729,-0.0919 -0.47265,-0.14844 l 0.01,0.01 c -0.9901,-0.294156 -1.98963,-0.564846 -3,-0.808586 l 0.008,-0.002 c -0.0647,-0.0127 -0.12052,-0.028 -0.1836,-0.041 -0.26683,-0.0635 -0.53456,-0.12366 -0.80273,-0.1836 -4.00194,-1.03647 -4.12918,-2.95181 -4.79493,-7.18164 l -0.28906,-2.30468 c -0.75866,-6.52207 -2.64534,-6.72234 -8.03905,-6.66236 z m -0.0117,30.994136 c 0.004,-1e-5 0.008,-1e-5 0.0117,0 5.06531,3e-4 9.96082,0.87493 14.53516,2.48047 a 12,12 0 0 0 5.46484,6.87891 12,12 0 0 0 8.66992,1.29101 c 7.20335,6.1907 12.42982,14.70372 14.43946,24.54883 0.50642,2.48002 -1.38873,4.80104 -3.91993,4.80078 h -12.3789 c -1.76926,1.5e-4 -3.32848,-1.16191 -3.83399,-2.85742 -3.03409,-10.17667 -12.3486,-17.12613 -22.96679,-17.14063 -1.86552,0.0101 -3.72427,0.23539 -5.53711,0.67578 -1.72527,0.41898 -3.52028,-0.34928 -4.40821,-1.88671 l -6.17968,-10.70118 c -1.26291,-2.1886 -0.20551,-4.98537 2.18945,-5.79101 4.48467,-1.50955 9.18217,-2.28583 13.91406,-2.29883 z m -26.30664,10.0957 c 1.3611,0.0638 2.59614,0.816 3.27734,1.9961 l 6.17969,10.70117 c 0.88545,1.53347 0.65743,3.4666 -0.56055,4.75195 -4.21283,4.44663 -6.56562,10.3318 -6.57812,16.45703 0.007,6.12872 2.3554,12.01941 6.56836,16.47071 1.21703,1.28501 1.44502,3.21699 0.56055,4.75 l -6.16211,10.67578 c -1.26486,2.19101 -4.22044,2.67243 -6.11524,0.99609 -7.35823,-6.50704 -12.25407,-15.23839 -14.0625,-24.74023 a 12,12 0 0 0 3.21094,-8.1543 12,12 0 0 0 -3.21289,-8.15039 c 1.80449,-9.50615 6.6973,-18.24246 14.05664,-24.75391 0.77978,-0.68994 1.79784,-1.0487 2.83789,-1 z m 53.13867,37.9043 h 12.32813 c 2.53119,-2.4e-4 4.42635,2.32077 3.91992,4.80078 -2.00843,9.83928 -7.23024,18.34896 -14.42774,24.53906 a 12,12 0 0 0 -2.92382,-0.30273 12,12 0 0 0 -5.7168,1.60351 12,12 0 0 0 -5.45312,6.86133 c -4.57562,1.61246 -9.47418,2.49256 -14.54297,2.49805 -0.006,2e-5 -0.0125,2e-5 -0.0195,0 -4.72985,-0.0188 -9.42516,-0.80071 -13.90626,-2.31445 -2.39212,-0.80764 -3.44709,-3.60206 -2.18554,-5.78907 l 6.16992,-10.6875 c 0.88793,-1.53742 2.68293,-2.30568 4.4082,-1.88671 1.81402,0.44068 3.67428,0.66578 5.54102,0.67578 10.62131,-0.0108 19.93962,-6.96097 22.97461,-17.14063 0.50551,-1.6955 2.06472,-2.85757 3.83398,-2.85742 z" color="#000" display="inline" enable-background="accumulate" filter="url(#filter1025)" opacity=".2" overflow="visible" visibility="visible" style="marker:none"/><path id="path1021" fill="url(#linearGradient1035)" fill-opacity="1" fill-rule="nonzero" stroke="none" stroke-dasharray="none" stroke-dashoffset="0" stroke-linecap="butt" stroke-linejoin="miter" stroke-miterlimit="4" stroke-opacity="1" stroke-width="16.078" d="m 152,85.005854 c -5.39372,-0.06 -7.28039,0.14029 -8.03906,6.66211 l -0.28906,2.30469 c -0.66573,4.22983 -0.793,6.145166 -4.79493,7.181636 -0.26817,0.0599 -0.53589,0.12007 -0.80273,0.18359 -0.0631,0.013 -0.11886,0.0282 -0.1836,0.041 l 0.008,0.002 c -1.01036,0.24375 -2.00991,0.51443 -3,0.80859 l 0.01,-0.0117 c -0.16537,0.0565 -0.31605,0.10151 -0.47265,0.15039 -0.14986,0.0458 -0.29985,0.0898 -0.44922,0.13672 -4.02147,1.12811 -5.08541,-0.46762 -7.78711,-3.810546 l -1.4043,-1.85156 c -1.95898,-2.63437 -3.36984,-3.75873 -4.87304,-3.88086 -0.18789,-0.0153 -0.37832,-0.0151 -0.57032,0 -1.3439,0.10545 -2.81717,0.93022 -4.84765,2.13281 -4.70108,2.64491 -6.23474,3.7597 -3.63086,9.787106 l 0.90039,2.14062 c 1.65637,4.30254 2.51833,5.96731 -1.30274,9.30469 l 0.10157,-0.0234 c -0.78976,0.74858 -1.55804,1.51883 -2.30665,2.3086 l 0.0215,-0.10157 c -3.33739,3.82107 -5.00215,2.95911 -9.30469,1.30274 l -2.14062,-0.90235 c -1.88356,-0.81371 -3.28745,-1.22275 -4.40821,-1.25781 -2.46566,-0.0772 -3.56052,1.65668 -5.3789,4.88867 -2.7488,4.6411 -3.52069,6.37502 1.74804,10.29297 l 1.85157,1.4043 c 3.34293,2.7017 4.93866,3.76564 3.81054,7.78711 -0.047,0.14937 -0.0909,0.29936 -0.13671,0.44922 -0.0489,0.1566 -0.0919,0.30729 -0.14844,0.47265 l 0.01,-0.01 c -0.29416,0.99009 -0.56485,1.98964 -0.8086,3 l -0.002,-0.008 c -0.0127,0.0647 -0.028,0.12053 -0.041,0.1836 -0.0635,0.26684 -0.12365,0.53456 -0.18359,0.80273 -1.03646,4.00194 -2.95181,4.1292 -7.18164,4.79493 l -2.30469,0.28906 c -6.52182,0.75868 -6.72208,2.64535 -6.66211,8.03906 -0.06,5.39372 0.14029,7.2804 6.66211,8.03906 l 2.30469,0.28906 c 4.22983,0.66573 6.14518,0.793 7.18164,4.79493 0.0599,0.26818 0.12007,0.5359 0.18359,0.80273 0.013,0.0631 0.0282,0.11886 0.041,0.1836 l 0.002,-0.008 c 0.24375,1.01037 0.51444,2.00991 0.8086,3 l -0.0117,-0.01 c 0.0565,0.16537 0.10147,0.31605 0.15039,0.47265 0.0458,0.14985 0.0897,0.29986 0.13672,0.44922 1.12811,4.02147 -0.46762,5.08542 -3.81055,7.78711 l -1.85156,1.4043 c -5.26873,3.91794 -4.49684,5.6499 -1.74805,10.29101 2.64492,4.70108 3.75971,6.23474 9.78711,3.63086 l 2.14063,-0.90039 c 4.30252,-1.65637 5.96729,-2.51832 9.30468,1.30274 l -0.0234,-0.10157 c 0.74858,0.78976 1.51884,1.55807 2.3086,2.30665 l -0.10157,-0.0215 c 3.82107,3.3374 2.95911,5.00215 1.30274,9.30469 l -0.90235,2.14062 c -2.60388,6.0274 -1.07022,7.14414 3.63086,9.78907 4.6411,2.74879 6.37502,3.51873 10.29297,-1.75 l 1.4043,-1.85157 c 2.70169,-3.34294 3.76565,-4.93865 7.78711,-3.81054 0.14937,0.047 0.29936,0.0909 0.44922,0.13672 0.1566,0.0489 0.30728,0.0938 0.47265,0.15039 l -0.01,-0.0117 c 0.99009,0.29416 1.98964,0.56484 3,0.80859 l -0.008,0.002 c 0.0647,0.0128 0.12053,0.028 0.1836,0.041 0.26684,0.0635 0.53456,0.12365 0.80273,0.18359 4.00193,1.03647 4.12919,2.95182 4.79493,7.18164 l 0.28906,2.30469 c 0.75867,6.52182 2.64534,6.72209 8.03906,6.66211 5.39371,0.06 7.28039,-0.14029 8.03906,-6.66211 l 0.28906,-2.30469 c 0.66576,-4.22983 0.79299,-6.14518 4.79493,-7.18164 0.26817,-0.06 0.5359,-0.12007 0.80273,-0.18359 0.0631,-0.0131 0.11886,-0.0281 0.1836,-0.041 l -0.008,-0.002 c 1.01037,-0.24375 2.0099,-0.51443 3,-0.80859 l -0.01,0.0117 c 0.16536,-0.0565 0.31604,-0.10151 0.47265,-0.15039 0.14985,-0.0458 0.29986,-0.0897 0.44922,-0.13672 4.02147,-1.1281 5.08542,0.46761 7.78711,3.81054 l 1.4043,1.85157 c 3.91794,5.26872 5.6499,4.49685 10.29101,1.74804 4.70108,-2.64491 6.23475,-3.7597 3.63086,-9.78711 l -0.90039,-2.14062 c -1.65641,-4.30248 -2.51833,-5.96729 1.30274,-9.30469 l -0.10157,0.0234 c 0.78977,-0.74858 1.55807,-1.51884 2.30665,-2.3086 l -0.0215,0.10157 c 3.3374,-3.82106 5.00215,-2.95912 9.30469,-1.30274 l 2.14062,0.90235 c 6.0274,2.60387 7.14218,1.07022 9.78711,-3.63086 2.74879,-4.64111 3.5207,-6.37503 -1.74804,-10.29297 l -1.85157,-1.4043 c -3.34293,-2.70168 -4.93866,-3.76564 -3.81054,-7.78711 0.047,-0.14936 0.0908,-0.29937 0.13672,-0.44922 0.0489,-0.1566 0.092,-0.30728 0.14843,-0.47265 l -0.01,0.01 c 0.29416,-0.99009 0.56484,-1.98963 0.80859,-3 l 0.002,0.008 c 0.0128,-0.0647 0.028,-0.12052 0.041,-0.1836 0.0635,-0.26683 0.12365,-0.53455 0.18359,-0.80273 1.03647,-4.00193 2.9518,-4.12919 7.18164,-4.79493 l 2.30469,-0.28906 c 6.52182,-0.75867 6.72209,-2.64534 6.66211,-8.03906 0.06,-5.3937 -0.14028,-7.28038 -6.66211,-8.03906 l -2.30469,-0.28906 c -4.22984,-0.66574 -6.14517,-0.79299 -7.18164,-4.79493 -0.06,-0.26816 -0.12007,-0.53589 -0.18359,-0.80273 -0.0131,-0.0631 -0.0281,-0.11887 -0.041,-0.1836 l -0.002,0.008 c -0.24375,-1.01036 -0.51442,-2.0099 -0.80859,-3 l 0.0117,0.01 c -0.0565,-0.16536 -0.10151,-0.31604 -0.15039,-0.47265 -0.0458,-0.14986 -0.0897,-0.29985 -0.13672,-0.44922 -1.12811,-4.02147 0.46762,-5.08541 3.81054,-7.78711 l 1.85157,-1.4043 c 5.26873,-3.91794 4.49684,-5.6499 1.74804,-10.29101 -1.81838,-3.23199 -2.91322,-4.96776 -5.3789,-4.89063 -1.12074,0.0351 -2.52465,0.44605 -4.40821,1.25977 l -2.14062,0.90039 c -4.30247,1.6564 -5.9673,2.51834 -9.30469,-1.30274 l 0.0234,0.10157 c -0.74858,-0.78977 -1.51883,-1.55806 -2.3086,-2.30665 l 0.10157,0.0215 c -3.82106,-3.33739 -2.95912,-5.00215 -1.30274,-9.30469 l 0.90235,-2.14062 c 2.60387,-6.027396 1.07022,-7.142186 -3.63086,-9.787106 -2.32056,-1.3744 -3.91477,-2.25494 -5.41797,-2.13281 -1.5032,0.12213 -2.91603,1.24649 -4.875,3.88086 l -1.4043,1.85156 c -2.70169,3.342926 -3.76564,4.938646 -7.78711,3.810546 -0.14936,-0.047 -0.29937,-0.0909 -0.44922,-0.13672 -0.15661,-0.0489 -0.30729,-0.0919 -0.47265,-0.14844 l 0.01,0.01 c -0.9901,-0.29416 -1.98963,-0.56485 -3,-0.80859 l 0.008,-0.002 c -0.0647,-0.0127 -0.12052,-0.028 -0.1836,-0.041 -0.26683,-0.0635 -0.53456,-0.12366 -0.80273,-0.1836 -4.00194,-1.03647 -4.12918,-2.951806 -4.79493,-7.181636 l -0.28906,-2.30468 c -0.75866,-6.52207 -2.64534,-6.72234 -8.03905,-6.66236 z m -0.0117,30.994136 c 0.004,-1e-5 0.008,-1e-5 0.0117,0 5.06531,3e-4 9.96082,0.87493 14.53516,2.48047 a 12,12 0 0 0 5.46484,6.87891 12,12 0 0 0 8.66992,1.29101 c 7.20335,6.1907 12.42982,14.70372 14.43946,24.54883 0.50642,2.48002 -1.38873,4.80104 -3.91993,4.80078 h -12.3789 c -1.76926,1.5e-4 -3.32848,-1.16191 -3.83399,-2.85742 -3.03409,-10.17667 -12.3486,-17.12613 -22.96679,-17.14063 -1.86552,0.0101 -3.72427,0.23539 -5.53711,0.67578 -1.72527,0.41898 -3.52028,-0.34928 -4.40821,-1.88671 l -6.17968,-10.70118 c -1.26291,-2.1886 -0.20551,-4.98537 2.18945,-5.79101 4.48467,-1.50955 9.18217,-2.28583 13.91406,-2.29883 z m -26.30664,10.0957 c 1.3611,0.0638 2.59614,0.816 3.27734,1.9961 l 6.17969,10.70117 c 0.88545,1.53347 0.65743,3.4666 -0.56055,4.75195 -4.21283,4.44663 -6.56562,10.3318 -6.57812,16.45703 0.007,6.12872 2.3554,12.01941 6.56836,16.47071 1.21703,1.28501 1.44502,3.21699 0.56055,4.75 l -6.16211,10.67578 c -1.26486,2.19101 -4.22044,2.67243 -6.11524,0.99609 -7.35823,-6.50704 -12.25407,-15.23839 -14.0625,-24.74023 a 12,12 0 0 0 3.21094,-8.1543 12,12 0 0 0 -3.21289,-8.15039 c 1.80449,-9.50615 6.6973,-18.24246 14.05664,-24.75391 0.77978,-0.68994 1.79784,-1.0487 2.83789,-1 z m 53.13867,37.9043 h 12.32813 c 2.53119,-2.4e-4 4.42635,2.32077 3.91992,4.80078 -2.00843,9.83928 -7.23024,18.34896 -14.42774,24.53906 a 12,12 0 0 0 -2.92382,-0.30273 12,12 0 0 0 -5.7168,1.60351 12,12 0 0 0 -5.45312,6.86133 c -4.57562,1.61246 -9.47418,2.49256 -14.54297,2.49805 -0.006,2e-5 -0.0125,2e-5 -0.0195,0 -4.72985,-0.0188 -9.42516,-0.80071 -13.90626,-2.31445 -2.39212,-0.80764 -3.44709,-3.60206 -2.18554,-5.78907 l 6.16992,-10.6875 c 0.88793,-1.53742 2.68293,-2.30568 4.4082,-1.88671 1.81402,0.44068 3.67428,0.66578 5.54102,0.67578 10.62131,-0.0108 19.93962,-6.96097 22.97461,-17.14063 0.50551,-1.6955 2.06472,-2.85757 3.83398,-2.85742 z" color="#000" display="inline" enable-background="accumulate" filter="url(#filter1025)" opacity=".2" overflow="visible" visibility="visible" style="marker:none"/><g id="g1531" display="inline" transform="matrix(0.19565217,0,0,0.19565217,314.26087,53.478265)"><circle id="circle1507" cx="152" cy="156" r="92" fill="#4d4d4d" fill-opacity="1" fill-rule="nonzero" stroke="none" stroke-dasharray="12 12" stroke-dashoffset="0" stroke-linecap="butt" stroke-linejoin="miter" stroke-miterlimit="4" stroke-opacity="1" stroke-width="4" color="#000" display="inline" enable-background="accumulate" opacity="1" overflow="visible" visibility="visible" style="marker:none"/><path id="path1511" fill="url(#linearGradient983)" fill-opacity="1" fill-rule="nonzero" stroke="none" stroke-dasharray="none" stroke-dashoffset="0" stroke-linecap="butt" stroke-linejoin="miter" stroke-miterlimit="4" stroke-opacity="1" stroke-width="16.078" d="m 152,81.005859 c -5.39372,-0.05998 -7.28039,0.14029 -8.03906,6.66211 l -0.28906,2.304687 c -0.66573,4.22983 -0.793,6.145172 -4.79493,7.181641 -0.26817,0.05994 -0.53589,0.120069 -0.80273,0.183594 -0.0631,0.01301 -0.11886,0.02824 -0.1836,0.04102 l 0.008,0.002 c -1.01036,0.243748 -2.00991,0.514431 -3,0.808594 l 0.01,-0.01172 c -0.16537,0.05647 -0.31605,0.101513 -0.47265,0.150391 -0.14986,0.04582 -0.29985,0.08978 -0.44922,0.136719 -4.02147,1.128115 -5.08541,-0.467614 -7.78711,-3.810547 l -1.4043,-1.851563 c -1.95898,-2.634363 -3.36984,-3.758729 -4.87304,-3.880859 -0.18789,-0.01527 -0.37832,-0.01507 -0.57032,0 -1.3439,0.105454 -2.81717,0.930219 -4.84765,2.132813 -4.70108,2.644913 -6.23474,3.759697 -3.63086,9.787111 l 0.90039,2.14062 c 1.65637,4.30254 2.51833,5.96731 -1.30274,9.30469 l 0.10157,-0.0234 c -0.78976,0.74858 -1.55804,1.51883 -2.30665,2.3086 l 0.0215,-0.10157 c -3.33739,3.82107 -5.00215,2.95911 -9.304688,1.30274 l -2.140625,-0.90235 c -1.88356,-0.81371 -3.287448,-1.22275 -4.408203,-1.25781 -2.465666,-0.0772 -3.560523,1.65668 -5.378906,4.88867 -2.748796,4.6411 -3.520685,6.37502 1.748046,10.29297 l 1.851563,1.4043 c 3.342929,2.7017 4.938662,3.76564 3.810547,7.78711 -0.04698,0.14937 -0.09087,0.29936 -0.136719,0.44922 -0.04894,0.1566 -0.09193,0.30729 -0.148437,0.47265 l 0.0098,-0.01 c -0.294163,0.99009 -0.564847,1.98964 -0.808594,3 l -0.002,-0.008 c -0.01271,0.0647 -0.02795,0.12053 -0.04102,0.1836 -0.06352,0.26684 -0.123652,0.53456 -0.183594,0.80273 -1.036464,4.00194 -2.951806,4.1292 -7.181641,4.79493 l -2.304687,0.28906 c -6.52182,0.75868 -6.722082,2.64535 -6.66211,8.03906 -0.05998,5.39372 0.140285,7.2804 6.66211,8.03906 l 2.304687,0.28906 c 4.22983,0.66573 6.145182,0.793 7.181641,4.79493 0.05994,0.26818 0.120069,0.5359 0.183594,0.80273 0.01301,0.0631 0.02824,0.11886 0.04102,0.1836 l 0.002,-0.008 c 0.243747,1.01037 0.514431,2.00991 0.808594,3 l -0.01172,-0.01 c 0.0565,0.16537 0.101472,0.31605 0.150391,0.47265 0.04582,0.14985 0.08974,0.29986 0.136719,0.44922 1.12811,4.02147 -0.467618,5.08542 -3.810547,7.78711 l -1.851563,1.4043 c -5.268726,3.91794 -4.496841,5.6499 -1.748046,10.29101 2.644913,4.70108 3.759708,6.23474 9.787109,3.63086 l 2.140625,-0.90039 c 4.302524,-1.65637 5.967294,-2.51832 9.304684,1.30274 l -0.0234,-0.10157 c 0.74858,0.78976 1.51884,1.55807 2.3086,2.30665 l -0.10157,-0.0215 c 3.82107,3.3374 2.95911,5.00215 1.30274,9.30469 l -0.90235,2.14062 c -2.60388,6.0274 -1.07022,7.14414 3.63086,9.78907 4.6411,2.74879 6.37502,3.51873 10.29297,-1.75 l 1.4043,-1.85157 c 2.70169,-3.34294 3.76565,-4.93865 7.78711,-3.81054 0.14937,0.047 0.29936,0.0909 0.44922,0.13672 0.1566,0.0489 0.30728,0.0938 0.47265,0.15039 l -0.01,-0.0117 c 0.99009,0.29416 1.98964,0.56484 3,0.80859 l -0.008,0.002 c 0.0647,0.0128 0.12053,0.028 0.1836,0.041 0.26684,0.0635 0.53456,0.12365 0.80273,0.18359 4.00193,1.03647 4.12919,2.95182 4.79493,7.18164 l 0.28906,2.30469 c 0.75867,6.52182 2.64534,6.72209 8.03906,6.66211 5.39371,0.06 7.28039,-0.14029 8.03906,-6.66211 l 0.28906,-2.30469 c 0.66576,-4.22983 0.79299,-6.14518 4.79493,-7.18164 0.26817,-0.06 0.5359,-0.12007 0.80273,-0.18359 0.0631,-0.0131 0.11886,-0.0281 0.1836,-0.041 l -0.008,-0.002 c 1.01037,-0.24375 2.0099,-0.51443 3,-0.80859 l -0.01,0.0117 c 0.16536,-0.0565 0.31604,-0.10151 0.47265,-0.15039 0.14985,-0.0458 0.29986,-0.0897 0.44922,-0.13672 4.02147,-1.1281 5.08542,0.46761 7.78711,3.81054 l 1.4043,1.85157 c 3.91794,5.26872 5.6499,4.49685 10.29101,1.74804 4.70108,-2.64491 6.23475,-3.7597 3.63086,-9.78711 l -0.90039,-2.14062 c -1.65641,-4.30248 -2.51833,-5.96729 1.30274,-9.30469 l -0.10157,0.0234 c 0.78977,-0.74858 1.55807,-1.51884 2.30665,-2.3086 l -0.0215,0.10157 c 3.3374,-3.82106 5.00215,-2.95912 9.30469,-1.30274 l 2.14062,0.90235 c 6.0274,2.60387 7.14218,1.07022 9.78711,-3.63086 2.74879,-4.64111 3.5207,-6.37503 -1.74804,-10.29297 l -1.85157,-1.4043 c -3.34293,-2.70168 -4.93866,-3.76564 -3.81054,-7.78711 0.047,-0.14936 0.0908,-0.29937 0.13672,-0.44922 0.0489,-0.1566 0.092,-0.30728 0.14843,-0.47265 l -0.01,0.01 c 0.29416,-0.99009 0.56484,-1.98963 0.80859,-3 l 0.002,0.008 c 0.0128,-0.0647 0.028,-0.12052 0.041,-0.1836 0.0635,-0.26683 0.12365,-0.53455 0.18359,-0.80273 1.03647,-4.00193 2.9518,-4.12919 7.18164,-4.79493 l 2.30469,-0.28906 c 6.52182,-0.75867 6.72209,-2.64534 6.66211,-8.03906 0.06,-5.3937 -0.14028,-7.28038 -6.66211,-8.03906 l -2.30469,-0.28906 c -4.22984,-0.66574 -6.14517,-0.79299 -7.18164,-4.79493 -0.06,-0.26816 -0.12007,-0.53589 -0.18359,-0.80273 -0.0131,-0.0631 -0.0281,-0.11887 -0.041,-0.1836 l -0.002,0.008 c -0.24375,-1.01036 -0.51442,-2.0099 -0.80859,-3 l 0.0117,0.01 c -0.0565,-0.16536 -0.10151,-0.31604 -0.15039,-0.47265 -0.0458,-0.14986 -0.0897,-0.29985 -0.13672,-0.44922 -1.12811,-4.02147 0.46762,-5.08541 3.81054,-7.78711 l 1.85157,-1.4043 c 5.26873,-3.91794 4.49684,-5.6499 1.74804,-10.29101 -1.81838,-3.23199 -2.91322,-4.96776 -5.3789,-4.89063 -1.12074,0.0351 -2.52465,0.44605 -4.40821,1.25977 l -2.14062,0.90039 c -4.30247,1.6564 -5.9673,2.51834 -9.30469,-1.30274 l 0.0234,0.10157 c -0.74858,-0.78977 -1.51883,-1.55806 -2.3086,-2.30665 l 0.10157,0.0215 c -3.82106,-3.33739 -2.95912,-5.00215 -1.30274,-9.30469 l 0.90235,-2.14062 c 2.60387,-6.027406 1.07022,-7.142192 -3.63086,-9.787111 -2.32056,-1.374397 -3.91477,-2.254938 -5.41797,-2.132813 -1.5032,0.12213 -2.91603,1.246496 -4.875,3.880859 l -1.4043,1.851563 c -2.70169,3.342927 -3.76564,4.938652 -7.78711,3.810547 -0.14936,-0.04703 -0.29937,-0.09088 -0.44922,-0.136719 -0.15661,-0.04894 -0.30729,-0.09192 -0.47265,-0.148437 l 0.01,0.0098 c -0.9901,-0.294163 -1.98963,-0.564847 -3,-0.808594 l 0.008,-0.002 c -0.0647,-0.01271 -0.12052,-0.02795 -0.1836,-0.04102 -0.26683,-0.06352 -0.53456,-0.123652 -0.80273,-0.183594 -4.00194,-1.036469 -4.12918,-2.951811 -4.79493,-7.181641 l -0.28906,-2.304687 C 159.28039,81.146149 157.39371,80.945882 152,81.005859 Z M 151.98828,112 c 0.004,-1e-5 0.008,-1e-5 0.0117,0 5.06531,3e-4 9.96082,0.87493 14.53516,2.48047 a 12,12 0 0 0 5.46484,6.87891 12,12 0 0 0 8.66992,1.29101 c 7.20335,6.1907 12.42982,14.70372 14.43946,24.54883 0.50642,2.48002 -1.38873,4.80104 -3.91993,4.80078 h -12.3789 c -1.76926,1.5e-4 -3.32848,-1.16191 -3.83399,-2.85742 -3.03409,-10.17667 -12.3486,-17.12613 -22.96679,-17.14063 -1.86552,0.0101 -3.72427,0.23539 -5.53711,0.67578 -1.72527,0.41898 -3.52028,-0.34928 -4.40821,-1.88671 l -6.17968,-10.70118 c -1.26291,-2.1886 -0.20551,-4.98537 2.18945,-5.79101 4.48467,-1.50955 9.18217,-2.28583 13.91406,-2.29883 z m -26.30664,10.0957 c 1.3611,0.0638 2.59614,0.816 3.27734,1.9961 l 6.17969,10.70117 c 0.88545,1.53347 0.65743,3.4666 -0.56055,4.75195 -4.21283,4.44663 -6.56562,10.3318 -6.57812,16.45703 0.007,6.12872 2.3554,12.01941 6.56836,16.47071 1.21703,1.28501 1.44502,3.21699 0.56055,4.75 l -6.16211,10.67578 c -1.26486,2.19101 -4.22044,2.67243 -6.11524,0.99609 -7.35823,-6.50704 -12.25407,-15.23839 -14.0625,-24.74023 A 12,12 0 0 0 112,156 a 12,12 0 0 0 -3.21289,-8.15039 c 1.80449,-9.50615 6.6973,-18.24246 14.05664,-24.75391 0.77978,-0.68994 1.79784,-1.0487 2.83789,-1 z M 178.82031,160 h 12.32813 c 2.53119,-2.4e-4 4.42635,2.32077 3.91992,4.80078 -2.00843,9.83928 -7.23024,18.34896 -14.42774,24.53906 a 12,12 0 0 0 -2.92382,-0.30273 12,12 0 0 0 -5.7168,1.60351 12,12 0 0 0 -5.45312,6.86133 c -4.57562,1.61246 -9.47418,2.49256 -14.54297,2.49805 -0.006,2e-5 -0.0125,2e-5 -0.0195,0 -4.72985,-0.0188 -9.42516,-0.80071 -13.90626,-2.31445 -2.39212,-0.80764 -3.44709,-3.60206 -2.18554,-5.78907 l 6.16992,-10.6875 c 0.88793,-1.53742 2.68293,-2.30568 4.4082,-1.88671 1.81402,0.44068 3.67428,0.66578 5.54102,0.67578 10.62131,-0.0108 19.93962,-6.96097 22.97461,-17.14063 0.50551,-1.6955 2.06472,-2.85757 3.83398,-2.85742 z" color="#000" display="inline" enable-background="accumulate" opacity="1" overflow="visible" visibility="visible" style="marker:none"/><path id="path1513" fill="#000" fill-opacity="1" fill-rule="nonzero" stroke="none" stroke-dasharray="2.311 2.311" stroke-dashoffset="0" stroke-linecap="butt" stroke-linejoin="miter" stroke-miterlimit="4" stroke-opacity="1" stroke-width=".77" d="m 344,73.826172 c -4.81481,0 -8.84803,3.349332 -9.90234,7.84375 0.55467,0.06495 1.06738,0.326975 1.44726,0.736328 0.35305,-1.859899 1.31013,-3.569771 2.75,-4.84375 0.15257,-0.134988 0.35315,-0.204841 0.55664,-0.195312 0.2663,0.01248 0.50735,0.159735 0.64063,0.390624 l 1.20898,2.09375 c 0.17324,0.300027 0.12893,0.678206 -0.10937,0.929688 -0.82425,0.869993 -1.28467,2.020335 -1.28711,3.21875 0.001,1.199097 0.46088,2.35175 1.28515,3.222656 0.23812,0.251415 0.28243,0.629751 0.10938,0.929688 l -1.20508,2.08789 c -0.24747,0.428676 -0.82654,0.523292 -1.19726,0.195313 -1.43966,-1.273117 -2.39813,-2.980788 -2.75196,-4.839844 -0.37988,0.409353 -0.89259,0.669424 -1.44726,0.734375 1.0546,4.494011 5.08782,7.84375 9.90234,7.84375 1.02045,0 2.00601,-0.151758 2.93555,-0.43164 -0.22165,-0.512942 -0.25427,-1.089007 -0.0898,-1.623047 -0.89523,0.315481 -1.85398,0.48916 -2.8457,0.490234 -10e-4,4e-6 -0.003,4e-6 -0.004,0 -0.9254,-0.0037 -1.84396,-0.156958 -2.7207,-0.453125 -0.46802,-0.158017 -0.67456,-0.704919 -0.42773,-1.132812 l 1.20898,-2.091797 c 0.17373,-0.3008 0.52378,-0.451113 0.86133,-0.369141 0.35492,0.08622 0.71875,0.130856 1.08398,0.132812 2.07809,-0.0021 3.90229,-1.361843 4.4961,-3.353515 0.0989,-0.331728 0.40384,-0.558623 0.75,-0.558594 h 2.41211 c 0.49523,-4.7e-5 0.86471,0.454234 0.76562,0.939453 -0.39295,1.925077 -1.41406,3.589675 -2.82226,4.800782 0.54564,0.12308 1.03044,0.436669 1.36523,0.884765 1.97229,-1.855876 3.20508,-4.487928 3.20508,-7.408203 0,-2.92086 -1.23405,-5.552268 -3.20703,-7.408203 -0.33321,0.446451 -0.8144,0.758428 -1.35742,0.882812 1.40935,1.211224 2.43102,2.876518 2.82421,4.802735 0.0991,0.485221 -0.27039,0.939504 -0.76562,0.939453 h -2.42188 c -0.34616,2.9e-5 -0.65109,-0.226864 -0.75,-0.558594 -0.59362,-1.991087 -2.41666,-3.350679 -4.49414,-3.353515 -0.36499,0.002 -0.7293,0.04665 -1.08398,0.132812 -0.33755,0.08197 -0.6876,-0.06834 -0.86133,-0.369141 l -1.20898,-2.09375 c -0.24709,-0.428204 -0.0409,-0.975187 0.42773,-1.132812 0.87744,-0.295347 1.79685,-0.448629 2.72266,-0.451172 0,0 0.002,0 0.002,0 0.99104,5.9e-5 1.94877,0.172201 2.84375,0.486328 -0.16331,-0.533236 -0.13143,-1.107234 0.0898,-1.619141 -0.92919,-0.279659 -1.91357,-0.43164 -2.93359,-0.43164 z m 0,7.042969 A 3.1304347,3.1304347 0 0 1 347.13086,84 3.1304347,3.1304347 0 0 1 344,87.130859 3.1304347,3.1304347 0 0 1 340.86914,84 3.1304347,3.1304347 0 0 1 344,80.869141 Z" color="#000" display="inline" enable-background="accumulate" opacity=".1" overflow="visible" transform="matrix(5.1111112,0,0,5.1111112,-1606.2223,-273.33334)" visibility="visible" style="marker:none"/><path id="path1521" fill="#b3b3b3" fill-opacity="1" stroke="none" stroke-dasharray="none" stroke-dashoffset="0" stroke-linecap="round" stroke-linejoin="round" stroke-miterlimit="4" stroke-opacity="1" stroke-width="3" d="M 177.7168,104.97266 A 6,6 0 0 0 172.80469,107.9668 6,6 0 0 0 175,116.16211 6,6 0 0 0 183.19531,113.9668 6,6 0 0 0 181,105.76953 6,6 0 0 0 177.7168,104.97266 Z M 100,150 a 6,6 0 0 0 -6,6 6,6 0 0 0 6,6 6,6 0 0 0 6,-6 6,6 0 0 0 -6,-6 z m 77.85938,45.03516 A 6,6 0 0 0 175,195.83789 a 6,6 0 0 0 -2.19531,8.19531 6,6 0 0 0 8.19531,2.19532 6,6 0 0 0 2.19531,-8.19532 6,6 0 0 0 -5.33593,-2.99804 z" opacity="1"/></g><g id="g1557" display="inline" transform="matrix(0.11956522,0,0,0.11956522,317.82609,129.34783)"><circle id="circle1535" cx="152" cy="156" r="92" fill="#4d4d4d" fill-opacity="1" fill-rule="nonzero" stroke="none" stroke-dasharray="12 12" stroke-dashoffset="0" stroke-linecap="butt" stroke-linejoin="miter" stroke-miterlimit="4" stroke-opacity="1" stroke-width="4" color="#000" display="inline" enable-background="accumulate" opacity="1" overflow="visible" visibility="visible" style="marker:none"/><path id="path1539" fill="#cdcdcd" fill-opacity="1" fill-rule="nonzero" stroke="none" stroke-dasharray="none" stroke-dashoffset="0" stroke-linecap="butt" stroke-linejoin="miter" stroke-miterlimit="4" stroke-opacity="1" stroke-width="16.078" d="m 152,81.005859 c -5.39372,-0.05998 -7.28039,0.14029 -8.03906,6.66211 l -0.28906,2.304687 c -0.66573,4.22983 -0.793,6.145172 -4.79493,7.181641 -0.26817,0.05994 -0.53589,0.120069 -0.80273,0.183594 -0.0631,0.01301 -0.11886,0.02824 -0.1836,0.04102 l 0.008,0.002 c -1.01036,0.243748 -2.00991,0.514431 -3,0.808594 l 0.01,-0.01172 c -0.16537,0.05647 -0.31605,0.101513 -0.47265,0.150391 -0.14986,0.04582 -0.29985,0.08978 -0.44922,0.136719 -4.02147,1.128115 -5.08541,-0.467614 -7.78711,-3.810547 l -1.4043,-1.851563 c -1.95898,-2.634363 -3.36984,-3.758729 -4.87304,-3.880859 -0.18789,-0.01527 -0.37832,-0.01507 -0.57032,0 -1.3439,0.105454 -2.81717,0.930219 -4.84765,2.132813 -4.70108,2.644913 -6.23474,3.759697 -3.63086,9.787111 l 0.90039,2.14062 c 1.65637,4.30254 2.51833,5.96731 -1.30274,9.30469 l 0.10157,-0.0234 c -0.78976,0.74858 -1.55804,1.51883 -2.30665,2.3086 l 0.0215,-0.10157 c -3.33739,3.82107 -5.00215,2.95911 -9.304688,1.30274 l -2.140625,-0.90235 c -1.88356,-0.81371 -3.287448,-1.22275 -4.408203,-1.25781 -2.465666,-0.0772 -3.560523,1.65668 -5.378906,4.88867 -2.748796,4.6411 -3.520685,6.37502 1.748046,10.29297 l 1.851563,1.4043 c 3.342929,2.7017 4.938662,3.76564 3.810547,7.78711 -0.04698,0.14937 -0.09087,0.29936 -0.136719,0.44922 -0.04894,0.1566 -0.09193,0.30729 -0.148437,0.47265 l 0.0098,-0.01 c -0.294163,0.99009 -0.564847,1.98964 -0.808594,3 l -0.002,-0.008 c -0.01271,0.0647 -0.02795,0.12053 -0.04102,0.1836 -0.06352,0.26684 -0.123652,0.53456 -0.183594,0.80273 -1.036464,4.00194 -2.951806,4.1292 -7.181641,4.79493 l -2.304687,0.28906 c -6.52182,0.75868 -6.722082,2.64535 -6.66211,8.03906 -0.05998,5.39372 0.140285,7.2804 6.66211,8.03906 l 2.304687,0.28906 c 4.22983,0.66573 6.145182,0.793 7.181641,4.79493 0.05994,0.26818 0.120069,0.5359 0.183594,0.80273 0.01301,0.0631 0.02824,0.11886 0.04102,0.1836 l 0.002,-0.008 c 0.243747,1.01037 0.514431,2.00991 0.808594,3 l -0.01172,-0.01 c 0.0565,0.16537 0.101472,0.31605 0.150391,0.47265 0.04582,0.14985 0.08974,0.29986 0.136719,0.44922 1.12811,4.02147 -0.467618,5.08542 -3.810547,7.78711 l -1.851563,1.4043 c -5.268726,3.91794 -4.496841,5.6499 -1.748046,10.29101 2.644913,4.70108 3.759708,6.23474 9.787109,3.63086 l 2.140625,-0.90039 c 4.302524,-1.65637 5.967294,-2.51832 9.304684,1.30274 l -0.0234,-0.10157 c 0.74858,0.78976 1.51884,1.55807 2.3086,2.30665 l -0.10157,-0.0215 c 3.82107,3.3374 2.95911,5.00215 1.30274,9.30469 l -0.90235,2.14062 c -2.60388,6.0274 -1.07022,7.14414 3.63086,9.78907 4.6411,2.74879 6.37502,3.51873 10.29297,-1.75 l 1.4043,-1.85157 c 2.70169,-3.34294 3.76565,-4.93865 7.78711,-3.81054 0.14937,0.047 0.29936,0.0909 0.44922,0.13672 0.1566,0.0489 0.30728,0.0938 0.47265,0.15039 l -0.01,-0.0117 c 0.99009,0.29416 1.98964,0.56484 3,0.80859 l -0.008,0.002 c 0.0647,0.0128 0.12053,0.028 0.1836,0.041 0.26684,0.0635 0.53456,0.12365 0.80273,0.18359 4.00193,1.03647 4.12919,2.95182 4.79493,7.18164 l 0.28906,2.30469 c 0.75867,6.52182 2.64534,6.72209 8.03906,6.66211 5.39371,0.06 7.28039,-0.14029 8.03906,-6.66211 l 0.28906,-2.30469 c 0.66576,-4.22983 0.79299,-6.14518 4.79493,-7.18164 0.26817,-0.06 0.5359,-0.12007 0.80273,-0.18359 0.0631,-0.0131 0.11886,-0.0281 0.1836,-0.041 l -0.008,-0.002 c 1.01037,-0.24375 2.0099,-0.51443 3,-0.80859 l -0.01,0.0117 c 0.16536,-0.0565 0.31604,-0.10151 0.47265,-0.15039 0.14985,-0.0458 0.29986,-0.0897 0.44922,-0.13672 4.02147,-1.1281 5.08542,0.46761 7.78711,3.81054 l 1.4043,1.85157 c 3.91794,5.26872 5.6499,4.49685 10.29101,1.74804 4.70108,-2.64491 6.23475,-3.7597 3.63086,-9.78711 l -0.90039,-2.14062 c -1.65641,-4.30248 -2.51833,-5.96729 1.30274,-9.30469 l -0.10157,0.0234 c 0.78977,-0.74858 1.55807,-1.51884 2.30665,-2.3086 l -0.0215,0.10157 c 3.3374,-3.82106 5.00215,-2.95912 9.30469,-1.30274 l 2.14062,0.90235 c 6.0274,2.60387 7.14218,1.07022 9.78711,-3.63086 2.74879,-4.64111 3.5207,-6.37503 -1.74804,-10.29297 l -1.85157,-1.4043 c -3.34293,-2.70168 -4.93866,-3.76564 -3.81054,-7.78711 0.047,-0.14936 0.0908,-0.29937 0.13672,-0.44922 0.0489,-0.1566 0.092,-0.30728 0.14843,-0.47265 l -0.01,0.01 c 0.29416,-0.99009 0.56484,-1.98963 0.80859,-3 l 0.002,0.008 c 0.0128,-0.0647 0.028,-0.12052 0.041,-0.1836 0.0635,-0.26683 0.12365,-0.53455 0.18359,-0.80273 1.03647,-4.00193 2.9518,-4.12919 7.18164,-4.79493 l 2.30469,-0.28906 c 6.52182,-0.75867 6.72209,-2.64534 6.66211,-8.03906 0.06,-5.3937 -0.14028,-7.28038 -6.66211,-8.03906 l -2.30469,-0.28906 c -4.22984,-0.66574 -6.14517,-0.79299 -7.18164,-4.79493 -0.06,-0.26816 -0.12007,-0.53589 -0.18359,-0.80273 -0.0131,-0.0631 -0.0281,-0.11887 -0.041,-0.1836 l -0.002,0.008 c -0.24375,-1.01036 -0.51442,-2.0099 -0.80859,-3 l 0.0117,0.01 c -0.0565,-0.16536 -0.10151,-0.31604 -0.15039,-0.47265 -0.0458,-0.14986 -0.0897,-0.29985 -0.13672,-0.44922 -1.12811,-4.02147 0.46762,-5.08541 3.81054,-7.78711 l 1.85157,-1.4043 c 5.26873,-3.91794 4.49684,-5.6499 1.74804,-10.29101 -1.81838,-3.23199 -2.91322,-4.96776 -5.3789,-4.89063 -1.12074,0.0351 -2.52465,0.44605 -4.40821,1.25977 l -2.14062,0.90039 c -4.30247,1.6564 -5.9673,2.51834 -9.30469,-1.30274 l 0.0234,0.10157 c -0.74858,-0.78977 -1.51883,-1.55806 -2.3086,-2.30665 l 0.10157,0.0215 c -3.82106,-3.33739 -2.95912,-5.00215 -1.30274,-9.30469 l 0.90235,-2.14062 c 2.60387,-6.027406 1.07022,-7.142192 -3.63086,-9.787111 -2.32056,-1.374397 -3.91477,-2.254938 -5.41797,-2.132813 -1.5032,0.12213 -2.91603,1.246496 -4.875,3.880859 l -1.4043,1.851563 c -2.70169,3.342927 -3.76564,4.938652 -7.78711,3.810547 -0.14936,-0.04703 -0.29937,-0.09088 -0.44922,-0.136719 -0.15661,-0.04894 -0.30729,-0.09192 -0.47265,-0.148437 l 0.01,0.0098 c -0.9901,-0.294163 -1.98963,-0.564847 -3,-0.808594 l 0.008,-0.002 c -0.0647,-0.01271 -0.12052,-0.02795 -0.1836,-0.04102 -0.26683,-0.06352 -0.53456,-0.123652 -0.80273,-0.183594 -4.00194,-1.036469 -4.12918,-2.951811 -4.79493,-7.181641 l -0.28906,-2.304687 C 159.28039,81.146149 157.39371,80.945882 152,81.005859 Z M 151.98828,112 c 0.004,-1e-5 0.008,-1e-5 0.0117,0 5.06531,3e-4 9.96082,0.87493 14.53516,2.48047 a 12,12 0 0 0 5.46484,6.87891 12,12 0 0 0 8.66992,1.29101 c 7.20335,6.1907 12.42982,14.70372 14.43946,24.54883 0.50642,2.48002 -1.38873,4.80104 -3.91993,4.80078 h -12.3789 c -1.76926,1.5e-4 -3.32848,-1.16191 -3.83399,-2.85742 -3.03409,-10.17667 -12.3486,-17.12613 -22.96679,-17.14063 -1.86552,0.0101 -3.72427,0.23539 -5.53711,0.67578 -1.72527,0.41898 -3.52028,-0.34928 -4.40821,-1.88671 l -6.17968,-10.70118 c -1.26291,-2.1886 -0.20551,-4.98537 2.18945,-5.79101 4.48467,-1.50955 9.18217,-2.28583 13.91406,-2.29883 z m -26.30664,10.0957 c 1.3611,0.0638 2.59614,0.816 3.27734,1.9961 l 6.17969,10.70117 c 0.88545,1.53347 0.65743,3.4666 -0.56055,4.75195 -4.21283,4.44663 -6.56562,10.3318 -6.57812,16.45703 0.007,6.12872 2.3554,12.01941 6.56836,16.47071 1.21703,1.28501 1.44502,3.21699 0.56055,4.75 l -6.16211,10.67578 c -1.26486,2.19101 -4.22044,2.67243 -6.11524,0.99609 -7.35823,-6.50704 -12.25407,-15.23839 -14.0625,-24.74023 A 12,12 0 0 0 112,156 a 12,12 0 0 0 -3.21289,-8.15039 c 1.80449,-9.50615 6.6973,-18.24246 14.05664,-24.75391 0.77978,-0.68994 1.79784,-1.0487 2.83789,-1 z M 178.82031,160 h 12.32813 c 2.53119,-2.4e-4 4.42635,2.32077 3.91992,4.80078 -2.00843,9.83928 -7.23024,18.34896 -14.42774,24.53906 a 12,12 0 0 0 -2.92382,-0.30273 12,12 0 0 0 -5.7168,1.60351 12,12 0 0 0 -5.45312,6.86133 c -4.57562,1.61246 -9.47418,2.49256 -14.54297,2.49805 -0.006,2e-5 -0.0125,2e-5 -0.0195,0 -4.72985,-0.0188 -9.42516,-0.80071 -13.90626,-2.31445 -2.39212,-0.80764 -3.44709,-3.60206 -2.18554,-5.78907 l 6.16992,-10.6875 c 0.88793,-1.53742 2.68293,-2.30568 4.4082,-1.88671 1.81402,0.44068 3.67428,0.66578 5.54102,0.67578 10.62131,-0.0108 19.93962,-6.96097 22.97461,-17.14063 0.50551,-1.6955 2.06472,-2.85757 3.83398,-2.85742 z" color="#000" display="inline" enable-background="accumulate" opacity="1" overflow="visible" visibility="visible" style="marker:none"/><path id="path1541" fill="#000" fill-opacity="1" fill-rule="nonzero" stroke="none" stroke-dasharray="11.809 11.809" stroke-dashoffset="0" stroke-linecap="butt" stroke-linejoin="miter" stroke-miterlimit="4" stroke-opacity="1" stroke-width="3.936" d="m 152,104 c -24.60905,0 -45.22457,17.12228 -50.61328,40.09375 2.83498,0.33197 5.45879,1.66361 7.40039,3.75586 1.80449,-9.50615 6.6973,-18.24246 14.05664,-24.75391 0.77978,-0.68994 1.79784,-1.0487 2.83789,-1 1.3611,0.0638 2.59614,0.816 3.27734,1.9961 l 6.17969,10.70117 c 0.88545,1.53347 0.65743,3.4666 -0.56055,4.75195 -4.21283,4.44663 -6.56562,10.3318 -6.57812,16.45703 0.007,6.12872 2.3554,12.01941 6.56836,16.47071 1.21703,1.28501 1.44502,3.21699 0.56055,4.75 l -6.16211,10.67578 c -1.26486,2.19101 -4.22044,2.67243 -6.11524,0.99609 -7.35823,-6.50704 -12.25407,-15.23839 -14.0625,-24.74023 -1.9416,2.09225 -4.56541,3.42389 -7.40039,3.75586 C 106.77889,190.87955 127.39243,208 152,208 c 5.21561,0 10.24905,-0.77652 15,-2.20703 -1.13285,-2.6217 -1.29352,-5.56148 -0.45312,-8.29102 -4.57562,1.61246 -9.47418,2.49256 -14.54297,2.49805 -0.006,2e-5 -0.0125,2e-5 -0.0195,0 -4.72985,-0.0188 -9.42516,-0.80071 -13.90626,-2.31445 -2.39212,-0.80764 -3.44709,-3.60206 -2.18554,-5.78907 l 6.16992,-10.6875 c 0.88793,-1.53742 2.68293,-2.30568 4.4082,-1.88671 1.81402,0.44068 3.67428,0.66578 5.54102,0.67578 10.62131,-0.0108 19.93962,-6.96097 22.97461,-17.14063 0.50551,-1.6955 2.06472,-2.85757 3.83398,-2.85742 h 12.32813 c 2.53119,-2.4e-4 4.42635,2.32077 3.91992,4.80078 -2.00843,9.83928 -7.23023,18.34896 -14.42774,24.53906 2.78885,0.62908 5.26149,2.23317 6.97266,4.52344 C 197.69392,184.37769 204,170.92585 204,156 c 0,-14.92884 -6.30842,-28.38325 -16.39258,-37.86914 -1.70307,2.28186 -4.16204,3.88379 -6.9375,4.51953 7.20335,6.1907 12.42981,14.70372 14.43946,24.54883 0.50642,2.48002 -1.38873,4.80104 -3.91993,4.80078 h -12.3789 c -1.76926,1.5e-4 -3.32848,-1.16191 -3.83399,-2.85742 -3.03409,-10.17667 -12.3486,-17.12613 -22.96679,-17.14063 -1.86552,0.0101 -3.72427,0.23539 -5.53711,0.67578 -1.72527,0.41898 -3.52028,-0.34928 -4.40821,-1.88671 l -6.17968,-10.70118 c -1.26291,-2.1886 -0.20551,-4.98537 2.18945,-5.79101 4.48467,-1.50955 9.18217,-2.28583 13.91406,-2.29883 0.004,-1e-5 0.008,-1e-5 0.0117,0 5.06531,3e-4 9.96082,0.87493 14.53516,2.48047 -0.8347,-2.72543 -0.67199,-5.65898 0.45898,-8.27539 C 162.24492,104.77571 157.21346,104 152,104 Z" color="#000" display="inline" enable-background="accumulate" opacity=".1" overflow="visible" visibility="visible" style="marker:none"/><circle id="circle1543" cx="152" cy="156" r="15.333" fill="#d9d9d9" fill-opacity="1" stroke="none" stroke-dasharray="none" stroke-dashoffset="0" stroke-linecap="round" stroke-linejoin="round" stroke-miterlimit="4" stroke-opacity="1" stroke-width="7.667" opacity="1"/><path id="path1547" fill="#b3b3b3" fill-opacity="1" stroke="none" stroke-dasharray="none" stroke-dashoffset="0" stroke-linecap="round" stroke-linejoin="round" stroke-miterlimit="4" stroke-opacity="1" stroke-width="3" d="M 177.7168,104.97266 A 6,6 0 0 0 172.80469,107.9668 6,6 0 0 0 175,116.16211 6,6 0 0 0 183.19531,113.9668 6,6 0 0 0 181,105.76953 6,6 0 0 0 177.7168,104.97266 Z M 100,150 a 6,6 0 0 0 -6,6 6,6 0 0 0 6,6 6,6 0 0 0 6,-6 6,6 0 0 0 -6,-6 z m 77.85938,45.03516 A 6,6 0 0 0 175,195.83789 a 6,6 0 0 0 -2.19531,8.19531 6,6 0 0 0 8.19531,2.19532 6,6 0 0 0 2.19531,-8.19532 6,6 0 0 0 -5.33593,-2.99804 z" opacity="1"/></g><g id="g1600" stroke-width="1.1" display="inline" transform="matrix(0.05434783,0,0,0.05434783,319.73913,235.52174)"><circle id="circle1588" cx="152" cy="156" r="92" fill="#4d4d4d" fill-opacity="1" fill-rule="nonzero" stroke="none" stroke-dasharray="13.2 13.2" stroke-dashoffset="0" stroke-linecap="butt" stroke-linejoin="miter" stroke-miterlimit="4" stroke-opacity="1" stroke-width="4.4" color="#000" display="inline" enable-background="accumulate" opacity="1" overflow="visible" visibility="visible" style="marker:none"/><path id="path1590" fill="#cdcdcd" fill-opacity="1" fill-rule="nonzero" stroke="none" stroke-dasharray="none" stroke-dashoffset="0" stroke-linecap="butt" stroke-linejoin="miter" stroke-miterlimit="4" stroke-opacity="1" stroke-width="17.686" d="m 152,81.005859 c -5.39372,-0.05998 -7.28039,0.14029 -8.03906,6.66211 l -0.28906,2.304687 c -0.66573,4.22983 -0.793,6.145172 -4.79493,7.181641 -0.26817,0.05994 -0.53589,0.120069 -0.80273,0.183594 -0.0631,0.01301 -0.11886,0.02824 -0.1836,0.04102 l 0.008,0.002 c -1.01036,0.243748 -2.00991,0.514431 -3,0.808594 l 0.01,-0.01172 c -0.16537,0.05647 -0.31605,0.101513 -0.47265,0.150391 -0.14986,0.04582 -0.29985,0.08978 -0.44922,0.136719 -4.02147,1.128115 -5.08541,-0.467614 -7.78711,-3.810547 l -1.4043,-1.851563 c -1.95898,-2.634363 -3.36984,-3.758729 -4.87304,-3.880859 -0.18789,-0.01527 -0.37832,-0.01507 -0.57032,0 -1.3439,0.105454 -2.81717,0.930219 -4.84765,2.132813 -4.70108,2.644913 -6.23474,3.759697 -3.63086,9.787111 l 0.90039,2.14062 c 1.65637,4.30254 2.51833,5.96731 -1.30274,9.30469 l 0.10157,-0.0234 c -0.78976,0.74858 -1.55804,1.51883 -2.30665,2.3086 l 0.0215,-0.10157 c -3.33739,3.82107 -5.00215,2.95911 -9.304688,1.30274 l -2.140625,-0.90235 c -1.88356,-0.81371 -3.287448,-1.22275 -4.408203,-1.25781 -2.465666,-0.0772 -3.560523,1.65668 -5.378906,4.88867 -2.748796,4.6411 -3.520685,6.37502 1.748046,10.29297 l 1.851563,1.4043 c 3.342929,2.7017 4.938662,3.76564 3.810547,7.78711 -0.04698,0.14937 -0.09087,0.29936 -0.136719,0.44922 -0.04894,0.1566 -0.09193,0.30729 -0.148437,0.47265 l 0.0098,-0.01 c -0.294163,0.99009 -0.564847,1.98964 -0.808594,3 l -0.002,-0.008 c -0.01271,0.0647 -0.02795,0.12053 -0.04102,0.1836 -0.06352,0.26684 -0.123652,0.53456 -0.183594,0.80273 -1.036464,4.00194 -2.951806,4.1292 -7.181641,4.79493 l -2.304687,0.28906 c -6.52182,0.75868 -6.722082,2.64535 -6.66211,8.03906 -0.05998,5.39372 0.140285,7.2804 6.66211,8.03906 l 2.304687,0.28906 c 4.22983,0.66573 6.145182,0.793 7.181641,4.79493 0.05994,0.26818 0.120069,0.5359 0.183594,0.80273 0.01301,0.0631 0.02824,0.11886 0.04102,0.1836 l 0.002,-0.008 c 0.243747,1.01037 0.514431,2.00991 0.808594,3 l -0.01172,-0.01 c 0.0565,0.16537 0.101472,0.31605 0.150391,0.47265 0.04582,0.14985 0.08974,0.29986 0.136719,0.44922 1.12811,4.02147 -0.467618,5.08542 -3.810547,7.78711 l -1.851563,1.4043 c -5.268726,3.91794 -4.496841,5.6499 -1.748046,10.29101 2.644913,4.70108 3.759708,6.23474 9.787109,3.63086 l 2.140625,-0.90039 c 4.302524,-1.65637 5.967294,-2.51832 9.304684,1.30274 l -0.0234,-0.10157 c 0.74858,0.78976 1.51884,1.55807 2.3086,2.30665 l -0.10157,-0.0215 c 3.82107,3.3374 2.95911,5.00215 1.30274,9.30469 l -0.90235,2.14062 c -2.60388,6.0274 -1.07022,7.14414 3.63086,9.78907 4.6411,2.74879 6.37502,3.51873 10.29297,-1.75 l 1.4043,-1.85157 c 2.70169,-3.34294 3.76565,-4.93865 7.78711,-3.81054 0.14937,0.047 0.29936,0.0909 0.44922,0.13672 0.1566,0.0489 0.30728,0.0938 0.47265,0.15039 l -0.01,-0.0117 c 0.99009,0.29416 1.98964,0.56484 3,0.80859 l -0.008,0.002 c 0.0647,0.0128 0.12053,0.028 0.1836,0.041 0.26684,0.0635 0.53456,0.12365 0.80273,0.18359 4.00193,1.03647 4.12919,2.95182 4.79493,7.18164 l 0.28906,2.30469 c 0.75867,6.52182 2.64534,6.72209 8.03906,6.66211 5.39371,0.06 7.28039,-0.14029 8.03906,-6.66211 l 0.28906,-2.30469 c 0.66576,-4.22983 0.79299,-6.14518 4.79493,-7.18164 0.26817,-0.06 0.5359,-0.12007 0.80273,-0.18359 0.0631,-0.0131 0.11886,-0.0281 0.1836,-0.041 l -0.008,-0.002 c 1.01037,-0.24375 2.0099,-0.51443 3,-0.80859 l -0.01,0.0117 c 0.16536,-0.0565 0.31604,-0.10151 0.47265,-0.15039 0.14985,-0.0458 0.29986,-0.0897 0.44922,-0.13672 4.02147,-1.1281 5.08542,0.46761 7.78711,3.81054 l 1.4043,1.85157 c 3.91794,5.26872 5.6499,4.49685 10.29101,1.74804 4.70108,-2.64491 6.23475,-3.7597 3.63086,-9.78711 l -0.90039,-2.14062 c -1.65641,-4.30248 -2.51833,-5.96729 1.30274,-9.30469 l -0.10157,0.0234 c 0.78977,-0.74858 1.55807,-1.51884 2.30665,-2.3086 l -0.0215,0.10157 c 3.3374,-3.82106 5.00215,-2.95912 9.30469,-1.30274 l 2.14062,0.90235 c 6.0274,2.60387 7.14218,1.07022 9.78711,-3.63086 2.74879,-4.64111 3.5207,-6.37503 -1.74804,-10.29297 l -1.85157,-1.4043 c -3.34293,-2.70168 -4.93866,-3.76564 -3.81054,-7.78711 0.047,-0.14936 0.0908,-0.29937 0.13672,-0.44922 0.0489,-0.1566 0.092,-0.30728 0.14843,-0.47265 l -0.01,0.01 c 0.29416,-0.99009 0.56484,-1.98963 0.80859,-3 l 0.002,0.008 c 0.0128,-0.0647 0.028,-0.12052 0.041,-0.1836 0.0635,-0.26683 0.12365,-0.53455 0.18359,-0.80273 1.03647,-4.00193 2.9518,-4.12919 7.18164,-4.79493 l 2.30469,-0.28906 c 6.52182,-0.75867 6.72209,-2.64534 6.66211,-8.03906 0.06,-5.3937 -0.14028,-7.28038 -6.66211,-8.03906 l -2.30469,-0.28906 c -4.22984,-0.66574 -6.14517,-0.79299 -7.18164,-4.79493 -0.06,-0.26816 -0.12007,-0.53589 -0.18359,-0.80273 -0.0131,-0.0631 -0.0281,-0.11887 -0.041,-0.1836 l -0.002,0.008 c -0.24375,-1.01036 -0.51442,-2.0099 -0.80859,-3 l 0.0117,0.01 c -0.0565,-0.16536 -0.10151,-0.31604 -0.15039,-0.47265 -0.0458,-0.14986 -0.0897,-0.29985 -0.13672,-0.44922 -1.12811,-4.02147 0.46762,-5.08541 3.81054,-7.78711 l 1.85157,-1.4043 c 5.26873,-3.91794 4.49684,-5.6499 1.74804,-10.29101 -1.81838,-3.23199 -2.91322,-4.96776 -5.3789,-4.89063 -1.12074,0.0351 -2.52465,0.44605 -4.40821,1.25977 l -2.14062,0.90039 c -4.30247,1.6564 -5.9673,2.51834 -9.30469,-1.30274 l 0.0234,0.10157 c -0.74858,-0.78977 -1.51883,-1.55806 -2.3086,-2.30665 l 0.10157,0.0215 c -3.82106,-3.33739 -2.95912,-5.00215 -1.30274,-9.30469 l 0.90235,-2.14062 c 2.60387,-6.027406 1.07022,-7.142192 -3.63086,-9.787111 -2.32056,-1.374397 -3.91477,-2.254938 -5.41797,-2.132813 -1.5032,0.12213 -2.91603,1.246496 -4.875,3.880859 l -1.4043,1.851563 c -2.70169,3.342927 -3.76564,4.938652 -7.78711,3.810547 -0.14936,-0.04703 -0.29937,-0.09088 -0.44922,-0.136719 -0.15661,-0.04894 -0.30729,-0.09192 -0.47265,-0.148437 l 0.01,0.0098 c -0.9901,-0.294163 -1.98963,-0.564847 -3,-0.808594 l 0.008,-0.002 c -0.0647,-0.01271 -0.12052,-0.02795 -0.1836,-0.04102 -0.26683,-0.06352 -0.53456,-0.123652 -0.80273,-0.183594 -4.00194,-1.036469 -4.12918,-2.951811 -4.79493,-7.181641 l -0.28906,-2.304687 C 159.28039,81.146149 157.39371,80.945882 152,81.005859 Z M 151.98828,112 c 0.004,-1e-5 0.008,-1e-5 0.0117,0 5.06531,3e-4 9.96082,0.87493 14.53516,2.48047 a 12,12 0 0 0 5.46484,6.87891 12,12 0 0 0 8.66992,1.29101 c 7.20335,6.1907 12.42982,14.70372 14.43946,24.54883 0.50642,2.48002 -1.38873,4.80104 -3.91993,4.80078 h -12.3789 c -1.76926,1.5e-4 -3.32848,-1.16191 -3.83399,-2.85742 -3.03409,-10.17667 -12.3486,-17.12613 -22.96679,-17.14063 -1.86552,0.0101 -3.72427,0.23539 -5.53711,0.67578 -1.72527,0.41898 -3.52028,-0.34928 -4.40821,-1.88671 l -6.17968,-10.70118 c -1.26291,-2.1886 -0.20551,-4.98537 2.18945,-5.79101 4.48467,-1.50955 9.18217,-2.28583 13.91406,-2.29883 z m -26.30664,10.0957 c 1.3611,0.0638 2.59614,0.816 3.27734,1.9961 l 6.17969,10.70117 c 0.88545,1.53347 0.65743,3.4666 -0.56055,4.75195 -4.21283,4.44663 -6.56562,10.3318 -6.57812,16.45703 0.007,6.12872 2.3554,12.01941 6.56836,16.47071 1.21703,1.28501 1.44502,3.21699 0.56055,4.75 l -6.16211,10.67578 c -1.26486,2.19101 -4.22044,2.67243 -6.11524,0.99609 -7.35823,-6.50704 -12.25407,-15.23839 -14.0625,-24.74023 A 12,12 0 0 0 112,156 a 12,12 0 0 0 -3.21289,-8.15039 c 1.80449,-9.50615 6.6973,-18.24246 14.05664,-24.75391 0.77978,-0.68994 1.79784,-1.0487 2.83789,-1 z M 178.82031,160 h 12.32813 c 2.53119,-2.4e-4 4.42635,2.32077 3.91992,4.80078 -2.00843,9.83928 -7.23024,18.34896 -14.42774,24.53906 a 12,12 0 0 0 -2.92382,-0.30273 12,12 0 0 0 -5.7168,1.60351 12,12 0 0 0 -5.45312,6.86133 c -4.57562,1.61246 -9.47418,2.49256 -14.54297,2.49805 -0.006,2e-5 -0.0125,2e-5 -0.0195,0 -4.72985,-0.0188 -9.42516,-0.80071 -13.90626,-2.31445 -2.39212,-0.80764 -3.44709,-3.60206 -2.18554,-5.78907 l 6.16992,-10.6875 c 0.88793,-1.53742 2.68293,-2.30568 4.4082,-1.88671 1.81402,0.44068 3.67428,0.66578 5.54102,0.67578 10.62131,-0.0108 19.93962,-6.96097 22.97461,-17.14063 0.50551,-1.6955 2.06472,-2.85757 3.83398,-2.85742 z" color="#000" display="inline" enable-background="accumulate" opacity="1" overflow="visible" visibility="visible" style="marker:none"/></g><g id="g1614" display="inline" transform="matrix(0.08695652,0,0,0.08695652,318.78261,186.43478)"><circle id="circle1602" cx="152" cy="156" r="92" fill="#4d4d4d" fill-opacity="1" fill-rule="nonzero" stroke="none" stroke-dasharray="12 12" stroke-dashoffset="0" stroke-linecap="butt" stroke-linejoin="miter" stroke-miterlimit="4" stroke-opacity="1" stroke-width="4" color="#000" display="inline" enable-background="accumulate" opacity="1" overflow="visible" visibility="visible" style="marker:none"/><path id="path1604" fill="#cdcdcd" fill-opacity="1" fill-rule="nonzero" stroke="none" stroke-dasharray="none" stroke-dashoffset="0" stroke-linecap="butt" stroke-linejoin="miter" stroke-miterlimit="4" stroke-opacity="1" stroke-width="16.078" d="m 152,81.005859 c -5.39372,-0.05998 -7.28039,0.14029 -8.03906,6.66211 l -0.28906,2.304687 c -0.66573,4.22983 -0.793,6.145172 -4.79493,7.181641 -0.26817,0.05994 -0.53589,0.120069 -0.80273,0.183594 -0.0631,0.01301 -0.11886,0.02824 -0.1836,0.04102 l 0.008,0.002 c -1.01036,0.243748 -2.00991,0.514431 -3,0.808594 l 0.01,-0.01172 c -0.16537,0.05647 -0.31605,0.101513 -0.47265,0.150391 -0.14986,0.04582 -0.29985,0.08978 -0.44922,0.136719 -4.02147,1.128115 -5.08541,-0.467614 -7.78711,-3.810547 l -1.4043,-1.851563 c -1.95898,-2.634363 -3.36984,-3.758729 -4.87304,-3.880859 -0.18789,-0.01527 -0.37832,-0.01507 -0.57032,0 -1.3439,0.105454 -2.81717,0.930219 -4.84765,2.132813 -4.70108,2.644913 -6.23474,3.759697 -3.63086,9.787111 l 0.90039,2.14062 c 1.65637,4.30254 2.51833,5.96731 -1.30274,9.30469 l 0.10157,-0.0234 c -0.78976,0.74858 -1.55804,1.51883 -2.30665,2.3086 l 0.0215,-0.10157 c -3.33739,3.82107 -5.00215,2.95911 -9.304688,1.30274 l -2.140625,-0.90235 c -1.88356,-0.81371 -3.287448,-1.22275 -4.408203,-1.25781 -2.465666,-0.0772 -3.560523,1.65668 -5.378906,4.88867 -2.748796,4.6411 -3.520685,6.37502 1.748046,10.29297 l 1.851563,1.4043 c 3.342929,2.7017 4.938662,3.76564 3.810547,7.78711 -0.04698,0.14937 -0.09087,0.29936 -0.136719,0.44922 -0.04894,0.1566 -0.09193,0.30729 -0.148437,0.47265 l 0.0098,-0.01 c -0.294163,0.99009 -0.564847,1.98964 -0.808594,3 l -0.002,-0.008 c -0.01271,0.0647 -0.02795,0.12053 -0.04102,0.1836 -0.06352,0.26684 -0.123652,0.53456 -0.183594,0.80273 -1.036464,4.00194 -2.951806,4.1292 -7.181641,4.79493 l -2.304687,0.28906 c -6.52182,0.75868 -6.722082,2.64535 -6.66211,8.03906 -0.05998,5.39372 0.140285,7.2804 6.66211,8.03906 l 2.304687,0.28906 c 4.22983,0.66573 6.145182,0.793 7.181641,4.79493 0.05994,0.26818 0.120069,0.5359 0.183594,0.80273 0.01301,0.0631 0.02824,0.11886 0.04102,0.1836 l 0.002,-0.008 c 0.243747,1.01037 0.514431,2.00991 0.808594,3 l -0.01172,-0.01 c 0.0565,0.16537 0.101472,0.31605 0.150391,0.47265 0.04582,0.14985 0.08974,0.29986 0.136719,0.44922 1.12811,4.02147 -0.467618,5.08542 -3.810547,7.78711 l -1.851563,1.4043 c -5.268726,3.91794 -4.496841,5.6499 -1.748046,10.29101 2.644913,4.70108 3.759708,6.23474 9.787109,3.63086 l 2.140625,-0.90039 c 4.302524,-1.65637 5.967294,-2.51832 9.304684,1.30274 l -0.0234,-0.10157 c 0.74858,0.78976 1.51884,1.55807 2.3086,2.30665 l -0.10157,-0.0215 c 3.82107,3.3374 2.95911,5.00215 1.30274,9.30469 l -0.90235,2.14062 c -2.60388,6.0274 -1.07022,7.14414 3.63086,9.78907 4.6411,2.74879 6.37502,3.51873 10.29297,-1.75 l 1.4043,-1.85157 c 2.70169,-3.34294 3.76565,-4.93865 7.78711,-3.81054 0.14937,0.047 0.29936,0.0909 0.44922,0.13672 0.1566,0.0489 0.30728,0.0938 0.47265,0.15039 l -0.01,-0.0117 c 0.99009,0.29416 1.98964,0.56484 3,0.80859 l -0.008,0.002 c 0.0647,0.0128 0.12053,0.028 0.1836,0.041 0.26684,0.0635 0.53456,0.12365 0.80273,0.18359 4.00193,1.03647 4.12919,2.95182 4.79493,7.18164 l 0.28906,2.30469 c 0.75867,6.52182 2.64534,6.72209 8.03906,6.66211 5.39371,0.06 7.28039,-0.14029 8.03906,-6.66211 l 0.28906,-2.30469 c 0.66576,-4.22983 0.79299,-6.14518 4.79493,-7.18164 0.26817,-0.06 0.5359,-0.12007 0.80273,-0.18359 0.0631,-0.0131 0.11886,-0.0281 0.1836,-0.041 l -0.008,-0.002 c 1.01037,-0.24375 2.0099,-0.51443 3,-0.80859 l -0.01,0.0117 c 0.16536,-0.0565 0.31604,-0.10151 0.47265,-0.15039 0.14985,-0.0458 0.29986,-0.0897 0.44922,-0.13672 4.02147,-1.1281 5.08542,0.46761 7.78711,3.81054 l 1.4043,1.85157 c 3.91794,5.26872 5.6499,4.49685 10.29101,1.74804 4.70108,-2.64491 6.23475,-3.7597 3.63086,-9.78711 l -0.90039,-2.14062 c -1.65641,-4.30248 -2.51833,-5.96729 1.30274,-9.30469 l -0.10157,0.0234 c 0.78977,-0.74858 1.55807,-1.51884 2.30665,-2.3086 l -0.0215,0.10157 c 3.3374,-3.82106 5.00215,-2.95912 9.30469,-1.30274 l 2.14062,0.90235 c 6.0274,2.60387 7.14218,1.07022 9.78711,-3.63086 2.74879,-4.64111 3.5207,-6.37503 -1.74804,-10.29297 l -1.85157,-1.4043 c -3.34293,-2.70168 -4.93866,-3.76564 -3.81054,-7.78711 0.047,-0.14936 0.0908,-0.29937 0.13672,-0.44922 0.0489,-0.1566 0.092,-0.30728 0.14843,-0.47265 l -0.01,0.01 c 0.29416,-0.99009 0.56484,-1.98963 0.80859,-3 l 0.002,0.008 c 0.0128,-0.0647 0.028,-0.12052 0.041,-0.1836 0.0635,-0.26683 0.12365,-0.53455 0.18359,-0.80273 1.03647,-4.00193 2.9518,-4.12919 7.18164,-4.79493 l 2.30469,-0.28906 c 6.52182,-0.75867 6.72209,-2.64534 6.66211,-8.03906 0.06,-5.3937 -0.14028,-7.28038 -6.66211,-8.03906 l -2.30469,-0.28906 c -4.22984,-0.66574 -6.14517,-0.79299 -7.18164,-4.79493 -0.06,-0.26816 -0.12007,-0.53589 -0.18359,-0.80273 -0.0131,-0.0631 -0.0281,-0.11887 -0.041,-0.1836 l -0.002,0.008 c -0.24375,-1.01036 -0.51442,-2.0099 -0.80859,-3 l 0.0117,0.01 c -0.0565,-0.16536 -0.10151,-0.31604 -0.15039,-0.47265 -0.0458,-0.14986 -0.0897,-0.29985 -0.13672,-0.44922 -1.12811,-4.02147 0.46762,-5.08541 3.81054,-7.78711 l 1.85157,-1.4043 c 5.26873,-3.91794 4.49684,-5.6499 1.74804,-10.29101 -1.81838,-3.23199 -2.91322,-4.96776 -5.3789,-4.89063 -1.12074,0.0351 -2.52465,0.44605 -4.40821,1.25977 l -2.14062,0.90039 c -4.30247,1.6564 -5.9673,2.51834 -9.30469,-1.30274 l 0.0234,0.10157 c -0.74858,-0.78977 -1.51883,-1.55806 -2.3086,-2.30665 l 0.10157,0.0215 c -3.82106,-3.33739 -2.95912,-5.00215 -1.30274,-9.30469 l 0.90235,-2.14062 c 2.60387,-6.027406 1.07022,-7.142192 -3.63086,-9.787111 -2.32056,-1.374397 -3.91477,-2.254938 -5.41797,-2.132813 -1.5032,0.12213 -2.91603,1.246496 -4.875,3.880859 l -1.4043,1.851563 c -2.70169,3.342927 -3.76564,4.938652 -7.78711,3.810547 -0.14936,-0.04703 -0.29937,-0.09088 -0.44922,-0.136719 -0.15661,-0.04894 -0.30729,-0.09192 -0.47265,-0.148437 l 0.01,0.0098 c -0.9901,-0.294163 -1.98963,-0.564847 -3,-0.808594 l 0.008,-0.002 c -0.0647,-0.01271 -0.12052,-0.02795 -0.1836,-0.04102 -0.26683,-0.06352 -0.53456,-0.123652 -0.80273,-0.183594 -4.00194,-1.036469 -4.12918,-2.951811 -4.79493,-7.181641 l -0.28906,-2.304687 C 159.28039,81.146149 157.39371,80.945882 152,81.005859 Z M 151.98828,112 c 0.004,-1e-5 0.008,-1e-5 0.0117,0 5.06531,3e-4 9.96082,0.87493 14.53516,2.48047 a 12,12 0 0 0 5.46484,6.87891 12,12 0 0 0 8.66992,1.29101 c 7.20335,6.1907 12.42982,14.70372 14.43946,24.54883 0.50642,2.48002 -1.38873,4.80104 -3.91993,4.80078 h -12.3789 c -1.76926,1.5e-4 -3.32848,-1.16191 -3.83399,-2.85742 -3.03409,-10.17667 -12.3486,-17.12613 -22.96679,-17.14063 -1.86552,0.0101 -3.72427,0.23539 -5.53711,0.67578 -1.72527,0.41898 -3.52028,-0.34928 -4.40821,-1.88671 l -6.17968,-10.70118 c -1.26291,-2.1886 -0.20551,-4.98537 2.18945,-5.79101 4.48467,-1.50955 9.18217,-2.28583 13.91406,-2.29883 z m -26.30664,10.0957 c 1.3611,0.0638 2.59614,0.816 3.27734,1.9961 l 6.17969,10.70117 c 0.88545,1.53347 0.65743,3.4666 -0.56055,4.75195 -4.21283,4.44663 -6.56562,10.3318 -6.57812,16.45703 0.007,6.12872 2.3554,12.01941 6.56836,16.47071 1.21703,1.28501 1.44502,3.21699 0.56055,4.75 l -6.16211,10.67578 c -1.26486,2.19101 -4.22044,2.67243 -6.11524,0.99609 -7.35823,-6.50704 -12.25407,-15.23839 -14.0625,-24.74023 A 12,12 0 0 0 112,156 a 12,12 0 0 0 -3.21289,-8.15039 c 1.80449,-9.50615 6.6973,-18.24246 14.05664,-24.75391 0.77978,-0.68994 1.79784,-1.0487 2.83789,-1 z M 178.82031,160 h 12.32813 c 2.53119,-2.4e-4 4.42635,2.32077 3.91992,4.80078 -2.00843,9.83928 -7.23024,18.34896 -14.42774,24.53906 a 12,12 0 0 0 -2.92382,-0.30273 12,12 0 0 0 -5.7168,1.60351 12,12 0 0 0 -5.45312,6.86133 c -4.57562,1.61246 -9.47418,2.49256 -14.54297,2.49805 -0.006,2e-5 -0.0125,2e-5 -0.0195,0 -4.72985,-0.0188 -9.42516,-0.80071 -13.90626,-2.31445 -2.39212,-0.80764 -3.44709,-3.60206 -2.18554,-5.78907 l 6.16992,-10.6875 c 0.88793,-1.53742 2.68293,-2.30568 4.4082,-1.88671 1.81402,0.44068 3.67428,0.66578 5.54102,0.67578 10.62131,-0.0108 19.93962,-6.96097 22.97461,-17.14063 0.50551,-1.6955 2.06472,-2.85757 3.83398,-2.85742 z" color="#000" display="inline" enable-background="accumulate" opacity="1" overflow="visible" visibility="visible" style="marker:none"/></g><path id="path4356" fill="url(#linearGradient955)" fill-opacity="1" fill-rule="nonzero" stroke="none" stroke-dasharray="none" stroke-dashoffset="0" stroke-linecap="butt" stroke-linejoin="miter" stroke-miterlimit="4" stroke-opacity="1" stroke-width="16.078" d="m 152,81.005854 c -5.39372,-0.06 -7.28039,0.14029 -8.03906,6.66211 l -0.28906,2.30469 c -0.66573,4.22983 -0.793,6.14517 -4.79493,7.18164 -0.26817,0.0599 -0.53589,0.12007 -0.80273,0.18359 -0.0631,0.013 -0.11886,0.0282 -0.1836,0.041 l 0.008,0.002 c -1.01036,0.24375 -2.00991,0.51443 -3,0.8086 l 0.01,-0.0117 c -0.16537,0.0565 -0.31605,0.10151 -0.47265,0.15039 -0.14986,0.0458 -0.29985,0.0898 -0.44922,0.13672 -4.02147,1.12811 -5.08541,-0.46762 -7.78711,-3.81055 l -1.4043,-1.85156 c -1.95898,-2.63437 -3.36984,-3.75873 -4.87304,-3.88086 -0.18789,-0.0153 -0.37832,-0.0151 -0.57032,0 -1.3439,0.10545 -2.81717,0.93022 -4.84765,2.13281 -4.70108,2.64491 -6.23474,3.7597 -3.63086,9.787106 l 0.90039,2.14062 c 1.65637,4.30254 2.51833,5.96731 -1.30274,9.30469 l 0.10157,-0.0234 c -0.78976,0.74858 -1.55804,1.51883 -2.30665,2.3086 l 0.0215,-0.10157 c -3.33739,3.82107 -5.00215,2.95911 -9.30469,1.30274 l -2.14062,-0.90235 c -1.88356,-0.81371 -3.28745,-1.22275 -4.40821,-1.25781 -2.46566,-0.0772 -3.56052,1.65668 -5.3789,4.88867 -2.7488,4.6411 -3.52069,6.37502 1.74804,10.29297 l 1.85157,1.4043 c 3.34293,2.7017 4.93866,3.76564 3.81054,7.78711 -0.047,0.14937 -0.0909,0.29936 -0.13671,0.44922 -0.0489,0.1566 -0.0919,0.30729 -0.14844,0.47265 l 0.01,-0.01 c -0.29416,0.99009 -0.56485,1.98964 -0.8086,3 l -0.002,-0.008 c -0.0127,0.0647 -0.028,0.12053 -0.041,0.1836 -0.0635,0.26684 -0.12365,0.53456 -0.18359,0.80273 -1.03646,4.00194 -2.95181,4.1292 -7.18164,4.79493 l -2.30469,0.28906 c -6.52182,0.75868 -6.72208,2.64535 -6.66211,8.03906 -0.06,5.39372 0.14029,7.2804 6.66211,8.03906 l 2.30469,0.28906 c 4.22983,0.66573 6.14518,0.793 7.18164,4.79493 0.0599,0.26818 0.12007,0.5359 0.18359,0.80273 0.013,0.0631 0.0282,0.11886 0.041,0.1836 l 0.002,-0.008 c 0.24375,1.01037 0.51444,2.00991 0.8086,3 l -0.0117,-0.01 c 0.0565,0.16537 0.10147,0.31605 0.15039,0.47265 0.0458,0.14985 0.0897,0.29986 0.13672,0.44922 1.12811,4.02147 -0.46762,5.08542 -3.81055,7.78711 l -1.85156,1.4043 c -5.26873,3.91794 -4.49684,5.6499 -1.74805,10.29101 2.64492,4.70108 3.75971,6.23474 9.78711,3.63086 l 2.14063,-0.90039 c 4.30252,-1.65637 5.96729,-2.51832 9.30468,1.30274 l -0.0234,-0.10157 c 0.74858,0.78976 1.51884,1.55807 2.3086,2.30665 l -0.10157,-0.0215 c 3.82107,3.3374 2.95911,5.00215 1.30274,9.30469 l -0.90235,2.14062 c -2.60388,6.0274 -1.07022,7.14414 3.63086,9.78907 4.6411,2.74879 6.37502,3.51873 10.29297,-1.75 l 1.4043,-1.85157 c 2.70169,-3.34294 3.76565,-4.93865 7.78711,-3.81054 0.14937,0.047 0.29936,0.0909 0.44922,0.13672 0.1566,0.0489 0.30728,0.0938 0.47265,0.15039 l -0.01,-0.0117 c 0.99009,0.29416 1.98964,0.56484 3,0.80859 l -0.008,0.002 c 0.0647,0.0128 0.12053,0.028 0.1836,0.041 0.26684,0.0635 0.53456,0.12365 0.80273,0.18359 4.00193,1.03647 4.12919,2.95182 4.79493,7.18164 l 0.28906,2.30469 c 0.75867,6.52182 2.64534,6.72209 8.03906,6.66211 5.39371,0.06 7.28039,-0.14029 8.03906,-6.66211 l 0.28906,-2.30469 c 0.66576,-4.22983 0.79299,-6.14518 4.79493,-7.18164 0.26817,-0.06 0.5359,-0.12007 0.80273,-0.18359 0.0631,-0.0131 0.11886,-0.0281 0.1836,-0.041 l -0.008,-0.002 c 1.01037,-0.24375 2.0099,-0.51443 3,-0.80859 l -0.01,0.0117 c 0.16536,-0.0565 0.31604,-0.10151 0.47265,-0.15039 0.14985,-0.0458 0.29986,-0.0897 0.44922,-0.13672 4.02147,-1.1281 5.08542,0.46761 7.78711,3.81054 l 1.4043,1.85157 c 3.91794,5.26872 5.6499,4.49685 10.29101,1.74804 4.70108,-2.64491 6.23475,-3.7597 3.63086,-9.78711 l -0.90039,-2.14062 c -1.65641,-4.30248 -2.51833,-5.96729 1.30274,-9.30469 l -0.10157,0.0234 c 0.78977,-0.74858 1.55807,-1.51884 2.30665,-2.3086 l -0.0215,0.10157 c 3.3374,-3.82106 5.00215,-2.95912 9.30469,-1.30274 l 2.14062,0.90235 c 6.0274,2.60387 7.14218,1.07022 9.78711,-3.63086 2.74879,-4.64111 3.5207,-6.37503 -1.74804,-10.29297 l -1.85157,-1.4043 c -3.34293,-2.70168 -4.93866,-3.76564 -3.81054,-7.78711 0.047,-0.14936 0.0908,-0.29937 0.13672,-0.44922 0.0489,-0.1566 0.092,-0.30728 0.14843,-0.47265 l -0.01,0.01 c 0.29416,-0.99009 0.56484,-1.98963 0.80859,-3 l 0.002,0.008 c 0.0128,-0.0647 0.028,-0.12052 0.041,-0.1836 0.0635,-0.26683 0.12365,-0.53455 0.18359,-0.80273 1.03647,-4.00193 2.9518,-4.12919 7.18164,-4.79493 l 2.30469,-0.28906 c 6.52182,-0.75867 6.72209,-2.64534 6.66211,-8.03906 0.06,-5.3937 -0.14028,-7.28038 -6.66211,-8.03906 l -2.30469,-0.28906 c -4.22984,-0.66574 -6.14517,-0.79299 -7.18164,-4.79493 -0.06,-0.26816 -0.12007,-0.53589 -0.18359,-0.80273 -0.0131,-0.0631 -0.0281,-0.11887 -0.041,-0.1836 l -0.002,0.008 c -0.24375,-1.01036 -0.51442,-2.0099 -0.80859,-3 l 0.0117,0.01 c -0.0565,-0.16536 -0.10151,-0.31604 -0.15039,-0.47265 -0.0458,-0.14986 -0.0897,-0.29985 -0.13672,-0.44922 -1.12811,-4.02147 0.46762,-5.08541 3.81054,-7.78711 l 1.85157,-1.4043 c 5.26873,-3.91794 4.49684,-5.6499 1.74804,-10.29101 -1.81838,-3.23199 -2.91322,-4.96776 -5.3789,-4.89063 -1.12074,0.0351 -2.52465,0.44605 -4.40821,1.25977 l -2.14062,0.90039 c -4.30247,1.6564 -5.9673,2.51834 -9.30469,-1.30274 l 0.0234,0.10157 c -0.74858,-0.78977 -1.51883,-1.55806 -2.3086,-2.30665 l 0.10157,0.0215 c -3.82106,-3.33739 -2.95912,-5.00215 -1.30274,-9.30469 l 0.90235,-2.14062 c 2.60387,-6.027396 1.07022,-7.142186 -3.63086,-9.787106 -2.32056,-1.3744 -3.91477,-2.25494 -5.41797,-2.13281 -1.5032,0.12213 -2.91603,1.24649 -4.875,3.88086 l -1.4043,1.85156 c -2.70169,3.34293 -3.76564,4.93865 -7.78711,3.81055 -0.14936,-0.047 -0.29937,-0.0909 -0.44922,-0.13672 -0.15661,-0.0489 -0.30729,-0.0919 -0.47265,-0.14844 l 0.01,0.01 c -0.9901,-0.29416 -1.98963,-0.56485 -3,-0.80859 l 0.008,-0.002 c -0.0647,-0.0127 -0.12052,-0.028 -0.1836,-0.041 -0.26683,-0.0635 -0.53456,-0.12365 -0.80273,-0.1836 -4.00194,-1.03647 -4.12918,-2.95181 -4.79493,-7.18164 l -0.28906,-2.30468 c -0.75866,-6.52186 -2.64534,-6.72213 -8.03905,-6.66215 z m -0.0117,30.994136 c 0.004,-1e-5 0.008,-1e-5 0.0117,0 5.06531,3e-4 9.96082,0.87493 14.53516,2.48047 a 12,12 0 0 0 5.46484,6.87891 12,12 0 0 0 8.66992,1.29101 c 7.20335,6.1907 12.42982,14.70372 14.43946,24.54883 0.50642,2.48002 -1.38873,4.80104 -3.91993,4.80078 h -12.3789 c -1.76926,1.5e-4 -3.32848,-1.16191 -3.83399,-2.85742 -3.03409,-10.17667 -12.3486,-17.12613 -22.96679,-17.14063 -1.86552,0.0101 -3.72427,0.23539 -5.53711,0.67578 -1.72527,0.41898 -3.52028,-0.34928 -4.40821,-1.88671 l -6.17968,-10.70118 c -1.26291,-2.1886 -0.20551,-4.98537 2.18945,-5.79101 4.48467,-1.50955 9.18217,-2.28583 13.91406,-2.29883 z m -26.30664,10.0957 c 1.3611,0.0638 2.59614,0.816 3.27734,1.9961 l 6.17969,10.70117 c 0.88545,1.53347 0.65743,3.4666 -0.56055,4.75195 -4.21283,4.44663 -6.56562,10.3318 -6.57812,16.45703 0.007,6.12872 2.3554,12.01941 6.56836,16.47071 1.21703,1.28501 1.44502,3.21699 0.56055,4.75 l -6.16211,10.67578 c -1.26486,2.19101 -4.22044,2.67243 -6.11524,0.99609 -7.35823,-6.50704 -12.25407,-15.23839 -14.0625,-24.74023 a 12,12 0 0 0 3.21094,-8.1543 12,12 0 0 0 -3.21289,-8.15039 c 1.80449,-9.50615 6.6973,-18.24246 14.05664,-24.75391 0.77978,-0.68994 1.79784,-1.0487 2.83789,-1 z m 53.13867,37.9043 h 12.32813 c 2.53119,-2.4e-4 4.42635,2.32077 3.91992,4.80078 -2.00843,9.83928 -7.23024,18.34896 -14.42774,24.53906 a 12,12 0 0 0 -2.92382,-0.30273 12,12 0 0 0 -5.7168,1.60351 12,12 0 0 0 -5.45312,6.86133 c -4.57562,1.61246 -9.47418,2.49256 -14.54297,2.49805 -0.006,2e-5 -0.0125,2e-5 -0.0195,0 -4.72985,-0.0188 -9.42516,-0.80071 -13.90626,-2.31445 -2.39212,-0.80764 -3.44709,-3.60206 -2.18554,-5.78907 l 6.16992,-10.6875 c 0.88793,-1.53742 2.68293,-2.30568 4.4082,-1.88671 1.81402,0.44068 3.67428,0.66578 5.54102,0.67578 10.62131,-0.0108 19.93962,-6.96097 22.97461,-17.14063 0.50551,-1.6955 2.06472,-2.85757 3.83398,-2.85742 z" color="#000" display="inline" enable-background="accumulate" opacity="1" overflow="visible" visibility="visible" style="marker:none"/><path id="path4451" fill="#000" fill-opacity="1" fill-rule="nonzero" stroke="none" stroke-dasharray="11.809 11.809" stroke-dashoffset="0" stroke-linecap="butt" stroke-linejoin="miter" stroke-miterlimit="4" stroke-opacity="1" stroke-width="3.936" d="m 152,103.99999 c -24.60905,0 -45.22457,17.12228 -50.61328,40.09375 a 12,12 0 0 1 7.40039,3.75586 c 1.80449,-9.50615 6.6973,-18.24246 14.05664,-24.75391 0.77978,-0.68994 1.79784,-1.0487 2.83789,-1 1.3611,0.0638 2.59614,0.816 3.27734,1.9961 l 6.17969,10.70117 c 0.88545,1.53347 0.65743,3.4666 -0.56055,4.75195 -4.21283,4.44663 -6.56562,10.3318 -6.57812,16.45703 0.007,6.12872 2.3554,12.01941 6.56836,16.47071 1.21703,1.28501 1.44502,3.21699 0.56055,4.75 l -6.16211,10.67578 c -1.26486,2.19101 -4.22044,2.67243 -6.11524,0.99609 -7.35823,-6.50704 -12.25407,-15.23839 -14.0625,-24.74023 a 12,12 0 0 1 -7.40039,3.75586 c 5.39022,22.96939 26.00376,40.08984 50.61133,40.08984 5.21561,0 10.24905,-0.77652 15,-2.20703 a 12,12 0 0 1 -0.45312,-8.29102 c -4.57562,1.61246 -9.47418,2.49256 -14.54297,2.49805 -0.006,2e-5 -0.0125,2e-5 -0.0195,0 -4.72985,-0.0188 -9.42516,-0.80071 -13.90626,-2.31445 -2.39212,-0.80764 -3.44709,-3.60206 -2.18554,-5.78907 l 6.16992,-10.6875 c 0.88793,-1.53742 2.68293,-2.30568 4.4082,-1.88671 1.81402,0.44068 3.67428,0.66578 5.54102,0.67578 10.62131,-0.0108 19.93962,-6.96097 22.97461,-17.14063 0.50551,-1.6955 2.06472,-2.85757 3.83398,-2.85742 h 12.32813 c 2.53119,-2.4e-4 4.42635,2.32077 3.91992,4.80078 -2.00843,9.83928 -7.23023,18.34896 -14.42774,24.53906 a 12,12 0 0 1 6.97266,4.52344 C 197.69392,184.37768 204,170.92584 204,155.99999 c 0,-14.92884 -6.30842,-28.38325 -16.39258,-37.86914 a 12,12 0 0 1 -6.9375,4.51953 c 7.20335,6.1907 12.42981,14.70372 14.43946,24.54883 0.50642,2.48002 -1.38873,4.80104 -3.91993,4.80078 h -12.3789 c -1.76926,1.5e-4 -3.32848,-1.16191 -3.83399,-2.85742 -3.03409,-10.17667 -12.3486,-17.12613 -22.96679,-17.14063 -1.86552,0.0101 -3.72427,0.23539 -5.53711,0.67578 -1.72527,0.41898 -3.52028,-0.34928 -4.40821,-1.88671 l -6.17968,-10.70118 c -1.26291,-2.1886 -0.20551,-4.98537 2.18945,-5.79101 4.48467,-1.50955 9.18217,-2.28583 13.91406,-2.29883 0.004,-1e-5 0.008,-1e-5 0.0117,0 5.06531,3e-4 9.96082,0.87493 14.53516,2.48047 a 12,12 0 0 1 0.45898,-8.27539 C 162.24492,104.7757 157.21346,103.99999 152,103.99999 Z m 0,36 a 16,16 0 0 1 16,16 16,16 0 0 1 -16,16 16,16 0 0 1 -16,-16 16,16 0 0 1 16,-16 z" color="#000" display="inline" enable-background="accumulate" opacity=".1" overflow="visible" visibility="visible" style="marker:none"/><path id="circle1245" fill="#b3b3b3" fill-opacity="1" stroke="none" stroke-dasharray="none" stroke-dashoffset="0" stroke-linecap="round" stroke-linejoin="round" stroke-miterlimit="4" stroke-opacity="1" stroke-width="3" d="m 177.7168,104.97265 a 6,6 0 0 0 -4.91211,2.99414 A 6,6 0 0 0 175,116.1621 6,6 0 0 0 183.19531,113.96679 6,6 0 0 0 181,105.76952 6,6 0 0 0 177.7168,104.97265 Z M 100,149.99999 a 6,6 0 0 0 -6,6 6,6 0 0 0 6,6 6,6 0 0 0 6,-6 6,6 0 0 0 -6,-6 z m 77.85938,45.03516 A 6,6 0 0 0 175,195.83788 a 6,6 0 0 0 -2.19531,8.19531 6,6 0 0 0 8.19531,2.19532 6,6 0 0 0 2.19531,-8.19532 6,6 0 0 0 -5.33593,-2.99804 z" display="inline" enable-background="new" opacity="1"/></g><g id="layer5"><path id="path11042-1" fill="#fff" fill-opacity="1" stroke="none" stroke-dasharray="none" stroke-linecap="round" stroke-linejoin="round" stroke-miterlimit="4" stroke-opacity="1" stroke-width="1" d="M 152,43.999994 A 112,112 0 0 0 40,155.99999 112,112 0 0 0 40.04102,157.16991 112,112 0 0 1 152,45.999994 112,112 0 0 1 263.95898,156.83007 a 112,112 0 0 0 0.041,-0.83008 112,112 0 0 0 -112,-111.999996 z" display="inline" enable-background="new" opacity=".3"/><path id="path11042-1-7" fill="#000" fill-opacity="1" stroke="none" stroke-dasharray="none" stroke-linecap="round" stroke-linejoin="round" stroke-miterlimit="4" stroke-opacity="1" stroke-width="1" d="m 152,267.99999 a 112,112 0 0 1 -112,-112 112,112 0 0 1 0.04102,-1.16992 A 112,112 0 0 0 152,265.99999 112,112 0 0 0 263.95898,155.16991 a 112,112 0 0 1 0.041,0.83008 112,112 0 0 1 -112,112 z" display="inline" enable-background="new" opacity=".2"/><path id="path9498-9-1" fill="#000" fill-opacity="1" stroke="none" stroke-dasharray="none" stroke-linecap="round" stroke-linejoin="round" stroke-miterlimit="4" stroke-opacity="1" stroke-width="1.954" d="M 344 61 A 23 23 0 0 0 321 84 A 23 23 0 0 0 344 107 A 23 23 0 0 0 367 84 A 23 23 0 0 0 344 61 z M 344 62 C 356.15027 62 366 71.849738 366 84 C 366 96.150256 356.15026 106 344 106 C 331.84974 106 322 96.150256 322 84 C 322 71.849738 331.84973 62 344 62 z" display="inline" enable-background="new" opacity=".4"/><path id="path9498-1-6" fill="url(#linearGradient8590)" fill-opacity="1" stroke="none" stroke-dasharray="none" stroke-linecap="round" stroke-linejoin="round" stroke-miterlimit="4" stroke-opacity="1" stroke-width="1.869" d="M 344,62.000016 A 22,21.99999 0 0 0 322,84.000013 22,21.99999 0 0 0 344,106 22,21.99999 0 0 0 366,84.000013 22,21.99999 0 0 0 344,62.000016 Z m 0,0.956532 A 21.043478,21.043469 0 0 1 365.04348,84.000013 21.043478,21.043469 0 0 1 344,105.04348 21.043478,21.043469 0 0 1 322.95652,84.000013 21.043478,21.043469 0 0 1 344,62.956548 Z" display="inline" enable-background="new" opacity=".7"/><path id="path9498-9-1-2" fill="#000" fill-opacity="1" stroke="none" stroke-dasharray="none" stroke-linecap="round" stroke-linejoin="round" stroke-miterlimit="4" stroke-opacity="1" stroke-width="1.954" d="m 336,133.00001 c -8.28427,0 -15,6.71572 -15,14.99999 0,8.28427 6.71573,15 15,15 8.28427,0 15,-6.71573 15,-15 0,-8.28427 -6.71573,-14.99999 -15,-14.99999 z M 336,134 c 7.92409,0 14,6.07592 14,14 0,7.92408 -6.07592,14 -14,14 -7.92408,0 -14,-6.07592 -14,-14 0,-7.92408 6.07591,-14 14,-14 z" display="inline" enable-background="new" opacity=".4"/><path id="path9498-1-6-7" fill="url(#linearGradient8590-3)" fill-opacity="1" stroke="none" stroke-dasharray="none" stroke-linecap="round" stroke-linejoin="round" stroke-miterlimit="4" stroke-opacity="1" stroke-width="1.869" d="m 336,134 c -7.73199,0 -14,6.26802 -14,14 0,7.73198 6.26801,14 14,14 7.73199,0 14,-6.26802 14,-14 0,-7.73198 -6.26801,-14 -14,-14 z m 0,1 c 7.39582,0 13,5.60419 13,13 -10e-6,7.39581 -5.60419,13 -13,13 -7.39581,0 -12.99999,-5.60419 -13,-13 0,-7.39581 5.60418,-13 13,-13 z" display="inline" enable-background="new" opacity=".7"/><path id="path9498-9-1-2-4" fill="#000" fill-opacity="1" stroke="none" stroke-dasharray="none" stroke-linecap="round" stroke-linejoin="round" stroke-miterlimit="4" stroke-opacity="1" stroke-width="1.954" d="M 332,189.00001 C 326,189 321,194 321,200 c 0,6.07513 4.92487,11 11,11 6.07514,0 11,-4.92487 11,-11 0,-6.07513 -4.92486,-10.99998 -11,-10.99999 z M 332,190 c 5.811,0 10,4.18901 10,10 0,5.811 -4.18901,10 -10,10 -5.81099,0 -10,-4.189 -10,-10 0,-5.81099 4.189,-10 10,-10 z" display="inline" enable-background="new" opacity=".4"/><path id="path9498-1-6-7-2" fill="url(#linearGradient8590-3-3)" fill-opacity="1" stroke="none" stroke-dasharray="none" stroke-linecap="round" stroke-linejoin="round" stroke-miterlimit="4" stroke-opacity="1" stroke-width="1.869" d="m 332,190.00001 c -5.52284,0 -10,4.47716 -10,10 0,5.52284 4.47716,9.99999 10,9.99999 5.52285,0 10,-4.47715 10,-9.99999 0,-5.52284 -4.47715,-10 -10,-10 z M 332,191 c 5.28274,0 9,3.71727 9,9 0,5.28272 -3.71727,9 -9,9 -5.28272,0 -8.99999,-3.71728 -9,-9 0,-5.28273 3.71728,-9 9,-9 z" display="inline" enable-background="new" opacity=".7"/><path id="path9498-9-1-2-4-9" fill="#000" fill-opacity="1" stroke="none" stroke-dasharray="none" stroke-linecap="round" stroke-linejoin="round" stroke-miterlimit="4" stroke-opacity="1" stroke-width="1.954" d="m 328,237 c -3.81818,0 -7,3.18181 -7,7 0,3.86599 3.13401,7 7,7 3.866,0 7,-3.13401 7,-7 0,-3.866 -3.134,-6.99999 -7,-7 z m 0,1 c 3.69791,0 6,2.30209 6,6 0,3.69791 -2.3021,6 -6,6 -3.6979,0 -6,-2.30209 -6,-6 0,-3.69791 2.30209,-6 6,-6 z" display="inline" enable-background="new" opacity=".4"/><path id="path9498-1-6-7-2-0" fill="url(#linearGradient8590-3-3-4)" fill-opacity="1" stroke="none" stroke-dasharray="none" stroke-linecap="round" stroke-linejoin="round" stroke-miterlimit="4" stroke-opacity="1" stroke-width="1.869" d="m 328,238.00002 c -3.31371,0 -6,2.68629 -6,5.99999 0,3.31371 2.68629,5.99999 6,5.99999 3.31371,0 6,-2.68628 6,-5.99999 0,-3.3137 -2.68629,-5.99999 -6,-5.99999 z m 0,0.59998 c 3.16964,0 5.39999,2.23037 5.39999,5.40001 0,3.16963 -2.23035,5.39999 -5.39999,5.39999 -3.16963,0 -5.4,-2.23036 -5.4,-5.39999 0,-3.16964 2.23037,-5.40001 5.4,-5.40001 z" display="inline" enable-background="new" opacity=".7"/></g></g></svg>