<svg xmlns="http://www.w3.org/2000/svg" xmlns:svg="http://www.w3.org/2000/svg" xmlns:xlink="http://www.w3.org/1999/xlink" id="svg11300" width="400" height="300" display="inline" enable-background="new" version="1.0"><title id="title3004">Suru Icon Theme Template</title><defs id="defs3"><clipPath id="clipPath9430" clipPathUnits="userSpaceOnUse"><path id="path9432" fill="#fff" fill-opacity="1" fill-rule="nonzero" stroke="none" stroke-width="1" d="m 166.0625,-196 h 179.875 C 491.2348,-196 512,-175.28677 512,-30.125 v 148.25 C 512,263.28618 491.2348,284 345.9375,284 H 166.0625 C 20.7652,284 0,263.28618 0,118.125 V -30.125 C 0,-175.28677 20.7652,-196 166.0625,-196 Z" color="#000" display="inline" enable-background="new" overflow="visible" visibility="visible" style="marker:none"/></clipPath><clipPath id="clipPath1082" clipPathUnits="userSpaceOnUse"><path id="path1084" fill="#8c59d9" fill-opacity="1" stroke="none" stroke-dasharray="none" stroke-dashoffset="0" stroke-linecap="round" stroke-linejoin="round" stroke-miterlimit="4" stroke-opacity="1" stroke-width="2" d="M 361.9375,-212 C 507.2348,-212 528,-191.28677 528,-46.125 V 70.125 C 528,215.28618 507.2348,236 361.9375,236 H 214.0625 C 68.7652,236 48,215.28618 48,70.125 V -46.125 C 48,-191.28677 68.7652,-212 214.0625,-212 Z" display="inline" enable-background="new" opacity="1"/></clipPath><linearGradient id="linearGradient927"><stop id="stop923" offset="0" stop-color="#fff" stop-opacity="1"/><stop id="stop933" offset=".125" stop-color="#fff" stop-opacity=".098"/><stop id="stop931" offset=".925" stop-color="#fff" stop-opacity=".098"/><stop id="stop925" offset="1" stop-color="#fff" stop-opacity=".498"/></linearGradient><clipPath id="clipPath994" clipPathUnits="userSpaceOnUse"><path id="path996" fill="#cdcdcd" fill-opacity="1" fill-rule="nonzero" stroke="none" stroke-dasharray="none" stroke-miterlimit="4" stroke-opacity="1" stroke-width="2" d="m 335.73108,62 c -8.82418,0 -9.77365,0.90635 -9.7304,9.74838 V 84 96.25162 c -0.0433,8.84203 0.90622,9.74838 9.7304,9.74838 h 16.53919 c 8.82418,0 9.7304,-0.90625 9.7304,-9.74838 V 84 71.74838 C 362.00067,62.90625 361.09445,62 352.27027,62 Z" color="#000" display="inline" enable-background="accumulate" overflow="visible" visibility="visible" style="marker:none"/></clipPath><clipPath id="clipPath959" clipPathUnits="userSpaceOnUse"><path id="path961" fill="#46a926" fill-opacity="1" fill-rule="nonzero" stroke="none" stroke-dasharray="none" stroke-miterlimit="4" stroke-opacity="1" stroke-width="2" d="m 330.1929,133.99999 c -5.61538,0 -6.21958,0.57678 -6.19206,6.20352 v 7.79648 7.79648 c -0.0276,5.62673 0.57668,6.20351 6.19206,6.20351 h 11.615 c 5.6154,0 6.19208,-0.5767 6.19208,-6.20351 v -7.79648 -7.79648 c 0,-5.6268 -0.5767,-6.20352 -6.19208,-6.20352 z" color="#000" display="inline" enable-background="accumulate" opacity="1" overflow="visible" visibility="visible" style="marker:none"/></clipPath><clipPath id="clipPath971" clipPathUnits="userSpaceOnUse"><path id="path973" fill="#46a926" fill-opacity="1" fill-rule="nonzero" stroke="none" stroke-dasharray="none" stroke-miterlimit="4" stroke-opacity="1" stroke-width="2" d="m 327.8652,189 c -4.41209,0 -4.88682,0.45318 -4.8652,4.87419 V 200 206.12581 C 322.9783,210.54682 323.45311,211 327.8652,211 h 8.2696 C 340.54689,211 341,210.54688 341,206.12581 V 200 193.87419 C 341,189.45313 340.54688,189 336.13479,189 Z" color="#000" display="inline" enable-background="accumulate" opacity="1" overflow="visible" visibility="visible" style="marker:none"/></clipPath><clipPath id="clipPath983" clipPathUnits="userSpaceOnUse"><path id="path985" fill="#46a926" fill-opacity="1" fill-rule="nonzero" stroke="none" stroke-dasharray="none" stroke-miterlimit="4" stroke-opacity="1" stroke-width="2" d="m 325.09646,237 c -2.80769,0 -3.10979,0.28839 -3.09603,3.10176 V 244 v 3.89824 c -0.0138,2.81337 0.28834,3.10176 3.09603,3.10176 h 5.8075 C 333.71166,251 334,250.71165 334,247.89824 V 244 240.10176 C 334,237.28836 333.71165,237 330.90396,237 Z" color="#000" display="inline" enable-background="accumulate" opacity="1" overflow="visible" visibility="visible" style="marker:none"/></clipPath><linearGradient id="linearGradient4336-3"><stop id="stop4338-8" offset="0" stop-color="#5884f4" stop-opacity="1"/><stop id="stop4344-3" offset=".278" stop-color="#5884f4" stop-opacity="1"/><stop id="stop4346-3" offset=".278" stop-color="#2f5fdd" stop-opacity="1"/><stop id="stop4350-1" offset=".707" stop-color="#2f5fdd" stop-opacity="1"/><stop id="stop4348-6" offset=".709" stop-color="#234db8" stop-opacity="1"/><stop id="stop4340-0" offset="1" stop-color="#234db8" stop-opacity="1"/></linearGradient><clipPath id="clipPath994-1" clipPathUnits="userSpaceOnUse"><path id="path996-8" fill="#cdcdcd" fill-opacity="1" fill-rule="nonzero" stroke="none" stroke-dasharray="none" stroke-miterlimit="4" stroke-opacity="1" stroke-width="2" d="m 335.73108,62 c -8.82418,0 -9.77365,0.90635 -9.7304,9.74838 V 84 96.25162 c -0.0433,8.84203 0.90622,9.74838 9.7304,9.74838 h 16.53919 c 8.82418,0 9.7304,-0.90625 9.7304,-9.74838 V 84 71.74838 C 362.00067,62.90625 361.09445,62 352.27027,62 Z" color="#000" display="inline" enable-background="accumulate" overflow="visible" visibility="visible" style="marker:none"/></clipPath><linearGradient id="linearGradient11065" x1="104" x2="200" y1="44" y2="268" gradientTransform="translate(0,-5.6126213e-6)" gradientUnits="userSpaceOnUse" xlink:href="#linearGradient4195-3"/><filter id="filter11191" width="1.024" height="1.024" x="-.012" y="-.012" color-interpolation-filters="sRGB"><feGaussianBlur id="feGaussianBlur11193" stdDeviation="1.12"/></filter><filter id="filter11210" width="1.096" height="1.096" x="-.048" y="-.048" color-interpolation-filters="sRGB"><feGaussianBlur id="feGaussianBlur11212" stdDeviation="4.48"/></filter><linearGradient id="linearGradient8590" x1="96" x2="96" y1="4" y2="188" gradientTransform="matrix(0.23913043,0,0,0.23913032,321.04348,61.043494)" gradientUnits="userSpaceOnUse" xlink:href="#linearGradient927"/><linearGradient id="linearGradient8588" x1="13.735" x2="38.1" y1="249.694" y2="292.767" gradientTransform="matrix(0.94488193,0,0,0.94488229,320.50001,-173.12993)" gradientUnits="userSpaceOnUse" xlink:href="#linearGradient4195-3"/><linearGradient id="linearGradient8590-3" x1="96" x2="96" y1="4" y2="188" gradientTransform="matrix(0.15217394,0,0,0.15217387,321.3913,133.39129)" gradientUnits="userSpaceOnUse" xlink:href="#linearGradient927"/><linearGradient id="linearGradient8588-0" x1="13.735" x2="38.1" y1="249.694" y2="292.767" gradientTransform="matrix(0.60892393,0,0,0.60892417,320.85556,-17.70596)" gradientUnits="userSpaceOnUse" xlink:href="#linearGradient4195-3"/><linearGradient id="linearGradient8590-3-3" x1="96" x2="96" y1="4" y2="188" gradientTransform="matrix(0.10869563,0,0,0.10869559,321.56522,189.56521)" gradientUnits="userSpaceOnUse" xlink:href="#linearGradient927"/><linearGradient id="linearGradient8588-0-1" x1="13.735" x2="38.1" y1="249.694" y2="292.767" gradientTransform="matrix(0.44094488,0,0,0.44094506,321.03334,80.006038)" gradientUnits="userSpaceOnUse" xlink:href="#linearGradient4195-3"/><linearGradient id="linearGradient8590-3-3-4" x1="96" x2="96" y1="4" y2="188" gradientTransform="matrix(0.06521734,0,0,0.06521732,321.73913,237.73914)" gradientUnits="userSpaceOnUse" xlink:href="#linearGradient927"/><linearGradient id="linearGradient8588-0-1-5" x1="13.735" x2="38.1" y1="249.694" y2="292.767" gradientTransform="matrix(0.27296588,0,0,0.27296599,321.21111,169.71803)" gradientUnits="userSpaceOnUse" xlink:href="#linearGradient4195-3"/><clipPath id="clipPath1348" clipPathUnits="userSpaceOnUse"><path id="path1350" fill="#da1636" fill-opacity="1" stroke="none" stroke-dasharray="none" stroke-dashoffset="0" stroke-linecap="round" stroke-linejoin="round" stroke-miterlimit="4" stroke-opacity="1" stroke-width="2" d="m 339.76513,135.56122 c 8.62214,1e-5 9.85437,1.23067 9.85437,9.85549 v 6.90662 c 0,8.62479 -1.23223,9.85549 -9.85437,9.85549 h -9.40807 c -8.62214,0 -9.85437,-1.2307 -9.85437,-9.85549 v -6.90663 c 0,-8.62482 1.23223,-9.85551 9.85437,-9.8555 z" display="inline" enable-background="new" opacity=".1"/></clipPath><clipPath id="clipPath1278" clipPathUnits="userSpaceOnUse"><path id="path1280" fill="#da1636" fill-opacity="1" stroke="none" stroke-dasharray="none" stroke-dashoffset="0" stroke-linecap="round" stroke-linejoin="round" stroke-miterlimit="4" stroke-opacity="1" stroke-width="2" d="m 339.98751,134.06477 c 8.56743,0 9.79185,1.21924 9.79185,9.76386 v 7.47067 c 0,8.54459 -1.22442,9.76386 -9.79185,9.76386 h -9.97735 c -8.56744,0 -9.79186,-1.21927 -9.79186,-9.76386 v -7.47067 c 0,-8.54462 1.22442,-9.76386 9.79186,-9.76386 z" display="inline" enable-background="new" opacity=".1"/></clipPath><clipPath id="clipPath1361" clipPathUnits="userSpaceOnUse"><path id="path1363" fill="#da1636" fill-opacity="1" stroke="none" stroke-dasharray="none" stroke-dashoffset="0" stroke-linecap="round" stroke-linejoin="round" stroke-miterlimit="4" stroke-opacity="1" stroke-width="2" d="m 341.12109,133.5 c 9.08109,0 10.37891,1.29458 10.37891,10.36719 v 8.26562 c 0,9.07258 -1.29782,10.36719 -10.37891,10.36719 H 330.87891 C 321.79783,162.5 320.5,161.20539 320.5,152.13281 v -8.26562 c 0,-9.07261 1.29783,-10.36719 10.37891,-10.36719 z" display="inline" enable-background="new" opacity=".1"/></clipPath><clipPath id="clipPath1221" clipPathUnits="userSpaceOnUse"><path id="path1223" fill="#da1636" fill-opacity="1" stroke="none" stroke-dasharray="none" stroke-dashoffset="0" stroke-linecap="round" stroke-linejoin="round" stroke-miterlimit="4" stroke-opacity="1" stroke-width="2" d="M 188.96875,44 C 261.6174,44 272,54.356615 272,126.9375 v 58.125 C 272,257.64309 261.6174,268 188.96875,268 h -73.9375 C 42.3826,268 32,257.64309 32,185.0625 v -58.125 C 32,54.356615 42.3826,44 115.03125,44 Z" display="inline" enable-background="new" opacity=".1"/></clipPath><clipPath id="clipPath1322" clipPathUnits="userSpaceOnUse"><path id="path1324" fill="#da1636" fill-opacity="1" stroke="none" stroke-dasharray="none" stroke-dashoffset="0" stroke-linecap="round" stroke-linejoin="round" stroke-miterlimit="4" stroke-opacity="1" stroke-width="2" d="m 339.2585,134.52626 c 8.67761,0 9.91777,1.24234 9.91777,9.94882 v 6.97244 c 0,8.70646 -1.24016,9.94882 -9.91777,9.94882 h -8.83154 c -8.67758,0 -9.91775,-1.24236 -9.91775,-9.94882 v -6.97244 c 0,-8.70648 1.24017,-9.94882 9.91777,-9.94882 z" display="inline" enable-background="new" opacity=".1"/></clipPath><clipPath id="clipPath1237" clipPathUnits="userSpaceOnUse"><path id="path1239" fill="url(#linearGradient1241)" fill-opacity="1" stroke="none" stroke-dasharray="none" stroke-dashoffset="0" stroke-linecap="round" stroke-linejoin="round" stroke-miterlimit="4" stroke-opacity="1" stroke-width="2" d="M 351.93164,62.5 C 365.55326,62.5 367.5,64.44187 367.5,78.05078 V 89.94922 C 367.5,103.55808 365.55326,105.5 351.93164,105.5 H 336.06836 C 322.44674,105.5 320.5,103.55808 320.5,89.94922 V 78.05078 C 320.5,64.44187 322.44674,62.5 336.06836,62.5 Z" opacity="1"/></clipPath><clipPath id="clipPath1205" clipPathUnits="userSpaceOnUse"><path id="path1207" fill="#325fd1" fill-opacity="1" stroke="none" stroke-dasharray="none" stroke-dashoffset="0" stroke-linecap="round" stroke-linejoin="round" stroke-miterlimit="4" stroke-opacity="1" stroke-width="2" d="m 341.12109,133.5 c 9.08109,0 10.37891,1.29458 10.37891,10.36719 v 8.26562 c 0,9.07258 -1.29782,10.36719 -10.37891,10.36719 H 330.87891 C 321.79783,162.5 320.5,161.20539 320.5,152.13281 v -8.26562 c 0,-9.07261 1.29783,-10.36719 10.37891,-10.36719 z" opacity="1"/></clipPath><clipPath id="clipPath1231" clipPathUnits="userSpaceOnUse"><path id="path1233" fill="#325fd1" fill-opacity="1" stroke="none" stroke-dasharray="none" stroke-dashoffset="0" stroke-linecap="round" stroke-linejoin="round" stroke-miterlimit="4" stroke-opacity="1" stroke-width="2" d="m 335.71582,189.50031 c 6.81081,10e-6 7.78418,0.97093 7.78418,7.77539 v 5.44891 c 0,6.80444 -0.97337,7.77539 -7.78418,7.77539 h -7.43164 c -6.81081,0 -7.78418,-0.97095 -7.78418,-7.77539 v -5.44892 c 0,-6.80446 0.97337,-7.7754 7.78418,-7.77539 z" opacity="1"/></clipPath><clipPath id="clipPath1225" clipPathUnits="userSpaceOnUse"><path id="path1227" fill="#325fd1" fill-opacity="1" stroke="none" stroke-dasharray="none" stroke-dashoffset="0" stroke-linecap="round" stroke-linejoin="round" stroke-miterlimit="4" stroke-opacity="1" stroke-width="2" d="m 330.31054,236.5 c 4.54055,0 5.18946,0.64729 5.18946,5.18359 v 3.63282 c 0,4.53629 -0.64891,5.18359 -5.18946,5.18359 h -4.62109 c -4.54053,0 -5.18945,-0.6473 -5.18945,-5.18359 v -3.63282 c 0,-4.5363 0.64892,-5.18359 5.18946,-5.18359 z" opacity="1"/></clipPath><linearGradient id="linearGradient4195-3"><stop id="stop4197-6" offset="0" stop-color="#325fd1" stop-opacity="1"/><stop id="stop4199-7" offset="1" stop-color="#6e98ff" stop-opacity="1"/></linearGradient><filter id="filter1066" width="1.014" height="1.08" x="-.007" y="-.04" color-interpolation-filters="sRGB"><feGaussianBlur id="feGaussianBlur1068" stdDeviation=".4"/></filter><filter id="filter1062-3" width="1.024" height="1.024" x="-.012" y="-.012" color-interpolation-filters="sRGB"><feGaussianBlur id="feGaussianBlur1064-6" stdDeviation=".673"/></filter></defs><metadata id="metadata4"/><g id="layer1" display="inline"><g id="layer7" display="none"><text enable-background="new" style="line-height:0%;-inkscape-font-specification:'DejaVu Sans'" id="context" x="19.007" y="-8.255" fill="#000" fill-opacity="1" stroke="none" display="inline" font-family="DejaVu Sans" font-stretch="normal" font-style="normal" font-variant="normal" font-weight="normal" xml:space="preserve"><tspan id="tspan3933" x="19.007" y="-8.255" font-family="DejaVu Sans" font-size="18" font-stretch="normal" font-style="normal" font-variant="normal" font-weight="normal" style="line-height:1.25;-inkscape-font-specification:'DejaVu Sans'">apps</tspan></text><text id="icon-name" x="146.488" y="-8.255" fill="#000" fill-opacity="1" stroke="none" display="inline" enable-background="new" font-family="DejaVu Sans" font-stretch="normal" font-style="normal" font-variant="normal" font-weight="bold" text-anchor="start" writing-mode="lr-tb" xml:space="preserve" style="line-height:0%;-inkscape-font-specification:'DejaVu Sans Bold';text-align:start"><tspan id="tspan3937" x="146.488" y="-8.255" font-family="DejaVu Sans" font-size="18" font-stretch="normal" font-style="normal" font-variant="normal" font-weight="bold" style="line-height:1.25;-inkscape-font-specification:'DejaVu Sans Bold'">software-properties</tspan></text><rect id="rect16x16" width="16" height="16" x="320" y="236" fill="#cdcdcd" fill-opacity="1" fill-rule="nonzero" stroke="none" stroke-width="2" display="inline" enable-background="accumulate" overflow="visible" visibility="visible" style="marker:none"/><rect id="rect24x24" width="24" height="24" x="320" y="188" fill="#cdcdcd" fill-opacity="1" fill-rule="nonzero" stroke="none" stroke-width="2" display="inline" enable-background="accumulate" overflow="visible" visibility="visible" style="marker:none"/><rect id="rect32x32" width="32" height="32" x="320" y="132" fill="#cdcdcd" fill-opacity="1" fill-rule="nonzero" stroke="none" stroke-width="2" display="inline" enable-background="accumulate" overflow="visible" visibility="visible" style="marker:none"/><rect id="rect48x48" width="48" height="48" x="320" y="60" fill="#cdcdcd" fill-opacity="1" fill-rule="nonzero" stroke="none" stroke-width="2" display="inline" enable-background="accumulate" overflow="visible" visibility="visible" style="marker:none"/><rect id="rect3951" width="256" height="256" x="24" y="28" fill="#cdcdcd" fill-opacity="1" fill-rule="nonzero" stroke="none" stroke-width="2" display="inline" enable-background="accumulate" overflow="visible" visibility="visible" style="marker:none"/></g><g id="layer8" display="inline"><circle id="path11042-0" cx="152" cy="160" r="112" fill="#000" fill-opacity="1" stroke="none" stroke-dasharray="none" stroke-linecap="round" stroke-linejoin="round" stroke-miterlimit="4" stroke-opacity="1" stroke-width="1" display="inline" enable-background="new" filter="url(#filter11210)" opacity=".1"/><circle id="path11042-6" cx="152" cy="158" r="112" fill="#000" fill-opacity="1" stroke="none" stroke-dasharray="none" stroke-linecap="round" stroke-linejoin="round" stroke-miterlimit="4" stroke-opacity="1" stroke-width="1" display="inline" enable-background="new" filter="url(#filter11191)" opacity=".1"/><circle id="path11042-7" cx="152" cy="156" r="114" fill="#000" fill-opacity="1" stroke="none" stroke-dasharray="none" stroke-linecap="round" stroke-linejoin="round" stroke-miterlimit="4" stroke-opacity="1" stroke-width="1" display="inline" enable-background="new" opacity=".1"/><circle id="path11042" cx="152" cy="156" r="112" fill="url(#linearGradient11065)" fill-opacity="1" stroke="none" stroke-dasharray="none" stroke-linecap="round" stroke-linejoin="round" stroke-miterlimit="4" stroke-opacity="1" stroke-width="1" display="inline" enable-background="new" opacity="1"/><path id="path11042-5" cx="152" cy="156" r="112" fill="#fff" fill-opacity="1" stroke="none" stroke-dasharray="none" stroke-linecap="round" stroke-linejoin="round" stroke-miterlimit="4" stroke-opacity="1" stroke-width="1" display="inline" enable-background="new" opacity="1"/><circle id="path9498-0-0" cx="-344" cy="-85" r="23" fill="#000" fill-opacity="1" stroke="none" stroke-dasharray="none" stroke-linecap="round" stroke-linejoin="round" stroke-miterlimit="4" stroke-opacity="1" stroke-width="1.954" display="inline" enable-background="new" opacity=".1" transform="scale(-1)"/><circle id="path9498-6" cx="344" cy="84" r="22.5" fill="url(#linearGradient8588)" fill-opacity="1" stroke="none" stroke-dasharray="none" stroke-linecap="round" stroke-linejoin="round" stroke-miterlimit="4" stroke-opacity="1" stroke-width="1.869" display="inline" enable-background="new" opacity="1"/><circle id="path9498-0-0-2" cx="-336" cy="-149" r="15" fill="#000" fill-opacity="1" stroke="none" stroke-dasharray="none" stroke-linecap="round" stroke-linejoin="round" stroke-miterlimit="4" stroke-opacity="1" stroke-width="1.954" display="inline" enable-background="new" opacity=".1" transform="scale(-1)"/><circle id="path9498-6-5" cx="336" cy="148" r="14.5" fill="url(#linearGradient8588-0)" fill-opacity="1" stroke="none" stroke-dasharray="none" stroke-linecap="round" stroke-linejoin="round" stroke-miterlimit="4" stroke-opacity="1" stroke-width="1.869" display="inline" enable-background="new" opacity="1"/><circle id="path9498-0-0-2-3" cx="-332" cy="-201" r="11" fill="#000" fill-opacity="1" stroke="none" stroke-dasharray="none" stroke-linecap="round" stroke-linejoin="round" stroke-miterlimit="4" stroke-opacity="1" stroke-width="1.954" display="inline" enable-background="new" opacity=".1" transform="scale(-1)"/><circle id="path9498-6-5-6" cx="332" cy="200" r="10.5" fill="url(#linearGradient8588-0-1)" fill-opacity="1" stroke="none" stroke-dasharray="none" stroke-linecap="round" stroke-linejoin="round" stroke-miterlimit="4" stroke-opacity="1" stroke-width="1.869" display="inline" enable-background="new" opacity="1"/><circle id="path9498-0-0-2-3-3" cx="-328" cy="-245" r="7" fill="#000" fill-opacity="1" stroke="none" stroke-dasharray="none" stroke-linecap="round" stroke-linejoin="round" stroke-miterlimit="4" stroke-opacity="1" stroke-width="1.954" display="inline" enable-background="new" opacity=".1" transform="scale(-1)"/><circle id="path9498-6-5-6-8" cx="328" cy="244" r="6.5" fill="url(#linearGradient8588-0-1-5)" fill-opacity="1" stroke="none" stroke-dasharray="none" stroke-linecap="round" stroke-linejoin="round" stroke-miterlimit="4" stroke-opacity="1" stroke-width="1.869" display="inline" enable-background="new" opacity="1"/></g><g id="layer6" display="inline"><path id="path1221" fill="#fff" fill-opacity="1" fill-rule="nonzero" stroke="none" stroke-dasharray="none" stroke-dashoffset="0" stroke-linecap="butt" stroke-linejoin="miter" stroke-miterlimit="4" stroke-opacity="1" stroke-width="3.6" d="m 326.70508,237.65039 -0.78906,0.90039 0.67578,0.67383 v 0.70508 l 0.78711,0.87109 h 0.45117 v -0.45117 l 0.67383,-0.67383 v -0.45117 l 0.45117,-0.44922 v -0.67578 l -0.45117,-0.44922 z m -1.57617,0.52149 a 6.5,6.5 0 0 0 -0.98438,0.60351 h 0.98438 z m -1.46289,1.05273 v 0.67578 h -0.5625 l -0.0801,-0.0801 a 6.5,6.5 0 0 0 -1.50782,3.89063 l 0.68946,0.68945 h 0.67383 l 1.125,1.125 v -1.34961 l 0.6758,-0.67576 h 0.44922 l 0.67578,-0.67578 h 0.67383 l -0.33594,-0.33594 0.67383,-0.78906 -0.67383,-0.67383 h -1.01367 v 0.90039 h -0.44922 l -0.45117,-0.45117 v -0.44922 l 0.67578,-0.67578 h 0.5625 v -0.44922 l -0.67578,-0.67578 z m 7.76367,0.45117 -0.67578,0.67383 v 0.5625 h 0.67578 v -0.33789 h 0.44922 v 0.45117 l -0.22461,0.22461 -0.90039,0.0156 -0.33789,0.32227 h -0.44922 v 0.44922 l -0.33789,0.33789 v 0.67578 h 0.67578 l 0.44922,-0.45117 h 0.45117 v 0.22461 l 0.44922,0.45117 h 0.22461 v -0.22461 l -0.44922,-0.45117 h 0.44922 l 0.45117,0.45117 h 0.5625 l -0.33789,-0.33789 0.33789,-0.33789 h 0.33594 l 0.33789,0.33789 h -0.33789 l -0.33594,0.33789 0.33008,0.33008 0.008,0.34375 h -0.45117 l 1.34961,1.34961 h 0.22656 l 0.0566,-0.0566 A 6.5,6.5 0 0 0 334.5,244 a 6.5,6.5 0 0 0 -1.33594,-3.93945 l -0.38476,-0.38477 z m 1.34961,4.04883 h -1.34961 L 331.20508,243.5 h -1.35156 l -0.78711,0.78711 v 1.125 l 0.5625,0.5625 h 0.78711 l 0.33789,0.33789 v 0.33789 l 0.22461,0.22461 v 1.34961 l 0.85546,0.9043 1.41016,-1.41211 -0.0156,-1.29102 1.125,-1.125 h -0.44922 l -1.125,-1.125 z m -4.38672,-3.15039 v 0.33789 h 0.67383 l -0.33789,-0.33789 z m 2.02344,0.11328 -0.33594,0.33789 v 0.33789 h 0.33594 z m -3.48633,1.23828 -0.33789,0.33594 h 0.33789 l 0.11133,0.11328 h 0.11328 l 0.11328,-0.11328 z m -1.91211,2.36133 -0.33789,0.33789 h 0.67383 v -0.33789 z m -0.33789,1.01367 -0.45117,0.44922 v 1.125 l 0.90429,0.79102 -0.004,1.00976 -0.33789,0.33594 v 0.63672 a 6.5,6.5 0 0 0 0.64257,0.32031 l 1.15821,-1.06836 v -0.45117 l 0.67578,-0.67383 v -0.33789 l 0.33594,-0.33789 v -0.90039 L 327.1543,245.75 h -0.90039 l -0.44922,-0.44922 z m 8.95508,1.92969 -0.0684,0.0644 v 0.0469 a 6.5,6.5 0 0 0 0.0684,-0.11133 z" clip-path="url(#clipPath1225)" color="#000" display="inline" enable-background="accumulate" opacity=".24" overflow="visible" transform="translate(0,0.50025)" visibility="visible" style="marker:none"/><path id="path1219" fill="#fff" fill-opacity="1" fill-rule="nonzero" stroke="none" stroke-dasharray="none" stroke-dashoffset="0" stroke-linecap="butt" stroke-linejoin="miter" stroke-miterlimit="4" stroke-opacity="1" stroke-width="6" d="m 329.54688,189.98438 -1.3125,1.5 1.125,1.125 v 1.17578 l 1.3125,1.44922 h 0.75 v -0.75 l 1.125,-1.125 v -0.75 l 0.75,-0.75 v -1.125 l -0.75,-0.75 z m -2.625,0.83789 a 10.5,10.5 0 0 0 -1.54493,1.03711 h 1.54493 z m -2.36915,1.78711 a 10.5,10.5 0 0 0 -0.0684,0.0742 v 1.05079 h -0.89454 A 10.5,10.5 0 0 0 321.5,200 a 10.5,10.5 0 0 0 0.0234,0.71094 l 0.52344,0.52344 h 1.125 l 1.875,1.875 v -2.25 l 1.125,-1.125 h 0.75 l 1.125,-1.125 h 1.125 l -0.5625,-0.5625 1.125,-1.3125 -1.125,-1.125 h -1.6875 v 1.5 h -0.75 l -0.75,-0.75 v -0.75 l 1.125,-1.125 h 0.9375 v -0.75 l -1.125,-1.125 z m 12.86915,0.75 -1.125,1.125 v 0.9375 h 1.125 v -0.5625 h 0.75 v 0.75 l -0.375,0.375 -1.5,0.0254 -0.5625,0.53711 h -0.75 v 0.75 l -0.5625,0.5625 v 1.125 h 1.125 l 0.75,-0.75 h 0.75 v 0.375 l 0.75,0.75 h 0.375 v -0.375 l -0.75,-0.75 h 0.75 l 0.75,0.75 h 0.9375 l -0.5625,-0.5625 0.5625,-0.5625 h 0.5625 l 0.5625,0.5625 h -0.5625 l -0.5625,0.5625 0.55273,0.55273 0.01,0.57227 h -0.75 l 2.25,2.25 h 0.29882 A 10.5,10.5 0 0 0 342.5,200 a 10.5,10.5 0 0 0 -1.92773,-6.04102 l -0.15039,0.1504 -0.75,-0.75 z m 2.25,6.75 h -2.25 l -0.375,-0.375 h -2.25 l -1.3125,1.3125 v 1.875 l 0.9375,0.9375 h 1.3125 l 0.5625,0.5625 v 0.5625 l 0.375,0.375 v 2.25 l 1.0957,1.1582 a 10.5,10.5 0 0 0 2.67383,-2.54297 l -0.0195,-1.61523 1.64453,-1.64454 a 10.5,10.5 0 0 0 0.0586,-0.23046 h -0.57812 l -1.875,-1.875 z m -7.3125,-5.25 v 0.5625 h 1.125 l -0.5625,-0.5625 z m 3.375,0.1875 -0.5625,0.5625 v 0.5625 h 0.5625 z m -5.8125,2.0625 -0.5625,0.5625 h 0.5625 l 0.1875,0.1875 h 0.1875 l 0.1875,-0.1875 z m -3.1875,3.9375 -0.5625,0.5625 h 1.125 v -0.5625 z m -0.5625,1.6875 -0.75,0.75 v 1.875 l 1.50585,1.31835 -0.006,1.68165 -0.51368,0.51367 a 10.5,10.5 0 0 0 1.8125,0.91211 l 1.13868,-1.05078 v -0.75 l 1.125,-1.125 v -0.5625 l 0.5625,-0.5625 v -1.5 l -0.75,-0.75 h -1.5 l -0.75,-0.75 z" clip-path="url(#clipPath1231)" color="#000" display="inline" enable-background="accumulate" opacity=".24" overflow="visible" visibility="visible" style="marker:none"/><path id="path1201" fill="#fff" fill-opacity="1" fill-rule="nonzero" stroke="none" stroke-dasharray="none" stroke-dashoffset="0" stroke-linecap="butt" stroke-linejoin="miter" stroke-miterlimit="4" stroke-opacity="1" stroke-width="7.5" d="m 328.90625,135.375 a 14.5,14.5 0 0 0 -2.50977,1.78711 l 0.55664,0.55664 h 2.34376 V 135.375 Z m 3.67187,0 -1.64062,1.875 1.40625,1.40625 v 1.4707 l 1.64063,1.81055 h 0.9375 V 141 l 1.40624,-1.40625 v -0.9375 l 0.9375,-0.9375 v -1.40625 l -0.9375,-0.9375 z m -6.32812,3.28125 v 1.40625 h -1.17188 l -0.70117,-0.70117 a 14.5,14.5 0 0 0 -2.86523,8.38476 l 1.6914,1.69141 h 1.40626 l 2.34374,2.34375 v -2.8125 l 1.40626,-1.40625 h 0.9375 l 1.40624,-1.40625 h 1.40626 l -0.70313,-0.70313 1.40625,-1.64062 -1.40625,-1.40625 h -2.10937 v 1.875 h -0.9375 l -0.9375,-0.9375 v -0.9375 L 328.82812,141 H 330 v -0.9375 l -1.40625,-1.40625 z m 21.25781,0.53906 -1.33593,1.33594 -0.9375,-0.9375 h -2.8125 L 341.01562,141 v 1.17188 h 1.40626 v -0.70313 h 0.9375 v 0.9375 l -0.46876,0.46875 -1.875,0.0312 -0.70312,0.67187 h -0.9375 v 0.9375 l -0.70312,0.70313 v 1.40625 h 1.40624 l 0.9375,-0.9375 h 0.9375 v 0.46875 l 0.9375,0.9375 h 0.46876 v -0.4687 l -0.9375,-0.9375 h 0.9375 l 0.9375,0.9375 h 1.17187 l -0.70313,-0.70312 0.70313,-0.70313 h 0.70313 l 0.70312,0.70313 h -0.70312 l -0.70313,0.70312 0.69141,0.69141 0.0117,0.71484 h -0.9375 l 2.8125,2.8125 h 0.46874 l 0.46876,-0.46875 0.9375,-0.9375 -0.9375,-0.9375 h 1.49023 a 14.5,14.5 0 0 0 0.0254,-0.5 14.5,14.5 0 0 0 -2.99219,-8.80469 z m -2.27343,8.83594 h -2.8125 l -0.46876,-0.46875 h -2.8125 L 337.5,149.20312 v 2.34376 l 1.17188,1.17187 h 1.64062 l 0.70312,0.70313 v 0.70312 l 0.46876,0.46875 v 2.8125 l 1.77929,1.88086 2.93945,-2.93945 -0.0312,-2.69141 2.34374,-2.34375 h -0.9375 l -2.34374,-2.34375 z m -9.14063,-6.5625 v 0.70313 H 337.5 l -0.70312,-0.70313 z m 4.21875,0.23437 -0.70312,0.70313 v 0.70313 h 0.70312 z m -7.26562,2.57813 -0.70313,0.70313 h 0.70313 l 0.23437,0.23437 h 0.23437 l 0.23438,-0.23437 z m -3.98438,4.92187 -0.70312,0.70313 h 1.40624 v -0.70313 z m -0.70312,2.10938 -0.9375,0.9375 v 2.34375 l 1.88085,1.64844 -0.006,2.10156 -0.70313,0.70313 v 1.39843 a 14.5,14.5 0 0 0 1.25781,0.66797 l 2.49219,-2.30078 v -0.9375 l 1.40625,-1.40625 v -0.70313 l 0.70312,-0.70312 v -1.875 l -0.9375,-0.9375 h -1.875 l -0.9375,-0.9375 z m 19.45312,3.28125 -0.9375,0.875 v 1.46875 h 0.52148 a 14.5,14.5 0 0 0 0.41602,-0.54688 z" clip-path="url(#clipPath1205)" color="#000" display="inline" enable-background="accumulate" opacity=".24" overflow="visible" visibility="visible" style="marker:none"/><path id="path4243" fill="#fff" fill-opacity="1" fill-rule="nonzero" stroke="none" stroke-dasharray="none" stroke-dashoffset="0" stroke-linecap="butt" stroke-linejoin="miter" stroke-miterlimit="4" stroke-opacity="1" stroke-width="64" d="m 152,44 a 112,112 0 0 0 -44.59375,9.40625 L 118,64 V 76.541016 L 132,92 h 8 v -8 l 12,-12 v -8 l 8,-8 V 44.400391 A 112,112 0 0 0 152,44 Z M 86.978516,64.978516 A 112,112 0 0 0 40,156 h 12 l 20,20 v -24 l 12,-12 h 8 l 12,-12 h 12 l -6,-6 12,-14 -12,-12 H 92 v 16 h -8 l -8,-8 V 96 L 88,84 H 98 V 76 Z M 204,72 192,84 v 10 h 12 v -6 h 8 v 8 l -4,4 -16,0.27148 L 186,106 h -8 v 8 l -6,6 v 12 h 12 l 8,-8 h 8 v 4 l 8,8 h 4 v -4 l -8,-8 h 8 l 8,8 h 10 l -6,-6 6,-6 h 6 l 6,6 h -6 l -6,6 5.89062,5.89062 L 236,144 h -8 l 24,24 h 4 l 4,-4 3.78906,-3.78906 A 112,112 0 0 0 264,156 112,112 0 0 0 263.85352,151.85352 L 260,148 h 3.70898 A 112,112 0 0 0 225.9375,72 Z m 24,72 h -24 l -4,-4 h -24 l -14,14 v 20 l 10,10 h 14 l 6,6 v 6 l 4,4 v 24 l 15.18945,16.05469 25.08008,-25.08203 L 236,192 256,172 h -8 L 228,152 Z M 150,88 v 6 h 12 l -6,-6 z m 36,2 -6,6 v 6 h 6 z m -62,22 -6,6 h 6 l 2,2 h 2 l 2,-2 z m -34,42 -6,6 h 12 v -6 z m -6,18 -8,8 v 20 L 92.054688,214.06836 92,232 l -6,6 v 8.33984 a 112,112 0 0 0 12.234375,7.90625 L 118,236 v -8 l 12,-12 v -6 l 6,-6 v -16 l -8,-8 h -16 l -8,-8 z m 166,28 -8,7.45898 V 220 h 1.85938 A 112,112 0 0 0 250,210.16602 Z" color="#000" display="inline" enable-background="accumulate" opacity=".24" overflow="visible" visibility="visible" style="marker:none"/><path id="path1131" fill="#fff" fill-opacity="1" fill-rule="nonzero" stroke="none" stroke-dasharray="none" stroke-dashoffset="0" stroke-linecap="butt" stroke-linejoin="miter" stroke-miterlimit="4" stroke-opacity="1" stroke-width="12" d="m 339,63 -2.625,3 2.25,2.25 v 2.351562 L 341.25,73.5 h 1.5 V 72 L 345,69.75 v -1.5 l 1.5,-1.5 V 64.5 L 345,63 Z m -5.25,0.972656 a 22.5,22.5 0 0 0 -3.94336,2.583985 L 330,66.75 h 3.75 z M 328.875,68.25 V 70.5 H 327 l -0.54883,-0.548828 a 22.5,22.5 0 0 0 -4.90234,13.097656 L 324,85.5 h 2.25 l 3.75,3.75 v -4.5 l 2.25,-2.25 h 1.5 L 336,80.25 h 2.25 l -1.125,-1.125 2.25,-2.625 -2.25,-2.25 h -3.375 v 3 h -1.5 l -1.5,-1.5 v -1.5 L 333,72 h 1.875 v -1.5 l -2.25,-2.25 z m 25.875,1.5 -2.25,2.25 v 1.875 h 2.25 V 72.75 h 1.5 v 1.5 l -0.75,0.75 -3,0.05078 -1.125,1.074219 h -1.5 v 1.5 L 348.75,78.75 V 81 H 351 l 1.5,-1.5 h 1.5 v 0.75 l 1.5,1.5 h 0.75 V 81 l -1.5,-1.5 h 1.5 l 1.5,1.5 h 1.875 l -1.125,-1.125 1.125,-1.125 h 1.125 l 1.125,1.125 H 360.75 L 359.625,81 360.73047,82.105469 360.75,83.25 h -1.5 l 4.5,4.5 h 0.75 l 0.75,-0.75 1.15625,-1.15625 a 22.5,22.5 0 0 0 0.0332,-0.654297 L 365.25,84 h 1.25 A 22.5,22.5 0 0 0 361.77539,70.224609 L 360.75,71.25 l -1.5,-1.5 z m 4.5,13.5 h -4.5 L 354,82.5 h -4.5 l -2.625,2.625 v 3.75 l 1.875,1.875 h 2.625 l 1.125,1.125 V 93 l 0.75,0.75 v 4.5 l 2.84766,3.00977 4.70312,-4.703129 L 360.75,92.25 364.5,88.5 H 363 l -3.75,-3.75 z m -14.625,-10.5 v 1.125 h 2.25 L 345.75,72.75 Z m 6.75,0.375 -1.125,1.125 v 1.125 h 1.125 z m -11.625,4.125 -1.125,1.125 h 1.125 l 0.375,0.375 h 0.375 l 0.375,-0.375 z m -6.375,7.875 -1.125,1.125 h 2.25 v -1.125 z m -1.125,3.375 -1.5,1.5 v 3.75 l 3.00977,2.636719 -0.01,3.363281 -1.125,1.125 v 2.50977 a 22.5,22.5 0 0 0 1.83203,0.96289 L 338.625,100.5 V 99 l 2.25,-2.25 V 95.625 L 342,94.5 v -3 L 340.5,90 h -3 L 336,88.5 Z m 31.125,5.25 -1.5,1.398438 V 97.5 h 0.0898 a 22.5,22.5 0 0 0 1.41016,-2.107422 z" clip-path="url(#clipPath1237)" color="#000" display="inline" enable-background="accumulate" opacity=".24" overflow="visible" visibility="visible" style="marker:none"/><path id="path976" fill="#000" fill-opacity="1" fill-rule="nonzero" stroke="#000" stroke-dasharray="none" stroke-dashoffset="0" stroke-linecap="butt" stroke-linejoin="round" stroke-miterlimit="4" stroke-opacity="1" stroke-width="2" d="m 332.50001,239.50042 -5.69922,3.30078 -3.30078,5.69922 5.69922,-3.30078 z" color="#000" display="inline" enable-background="accumulate" opacity=".05" overflow="visible" visibility="visible" style="marker:none"/><path enable-background="new" style="line-height:1000%;-inkscape-font-specification:'Ubuntu Light'" id="path967-7-1-7" fill="#fff9f2" fill-opacity="1" stroke="none" stroke-linecap="butt" stroke-linejoin="miter" stroke-opacity="1" stroke-width=".649" d="m 327.3229,239.89324 c -0.27271,0.56818 -0.53406,1.14395 -0.78405,1.72729 -0.25,0.57573 -0.5039,1.18183 -0.76147,1.81819 -0.24999,0.63635 -0.77266,2.02266 -0.77266,2.02266 l -0.58971,1.43177 h 1.49507 l 0.54088,-1.48616 3.04904,-0.40669 0.64786,1.89285 h 1.48895 l -0.64483,-1.40903 c 0,0 -0.5265,-1.38258 -0.78407,-2.01136 -0.25,-0.63637 -0.50004,-1.24619 -0.75002,-1.82951 -0.25,-0.58332 -0.79539,-1.75001 -0.79539,-1.75001 h -0.67348 z m 1.20443,2.87495 c 0.27272,0.67422 0.55297,1.4015 0.84087,2.18178 l -2.68651,-0.10223 c 0.23484,-0.65908 0.46972,-1.29538 0.70456,-1.90901 0.19355,-0.496 0.39472,-0.97439 0.60278,-1.43662 v -0.009 c 0,0 0.30491,0.6989 0.5383,1.27489 z" display="inline" font-family="Ubuntu" font-size="196.248" font-stretch="normal" font-style="normal" font-variant="normal" font-weight="300" letter-spacing="0" word-spacing="0"/><path enable-background="new" style="line-height:1000%;-inkscape-font-specification:'Ubuntu Light'" id="path969-5-8-9" fill="#4571df" fill-opacity="1" stroke="none" stroke-linecap="butt" stroke-linejoin="miter" stroke-opacity="1" stroke-width=".649" d="m 328.6625,239.89324 -0.65843,1.61874 c 0,0 0.29932,0.70255 0.52326,1.25621 0.27273,0.67422 0.55298,1.4015 0.84087,2.18178 v 0 l 1.43731,0.0387 c -0.20139,-0.52954 -0.40063,-1.03521 -0.59759,-1.51602 -0.25,-0.63635 -0.50004,-1.24617 -0.75003,-1.82949 -0.25,-0.58334 -0.79539,-1.75002 -0.79539,-1.75002 z m -0.31069,5.4369 1.15456,0.0786 0.64106,1.48446 h 1.48784 l -0.65709,-1.48075 -0.0121,-0.0321 c -0.85941,-0.0171 6.21742,-0.28454 -2.61428,-0.0502 z" display="inline" font-family="Ubuntu" font-size="196.248" font-stretch="normal" font-style="normal" font-variant="normal" font-weight="300" letter-spacing="0" opacity=".1" word-spacing="0"/><path enable-background="new" style="line-height:1000%;-inkscape-font-specification:'Ubuntu Light'" id="path967-7-1" fill="#fff9f2" fill-opacity="1" stroke="none" stroke-linecap="butt" stroke-linejoin="miter" stroke-opacity="1" stroke-width=".649" d="m 330.85807,193.0003 c -0.46754,0.97402 -0.91557,1.96109 -1.34414,2.96109 -0.42856,0.98701 -0.86381,2.02604 -1.30536,3.11695 -0.42857,1.09091 -1.32457,3.46747 -1.32457,3.46747 l -1.01098,2.45449 h 2.56305 l 0.92722,-2.54775 5.36262,0.29775 0.975,2.25 h 2.55252 l -1.10543,-2.41552 c 0,0 -0.90259,-2.37016 -1.34415,-3.44809 -0.42857,-1.09091 -0.85721,-2.13633 -1.28579,-3.13633 -0.42857,-1 -1.36352,-3.00006 -1.36352,-3.00006 H 332 Z m 2.06475,4.92854 c 0.46753,1.15585 0.94797,2.4026 1.44147,3.74026 l -4.6055,-0.17526 c 0.4026,-1.12987 0.80525,-2.22068 1.20785,-3.27263 0.33184,-0.85031 0.6767,-1.67041 1.03336,-2.46281 v -0.0152 c 0,0 0.52273,1.19813 0.92282,2.18556 z" display="inline" font-family="Ubuntu" font-size="196.248" font-stretch="normal" font-style="normal" font-variant="normal" font-weight="300" letter-spacing="0" word-spacing="0"/><path enable-background="new" style="line-height:1000%;-inkscape-font-specification:'Ubuntu Light'" id="path969-5-8" fill="#4571df" fill-opacity="1" stroke="none" stroke-linecap="butt" stroke-linejoin="miter" stroke-opacity="1" stroke-width=".649" d="m 333.15454,193.0003 -1.12874,2.77501 c 0,0 0.5131,1.2044 0.89702,2.15353 0.46753,1.15585 0.94796,2.4026 1.44147,3.74026 v 0 l 2.464,0.0665 c -0.34524,-0.9078 -0.68679,-1.77466 -1.02444,-2.59891 -0.42857,-1.09091 -0.85721,-2.13634 -1.28579,-3.13634 -0.42857,-1 -1.36352,-3.00006 -1.36352,-3.00006 z m -0.36042,9.66407 1.97925,0.13465 0.9268,2.20128 h 2.55061 l -0.95425,-2.19494 -0.0208,-0.055 z" display="inline" font-family="Ubuntu" font-size="196.248" font-stretch="normal" font-style="normal" font-variant="normal" font-weight="300" letter-spacing="0" opacity=".1" word-spacing="0"/><path id="text954-5-2-6" fill="#000" fill-opacity="1" stroke="none" stroke-linecap="butt" stroke-linejoin="miter" stroke-opacity="1" stroke-width="4.906" d="m 341.37891,70.9707 c -0.96969,2.02021 -1.69901,3.46694 -2.58789,5.54102 -0.88889,2.04714 -1.79316,4.20222 -2.70898,6.46484 -0.34279,0.87254 -0.69223,1.78275 -1.04298,2.69532 -0.21612,0.49365 -0.45931,1.0854 -0.83983,2.10742 -0.63767,1.69435 -1.0658,2.71459 -1.77735,4.59375 -0.25923,0.65575 -0.5421,1.38921 -0.99218,2.62695 h 3.02928 2.28517 l 2.24608,-6.25195 5.00978,-0.2168 3.47656,0.15039 1.5332,0.0664 2.2461,6.25195 h 2.28515 3.0293 c -0.45008,-1.23774 -0.73294,-1.9712 -0.9922,-2.62695 -0.71154,-1.87916 -1.13967,-2.89939 -1.77733,-4.59375 -0.38054,-1.02201 -0.62373,-1.61376 -0.83984,-2.10742 -0.35075,-0.91257 -0.70019,-1.82278 -1.04297,-2.69531 -0.91582,-2.26263 -1.62087,-3.81615 -2.50977,-5.86328 -0.57813,-1.34899 -1.1787,-2.68342 -1.79101,-4.00977 -0.0666,-0.14413 -0.12836,-0.29168 -0.19532,-0.43555 l -0.0762,-0.14453 c -0.24153,-0.51763 -0.47784,-1.03864 -0.7246,-1.55273 h -0.0801 -2.6875 -0.10743 -2.28711 z M 344,75.9375 c 0.0176,0.0411 0.035,0.0819 0.0527,0.12305 v 0.0312 c 0.73973,1.64348 1.45629,3.34382 2.14454,5.10742 0.41751,1.09091 0.62817,1.58404 0.83983,2.09766 0.21165,0.51361 0.42431,1.04703 0.8418,2.21875 l -1.25,0.0469 -0.0586,0.002 -2.57031,0.0918 -3.87891,-0.13868 c 0.835,-2.34343 0.84662,-2.13654 1.68164,-4.31836 0.68824,-1.7636 1.40479,-3.46394 2.14454,-5.10742 v -0.0312 c 0.0176,-0.0411 0.0351,-0.082 0.0527,-0.12304 z" display="inline" enable-background="new" font-family="Ubuntu" font-size="196.248" font-stretch="normal" font-style="normal" font-variant="normal" font-weight="300" letter-spacing="0" opacity=".2" word-spacing="0" style="line-height:1000%;-inkscape-font-specification:'Ubuntu Light'"/><path id="rect12119" fill="#fff" fill-opacity="1" stroke="none" stroke-dasharray="none" stroke-linecap="round" stroke-linejoin="round" stroke-miterlimit="4" stroke-opacity="1" stroke-width="10.667" d="M 40,165.6962 C 45.28652,223.60755 93.82539,267.95327 151.97753,268.00029 210.14691,267.97649 258.7119,223.6247 264,165.6962 Z" display="inline" enable-background="new" opacity=".1"/><path filter="url(#filter1062-3)" style="line-height:1000%;-inkscape-font-specification:'Ubuntu Light'" id="path1052-7" fill="#000" fill-opacity="1" stroke="none" stroke-linecap="butt" stroke-linejoin="miter" stroke-opacity="1" stroke-width="4.906" d="m 140.49609,84.000299 c -4.70996,9.81241 -9.22355,19.756001 -13.54101,29.830081 -4.31746,9.94324 -8.7021,20.41049 -13.15039,31.40039 -1.66494,4.23801 -3.36668,8.65932 -5.07031,13.0918 -1.04969,2.39777 -2.22981,5.26835 -4.07813,10.23242 -3.0972,8.22972 -6.63179,17.55233 -10.08789,26.67969 -1.25915,3.18508 -2.64003,6.75373 -4.82617,12.76562 h 14.71875 11.10156 l 12.36329,-34.73633 24.33202,-1.05859 24.334,1.05859 12.36327,34.73633 h 11.10156 14.71875 c -2.18614,-6.01189 -3.56702,-9.58054 -4.82616,-12.76562 -3.45609,-9.12736 -6.9907,-18.44997 -10.08789,-26.67969 -1.84833,-4.96407 -3.02845,-7.83465 -4.07813,-10.23242 -1.70363,-4.43248 -3.40538,-8.85379 -5.07032,-13.0918 -4.44828,-10.9899 -8.83292,-21.45715 -13.15038,-31.40039 -4.31747,-10.07409 -8.83107,-20.017671 -13.54102,-29.830081 H 163.63086 152.51758 152 140.88672 Z m 11.76172,27.037111 c 0.0856,0.19974 0.17424,0.39587 0.25977,0.5957 v 0.15235 c 3.59305,7.98261 7.06728,16.24447 10.41015,24.81054 4.0558,10.59741 4.11217,9.58637 8.16797,20.96875 l -18.83789,0.67969 -18.83593,-0.67969 c 4.0558,-11.38238 4.11216,-10.37134 8.16796,-20.96875 3.34287,-8.56607 6.81711,-16.82793 10.41016,-24.81054 v -0.15235 c 0.0854,-0.19959 0.17233,-0.3962 0.25781,-0.5957 z" display="inline" enable-background="new" font-family="Ubuntu" font-size="196.248" font-stretch="normal" font-style="normal" font-variant="normal" font-weight="300" letter-spacing="0" opacity=".1" word-spacing="0"/><path id="rect12119-7" fill="#fff" fill-opacity="1" stroke="none" stroke-dasharray="none" stroke-linecap="round" stroke-linejoin="round" stroke-miterlimit="4" stroke-opacity="1" stroke-width="2" d="m 322.10849,86.000339 c 1.03349,11.32142 10.52263,19.990811 21.89112,20.000001 11.37187,-0.005 20.86611,-8.675231 21.89991,-20.000001 z" display="inline" enable-background="new" opacity=".1"/><path id="rect12119-0" fill="#fff" fill-opacity="1" stroke="none" stroke-dasharray="none" stroke-linecap="round" stroke-linejoin="round" stroke-miterlimit="4" stroke-opacity="1" stroke-width="1.333" d="m 321.40552,149.33367 c 0.68899,7.54762 7.01509,13.32722 14.59409,13.33334 7.58124,-0.003 13.91074,-5.78349 14.59994,-13.33334 z" display="inline" enable-background="new" opacity=".1"/><path id="rect12119-01" fill="#fff" fill-opacity="1" stroke="none" stroke-dasharray="none" stroke-linecap="round" stroke-linejoin="round" stroke-miterlimit="4" stroke-opacity="1" stroke-width="1" d="m 321.05406,201.00034 c 0.51675,5.66071 5.2613,9.99541 10.94555,10 5.68594,-0.002 10.43306,-4.33762 10.94995,-10 z" display="inline" enable-background="new" opacity=".1"/><path id="rect12119-6" fill="#fff" fill-opacity="1" stroke="none" stroke-dasharray="none" stroke-linecap="round" stroke-linejoin="round" stroke-miterlimit="4" stroke-opacity="1" stroke-width=".667" d="m 320.70258,244.66699 c 0.34449,3.7738 3.50754,6.6636 7.29703,6.66666 3.79061,-0.002 6.95536,-2.89174 7.29996,-6.66666 z" display="inline" enable-background="new" opacity=".1"/><path enable-background="new" style="line-height:1000%;-inkscape-font-specification:'Ubuntu Light'" id="path967-7" fill="#fff9f2" fill-opacity="1" stroke="none" stroke-linecap="butt" stroke-linejoin="miter" stroke-opacity="1" stroke-width=".649" d="m 334.44304,138.00028 c -0.62338,1.2987 -1.22075,2.61479 -1.79219,3.94813 -0.57143,1.31601 -1.15175,2.70138 -1.74049,4.15593 -0.57143,1.45455 -1.76609,4.6233 -1.76609,4.6233 l -1.34797,3.27266 h 3.4174 l 1.2363,-3.397 7.15017,0.397 1.3,3 h 3.40337 l -1.47392,-3.2207 c 0,0 -1.20345,-3.16022 -1.7922,-4.59745 -0.57143,-1.45455 -1.14295,-2.84845 -1.71438,-4.18179 -0.57143,-1.33333 -1.81804,-4.00008 -1.81804,-4.00008 h -1.53938 z m 2.75301,6.5714 c 0.62338,1.54113 1.26396,3.20347 1.92197,4.98702 l -6.14067,-0.23369 c 0.53678,-1.50649 1.07366,-2.96091 1.61045,-4.36351 0.44244,-1.13374 0.90227,-2.22722 1.37783,-3.28375 v -0.0202 c 0,0 0.69696,1.59751 1.23042,2.91409 z" display="inline" font-family="Ubuntu" font-size="196.248" font-stretch="normal" font-style="normal" font-variant="normal" font-weight="300" letter-spacing="0" word-spacing="0"/><path enable-background="new" style="line-height:1000%;-inkscape-font-specification:'Ubuntu Light'" id="path969-5" fill="#4571df" fill-opacity="1" stroke="none" stroke-linecap="butt" stroke-linejoin="miter" stroke-opacity="1" stroke-width=".649" d="M 337.505,138.00028 336,141.7003 c 0,0 0.68415,1.60587 1.19605,2.87138 0.62338,1.54113 1.26396,3.20347 1.92197,4.98702 v 0 l 3.28534,0.0887 c -0.46033,-1.2104 -0.91574,-2.36621 -1.36594,-3.46522 -0.57142,-1.45455 -1.14294,-2.84845 -1.71437,-4.18179 -0.57143,-1.33333 -1.81805,-4.00008 -1.81805,-4.00008 z m -0.48055,12.88544 2.639,0.17953 1.23574,2.93505 h 3.40082 l -1.27234,-2.92659 -0.0277,-0.0734 z" display="inline" font-family="Ubuntu" font-size="196.248" font-stretch="normal" font-style="normal" font-variant="normal" font-weight="300" letter-spacing="0" opacity=".1" word-spacing="0"/><path id="text954-5" fill="#fff9f2" fill-opacity="1" stroke="none" stroke-linecap="butt" stroke-linejoin="miter" stroke-opacity="1" stroke-width="4.906" d="m 140.49609,82.000299 c -4.70996,9.81241 -9.22355,19.756001 -13.54101,29.830081 -4.31746,9.94324 -8.7021,20.4105 -13.15039,31.40039 -1.66494,4.23801 -3.36668,8.65932 -5.07031,13.0918 -1.04969,2.39777 -2.22981,5.26836 -4.07813,10.23242 -3.0972,8.22972 -6.6318,17.55233 -10.08789,26.67969 -1.25915,3.18508 -2.64003,6.75373 -4.82617,12.76562 h 14.71875 11.10156 l 12.36329,-34.73633 24.33202,-1.05859 24.334,1.05859 12.36327,34.73633 h 11.10156 14.71875 c -2.18614,-6.01189 -3.56702,-9.58054 -4.82616,-12.76562 -3.45609,-9.12736 -6.9907,-18.44997 -10.08789,-26.67969 -1.84833,-4.96406 -3.02845,-7.83465 -4.07813,-10.23242 -1.70363,-4.43248 -3.40538,-8.85379 -5.07032,-13.0918 -4.44828,-10.98989 -8.83292,-21.45715 -13.15038,-31.40039 -4.31747,-10.07409 -8.83107,-20.017671 -13.54102,-29.830081 H 163.63086 152.51758 152 140.88672 Z m 11.76172,27.037111 c 0.0856,0.19974 0.17424,0.39587 0.25977,0.5957 v 0.15235 c 3.59305,7.98261 7.06728,16.24447 10.41015,24.81054 4.0558,10.59741 4.11217,9.58635 8.16797,20.96875 l -18.83789,0.67969 -18.83593,-0.67969 c 4.0558,-11.3824 4.11216,-10.37134 8.16796,-20.96875 3.34287,-8.56607 6.81711,-16.82793 10.41016,-24.81054 v -0.15235 c 0.0854,-0.19959 0.17233,-0.3962 0.25781,-0.5957 z" display="inline" enable-background="new" font-family="Ubuntu" font-size="196.248" font-stretch="normal" font-style="normal" font-variant="normal" font-weight="300" letter-spacing="0" word-spacing="0" style="line-height:1000%;-inkscape-font-specification:'Ubuntu Light'"/><rect stroke-linejoin="miter" style="marker:none" id="rect958" width="18" height="3" x="327" y="148" fill="#f8f8f8" fill-opacity="1" fill-rule="nonzero" stroke="none" stroke-dasharray="2 2" stroke-dashoffset="0" stroke-linecap="butt" stroke-miterlimit="4" stroke-opacity="1" stroke-width="2" color="#000" display="inline" enable-background="accumulate" opacity="1" overflow="visible" rx="1.469" ry="1.469" visibility="visible"/><path id="rect962" fill="#4571df" fill-opacity="1" fill-rule="nonzero" stroke="none" stroke-dasharray="2 2" stroke-dashoffset="0" stroke-linecap="butt" stroke-linejoin="miter" stroke-miterlimit="4" stroke-opacity="1" stroke-width="2" d="m 328.59961,149 c -0.3324,0 -0.59961,0.223 -0.59961,0.5 0,0.277 0.26721,0.5 0.59961,0.5 h 4 5.80078 5 c 0.3324,0 0.59961,-0.223 0.59961,-0.5 0,-0.277 -0.26721,-0.5 -0.59961,-0.5 h -5 -5.80078 z" color="#000" display="inline" enable-background="accumulate" opacity=".2" overflow="visible" visibility="visible" style="marker:none"/><rect id="rect1040" width="136" height="24" x="84" y="156" fill="#000" fill-opacity="1" fill-rule="nonzero" stroke="none" stroke-dasharray="2 2" stroke-dashoffset="0" stroke-linecap="butt" stroke-linejoin="miter" stroke-miterlimit="4" stroke-opacity="1" stroke-width="2" color="#000" display="inline" enable-background="accumulate" filter="url(#filter1066)" opacity=".1" overflow="visible" rx="12" ry="12" visibility="visible" style="marker:none"/><path id="path1693" fill="#416ddc" fill-opacity="1" stroke="none" stroke-linecap="butt" stroke-linejoin="miter" stroke-opacity="1" stroke-width="4.906" d="m 163.75781,82.349909 -11.05077,27.865231 c 3.52501,7.85046 6.93725,15.96708 10.22069,24.38086 4.0558,10.59741 4.11217,9.58635 8.16797,20.96875 l -6.35351,0.22852 4.40625,15.14648 7.44337,0.32422 12.36327,34.73633 h 11.10156 14.71875 c -2.18614,-6.01189 -3.56702,-9.58054 -4.82616,-12.76562 -3.45609,-9.12737 -6.9907,-18.44997 -10.08789,-26.67969 -1.84833,-4.96406 -3.02845,-7.83465 -4.07813,-10.23242 -1.70363,-4.43248 -3.40538,-8.85379 -5.07032,-13.0918 -4.44828,-10.98989 -8.83292,-21.45715 -13.15038,-31.40039 -3.113,-7.26369 -6.33141,-14.456251 -9.64844,-21.583991 z" display="inline" enable-background="new" font-family="Ubuntu" font-size="196.248" font-stretch="normal" font-style="normal" font-variant="normal" font-weight="300" letter-spacing="0" opacity=".1" word-spacing="0" style="line-height:1000%;-inkscape-font-specification:'Ubuntu Light'"/><rect id="rect4270" width="136" height="24" x="84" y="154" fill="#fff" fill-opacity="1" fill-rule="nonzero" stroke="none" stroke-dasharray="2 2" stroke-dashoffset="0" stroke-linecap="butt" stroke-linejoin="miter" stroke-miterlimit="4" stroke-opacity="1" stroke-width="2" color="#000" display="inline" enable-background="accumulate" opacity="1" overflow="visible" rx="12" ry="12" visibility="visible" style="marker:none"/><path id="rect4272" fill="#416ddc" fill-opacity="1" fill-rule="nonzero" stroke="none" stroke-dasharray="2 2" stroke-dashoffset="0" stroke-linecap="butt" stroke-linejoin="miter" stroke-miterlimit="4" stroke-opacity="1" stroke-width="2" d="m 96,162 c -2.216,0 -4,1.784 -4,4 0,2.216 1.784,4 4,4 H 135.625 168 208.375 c 2.00825,0 3.625,-1.61675 3.625,-3.625 v -0.75 C 212,163.61675 210.38325,162 208.375,162 H 168 135.625 Z" color="#000" display="inline" enable-background="accumulate" opacity=".2" overflow="visible" visibility="visible" style="marker:none"/><rect stroke-linejoin="miter" style="marker:none" id="rect4270-9" width="14" height="3" x="325" y="200" fill="#f8f8f8" fill-opacity="1" fill-rule="nonzero" stroke="none" stroke-dasharray="2 2" stroke-dashoffset="0" stroke-linecap="butt" stroke-miterlimit="4" stroke-opacity="1" stroke-width="2" color="#000" display="inline" enable-background="accumulate" opacity="1" overflow="visible" rx="1.5" ry="1.5" visibility="visible"/><path id="rect4272-3" fill="#4571df" fill-opacity="1" fill-rule="nonzero" stroke="none" stroke-dasharray="2 2" stroke-dashoffset="0" stroke-linecap="butt" stroke-linejoin="miter" stroke-miterlimit="4" stroke-opacity="1" stroke-width="2" d="m 326.5,201 c -0.277,0 -0.5,0.223 -0.5,0.5 0,0.277 0.223,0.5 0.5,0.5 h 3.93359 3.06641 4.06641 C 337.80668,202 338,201.80668 338,201.56641 v -0.13282 C 338,201.19332 337.80668,201 337.56641,201 H 333.5 330.43359 Z" color="#000" display="inline" enable-background="accumulate" opacity=".2" overflow="visible" visibility="visible" style="marker:none"/><rect stroke-linejoin="miter" style="marker:none" id="rect4270-9-8" width="8" height="1.556" x="324" y="243.889" fill="#f8f8f8" fill-opacity="1" fill-rule="nonzero" stroke="none" stroke-dasharray="2 2" stroke-dashoffset="0" stroke-linecap="butt" stroke-miterlimit="4" stroke-opacity="1" stroke-width="2" color="#000" display="inline" enable-background="accumulate" opacity="1" overflow="visible" rx=".771" ry=".778" visibility="visible"/><path id="text954-5-2" fill="#fff9f2" fill-opacity="1" stroke="none" stroke-linecap="butt" stroke-linejoin="miter" stroke-opacity="1" stroke-width="4.906" d="m 341.37848,69.97079 c -0.96969,2.02021 -1.69918,3.46721 -2.58805,5.54129 -0.88891,2.04713 -1.79163,4.20216 -2.70745,6.46478 -0.34277,0.87253 -0.69314,1.7828 -1.04387,2.69537 -0.21612,0.49366 -0.4591,1.08466 -0.83963,2.10668 -0.63766,1.69435 -1.06527,2.71382 -1.77683,4.59298 -0.25924,0.65575 -0.54354,1.39048 -0.99362,2.62822 h 3.03033 2.28561 l 2.24529,-6.25171 5.00954,-0.21794 5.00994,0.21794 2.24529,6.25171 h 2.28563 3.03031 c -0.45007,-1.23774 -0.73438,-1.97247 -0.99362,-2.62822 -0.71155,-1.87915 -1.13916,-2.89863 -1.77683,-4.59298 -0.38054,-1.02202 -0.6235,-1.61302 -0.83961,-2.10668 -0.35075,-0.91257 -0.70111,-1.82284 -1.04389,-2.69537 -0.91581,-2.26262 -1.61898,-3.81776 -2.50789,-5.86489 -0.88887,-2.07408 -1.81814,-4.12173 -2.78785,-6.14194 h -0.0804 l -2.68736,3.2e-4 H 343.747 l -2.28803,8.6e-4 z m 2.62133,4.96626 c 0.0176,0.0411 0.0359,0.0815 0.0536,0.12265 v 0.0314 c 0.73973,1.64347 1.45501,3.34445 2.14326,5.10805 0.83502,2.18182 0.84661,1.97366 1.68164,4.3171 l -3.87838,0.13993 -3.87799,-0.13993 c 0.835,-2.34344 0.84661,-2.13528 1.68163,-4.3171 0.68824,-1.7636 1.40351,-3.46458 2.14326,-5.10805 v -0.0314 c 0.0176,-0.0411 0.0355,-0.0816 0.0531,-0.12265 z" display="inline" enable-background="new" font-family="Ubuntu" font-size="196.248" font-stretch="normal" font-style="normal" font-variant="normal" font-weight="300" letter-spacing="0" word-spacing="0" style="line-height:1000%;-inkscape-font-specification:'Ubuntu Light'"/><path id="path1693-0" fill="#4571df" fill-opacity="1" stroke="none" stroke-linecap="butt" stroke-linejoin="miter" stroke-opacity="1" stroke-width="4.906" d="M 346.56699,70.04201 344,74.9 c 0.72575,1.61627 1.52056,3.56687 2.19655,5.29912 0.83502,2.18182 0.84663,1.97365 1.68164,4.31709 l -1.30808,0.047 0.90717,3.11839 1.53247,0.0667 2.24529,6.25172 h 2.28562 3.03032 c -0.45008,-1.23774 -0.73439,-1.97248 -0.99363,-2.62822 -0.71154,-1.87917 -1.13916,-2.89864 -1.77683,-4.59299 -0.38054,-1.02202 -0.6235,-1.61302 -0.83961,-2.10668 -0.35074,-0.91257 -0.70111,-1.82284 -1.04389,-2.69537 -0.91581,-2.26262 -1.61898,-3.81775 -2.50788,-5.86489 -0.64092,-1.49547 -1.30352,-2.97673 -1.98643,-4.44421 z" display="inline" enable-background="new" font-family="Ubuntu" font-size="196.248" font-stretch="normal" font-style="normal" font-variant="normal" font-weight="300" letter-spacing="0" opacity=".1" word-spacing="0" style="line-height:1000%;-inkscape-font-specification:'Ubuntu Light'"/><rect id="rect4270-93-6" width="28" height="5" x="329.947" y="84.9" fill="#000" fill-opacity="1" fill-rule="nonzero" stroke="none" stroke-dasharray="2 2" stroke-dashoffset="0" stroke-linecap="butt" stroke-linejoin="miter" stroke-miterlimit="4" stroke-opacity="1" stroke-width="2" color="#000" display="inline" enable-background="accumulate" opacity=".2" overflow="visible" rx="2.471" ry="2.5" visibility="visible" style="marker:none"/><rect id="rect4270-93" width="28" height="5" x="329.947" y="83.9" fill="#fff" fill-opacity="1" fill-rule="nonzero" stroke="none" stroke-dasharray="2 2" stroke-dashoffset="0" stroke-linecap="butt" stroke-linejoin="miter" stroke-miterlimit="4" stroke-opacity="1" stroke-width="2" color="#000" display="inline" enable-background="accumulate" opacity="1" overflow="visible" rx="2.471" ry="2.5" visibility="visible" style="marker:none"/><path id="rect4272-6" fill="#4571df" fill-opacity="1" fill-rule="nonzero" stroke="none" stroke-dasharray="2 2" stroke-dashoffset="0" stroke-linecap="butt" stroke-linejoin="miter" stroke-miterlimit="4" stroke-opacity="1" stroke-width="2" d="m 332.80078,85.899701 c -0.4432,0 -0.80078,0.223 -0.80078,0.5 0,0.277 0.35758,0.5 0.80078,0.5 h 7.92383 6.47461 8.07617 c 0.40165,0 0.72461,-0.202094 0.72461,-0.453125 v -0.09375 c 0,-0.251031 -0.32296,-0.453125 -0.72461,-0.453125 h -8.07617 -6.47461 z" color="#000" display="inline" enable-background="accumulate" opacity=".2" overflow="visible" visibility="visible" style="marker:none"/></g><g id="layer5" display="inline"><path id="path11042-1" fill="#fff" fill-opacity="1" stroke="none" stroke-dasharray="none" stroke-linecap="round" stroke-linejoin="round" stroke-miterlimit="4" stroke-opacity="1" stroke-width="1" d="M 152,43.999994 A 112,112 0 0 0 40,155.99999 112,112 0 0 0 40.04102,157.16991 112,112 0 0 1 152,45.999994 112,112 0 0 1 263.95898,156.83007 a 112,112 0 0 0 0.041,-0.83008 112,112 0 0 0 -112,-111.999996 z" display="inline" enable-background="new" opacity=".3"/><path id="path11042-1-7" fill="#000" fill-opacity="1" stroke="none" stroke-dasharray="none" stroke-linecap="round" stroke-linejoin="round" stroke-miterlimit="4" stroke-opacity="1" stroke-width="1" d="m 152,267.99999 a 112,112 0 0 1 -112,-112 112,112 0 0 1 0.04102,-1.16992 A 112,112 0 0 0 152,265.99999 112,112 0 0 0 263.95898,155.16991 a 112,112 0 0 1 0.041,0.83008 112,112 0 0 1 -112,112 z" display="inline" enable-background="new" opacity=".2"/><path id="path9498-9-1" fill="#000" fill-opacity="1" stroke="none" stroke-dasharray="none" stroke-linecap="round" stroke-linejoin="round" stroke-miterlimit="4" stroke-opacity="1" stroke-width="1.954" d="m 344,61 a 23,23 0 0 0 -23,23 23,23 0 0 0 23,23 23,23 0 0 0 23,-23 23,23 0 0 0 -23,-23 z m 0,1 c 12.15027,0 22,9.849738 22,22 0,12.150256 -9.84974,22 -22,22 -12.15026,0 -22,-9.849744 -22,-22 0,-12.150262 9.84973,-22 22,-22 z" display="inline" enable-background="new" opacity=".4"/><path id="path9498-1-6" fill="url(#linearGradient8590)" fill-opacity="1" stroke="none" stroke-dasharray="none" stroke-linecap="round" stroke-linejoin="round" stroke-miterlimit="4" stroke-opacity="1" stroke-width="1.869" d="M 344,62.000016 A 22,21.99999 0 0 0 322,84.000013 22,21.99999 0 0 0 344,106 22,21.99999 0 0 0 366,84.000013 22,21.99999 0 0 0 344,62.000016 Z m 0,0.956532 A 21.043478,21.043469 0 0 1 365.04348,84.000013 21.043478,21.043469 0 0 1 344,105.04348 21.043478,21.043469 0 0 1 322.95652,84.000013 21.043478,21.043469 0 0 1 344,62.956548 Z" display="inline" enable-background="new" opacity=".7"/><path id="path9498-9-1-2" fill="#000" fill-opacity="1" stroke="none" stroke-dasharray="none" stroke-linecap="round" stroke-linejoin="round" stroke-miterlimit="4" stroke-opacity="1" stroke-width="1.954" d="m 336,133.00001 c -8.28427,0 -15,6.71572 -15,14.99999 0,8.28427 6.71573,15 15,15 8.28427,0 15,-6.71573 15,-15 0,-8.28427 -6.71573,-14.99999 -15,-14.99999 z M 336,134 c 7.92409,0 14,6.07592 14,14 0,7.92408 -6.07592,14 -14,14 -7.92408,0 -14,-6.07592 -14,-14 0,-7.92408 6.07591,-14 14,-14 z" display="inline" enable-background="new" opacity=".4"/><path id="path9498-1-6-7" fill="url(#linearGradient8590-3)" fill-opacity="1" stroke="none" stroke-dasharray="none" stroke-linecap="round" stroke-linejoin="round" stroke-miterlimit="4" stroke-opacity="1" stroke-width="1.869" d="m 336,134 c -7.73199,0 -14,6.26802 -14,14 0,7.73198 6.26801,14 14,14 7.73199,0 14,-6.26802 14,-14 0,-7.73198 -6.26801,-14 -14,-14 z m 0,1 c 7.39582,0 13,5.60419 13,13 -10e-6,7.39581 -5.60419,13 -13,13 -7.39581,0 -12.99999,-5.60419 -13,-13 0,-7.39581 5.60418,-13 13,-13 z" display="inline" enable-background="new" opacity=".7"/><path id="path9498-9-1-2-4" fill="#000" fill-opacity="1" stroke="none" stroke-dasharray="none" stroke-linecap="round" stroke-linejoin="round" stroke-miterlimit="4" stroke-opacity="1" stroke-width="1.954" d="M 332,189.00001 C 326,189 321,194 321,200 c 0,6.07513 4.92487,11 11,11 6.07514,0 11,-4.92487 11,-11 0,-6.07513 -4.92486,-10.99998 -11,-10.99999 z M 332,190 c 5.811,0 10,4.18901 10,10 0,5.811 -4.18901,10 -10,10 -5.81099,0 -10,-4.189 -10,-10 0,-5.81099 4.189,-10 10,-10 z" display="inline" enable-background="new" opacity=".4"/><path id="path9498-1-6-7-2" fill="url(#linearGradient8590-3-3)" fill-opacity="1" stroke="none" stroke-dasharray="none" stroke-linecap="round" stroke-linejoin="round" stroke-miterlimit="4" stroke-opacity="1" stroke-width="1.869" d="m 332,190.00001 c -5.52284,0 -10,4.47716 -10,10 0,5.52284 4.47716,9.99999 10,9.99999 5.52285,0 10,-4.47715 10,-9.99999 0,-5.52284 -4.47715,-10 -10,-10 z M 332,191 c 5.28274,0 9,3.71727 9,9 0,5.28272 -3.71727,9 -9,9 -5.28272,0 -8.99999,-3.71728 -9,-9 0,-5.28273 3.71728,-9 9,-9 z" display="inline" enable-background="new" opacity=".7"/><path id="path9498-9-1-2-4-9" fill="#000" fill-opacity="1" stroke="none" stroke-dasharray="none" stroke-linecap="round" stroke-linejoin="round" stroke-miterlimit="4" stroke-opacity="1" stroke-width="1.954" d="m 328,237 c -3.81818,0 -7,3.18181 -7,7 0,3.86599 3.13401,7 7,7 3.866,0 7,-3.13401 7,-7 0,-3.866 -3.134,-6.99999 -7,-7 z m 0,1 c 3.69791,0 6,2.30209 6,6 0,3.69791 -2.3021,6 -6,6 -3.6979,0 -6,-2.30209 -6,-6 0,-3.69791 2.30209,-6 6,-6 z" display="inline" enable-background="new" opacity=".4"/><path id="path9498-1-6-7-2-0" fill="url(#linearGradient8590-3-3-4)" fill-opacity="1" stroke="none" stroke-dasharray="none" stroke-linecap="round" stroke-linejoin="round" stroke-miterlimit="4" stroke-opacity="1" stroke-width="1.869" d="m 328,238.00002 c -3.31371,0 -6,2.68629 -6,5.99999 0,3.31371 2.68629,5.99999 6,5.99999 3.31371,0 6,-2.68628 6,-5.99999 0,-3.3137 -2.68629,-5.99999 -6,-5.99999 z m 0,0.59998 c 3.16964,0 5.39999,2.23037 5.39999,5.40001 0,3.16963 -2.23035,5.39999 -5.39999,5.39999 -3.16963,0 -5.4,-2.23036 -5.4,-5.39999 0,-3.16964 2.23037,-5.40001 5.4,-5.40001 z" display="inline" enable-background="new" opacity=".7"/></g></g></svg>