<svg xmlns="http://www.w3.org/2000/svg" xmlns:svg="http://www.w3.org/2000/svg" xmlns:xlink="http://www.w3.org/1999/xlink" id="svg11300" width="400" height="300" display="inline" enable-background="new" version="1.0"><title id="title3004">Suru Icon Theme Template</title><defs id="defs3"><clipPath id="clipPath9430" clipPathUnits="userSpaceOnUse"><path id="path9432" fill="#fff" fill-opacity="1" fill-rule="nonzero" stroke="none" stroke-width="1" d="m 166.0625,-196 h 179.875 C 491.2348,-196 512,-175.28677 512,-30.125 v 148.25 C 512,263.28618 491.2348,284 345.9375,284 H 166.0625 C 20.7652,284 0,263.28618 0,118.125 V -30.125 C 0,-175.28677 20.7652,-196 166.0625,-196 Z" color="#000" display="inline" enable-background="new" overflow="visible" visibility="visible" style="marker:none"/></clipPath><clipPath id="clipPath1082" clipPathUnits="userSpaceOnUse"><path id="path1084" fill="#8c59d9" fill-opacity="1" stroke="none" stroke-dasharray="none" stroke-dashoffset="0" stroke-linecap="round" stroke-linejoin="round" stroke-miterlimit="4" stroke-opacity="1" stroke-width="2" d="M 361.9375,-212 C 507.2348,-212 528,-191.28677 528,-46.125 V 70.125 C 528,215.28618 507.2348,236 361.9375,236 H 214.0625 C 68.7652,236 48,215.28618 48,70.125 V -46.125 C 48,-191.28677 68.7652,-212 214.0625,-212 Z" display="inline" enable-background="new" opacity="1"/></clipPath><filter id="filter4346" width="1.026" height="1.022" x="-.013" y="-.011" color-interpolation-filters="sRGB"><feGaussianBlur id="feGaussianBlur4348" stdDeviation="2.12"/></filter><linearGradient id="linearGradient4358" x1="88" x2="488" y1="88" y2="488" gradientTransform="rotate(-90,287.9946,298)" gradientUnits="userSpaceOnUse" xlink:href="#linearGradient4360"/><linearGradient id="linearGradient4360"><stop id="stop4362" offset="0" stop-color="#000" stop-opacity=".588"/><stop id="stop4364" offset=".88" stop-color="#000" stop-opacity="0"/><stop id="stop4366" offset="1" stop-color="#000" stop-opacity="1"/></linearGradient><filter id="filter4380" width="1.106" height="1.088" x="-.053" y="-.044" color-interpolation-filters="sRGB"><feGaussianBlur id="feGaussianBlur4382" stdDeviation="8.48"/></filter><linearGradient id="linearGradient927"><stop id="stop923" offset="0" stop-color="#fff" stop-opacity="1"/><stop id="stop933" offset=".125" stop-color="#fff" stop-opacity=".098"/><stop id="stop931" offset=".925" stop-color="#fff" stop-opacity=".098"/><stop id="stop925" offset="1" stop-color="#fff" stop-opacity=".498"/></linearGradient><clipPath id="clipPath994" clipPathUnits="userSpaceOnUse"><path id="path996" fill="#cdcdcd" fill-opacity="1" fill-rule="nonzero" stroke="none" stroke-dasharray="none" stroke-miterlimit="4" stroke-opacity="1" stroke-width="2" d="m 335.73108,62 c -8.82418,0 -9.77365,0.90635 -9.7304,9.74838 V 84 96.25162 c -0.0433,8.84203 0.90622,9.74838 9.7304,9.74838 h 16.53919 c 8.82418,0 9.7304,-0.90625 9.7304,-9.74838 V 84 71.74838 C 362.00067,62.90625 361.09445,62 352.27027,62 Z" color="#000" display="inline" enable-background="accumulate" overflow="visible" visibility="visible" style="marker:none"/></clipPath><linearGradient id="linearGradient1004" x1="344" x2="344" y1="66.001" y2="102.001" gradientTransform="rotate(-90,344,84)" gradientUnits="userSpaceOnUse" xlink:href="#linearGradient927"/><clipPath id="clipPath959" clipPathUnits="userSpaceOnUse"><path id="path961" fill="#46a926" fill-opacity="1" fill-rule="nonzero" stroke="none" stroke-dasharray="none" stroke-miterlimit="4" stroke-opacity="1" stroke-width="2" d="m 330.1929,133.99999 c -5.61538,0 -6.21958,0.57678 -6.19206,6.20352 v 7.79648 7.79648 c -0.0276,5.62673 0.57668,6.20351 6.19206,6.20351 h 11.615 c 5.6154,0 6.19208,-0.5767 6.19208,-6.20351 v -7.79648 -7.79648 c 0,-5.6268 -0.5767,-6.20352 -6.19208,-6.20352 z" color="#000" display="inline" enable-background="accumulate" opacity="1" overflow="visible" visibility="visible" style="marker:none"/></clipPath><clipPath id="clipPath971" clipPathUnits="userSpaceOnUse"><path id="path973" fill="#46a926" fill-opacity="1" fill-rule="nonzero" stroke="none" stroke-dasharray="none" stroke-miterlimit="4" stroke-opacity="1" stroke-width="2" d="m 327.8652,189 c -4.41209,0 -4.88682,0.45318 -4.8652,4.87419 V 200 206.12581 C 322.9783,210.54682 323.45311,211 327.8652,211 h 8.2696 C 340.54689,211 341,210.54688 341,206.12581 V 200 193.87419 C 341,189.45313 340.54688,189 336.13479,189 Z" color="#000" display="inline" enable-background="accumulate" opacity="1" overflow="visible" visibility="visible" style="marker:none"/></clipPath><linearGradient id="linearGradient981" x1="332" x2="332" y1="191" y2="209" gradientTransform="rotate(-90,331.99966,200)" gradientUnits="userSpaceOnUse" xlink:href="#linearGradient927"/><clipPath id="clipPath983" clipPathUnits="userSpaceOnUse"><path id="path985" fill="#46a926" fill-opacity="1" fill-rule="nonzero" stroke="none" stroke-dasharray="none" stroke-miterlimit="4" stroke-opacity="1" stroke-width="2" d="m 325.09646,237 c -2.80769,0 -3.10979,0.28839 -3.09603,3.10176 V 244 v 3.89824 c -0.0138,2.81337 0.28834,3.10176 3.09603,3.10176 h 5.8075 C 333.71166,251 334,250.71165 334,247.89824 V 244 240.10176 C 334,237.28836 333.71165,237 330.90396,237 Z" color="#000" display="inline" enable-background="accumulate" opacity="1" overflow="visible" visibility="visible" style="marker:none"/></clipPath><linearGradient id="linearGradient993" x1="328" x2="328" y1="238" y2="250" gradientTransform="rotate(-90,328,244)" gradientUnits="userSpaceOnUse" xlink:href="#linearGradient927"/><linearGradient id="linearGradient4336-3"><stop id="stop4338-8" offset="0" stop-color="#5884f4" stop-opacity="1"/><stop id="stop4344-3" offset=".278" stop-color="#5884f4" stop-opacity="1"/><stop id="stop4346-3" offset=".278" stop-color="#2f5fdd" stop-opacity="1"/><stop id="stop4350-1" offset=".707" stop-color="#2f5fdd" stop-opacity="1"/><stop id="stop4348-6" offset=".709" stop-color="#234db8" stop-opacity="1"/><stop id="stop4340-0" offset="1" stop-color="#234db8" stop-opacity="1"/></linearGradient><linearGradient id="linearGradient1004-8" x1="344" x2="344" y1="65.144" y2="102.857" gradientTransform="matrix(0,-1.04758,0.95458104,0,263.81519,444.36752)" gradientUnits="userSpaceOnUse" xlink:href="#linearGradient927"/><clipPath id="clipPath994-1" clipPathUnits="userSpaceOnUse"><path id="path996-8" fill="#cdcdcd" fill-opacity="1" fill-rule="nonzero" stroke="none" stroke-dasharray="none" stroke-miterlimit="4" stroke-opacity="1" stroke-width="2" d="m 335.73108,62 c -8.82418,0 -9.77365,0.90635 -9.7304,9.74838 V 84 96.25162 c -0.0433,8.84203 0.90622,9.74838 9.7304,9.74838 h 16.53919 c 8.82418,0 9.7304,-0.90625 9.7304,-9.74838 V 84 71.74838 C 362.00067,62.90625 361.09445,62 352.27027,62 Z" color="#000" display="inline" enable-background="accumulate" overflow="visible" visibility="visible" style="marker:none"/></clipPath><linearGradient id="linearGradient918" x1="252.122" x2="21.425" y1="210.694" y2="210.694" gradientUnits="userSpaceOnUse" xlink:href="#linearGradient916"/><linearGradient id="linearGradient916"><stop id="stop912" offset="0" stop-color="#000" stop-opacity="1"/><stop id="stop914" offset="1" stop-color="#000" stop-opacity="0"/></linearGradient><filter id="filter920" width="1.103" height="1.143" x="-.052" y="-.072" color-interpolation-filters="sRGB"><feGaussianBlur id="feGaussianBlur922" stdDeviation="3.138"/></filter></defs><metadata id="metadata4"/><g id="layer1" display="inline"><g id="layer7" display="none"><text enable-background="new" style="line-height:0%;-inkscape-font-specification:'DejaVu Sans'" id="context" x="19.007" y="-8.255" fill="#000" fill-opacity="1" stroke="none" display="inline" font-family="DejaVu Sans" font-stretch="normal" font-style="normal" font-variant="normal" font-weight="normal" xml:space="preserve"><tspan id="tspan3933" x="19.007" y="-8.255" font-family="DejaVu Sans" font-size="18" font-stretch="normal" font-style="normal" font-variant="normal" font-weight="normal" style="line-height:1.25;-inkscape-font-specification:'DejaVu Sans'">apps</tspan></text><text id="icon-name" x="146.488" y="-8.255" fill="#000" fill-opacity="1" stroke="none" display="inline" enable-background="new" font-family="DejaVu Sans" font-stretch="normal" font-style="normal" font-variant="normal" font-weight="bold" text-anchor="start" writing-mode="lr-tb" xml:space="preserve" style="line-height:0%;-inkscape-font-specification:'DejaVu Sans Bold';text-align:start"><tspan id="tspan3937" x="146.488" y="-8.255" font-family="DejaVu Sans" font-size="18" font-stretch="normal" font-style="normal" font-variant="normal" font-weight="bold" style="line-height:1.25;-inkscape-font-specification:'DejaVu Sans Bold'">terminal-app</tspan></text><rect id="rect16x16" width="16" height="16" x="320" y="236" fill="#cdcdcd" fill-opacity="1" fill-rule="nonzero" stroke="none" stroke-width="2" display="inline" enable-background="accumulate" overflow="visible" visibility="visible" style="marker:none"/><rect id="rect24x24" width="24" height="24" x="320" y="188" fill="#cdcdcd" fill-opacity="1" fill-rule="nonzero" stroke="none" stroke-width="2" display="inline" enable-background="accumulate" overflow="visible" visibility="visible" style="marker:none"/><rect id="rect32x32" width="32" height="32" x="320" y="132" fill="#cdcdcd" fill-opacity="1" fill-rule="nonzero" stroke="none" stroke-width="2" display="inline" enable-background="accumulate" overflow="visible" visibility="visible" style="marker:none"/><rect id="rect48x48" width="48" height="48" x="320" y="60" fill="#cdcdcd" fill-opacity="1" fill-rule="nonzero" stroke="none" stroke-width="2" display="inline" enable-background="accumulate" overflow="visible" visibility="visible" style="marker:none"/><rect id="rect3951" width="256" height="256" x="24" y="28" fill="#cdcdcd" fill-opacity="1" fill-rule="nonzero" stroke="none" stroke-width="2" display="inline" enable-background="accumulate" overflow="visible" visibility="visible" style="marker:none"/></g><g id="layer8" display="inline"><path id="path995" fill="#000" fill-opacity="1" fill-rule="nonzero" stroke="none" stroke-dasharray="none" stroke-dashoffset="0" stroke-linecap="butt" stroke-linejoin="miter" stroke-miterlimit="4" stroke-opacity="1" stroke-width="2" d="m 343.99961,196.86562 c 0,-1.12014 -0.0241,-2.01524 -0.1543,-2.79101 -0.13022,-0.77577 -0.38763,-1.48014 -0.91601,-2.00977 -0.52838,-0.52962 -1.23687,-0.79079 -2.01367,-0.91992 -0.77681,-0.12912 -1.67169,-0.15002 -2.79493,-0.14453 h -6.12109 -6.125 c -1.12104,-0.005 -2.01529,0.0156 -2.79102,0.14453 -0.77681,0.12912 -1.48529,0.39029 -2.01367,0.91992 -0.52838,0.52964 -0.78579,1.234 -0.91601,2.00977 -0.13022,0.77577 -0.1543,1.67087 -0.1543,2.79101 v 8.26954 c 0,1.12013 0.024,2.01264 0.1543,2.78711 0.13033,0.77446 0.38927,1.48001 0.91797,2.00781 0.52869,0.5278 1.23438,0.78594 2.00976,0.91601 0.77539,0.13007 1.67062,0.1543 2.79297,0.1543 h 6.125 6.125 c 1.12235,0 2.01758,-0.0242 2.79297,-0.1543 0.77538,-0.13007 1.48107,-0.38821 2.00976,-0.91601 0.5287,-0.5278 0.78764,-1.23334 0.91797,-2.00781 0.13033,-0.77448 0.1543,-1.66697 0.1543,-2.78711 z" baseline-shift="baseline" clip-rule="nonzero" color="#000" color-interpolation="sRGB" color-interpolation-filters="linearRGB" color-rendering="auto" direction="ltr" display="inline" dominant-baseline="auto" enable-background="accumulate" font-family="sans-serif" font-size="medium" font-stretch="normal" font-style="normal" font-variant="normal" font-weight="normal" image-rendering="auto" letter-spacing="normal" opacity=".1" overflow="visible" shape-rendering="auto" text-anchor="start" text-decoration="none" text-rendering="auto" vector-effect="none" visibility="visible" word-spacing="normal" writing-mode="lr-tb" style="line-height:normal;font-variant-ligatures:normal;font-variant-position:normal;font-variant-caps:normal;font-variant-numeric:normal;font-variant-alternates:normal;font-feature-settings:normal;text-indent:0;text-align:start;text-decoration-line:none;text-decoration-style:solid;text-decoration-color:#000;text-transform:none;text-orientation:mixed;white-space:normal;shape-padding:0;isolation:auto;mix-blend-mode:normal;solid-color:#000;solid-opacity:1;marker:none"/><path id="path997" fill="#000" fill-opacity="1" fill-rule="nonzero" stroke="none" stroke-dasharray="none" stroke-dashoffset="0" stroke-linecap="butt" stroke-linejoin="miter" stroke-miterlimit="4" stroke-opacity="1" stroke-width="2" d="m 335.49972,241.59598 c 0,-0.71904 -0.0139,-1.30185 -0.10352,-1.83593 -0.0897,-0.53409 -0.27628,-1.0683 -0.68359,-1.47657 -0.4073,-0.40826 -0.94323,-0.59657 -1.47851,-0.68554 -0.53529,-0.089 -1.12048,-0.10119 -1.8418,-0.0977 h -2.89258 -3.89844 c -0.71816,-0.003 -1.30235,0.009 -1.83594,0.0977 -0.53528,0.089 -1.07121,0.27727 -1.47851,0.68554 -0.40731,0.40827 -0.59394,0.94248 -0.68359,1.47657 -0.0897,0.53408 -0.10352,1.11689 -0.10352,1.83593 v 5.8086 c 0,0.71904 0.0137,1.30058 0.10352,1.83398 0.0898,0.53341 0.27792,1.06768 0.68554,1.47461 0.40762,0.40693 0.94271,0.59404 1.47656,0.68359 0.53386,0.0896 1.11551,0.10352 1.83594,0.10352 h 3.89844 2.89844 c 0.72043,0 1.30208,-0.014 1.83594,-0.10352 0.53385,-0.0895 1.06894,-0.27666 1.47656,-0.68359 0.40762,-0.40693 0.59578,-0.9412 0.68554,-1.47461 0.0898,-0.5334 0.10352,-1.11494 0.10352,-1.83398 z" baseline-shift="baseline" clip-rule="nonzero" color="#000" color-interpolation="sRGB" color-interpolation-filters="linearRGB" color-rendering="auto" direction="ltr" display="inline" dominant-baseline="auto" enable-background="accumulate" font-family="sans-serif" font-size="medium" font-stretch="normal" font-style="normal" font-variant="normal" font-weight="normal" image-rendering="auto" letter-spacing="normal" opacity=".1" overflow="visible" shape-rendering="auto" text-anchor="start" text-decoration="none" text-rendering="auto" vector-effect="none" visibility="visible" word-spacing="normal" writing-mode="lr-tb" style="line-height:normal;font-variant-ligatures:normal;font-variant-position:normal;font-variant-caps:normal;font-variant-numeric:normal;font-variant-alternates:normal;font-feature-settings:normal;text-indent:0;text-align:start;text-decoration-line:none;text-decoration-style:solid;text-decoration-color:#000;text-transform:none;text-orientation:mixed;white-space:normal;shape-padding:0;isolation:auto;mix-blend-mode:normal;solid-color:#000;solid-opacity:1;marker:none"/><path id="path999" fill="#000" fill-opacity="1" fill-rule="nonzero" stroke="none" stroke-dasharray="none" stroke-dashoffset="0" stroke-linecap="butt" stroke-linejoin="miter" stroke-miterlimit="4" stroke-opacity="1" stroke-width="2" d="m 350.99951,143.19385 c 0,-1.42096 -0.0308,-2.54883 -0.19141,-3.50586 -0.16064,-0.95703 -0.4726,-1.79146 -1.09179,-2.41211 -0.61919,-0.62065 -1.45612,-0.93647 -2.41407,-1.0957 -0.95795,-0.15924 -2.08705,-0.18666 -3.51171,-0.17969 h -7.79102 -7.79688 c -1.42131,-0.007 -2.5495,0.0207 -3.50585,0.17969 -0.95796,0.15923 -1.79488,0.47505 -2.41407,1.0957 -0.61919,0.62065 -0.93115,1.45508 -1.09179,2.41211 -0.16065,0.95703 -0.19141,2.0849 -0.19141,3.50586 v 11.61523 c 0,1.42097 0.0307,2.54669 0.19141,3.50196 0.16075,0.95527 0.47425,1.78779 1.09375,2.40625 0.6195,0.61845 1.45363,0.93134 2.41015,1.09179 0.95653,0.16046 2.08403,0.19141 3.50781,0.19141 h 7.79688 7.79688 c 1.42378,0 2.55128,-0.031 3.50781,-0.19141 0.95653,-0.16045 1.79065,-0.47334 2.41015,-1.09179 0.61951,-0.61846 0.933,-1.45098 1.09375,-2.40625 0.16076,-0.95527 0.19141,-2.08099 0.19141,-3.50196 z" baseline-shift="baseline" clip-rule="nonzero" color="#000" color-interpolation="sRGB" color-interpolation-filters="linearRGB" color-rendering="auto" direction="ltr" display="inline" dominant-baseline="auto" enable-background="accumulate" font-family="sans-serif" font-size="medium" font-stretch="normal" font-style="normal" font-variant="normal" font-weight="normal" image-rendering="auto" letter-spacing="normal" opacity=".1" overflow="visible" shape-rendering="auto" text-anchor="start" text-decoration="none" text-rendering="auto" vector-effect="none" visibility="visible" word-spacing="normal" writing-mode="lr-tb" style="line-height:normal;font-variant-ligatures:normal;font-variant-position:normal;font-variant-caps:normal;font-variant-numeric:normal;font-variant-alternates:normal;font-feature-settings:normal;text-indent:0;text-align:start;text-decoration-line:none;text-decoration-style:solid;text-decoration-color:#000;text-transform:none;text-orientation:mixed;white-space:normal;shape-padding:0;isolation:auto;mix-blend-mode:normal;solid-color:#000;solid-opacity:1;marker:none"/><path id="path1020" fill="#000" fill-opacity="1" fill-rule="nonzero" stroke="none" stroke-dasharray="none" stroke-dashoffset="0" stroke-linecap="butt" stroke-linejoin="miter" stroke-miterlimit="4" stroke-opacity="1" stroke-width="2" d="m 367.49969,76.231427 c 0,-2.22316 -0.0512,-3.97368 -0.29297,-5.41406 -0.24178,-1.44039 -0.69529,-2.61905 -1.55664,-3.48243 -0.86134,-0.86337 -2.03947,-1.31906 -3.48046,-1.55859 -1.441,-0.23953 -3.19535,-0.28629 -5.42383,-0.27539 H 343.99974 331.2476 c -2.22507,-0.0108 -3.97852,0.0361 -5.41797,0.27539 -1.441,0.23953 -2.61913,0.69522 -3.48047,1.55859 -0.86134,0.86338 -1.31486,2.04204 -1.55664,3.48243 -0.24179,1.44039 -0.29297,3.1909 -0.29297,5.41406 v 17.53883 c 0,2.22317 0.0511,3.97276 0.29297,5.41017 0.24189,1.437403 0.69694,2.612463 1.55859,3.472653 0.86165,0.8602 2.03894,1.31319 3.47852,1.55468 1.43957,0.24149 3.19035,0.29297 5.41797,0.29297 h 12.75214 12.75191 c 2.22761,0 3.97839,-0.0515 5.41797,-0.29297 1.43957,-0.24149 2.61686,-0.69449 3.47851,-1.55469 0.86165,-0.86019 1.31671,-2.03525 1.55859,-3.472653 0.24189,-1.4374 0.29297,-3.187 0.29297,-5.41016 z" baseline-shift="baseline" clip-rule="nonzero" color="#000" color-interpolation="sRGB" color-interpolation-filters="linearRGB" color-rendering="auto" direction="ltr" display="inline" dominant-baseline="auto" enable-background="accumulate" font-family="sans-serif" font-size="medium" font-stretch="normal" font-style="normal" font-variant="normal" font-weight="normal" image-rendering="auto" letter-spacing="normal" opacity=".1" overflow="visible" shape-rendering="auto" text-anchor="start" text-decoration="none" text-rendering="auto" vector-effect="none" visibility="visible" word-spacing="normal" writing-mode="lr-tb" style="line-height:normal;font-variant-ligatures:normal;font-variant-position:normal;font-variant-caps:normal;font-variant-numeric:normal;font-variant-alternates:normal;font-feature-settings:normal;text-indent:0;text-align:start;text-decoration-line:none;text-decoration-style:solid;text-decoration-color:#000;text-transform:none;text-orientation:mixed;white-space:normal;shape-padding:0;isolation:auto;mix-blend-mode:normal;solid-color:#000;solid-opacity:1;marker:none"/><path id="rect4158-9" fill="#000" fill-opacity="1" fill-rule="nonzero" stroke="none" stroke-width="2" d="M 189.84323,74 C 119.24979,74 111.65402,81.250835 112,151.98706 V 298 444.01294 C 111.65402,514.74917 119.24979,522 189.84323,522 H 386.15677 C 456.75021,522 462.16345,514.72616 464,444.01294 V 298 151.98706 C 464,81.249993 456.75021,74 386.15677,74 Z" color="#000" display="inline" enable-background="accumulate" filter="url(#filter4346)" opacity=".1" overflow="visible" transform="matrix(0,0.5,-0.5,0,300.9973,13.002698)" visibility="visible" style="marker:none"/><path id="path4350" fill="url(#linearGradient4358)" fill-opacity="1" fill-rule="nonzero" stroke="none" stroke-width="2" d="M 189.84323,74 C 119.24979,74 111.65402,81.250835 112,151.98706 V 298 444.01294 C 111.65402,514.74917 119.24979,522 189.84323,522 H 386.15677 C 456.75021,522 464,514.75001 464,444.01294 V 298 151.98706 C 464,81.249993 456.75021,74 386.15677,74 Z" color="#000" display="inline" enable-background="accumulate" filter="url(#filter4380)" opacity=".3" overflow="visible" transform="matrix(0,0.5,-0.5,0,300.9973,13.002698)" visibility="visible" style="marker:none"/><path id="rect4158-7" fill="#000" fill-opacity="1" fill-rule="nonzero" stroke="none" stroke-width="1.02" d="m 266.0025,105.8091 c 0,-36.098811 -3.69016,-39.983003 -39.68984,-39.806081 H 152.0025 77.69234 C 41.69265,65.826097 38.0025,69.710289 38.0025,105.8091 v 100.38732 c 0,36.09881 3.68973,39.80608 39.68984,39.80608 h 74.31016 74.31016 c 36.00011,0 39.68984,-3.70727 39.68984,-39.80608 z" color="#000" display="inline" enable-background="accumulate" opacity=".1" overflow="visible" visibility="visible" style="marker:none"/><path id="path964" fill="#4d4d4d" fill-opacity="1" fill-rule="nonzero" stroke="none" stroke-width="1" d="m 366.50065,75.231076 c 0,-8.23154 -0.90635,-9.77365 -9.74838,-9.7304 H 344.0007 331.24889 c -8.84203,-0.0433 -9.74838,1.49886 -9.74838,9.7304 v 17.53897 c 0,8.229494 0.90625,9.730394 9.74838,9.730394 h 12.75181 12.75157 c 8.84213,0 9.74838,-1.5009 9.74838,-9.730404 z" color="#000" display="inline" enable-background="accumulate" overflow="visible" visibility="visible" style="marker:none"/><path id="rect4158" fill="#4d4d4d" fill-opacity="1" fill-rule="nonzero" stroke="none" stroke-width="1" d="m 263.9973,205.07568 c 0,35.29673 -3.62542,39.09461 -38.99353,38.92162 H 151.9973 78.99083 C 43.62271,244.17029 39.9973,240.37241 39.9973,205.07568 v -98.15676 c 0,-35.296716 3.625,-38.921616 38.99353,-38.921616 h 73.00647 73.00647 c 35.36853,0 38.99353,3.6249 38.99353,38.921616 z" color="#000" display="inline" enable-background="accumulate" overflow="visible" visibility="visible" style="marker:none"/><path id="path914" fill="#4d4d4d" fill-opacity="1" fill-rule="nonzero" stroke="none" stroke-width="1" d="m 343.49998,195.636 c 0,-4.65703 -0.47377,-5.15811 -5.09574,-5.13529 h -6.40426 -6.40425 c -4.62197,-0.0229 -5.09574,0.47826 -5.09574,5.13529 v 8.7287 c 0,4.65703 0.47371,5.13529 5.09574,5.13529 h 6.40425 6.40426 c 4.62202,0 5.09574,-0.47827 5.09574,-5.1353 z" color="#000" display="inline" enable-background="accumulate" overflow="visible" visibility="visible" style="marker:none"/><path id="path918" fill="#4d4d4d" fill-opacity="1" fill-rule="nonzero" stroke="none" stroke-width="1" d="m 335.50001,240.8545 c 0,-3.04166 -0.30899,-3.36894 -3.32331,-3.35403 h -4.17669 -4.17669 c -3.01432,-0.0149 -3.32331,0.31237 -3.32331,3.35403 v 6.29146 c 0,3.04167 0.30895,3.35404 3.32331,3.35404 h 4.17669 4.17669 c 3.01435,0 3.32331,-0.31238 3.32331,-3.35404 z" color="#000" display="inline" enable-background="accumulate" overflow="visible" visibility="visible" style="marker:none"/><path id="path958" fill="none" fill-opacity="1" fill-rule="nonzero" stroke="#000" stroke-dasharray="none" stroke-miterlimit="4" stroke-opacity="1" stroke-width="1" d="m 366.50065,75.231076 c 0,-8.23154 -0.90635,-9.77365 -9.74838,-9.7304 H 344.0007 331.24889 c -8.84203,-0.0433 -9.74838,1.49886 -9.74838,9.7304 v 17.53897 c 0,8.229494 0.90625,9.730394 9.74838,9.730394 h 12.75181 12.75157 c 8.84213,0 9.74838,-1.5009 9.74838,-9.730404 z" color="#000" display="inline" enable-background="accumulate" opacity=".4" overflow="visible" visibility="visible" style="marker:none"/><path id="path964-7" fill="#4d4d4d" fill-opacity="1" fill-rule="nonzero" stroke="none" stroke-width="1" d="m 350.50001,142.07508 c 0,-5.56175 -0.58409,-6.6037 -6.28227,-6.57447 h -8.21765 -8.21781 c -5.69818,-0.0293 -6.28227,1.01272 -6.28227,6.57447 v 11.85044 c 0,5.56037 0.58403,6.57447 6.28227,6.57447 h 8.21781 8.21765 c 5.69824,0 6.28227,-1.0141 6.28227,-6.57447 z" color="#000" display="inline" enable-background="accumulate" overflow="visible" visibility="visible" style="marker:none"/><path id="path958-1" fill="none" fill-opacity="1" fill-rule="nonzero" stroke="#000" stroke-dasharray="none" stroke-miterlimit="4" stroke-opacity="1" stroke-width="1" d="m 350.50001,142.07508 c 0,-5.56175 -0.58409,-6.6037 -6.28227,-6.57447 h -8.21765 -8.21781 c -5.69818,-0.0293 -6.28227,1.01272 -6.28227,6.57447 v 11.85044 c 0,5.56037 0.58403,6.57447 6.28227,6.57447 h 8.21781 8.21765 c 5.69824,0 6.28227,-1.0141 6.28227,-6.57447 z" color="#000" display="inline" enable-background="accumulate" opacity=".4" overflow="visible" visibility="visible" style="marker:none"/><path id="path990-8" fill="none" fill-opacity="1" fill-rule="nonzero" stroke="url(#linearGradient1004-8)" stroke-dasharray="none" stroke-miterlimit="4" stroke-opacity="1" stroke-width="3.071" d="m 335.73108,62 c -8.82418,0 -9.77365,0.90635 -9.7304,9.74838 V 84 96.25162 c -0.0433,8.84203 0.90622,9.74838 9.7304,9.74838 h 16.53919 c 8.82418,0 9.7304,-0.90625 9.7304,-9.74838 V 84 71.74838 C 362.00067,62.90625 361.09445,62 352.27027,62 Z" clip-path="url(#clipPath994-1)" color="#000" display="inline" enable-background="accumulate" opacity=".3" overflow="visible" transform="matrix(0,0.66664182,-0.63636364,0,389.45455,-81.324786)" visibility="visible" style="marker:none"/><path id="path990" fill="none" fill-opacity="1" fill-rule="nonzero" stroke="url(#linearGradient1004)" stroke-dasharray="none" stroke-miterlimit="4" stroke-opacity="1" stroke-width="2" d="m 335.73108,62 c -8.82418,0 -9.77365,0.90635 -9.7304,9.74838 V 84 96.25162 c -0.0433,8.84203 0.90622,9.74838 9.7304,9.74838 h 16.53919 c 8.82418,0 9.7304,-0.90625 9.7304,-9.74838 V 84 71.74838 C 362.00067,62.90625 361.09445,62 352.27027,62 Z" clip-path="url(#clipPath994)" color="#000" display="inline" enable-background="accumulate" opacity=".3" overflow="visible" transform="rotate(90,344,84)" visibility="visible" style="marker:none"/><path id="path935" fill="none" fill-opacity="1" fill-rule="nonzero" stroke="url(#linearGradient981)" stroke-dasharray="none" stroke-miterlimit="4" stroke-opacity="1" stroke-width="2" d="m 327.8652,189 c -4.41209,0 -4.88682,0.45318 -4.8652,4.87419 V 200 206.12581 C 322.9783,210.54682 323.45311,211 327.8652,211 h 8.2696 C 340.54689,211 341,210.54688 341,206.12581 V 200 193.87419 C 341,189.45313 340.54688,189 336.13479,189 Z" clip-path="url(#clipPath971)" color="#000" display="inline" enable-background="accumulate" opacity=".3" overflow="visible" transform="rotate(90,331.99966,200)" visibility="visible" style="marker:none"/><path id="path937" fill="none" fill-opacity="1" fill-rule="nonzero" stroke="url(#linearGradient993)" stroke-dasharray="none" stroke-miterlimit="4" stroke-opacity="1" stroke-width="2" d="m 325.09646,237 c -2.80769,0 -3.10979,0.28839 -3.09603,3.10176 V 244 v 3.89824 c -0.0138,2.81337 0.28834,3.10176 3.09603,3.10176 h 5.8075 C 333.71166,251 334,250.71165 334,247.89824 V 244 240.10176 C 334,237.28836 333.71165,237 330.90396,237 Z" clip-path="url(#clipPath983)" color="#000" display="inline" enable-background="accumulate" opacity=".3" overflow="visible" transform="rotate(90,328,244)" visibility="visible" style="marker:none"/><path id="rect4158-78" fill="#fff" fill-opacity="1" fill-rule="nonzero" stroke="none" stroke-width="1" d="M 78.990234 67.998047 C 43.621704 67.998047 39.998047 71.621249 39.998047 106.91797 L 39.998047 205.07617 C 39.998047 205.16433 39.999954 205.23841 40 205.32617 L 40 108.91602 C 40 73.6193 43.625611 69.994141 78.994141 69.994141 L 152 69.994141 L 225.00586 69.994141 C 260.28602 69.994141 263.9798 73.615176 263.99805 108.66602 L 263.99805 106.91797 C 263.99805 71.621249 260.37244 67.998047 225.00391 67.998047 L 151.99805 67.998047 L 78.990234 67.998047 z" color="#000" display="inline" enable-background="accumulate" opacity=".3" overflow="visible" visibility="visible" style="marker:none"/><path id="rect4158-6" fill="#000" fill-opacity="1" fill-rule="nonzero" stroke="none" stroke-width="1" d="M 39.998047 203.07617 L 39.998047 205.07617 C 39.998047 240.3729 43.622114 244.17104 78.990234 243.99805 L 151.99805 243.99805 L 225.00391 243.99805 C 260.37202 244.17104 263.99805 240.3729 263.99805 205.07617 L 263.99805 203.07617 C 263.99805 238.3729 260.37202 242.17104 225.00391 241.99805 L 151.99805 241.99805 L 78.990234 241.99805 C 43.622114 242.17104 39.998047 238.3729 39.998047 203.07617 z" color="#000" display="inline" enable-background="accumulate" opacity=".2" overflow="visible" visibility="visible" style="marker:none"/><path id="path958-6" fill="none" fill-opacity="1" fill-rule="nonzero" stroke="#000" stroke-dasharray="none" stroke-miterlimit="4" stroke-opacity="1" stroke-width=".977" d="m 343.51172,195.49156 c 0,-4.23214 -0.46371,-5.02499 -4.98757,-5.00275 h -6.5241 -6.52423 c -4.52386,-0.0222 -4.98757,0.77061 -4.98757,5.00275 v 9.01743 c 0,4.23108 0.46366,5.00275 4.98757,5.00275 h 6.52423 6.5241 c 4.52391,0 4.98757,-0.77167 4.98757,-5.00275 z" color="#000" display="inline" enable-background="accumulate" opacity=".4" overflow="visible" visibility="visible" style="marker:none"/><path id="path958-6-0" fill="none" fill-opacity="1" fill-rule="nonzero" stroke="#000" stroke-dasharray="none" stroke-miterlimit="4" stroke-opacity="1" stroke-width=".977" d="m 335.51173,240.91355 c 0,-2.89732 -0.30259,-3.44011 -3.25454,-3.42488 h -4.25716 -4.25724 c -2.95195,-0.0152 -3.25453,0.52756 -3.25453,3.42488 v 6.17331 c 0,2.8966 0.30255,3.42488 3.25453,3.42488 h 4.25724 4.25716 c 2.95199,0 3.25454,-0.52828 3.25454,-3.42488 z" color="#000" display="inline" enable-background="accumulate" opacity=".4" overflow="visible" visibility="visible" style="marker:none"/><path id="rect4158-1" fill="#fff" fill-opacity="1" fill-rule="nonzero" stroke="none" stroke-width="1" d="M 39.998047 148 L 39.998047 205.07617 C 39.998047 240.3729 43.622114 244.17104 78.990234 243.99805 L 151.99805 243.99805 L 225.00391 243.99805 C 260.37202 244.17104 263.99805 240.3729 263.99805 205.07617 L 263.99805 148 L 39.998047 148 z" color="#000" display="inline" enable-background="accumulate" opacity=".05" overflow="visible" visibility="visible" style="marker:none"/></g><g id="layer6" display="inline"><path id="path910" fill="url(#linearGradient918)" fill-opacity="1" stroke="none" stroke-width="1.92" d="m 110.85775,138 -4.93526,14.80579 50.10039,20.04015 -50.10039,20.04016 4.93526,14.80578 64.45752,-27.21872 v -15.25444 z m 64.36555,90.03114 v 15.10489 h 76.69918 v -15.10489 z" display="inline" enable-background="new" filter="url(#filter920)" font-family="Ubuntu" font-size="299.107" font-stretch="normal" font-style="normal" font-variant="normal" font-weight="500" letter-spacing="0" opacity=".5" text-anchor="middle" transform="matrix(0.52016215,0,0,0.52160725,20.855193,22.100141)" word-spacing="0" writing-mode="lr-tb" style="line-height:125%;-inkscape-font-specification:'Ubuntu Medium';text-align:center"/><path id="path4212" fill="#f2f2f2" fill-opacity="1" stroke="none" stroke-width="1" d="m 78.519203,93.038725 -2.56714,7.722805 26.060317,10.45309 -26.060317,10.45309 2.56714,7.72281 33.528357,-14.19748 v -7.95683 z m 33.480517,46.960895 v 8 h 40 v -8 z" display="inline" enable-background="new" font-family="Ubuntu" font-size="299.107" font-stretch="normal" font-style="normal" font-variant="normal" font-weight="500" letter-spacing="0" text-anchor="middle" word-spacing="0" writing-mode="lr-tb" style="line-height:125%;-inkscape-font-specification:'Ubuntu Medium';text-align:center"/><path id="path982" fill="#000" fill-opacity="1" stroke="none" stroke-width="1" d="m 323.28488,240.4254 -0.28516,0.85742 2.88867,1.15821 -2.88867,1.1582 0.28516,0.85547 3.71484,-1.57422 v -0.88086 z m 3.71484,4.57422 v 0.98438 h 4 v -0.98438 z" display="inline" enable-background="new" font-family="Ubuntu" font-size="299.107" font-stretch="normal" font-style="normal" font-variant="normal" font-weight="500" letter-spacing="0" opacity=".2" text-anchor="middle" word-spacing="0" writing-mode="lr-tb" style="line-height:125%;-inkscape-font-specification:'Ubuntu Medium';text-align:center"/><path id="path984" fill="#000" fill-opacity="1" stroke="none" stroke-width="1" d="m 324.28488,195.4254 -0.28516,0.85742 2.88867,1.15821 -2.88867,1.1582 0.28516,0.85547 3.71484,-1.57422 v -0.88086 z m 3.71484,4.57422 v 0.98438 h 4 v -0.98438 z" display="inline" enable-background="new" font-family="Ubuntu" font-size="299.107" font-stretch="normal" font-style="normal" font-variant="normal" font-weight="500" letter-spacing="0" opacity=".2" text-anchor="middle" word-spacing="0" writing-mode="lr-tb" style="line-height:125%;-inkscape-font-specification:'Ubuntu Medium';text-align:center"/><path id="path971" fill="#000" fill-opacity="1" stroke="none" stroke-width="1" d="m 325.68965,140.14466 -0.32088,0.96535 3.25753,1.30663 -3.25753,1.30664 0.32088,0.96535 4.19105,-1.77468 v -0.9946 z m 4.31007,5.87011 v 0.98485 h 4.987 v -0.98485 z" display="inline" enable-background="new" font-family="Ubuntu" font-size="299.107" font-stretch="normal" font-style="normal" font-variant="normal" font-weight="500" letter-spacing="0" opacity=".2" text-anchor="middle" word-spacing="0" writing-mode="lr-tb" style="line-height:125%;-inkscape-font-specification:'Ubuntu Medium';text-align:center"/><path id="path973-3" fill="#000" fill-opacity="1" stroke="none" stroke-width="1" d="m 328.53461,72.19446 -0.48132,1.44802 4.8863,1.95995 -4.8863,1.95996 0.48132,1.44802 6.28658,-2.66202 V 74.8565 Z m 6.46511,8.80516 v 1.47728 h 7.4805 v -1.47728 z" display="inline" enable-background="new" font-family="Ubuntu" font-size="299.107" font-stretch="normal" font-style="normal" font-variant="normal" font-weight="500" letter-spacing="0" opacity=".2" text-anchor="middle" word-spacing="0" writing-mode="lr-tb" style="line-height:125%;-inkscape-font-specification:'Ubuntu Medium';text-align:center"/><path id="path4327" fill="#fff" fill-opacity="1" stroke="none" stroke-width="1" d="m 78.519343,93.038725 -2.56728,7.723255 0.3058,0.12225 2.26148,-6.80229 33.528107,14.1975 v -1.04322 z m 22.192227,18.697375 -24.759507,9.93194 0.3058,0.92096 25.754117,-10.33129 z m 11.28782,28.26358 v 1.04321 h 40.00033 v -1.04321 z" display="inline" enable-background="new" font-family="Ubuntu" font-size="299.107" font-stretch="normal" font-style="normal" font-variant="normal" font-weight="500" letter-spacing="0" text-anchor="middle" word-spacing="0" writing-mode="lr-tb" style="line-height:125%;-inkscape-font-specification:'Ubuntu Medium';text-align:center"/><path id="path967" fill="#f2f2f2" fill-opacity="1" stroke="none" stroke-width="1" d="m 325.68965,139.14466 -0.32088,0.96535 3.25753,1.30663 -3.25753,1.30664 0.32088,0.96535 4.19105,-1.77468 v -0.9946 z m 4.31007,5.87011 v 0.98485 h 4.987 v -0.98485 z" display="inline" enable-background="new" font-family="Ubuntu" font-size="299.107" font-stretch="normal" font-style="normal" font-variant="normal" font-weight="500" letter-spacing="0" text-anchor="middle" word-spacing="0" writing-mode="lr-tb" style="line-height:125%;-inkscape-font-specification:'Ubuntu Medium';text-align:center"/><path id="path969" fill="#f2f2f2" fill-opacity="1" stroke="none" stroke-width="1" d="m 328.53461,71.19446 -0.48132,1.44802 4.8863,1.95995 -4.8863,1.95996 0.48132,1.44802 6.28658,-2.66202 V 73.8565 Z m 6.46511,8.80516 v 1.47728 h 7.4805 v -1.47728 z" display="inline" enable-background="new" font-family="Ubuntu" font-size="299.107" font-stretch="normal" font-style="normal" font-variant="normal" font-weight="500" letter-spacing="0" text-anchor="middle" word-spacing="0" writing-mode="lr-tb" style="line-height:125%;-inkscape-font-specification:'Ubuntu Medium';text-align:center"/><path id="path975" fill="#f2f2f2" fill-opacity="1" stroke="none" stroke-width="1" d="m 323.28488,239.4254 -0.28516,0.85742 2.88867,1.15821 -2.88867,1.1582 0.28516,0.85547 3.71484,-1.57422 v -0.88086 z m 3.71484,4.57422 v 0.98438 h 4 v -0.98438 z" display="inline" enable-background="new" font-family="Ubuntu" font-size="299.107" font-stretch="normal" font-style="normal" font-variant="normal" font-weight="500" letter-spacing="0" text-anchor="middle" word-spacing="0" writing-mode="lr-tb" style="line-height:125%;-inkscape-font-specification:'Ubuntu Medium';text-align:center"/><path id="path980" fill="#f2f2f2" fill-opacity="1" stroke="none" stroke-width="1" d="m 324.28488,194.4254 -0.28516,0.85742 2.88867,1.15821 -2.88867,1.1582 0.28516,0.85547 3.71484,-1.57422 v -0.88086 z m 3.71484,4.57422 v 0.98438 h 4 v -0.98438 z" display="inline" enable-background="new" font-family="Ubuntu" font-size="299.107" font-stretch="normal" font-style="normal" font-variant="normal" font-weight="500" letter-spacing="0" text-anchor="middle" word-spacing="0" writing-mode="lr-tb" style="line-height:125%;-inkscape-font-specification:'Ubuntu Medium';text-align:center"/></g></g></svg>