<svg xmlns="http://www.w3.org/2000/svg" xmlns:osb="http://www.openswatchbook.org/uri/2009/osb" xmlns:svg="http://www.w3.org/2000/svg" id="svg7384" width="16" height="16" version="1.1"><metadata id="metadata20854"/><defs id="defs7386"><linearGradient id="linearGradient5606" osb:paint="solid"><stop id="stop5608" offset="0" stop-color="#000" stop-opacity="1"/></linearGradient><linearGradient id="linearGradient4526" osb:paint="solid"><stop id="stop4528" offset="0" stop-color="#fff" stop-opacity="1"/></linearGradient><linearGradient id="linearGradient3600-4" osb:paint="gradient"><stop id="stop3602-7" offset="0" stop-color="#f4f4f4" stop-opacity="1"/><stop id="stop3604-6" offset="1" stop-color="#dbdbdb" stop-opacity="1"/></linearGradient></defs><g id="g4133"><path id="path2732-8-9-7" fill="gray" fill-opacity="1" fill-rule="nonzero" stroke="none" stroke-dasharray="none" stroke-dashoffset="0" stroke-linecap="butt" stroke-linejoin="miter" stroke-miterlimit="4" stroke-opacity="1" stroke-width="1" d="M 4.9941406,0 C 3.7359422,0.01453414 2.8152478,-0.03056128 2.0625,0.38476562 1.6861261,0.59242908 1.389274,0.94414736 1.2246094,1.3828125 1.0599447,1.8214776 1,2.3423913 1,3 v 10 c 0,0.657611 0.059927,1.178578 0.2246094,1.617188 C 1.3892918,15.055797 1.6861385,15.405714 2.0625,15.613281 2.8152229,16.028416 3.7360403,15.984933 4.9941406,16 h 0.00195 5.0058592 0.0039 c 1.258193,-0.01454 2.178893,0.03056 2.931641,-0.384766 0.376374,-0.207663 0.673225,-0.559381 0.837891,-0.998046 C 13.940056,14.178522 14,13.657611 14,13 V 3 C 14,2.342391 13.940074,1.8214208 13.775391,1.3828125 13.610707,0.94420416 13.313862,0.59428509 12.9375,0.38671875 12.184777,-0.02841392 11.263955,0.01506683 10.005859,0 h -0.002 -5.0058591 z M 5,1 h 5 c 1.258621,0.015235 2.089098,0.059878 2.455078,0.2617188 0.183422,0.1011586 0.28722,0.2128583 0.384766,0.4726562 C 12.93739,1.9941729 13,2.407609 13,3 v 10 c 0,0.592394 -0.06259,1.005716 -0.160156,1.265625 -0.09756,0.259909 -0.203309,0.371461 -0.386719,0.472656 C 12.08717,14.940196 11.25852,14.985293 10,15 H 5.0058594 5 C 3.741374,14.984765 2.9109003,14.940122 2.5449219,14.738281 2.3615008,14.637123 2.2577019,14.525425 2.1601562,14.265625 2.0626106,14.005825 2,13.592394 2,13 V 3 C 2,2.4076087 2.0625928,1.9942833 2.1601562,1.734375 2.2577197,1.4744667 2.3615133,1.362914 2.5449219,1.2617188 2.9108755,1.0598047 3.7414722,1.0147015 5,1 Z" baseline-shift="baseline" clip-rule="nonzero" color="#000" color-interpolation="sRGB" color-interpolation-filters="linearRGB" color-rendering="auto" direction="ltr" display="inline" dominant-baseline="auto" enable-background="accumulate" font-family="sans-serif" font-size="medium" font-stretch="normal" font-style="normal" font-variant="normal" font-weight="normal" image-rendering="auto" letter-spacing="normal" opacity="1" overflow="visible" shape-rendering="auto" text-anchor="start" text-decoration="none" text-rendering="auto" vector-effect="none" visibility="visible" word-spacing="normal" writing-mode="lr-tb" style="line-height:normal;font-variant-ligatures:normal;font-variant-position:normal;font-variant-caps:normal;font-variant-numeric:normal;font-variant-alternates:normal;font-feature-settings:normal;text-indent:0;text-align:start;text-decoration-line:none;text-decoration-style:solid;text-decoration-color:#000;text-transform:none;text-orientation:mixed;white-space:normal;shape-padding:0;isolation:auto;mix-blend-mode:normal;solid-color:#000;solid-opacity:1;marker:none"/><path id="rect3757-5" fill="gray" fill-opacity="1" stroke="none" stroke-dasharray="none" stroke-linecap="butt" stroke-linejoin="round" stroke-miterlimit="4" stroke-opacity="1" stroke-width=".472" d="M 11.851354,10 H 1.1486444 c 0,0 -0.33444996,1.6638 0,2.66208 0.31533,0.94117 1.4722874,1.24473 2.3759756,1.33103 0.7015542,0.067 1.4903067,-0.185996 2.00676,-0.66552 C 6.1472168,12.755789 6.18244,10.99303 6.5,11 c 0.29736,0.007 0.3527832,1.755789 0.96862,2.32759 0.5164533,0.479524 1.3052058,0.732517 2.00676,0.66552 0.903688,-0.0863 2.060644,-0.38986 2.375974,-1.33103 0.33446,-0.99828 0,-2.66208 0,-2.66208 z M 10.714,11.33103 c 0.31533,0.31373 0.31533,1.01732 0,1.33105 -0.33446,0.33275 -2.10822,0.33275 -2.44267,0 -0.33446,-0.33277 -0.31533,-1.01732 0,-1.33105 0.33445,-0.33275 2.10821,-0.33275 2.44267,0 z m -5.98533,0 c 0.31533,0.31373 0.31533,1.01732 0,1.33105 -0.33445,0.33275 -2.10821,0.33275 -2.44267,0 -0.31533,-0.31373 -0.31533,-1.01732 0,-1.33105 0.33446,-0.33275 2.10822,-0.33275 2.44267,0 z" opacity="1"/></g></svg>